solid OpenSCAD_Model
  facet normal 0.587785 0.809017 -0
    outer loop
      vertex 24.7275 8.03444 0
      vertex 0 26 6
      vertex 24.7275 8.03444 6
    endloop
  endfacet
  facet normal 0.587785 0.809017 0
    outer loop
      vertex 0 26 6
      vertex 24.7275 8.03444 0
      vertex 0 26 0
    endloop
  endfacet
  facet normal 0 0 1
    outer loop
      vertex 0 26 6
      vertex 23.2058 7.54001 6
      vertex 24.7275 8.03444 6
    endloop
  endfacet
  facet normal 0 0 1
    outer loop
      vertex 0 26 6
      vertex 0 24.4 6
      vertex 23.2058 7.54001 6
    endloop
  endfacet
  facet normal 0 0 1
    outer loop
      vertex 0 26 6
      vertex -23.2058 7.54001 6
      vertex 0 24.4 6
    endloop
  endfacet
  facet normal 0 -0 1
    outer loop
      vertex -23.2058 7.54001 6
      vertex 0 26 6
      vertex -24.7275 8.03444 6
    endloop
  endfacet
  facet normal -0 0 1
    outer loop
      vertex 23.2058 7.54001 6
      vertex 15.2824 -21.0344 6
      vertex 24.7275 8.03444 6
    endloop
  endfacet
  facet normal -0 0 1
    outer loop
      vertex 14.342 -19.74 6
      vertex 15.2824 -21.0344 6
      vertex 23.2058 7.54001 6
    endloop
  endfacet
  facet normal -0 0 1
    outer loop
      vertex -14.342 -19.74 6
      vertex 15.2824 -21.0344 6
      vertex 14.342 -19.74 6
    endloop
  endfacet
  facet normal 0 0 1
    outer loop
      vertex -14.342 -19.74 6
      vertex -15.2824 -21.0344 6
      vertex 15.2824 -21.0344 6
    endloop
  endfacet
  facet normal 0 0 1
    outer loop
      vertex -23.2058 7.54001 6
      vertex -15.2824 -21.0344 6
      vertex -14.342 -19.74 6
    endloop
  endfacet
  facet normal 0 0 1
    outer loop
      vertex -15.2824 -21.0344 6
      vertex -23.2058 7.54001 6
      vertex -24.7275 8.03444 6
    endloop
  endfacet
  facet normal 0 0 -1
    outer loop
      vertex 15.2824 -21.0344 0
      vertex 0 26 0
      vertex 24.7275 8.03444 0
    endloop
  endfacet
  facet normal 0 0 -1
    outer loop
      vertex -15.2824 -21.0344 0
      vertex 0 26 0
      vertex 15.2824 -21.0344 0
    endloop
  endfacet
  facet normal 0 0 -1
    outer loop
      vertex 0 26 0
      vertex -15.2824 -21.0344 0
      vertex -24.7275 8.03444 0
    endloop
  endfacet
  facet normal -0.951056 -0.309019 0
    outer loop
      vertex -15.2824 -21.0344 0
      vertex -24.7275 8.03444 6
      vertex -24.7275 8.03444 0
    endloop
  endfacet
  facet normal -0.951056 -0.309019 0
    outer loop
      vertex -24.7275 8.03444 6
      vertex -15.2824 -21.0344 0
      vertex -15.2824 -21.0344 6
    endloop
  endfacet
  facet normal 0 -1 0
    outer loop
      vertex -15.2824 -21.0344 0
      vertex 15.2824 -21.0344 6
      vertex -15.2824 -21.0344 6
    endloop
  endfacet
  facet normal 0 -1 -0
    outer loop
      vertex 15.2824 -21.0344 6
      vertex -15.2824 -21.0344 0
      vertex 15.2824 -21.0344 0
    endloop
  endfacet
  facet normal 0.951056 -0.309019 0
    outer loop
      vertex 15.2824 -21.0344 6
      vertex 24.7275 8.03444 0
      vertex 24.7275 8.03444 6
    endloop
  endfacet
  facet normal 0.951056 -0.309019 0
    outer loop
      vertex 24.7275 8.03444 0
      vertex 15.2824 -21.0344 6
      vertex 15.2824 -21.0344 0
    endloop
  endfacet
  facet normal -0.587785 0.809017 0
    outer loop
      vertex 0 26 0
      vertex -24.7275 8.03444 6
      vertex 0 26 6
    endloop
  endfacet
  facet normal -0.587785 0.809017 0
    outer loop
      vertex -24.7275 8.03444 6
      vertex 0 26 0
      vertex -24.7275 8.03444 0
    endloop
  endfacet
  facet normal 0 1 -0
    outer loop
      vertex 14.342 -19.74 4.4
      vertex -14.342 -19.74 6
      vertex 14.342 -19.74 6
    endloop
  endfacet
  facet normal 0 1 0
    outer loop
      vertex -14.342 -19.74 6
      vertex 14.342 -19.74 4.4
      vertex -14.342 -19.74 4.4
    endloop
  endfacet
  facet normal -0.587785 -0.809017 0
    outer loop
      vertex 0 24.4 4.4
      vertex 23.2058 7.54001 6
      vertex 0 24.4 6
    endloop
  endfacet
  facet normal -0.587785 -0.809017 -0
    outer loop
      vertex 23.2058 7.54001 6
      vertex 0 24.4 4.4
      vertex 23.2058 7.54001 4.4
    endloop
  endfacet
  facet normal 0 0 1
    outer loop
      vertex 13.9 -13.9 4.4
      vertex 23.2058 7.54001 4.4
      vertex 13.9 -1.5 4.4
    endloop
  endfacet
  facet normal 0 0 1
    outer loop
      vertex 23.2058 7.54001 4.4
      vertex 8.66667 9.3 4.4
      vertex 13.9 -1.5 4.4
    endloop
  endfacet
  facet normal 0 0 1
    outer loop
      vertex 23.2058 7.54001 4.4
      vertex 4.33333 16.8056 4.4
      vertex 8.66667 9.3 4.4
    endloop
  endfacet
  facet normal 0 0 1
    outer loop
      vertex 0 24.4 4.4
      vertex 4.33333 16.8056 4.4
      vertex 23.2058 7.54001 4.4
    endloop
  endfacet
  facet normal 0 0 1
    outer loop
      vertex 0 24.4 4.4
      vertex -4.33333 16.8056 4.4
      vertex 4.33333 16.8056 4.4
    endloop
  endfacet
  facet normal 0 0 1
    outer loop
      vertex -23.2058 7.54001 4.4
      vertex -4.33333 16.8056 4.4
      vertex 0 24.4 4.4
    endloop
  endfacet
  facet normal 0 0 1
    outer loop
      vertex -23.2058 7.54001 4.4
      vertex -13.9 -13.9 4.4
      vertex -13.9 -1.5 4.4
    endloop
  endfacet
  facet normal 0 0 1
    outer loop
      vertex -13.9 -13.9 4.4
      vertex -23.2058 7.54001 4.4
      vertex -14.342 -19.74 4.4
    endloop
  endfacet
  facet normal 0 0 1
    outer loop
      vertex -8.66667 9.3 4.4
      vertex -23.2058 7.54001 4.4
      vertex -13.9 -1.5 4.4
    endloop
  endfacet
  facet normal 0 0 1
    outer loop
      vertex -4.33333 16.8056 4.4
      vertex -23.2058 7.54001 4.4
      vertex -8.66667 9.3 4.4
    endloop
  endfacet
  facet normal 0 0 1
    outer loop
      vertex 23.2058 7.54001 4.4
      vertex 13.9 -13.9 4.4
      vertex 14.342 -19.74 4.4
    endloop
  endfacet
  facet normal -0 0 1
    outer loop
      vertex 1.5 -13.9 4.4
      vertex 14.342 -19.74 4.4
      vertex 13.9 -13.9 4.4
    endloop
  endfacet
  facet normal 0 0 1
    outer loop
      vertex -1.5 -13.9 4.4
      vertex 1.5 -13.9 4.4
      vertex -1.5 -1.5 4.4
    endloop
  endfacet
  facet normal -0 0 1
    outer loop
      vertex -1.5 -13.9 4.4
      vertex 14.342 -19.74 4.4
      vertex 1.5 -13.9 4.4
    endloop
  endfacet
  facet normal 0 0 1
    outer loop
      vertex -14.342 -19.74 4.4
      vertex -1.5 -13.9 4.4
      vertex -13.9 -13.9 4.4
    endloop
  endfacet
  facet normal 0 0 1
    outer loop
      vertex -1.5 -13.9 4.4
      vertex -14.342 -19.74 4.4
      vertex 14.342 -19.74 4.4
    endloop
  endfacet
  facet normal -0 0 1
    outer loop
      vertex 4.33333 1.79445 4.4
      vertex 13.9 -1.5 4.4
      vertex 8.66667 9.3 4.4
    endloop
  endfacet
  facet normal 0 0 1
    outer loop
      vertex 4.33333 1.79445 4.4
      vertex 1.5 -1.5 4.4
      vertex 13.9 -1.5 4.4
    endloop
  endfacet
  facet normal 0 0 1
    outer loop
      vertex 1.5 -1.5 4.4
      vertex -1.5 -1.5 4.4
      vertex 1.5 -13.9 4.4
    endloop
  endfacet
  facet normal 0 0 1
    outer loop
      vertex 4.33333 1.79445 4.4
      vertex -1.5 -1.5 4.4
      vertex 1.5 -1.5 4.4
    endloop
  endfacet
  facet normal -0 0 1
    outer loop
      vertex -4.33333 1.79445 4.4
      vertex -1.5 -1.5 4.4
      vertex 4.33333 1.79445 4.4
    endloop
  endfacet
  facet normal 0 0 1
    outer loop
      vertex -4.33333 1.79445 4.4
      vertex -13.9 -1.5 4.4
      vertex -1.5 -1.5 4.4
    endloop
  endfacet
  facet normal 0 0 1
    outer loop
      vertex -13.9 -1.5 4.4
      vertex -4.33333 1.79445 4.4
      vertex -8.66667 9.3 4.4
    endloop
  endfacet
  facet normal 0.951057 0.309017 0
    outer loop
      vertex -14.342 -19.74 6
      vertex -23.2058 7.54001 4.4
      vertex -23.2058 7.54001 6
    endloop
  endfacet
  facet normal 0.951057 0.309017 0
    outer loop
      vertex -23.2058 7.54001 4.4
      vertex -14.342 -19.74 6
      vertex -14.342 -19.74 4.4
    endloop
  endfacet
  facet normal -0.951057 0.309017 0
    outer loop
      vertex 14.342 -19.74 4.4
      vertex 23.2058 7.54001 6
      vertex 23.2058 7.54001 4.4
    endloop
  endfacet
  facet normal -0.951057 0.309017 0
    outer loop
      vertex 23.2058 7.54001 6
      vertex 14.342 -19.74 4.4
      vertex 14.342 -19.74 6
    endloop
  endfacet
  facet normal 0.587785 -0.809017 0
    outer loop
      vertex -23.2058 7.54001 4.4
      vertex 0 24.4 6
      vertex -23.2058 7.54001 6
    endloop
  endfacet
  facet normal 0.587785 -0.809017 0
    outer loop
      vertex 0 24.4 6
      vertex -23.2058 7.54001 4.4
      vertex 0 24.4 4.4
    endloop
  endfacet
  facet normal -0 0 1
    outer loop
      vertex 1.5 -1.5 1
      vertex 13.9 -13.9 1
      vertex 13.9 -1.5 1
    endloop
  endfacet
  facet normal 0 0 1
    outer loop
      vertex 13.9 -13.9 1
      vertex 1.5 -1.5 1
      vertex 1.5 -13.9 1
    endloop
  endfacet
  facet normal 1 -0 0
    outer loop
      vertex 1.5 -13.9 4.4
      vertex 1.5 -1.5 1
      vertex 1.5 -1.5 4.4
    endloop
  endfacet
  facet normal 1 0 0
    outer loop
      vertex 1.5 -1.5 1
      vertex 1.5 -13.9 4.4
      vertex 1.5 -13.9 1
    endloop
  endfacet
  facet normal 0 -1 0
    outer loop
      vertex 1.5 -1.5 1
      vertex 13.9 -1.5 4.4
      vertex 1.5 -1.5 4.4
    endloop
  endfacet
  facet normal 0 -1 -0
    outer loop
      vertex 13.9 -1.5 4.4
      vertex 1.5 -1.5 1
      vertex 13.9 -1.5 1
    endloop
  endfacet
  facet normal -1 0 0
    outer loop
      vertex 13.9 -13.9 1
      vertex 13.9 -1.5 4.4
      vertex 13.9 -1.5 1
    endloop
  endfacet
  facet normal -1 -0 0
    outer loop
      vertex 13.9 -1.5 4.4
      vertex 13.9 -13.9 1
      vertex 13.9 -13.9 4.4
    endloop
  endfacet
  facet normal 0 1 -0
    outer loop
      vertex 13.9 -13.9 1
      vertex 1.5 -13.9 4.4
      vertex 13.9 -13.9 4.4
    endloop
  endfacet
  facet normal 0 1 0
    outer loop
      vertex 1.5 -13.9 4.4
      vertex 13.9 -13.9 1
      vertex 1.5 -13.9 1
    endloop
  endfacet
  facet normal -0 0 1
    outer loop
      vertex -13.9 -1.5 1
      vertex -1.5 -13.9 1
      vertex -1.5 -1.5 1
    endloop
  endfacet
  facet normal 0 0 1
    outer loop
      vertex -1.5 -13.9 1
      vertex -13.9 -1.5 1
      vertex -13.9 -13.9 1
    endloop
  endfacet
  facet normal 1 -0 0
    outer loop
      vertex -13.9 -13.9 4.4
      vertex -13.9 -1.5 1
      vertex -13.9 -1.5 4.4
    endloop
  endfacet
  facet normal 1 0 0
    outer loop
      vertex -13.9 -1.5 1
      vertex -13.9 -13.9 4.4
      vertex -13.9 -13.9 1
    endloop
  endfacet
  facet normal 0 -1 0
    outer loop
      vertex -13.9 -1.5 1
      vertex -1.5 -1.5 4.4
      vertex -13.9 -1.5 4.4
    endloop
  endfacet
  facet normal 0 -1 -0
    outer loop
      vertex -1.5 -1.5 4.4
      vertex -13.9 -1.5 1
      vertex -1.5 -1.5 1
    endloop
  endfacet
  facet normal -1 0 0
    outer loop
      vertex -1.5 -13.9 1
      vertex -1.5 -1.5 4.4
      vertex -1.5 -1.5 1
    endloop
  endfacet
  facet normal -1 -0 0
    outer loop
      vertex -1.5 -1.5 4.4
      vertex -1.5 -13.9 1
      vertex -1.5 -13.9 4.4
    endloop
  endfacet
  facet normal 0 1 -0
    outer loop
      vertex -1.5 -13.9 1
      vertex -13.9 -13.9 4.4
      vertex -1.5 -13.9 4.4
    endloop
  endfacet
  facet normal 0 1 0
    outer loop
      vertex -13.9 -13.9 4.4
      vertex -1.5 -13.9 1
      vertex -13.9 -13.9 1
    endloop
  endfacet
  facet normal 0 0 1
    outer loop
      vertex 4.33333 16.8056 1
      vertex 4.33333 1.79445 1
      vertex 8.66667 9.3 1
    endloop
  endfacet
  facet normal -0 0 1
    outer loop
      vertex -4.33333 16.8056 1
      vertex 4.33333 1.79445 1
      vertex 4.33333 16.8056 1
    endloop
  endfacet
  facet normal 0 0 1
    outer loop
      vertex -4.33333 16.8056 1
      vertex -4.33333 1.79445 1
      vertex 4.33333 1.79445 1
    endloop
  endfacet
  facet normal 0 -0 1
    outer loop
      vertex -4.33333 1.79445 1
      vertex -4.33333 16.8056 1
      vertex -8.66667 9.3 1
    endloop
  endfacet
  facet normal -0.866025 0.500001 0
    outer loop
      vertex 4.33333 1.79445 1
      vertex 8.66667 9.3 4.4
      vertex 8.66667 9.3 1
    endloop
  endfacet
  facet normal -0.866025 0.500001 0
    outer loop
      vertex 8.66667 9.3 4.4
      vertex 4.33333 1.79445 1
      vertex 4.33333 1.79445 4.4
    endloop
  endfacet
  facet normal 0.866025 0.500001 0
    outer loop
      vertex -4.33333 1.79445 4.4
      vertex -8.66667 9.3 1
      vertex -8.66667 9.3 4.4
    endloop
  endfacet
  facet normal 0.866025 0.500001 0
    outer loop
      vertex -8.66667 9.3 1
      vertex -4.33333 1.79445 4.4
      vertex -4.33333 1.79445 1
    endloop
  endfacet
  facet normal 0.866026 -0.499998 0
    outer loop
      vertex -8.66667 9.3 4.4
      vertex -4.33333 16.8056 1
      vertex -4.33333 16.8056 4.4
    endloop
  endfacet
  facet normal 0.866026 -0.499998 0
    outer loop
      vertex -4.33333 16.8056 1
      vertex -8.66667 9.3 4.4
      vertex -8.66667 9.3 1
    endloop
  endfacet
  facet normal 0 1 -0
    outer loop
      vertex 4.33333 1.79445 1
      vertex -4.33333 1.79445 4.4
      vertex 4.33333 1.79445 4.4
    endloop
  endfacet
  facet normal 0 1 0
    outer loop
      vertex -4.33333 1.79445 4.4
      vertex 4.33333 1.79445 1
      vertex -4.33333 1.79445 1
    endloop
  endfacet
  facet normal 0 -1 0
    outer loop
      vertex -4.33333 16.8056 1
      vertex 4.33333 16.8056 4.4
      vertex -4.33333 16.8056 4.4
    endloop
  endfacet
  facet normal 0 -1 -0
    outer loop
      vertex 4.33333 16.8056 4.4
      vertex -4.33333 16.8056 1
      vertex 4.33333 16.8056 1
    endloop
  endfacet
  facet normal -0.866026 -0.499998 0
    outer loop
      vertex 8.66667 9.3 1
      vertex 4.33333 16.8056 4.4
      vertex 4.33333 16.8056 1
    endloop
  endfacet
  facet normal -0.866026 -0.499998 0
    outer loop
      vertex 4.33333 16.8056 4.4
      vertex 8.66667 9.3 1
      vertex 8.66667 9.3 4.4
    endloop
  endfacet
endsolid OpenSCAD_Model
