solid OpenSCAD_Model
  facet normal 0.587786 0.809017 -0
    outer loop
      vertex 25.8687 8.40526 0
      vertex 0 27.2 6.2
      vertex 25.8687 8.40526 6.2
    endloop
  endfacet
  facet normal 0.587786 0.809017 0
    outer loop
      vertex 0 27.2 6.2
      vertex 25.8687 8.40526 0
      vertex 0 27.2 0
    endloop
  endfacet
  facet normal 0 0 1
    outer loop
      vertex 0 27.2 6.2
      vertex 24.347 7.91083 6.2
      vertex 25.8687 8.40526 6.2
    endloop
  endfacet
  facet normal 0 0 1
    outer loop
      vertex 0 27.2 6.2
      vertex 0 25.6 6.2
      vertex 24.347 7.91083 6.2
    endloop
  endfacet
  facet normal 0 0 1
    outer loop
      vertex 0 27.2 6.2
      vertex -24.347 7.91083 6.2
      vertex 0 25.6 6.2
    endloop
  endfacet
  facet normal 0 -0 1
    outer loop
      vertex -24.347 7.91083 6.2
      vertex 0 27.2 6.2
      vertex -25.8687 8.40526 6.2
    endloop
  endfacet
  facet normal -0 0 1
    outer loop
      vertex 24.347 7.91083 6.2
      vertex 15.9878 -22.0053 6.2
      vertex 25.8687 8.40526 6.2
    endloop
  endfacet
  facet normal -0 0 1
    outer loop
      vertex 15.0473 -20.7108 6.2
      vertex 15.9878 -22.0053 6.2
      vertex 24.347 7.91083 6.2
    endloop
  endfacet
  facet normal -0 0 1
    outer loop
      vertex -15.0473 -20.7108 6.2
      vertex 15.9878 -22.0053 6.2
      vertex 15.0473 -20.7108 6.2
    endloop
  endfacet
  facet normal 0 0 1
    outer loop
      vertex -15.0473 -20.7108 6.2
      vertex -15.9878 -22.0053 6.2
      vertex 15.9878 -22.0053 6.2
    endloop
  endfacet
  facet normal 0 0 1
    outer loop
      vertex -24.347 7.91083 6.2
      vertex -15.9878 -22.0053 6.2
      vertex -15.0473 -20.7108 6.2
    endloop
  endfacet
  facet normal 0 0 1
    outer loop
      vertex -15.9878 -22.0053 6.2
      vertex -24.347 7.91083 6.2
      vertex -25.8687 8.40526 6.2
    endloop
  endfacet
  facet normal 0 0 -1
    outer loop
      vertex 15.9878 -22.0053 0
      vertex 0 27.2 0
      vertex 25.8687 8.40526 0
    endloop
  endfacet
  facet normal 0 0 -1
    outer loop
      vertex -15.9878 -22.0053 0
      vertex 0 27.2 0
      vertex 15.9878 -22.0053 0
    endloop
  endfacet
  facet normal 0 0 -1
    outer loop
      vertex 0 27.2 0
      vertex -15.9878 -22.0053 0
      vertex -25.8687 8.40526 0
    endloop
  endfacet
  facet normal -0.951057 -0.309014 0
    outer loop
      vertex -15.9878 -22.0053 0
      vertex -25.8687 8.40526 6.2
      vertex -25.8687 8.40526 0
    endloop
  endfacet
  facet normal -0.951057 -0.309014 0
    outer loop
      vertex -25.8687 8.40526 6.2
      vertex -15.9878 -22.0053 0
      vertex -15.9878 -22.0053 6.2
    endloop
  endfacet
  facet normal 0 -1 0
    outer loop
      vertex -15.9878 -22.0053 0
      vertex 15.9878 -22.0053 6.2
      vertex -15.9878 -22.0053 6.2
    endloop
  endfacet
  facet normal 0 -1 -0
    outer loop
      vertex 15.9878 -22.0053 6.2
      vertex -15.9878 -22.0053 0
      vertex 15.9878 -22.0053 0
    endloop
  endfacet
  facet normal 0.951057 -0.309014 0
    outer loop
      vertex 15.9878 -22.0053 6.2
      vertex 25.8687 8.40526 0
      vertex 25.8687 8.40526 6.2
    endloop
  endfacet
  facet normal 0.951057 -0.309014 0
    outer loop
      vertex 25.8687 8.40526 0
      vertex 15.9878 -22.0053 6.2
      vertex 15.9878 -22.0053 0
    endloop
  endfacet
  facet normal -0.587786 0.809017 0
    outer loop
      vertex 0 27.2 0
      vertex -25.8687 8.40526 6.2
      vertex 0 27.2 6.2
    endloop
  endfacet
  facet normal -0.587786 0.809017 0
    outer loop
      vertex -25.8687 8.40526 6.2
      vertex 0 27.2 0
      vertex -25.8687 8.40526 0
    endloop
  endfacet
  facet normal -0.587786 -0.809016 0
    outer loop
      vertex 0 25.6 4.6
      vertex 24.347 7.91083 6.2
      vertex 0 25.6 6.2
    endloop
  endfacet
  facet normal -0.587786 -0.809016 -0
    outer loop
      vertex 24.347 7.91083 6.2
      vertex 0 25.6 4.6
      vertex 24.347 7.91083 4.6
    endloop
  endfacet
  facet normal -0 0 1
    outer loop
      vertex -3.56978 12.3397 4.6
      vertex -0.453613 3.07455 4.6
      vertex -0.453613 12.9623 4.6
    endloop
  endfacet
  facet normal -0 0 1
    outer loop
      vertex -24.347 7.91083 4.6
      vertex -3.31813 3.07455 4.6
      vertex -3.56978 12.3397 4.6
    endloop
  endfacet
  facet normal 0 0 1
    outer loop
      vertex -0.453613 3.07455 4.6
      vertex -3.56978 12.3397 4.6
      vertex -3.31813 3.07455 4.6
    endloop
  endfacet
  facet normal 0 0 1
    outer loop
      vertex 24.347 7.91083 4.6
      vertex 6.6 -1.4 4.6
      vertex 15.0473 -20.7108 4.6
    endloop
  endfacet
  facet normal 0 0 1
    outer loop
      vertex 24.347 7.91083 4.6
      vertex 4.14668 3.07455 4.6
      vertex 6.6 -1.4 4.6
    endloop
  endfacet
  facet normal 0 0 1
    outer loop
      vertex 24.347 7.91083 4.6
      vertex 1.2823 14.5597 4.6
      vertex 4.14668 3.07455 4.6
    endloop
  endfacet
  facet normal 0 0 1
    outer loop
      vertex 0 25.6 4.6
      vertex 1.2823 14.5597 4.6
      vertex 24.347 7.91083 4.6
    endloop
  endfacet
  facet normal 0 0 1
    outer loop
      vertex 0 25.6 4.6
      vertex -0.471024 14.5597 4.6
      vertex 1.2823 14.5597 4.6
    endloop
  endfacet
  facet normal 0 0 1
    outer loop
      vertex 0 25.6 4.6
      vertex -3.56978 13.9371 4.6
      vertex -0.471024 14.5597 4.6
    endloop
  endfacet
  facet normal 0 0 1
    outer loop
      vertex -24.347 7.91083 4.6
      vertex -3.56978 12.3397 4.6
      vertex -3.56978 13.9371 4.6
    endloop
  endfacet
  facet normal 0 0 1
    outer loop
      vertex -6.6 -1.4 4.6
      vertex -15.0473 -20.7108 4.6
      vertex -6.6 -14.6 4.6
    endloop
  endfacet
  facet normal 0 0 1
    outer loop
      vertex -3.31813 3.07455 4.6
      vertex -24.347 7.91083 4.6
      vertex -6.6 -1.4 4.6
    endloop
  endfacet
  facet normal 0 0 1
    outer loop
      vertex -24.347 7.91083 4.6
      vertex -3.56978 13.9371 4.6
      vertex 0 25.6 4.6
    endloop
  endfacet
  facet normal 0 0 1
    outer loop
      vertex -6.6 -1.4 4.6
      vertex -24.347 7.91083 4.6
      vertex -15.0473 -20.7108 4.6
    endloop
  endfacet
  facet normal -0 0 1
    outer loop
      vertex 6.6 -14.6 4.6
      vertex 15.0473 -20.7108 4.6
      vertex 6.6 -1.4 4.6
    endloop
  endfacet
  facet normal -0 0 1
    outer loop
      vertex -6.6 -14.6 4.6
      vertex 15.0473 -20.7108 4.6
      vertex 6.6 -14.6 4.6
    endloop
  endfacet
  facet normal 0 0 1
    outer loop
      vertex 15.0473 -20.7108 4.6
      vertex -6.6 -14.6 4.6
      vertex -15.0473 -20.7108 4.6
    endloop
  endfacet
  facet normal -0 0 1
    outer loop
      vertex 4.14668 1.6 4.6
      vertex 6.6 -1.4 4.6
      vertex 4.14668 3.07455 4.6
    endloop
  endfacet
  facet normal -0 0 1
    outer loop
      vertex -3.31813 1.6 4.6
      vertex 6.6 -1.4 4.6
      vertex 4.14668 1.6 4.6
    endloop
  endfacet
  facet normal 0 0 1
    outer loop
      vertex -3.31813 1.6 4.6
      vertex -6.6 -1.4 4.6
      vertex 6.6 -1.4 4.6
    endloop
  endfacet
  facet normal 0 0 1
    outer loop
      vertex -3.31813 3.07455 4.6
      vertex -6.6 -1.4 4.6
      vertex -3.31813 1.6 4.6
    endloop
  endfacet
  facet normal 0 0 1
    outer loop
      vertex 4.14668 3.07455 4.6
      vertex 1.2823 14.5597 4.6
      vertex 1.2823 3.07455 4.6
    endloop
  endfacet
  facet normal 0.951057 0.309016 0
    outer loop
      vertex -15.0473 -20.7108 6.2
      vertex -24.347 7.91083 4.6
      vertex -24.347 7.91083 6.2
    endloop
  endfacet
  facet normal 0.951057 0.309016 0
    outer loop
      vertex -24.347 7.91083 4.6
      vertex -15.0473 -20.7108 6.2
      vertex -15.0473 -20.7108 4.6
    endloop
  endfacet
  facet normal 0 1 -0
    outer loop
      vertex 15.0473 -20.7108 4.6
      vertex -15.0473 -20.7108 6.2
      vertex 15.0473 -20.7108 6.2
    endloop
  endfacet
  facet normal 0 1 0
    outer loop
      vertex -15.0473 -20.7108 6.2
      vertex 15.0473 -20.7108 4.6
      vertex -15.0473 -20.7108 4.6
    endloop
  endfacet
  facet normal -0.951057 0.309016 0
    outer loop
      vertex 15.0473 -20.7108 4.6
      vertex 24.347 7.91083 6.2
      vertex 24.347 7.91083 4.6
    endloop
  endfacet
  facet normal -0.951057 0.309016 0
    outer loop
      vertex 24.347 7.91083 6.2
      vertex 15.0473 -20.7108 4.6
      vertex 15.0473 -20.7108 6.2
    endloop
  endfacet
  facet normal 0.587786 -0.809016 0
    outer loop
      vertex -24.347 7.91083 4.6
      vertex 0 25.6 6.2
      vertex -24.347 7.91083 6.2
    endloop
  endfacet
  facet normal 0.587786 -0.809016 0
    outer loop
      vertex 0 25.6 6.2
      vertex -24.347 7.91083 4.6
      vertex 0 25.6 4.6
    endloop
  endfacet
  facet normal -0 0 1
    outer loop
      vertex -6.6 -1.4 0.8
      vertex 6.6 -14.6 0.8
      vertex 6.6 -1.4 0.8
    endloop
  endfacet
  facet normal 0 0 1
    outer loop
      vertex 6.6 -14.6 0.8
      vertex -6.6 -1.4 0.8
      vertex -6.6 -14.6 0.8
    endloop
  endfacet
  facet normal 1 -0 0
    outer loop
      vertex -6.6 -14.6 4.6
      vertex -6.6 -1.4 0.8
      vertex -6.6 -1.4 4.6
    endloop
  endfacet
  facet normal 1 0 0
    outer loop
      vertex -6.6 -1.4 0.8
      vertex -6.6 -14.6 4.6
      vertex -6.6 -14.6 0.8
    endloop
  endfacet
  facet normal 0 -1 0
    outer loop
      vertex -6.6 -1.4 0.8
      vertex 6.6 -1.4 4.6
      vertex -6.6 -1.4 4.6
    endloop
  endfacet
  facet normal 0 -1 -0
    outer loop
      vertex 6.6 -1.4 4.6
      vertex -6.6 -1.4 0.8
      vertex 6.6 -1.4 0.8
    endloop
  endfacet
  facet normal -1 0 0
    outer loop
      vertex 6.6 -14.6 0.8
      vertex 6.6 -1.4 4.6
      vertex 6.6 -1.4 0.8
    endloop
  endfacet
  facet normal -1 -0 0
    outer loop
      vertex 6.6 -1.4 4.6
      vertex 6.6 -14.6 0.8
      vertex 6.6 -14.6 4.6
    endloop
  endfacet
  facet normal 0 1 -0
    outer loop
      vertex 6.6 -14.6 0.8
      vertex -6.6 -14.6 4.6
      vertex 6.6 -14.6 4.6
    endloop
  endfacet
  facet normal 0 1 0
    outer loop
      vertex -6.6 -14.6 4.6
      vertex 6.6 -14.6 0.8
      vertex -6.6 -14.6 0.8
    endloop
  endfacet
  facet normal 0 0 1
    outer loop
      vertex 1.2823 14.5597 0.8
      vertex -0.453613 12.9623 0.8
      vertex 1.2823 3.07455 0.8
    endloop
  endfacet
  facet normal -0 0 1
    outer loop
      vertex -0.471024 14.5597 0.8
      vertex -0.453613 12.9623 0.8
      vertex 1.2823 14.5597 0.8
    endloop
  endfacet
  facet normal -0 0 1
    outer loop
      vertex -3.56978 13.9371 0.8
      vertex -0.453613 12.9623 0.8
      vertex -0.471024 14.5597 0.8
    endloop
  endfacet
  facet normal 0 0 1
    outer loop
      vertex -0.453613 12.9623 0.8
      vertex -3.56978 13.9371 0.8
      vertex -3.56978 12.3397 0.8
    endloop
  endfacet
  facet normal -0 0 1
    outer loop
      vertex 1.2823 3.07455 0.8
      vertex 4.14668 1.6 0.8
      vertex 4.14668 3.07455 0.8
    endloop
  endfacet
  facet normal 0 0 1
    outer loop
      vertex -0.453613 3.07455 0.8
      vertex 1.2823 3.07455 0.8
      vertex -0.453613 12.9623 0.8
    endloop
  endfacet
  facet normal -0 0 1
    outer loop
      vertex -0.453613 3.07455 0.8
      vertex 4.14668 1.6 0.8
      vertex 1.2823 3.07455 0.8
    endloop
  endfacet
  facet normal 0 0 1
    outer loop
      vertex -3.31813 1.6 0.8
      vertex -0.453613 3.07455 0.8
      vertex -3.31813 3.07455 0.8
    endloop
  endfacet
  facet normal 0 0 1
    outer loop
      vertex -0.453613 3.07455 0.8
      vertex -3.31813 1.6 0.8
      vertex 4.14668 1.6 0.8
    endloop
  endfacet
  facet normal 0 -1 0
    outer loop
      vertex 1.2823 3.07455 0.8
      vertex 4.14668 3.07455 4.6
      vertex 1.2823 3.07455 4.6
    endloop
  endfacet
  facet normal 0 -1 -0
    outer loop
      vertex 4.14668 3.07455 4.6
      vertex 1.2823 3.07455 0.8
      vertex 4.14668 3.07455 0.8
    endloop
  endfacet
  facet normal -1 0 0
    outer loop
      vertex 1.2823 3.07455 0.8
      vertex 1.2823 14.5597 4.6
      vertex 1.2823 14.5597 0.8
    endloop
  endfacet
  facet normal -1 -0 0
    outer loop
      vertex 1.2823 14.5597 4.6
      vertex 1.2823 3.07455 0.8
      vertex 1.2823 3.07455 4.6
    endloop
  endfacet
  facet normal 0 -1 0
    outer loop
      vertex -0.471024 14.5597 0.8
      vertex 1.2823 14.5597 4.6
      vertex -0.471024 14.5597 4.6
    endloop
  endfacet
  facet normal 0 -1 -0
    outer loop
      vertex 1.2823 14.5597 4.6
      vertex -0.471024 14.5597 0.8
      vertex 1.2823 14.5597 0.8
    endloop
  endfacet
  facet normal 0.196983 -0.980407 0
    outer loop
      vertex -3.56978 13.9371 0.8
      vertex -0.471024 14.5597 4.6
      vertex -3.56978 13.9371 4.6
    endloop
  endfacet
  facet normal 0.196983 -0.980407 0
    outer loop
      vertex -0.471024 14.5597 4.6
      vertex -3.56978 13.9371 0.8
      vertex -0.471024 14.5597 0.8
    endloop
  endfacet
  facet normal 1 -0 0
    outer loop
      vertex -3.56978 12.3397 4.6
      vertex -3.56978 13.9371 0.8
      vertex -3.56978 13.9371 4.6
    endloop
  endfacet
  facet normal 1 0 0
    outer loop
      vertex -3.56978 13.9371 0.8
      vertex -3.56978 12.3397 4.6
      vertex -3.56978 12.3397 0.8
    endloop
  endfacet
  facet normal -0.195924 0.980619 0
    outer loop
      vertex -0.453613 12.9623 0.8
      vertex -3.56978 12.3397 4.6
      vertex -0.453613 12.9623 4.6
    endloop
  endfacet
  facet normal -0.195924 0.980619 0
    outer loop
      vertex -3.56978 12.3397 4.6
      vertex -0.453613 12.9623 0.8
      vertex -3.56978 12.3397 0.8
    endloop
  endfacet
  facet normal 1 -0 0
    outer loop
      vertex -0.453613 3.07455 4.6
      vertex -0.453613 12.9623 0.8
      vertex -0.453613 12.9623 4.6
    endloop
  endfacet
  facet normal 1 0 0
    outer loop
      vertex -0.453613 12.9623 0.8
      vertex -0.453613 3.07455 4.6
      vertex -0.453613 3.07455 0.8
    endloop
  endfacet
  facet normal 0 -1 0
    outer loop
      vertex -3.31813 3.07455 0.8
      vertex -0.453613 3.07455 4.6
      vertex -3.31813 3.07455 4.6
    endloop
  endfacet
  facet normal 0 -1 -0
    outer loop
      vertex -0.453613 3.07455 4.6
      vertex -3.31813 3.07455 0.8
      vertex -0.453613 3.07455 0.8
    endloop
  endfacet
  facet normal 1 -0 0
    outer loop
      vertex -3.31813 1.6 4.6
      vertex -3.31813 3.07455 0.8
      vertex -3.31813 3.07455 4.6
    endloop
  endfacet
  facet normal 1 0 0
    outer loop
      vertex -3.31813 3.07455 0.8
      vertex -3.31813 1.6 4.6
      vertex -3.31813 1.6 0.8
    endloop
  endfacet
  facet normal 0 1 -0
    outer loop
      vertex 4.14668 1.6 0.8
      vertex -3.31813 1.6 4.6
      vertex 4.14668 1.6 4.6
    endloop
  endfacet
  facet normal 0 1 0
    outer loop
      vertex -3.31813 1.6 4.6
      vertex 4.14668 1.6 0.8
      vertex -3.31813 1.6 0.8
    endloop
  endfacet
  facet normal -1 0 0
    outer loop
      vertex 4.14668 1.6 0.8
      vertex 4.14668 3.07455 4.6
      vertex 4.14668 3.07455 0.8
    endloop
  endfacet
  facet normal -1 -0 0
    outer loop
      vertex 4.14668 3.07455 4.6
      vertex 4.14668 1.6 0.8
      vertex 4.14668 1.6 4.6
    endloop
  endfacet
endsolid OpenSCAD_Model
