solid OpenSCAD_Model
  facet normal 0.587785 0.809017 -0
    outer loop
      vertex 16.3582 5.31509 0
      vertex 0 17.2 3.7
      vertex 16.3582 5.31509 3.7
    endloop
  endfacet
  facet normal 0.587785 0.809017 0
    outer loop
      vertex 0 17.2 3.7
      vertex 16.3582 5.31509 0
      vertex 0 17.2 0
    endloop
  endfacet
  facet normal 0 0 1
    outer loop
      vertex 0 17.2 3.7
      vertex 14.8365 4.82066 3.7
      vertex 16.3582 5.31509 3.7
    endloop
  endfacet
  facet normal 0 0 1
    outer loop
      vertex 0 17.2 3.7
      vertex 0 15.6 3.7
      vertex 14.8365 4.82066 3.7
    endloop
  endfacet
  facet normal 0 0 1
    outer loop
      vertex 0 17.2 3.7
      vertex -14.8365 4.82066 3.7
      vertex 0 15.6 3.7
    endloop
  endfacet
  facet normal 0 -0 1
    outer loop
      vertex -14.8365 4.82066 3.7
      vertex 0 17.2 3.7
      vertex -16.3582 5.31509 3.7
    endloop
  endfacet
  facet normal -0 0 1
    outer loop
      vertex 14.8365 4.82066 3.7
      vertex 10.1099 -13.9151 3.7
      vertex 16.3582 5.31509 3.7
    endloop
  endfacet
  facet normal -0 0 1
    outer loop
      vertex 9.16945 -12.6207 3.7
      vertex 10.1099 -13.9151 3.7
      vertex 14.8365 4.82066 3.7
    endloop
  endfacet
  facet normal -0 0 1
    outer loop
      vertex -9.16945 -12.6207 3.7
      vertex 10.1099 -13.9151 3.7
      vertex 9.16945 -12.6207 3.7
    endloop
  endfacet
  facet normal 0 0 1
    outer loop
      vertex -9.16945 -12.6207 3.7
      vertex -10.1099 -13.9151 3.7
      vertex 10.1099 -13.9151 3.7
    endloop
  endfacet
  facet normal 0 0 1
    outer loop
      vertex -14.8365 4.82066 3.7
      vertex -10.1099 -13.9151 3.7
      vertex -9.16945 -12.6207 3.7
    endloop
  endfacet
  facet normal 0 0 1
    outer loop
      vertex -10.1099 -13.9151 3.7
      vertex -14.8365 4.82066 3.7
      vertex -16.3582 5.31509 3.7
    endloop
  endfacet
  facet normal 0 0 -1
    outer loop
      vertex 10.1099 -13.9151 0
      vertex 0 17.2 0
      vertex 16.3582 5.31509 0
    endloop
  endfacet
  facet normal 0 0 -1
    outer loop
      vertex -10.1099 -13.9151 0
      vertex 0 17.2 0
      vertex 10.1099 -13.9151 0
    endloop
  endfacet
  facet normal 0 0 -1
    outer loop
      vertex 0 17.2 0
      vertex -10.1099 -13.9151 0
      vertex -16.3582 5.31509 0
    endloop
  endfacet
  facet normal -0.951056 -0.309018 0
    outer loop
      vertex -10.1099 -13.9151 0
      vertex -16.3582 5.31509 3.7
      vertex -16.3582 5.31509 0
    endloop
  endfacet
  facet normal -0.951056 -0.309018 0
    outer loop
      vertex -16.3582 5.31509 3.7
      vertex -10.1099 -13.9151 0
      vertex -10.1099 -13.9151 3.7
    endloop
  endfacet
  facet normal 0 -1 0
    outer loop
      vertex -10.1099 -13.9151 0
      vertex 10.1099 -13.9151 3.7
      vertex -10.1099 -13.9151 3.7
    endloop
  endfacet
  facet normal 0 -1 -0
    outer loop
      vertex 10.1099 -13.9151 3.7
      vertex -10.1099 -13.9151 0
      vertex 10.1099 -13.9151 0
    endloop
  endfacet
  facet normal 0.951056 -0.309018 0
    outer loop
      vertex 10.1099 -13.9151 3.7
      vertex 16.3582 5.31509 0
      vertex 16.3582 5.31509 3.7
    endloop
  endfacet
  facet normal 0.951056 -0.309018 0
    outer loop
      vertex 16.3582 5.31509 0
      vertex 10.1099 -13.9151 3.7
      vertex 10.1099 -13.9151 0
    endloop
  endfacet
  facet normal -0.587785 0.809017 0
    outer loop
      vertex 0 17.2 0
      vertex -16.3582 5.31509 3.7
      vertex 0 17.2 3.7
    endloop
  endfacet
  facet normal -0.587785 0.809017 0
    outer loop
      vertex -16.3582 5.31509 3.7
      vertex 0 17.2 0
      vertex -16.3582 5.31509 0
    endloop
  endfacet
  facet normal 0 1 -0
    outer loop
      vertex 9.16945 -12.6207 2.1
      vertex -9.16945 -12.6207 3.7
      vertex 9.16945 -12.6207 3.7
    endloop
  endfacet
  facet normal 0 1 0
    outer loop
      vertex -9.16945 -12.6207 3.7
      vertex 9.16945 -12.6207 2.1
      vertex -9.16945 -12.6207 2.1
    endloop
  endfacet
  facet normal -0.587785 -0.809017 0
    outer loop
      vertex 0 15.6 2.1
      vertex 14.8365 4.82066 3.7
      vertex 0 15.6 3.7
    endloop
  endfacet
  facet normal -0.587785 -0.809017 -0
    outer loop
      vertex 14.8365 4.82066 3.7
      vertex 0 15.6 2.1
      vertex 14.8365 4.82066 2.1
    endloop
  endfacet
  facet normal -0 0 1
    outer loop
      vertex -2.80488 9.9904 2.1
      vertex -0.37037 2.75199 2.1
      vertex -0.37037 10.4768 2.1
    endloop
  endfacet
  facet normal -0 0 1
    outer loop
      vertex -14.8365 4.82066 2.1
      vertex -2.60827 2.75199 2.1
      vertex -2.80488 9.9904 2.1
    endloop
  endfacet
  facet normal 0 0 1
    outer loop
      vertex -0.37037 2.75199 2.1
      vertex -2.80488 9.9904 2.1
      vertex -2.60827 2.75199 2.1
    endloop
  endfacet
  facet normal 0 0 1
    outer loop
      vertex 14.8365 4.82066 2.1
      vertex 4.1 -1.4 2.1
      vertex 9.16945 -12.6207 2.1
    endloop
  endfacet
  facet normal 0 0 1
    outer loop
      vertex 3.22362 1.6 2.1
      vertex 14.8365 4.82066 2.1
      vertex 3.22362 2.75199 2.1
    endloop
  endfacet
  facet normal 0 0 1
    outer loop
      vertex 14.8365 4.82066 2.1
      vertex 0.98583 11.7248 2.1
      vertex 3.22362 2.75199 2.1
    endloop
  endfacet
  facet normal 0 0 1
    outer loop
      vertex 0 15.6 2.1
      vertex 0.98583 11.7248 2.1
      vertex 14.8365 4.82066 2.1
    endloop
  endfacet
  facet normal 0 0 1
    outer loop
      vertex 0 15.6 2.1
      vertex -0.383981 11.7248 2.1
      vertex 0.98583 11.7248 2.1
    endloop
  endfacet
  facet normal 0 0 1
    outer loop
      vertex 0 15.6 2.1
      vertex -2.80488 11.2384 2.1
      vertex -0.383981 11.7248 2.1
    endloop
  endfacet
  facet normal 0 0 1
    outer loop
      vertex -14.8365 4.82066 2.1
      vertex -2.80488 9.9904 2.1
      vertex -2.80488 11.2384 2.1
    endloop
  endfacet
  facet normal 0 0 1
    outer loop
      vertex -4.1 -1.4 2.1
      vertex -9.16945 -12.6207 2.1
      vertex -4.1 -9.6 2.1
    endloop
  endfacet
  facet normal 0 0 1
    outer loop
      vertex -2.60827 2.75199 2.1
      vertex -14.8365 4.82066 2.1
      vertex -4.1 -1.4 2.1
    endloop
  endfacet
  facet normal 0 0 1
    outer loop
      vertex -4.1 -1.4 2.1
      vertex -14.8365 4.82066 2.1
      vertex -9.16945 -12.6207 2.1
    endloop
  endfacet
  facet normal 0 0 1
    outer loop
      vertex -14.8365 4.82066 2.1
      vertex -2.80488 11.2384 2.1
      vertex 0 15.6 2.1
    endloop
  endfacet
  facet normal -0 0 1
    outer loop
      vertex 4.1 -9.6 2.1
      vertex 9.16945 -12.6207 2.1
      vertex 4.1 -1.4 2.1
    endloop
  endfacet
  facet normal -0 0 1
    outer loop
      vertex -4.1 -9.6 2.1
      vertex 9.16945 -12.6207 2.1
      vertex 4.1 -9.6 2.1
    endloop
  endfacet
  facet normal 0 0 1
    outer loop
      vertex 9.16945 -12.6207 2.1
      vertex -4.1 -9.6 2.1
      vertex -9.16945 -12.6207 2.1
    endloop
  endfacet
  facet normal 0 0 1
    outer loop
      vertex 14.8365 4.82066 2.1
      vertex 3.22362 1.6 2.1
      vertex 4.1 -1.4 2.1
    endloop
  endfacet
  facet normal -0 0 1
    outer loop
      vertex -2.60827 1.6 2.1
      vertex 4.1 -1.4 2.1
      vertex 3.22362 1.6 2.1
    endloop
  endfacet
  facet normal 0 0 1
    outer loop
      vertex -2.60827 1.6 2.1
      vertex -4.1 -1.4 2.1
      vertex 4.1 -1.4 2.1
    endloop
  endfacet
  facet normal 0 0 1
    outer loop
      vertex -2.60827 2.75199 2.1
      vertex -4.1 -1.4 2.1
      vertex -2.60827 1.6 2.1
    endloop
  endfacet
  facet normal 0 0 1
    outer loop
      vertex 3.22362 2.75199 2.1
      vertex 0.98583 11.7248 2.1
      vertex 0.98583 2.75199 2.1
    endloop
  endfacet
  facet normal 0.951056 0.309017 0
    outer loop
      vertex -9.16945 -12.6207 3.7
      vertex -14.8365 4.82066 2.1
      vertex -14.8365 4.82066 3.7
    endloop
  endfacet
  facet normal 0.951056 0.309017 0
    outer loop
      vertex -14.8365 4.82066 2.1
      vertex -9.16945 -12.6207 3.7
      vertex -9.16945 -12.6207 2.1
    endloop
  endfacet
  facet normal -0.951056 0.309017 0
    outer loop
      vertex 9.16945 -12.6207 2.1
      vertex 14.8365 4.82066 3.7
      vertex 14.8365 4.82066 2.1
    endloop
  endfacet
  facet normal -0.951056 0.309017 0
    outer loop
      vertex 14.8365 4.82066 3.7
      vertex 9.16945 -12.6207 2.1
      vertex 9.16945 -12.6207 3.7
    endloop
  endfacet
  facet normal 0.587785 -0.809017 0
    outer loop
      vertex -14.8365 4.82066 2.1
      vertex 0 15.6 3.7
      vertex -14.8365 4.82066 3.7
    endloop
  endfacet
  facet normal 0.587785 -0.809017 0
    outer loop
      vertex 0 15.6 3.7
      vertex -14.8365 4.82066 2.1
      vertex 0 15.6 2.1
    endloop
  endfacet
  facet normal -0 0 1
    outer loop
      vertex -4.1 -1.4 0.8
      vertex 4.1 -9.6 0.8
      vertex 4.1 -1.4 0.8
    endloop
  endfacet
  facet normal 0 0 1
    outer loop
      vertex 4.1 -9.6 0.8
      vertex -4.1 -1.4 0.8
      vertex -4.1 -9.6 0.8
    endloop
  endfacet
  facet normal 1 -0 0
    outer loop
      vertex -4.1 -9.6 2.1
      vertex -4.1 -1.4 0.8
      vertex -4.1 -1.4 2.1
    endloop
  endfacet
  facet normal 1 0 0
    outer loop
      vertex -4.1 -1.4 0.8
      vertex -4.1 -9.6 2.1
      vertex -4.1 -9.6 0.8
    endloop
  endfacet
  facet normal 0 -1 0
    outer loop
      vertex -4.1 -1.4 0.8
      vertex 4.1 -1.4 2.1
      vertex -4.1 -1.4 2.1
    endloop
  endfacet
  facet normal 0 -1 -0
    outer loop
      vertex 4.1 -1.4 2.1
      vertex -4.1 -1.4 0.8
      vertex 4.1 -1.4 0.8
    endloop
  endfacet
  facet normal -1 0 0
    outer loop
      vertex 4.1 -9.6 0.8
      vertex 4.1 -1.4 2.1
      vertex 4.1 -1.4 0.8
    endloop
  endfacet
  facet normal -1 -0 0
    outer loop
      vertex 4.1 -1.4 2.1
      vertex 4.1 -9.6 0.8
      vertex 4.1 -9.6 2.1
    endloop
  endfacet
  facet normal 0 1 -0
    outer loop
      vertex 4.1 -9.6 0.8
      vertex -4.1 -9.6 2.1
      vertex 4.1 -9.6 2.1
    endloop
  endfacet
  facet normal 0 1 0
    outer loop
      vertex -4.1 -9.6 2.1
      vertex 4.1 -9.6 0.8
      vertex -4.1 -9.6 0.8
    endloop
  endfacet
  facet normal 0 0 1
    outer loop
      vertex 0.98583 11.7248 0.8
      vertex -0.37037 10.4768 0.8
      vertex 0.98583 2.75199 0.8
    endloop
  endfacet
  facet normal -0 0 1
    outer loop
      vertex -0.383981 11.7248 0.8
      vertex -0.37037 10.4768 0.8
      vertex 0.98583 11.7248 0.8
    endloop
  endfacet
  facet normal -0 0 1
    outer loop
      vertex -2.80488 11.2384 0.8
      vertex -0.37037 10.4768 0.8
      vertex -0.383981 11.7248 0.8
    endloop
  endfacet
  facet normal 0 0 1
    outer loop
      vertex -0.37037 10.4768 0.8
      vertex -2.80488 11.2384 0.8
      vertex -2.80488 9.9904 0.8
    endloop
  endfacet
  facet normal -0 0 1
    outer loop
      vertex 0.98583 2.75199 0.8
      vertex 3.22362 1.6 0.8
      vertex 3.22362 2.75199 0.8
    endloop
  endfacet
  facet normal 0 0 1
    outer loop
      vertex -0.37037 2.75199 0.8
      vertex 0.98583 2.75199 0.8
      vertex -0.37037 10.4768 0.8
    endloop
  endfacet
  facet normal -0 0 1
    outer loop
      vertex -0.37037 2.75199 0.8
      vertex 3.22362 1.6 0.8
      vertex 0.98583 2.75199 0.8
    endloop
  endfacet
  facet normal 0 0 1
    outer loop
      vertex -2.60827 1.6 0.8
      vertex -0.37037 2.75199 0.8
      vertex -2.60827 2.75199 0.8
    endloop
  endfacet
  facet normal 0 0 1
    outer loop
      vertex -0.37037 2.75199 0.8
      vertex -2.60827 1.6 0.8
      vertex 3.22362 1.6 0.8
    endloop
  endfacet
  facet normal 0 -1 0
    outer loop
      vertex 0.98583 2.75199 0.8
      vertex 3.22362 2.75199 2.1
      vertex 0.98583 2.75199 2.1
    endloop
  endfacet
  facet normal 0 -1 -0
    outer loop
      vertex 3.22362 2.75199 2.1
      vertex 0.98583 2.75199 0.8
      vertex 3.22362 2.75199 0.8
    endloop
  endfacet
  facet normal -1 0 0
    outer loop
      vertex 0.98583 2.75199 0.8
      vertex 0.98583 11.7248 2.1
      vertex 0.98583 11.7248 0.8
    endloop
  endfacet
  facet normal -1 -0 0
    outer loop
      vertex 0.98583 11.7248 2.1
      vertex 0.98583 2.75199 0.8
      vertex 0.98583 2.75199 2.1
    endloop
  endfacet
  facet normal 0 -1 0
    outer loop
      vertex -0.383981 11.7248 0.8
      vertex 0.98583 11.7248 2.1
      vertex -0.383981 11.7248 2.1
    endloop
  endfacet
  facet normal 0 -1 -0
    outer loop
      vertex 0.98583 11.7248 2.1
      vertex -0.383981 11.7248 0.8
      vertex 0.98583 11.7248 0.8
    endloop
  endfacet
  facet normal 0.196981 -0.980407 0
    outer loop
      vertex -2.80488 11.2384 0.8
      vertex -0.383981 11.7248 2.1
      vertex -2.80488 11.2384 2.1
    endloop
  endfacet
  facet normal 0.196981 -0.980407 0
    outer loop
      vertex -0.383981 11.7248 2.1
      vertex -2.80488 11.2384 0.8
      vertex -0.383981 11.7248 0.8
    endloop
  endfacet
  facet normal 1 -0 0
    outer loop
      vertex -2.80488 9.9904 2.1
      vertex -2.80488 11.2384 0.8
      vertex -2.80488 11.2384 2.1
    endloop
  endfacet
  facet normal 1 0 0
    outer loop
      vertex -2.80488 11.2384 0.8
      vertex -2.80488 9.9904 2.1
      vertex -2.80488 9.9904 0.8
    endloop
  endfacet
  facet normal -0.195922 0.98062 0
    outer loop
      vertex -0.37037 10.4768 0.8
      vertex -2.80488 9.9904 2.1
      vertex -0.37037 10.4768 2.1
    endloop
  endfacet
  facet normal -0.195922 0.98062 0
    outer loop
      vertex -2.80488 9.9904 2.1
      vertex -0.37037 10.4768 0.8
      vertex -2.80488 9.9904 0.8
    endloop
  endfacet
  facet normal 1 -0 0
    outer loop
      vertex -0.37037 2.75199 2.1
      vertex -0.37037 10.4768 0.8
      vertex -0.37037 10.4768 2.1
    endloop
  endfacet
  facet normal 1 0 0
    outer loop
      vertex -0.37037 10.4768 0.8
      vertex -0.37037 2.75199 2.1
      vertex -0.37037 2.75199 0.8
    endloop
  endfacet
  facet normal 0 -1 0
    outer loop
      vertex -2.60827 2.75199 0.8
      vertex -0.37037 2.75199 2.1
      vertex -2.60827 2.75199 2.1
    endloop
  endfacet
  facet normal 0 -1 -0
    outer loop
      vertex -0.37037 2.75199 2.1
      vertex -2.60827 2.75199 0.8
      vertex -0.37037 2.75199 0.8
    endloop
  endfacet
  facet normal 1 -0 0
    outer loop
      vertex -2.60827 1.6 2.1
      vertex -2.60827 2.75199 0.8
      vertex -2.60827 2.75199 2.1
    endloop
  endfacet
  facet normal 1 0 0
    outer loop
      vertex -2.60827 2.75199 0.8
      vertex -2.60827 1.6 2.1
      vertex -2.60827 1.6 0.8
    endloop
  endfacet
  facet normal 0 1 -0
    outer loop
      vertex 3.22362 1.6 0.8
      vertex -2.60827 1.6 2.1
      vertex 3.22362 1.6 2.1
    endloop
  endfacet
  facet normal 0 1 0
    outer loop
      vertex -2.60827 1.6 2.1
      vertex 3.22362 1.6 0.8
      vertex -2.60827 1.6 0.8
    endloop
  endfacet
  facet normal -1 0 0
    outer loop
      vertex 3.22362 1.6 0.8
      vertex 3.22362 2.75199 2.1
      vertex 3.22362 2.75199 0.8
    endloop
  endfacet
  facet normal -1 -0 0
    outer loop
      vertex 3.22362 2.75199 2.1
      vertex 3.22362 1.6 0.8
      vertex 3.22362 1.6 2.1
    endloop
  endfacet
endsolid OpenSCAD_Model
