solid OpenSCAD_Model
  facet normal 0.587786 0.809017 -0
    outer loop
      vertex 25.8687 8.40526 0
      vertex 0 27.2 6.2
      vertex 25.8687 8.40526 6.2
    endloop
  endfacet
  facet normal 0.587786 0.809017 0
    outer loop
      vertex 0 27.2 6.2
      vertex 25.8687 8.40526 0
      vertex 0 27.2 0
    endloop
  endfacet
  facet normal 0 0 1
    outer loop
      vertex 0 27.2 6.2
      vertex 24.347 7.91083 6.2
      vertex 25.8687 8.40526 6.2
    endloop
  endfacet
  facet normal 0 0 1
    outer loop
      vertex 0 27.2 6.2
      vertex 0 25.6 6.2
      vertex 24.347 7.91083 6.2
    endloop
  endfacet
  facet normal 0 0 1
    outer loop
      vertex 0 27.2 6.2
      vertex -24.347 7.91083 6.2
      vertex 0 25.6 6.2
    endloop
  endfacet
  facet normal 0 -0 1
    outer loop
      vertex -24.347 7.91083 6.2
      vertex 0 27.2 6.2
      vertex -25.8687 8.40526 6.2
    endloop
  endfacet
  facet normal -0 0 1
    outer loop
      vertex 24.347 7.91083 6.2
      vertex 15.9878 -22.0053 6.2
      vertex 25.8687 8.40526 6.2
    endloop
  endfacet
  facet normal -0 0 1
    outer loop
      vertex 15.0473 -20.7108 6.2
      vertex 15.9878 -22.0053 6.2
      vertex 24.347 7.91083 6.2
    endloop
  endfacet
  facet normal -0 0 1
    outer loop
      vertex -15.0473 -20.7108 6.2
      vertex 15.9878 -22.0053 6.2
      vertex 15.0473 -20.7108 6.2
    endloop
  endfacet
  facet normal 0 0 1
    outer loop
      vertex -15.0473 -20.7108 6.2
      vertex -15.9878 -22.0053 6.2
      vertex 15.9878 -22.0053 6.2
    endloop
  endfacet
  facet normal 0 0 1
    outer loop
      vertex -24.347 7.91083 6.2
      vertex -15.9878 -22.0053 6.2
      vertex -15.0473 -20.7108 6.2
    endloop
  endfacet
  facet normal 0 0 1
    outer loop
      vertex -15.9878 -22.0053 6.2
      vertex -24.347 7.91083 6.2
      vertex -25.8687 8.40526 6.2
    endloop
  endfacet
  facet normal 0 0 -1
    outer loop
      vertex 15.9878 -22.0053 0
      vertex 0 27.2 0
      vertex 25.8687 8.40526 0
    endloop
  endfacet
  facet normal 0 0 -1
    outer loop
      vertex -15.9878 -22.0053 0
      vertex 0 27.2 0
      vertex 15.9878 -22.0053 0
    endloop
  endfacet
  facet normal 0 0 -1
    outer loop
      vertex 0 27.2 0
      vertex -15.9878 -22.0053 0
      vertex -25.8687 8.40526 0
    endloop
  endfacet
  facet normal -0.951057 -0.309014 0
    outer loop
      vertex -15.9878 -22.0053 0
      vertex -25.8687 8.40526 6.2
      vertex -25.8687 8.40526 0
    endloop
  endfacet
  facet normal -0.951057 -0.309014 0
    outer loop
      vertex -25.8687 8.40526 6.2
      vertex -15.9878 -22.0053 0
      vertex -15.9878 -22.0053 6.2
    endloop
  endfacet
  facet normal 0 -1 0
    outer loop
      vertex -15.9878 -22.0053 0
      vertex 15.9878 -22.0053 6.2
      vertex -15.9878 -22.0053 6.2
    endloop
  endfacet
  facet normal 0 -1 -0
    outer loop
      vertex 15.9878 -22.0053 6.2
      vertex -15.9878 -22.0053 0
      vertex 15.9878 -22.0053 0
    endloop
  endfacet
  facet normal 0.951057 -0.309014 0
    outer loop
      vertex 15.9878 -22.0053 6.2
      vertex 25.8687 8.40526 0
      vertex 25.8687 8.40526 6.2
    endloop
  endfacet
  facet normal 0.951057 -0.309014 0
    outer loop
      vertex 25.8687 8.40526 0
      vertex 15.9878 -22.0053 6.2
      vertex 15.9878 -22.0053 0
    endloop
  endfacet
  facet normal -0.587786 0.809017 0
    outer loop
      vertex 0 27.2 0
      vertex -25.8687 8.40526 6.2
      vertex 0 27.2 6.2
    endloop
  endfacet
  facet normal -0.587786 0.809017 0
    outer loop
      vertex -25.8687 8.40526 6.2
      vertex 0 27.2 0
      vertex -25.8687 8.40526 0
    endloop
  endfacet
  facet normal -0.587786 -0.809016 0
    outer loop
      vertex 0 25.6 4.6
      vertex 24.347 7.91083 6.2
      vertex 0 25.6 6.2
    endloop
  endfacet
  facet normal -0.587786 -0.809016 -0
    outer loop
      vertex 24.347 7.91083 6.2
      vertex 0 25.6 4.6
      vertex 24.347 7.91083 4.6
    endloop
  endfacet
  facet normal 0 0 1
    outer loop
      vertex 24.347 7.91083 4.6
      vertex 6.6 -1.4 4.6
      vertex 15.0473 -20.7108 4.6
    endloop
  endfacet
  facet normal 0 0 1
    outer loop
      vertex 24.347 7.91083 4.6
      vertex 4.36365 5.3637 4.6
      vertex 6.6 -1.4 4.6
    endloop
  endfacet
  facet normal 0 0 1
    outer loop
      vertex 24.347 7.91083 4.6
      vertex 4.31943 5.96352 4.6
      vertex 4.36365 5.3637 4.6
    endloop
  endfacet
  facet normal 0 0 1
    outer loop
      vertex 24.347 7.91083 4.6
      vertex 4.18678 6.51344 4.6
      vertex 4.31943 5.96352 4.6
    endloop
  endfacet
  facet normal -0 0 1
    outer loop
      vertex 4.02138 10.9158 4.6
      vertex 24.347 7.91083 4.6
      vertex 4.05991 11.4337 4.6
    endloop
  endfacet
  facet normal 0 0 1
    outer loop
      vertex 24.347 7.91083 4.6
      vertex 3.9872 12.1674 4.6
      vertex 4.05991 11.4337 4.6
    endloop
  endfacet
  facet normal 0 0 1
    outer loop
      vertex 24.347 7.91083 4.6
      vertex 3.76912 12.8211 4.6
      vertex 3.9872 12.1674 4.6
    endloop
  endfacet
  facet normal 0 0 1
    outer loop
      vertex 24.347 7.91083 4.6
      vertex 3.40564 13.395 4.6
      vertex 3.76912 12.8211 4.6
    endloop
  endfacet
  facet normal 0 0 1
    outer loop
      vertex 0 25.6 4.6
      vertex 3.40564 13.395 4.6
      vertex 24.347 7.91083 4.6
    endloop
  endfacet
  facet normal 0 0 1
    outer loop
      vertex 3.40564 13.395 4.6
      vertex 0 25.6 4.6
      vertex 2.89676 13.889 4.6
    endloop
  endfacet
  facet normal 0 0 1
    outer loop
      vertex 2.89676 13.889 4.6
      vertex 0 25.6 4.6
      vertex 2.26312 14.2864 4.6
    endloop
  endfacet
  facet normal 0 0 1
    outer loop
      vertex 2.26312 14.2864 4.6
      vertex 0 25.6 4.6
      vertex 1.52531 14.5702 4.6
    endloop
  endfacet
  facet normal 0 0 1
    outer loop
      vertex 0 25.6 4.6
      vertex 0.683334 14.7405 4.6
      vertex 1.52531 14.5702 4.6
    endloop
  endfacet
  facet normal 0 0 1
    outer loop
      vertex 0 25.6 4.6
      vertex -0.262772 14.7973 4.6
      vertex 0.683334 14.7405 4.6
    endloop
  endfacet
  facet normal 0 0 1
    outer loop
      vertex 0 25.6 4.6
      vertex -0.655258 14.7886 4.6
      vertex -0.262772 14.7973 4.6
    endloop
  endfacet
  facet normal 0 0 1
    outer loop
      vertex 0 25.6 4.6
      vertex -1.06024 14.7625 4.6
      vertex -0.655258 14.7886 4.6
    endloop
  endfacet
  facet normal 0 0 1
    outer loop
      vertex 0 25.6 4.6
      vertex -1.47772 14.719 4.6
      vertex -1.06024 14.7625 4.6
    endloop
  endfacet
  facet normal 0 0 1
    outer loop
      vertex 0 25.6 4.6
      vertex -1.9077 14.658 4.6
      vertex -1.47772 14.719 4.6
    endloop
  endfacet
  facet normal 0 0 1
    outer loop
      vertex 0 25.6 4.6
      vertex -2.35173 14.5797 4.6
      vertex -1.9077 14.658 4.6
    endloop
  endfacet
  facet normal 0 0 1
    outer loop
      vertex 0 25.6 4.6
      vertex -2.81148 14.484 4.6
      vertex -2.35173 14.5797 4.6
    endloop
  endfacet
  facet normal 0 0 1
    outer loop
      vertex 0 25.6 4.6
      vertex -3.28696 14.3708 4.6
      vertex -2.81148 14.484 4.6
    endloop
  endfacet
  facet normal 0 0 1
    outer loop
      vertex 0 25.6 4.6
      vertex -3.77817 14.2402 4.6
      vertex -3.28696 14.3708 4.6
    endloop
  endfacet
  facet normal 0 0 1
    outer loop
      vertex -24.347 7.91083 4.6
      vertex -3.77817 12.6756 4.6
      vertex -3.77817 14.2402 4.6
    endloop
  endfacet
  facet normal 0 0 1
    outer loop
      vertex -3.77817 12.6756 4.6
      vertex -4.16869 3.68076 4.6
      vertex -3.79547 3.48094 4.6
    endloop
  endfacet
  facet normal 0 0 1
    outer loop
      vertex -4.16869 3.68076 4.6
      vertex -6.6 -1.4 4.6
      vertex -4.16869 1.98501 4.6
    endloop
  endfacet
  facet normal 0 0 1
    outer loop
      vertex -3.77817 12.6756 4.6
      vertex -24.347 7.91083 4.6
      vertex -4.16869 3.68076 4.6
    endloop
  endfacet
  facet normal 0 0 1
    outer loop
      vertex -6.6 -1.4 4.6
      vertex -15.0473 -20.7108 4.6
      vertex -6.6 -14.6 4.6
    endloop
  endfacet
  facet normal 0 0 1
    outer loop
      vertex -4.16869 3.68076 4.6
      vertex -24.347 7.91083 4.6
      vertex -6.6 -1.4 4.6
    endloop
  endfacet
  facet normal 0 0 1
    outer loop
      vertex -6.6 -1.4 4.6
      vertex -24.347 7.91083 4.6
      vertex -15.0473 -20.7108 4.6
    endloop
  endfacet
  facet normal 0 0 1
    outer loop
      vertex -24.347 7.91083 4.6
      vertex -3.77817 14.2402 4.6
      vertex 0 25.6 4.6
    endloop
  endfacet
  facet normal -0 0 1
    outer loop
      vertex 6.6 -14.6 4.6
      vertex 15.0473 -20.7108 4.6
      vertex 6.6 -1.4 4.6
    endloop
  endfacet
  facet normal -0 0 1
    outer loop
      vertex -6.6 -14.6 4.6
      vertex 15.0473 -20.7108 4.6
      vertex 6.6 -14.6 4.6
    endloop
  endfacet
  facet normal 0 0 1
    outer loop
      vertex 15.0473 -20.7108 4.6
      vertex -6.6 -14.6 4.6
      vertex -15.0473 -20.7108 4.6
    endloop
  endfacet
  facet normal -0 0 1
    outer loop
      vertex 4.28117 4.45908 4.6
      vertex 6.6 -1.4 4.6
      vertex 4.36365 5.3637 4.6
    endloop
  endfacet
  facet normal -0 0 1
    outer loop
      vertex 4.03378 3.66294 4.6
      vertex 6.6 -1.4 4.6
      vertex 4.28117 4.45908 4.6
    endloop
  endfacet
  facet normal -0 0 1
    outer loop
      vertex 3.62148 2.97524 4.6
      vertex 6.6 -1.4 4.6
      vertex 4.03378 3.66294 4.6
    endloop
  endfacet
  facet normal -0 0 1
    outer loop
      vertex 3.04422 2.39602 4.6
      vertex 6.6 -1.4 4.6
      vertex 3.62148 2.97524 4.6
    endloop
  endfacet
  facet normal -0 0 1
    outer loop
      vertex 2.31512 1.93665 4.6
      vertex 6.6 -1.4 4.6
      vertex 3.04422 2.39602 4.6
    endloop
  endfacet
  facet normal -0 0 1
    outer loop
      vertex 1.44716 1.60853 4.6
      vertex 6.6 -1.4 4.6
      vertex 2.31512 1.93665 4.6
    endloop
  endfacet
  facet normal -0 0 1
    outer loop
      vertex 0.440323 1.41168 4.6
      vertex 6.6 -1.4 4.6
      vertex 1.44716 1.60853 4.6
    endloop
  endfacet
  facet normal -0 0 1
    outer loop
      vertex -0.705399 1.34606 4.6
      vertex 6.6 -1.4 4.6
      vertex 0.440323 1.41168 4.6
    endloop
  endfacet
  facet normal 0 0 1
    outer loop
      vertex -6.6 -1.4 4.6
      vertex -0.705399 1.34606 4.6
      vertex -1.11632 1.35604 4.6
    endloop
  endfacet
  facet normal 0 0 1
    outer loop
      vertex -6.6 -1.4 4.6
      vertex -1.11632 1.35604 4.6
      vertex -1.53323 1.38599 4.6
    endloop
  endfacet
  facet normal 0 0 1
    outer loop
      vertex -6.6 -1.4 4.6
      vertex -1.53323 1.38599 4.6
      vertex -1.95613 1.43591 4.6
    endloop
  endfacet
  facet normal 0 0 1
    outer loop
      vertex -6.6 -1.4 4.6
      vertex -1.95613 1.43591 4.6
      vertex -2.38501 1.50579 4.6
    endloop
  endfacet
  facet normal 0 0 1
    outer loop
      vertex -6.6 -1.4 4.6
      vertex -2.38501 1.50579 4.6
      vertex -2.82034 1.59565 4.6
    endloop
  endfacet
  facet normal 0 0 1
    outer loop
      vertex -6.6 -1.4 4.6
      vertex -2.82034 1.59565 4.6
      vertex -3.26274 1.70547 4.6
    endloop
  endfacet
  facet normal 0 0 1
    outer loop
      vertex -6.6 -1.4 4.6
      vertex -3.26274 1.70547 4.6
      vertex -3.71219 1.83526 4.6
    endloop
  endfacet
  facet normal 0 0 1
    outer loop
      vertex -0.705399 1.34606 4.6
      vertex -6.6 -1.4 4.6
      vertex 6.6 -1.4 4.6
    endloop
  endfacet
  facet normal 0 0 1
    outer loop
      vertex -6.6 -1.4 4.6
      vertex -3.71219 1.83526 4.6
      vertex -4.16869 1.98501 4.6
    endloop
  endfacet
  facet normal 0 0 1
    outer loop
      vertex 24.347 7.91083 4.6
      vertex 4.02138 10.9158 4.6
      vertex 4.18678 6.51344 4.6
    endloop
  endfacet
  facet normal -0 0 1
    outer loop
      vertex 3.90582 10.4397 4.6
      vertex 4.18678 6.51344 4.6
      vertex 4.02138 10.9158 4.6
    endloop
  endfacet
  facet normal 0 0 1
    outer loop
      vertex 4.18678 6.51344 4.6
      vertex 3.90582 10.4397 4.6
      vertex 3.9657 7.01344 4.6
    endloop
  endfacet
  facet normal -0 0 1
    outer loop
      vertex 3.71323 10.0054 4.6
      vertex 3.9657 7.01344 4.6
      vertex 3.90582 10.4397 4.6
    endloop
  endfacet
  facet normal 0 0 1
    outer loop
      vertex 3.71323 10.0054 4.6
      vertex 3.65619 7.46354 4.6
      vertex 3.9657 7.01344 4.6
    endloop
  endfacet
  facet normal -0 0 1
    outer loop
      vertex 3.44357 9.61292 4.6
      vertex 3.65619 7.46354 4.6
      vertex 3.71323 10.0054 4.6
    endloop
  endfacet
  facet normal 0 0 1
    outer loop
      vertex 3.44357 9.61292 4.6
      vertex 3.26807 7.85243 4.6
      vertex 3.65619 7.46354 4.6
    endloop
  endfacet
  facet normal -0 0 1
    outer loop
      vertex 3.10292 9.26991 4.6
      vertex 3.26807 7.85243 4.6
      vertex 3.44357 9.61292 4.6
    endloop
  endfacet
  facet normal 0 0 1
    outer loop
      vertex 3.10292 9.26991 4.6
      vertex 2.81104 8.16863 4.6
      vertex 3.26807 7.85243 4.6
    endloop
  endfacet
  facet normal -0 0 1
    outer loop
      vertex 2.69714 8.98393 4.6
      vertex 2.81104 8.16863 4.6
      vertex 3.10292 9.26991 4.6
    endloop
  endfacet
  facet normal 0 0 1
    outer loop
      vertex 2.69714 8.98393 4.6
      vertex 2.2851 8.41216 4.6
      vertex 2.81104 8.16863 4.6
    endloop
  endfacet
  facet normal -0 0 1
    outer loop
      vertex 2.22626 8.75497 4.6
      vertex 2.2851 8.41216 4.6
      vertex 2.69714 8.98393 4.6
    endloop
  endfacet
  facet normal 0 0 1
    outer loop
      vertex 2.2851 8.41216 4.6
      vertex 2.22626 8.75497 4.6
      vertex 1.69023 8.58303 4.6
    endloop
  endfacet
  facet normal 0 0 1
    outer loop
      vertex 1.21588 13.0218 4.6
      vertex 2.31526 11.2525 4.6
      vertex 2.27104 11.7235 4.6
    endloop
  endfacet
  facet normal 0 0 1
    outer loop
      vertex 2.31526 11.2525 4.6
      vertex 1.24861 9.53422 4.6
      vertex 2.2724 10.7939 4.6
    endloop
  endfacet
  facet normal 0 0 1
    outer loop
      vertex 1.6078 12.7877 4.6
      vertex 2.27104 11.7235 4.6
      vertex 2.1384 12.1364 4.6
    endloop
  endfacet
  facet normal 0 -0 1
    outer loop
      vertex 1.62944 9.76063 4.6
      vertex 2.2724 10.7939 4.6
      vertex 1.24861 9.53422 4.6
    endloop
  endfacet
  facet normal 0 0 1
    outer loop
      vertex 1.6078 12.7877 4.6
      vertex 2.1384 12.1364 4.6
      vertex 1.91731 12.4912 4.6
    endloop
  endfacet
  facet normal 0 0 1
    outer loop
      vertex 2.1438 10.3924 4.6
      vertex 1.62944 9.76063 4.6
      vertex 1.92949 10.048 4.6
    endloop
  endfacet
  facet normal 0 0 1
    outer loop
      vertex 1.21588 13.0218 4.6
      vertex 2.27104 11.7235 4.6
      vertex 1.6078 12.7877 4.6
    endloop
  endfacet
  facet normal 0 0 1
    outer loop
      vertex 2.2724 10.7939 4.6
      vertex 1.62944 9.76063 4.6
      vertex 2.1438 10.3924 4.6
    endloop
  endfacet
  facet normal 0 0 1
    outer loop
      vertex 2.31526 11.2525 4.6
      vertex 1.21588 13.0218 4.6
      vertex 1.24861 9.53422 4.6
    endloop
  endfacet
  facet normal 0 0 1
    outer loop
      vertex 1.21588 13.0218 4.6
      vertex 0.79184 9.37251 4.6
      vertex 1.24861 9.53422 4.6
    endloop
  endfacet
  facet normal 0 0 1
    outer loop
      vertex 0.747452 13.189 4.6
      vertex 0.79184 9.37251 4.6
      vertex 1.21588 13.0218 4.6
    endloop
  endfacet
  facet normal 0 0 1
    outer loop
      vertex 0.747452 13.189 4.6
      vertex 0.259109 9.27548 4.6
      vertex 0.79184 9.37251 4.6
    endloop
  endfacet
  facet normal 0 0 1
    outer loop
      vertex 0.202515 13.2893 4.6
      vertex 0.259109 9.27548 4.6
      vertex 0.747452 13.189 4.6
    endloop
  endfacet
  facet normal 0 0 1
    outer loop
      vertex 0.202515 13.2893 4.6
      vertex -0.349564 9.24313 4.6
      vertex 0.259109 9.27548 4.6
    endloop
  endfacet
  facet normal 0 0 1
    outer loop
      vertex -0.41893 13.3227 4.6
      vertex -0.349564 9.24313 4.6
      vertex 0.202515 13.2893 4.6
    endloop
  endfacet
  facet normal -0 0 1
    outer loop
      vertex -0.78569 13.3129 4.6
      vertex -0.349564 9.24313 4.6
      vertex -0.41893 13.3227 4.6
    endloop
  endfacet
  facet normal -0 0 1
    outer loop
      vertex -1.16547 13.2834 4.6
      vertex -0.349564 9.24313 4.6
      vertex -0.78569 13.3129 4.6
    endloop
  endfacet
  facet normal -0 0 1
    outer loop
      vertex -1.55824 13.2342 4.6
      vertex -0.349564 9.24313 4.6
      vertex -1.16547 13.2834 4.6
    endloop
  endfacet
  facet normal 0 0 1
    outer loop
      vertex -1.55824 13.2342 4.6
      vertex -1.92934 9.24313 4.6
      vertex -0.349564 9.24313 4.6
    endloop
  endfacet
  facet normal -0 0 1
    outer loop
      vertex -2.38663 13.0757 4.6
      vertex -1.92934 9.24313 4.6
      vertex -1.96402 13.1653 4.6
    endloop
  endfacet
  facet normal -0 0 1
    outer loop
      vertex -1.96402 13.1653 4.6
      vertex -1.92934 9.24313 4.6
      vertex -1.55824 13.2342 4.6
    endloop
  endfacet
  facet normal 0 0 1
    outer loop
      vertex 1.37532 7.43766 4.6
      vertex 2.619 5.36306 4.6
      vertex 2.56882 5.90455 4.6
    endloop
  endfacet
  facet normal 0 0 1
    outer loop
      vertex 1.81606 7.15481 4.6
      vertex 2.56882 5.90455 4.6
      vertex 2.41827 6.38368 4.6
    endloop
  endfacet
  facet normal 0 0 1
    outer loop
      vertex 0.855896 7.6397 4.6
      vertex 2.619 5.36306 4.6
      vertex 1.37532 7.43766 4.6
    endloop
  endfacet
  facet normal 0 0 1
    outer loop
      vertex 1.81606 7.15481 4.6
      vertex 2.41827 6.38368 4.6
      vertex 2.16734 6.80042 4.6
    endloop
  endfacet
  facet normal 0 0 1
    outer loop
      vertex 2.56882 5.90455 4.6
      vertex 1.81606 7.15481 4.6
      vertex 1.37532 7.43766 4.6
    endloop
  endfacet
  facet normal 0 0 1
    outer loop
      vertex 2.619 5.36306 4.6
      vertex 1.27435 3.18665 4.6
      vertex 2.56502 4.77952 4.6
    endloop
  endfacet
  facet normal 0 0 1
    outer loop
      vertex 2.40306 4.26972 4.6
      vertex 1.75526 3.47135 4.6
      vertex 2.13315 3.83366 4.6
    endloop
  endfacet
  facet normal 0 -0 1
    outer loop
      vertex 1.75526 3.47135 4.6
      vertex 2.56502 4.77952 4.6
      vertex 1.27435 3.18665 4.6
    endloop
  endfacet
  facet normal 0 0 1
    outer loop
      vertex 2.56502 4.77952 4.6
      vertex 1.75526 3.47135 4.6
      vertex 2.40306 4.26972 4.6
    endloop
  endfacet
  facet normal 0 0 1
    outer loop
      vertex 2.619 5.36306 4.6
      vertex 0.855896 7.6397 4.6
      vertex 1.27435 3.18665 4.6
    endloop
  endfacet
  facet normal 0 0 1
    outer loop
      vertex 0.855896 7.6397 4.6
      vertex 0.695267 2.98328 4.6
      vertex 1.27435 3.18665 4.6
    endloop
  endfacet
  facet normal 0 0 1
    outer loop
      vertex 0.257812 7.76093 4.6
      vertex 0.695267 2.98328 4.6
      vertex 0.855896 7.6397 4.6
    endloop
  endfacet
  facet normal 0 0 1
    outer loop
      vertex 0.257812 7.76093 4.6
      vertex 0.0179749 2.86128 4.6
      vertex 0.695267 2.98328 4.6
    endloop
  endfacet
  facet normal 0 0 1
    outer loop
      vertex -0.41893 7.80134 4.6
      vertex 0.0179749 2.86128 4.6
      vertex 0.257812 7.76093 4.6
    endloop
  endfacet
  facet normal 0 0 1
    outer loop
      vertex -0.41893 7.80134 4.6
      vertex -0.757492 2.8206 4.6
      vertex 0.0179749 2.86128 4.6
    endloop
  endfacet
  facet normal 0 0 1
    outer loop
      vertex -0.41893 7.80134 4.6
      vertex -1.22565 2.83418 4.6
      vertex -0.757492 2.8206 4.6
    endloop
  endfacet
  facet normal -0 0 1
    outer loop
      vertex -1.92934 7.80134 4.6
      vertex -1.22565 2.83418 4.6
      vertex -0.41893 7.80134 4.6
    endloop
  endfacet
  facet normal 0 0 1
    outer loop
      vertex -1.22565 2.83418 4.6
      vertex -1.92934 7.80134 4.6
      vertex -1.68405 2.8749 4.6
    endloop
  endfacet
  facet normal 0 0 1
    outer loop
      vertex -1.92934 7.80134 4.6
      vertex -2.13272 2.94279 4.6
      vertex -1.68405 2.8749 4.6
    endloop
  endfacet
  facet normal -0 0 1
    outer loop
      vertex -2.82985 12.9642 4.6
      vertex -1.92934 9.24313 4.6
      vertex -2.38663 13.0757 4.6
    endloop
  endfacet
  facet normal -0 0 1
    outer loop
      vertex -3.29369 12.8308 4.6
      vertex -1.92934 9.24313 4.6
      vertex -2.82985 12.9642 4.6
    endloop
  endfacet
  facet normal 0 0 1
    outer loop
      vertex -1.92934 7.80134 4.6
      vertex -2.57164 3.03782 4.6
      vertex -2.13272 2.94279 4.6
    endloop
  endfacet
  facet normal -0 0 1
    outer loop
      vertex -3.77817 12.6756 4.6
      vertex -1.92934 9.24313 4.6
      vertex -3.29369 12.8308 4.6
    endloop
  endfacet
  facet normal 0 0 1
    outer loop
      vertex -1.92934 7.80134 4.6
      vertex -2.99695 3.15946 4.6
      vertex -2.57164 3.03782 4.6
    endloop
  endfacet
  facet normal 0 0 1
    outer loop
      vertex -1.92934 9.24313 4.6
      vertex -3.77817 12.6756 4.6
      vertex -1.92934 7.80134 4.6
    endloop
  endfacet
  facet normal 0 0 1
    outer loop
      vertex -1.92934 7.80134 4.6
      vertex -3.40489 3.30715 4.6
      vertex -2.99695 3.15946 4.6
    endloop
  endfacet
  facet normal 0 0 1
    outer loop
      vertex -1.92934 7.80134 4.6
      vertex -3.77817 12.6756 4.6
      vertex -3.79547 3.48094 4.6
    endloop
  endfacet
  facet normal 0 0 1
    outer loop
      vertex -1.92934 7.80134 4.6
      vertex -3.79547 3.48094 4.6
      vertex -3.40489 3.30715 4.6
    endloop
  endfacet
  facet normal 0.951057 0.309016 0
    outer loop
      vertex -15.0473 -20.7108 6.2
      vertex -24.347 7.91083 4.6
      vertex -24.347 7.91083 6.2
    endloop
  endfacet
  facet normal 0.951057 0.309016 0
    outer loop
      vertex -24.347 7.91083 4.6
      vertex -15.0473 -20.7108 6.2
      vertex -15.0473 -20.7108 4.6
    endloop
  endfacet
  facet normal 0 1 -0
    outer loop
      vertex 15.0473 -20.7108 4.6
      vertex -15.0473 -20.7108 6.2
      vertex 15.0473 -20.7108 6.2
    endloop
  endfacet
  facet normal 0 1 0
    outer loop
      vertex -15.0473 -20.7108 6.2
      vertex 15.0473 -20.7108 4.6
      vertex -15.0473 -20.7108 4.6
    endloop
  endfacet
  facet normal -0.951057 0.309016 0
    outer loop
      vertex 15.0473 -20.7108 4.6
      vertex 24.347 7.91083 6.2
      vertex 24.347 7.91083 4.6
    endloop
  endfacet
  facet normal -0.951057 0.309016 0
    outer loop
      vertex 24.347 7.91083 6.2
      vertex 15.0473 -20.7108 4.6
      vertex 15.0473 -20.7108 6.2
    endloop
  endfacet
  facet normal 0.587786 -0.809016 0
    outer loop
      vertex -24.347 7.91083 4.6
      vertex 0 25.6 6.2
      vertex -24.347 7.91083 6.2
    endloop
  endfacet
  facet normal 0.587786 -0.809016 0
    outer loop
      vertex 0 25.6 6.2
      vertex -24.347 7.91083 4.6
      vertex 0 25.6 4.6
    endloop
  endfacet
  facet normal -0 0 1
    outer loop
      vertex -6.6 -1.4 0.8
      vertex 6.6 -14.6 0.8
      vertex 6.6 -1.4 0.8
    endloop
  endfacet
  facet normal 0 0 1
    outer loop
      vertex 6.6 -14.6 0.8
      vertex -6.6 -1.4 0.8
      vertex -6.6 -14.6 0.8
    endloop
  endfacet
  facet normal 1 -0 0
    outer loop
      vertex -6.6 -14.6 4.6
      vertex -6.6 -1.4 0.8
      vertex -6.6 -1.4 4.6
    endloop
  endfacet
  facet normal 1 0 0
    outer loop
      vertex -6.6 -1.4 0.8
      vertex -6.6 -14.6 4.6
      vertex -6.6 -14.6 0.8
    endloop
  endfacet
  facet normal 0 -1 0
    outer loop
      vertex -6.6 -1.4 0.8
      vertex 6.6 -1.4 4.6
      vertex -6.6 -1.4 4.6
    endloop
  endfacet
  facet normal 0 -1 -0
    outer loop
      vertex 6.6 -1.4 4.6
      vertex -6.6 -1.4 0.8
      vertex 6.6 -1.4 0.8
    endloop
  endfacet
  facet normal -1 0 0
    outer loop
      vertex 6.6 -14.6 0.8
      vertex 6.6 -1.4 4.6
      vertex 6.6 -1.4 0.8
    endloop
  endfacet
  facet normal -1 -0 0
    outer loop
      vertex 6.6 -1.4 4.6
      vertex 6.6 -14.6 0.8
      vertex 6.6 -14.6 4.6
    endloop
  endfacet
  facet normal 0 1 -0
    outer loop
      vertex 6.6 -14.6 0.8
      vertex -6.6 -14.6 4.6
      vertex 6.6 -14.6 4.6
    endloop
  endfacet
  facet normal 0 1 0
    outer loop
      vertex -6.6 -14.6 4.6
      vertex 6.6 -14.6 0.8
      vertex -6.6 -14.6 0.8
    endloop
  endfacet
  facet normal -0 0 1
    outer loop
      vertex 2.27104 11.7235 0.8
      vertex 4.05991 11.4337 0.8
      vertex 3.9872 12.1674 0.8
    endloop
  endfacet
  facet normal 0 0 1
    outer loop
      vertex 4.05991 11.4337 0.8
      vertex 2.31526 11.2525 0.8
      vertex 4.02138 10.9158 0.8
    endloop
  endfacet
  facet normal 0 0 1
    outer loop
      vertex 2.1384 12.1364 0.8
      vertex 3.9872 12.1674 0.8
      vertex 3.76912 12.8211 0.8
    endloop
  endfacet
  facet normal 0 0 1
    outer loop
      vertex 2.2724 10.7939 0.8
      vertex 4.02138 10.9158 0.8
      vertex 2.31526 11.2525 0.8
    endloop
  endfacet
  facet normal 0 0 1
    outer loop
      vertex 4.02138 10.9158 0.8
      vertex 2.2724 10.7939 0.8
      vertex 3.90582 10.4397 0.8
    endloop
  endfacet
  facet normal 0 0 1
    outer loop
      vertex 2.1384 12.1364 0.8
      vertex 3.76912 12.8211 0.8
      vertex 3.40564 13.395 0.8
    endloop
  endfacet
  facet normal 0 0 1
    outer loop
      vertex 3.90582 10.4397 0.8
      vertex 2.2724 10.7939 0.8
      vertex 3.71323 10.0054 0.8
    endloop
  endfacet
  facet normal 0 0 1
    outer loop
      vertex 1.91731 12.4912 0.8
      vertex 3.40564 13.395 0.8
      vertex 2.89676 13.889 0.8
    endloop
  endfacet
  facet normal -0 0 1
    outer loop
      vertex 2.1438 10.3924 0.8
      vertex 3.71323 10.0054 0.8
      vertex 2.2724 10.7939 0.8
    endloop
  endfacet
  facet normal 0 0 1
    outer loop
      vertex 3.71323 10.0054 0.8
      vertex 2.1438 10.3924 0.8
      vertex 3.44357 9.61292 0.8
    endloop
  endfacet
  facet normal 0 0 1
    outer loop
      vertex 4.05991 11.4337 0.8
      vertex 2.27104 11.7235 0.8
      vertex 2.31526 11.2525 0.8
    endloop
  endfacet
  facet normal 0 0 1
    outer loop
      vertex 1.6078 12.7877 0.8
      vertex 2.89676 13.889 0.8
      vertex 2.26312 14.2864 0.8
    endloop
  endfacet
  facet normal 0 0 1
    outer loop
      vertex 3.9872 12.1674 0.8
      vertex 2.1384 12.1364 0.8
      vertex 2.27104 11.7235 0.8
    endloop
  endfacet
  facet normal 0 0 1
    outer loop
      vertex 3.40564 13.395 0.8
      vertex 1.91731 12.4912 0.8
      vertex 2.1384 12.1364 0.8
    endloop
  endfacet
  facet normal 0 0 1
    outer loop
      vertex 2.89676 13.889 0.8
      vertex 1.6078 12.7877 0.8
      vertex 1.91731 12.4912 0.8
    endloop
  endfacet
  facet normal 0 0 1
    outer loop
      vertex 1.21588 13.0218 0.8
      vertex 2.26312 14.2864 0.8
      vertex 1.52531 14.5702 0.8
    endloop
  endfacet
  facet normal 0 0 1
    outer loop
      vertex 2.26312 14.2864 0.8
      vertex 1.21588 13.0218 0.8
      vertex 1.6078 12.7877 0.8
    endloop
  endfacet
  facet normal 0 0 1
    outer loop
      vertex 1.52531 14.5702 0.8
      vertex 0.747452 13.189 0.8
      vertex 1.21588 13.0218 0.8
    endloop
  endfacet
  facet normal 0 0 1
    outer loop
      vertex 0.683334 14.7405 0.8
      vertex 0.747452 13.189 0.8
      vertex 1.52531 14.5702 0.8
    endloop
  endfacet
  facet normal 0 0 1
    outer loop
      vertex 0.683334 14.7405 0.8
      vertex 0.202515 13.2893 0.8
      vertex 0.747452 13.189 0.8
    endloop
  endfacet
  facet normal 0 0 1
    outer loop
      vertex -0.262772 14.7973 0.8
      vertex 0.202515 13.2893 0.8
      vertex 0.683334 14.7405 0.8
    endloop
  endfacet
  facet normal 0 0 1
    outer loop
      vertex -0.262772 14.7973 0.8
      vertex -0.41893 13.3227 0.8
      vertex 0.202515 13.2893 0.8
    endloop
  endfacet
  facet normal -0 0 1
    outer loop
      vertex -0.655258 14.7886 0.8
      vertex -0.41893 13.3227 0.8
      vertex -0.262772 14.7973 0.8
    endloop
  endfacet
  facet normal 0 0 1
    outer loop
      vertex -0.655258 14.7886 0.8
      vertex -0.78569 13.3129 0.8
      vertex -0.41893 13.3227 0.8
    endloop
  endfacet
  facet normal -0 0 1
    outer loop
      vertex -1.06024 14.7625 0.8
      vertex -0.78569 13.3129 0.8
      vertex -0.655258 14.7886 0.8
    endloop
  endfacet
  facet normal 0 0 1
    outer loop
      vertex -1.06024 14.7625 0.8
      vertex -1.16547 13.2834 0.8
      vertex -0.78569 13.3129 0.8
    endloop
  endfacet
  facet normal -0 0 1
    outer loop
      vertex -1.47772 14.719 0.8
      vertex -1.16547 13.2834 0.8
      vertex -1.06024 14.7625 0.8
    endloop
  endfacet
  facet normal 0 0 1
    outer loop
      vertex -1.47772 14.719 0.8
      vertex -1.55824 13.2342 0.8
      vertex -1.16547 13.2834 0.8
    endloop
  endfacet
  facet normal -0 0 1
    outer loop
      vertex -1.9077 14.658 0.8
      vertex -1.55824 13.2342 0.8
      vertex -1.47772 14.719 0.8
    endloop
  endfacet
  facet normal 0 0 1
    outer loop
      vertex -1.9077 14.658 0.8
      vertex -1.96402 13.1653 0.8
      vertex -1.55824 13.2342 0.8
    endloop
  endfacet
  facet normal -0 0 1
    outer loop
      vertex -2.35173 14.5797 0.8
      vertex -1.96402 13.1653 0.8
      vertex -1.9077 14.658 0.8
    endloop
  endfacet
  facet normal 0 0 1
    outer loop
      vertex -2.35173 14.5797 0.8
      vertex -2.38663 13.0757 0.8
      vertex -1.96402 13.1653 0.8
    endloop
  endfacet
  facet normal -0 0 1
    outer loop
      vertex -2.81148 14.484 0.8
      vertex -2.38663 13.0757 0.8
      vertex -2.35173 14.5797 0.8
    endloop
  endfacet
  facet normal 0 0 1
    outer loop
      vertex -2.81148 14.484 0.8
      vertex -2.82985 12.9642 0.8
      vertex -2.38663 13.0757 0.8
    endloop
  endfacet
  facet normal -0 0 1
    outer loop
      vertex -3.28696 14.3708 0.8
      vertex -2.82985 12.9642 0.8
      vertex -2.81148 14.484 0.8
    endloop
  endfacet
  facet normal 0 0 1
    outer loop
      vertex -3.28696 14.3708 0.8
      vertex -3.29369 12.8308 0.8
      vertex -2.82985 12.9642 0.8
    endloop
  endfacet
  facet normal -0 0 1
    outer loop
      vertex -3.77817 14.2402 0.8
      vertex -3.29369 12.8308 0.8
      vertex -3.28696 14.3708 0.8
    endloop
  endfacet
  facet normal 0 0 1
    outer loop
      vertex -3.29369 12.8308 0.8
      vertex -3.77817 14.2402 0.8
      vertex -3.77817 12.6756 0.8
    endloop
  endfacet
  facet normal 0 0 1
    outer loop
      vertex 3.44357 9.61292 0.8
      vertex 2.1438 10.3924 0.8
      vertex 3.10292 9.26991 0.8
    endloop
  endfacet
  facet normal -0 0 1
    outer loop
      vertex 1.92949 10.048 0.8
      vertex 3.10292 9.26991 0.8
      vertex 2.1438 10.3924 0.8
    endloop
  endfacet
  facet normal 0 0 1
    outer loop
      vertex 3.10292 9.26991 0.8
      vertex 1.92949 10.048 0.8
      vertex 2.69714 8.98393 0.8
    endloop
  endfacet
  facet normal -0 0 1
    outer loop
      vertex 1.62944 9.76063 0.8
      vertex 2.69714 8.98393 0.8
      vertex 1.92949 10.048 0.8
    endloop
  endfacet
  facet normal 0 0 1
    outer loop
      vertex 2.69714 8.98393 0.8
      vertex 1.62944 9.76063 0.8
      vertex 2.22626 8.75497 0.8
    endloop
  endfacet
  facet normal 0 0 1
    outer loop
      vertex 2.22626 8.75497 0.8
      vertex 1.62944 9.76063 0.8
      vertex 1.69023 8.58303 0.8
    endloop
  endfacet
  facet normal 0 0 1
    outer loop
      vertex 4.31943 5.96352 0.8
      vertex 2.56882 5.90455 0.8
      vertex 2.619 5.36306 0.8
    endloop
  endfacet
  facet normal 0 0 1
    outer loop
      vertex 3.26807 7.85243 0.8
      vertex 2.41827 6.38368 0.8
      vertex 2.56882 5.90455 0.8
    endloop
  endfacet
  facet normal 0 0 1
    outer loop
      vertex 1.81606 7.15481 0.8
      vertex 2.81104 8.16863 0.8
      vertex 2.2851 8.41216 0.8
    endloop
  endfacet
  facet normal 0 0 1
    outer loop
      vertex 3.26807 7.85243 0.8
      vertex 2.16734 6.80042 0.8
      vertex 2.41827 6.38368 0.8
    endloop
  endfacet
  facet normal 0 0 1
    outer loop
      vertex 2.81104 8.16863 0.8
      vertex 1.81606 7.15481 0.8
      vertex 2.16734 6.80042 0.8
    endloop
  endfacet
  facet normal 0 0 1
    outer loop
      vertex 1.37532 7.43766 0.8
      vertex 2.2851 8.41216 0.8
      vertex 1.69023 8.58303 0.8
    endloop
  endfacet
  facet normal 0 0 1
    outer loop
      vertex 2.2851 8.41216 0.8
      vertex 1.37532 7.43766 0.8
      vertex 1.81606 7.15481 0.8
    endloop
  endfacet
  facet normal -0 0 1
    outer loop
      vertex 1.24861 9.53422 0.8
      vertex 1.69023 8.58303 0.8
      vertex 1.62944 9.76063 0.8
    endloop
  endfacet
  facet normal -0 0 1
    outer loop
      vertex 0.79184 9.37251 0.8
      vertex 1.69023 8.58303 0.8
      vertex 1.24861 9.53422 0.8
    endloop
  endfacet
  facet normal 0 0 1
    outer loop
      vertex 1.69023 8.58303 0.8
      vertex 0.855896 7.6397 0.8
      vertex 1.37532 7.43766 0.8
    endloop
  endfacet
  facet normal 0 0 1
    outer loop
      vertex 1.69023 8.58303 0.8
      vertex 0.79184 9.37251 0.8
      vertex 0.855896 7.6397 0.8
    endloop
  endfacet
  facet normal 0 0 1
    outer loop
      vertex 0.257812 7.76093 0.8
      vertex 0.79184 9.37251 0.8
      vertex 0.259109 9.27548 0.8
    endloop
  endfacet
  facet normal 0 0 1
    outer loop
      vertex 0.79184 9.37251 0.8
      vertex 0.257812 7.76093 0.8
      vertex 0.855896 7.6397 0.8
    endloop
  endfacet
  facet normal -0 0 1
    outer loop
      vertex -0.349564 9.24313 0.8
      vertex 0.257812 7.76093 0.8
      vertex 0.259109 9.27548 0.8
    endloop
  endfacet
  facet normal 0 0 1
    outer loop
      vertex -0.349564 9.24313 0.8
      vertex -0.41893 7.80134 0.8
      vertex 0.257812 7.76093 0.8
    endloop
  endfacet
  facet normal -0 0 1
    outer loop
      vertex -1.92934 9.24313 0.8
      vertex -0.41893 7.80134 0.8
      vertex -0.349564 9.24313 0.8
    endloop
  endfacet
  facet normal 0 0 1
    outer loop
      vertex -0.41893 7.80134 0.8
      vertex -1.92934 9.24313 0.8
      vertex -1.92934 7.80134 0.8
    endloop
  endfacet
  facet normal 0 0 1
    outer loop
      vertex 2.619 5.36306 0.8
      vertex 4.36365 5.3637 0.8
      vertex 4.31943 5.96352 0.8
    endloop
  endfacet
  facet normal 0 0 1
    outer loop
      vertex 2.56882 5.90455 0.8
      vertex 4.31943 5.96352 0.8
      vertex 4.18678 6.51344 0.8
    endloop
  endfacet
  facet normal 0 0 1
    outer loop
      vertex 4.36365 5.3637 0.8
      vertex 2.619 5.36306 0.8
      vertex 4.28117 4.45908 0.8
    endloop
  endfacet
  facet normal 0 0 1
    outer loop
      vertex 2.56882 5.90455 0.8
      vertex 4.18678 6.51344 0.8
      vertex 3.9657 7.01344 0.8
    endloop
  endfacet
  facet normal 0 0 1
    outer loop
      vertex 2.56882 5.90455 0.8
      vertex 3.9657 7.01344 0.8
      vertex 3.65619 7.46354 0.8
    endloop
  endfacet
  facet normal -0 0 1
    outer loop
      vertex 2.56502 4.77952 0.8
      vertex 4.28117 4.45908 0.8
      vertex 2.619 5.36306 0.8
    endloop
  endfacet
  facet normal 0 0 1
    outer loop
      vertex 2.56882 5.90455 0.8
      vertex 3.65619 7.46354 0.8
      vertex 3.26807 7.85243 0.8
    endloop
  endfacet
  facet normal 0 0 1
    outer loop
      vertex 4.28117 4.45908 0.8
      vertex 2.56502 4.77952 0.8
      vertex 4.03378 3.66294 0.8
    endloop
  endfacet
  facet normal 0 0 1
    outer loop
      vertex 2.16734 6.80042 0.8
      vertex 3.26807 7.85243 0.8
      vertex 2.81104 8.16863 0.8
    endloop
  endfacet
  facet normal -0 0 1
    outer loop
      vertex 2.40306 4.26972 0.8
      vertex 4.03378 3.66294 0.8
      vertex 2.56502 4.77952 0.8
    endloop
  endfacet
  facet normal 0 0 1
    outer loop
      vertex 4.03378 3.66294 0.8
      vertex 2.40306 4.26972 0.8
      vertex 3.62148 2.97524 0.8
    endloop
  endfacet
  facet normal -0 0 1
    outer loop
      vertex 2.13315 3.83366 0.8
      vertex 3.62148 2.97524 0.8
      vertex 2.40306 4.26972 0.8
    endloop
  endfacet
  facet normal 0 0 1
    outer loop
      vertex 3.62148 2.97524 0.8
      vertex 2.13315 3.83366 0.8
      vertex 3.04422 2.39602 0.8
    endloop
  endfacet
  facet normal -0 0 1
    outer loop
      vertex 1.75526 3.47135 0.8
      vertex 3.04422 2.39602 0.8
      vertex 2.13315 3.83366 0.8
    endloop
  endfacet
  facet normal 0 0 1
    outer loop
      vertex 3.04422 2.39602 0.8
      vertex 1.75526 3.47135 0.8
      vertex 2.31512 1.93665 0.8
    endloop
  endfacet
  facet normal -0 0 1
    outer loop
      vertex 1.27435 3.18665 0.8
      vertex 2.31512 1.93665 0.8
      vertex 1.75526 3.47135 0.8
    endloop
  endfacet
  facet normal 0 0 1
    outer loop
      vertex 2.31512 1.93665 0.8
      vertex 1.27435 3.18665 0.8
      vertex 1.44716 1.60853 0.8
    endloop
  endfacet
  facet normal -0 0 1
    outer loop
      vertex 0.695267 2.98328 0.8
      vertex 1.44716 1.60853 0.8
      vertex 1.27435 3.18665 0.8
    endloop
  endfacet
  facet normal 0 0 1
    outer loop
      vertex 0.695267 2.98328 0.8
      vertex 0.440323 1.41168 0.8
      vertex 1.44716 1.60853 0.8
    endloop
  endfacet
  facet normal -0 0 1
    outer loop
      vertex 0.0179749 2.86128 0.8
      vertex 0.440323 1.41168 0.8
      vertex 0.695267 2.98328 0.8
    endloop
  endfacet
  facet normal 0 0 1
    outer loop
      vertex 0.0179749 2.86128 0.8
      vertex -0.705399 1.34606 0.8
      vertex 0.440323 1.41168 0.8
    endloop
  endfacet
  facet normal -0 0 1
    outer loop
      vertex -0.757492 2.8206 0.8
      vertex -0.705399 1.34606 0.8
      vertex 0.0179749 2.86128 0.8
    endloop
  endfacet
  facet normal 0 0 1
    outer loop
      vertex -0.757492 2.8206 0.8
      vertex -1.11632 1.35604 0.8
      vertex -0.705399 1.34606 0.8
    endloop
  endfacet
  facet normal 0 0 1
    outer loop
      vertex -1.22565 2.83418 0.8
      vertex -1.11632 1.35604 0.8
      vertex -0.757492 2.8206 0.8
    endloop
  endfacet
  facet normal 0 0 1
    outer loop
      vertex -1.22565 2.83418 0.8
      vertex -1.53323 1.38599 0.8
      vertex -1.11632 1.35604 0.8
    endloop
  endfacet
  facet normal 0 0 1
    outer loop
      vertex -1.68405 2.8749 0.8
      vertex -1.53323 1.38599 0.8
      vertex -1.22565 2.83418 0.8
    endloop
  endfacet
  facet normal 0 0 1
    outer loop
      vertex -1.68405 2.8749 0.8
      vertex -1.95613 1.43591 0.8
      vertex -1.53323 1.38599 0.8
    endloop
  endfacet
  facet normal 0 0 1
    outer loop
      vertex -2.13272 2.94279 0.8
      vertex -1.95613 1.43591 0.8
      vertex -1.68405 2.8749 0.8
    endloop
  endfacet
  facet normal 0 0 1
    outer loop
      vertex -2.13272 2.94279 0.8
      vertex -2.38501 1.50579 0.8
      vertex -1.95613 1.43591 0.8
    endloop
  endfacet
  facet normal 0 0 1
    outer loop
      vertex -2.82034 1.59565 0.8
      vertex -2.13272 2.94279 0.8
      vertex -2.57164 3.03782 0.8
    endloop
  endfacet
  facet normal 0 0 1
    outer loop
      vertex -2.13272 2.94279 0.8
      vertex -2.82034 1.59565 0.8
      vertex -2.38501 1.50579 0.8
    endloop
  endfacet
  facet normal 0 0 1
    outer loop
      vertex -3.26274 1.70547 0.8
      vertex -2.57164 3.03782 0.8
      vertex -2.99695 3.15946 0.8
    endloop
  endfacet
  facet normal 0 0 1
    outer loop
      vertex -2.57164 3.03782 0.8
      vertex -3.26274 1.70547 0.8
      vertex -2.82034 1.59565 0.8
    endloop
  endfacet
  facet normal 0 0 1
    outer loop
      vertex -3.71219 1.83526 0.8
      vertex -2.99695 3.15946 0.8
      vertex -3.40489 3.30715 0.8
    endloop
  endfacet
  facet normal 0 0 1
    outer loop
      vertex -2.99695 3.15946 0.8
      vertex -3.71219 1.83526 0.8
      vertex -3.26274 1.70547 0.8
    endloop
  endfacet
  facet normal 0 0 1
    outer loop
      vertex -4.16869 1.98501 0.8
      vertex -3.40489 3.30715 0.8
      vertex -3.79547 3.48094 0.8
    endloop
  endfacet
  facet normal 0 0 1
    outer loop
      vertex -4.16869 1.98501 0.8
      vertex -3.79547 3.48094 0.8
      vertex -4.16869 3.68076 0.8
    endloop
  endfacet
  facet normal 0 0 1
    outer loop
      vertex -3.40489 3.30715 0.8
      vertex -4.16869 1.98501 0.8
      vertex -3.71219 1.83526 0.8
    endloop
  endfacet
  facet normal -0.19188 0.981418 0
    outer loop
      vertex 1.44716 1.60853 0.8
      vertex 0.440323 1.41168 4.6
      vertex 1.44716 1.60853 4.6
    endloop
  endfacet
  facet normal -0.19188 0.981418 0
    outer loop
      vertex 0.440323 1.41168 4.6
      vertex 1.44716 1.60853 0.8
      vertex 0.440323 1.41168 0.8
    endloop
  endfacet
  facet normal -0.353612 0.935392 0
    outer loop
      vertex 2.31512 1.93665 0.8
      vertex 1.44716 1.60853 4.6
      vertex 2.31512 1.93665 4.6
    endloop
  endfacet
  facet normal -0.353612 0.935392 0
    outer loop
      vertex 1.44716 1.60853 4.6
      vertex 2.31512 1.93665 0.8
      vertex 1.44716 1.60853 0.8
    endloop
  endfacet
  facet normal -0.533068 0.846072 0
    outer loop
      vertex 3.04422 2.39602 0.8
      vertex 2.31512 1.93665 4.6
      vertex 3.04422 2.39602 4.6
    endloop
  endfacet
  facet normal -0.533068 0.846072 0
    outer loop
      vertex 2.31512 1.93665 4.6
      vertex 3.04422 2.39602 0.8
      vertex 2.31512 1.93665 0.8
    endloop
  endfacet
  facet normal -0.708304 0.705907 0
    outer loop
      vertex 3.04422 2.39602 0.8
      vertex 3.62148 2.97524 4.6
      vertex 3.62148 2.97524 0.8
    endloop
  endfacet
  facet normal -0.708304 0.705907 0
    outer loop
      vertex 3.62148 2.97524 4.6
      vertex 3.04422 2.39602 0.8
      vertex 3.04422 2.39602 4.6
    endloop
  endfacet
  facet normal -0.857669 0.514202 0
    outer loop
      vertex 3.62148 2.97524 0.8
      vertex 4.03378 3.66294 4.6
      vertex 4.03378 3.66294 0.8
    endloop
  endfacet
  facet normal -0.857669 0.514202 0
    outer loop
      vertex 4.03378 3.66294 4.6
      vertex 3.62148 2.97524 0.8
      vertex 3.62148 2.97524 4.6
    endloop
  endfacet
  facet normal -0.954958 0.296741 0
    outer loop
      vertex 4.03378 3.66294 0.8
      vertex 4.28117 4.45908 4.6
      vertex 4.28117 4.45908 0.8
    endloop
  endfacet
  facet normal -0.954958 0.296741 0
    outer loop
      vertex 4.28117 4.45908 4.6
      vertex 4.03378 3.66294 0.8
      vertex 4.03378 3.66294 4.6
    endloop
  endfacet
  facet normal -0.995869 0.0907998 0
    outer loop
      vertex 4.28117 4.45908 0.8
      vertex 4.36365 5.3637 4.6
      vertex 4.36365 5.3637 0.8
    endloop
  endfacet
  facet normal -0.995869 0.0907998 0
    outer loop
      vertex 4.36365 5.3637 4.6
      vertex 4.28117 4.45908 0.8
      vertex 4.28117 4.45908 4.6
    endloop
  endfacet
  facet normal -0.997294 -0.0735226 0
    outer loop
      vertex 4.36365 5.3637 0.8
      vertex 4.31943 5.96352 4.6
      vertex 4.31943 5.96352 0.8
    endloop
  endfacet
  facet normal -0.997294 -0.0735226 0
    outer loop
      vertex 4.31943 5.96352 4.6
      vertex 4.36365 5.3637 0.8
      vertex 4.36365 5.3637 4.6
    endloop
  endfacet
  facet normal -0.972118 -0.234491 0
    outer loop
      vertex 4.31943 5.96352 0.8
      vertex 4.18678 6.51344 4.6
      vertex 4.18678 6.51344 0.8
    endloop
  endfacet
  facet normal -0.972118 -0.234491 0
    outer loop
      vertex 4.18678 6.51344 4.6
      vertex 4.31943 5.96352 0.8
      vertex 4.31943 5.96352 4.6
    endloop
  endfacet
  facet normal -0.914585 -0.404393 0
    outer loop
      vertex 4.18678 6.51344 0.8
      vertex 3.9657 7.01344 4.6
      vertex 3.9657 7.01344 0.8
    endloop
  endfacet
  facet normal -0.914585 -0.404393 0
    outer loop
      vertex 3.9657 7.01344 4.6
      vertex 4.18678 6.51344 0.8
      vertex 4.18678 6.51344 4.6
    endloop
  endfacet
  facet normal -0.823985 -0.566611 0
    outer loop
      vertex 3.9657 7.01344 0.8
      vertex 3.65619 7.46354 4.6
      vertex 3.65619 7.46354 0.8
    endloop
  endfacet
  facet normal -0.823985 -0.566611 0
    outer loop
      vertex 3.65619 7.46354 4.6
      vertex 3.9657 7.01344 0.8
      vertex 3.9657 7.01344 4.6
    endloop
  endfacet
  facet normal -0.707807 -0.706406 0
    outer loop
      vertex 3.65619 7.46354 0.8
      vertex 3.26807 7.85243 4.6
      vertex 3.26807 7.85243 0.8
    endloop
  endfacet
  facet normal -0.707807 -0.706406 0
    outer loop
      vertex 3.26807 7.85243 4.6
      vertex 3.65619 7.46354 0.8
      vertex 3.65619 7.46354 4.6
    endloop
  endfacet
  facet normal -0.56896 -0.822365 0
    outer loop
      vertex 2.81104 8.16863 0.8
      vertex 3.26807 7.85243 4.6
      vertex 2.81104 8.16863 4.6
    endloop
  endfacet
  facet normal -0.56896 -0.822365 -0
    outer loop
      vertex 3.26807 7.85243 4.6
      vertex 2.81104 8.16863 0.8
      vertex 3.26807 7.85243 0.8
    endloop
  endfacet
  facet normal -0.420179 -0.907441 0
    outer loop
      vertex 2.2851 8.41216 0.8
      vertex 2.81104 8.16863 4.6
      vertex 2.2851 8.41216 4.6
    endloop
  endfacet
  facet normal -0.420179 -0.907441 -0
    outer loop
      vertex 2.81104 8.16863 4.6
      vertex 2.2851 8.41216 0.8
      vertex 2.81104 8.16863 0.8
    endloop
  endfacet
  facet normal -0.276076 -0.961136 0
    outer loop
      vertex 1.69023 8.58303 0.8
      vertex 2.2851 8.41216 4.6
      vertex 1.69023 8.58303 4.6
    endloop
  endfacet
  facet normal -0.276076 -0.961136 -0
    outer loop
      vertex 2.2851 8.41216 4.6
      vertex 1.69023 8.58303 0.8
      vertex 2.2851 8.41216 0.8
    endloop
  endfacet
  facet normal -0.305437 0.952212 0
    outer loop
      vertex 2.22626 8.75497 0.8
      vertex 1.69023 8.58303 4.6
      vertex 2.22626 8.75497 4.6
    endloop
  endfacet
  facet normal -0.305437 0.952212 0
    outer loop
      vertex 1.69023 8.58303 4.6
      vertex 2.22626 8.75497 0.8
      vertex 1.69023 8.58303 0.8
    endloop
  endfacet
  facet normal -0.437285 0.899323 0
    outer loop
      vertex 2.69714 8.98393 0.8
      vertex 2.22626 8.75497 4.6
      vertex 2.69714 8.98393 4.6
    endloop
  endfacet
  facet normal -0.437285 0.899323 0
    outer loop
      vertex 2.22626 8.75497 4.6
      vertex 2.69714 8.98393 0.8
      vertex 2.22626 8.75497 0.8
    endloop
  endfacet
  facet normal -0.576074 0.817397 0
    outer loop
      vertex 3.10292 9.26991 0.8
      vertex 2.69714 8.98393 4.6
      vertex 3.10292 9.26991 4.6
    endloop
  endfacet
  facet normal -0.576074 0.817397 0
    outer loop
      vertex 2.69714 8.98393 4.6
      vertex 3.10292 9.26991 0.8
      vertex 2.69714 8.98393 0.8
    endloop
  endfacet
  facet normal -0.709543 0.704662 0
    outer loop
      vertex 3.10292 9.26991 0.8
      vertex 3.44357 9.61292 4.6
      vertex 3.44357 9.61292 0.8
    endloop
  endfacet
  facet normal -0.709543 0.704662 0
    outer loop
      vertex 3.44357 9.61292 4.6
      vertex 3.10292 9.26991 0.8
      vertex 3.10292 9.26991 4.6
    endloop
  endfacet
  facet normal -0.824209 0.566286 0
    outer loop
      vertex 3.44357 9.61292 0.8
      vertex 3.71323 10.0054 4.6
      vertex 3.71323 10.0054 0.8
    endloop
  endfacet
  facet normal -0.824209 0.566286 0
    outer loop
      vertex 3.71323 10.0054 4.6
      vertex 3.44357 9.61292 0.8
      vertex 3.44357 9.61292 4.6
    endloop
  endfacet
  facet normal -0.914149 0.405379 0
    outer loop
      vertex 3.71323 10.0054 0.8
      vertex 3.90582 10.4397 4.6
      vertex 3.90582 10.4397 0.8
    endloop
  endfacet
  facet normal -0.914149 0.405379 0
    outer loop
      vertex 3.90582 10.4397 4.6
      vertex 3.71323 10.0054 0.8
      vertex 3.71323 10.0054 4.6
    endloop
  endfacet
  facet normal -0.971784 0.235873 0
    outer loop
      vertex 3.90582 10.4397 0.8
      vertex 4.02138 10.9158 4.6
      vertex 4.02138 10.9158 0.8
    endloop
  endfacet
  facet normal -0.971784 0.235873 0
    outer loop
      vertex 4.02138 10.9158 4.6
      vertex 3.90582 10.4397 0.8
      vertex 3.90582 10.4397 4.6
    endloop
  endfacet
  facet normal -0.997244 0.0741916 0
    outer loop
      vertex 4.02138 10.9158 0.8
      vertex 4.05991 11.4337 4.6
      vertex 4.05991 11.4337 0.8
    endloop
  endfacet
  facet normal -0.997244 0.0741916 0
    outer loop
      vertex 4.05991 11.4337 4.6
      vertex 4.02138 10.9158 0.8
      vertex 4.02138 10.9158 4.6
    endloop
  endfacet
  facet normal -0.995125 -0.0986174 0
    outer loop
      vertex 4.05991 11.4337 0.8
      vertex 3.9872 12.1674 4.6
      vertex 3.9872 12.1674 0.8
    endloop
  endfacet
  facet normal -0.995125 -0.0986174 0
    outer loop
      vertex 3.9872 12.1674 4.6
      vertex 4.05991 11.4337 0.8
      vertex 4.05991 11.4337 4.6
    endloop
  endfacet
  facet normal -0.948605 -0.316463 0
    outer loop
      vertex 3.9872 12.1674 0.8
      vertex 3.76912 12.8211 4.6
      vertex 3.76912 12.8211 0.8
    endloop
  endfacet
  facet normal -0.948605 -0.316463 0
    outer loop
      vertex 3.76912 12.8211 4.6
      vertex 3.9872 12.1674 0.8
      vertex 3.9872 12.1674 4.6
    endloop
  endfacet
  facet normal -0.844812 -0.535063 0
    outer loop
      vertex 3.76912 12.8211 0.8
      vertex 3.40564 13.395 4.6
      vertex 3.40564 13.395 0.8
    endloop
  endfacet
  facet normal -0.844812 -0.535063 0
    outer loop
      vertex 3.40564 13.395 4.6
      vertex 3.76912 12.8211 0.8
      vertex 3.76912 12.8211 4.6
    endloop
  endfacet
  facet normal -0.696539 -0.717519 0
    outer loop
      vertex 2.89676 13.889 0.8
      vertex 3.40564 13.395 4.6
      vertex 2.89676 13.889 4.6
    endloop
  endfacet
  facet normal -0.696539 -0.717519 -0
    outer loop
      vertex 3.40564 13.395 4.6
      vertex 2.89676 13.889 0.8
      vertex 3.40564 13.395 0.8
    endloop
  endfacet
  facet normal -0.53132 -0.847171 0
    outer loop
      vertex 2.26312 14.2864 0.8
      vertex 2.89676 13.889 4.6
      vertex 2.26312 14.2864 4.6
    endloop
  endfacet
  facet normal -0.53132 -0.847171 -0
    outer loop
      vertex 2.89676 13.889 4.6
      vertex 2.26312 14.2864 0.8
      vertex 2.89676 13.889 0.8
    endloop
  endfacet
  facet normal -0.359009 -0.933334 0
    outer loop
      vertex 1.52531 14.5702 0.8
      vertex 2.26312 14.2864 4.6
      vertex 1.52531 14.5702 4.6
    endloop
  endfacet
  facet normal -0.359009 -0.933334 -0
    outer loop
      vertex 2.26312 14.2864 4.6
      vertex 1.52531 14.5702 0.8
      vertex 2.26312 14.2864 0.8
    endloop
  endfacet
  facet normal -0.198248 -0.980152 0
    outer loop
      vertex 0.683334 14.7405 0.8
      vertex 1.52531 14.5702 4.6
      vertex 0.683334 14.7405 4.6
    endloop
  endfacet
  facet normal -0.198248 -0.980152 -0
    outer loop
      vertex 1.52531 14.5702 4.6
      vertex 0.683334 14.7405 0.8
      vertex 1.52531 14.5702 0.8
    endloop
  endfacet
  facet normal -0.0599277 -0.998203 0
    outer loop
      vertex -0.262772 14.7973 0.8
      vertex 0.683334 14.7405 4.6
      vertex -0.262772 14.7973 4.6
    endloop
  endfacet
  facet normal -0.0599277 -0.998203 -0
    outer loop
      vertex 0.683334 14.7405 4.6
      vertex -0.262772 14.7973 0.8
      vertex 0.683334 14.7405 0.8
    endloop
  endfacet
  facet normal 0.022161 -0.999754 0
    outer loop
      vertex -0.655258 14.7886 0.8
      vertex -0.262772 14.7973 4.6
      vertex -0.655258 14.7886 4.6
    endloop
  endfacet
  facet normal 0.022161 -0.999754 0
    outer loop
      vertex -0.262772 14.7973 4.6
      vertex -0.655258 14.7886 0.8
      vertex -0.262772 14.7973 0.8
    endloop
  endfacet
  facet normal 0.0643139 -0.99793 0
    outer loop
      vertex -1.06024 14.7625 0.8
      vertex -0.655258 14.7886 4.6
      vertex -1.06024 14.7625 4.6
    endloop
  endfacet
  facet normal 0.0643139 -0.99793 0
    outer loop
      vertex -0.655258 14.7886 4.6
      vertex -1.06024 14.7625 0.8
      vertex -0.655258 14.7886 0.8
    endloop
  endfacet
  facet normal 0.103636 -0.994615 0
    outer loop
      vertex -1.47772 14.719 0.8
      vertex -1.06024 14.7625 4.6
      vertex -1.47772 14.719 4.6
    endloop
  endfacet
  facet normal 0.103636 -0.994615 0
    outer loop
      vertex -1.06024 14.7625 4.6
      vertex -1.47772 14.719 0.8
      vertex -1.06024 14.7625 0.8
    endloop
  endfacet
  facet normal 0.140461 -0.990086 0
    outer loop
      vertex -1.9077 14.658 0.8
      vertex -1.47772 14.719 4.6
      vertex -1.9077 14.658 4.6
    endloop
  endfacet
  facet normal 0.140461 -0.990086 0
    outer loop
      vertex -1.47772 14.719 4.6
      vertex -1.9077 14.658 0.8
      vertex -1.47772 14.719 0.8
    endloop
  endfacet
  facet normal 0.17366 -0.984806 0
    outer loop
      vertex -2.35173 14.5797 0.8
      vertex -1.9077 14.658 4.6
      vertex -2.35173 14.5797 4.6
    endloop
  endfacet
  facet normal 0.17366 -0.984806 0
    outer loop
      vertex -1.9077 14.658 4.6
      vertex -2.35173 14.5797 0.8
      vertex -1.9077 14.658 0.8
    endloop
  endfacet
  facet normal 0.203788 -0.979015 0
    outer loop
      vertex -2.81148 14.484 0.8
      vertex -2.35173 14.5797 4.6
      vertex -2.81148 14.484 4.6
    endloop
  endfacet
  facet normal 0.203788 -0.979015 0
    outer loop
      vertex -2.35173 14.5797 4.6
      vertex -2.81148 14.484 0.8
      vertex -2.35173 14.5797 0.8
    endloop
  endfacet
  facet normal 0.231602 -0.972811 0
    outer loop
      vertex -3.28696 14.3708 0.8
      vertex -2.81148 14.484 4.6
      vertex -3.28696 14.3708 4.6
    endloop
  endfacet
  facet normal 0.231602 -0.972811 0
    outer loop
      vertex -2.81148 14.484 4.6
      vertex -3.28696 14.3708 0.8
      vertex -2.81148 14.484 0.8
    endloop
  endfacet
  facet normal 0.256947 -0.966425 0
    outer loop
      vertex -3.77817 14.2402 0.8
      vertex -3.28696 14.3708 4.6
      vertex -3.77817 14.2402 4.6
    endloop
  endfacet
  facet normal 0.256947 -0.966425 0
    outer loop
      vertex -3.28696 14.3708 4.6
      vertex -3.77817 14.2402 0.8
      vertex -3.28696 14.3708 0.8
    endloop
  endfacet
  facet normal 1 -0 0
    outer loop
      vertex -3.77817 12.6756 4.6
      vertex -3.77817 14.2402 0.8
      vertex -3.77817 14.2402 4.6
    endloop
  endfacet
  facet normal 1 0 0
    outer loop
      vertex -3.77817 14.2402 0.8
      vertex -3.77817 12.6756 4.6
      vertex -3.77817 12.6756 0.8
    endloop
  endfacet
  facet normal -0.305072 0.952329 0
    outer loop
      vertex -3.29369 12.8308 0.8
      vertex -3.77817 12.6756 4.6
      vertex -3.29369 12.8308 4.6
    endloop
  endfacet
  facet normal -0.305072 0.952329 0
    outer loop
      vertex -3.77817 12.6756 4.6
      vertex -3.29369 12.8308 0.8
      vertex -3.77817 12.6756 0.8
    endloop
  endfacet
  facet normal -0.276395 0.961044 0
    outer loop
      vertex -2.82985 12.9642 0.8
      vertex -3.29369 12.8308 4.6
      vertex -2.82985 12.9642 4.6
    endloop
  endfacet
  facet normal -0.276395 0.961044 0
    outer loop
      vertex -3.29369 12.8308 4.6
      vertex -2.82985 12.9642 0.8
      vertex -3.29369 12.8308 0.8
    endloop
  endfacet
  facet normal -0.243967 0.969784 0
    outer loop
      vertex -2.38663 13.0757 0.8
      vertex -2.82985 12.9642 4.6
      vertex -2.38663 13.0757 4.6
    endloop
  endfacet
  facet normal -0.243967 0.969784 0
    outer loop
      vertex -2.82985 12.9642 4.6
      vertex -2.38663 13.0757 0.8
      vertex -2.82985 12.9642 0.8
    endloop
  endfacet
  facet normal -0.207406 0.978255 0
    outer loop
      vertex -1.96402 13.1653 0.8
      vertex -2.38663 13.0757 4.6
      vertex -1.96402 13.1653 4.6
    endloop
  endfacet
  facet normal -0.207406 0.978255 0
    outer loop
      vertex -2.38663 13.0757 4.6
      vertex -1.96402 13.1653 0.8
      vertex -2.38663 13.0757 0.8
    endloop
  endfacet
  facet normal -0.1674 0.985889 0
    outer loop
      vertex -1.55824 13.2342 0.8
      vertex -1.96402 13.1653 4.6
      vertex -1.55824 13.2342 4.6
    endloop
  endfacet
  facet normal -0.1674 0.985889 0
    outer loop
      vertex -1.96402 13.1653 4.6
      vertex -1.55824 13.2342 0.8
      vertex -1.96402 13.1653 0.8
    endloop
  endfacet
  facet normal -0.124293 0.992246 0
    outer loop
      vertex -1.16547 13.2834 0.8
      vertex -1.55824 13.2342 4.6
      vertex -1.16547 13.2834 4.6
    endloop
  endfacet
  facet normal -0.124293 0.992246 0
    outer loop
      vertex -1.55824 13.2342 4.6
      vertex -1.16547 13.2834 0.8
      vertex -1.55824 13.2342 0.8
    endloop
  endfacet
  facet normal -0.0774433 0.996997 0
    outer loop
      vertex -0.78569 13.3129 0.8
      vertex -1.16547 13.2834 4.6
      vertex -0.78569 13.3129 4.6
    endloop
  endfacet
  facet normal -0.0774433 0.996997 0
    outer loop
      vertex -1.16547 13.2834 4.6
      vertex -0.78569 13.3129 0.8
      vertex -1.16547 13.2834 0.8
    endloop
  endfacet
  facet normal -0.0267109 0.999643 0
    outer loop
      vertex -0.41893 13.3227 0.8
      vertex -0.78569 13.3129 4.6
      vertex -0.41893 13.3227 4.6
    endloop
  endfacet
  facet normal -0.0267109 0.999643 0
    outer loop
      vertex -0.78569 13.3129 4.6
      vertex -0.41893 13.3227 0.8
      vertex -0.78569 13.3129 0.8
    endloop
  endfacet
  facet normal 0.0536682 0.998559 -0
    outer loop
      vertex 0.202515 13.2893 0.8
      vertex -0.41893 13.3227 4.6
      vertex 0.202515 13.2893 4.6
    endloop
  endfacet
  facet normal 0.0536682 0.998559 0
    outer loop
      vertex -0.41893 13.3227 4.6
      vertex 0.202515 13.2893 0.8
      vertex -0.41893 13.3227 0.8
    endloop
  endfacet
  facet normal 0.181017 0.98348 -0
    outer loop
      vertex 0.747452 13.189 0.8
      vertex 0.202515 13.2893 4.6
      vertex 0.747452 13.189 4.6
    endloop
  endfacet
  facet normal 0.181017 0.98348 0
    outer loop
      vertex 0.202515 13.2893 4.6
      vertex 0.747452 13.189 0.8
      vertex 0.202515 13.2893 0.8
    endloop
  endfacet
  facet normal 0.336166 0.941803 -0
    outer loop
      vertex 1.21588 13.0218 0.8
      vertex 0.747452 13.189 4.6
      vertex 1.21588 13.0218 4.6
    endloop
  endfacet
  facet normal 0.336166 0.941803 0
    outer loop
      vertex 0.747452 13.189 4.6
      vertex 1.21588 13.0218 0.8
      vertex 0.747452 13.189 0.8
    endloop
  endfacet
  facet normal 0.5128 0.858508 -0
    outer loop
      vertex 1.6078 12.7877 0.8
      vertex 1.21588 13.0218 4.6
      vertex 1.6078 12.7877 4.6
    endloop
  endfacet
  facet normal 0.5128 0.858508 0
    outer loop
      vertex 1.21588 13.0218 4.6
      vertex 1.6078 12.7877 0.8
      vertex 1.21588 13.0218 0.8
    endloop
  endfacet
  facet normal 0.691767 0.722121 -0
    outer loop
      vertex 1.91731 12.4912 0.8
      vertex 1.6078 12.7877 4.6
      vertex 1.91731 12.4912 4.6
    endloop
  endfacet
  facet normal 0.691767 0.722121 0
    outer loop
      vertex 1.6078 12.7877 4.6
      vertex 1.91731 12.4912 0.8
      vertex 1.6078 12.7877 0.8
    endloop
  endfacet
  facet normal 0.848707 0.528863 0
    outer loop
      vertex 2.1384 12.1364 4.6
      vertex 1.91731 12.4912 0.8
      vertex 1.91731 12.4912 4.6
    endloop
  endfacet
  facet normal 0.848707 0.528863 0
    outer loop
      vertex 1.91731 12.4912 0.8
      vertex 2.1384 12.1364 4.6
      vertex 2.1384 12.1364 0.8
    endloop
  endfacet
  facet normal 0.952081 0.305846 0
    outer loop
      vertex 2.27104 11.7235 4.6
      vertex 2.1384 12.1364 0.8
      vertex 2.1384 12.1364 4.6
    endloop
  endfacet
  facet normal 0.952081 0.305846 0
    outer loop
      vertex 2.1384 12.1364 0.8
      vertex 2.27104 11.7235 4.6
      vertex 2.27104 11.7235 0.8
    endloop
  endfacet
  facet normal 0.995622 0.0934743 0
    outer loop
      vertex 2.31526 11.2525 4.6
      vertex 2.27104 11.7235 0.8
      vertex 2.27104 11.7235 4.6
    endloop
  endfacet
  facet normal 0.995622 0.0934743 0
    outer loop
      vertex 2.27104 11.7235 0.8
      vertex 2.31526 11.2525 4.6
      vertex 2.31526 11.2525 0.8
    endloop
  endfacet
  facet normal 0.995661 -0.0930529 0
    outer loop
      vertex 2.2724 10.7939 4.6
      vertex 2.31526 11.2525 0.8
      vertex 2.31526 11.2525 4.6
    endloop
  endfacet
  facet normal 0.995661 -0.0930529 0
    outer loop
      vertex 2.31526 11.2525 0.8
      vertex 2.2724 10.7939 4.6
      vertex 2.2724 10.7939 0.8
    endloop
  endfacet
  facet normal 0.952341 -0.305034 0
    outer loop
      vertex 2.1438 10.3924 4.6
      vertex 2.2724 10.7939 0.8
      vertex 2.2724 10.7939 4.6
    endloop
  endfacet
  facet normal 0.952341 -0.305034 0
    outer loop
      vertex 2.2724 10.7939 0.8
      vertex 2.1438 10.3924 4.6
      vertex 2.1438 10.3924 0.8
    endloop
  endfacet
  facet normal 0.849038 -0.528332 0
    outer loop
      vertex 1.92949 10.048 4.6
      vertex 2.1438 10.3924 0.8
      vertex 2.1438 10.3924 4.6
    endloop
  endfacet
  facet normal 0.849038 -0.528332 0
    outer loop
      vertex 2.1438 10.3924 0.8
      vertex 1.92949 10.048 4.6
      vertex 1.92949 10.048 0.8
    endloop
  endfacet
  facet normal 0.691682 -0.722202 0
    outer loop
      vertex 1.62944 9.76063 0.8
      vertex 1.92949 10.048 4.6
      vertex 1.62944 9.76063 4.6
    endloop
  endfacet
  facet normal 0.691682 -0.722202 0
    outer loop
      vertex 1.92949 10.048 4.6
      vertex 1.62944 9.76063 0.8
      vertex 1.92949 10.048 0.8
    endloop
  endfacet
  facet normal 0.511026 -0.859565 0
    outer loop
      vertex 1.24861 9.53422 0.8
      vertex 1.62944 9.76063 4.6
      vertex 1.24861 9.53422 4.6
    endloop
  endfacet
  facet normal 0.511026 -0.859565 0
    outer loop
      vertex 1.62944 9.76063 4.6
      vertex 1.24861 9.53422 0.8
      vertex 1.62944 9.76063 0.8
    endloop
  endfacet
  facet normal 0.333732 -0.942668 0
    outer loop
      vertex 0.79184 9.37251 0.8
      vertex 1.24861 9.53422 4.6
      vertex 0.79184 9.37251 4.6
    endloop
  endfacet
  facet normal 0.333732 -0.942668 0
    outer loop
      vertex 1.24861 9.53422 4.6
      vertex 0.79184 9.37251 0.8
      vertex 1.24861 9.53422 0.8
    endloop
  endfacet
  facet normal 0.179189 -0.983815 0
    outer loop
      vertex 0.259109 9.27548 0.8
      vertex 0.79184 9.37251 4.6
      vertex 0.259109 9.27548 4.6
    endloop
  endfacet
  facet normal 0.179189 -0.983815 0
    outer loop
      vertex 0.79184 9.37251 4.6
      vertex 0.259109 9.27548 0.8
      vertex 0.79184 9.37251 0.8
    endloop
  endfacet
  facet normal 0.0530735 -0.998591 0
    outer loop
      vertex -0.349564 9.24313 0.8
      vertex 0.259109 9.27548 4.6
      vertex -0.349564 9.24313 4.6
    endloop
  endfacet
  facet normal 0.0530735 -0.998591 0
    outer loop
      vertex 0.259109 9.27548 4.6
      vertex -0.349564 9.24313 0.8
      vertex 0.259109 9.27548 0.8
    endloop
  endfacet
  facet normal 0 -1 0
    outer loop
      vertex -1.92934 9.24313 0.8
      vertex -0.349564 9.24313 4.6
      vertex -1.92934 9.24313 4.6
    endloop
  endfacet
  facet normal 0 -1 -0
    outer loop
      vertex -0.349564 9.24313 4.6
      vertex -1.92934 9.24313 0.8
      vertex -0.349564 9.24313 0.8
    endloop
  endfacet
  facet normal 1 -0 0
    outer loop
      vertex -1.92934 7.80134 4.6
      vertex -1.92934 9.24313 0.8
      vertex -1.92934 9.24313 4.6
    endloop
  endfacet
  facet normal 1 0 0
    outer loop
      vertex -1.92934 9.24313 0.8
      vertex -1.92934 7.80134 4.6
      vertex -1.92934 7.80134 0.8
    endloop
  endfacet
  facet normal 0 1 -0
    outer loop
      vertex -0.41893 7.80134 0.8
      vertex -1.92934 7.80134 4.6
      vertex -0.41893 7.80134 4.6
    endloop
  endfacet
  facet normal 0 1 0
    outer loop
      vertex -1.92934 7.80134 4.6
      vertex -0.41893 7.80134 0.8
      vertex -1.92934 7.80134 0.8
    endloop
  endfacet
  facet normal 0.0596064 0.998222 -0
    outer loop
      vertex 0.257812 7.76093 0.8
      vertex -0.41893 7.80134 4.6
      vertex 0.257812 7.76093 4.6
    endloop
  endfacet
  facet normal 0.0596064 0.998222 0
    outer loop
      vertex -0.41893 7.80134 4.6
      vertex 0.257812 7.76093 0.8
      vertex -0.41893 7.80134 0.8
    endloop
  endfacet
  facet normal 0.198657 0.980069 -0
    outer loop
      vertex 0.855896 7.6397 0.8
      vertex 0.257812 7.76093 4.6
      vertex 0.855896 7.6397 4.6
    endloop
  endfacet
  facet normal 0.198657 0.980069 0
    outer loop
      vertex 0.257812 7.76093 4.6
      vertex 0.855896 7.6397 0.8
      vertex 0.257812 7.76093 0.8
    endloop
  endfacet
  facet normal 0.362511 0.931979 -0
    outer loop
      vertex 1.37532 7.43766 0.8
      vertex 0.855896 7.6397 4.6
      vertex 1.37532 7.43766 4.6
    endloop
  endfacet
  facet normal 0.362511 0.931979 0
    outer loop
      vertex 0.855896 7.6397 4.6
      vertex 1.37532 7.43766 0.8
      vertex 0.855896 7.6397 0.8
    endloop
  endfacet
  facet normal 0.540105 0.841598 -0
    outer loop
      vertex 1.81606 7.15481 0.8
      vertex 1.37532 7.43766 4.6
      vertex 1.81606 7.15481 4.6
    endloop
  endfacet
  facet normal 0.540105 0.841598 0
    outer loop
      vertex 1.37532 7.43766 4.6
      vertex 1.81606 7.15481 0.8
      vertex 1.37532 7.43766 0.8
    endloop
  endfacet
  facet normal 0.710216 0.703984 0
    outer loop
      vertex 2.16734 6.80042 4.6
      vertex 1.81606 7.15481 0.8
      vertex 1.81606 7.15481 4.6
    endloop
  endfacet
  facet normal 0.710216 0.703984 0
    outer loop
      vertex 1.81606 7.15481 0.8
      vertex 2.16734 6.80042 4.6
      vertex 2.16734 6.80042 0.8
    endloop
  endfacet
  facet normal 0.856688 0.515834 0
    outer loop
      vertex 2.41827 6.38368 4.6
      vertex 2.16734 6.80042 0.8
      vertex 2.16734 6.80042 4.6
    endloop
  endfacet
  facet normal 0.856688 0.515834 0
    outer loop
      vertex 2.16734 6.80042 0.8
      vertex 2.41827 6.38368 4.6
      vertex 2.41827 6.38368 0.8
    endloop
  endfacet
  facet normal 0.954013 0.299766 0
    outer loop
      vertex 2.56882 5.90455 4.6
      vertex 2.41827 6.38368 0.8
      vertex 2.41827 6.38368 4.6
    endloop
  endfacet
  facet normal 0.954013 0.299766 0
    outer loop
      vertex 2.41827 6.38368 0.8
      vertex 2.56882 5.90455 4.6
      vertex 2.56882 5.90455 0.8
    endloop
  endfacet
  facet normal 0.995734 0.0922749 0
    outer loop
      vertex 2.619 5.36306 4.6
      vertex 2.56882 5.90455 0.8
      vertex 2.56882 5.90455 4.6
    endloop
  endfacet
  facet normal 0.995734 0.0922749 0
    outer loop
      vertex 2.56882 5.90455 0.8
      vertex 2.619 5.36306 4.6
      vertex 2.619 5.36306 0.8
    endloop
  endfacet
  facet normal 0.995749 -0.0921111 0
    outer loop
      vertex 2.56502 4.77952 4.6
      vertex 2.619 5.36306 0.8
      vertex 2.619 5.36306 4.6
    endloop
  endfacet
  facet normal 0.995749 -0.0921111 0
    outer loop
      vertex 2.619 5.36306 0.8
      vertex 2.56502 4.77952 4.6
      vertex 2.56502 4.77952 0.8
    endloop
  endfacet
  facet normal 0.95306 -0.302781 0
    outer loop
      vertex 2.40306 4.26972 4.6
      vertex 2.56502 4.77952 0.8
      vertex 2.56502 4.77952 4.6
    endloop
  endfacet
  facet normal 0.95306 -0.302781 0
    outer loop
      vertex 2.56502 4.77952 0.8
      vertex 2.40306 4.26972 4.6
      vertex 2.40306 4.26972 0.8
    endloop
  endfacet
  facet normal 0.850293 -0.52631 0
    outer loop
      vertex 2.13315 3.83366 4.6
      vertex 2.40306 4.26972 0.8
      vertex 2.40306 4.26972 4.6
    endloop
  endfacet
  facet normal 0.850293 -0.52631 0
    outer loop
      vertex 2.40306 4.26972 0.8
      vertex 2.13315 3.83366 4.6
      vertex 2.13315 3.83366 0.8
    endloop
  endfacet
  facet normal 0.69207 -0.72183 0
    outer loop
      vertex 1.75526 3.47135 0.8
      vertex 2.13315 3.83366 4.6
      vertex 1.75526 3.47135 4.6
    endloop
  endfacet
  facet normal 0.69207 -0.72183 0
    outer loop
      vertex 2.13315 3.83366 4.6
      vertex 1.75526 3.47135 0.8
      vertex 2.13315 3.83366 0.8
    endloop
  endfacet
  facet normal 0.509427 -0.860514 0
    outer loop
      vertex 1.27435 3.18665 0.8
      vertex 1.75526 3.47135 4.6
      vertex 1.27435 3.18665 4.6
    endloop
  endfacet
  facet normal 0.509427 -0.860514 0
    outer loop
      vertex 1.75526 3.47135 4.6
      vertex 1.27435 3.18665 0.8
      vertex 1.75526 3.47135 0.8
    endloop
  endfacet
  facet normal 0.331353 -0.943507 0
    outer loop
      vertex 0.695267 2.98328 0.8
      vertex 1.27435 3.18665 4.6
      vertex 0.695267 2.98328 4.6
    endloop
  endfacet
  facet normal 0.331353 -0.943507 0
    outer loop
      vertex 1.27435 3.18665 4.6
      vertex 0.695267 2.98328 0.8
      vertex 1.27435 3.18665 0.8
    endloop
  endfacet
  facet normal 0.177276 -0.984161 0
    outer loop
      vertex 0.0179749 2.86128 0.8
      vertex 0.695267 2.98328 4.6
      vertex 0.0179749 2.86128 4.6
    endloop
  endfacet
  facet normal 0.177276 -0.984161 0
    outer loop
      vertex 0.695267 2.98328 4.6
      vertex 0.0179749 2.86128 0.8
      vertex 0.695267 2.98328 0.8
    endloop
  endfacet
  facet normal 0.0523867 -0.998627 0
    outer loop
      vertex -0.757492 2.8206 0.8
      vertex 0.0179749 2.86128 4.6
      vertex -0.757492 2.8206 4.6
    endloop
  endfacet
  facet normal 0.0523867 -0.998627 0
    outer loop
      vertex 0.0179749 2.86128 4.6
      vertex -0.757492 2.8206 0.8
      vertex 0.0179749 2.86128 0.8
    endloop
  endfacet
  facet normal -0.0289951 -0.99958 0
    outer loop
      vertex -1.22565 2.83418 0.8
      vertex -0.757492 2.8206 4.6
      vertex -1.22565 2.83418 4.6
    endloop
  endfacet
  facet normal -0.0289951 -0.99958 -0
    outer loop
      vertex -0.757492 2.8206 4.6
      vertex -1.22565 2.83418 0.8
      vertex -0.757492 2.8206 0.8
    endloop
  endfacet
  facet normal -0.0884823 -0.996078 0
    outer loop
      vertex -1.68405 2.8749 0.8
      vertex -1.22565 2.83418 4.6
      vertex -1.68405 2.8749 4.6
    endloop
  endfacet
  facet normal -0.0884823 -0.996078 -0
    outer loop
      vertex -1.22565 2.83418 4.6
      vertex -1.68405 2.8749 0.8
      vertex -1.22565 2.83418 0.8
    endloop
  endfacet
  facet normal -0.149611 -0.988745 0
    outer loop
      vertex -2.13272 2.94279 0.8
      vertex -1.68405 2.8749 4.6
      vertex -2.13272 2.94279 4.6
    endloop
  endfacet
  facet normal -0.149611 -0.988745 -0
    outer loop
      vertex -1.68405 2.8749 4.6
      vertex -2.13272 2.94279 0.8
      vertex -1.68405 2.8749 0.8
    endloop
  endfacet
  facet normal -0.211606 -0.977355 0
    outer loop
      vertex -2.57164 3.03782 0.8
      vertex -2.13272 2.94279 4.6
      vertex -2.57164 3.03782 4.6
    endloop
  endfacet
  facet normal -0.211606 -0.977355 -0
    outer loop
      vertex -2.13272 2.94279 4.6
      vertex -2.57164 3.03782 0.8
      vertex -2.13272 2.94279 0.8
    endloop
  endfacet
  facet normal -0.274978 -0.961451 0
    outer loop
      vertex -2.99695 3.15946 0.8
      vertex -2.57164 3.03782 4.6
      vertex -2.99695 3.15946 4.6
    endloop
  endfacet
  facet normal -0.274978 -0.961451 -0
    outer loop
      vertex -2.57164 3.03782 4.6
      vertex -2.99695 3.15946 0.8
      vertex -2.57164 3.03782 0.8
    endloop
  endfacet
  facet normal -0.340416 -0.940275 0
    outer loop
      vertex -3.40489 3.30715 0.8
      vertex -2.99695 3.15946 4.6
      vertex -3.40489 3.30715 4.6
    endloop
  endfacet
  facet normal -0.340416 -0.940275 -0
    outer loop
      vertex -2.99695 3.15946 4.6
      vertex -3.40489 3.30715 0.8
      vertex -2.99695 3.15946 0.8
    endloop
  endfacet
  facet normal -0.406527 -0.913639 0
    outer loop
      vertex -3.79547 3.48094 0.8
      vertex -3.40489 3.30715 4.6
      vertex -3.79547 3.48094 4.6
    endloop
  endfacet
  facet normal -0.406527 -0.913639 -0
    outer loop
      vertex -3.40489 3.30715 4.6
      vertex -3.79547 3.48094 0.8
      vertex -3.40489 3.30715 0.8
    endloop
  endfacet
  facet normal -0.472002 -0.881597 0
    outer loop
      vertex -4.16869 3.68076 0.8
      vertex -3.79547 3.48094 4.6
      vertex -4.16869 3.68076 4.6
    endloop
  endfacet
  facet normal -0.472002 -0.881597 -0
    outer loop
      vertex -3.79547 3.48094 4.6
      vertex -4.16869 3.68076 0.8
      vertex -3.79547 3.48094 0.8
    endloop
  endfacet
  facet normal 1 -0 0
    outer loop
      vertex -4.16869 1.98501 4.6
      vertex -4.16869 3.68076 0.8
      vertex -4.16869 3.68076 4.6
    endloop
  endfacet
  facet normal 1 0 0
    outer loop
      vertex -4.16869 3.68076 0.8
      vertex -4.16869 1.98501 4.6
      vertex -4.16869 1.98501 0.8
    endloop
  endfacet
  facet normal 0.311697 0.950182 -0
    outer loop
      vertex -3.71219 1.83526 0.8
      vertex -4.16869 1.98501 4.6
      vertex -3.71219 1.83526 4.6
    endloop
  endfacet
  facet normal 0.311697 0.950182 0
    outer loop
      vertex -4.16869 1.98501 4.6
      vertex -3.71219 1.83526 0.8
      vertex -4.16869 1.98501 0.8
    endloop
  endfacet
  facet normal 0.277439 0.960743 -0
    outer loop
      vertex -3.26274 1.70547 0.8
      vertex -3.71219 1.83526 4.6
      vertex -3.26274 1.70547 4.6
    endloop
  endfacet
  facet normal 0.277439 0.960743 0
    outer loop
      vertex -3.71219 1.83526 4.6
      vertex -3.26274 1.70547 0.8
      vertex -3.71219 1.83526 0.8
    endloop
  endfacet
  facet normal 0.240925 0.970544 -0
    outer loop
      vertex -2.82034 1.59565 0.8
      vertex -3.26274 1.70547 4.6
      vertex -2.82034 1.59565 4.6
    endloop
  endfacet
  facet normal 0.240925 0.970544 0
    outer loop
      vertex -3.26274 1.70547 4.6
      vertex -2.82034 1.59565 0.8
      vertex -3.26274 1.70547 0.8
    endloop
  endfacet
  facet normal 0.202156 0.979353 -0
    outer loop
      vertex -2.38501 1.50579 0.8
      vertex -2.82034 1.59565 4.6
      vertex -2.38501 1.50579 4.6
    endloop
  endfacet
  facet normal 0.202156 0.979353 0
    outer loop
      vertex -2.82034 1.59565 4.6
      vertex -2.38501 1.50579 0.8
      vertex -2.82034 1.59565 0.8
    endloop
  endfacet
  facet normal 0.160815 0.986985 -0
    outer loop
      vertex -1.95613 1.43591 0.8
      vertex -2.38501 1.50579 4.6
      vertex -1.95613 1.43591 4.6
    endloop
  endfacet
  facet normal 0.160815 0.986985 0
    outer loop
      vertex -2.38501 1.50579 4.6
      vertex -1.95613 1.43591 0.8
      vertex -2.38501 1.50579 0.8
    endloop
  endfacet
  facet normal 0.117228 0.993105 -0
    outer loop
      vertex -1.53323 1.38599 0.8
      vertex -1.95613 1.43591 4.6
      vertex -1.53323 1.38599 4.6
    endloop
  endfacet
  facet normal 0.117228 0.993105 0
    outer loop
      vertex -1.95613 1.43591 4.6
      vertex -1.53323 1.38599 0.8
      vertex -1.95613 1.43591 0.8
    endloop
  endfacet
  facet normal 0.0716534 0.99743 -0
    outer loop
      vertex -1.11632 1.35604 0.8
      vertex -1.53323 1.38599 4.6
      vertex -1.11632 1.35604 4.6
    endloop
  endfacet
  facet normal 0.0716534 0.99743 0
    outer loop
      vertex -1.53323 1.38599 4.6
      vertex -1.11632 1.35604 0.8
      vertex -1.53323 1.38599 0.8
    endloop
  endfacet
  facet normal 0.0242797 0.999705 -0
    outer loop
      vertex -0.705399 1.34606 0.8
      vertex -1.11632 1.35604 4.6
      vertex -0.705399 1.34606 4.6
    endloop
  endfacet
  facet normal 0.0242797 0.999705 0
    outer loop
      vertex -1.11632 1.35604 4.6
      vertex -0.705399 1.34606 0.8
      vertex -1.11632 1.35604 0.8
    endloop
  endfacet
  facet normal -0.0571802 0.998364 0
    outer loop
      vertex 0.440323 1.41168 0.8
      vertex -0.705399 1.34606 4.6
      vertex 0.440323 1.41168 4.6
    endloop
  endfacet
  facet normal -0.0571802 0.998364 0
    outer loop
      vertex -0.705399 1.34606 4.6
      vertex 0.440323 1.41168 0.8
      vertex -0.705399 1.34606 0.8
    endloop
  endfacet
endsolid OpenSCAD_Model
