solid OpenSCAD_Model
  facet normal 0.587785 0.809017 -0
    outer loop
      vertex 24.7275 8.03444 0
      vertex 0 26 6
      vertex 24.7275 8.03444 6
    endloop
  endfacet
  facet normal 0.587785 0.809017 0
    outer loop
      vertex 0 26 6
      vertex 24.7275 8.03444 0
      vertex 0 26 0
    endloop
  endfacet
  facet normal 0 0 1
    outer loop
      vertex 0 26 6
      vertex 23.2058 7.54001 6
      vertex 24.7275 8.03444 6
    endloop
  endfacet
  facet normal 0 0 1
    outer loop
      vertex 0 26 6
      vertex 0 24.4 6
      vertex 23.2058 7.54001 6
    endloop
  endfacet
  facet normal 0 0 1
    outer loop
      vertex 0 26 6
      vertex -23.2058 7.54001 6
      vertex 0 24.4 6
    endloop
  endfacet
  facet normal 0 -0 1
    outer loop
      vertex -23.2058 7.54001 6
      vertex 0 26 6
      vertex -24.7275 8.03444 6
    endloop
  endfacet
  facet normal -0 0 1
    outer loop
      vertex 23.2058 7.54001 6
      vertex 15.2824 -21.0344 6
      vertex 24.7275 8.03444 6
    endloop
  endfacet
  facet normal -0 0 1
    outer loop
      vertex 14.342 -19.74 6
      vertex 15.2824 -21.0344 6
      vertex 23.2058 7.54001 6
    endloop
  endfacet
  facet normal -0 0 1
    outer loop
      vertex -14.342 -19.74 6
      vertex 15.2824 -21.0344 6
      vertex 14.342 -19.74 6
    endloop
  endfacet
  facet normal 0 0 1
    outer loop
      vertex -14.342 -19.74 6
      vertex -15.2824 -21.0344 6
      vertex 15.2824 -21.0344 6
    endloop
  endfacet
  facet normal 0 0 1
    outer loop
      vertex -23.2058 7.54001 6
      vertex -15.2824 -21.0344 6
      vertex -14.342 -19.74 6
    endloop
  endfacet
  facet normal 0 0 1
    outer loop
      vertex -15.2824 -21.0344 6
      vertex -23.2058 7.54001 6
      vertex -24.7275 8.03444 6
    endloop
  endfacet
  facet normal 0 0 -1
    outer loop
      vertex 15.2824 -21.0344 0
      vertex 0 26 0
      vertex 24.7275 8.03444 0
    endloop
  endfacet
  facet normal 0 0 -1
    outer loop
      vertex -15.2824 -21.0344 0
      vertex 0 26 0
      vertex 15.2824 -21.0344 0
    endloop
  endfacet
  facet normal 0 0 -1
    outer loop
      vertex 0 26 0
      vertex -15.2824 -21.0344 0
      vertex -24.7275 8.03444 0
    endloop
  endfacet
  facet normal -0.951056 -0.309019 0
    outer loop
      vertex -15.2824 -21.0344 0
      vertex -24.7275 8.03444 6
      vertex -24.7275 8.03444 0
    endloop
  endfacet
  facet normal -0.951056 -0.309019 0
    outer loop
      vertex -24.7275 8.03444 6
      vertex -15.2824 -21.0344 0
      vertex -15.2824 -21.0344 6
    endloop
  endfacet
  facet normal 0 -1 0
    outer loop
      vertex -15.2824 -21.0344 0
      vertex 15.2824 -21.0344 6
      vertex -15.2824 -21.0344 6
    endloop
  endfacet
  facet normal 0 -1 -0
    outer loop
      vertex 15.2824 -21.0344 6
      vertex -15.2824 -21.0344 0
      vertex 15.2824 -21.0344 0
    endloop
  endfacet
  facet normal 0.951056 -0.309019 0
    outer loop
      vertex 15.2824 -21.0344 6
      vertex 24.7275 8.03444 0
      vertex 24.7275 8.03444 6
    endloop
  endfacet
  facet normal 0.951056 -0.309019 0
    outer loop
      vertex 24.7275 8.03444 0
      vertex 15.2824 -21.0344 6
      vertex 15.2824 -21.0344 0
    endloop
  endfacet
  facet normal -0.587785 0.809017 0
    outer loop
      vertex 0 26 0
      vertex -24.7275 8.03444 6
      vertex 0 26 6
    endloop
  endfacet
  facet normal -0.587785 0.809017 0
    outer loop
      vertex -24.7275 8.03444 6
      vertex 0 26 0
      vertex -24.7275 8.03444 0
    endloop
  endfacet
  facet normal 0 1 -0
    outer loop
      vertex 14.342 -19.74 4.4
      vertex -14.342 -19.74 6
      vertex 14.342 -19.74 6
    endloop
  endfacet
  facet normal 0 1 0
    outer loop
      vertex -14.342 -19.74 6
      vertex 14.342 -19.74 4.4
      vertex -14.342 -19.74 4.4
    endloop
  endfacet
  facet normal -0.587785 -0.809017 0
    outer loop
      vertex 0 24.4 4.4
      vertex 23.2058 7.54001 6
      vertex 0 24.4 6
    endloop
  endfacet
  facet normal -0.587785 -0.809017 -0
    outer loop
      vertex 23.2058 7.54001 6
      vertex 0 24.4 4.4
      vertex 23.2058 7.54001 4.4
    endloop
  endfacet
  facet normal -0 0 1
    outer loop
      vertex -2.47421 9.9904 4.4
      vertex -0.0397034 2.75199 4.4
      vertex -0.0397034 10.4768 4.4
    endloop
  endfacet
  facet normal 0 0 1
    outer loop
      vertex -6.2 -1.5 4.4
      vertex -2.2776 2.75199 4.4
      vertex -2.47421 9.9904 4.4
    endloop
  endfacet
  facet normal 0 0 1
    outer loop
      vertex -0.0397034 2.75199 4.4
      vertex -2.47421 9.9904 4.4
      vertex -2.2776 2.75199 4.4
    endloop
  endfacet
  facet normal 0 0 1
    outer loop
      vertex 23.2058 7.54001 4.4
      vertex 6.2 -1.5 4.4
      vertex 14.342 -19.74 4.4
    endloop
  endfacet
  facet normal 0 0 1
    outer loop
      vertex 23.2058 7.54001 4.4
      vertex 3.55429 2.75199 4.4
      vertex 6.2 -1.5 4.4
    endloop
  endfacet
  facet normal 0 0 1
    outer loop
      vertex 23.2058 7.54001 4.4
      vertex 1.3165 11.7248 4.4
      vertex 3.55429 2.75199 4.4
    endloop
  endfacet
  facet normal 0 0 1
    outer loop
      vertex 0 24.4 4.4
      vertex 1.3165 11.7248 4.4
      vertex 23.2058 7.54001 4.4
    endloop
  endfacet
  facet normal 0 0 1
    outer loop
      vertex 0 24.4 4.4
      vertex -0.0533142 11.7248 4.4
      vertex 1.3165 11.7248 4.4
    endloop
  endfacet
  facet normal 0 0 1
    outer loop
      vertex 0 24.4 4.4
      vertex -2.47421 11.2384 4.4
      vertex -0.0533142 11.7248 4.4
    endloop
  endfacet
  facet normal 0 0 1
    outer loop
      vertex -23.2058 7.54001 4.4
      vertex -2.47421 9.9904 4.4
      vertex -2.47421 11.2384 4.4
    endloop
  endfacet
  facet normal 0 0 1
    outer loop
      vertex -23.2058 7.54001 4.4
      vertex -2.47421 11.2384 4.4
      vertex 0 24.4 4.4
    endloop
  endfacet
  facet normal 0 0 1
    outer loop
      vertex -6.2 -1.5 4.4
      vertex -14.342 -19.74 4.4
      vertex -6.2 -13.9 4.4
    endloop
  endfacet
  facet normal 0 0 1
    outer loop
      vertex -2.47421 9.9904 4.4
      vertex -23.2058 7.54001 4.4
      vertex -6.2 -1.5 4.4
    endloop
  endfacet
  facet normal 0 0 1
    outer loop
      vertex -6.2 -1.5 4.4
      vertex -23.2058 7.54001 4.4
      vertex -14.342 -19.74 4.4
    endloop
  endfacet
  facet normal -0 0 1
    outer loop
      vertex 6.2 -13.9 4.4
      vertex 14.342 -19.74 4.4
      vertex 6.2 -1.5 4.4
    endloop
  endfacet
  facet normal -0 0 1
    outer loop
      vertex -6.2 -13.9 4.4
      vertex 14.342 -19.74 4.4
      vertex 6.2 -13.9 4.4
    endloop
  endfacet
  facet normal 0 0 1
    outer loop
      vertex 14.342 -19.74 4.4
      vertex -6.2 -13.9 4.4
      vertex -14.342 -19.74 4.4
    endloop
  endfacet
  facet normal -0 0 1
    outer loop
      vertex 3.55429 1.6 4.4
      vertex 6.2 -1.5 4.4
      vertex 3.55429 2.75199 4.4
    endloop
  endfacet
  facet normal -0 0 1
    outer loop
      vertex -2.2776 1.6 4.4
      vertex 6.2 -1.5 4.4
      vertex 3.55429 1.6 4.4
    endloop
  endfacet
  facet normal 0 0 1
    outer loop
      vertex -2.2776 1.6 4.4
      vertex -6.2 -1.5 4.4
      vertex 6.2 -1.5 4.4
    endloop
  endfacet
  facet normal 0 0 1
    outer loop
      vertex -2.2776 2.75199 4.4
      vertex -6.2 -1.5 4.4
      vertex -2.2776 1.6 4.4
    endloop
  endfacet
  facet normal 0 0 1
    outer loop
      vertex 3.55429 2.75199 4.4
      vertex 1.3165 11.7248 4.4
      vertex 1.3165 2.75199 4.4
    endloop
  endfacet
  facet normal 0.951057 0.309017 0
    outer loop
      vertex -14.342 -19.74 6
      vertex -23.2058 7.54001 4.4
      vertex -23.2058 7.54001 6
    endloop
  endfacet
  facet normal 0.951057 0.309017 0
    outer loop
      vertex -23.2058 7.54001 4.4
      vertex -14.342 -19.74 6
      vertex -14.342 -19.74 4.4
    endloop
  endfacet
  facet normal -0.951057 0.309017 0
    outer loop
      vertex 14.342 -19.74 4.4
      vertex 23.2058 7.54001 6
      vertex 23.2058 7.54001 4.4
    endloop
  endfacet
  facet normal -0.951057 0.309017 0
    outer loop
      vertex 23.2058 7.54001 6
      vertex 14.342 -19.74 4.4
      vertex 14.342 -19.74 6
    endloop
  endfacet
  facet normal 0.587785 -0.809017 0
    outer loop
      vertex -23.2058 7.54001 4.4
      vertex 0 24.4 6
      vertex -23.2058 7.54001 6
    endloop
  endfacet
  facet normal 0.587785 -0.809017 0
    outer loop
      vertex 0 24.4 6
      vertex -23.2058 7.54001 4.4
      vertex 0 24.4 4.4
    endloop
  endfacet
  facet normal -0 0 1
    outer loop
      vertex -6.2 -1.5 0.8
      vertex 6.2 -13.9 0.8
      vertex 6.2 -1.5 0.8
    endloop
  endfacet
  facet normal 0 0 1
    outer loop
      vertex 6.2 -13.9 0.8
      vertex -6.2 -1.5 0.8
      vertex -6.2 -13.9 0.8
    endloop
  endfacet
  facet normal 1 -0 0
    outer loop
      vertex -6.2 -13.9 4.4
      vertex -6.2 -1.5 0.8
      vertex -6.2 -1.5 4.4
    endloop
  endfacet
  facet normal 1 0 0
    outer loop
      vertex -6.2 -1.5 0.8
      vertex -6.2 -13.9 4.4
      vertex -6.2 -13.9 0.8
    endloop
  endfacet
  facet normal 0 -1 0
    outer loop
      vertex -6.2 -1.5 0.8
      vertex 6.2 -1.5 4.4
      vertex -6.2 -1.5 4.4
    endloop
  endfacet
  facet normal 0 -1 -0
    outer loop
      vertex 6.2 -1.5 4.4
      vertex -6.2 -1.5 0.8
      vertex 6.2 -1.5 0.8
    endloop
  endfacet
  facet normal -1 0 0
    outer loop
      vertex 6.2 -13.9 0.8
      vertex 6.2 -1.5 4.4
      vertex 6.2 -1.5 0.8
    endloop
  endfacet
  facet normal -1 -0 0
    outer loop
      vertex 6.2 -1.5 4.4
      vertex 6.2 -13.9 0.8
      vertex 6.2 -13.9 4.4
    endloop
  endfacet
  facet normal 0 1 -0
    outer loop
      vertex 6.2 -13.9 0.8
      vertex -6.2 -13.9 4.4
      vertex 6.2 -13.9 4.4
    endloop
  endfacet
  facet normal 0 1 0
    outer loop
      vertex -6.2 -13.9 4.4
      vertex 6.2 -13.9 0.8
      vertex -6.2 -13.9 0.8
    endloop
  endfacet
  facet normal 0 0 1
    outer loop
      vertex 1.3165 11.7248 0.8
      vertex -0.0397034 10.4768 0.8
      vertex 1.3165 2.75199 0.8
    endloop
  endfacet
  facet normal -0 0 1
    outer loop
      vertex -0.0533142 11.7248 0.8
      vertex -0.0397034 10.4768 0.8
      vertex 1.3165 11.7248 0.8
    endloop
  endfacet
  facet normal -0 0 1
    outer loop
      vertex -2.47421 11.2384 0.8
      vertex -0.0397034 10.4768 0.8
      vertex -0.0533142 11.7248 0.8
    endloop
  endfacet
  facet normal 0 0 1
    outer loop
      vertex -0.0397034 10.4768 0.8
      vertex -2.47421 11.2384 0.8
      vertex -2.47421 9.9904 0.8
    endloop
  endfacet
  facet normal -0 0 1
    outer loop
      vertex 1.3165 2.75199 0.8
      vertex 3.55429 1.6 0.8
      vertex 3.55429 2.75199 0.8
    endloop
  endfacet
  facet normal 0 0 1
    outer loop
      vertex -0.0397034 2.75199 0.8
      vertex 1.3165 2.75199 0.8
      vertex -0.0397034 10.4768 0.8
    endloop
  endfacet
  facet normal -0 0 1
    outer loop
      vertex -0.0397034 2.75199 0.8
      vertex 3.55429 1.6 0.8
      vertex 1.3165 2.75199 0.8
    endloop
  endfacet
  facet normal 0 0 1
    outer loop
      vertex -2.2776 1.6 0.8
      vertex -0.0397034 2.75199 0.8
      vertex -2.2776 2.75199 0.8
    endloop
  endfacet
  facet normal 0 0 1
    outer loop
      vertex -0.0397034 2.75199 0.8
      vertex -2.2776 1.6 0.8
      vertex 3.55429 1.6 0.8
    endloop
  endfacet
  facet normal 0 -1 0
    outer loop
      vertex 1.3165 2.75199 0.8
      vertex 3.55429 2.75199 4.4
      vertex 1.3165 2.75199 4.4
    endloop
  endfacet
  facet normal 0 -1 -0
    outer loop
      vertex 3.55429 2.75199 4.4
      vertex 1.3165 2.75199 0.8
      vertex 3.55429 2.75199 0.8
    endloop
  endfacet
  facet normal -1 0 0
    outer loop
      vertex 1.3165 2.75199 0.8
      vertex 1.3165 11.7248 4.4
      vertex 1.3165 11.7248 0.8
    endloop
  endfacet
  facet normal -1 -0 0
    outer loop
      vertex 1.3165 11.7248 4.4
      vertex 1.3165 2.75199 0.8
      vertex 1.3165 2.75199 4.4
    endloop
  endfacet
  facet normal 0 -1 0
    outer loop
      vertex -0.0533142 11.7248 0.8
      vertex 1.3165 11.7248 4.4
      vertex -0.0533142 11.7248 4.4
    endloop
  endfacet
  facet normal 0 -1 -0
    outer loop
      vertex 1.3165 11.7248 4.4
      vertex -0.0533142 11.7248 0.8
      vertex 1.3165 11.7248 0.8
    endloop
  endfacet
  facet normal 0.196981 -0.980407 0
    outer loop
      vertex -2.47421 11.2384 0.8
      vertex -0.0533142 11.7248 4.4
      vertex -2.47421 11.2384 4.4
    endloop
  endfacet
  facet normal 0.196981 -0.980407 0
    outer loop
      vertex -0.0533142 11.7248 4.4
      vertex -2.47421 11.2384 0.8
      vertex -0.0533142 11.7248 0.8
    endloop
  endfacet
  facet normal 1 -0 0
    outer loop
      vertex -2.47421 9.9904 4.4
      vertex -2.47421 11.2384 0.8
      vertex -2.47421 11.2384 4.4
    endloop
  endfacet
  facet normal 1 0 0
    outer loop
      vertex -2.47421 11.2384 0.8
      vertex -2.47421 9.9904 4.4
      vertex -2.47421 9.9904 0.8
    endloop
  endfacet
  facet normal -0.195922 0.980619 0
    outer loop
      vertex -0.0397034 10.4768 0.8
      vertex -2.47421 9.9904 4.4
      vertex -0.0397034 10.4768 4.4
    endloop
  endfacet
  facet normal -0.195922 0.980619 0
    outer loop
      vertex -2.47421 9.9904 4.4
      vertex -0.0397034 10.4768 0.8
      vertex -2.47421 9.9904 0.8
    endloop
  endfacet
  facet normal 1 -0 0
    outer loop
      vertex -0.0397034 2.75199 4.4
      vertex -0.0397034 10.4768 0.8
      vertex -0.0397034 10.4768 4.4
    endloop
  endfacet
  facet normal 1 0 0
    outer loop
      vertex -0.0397034 10.4768 0.8
      vertex -0.0397034 2.75199 4.4
      vertex -0.0397034 2.75199 0.8
    endloop
  endfacet
  facet normal 0 -1 0
    outer loop
      vertex -2.2776 2.75199 0.8
      vertex -0.0397034 2.75199 4.4
      vertex -2.2776 2.75199 4.4
    endloop
  endfacet
  facet normal 0 -1 -0
    outer loop
      vertex -0.0397034 2.75199 4.4
      vertex -2.2776 2.75199 0.8
      vertex -0.0397034 2.75199 0.8
    endloop
  endfacet
  facet normal 1 -0 0
    outer loop
      vertex -2.2776 1.6 4.4
      vertex -2.2776 2.75199 0.8
      vertex -2.2776 2.75199 4.4
    endloop
  endfacet
  facet normal 1 0 0
    outer loop
      vertex -2.2776 2.75199 0.8
      vertex -2.2776 1.6 4.4
      vertex -2.2776 1.6 0.8
    endloop
  endfacet
  facet normal 0 1 -0
    outer loop
      vertex 3.55429 1.6 0.8
      vertex -2.2776 1.6 4.4
      vertex 3.55429 1.6 4.4
    endloop
  endfacet
  facet normal 0 1 0
    outer loop
      vertex -2.2776 1.6 4.4
      vertex 3.55429 1.6 0.8
      vertex -2.2776 1.6 0.8
    endloop
  endfacet
  facet normal -1 0 0
    outer loop
      vertex 3.55429 1.6 0.8
      vertex 3.55429 2.75199 4.4
      vertex 3.55429 2.75199 0.8
    endloop
  endfacet
  facet normal -1 -0 0
    outer loop
      vertex 3.55429 2.75199 4.4
      vertex 3.55429 1.6 0.8
      vertex 3.55429 1.6 4.4
    endloop
  endfacet
endsolid OpenSCAD_Model
