solid OpenSCAD_Model
  facet normal 0.587785 0.809017 -0
    outer loop
      vertex 16.3582 5.31509 0
      vertex 0 17.2 3.7
      vertex 16.3582 5.31509 3.7
    endloop
  endfacet
  facet normal 0.587785 0.809017 0
    outer loop
      vertex 0 17.2 3.7
      vertex 16.3582 5.31509 0
      vertex 0 17.2 0
    endloop
  endfacet
  facet normal 0 0 1
    outer loop
      vertex 0 17.2 3.7
      vertex 14.8365 4.82066 3.7
      vertex 16.3582 5.31509 3.7
    endloop
  endfacet
  facet normal 0 0 1
    outer loop
      vertex 0 17.2 3.7
      vertex 0 15.6 3.7
      vertex 14.8365 4.82066 3.7
    endloop
  endfacet
  facet normal 0 0 1
    outer loop
      vertex 0 17.2 3.7
      vertex -14.8365 4.82066 3.7
      vertex 0 15.6 3.7
    endloop
  endfacet
  facet normal 0 -0 1
    outer loop
      vertex -14.8365 4.82066 3.7
      vertex 0 17.2 3.7
      vertex -16.3582 5.31509 3.7
    endloop
  endfacet
  facet normal -0 0 1
    outer loop
      vertex 14.8365 4.82066 3.7
      vertex 10.1099 -13.9151 3.7
      vertex 16.3582 5.31509 3.7
    endloop
  endfacet
  facet normal -0 0 1
    outer loop
      vertex 9.16945 -12.6207 3.7
      vertex 10.1099 -13.9151 3.7
      vertex 14.8365 4.82066 3.7
    endloop
  endfacet
  facet normal -0 0 1
    outer loop
      vertex -9.16945 -12.6207 3.7
      vertex 10.1099 -13.9151 3.7
      vertex 9.16945 -12.6207 3.7
    endloop
  endfacet
  facet normal 0 0 1
    outer loop
      vertex -9.16945 -12.6207 3.7
      vertex -10.1099 -13.9151 3.7
      vertex 10.1099 -13.9151 3.7
    endloop
  endfacet
  facet normal 0 0 1
    outer loop
      vertex -14.8365 4.82066 3.7
      vertex -10.1099 -13.9151 3.7
      vertex -9.16945 -12.6207 3.7
    endloop
  endfacet
  facet normal 0 0 1
    outer loop
      vertex -10.1099 -13.9151 3.7
      vertex -14.8365 4.82066 3.7
      vertex -16.3582 5.31509 3.7
    endloop
  endfacet
  facet normal 0 0 -1
    outer loop
      vertex 10.1099 -13.9151 0
      vertex 0 17.2 0
      vertex 16.3582 5.31509 0
    endloop
  endfacet
  facet normal 0 0 -1
    outer loop
      vertex -10.1099 -13.9151 0
      vertex 0 17.2 0
      vertex 10.1099 -13.9151 0
    endloop
  endfacet
  facet normal 0 0 -1
    outer loop
      vertex 0 17.2 0
      vertex -10.1099 -13.9151 0
      vertex -16.3582 5.31509 0
    endloop
  endfacet
  facet normal -0.951056 -0.309018 0
    outer loop
      vertex -10.1099 -13.9151 0
      vertex -16.3582 5.31509 3.7
      vertex -16.3582 5.31509 0
    endloop
  endfacet
  facet normal -0.951056 -0.309018 0
    outer loop
      vertex -16.3582 5.31509 3.7
      vertex -10.1099 -13.9151 0
      vertex -10.1099 -13.9151 3.7
    endloop
  endfacet
  facet normal 0 -1 0
    outer loop
      vertex -10.1099 -13.9151 0
      vertex 10.1099 -13.9151 3.7
      vertex -10.1099 -13.9151 3.7
    endloop
  endfacet
  facet normal 0 -1 -0
    outer loop
      vertex 10.1099 -13.9151 3.7
      vertex -10.1099 -13.9151 0
      vertex 10.1099 -13.9151 0
    endloop
  endfacet
  facet normal 0.951056 -0.309018 0
    outer loop
      vertex 10.1099 -13.9151 3.7
      vertex 16.3582 5.31509 0
      vertex 16.3582 5.31509 3.7
    endloop
  endfacet
  facet normal 0.951056 -0.309018 0
    outer loop
      vertex 16.3582 5.31509 0
      vertex 10.1099 -13.9151 3.7
      vertex 10.1099 -13.9151 0
    endloop
  endfacet
  facet normal -0.587785 0.809017 0
    outer loop
      vertex 0 17.2 0
      vertex -16.3582 5.31509 3.7
      vertex 0 17.2 3.7
    endloop
  endfacet
  facet normal -0.587785 0.809017 0
    outer loop
      vertex -16.3582 5.31509 3.7
      vertex 0 17.2 0
      vertex -16.3582 5.31509 0
    endloop
  endfacet
  facet normal 0 1 -0
    outer loop
      vertex 9.16945 -12.6207 2.1
      vertex -9.16945 -12.6207 3.7
      vertex 9.16945 -12.6207 3.7
    endloop
  endfacet
  facet normal 0 1 0
    outer loop
      vertex -9.16945 -12.6207 3.7
      vertex 9.16945 -12.6207 2.1
      vertex -9.16945 -12.6207 2.1
    endloop
  endfacet
  facet normal -0.587785 -0.809017 0
    outer loop
      vertex 0 15.6 2.1
      vertex 14.8365 4.82066 3.7
      vertex 0 15.6 3.7
    endloop
  endfacet
  facet normal -0.587785 -0.809017 -0
    outer loop
      vertex 14.8365 4.82066 3.7
      vertex 0 15.6 2.1
      vertex 14.8365 4.82066 2.1
    endloop
  endfacet
  facet normal 0 0 1
    outer loop
      vertex 14.8365 4.82066 2.1
      vertex 5.73333 7.1 2.1
      vertex 9.6 -1.4 2.1
    endloop
  endfacet
  facet normal 0 0 1
    outer loop
      vertex 14.8365 4.82066 2.1
      vertex 2.86667 12.0652 2.1
      vertex 5.73333 7.1 2.1
    endloop
  endfacet
  facet normal 0 0 1
    outer loop
      vertex 0 15.6 2.1
      vertex 2.86667 12.0652 2.1
      vertex 14.8365 4.82066 2.1
    endloop
  endfacet
  facet normal 0 0 1
    outer loop
      vertex 0 15.6 2.1
      vertex -2.86667 12.0652 2.1
      vertex 2.86667 12.0652 2.1
    endloop
  endfacet
  facet normal 0 0 1
    outer loop
      vertex -9.6 -1.4 2.1
      vertex -14.8365 4.82066 2.1
      vertex -9.6 -9.6 2.1
    endloop
  endfacet
  facet normal 0 0 1
    outer loop
      vertex -5.73333 7.1 2.1
      vertex -14.8365 4.82066 2.1
      vertex -9.6 -1.4 2.1
    endloop
  endfacet
  facet normal 0 0 1
    outer loop
      vertex -2.86667 12.0652 2.1
      vertex -14.8365 4.82066 2.1
      vertex -5.73333 7.1 2.1
    endloop
  endfacet
  facet normal 0 0 1
    outer loop
      vertex -14.8365 4.82066 2.1
      vertex -2.86667 12.0652 2.1
      vertex 0 15.6 2.1
    endloop
  endfacet
  facet normal 0 0 1
    outer loop
      vertex 9.6 -9.6 2.1
      vertex 14.8365 4.82066 2.1
      vertex 9.6 -1.4 2.1
    endloop
  endfacet
  facet normal -0 0 1
    outer loop
      vertex 9.6 -9.6 2.1
      vertex 9.16945 -12.6207 2.1
      vertex 14.8365 4.82066 2.1
    endloop
  endfacet
  facet normal -0 0 1
    outer loop
      vertex 1.4 -9.6 2.1
      vertex 9.16945 -12.6207 2.1
      vertex 9.6 -9.6 2.1
    endloop
  endfacet
  facet normal 0 0 1
    outer loop
      vertex -1.4 -9.6 2.1
      vertex 1.4 -9.6 2.1
      vertex -1.4 -1.4 2.1
    endloop
  endfacet
  facet normal -0 0 1
    outer loop
      vertex -1.4 -9.6 2.1
      vertex 9.16945 -12.6207 2.1
      vertex 1.4 -9.6 2.1
    endloop
  endfacet
  facet normal 0 0 1
    outer loop
      vertex -1.4 -9.6 2.1
      vertex -9.16945 -12.6207 2.1
      vertex 9.16945 -12.6207 2.1
    endloop
  endfacet
  facet normal -0 0 1
    outer loop
      vertex -9.6 -9.6 2.1
      vertex -9.16945 -12.6207 2.1
      vertex -1.4 -9.6 2.1
    endloop
  endfacet
  facet normal 0 0 1
    outer loop
      vertex -9.16945 -12.6207 2.1
      vertex -9.6 -9.6 2.1
      vertex -14.8365 4.82066 2.1
    endloop
  endfacet
  facet normal -0 0 1
    outer loop
      vertex 2.86667 2.13479 2.1
      vertex 9.6 -1.4 2.1
      vertex 5.73333 7.1 2.1
    endloop
  endfacet
  facet normal 0 0 1
    outer loop
      vertex 2.86667 2.13479 2.1
      vertex 1.4 -1.4 2.1
      vertex 9.6 -1.4 2.1
    endloop
  endfacet
  facet normal 0 0 1
    outer loop
      vertex 1.4 -1.4 2.1
      vertex -1.4 -1.4 2.1
      vertex 1.4 -9.6 2.1
    endloop
  endfacet
  facet normal 0 0 1
    outer loop
      vertex 2.86667 2.13479 2.1
      vertex -1.4 -1.4 2.1
      vertex 1.4 -1.4 2.1
    endloop
  endfacet
  facet normal -0 0 1
    outer loop
      vertex -2.86667 2.13479 2.1
      vertex -1.4 -1.4 2.1
      vertex 2.86667 2.13479 2.1
    endloop
  endfacet
  facet normal 0 0 1
    outer loop
      vertex -9.6 -1.4 2.1
      vertex -2.86667 2.13479 2.1
      vertex -5.73333 7.1 2.1
    endloop
  endfacet
  facet normal 0 0 1
    outer loop
      vertex -2.86667 2.13479 2.1
      vertex -9.6 -1.4 2.1
      vertex -1.4 -1.4 2.1
    endloop
  endfacet
  facet normal 0.951056 0.309017 0
    outer loop
      vertex -9.16945 -12.6207 3.7
      vertex -14.8365 4.82066 2.1
      vertex -14.8365 4.82066 3.7
    endloop
  endfacet
  facet normal 0.951056 0.309017 0
    outer loop
      vertex -14.8365 4.82066 2.1
      vertex -9.16945 -12.6207 3.7
      vertex -9.16945 -12.6207 2.1
    endloop
  endfacet
  facet normal -0.951056 0.309017 0
    outer loop
      vertex 9.16945 -12.6207 2.1
      vertex 14.8365 4.82066 3.7
      vertex 14.8365 4.82066 2.1
    endloop
  endfacet
  facet normal -0.951056 0.309017 0
    outer loop
      vertex 14.8365 4.82066 3.7
      vertex 9.16945 -12.6207 2.1
      vertex 9.16945 -12.6207 3.7
    endloop
  endfacet
  facet normal 0.587785 -0.809017 0
    outer loop
      vertex -14.8365 4.82066 2.1
      vertex 0 15.6 3.7
      vertex -14.8365 4.82066 3.7
    endloop
  endfacet
  facet normal 0.587785 -0.809017 0
    outer loop
      vertex 0 15.6 3.7
      vertex -14.8365 4.82066 2.1
      vertex 0 15.6 2.1
    endloop
  endfacet
  facet normal -0 0 1
    outer loop
      vertex 1.4 -1.4 1
      vertex 9.6 -9.6 1
      vertex 9.6 -1.4 1
    endloop
  endfacet
  facet normal 0 0 1
    outer loop
      vertex 9.6 -9.6 1
      vertex 1.4 -1.4 1
      vertex 1.4 -9.6 1
    endloop
  endfacet
  facet normal 1 -0 0
    outer loop
      vertex 1.4 -9.6 2.1
      vertex 1.4 -1.4 1
      vertex 1.4 -1.4 2.1
    endloop
  endfacet
  facet normal 1 0 0
    outer loop
      vertex 1.4 -1.4 1
      vertex 1.4 -9.6 2.1
      vertex 1.4 -9.6 1
    endloop
  endfacet
  facet normal 0 -1 0
    outer loop
      vertex 1.4 -1.4 1
      vertex 9.6 -1.4 2.1
      vertex 1.4 -1.4 2.1
    endloop
  endfacet
  facet normal 0 -1 -0
    outer loop
      vertex 9.6 -1.4 2.1
      vertex 1.4 -1.4 1
      vertex 9.6 -1.4 1
    endloop
  endfacet
  facet normal -1 0 0
    outer loop
      vertex 9.6 -9.6 1
      vertex 9.6 -1.4 2.1
      vertex 9.6 -1.4 1
    endloop
  endfacet
  facet normal -1 -0 0
    outer loop
      vertex 9.6 -1.4 2.1
      vertex 9.6 -9.6 1
      vertex 9.6 -9.6 2.1
    endloop
  endfacet
  facet normal 0 1 -0
    outer loop
      vertex 9.6 -9.6 1
      vertex 1.4 -9.6 2.1
      vertex 9.6 -9.6 2.1
    endloop
  endfacet
  facet normal 0 1 0
    outer loop
      vertex 1.4 -9.6 2.1
      vertex 9.6 -9.6 1
      vertex 1.4 -9.6 1
    endloop
  endfacet
  facet normal -0 0 1
    outer loop
      vertex -9.6 -1.4 1
      vertex -1.4 -9.6 1
      vertex -1.4 -1.4 1
    endloop
  endfacet
  facet normal 0 0 1
    outer loop
      vertex -1.4 -9.6 1
      vertex -9.6 -1.4 1
      vertex -9.6 -9.6 1
    endloop
  endfacet
  facet normal 1 -0 0
    outer loop
      vertex -9.6 -9.6 2.1
      vertex -9.6 -1.4 1
      vertex -9.6 -1.4 2.1
    endloop
  endfacet
  facet normal 1 0 0
    outer loop
      vertex -9.6 -1.4 1
      vertex -9.6 -9.6 2.1
      vertex -9.6 -9.6 1
    endloop
  endfacet
  facet normal 0 -1 0
    outer loop
      vertex -9.6 -1.4 1
      vertex -1.4 -1.4 2.1
      vertex -9.6 -1.4 2.1
    endloop
  endfacet
  facet normal 0 -1 -0
    outer loop
      vertex -1.4 -1.4 2.1
      vertex -9.6 -1.4 1
      vertex -1.4 -1.4 1
    endloop
  endfacet
  facet normal -1 0 0
    outer loop
      vertex -1.4 -9.6 1
      vertex -1.4 -1.4 2.1
      vertex -1.4 -1.4 1
    endloop
  endfacet
  facet normal -1 -0 0
    outer loop
      vertex -1.4 -1.4 2.1
      vertex -1.4 -9.6 1
      vertex -1.4 -9.6 2.1
    endloop
  endfacet
  facet normal 0 1 -0
    outer loop
      vertex -1.4 -9.6 1
      vertex -9.6 -9.6 2.1
      vertex -1.4 -9.6 2.1
    endloop
  endfacet
  facet normal 0 1 0
    outer loop
      vertex -9.6 -9.6 2.1
      vertex -1.4 -9.6 1
      vertex -9.6 -9.6 1
    endloop
  endfacet
  facet normal 0 0 1
    outer loop
      vertex 2.86667 12.0652 1
      vertex 2.86667 2.13479 1
      vertex 5.73333 7.1 1
    endloop
  endfacet
  facet normal -0 0 1
    outer loop
      vertex -2.86667 12.0652 1
      vertex 2.86667 2.13479 1
      vertex 2.86667 12.0652 1
    endloop
  endfacet
  facet normal 0 0 1
    outer loop
      vertex -2.86667 12.0652 1
      vertex -2.86667 2.13479 1
      vertex 2.86667 2.13479 1
    endloop
  endfacet
  facet normal 0 -0 1
    outer loop
      vertex -2.86667 2.13479 1
      vertex -2.86667 12.0652 1
      vertex -5.73333 7.1 1
    endloop
  endfacet
  facet normal -0.866026 0.499999 0
    outer loop
      vertex 2.86667 2.13479 1
      vertex 5.73333 7.1 2.1
      vertex 5.73333 7.1 1
    endloop
  endfacet
  facet normal -0.866026 0.499999 0
    outer loop
      vertex 5.73333 7.1 2.1
      vertex 2.86667 2.13479 1
      vertex 2.86667 2.13479 2.1
    endloop
  endfacet
  facet normal 0.866026 0.499999 0
    outer loop
      vertex -2.86667 2.13479 2.1
      vertex -5.73333 7.1 1
      vertex -5.73333 7.1 2.1
    endloop
  endfacet
  facet normal 0.866026 0.499999 0
    outer loop
      vertex -5.73333 7.1 1
      vertex -2.86667 2.13479 2.1
      vertex -2.86667 2.13479 1
    endloop
  endfacet
  facet normal 0.866025 -0.5 0
    outer loop
      vertex -5.73333 7.1 2.1
      vertex -2.86667 12.0652 1
      vertex -2.86667 12.0652 2.1
    endloop
  endfacet
  facet normal 0.866025 -0.5 0
    outer loop
      vertex -2.86667 12.0652 1
      vertex -5.73333 7.1 2.1
      vertex -5.73333 7.1 1
    endloop
  endfacet
  facet normal 0 -1 0
    outer loop
      vertex -2.86667 12.0652 1
      vertex 2.86667 12.0652 2.1
      vertex -2.86667 12.0652 2.1
    endloop
  endfacet
  facet normal 0 -1 -0
    outer loop
      vertex 2.86667 12.0652 2.1
      vertex -2.86667 12.0652 1
      vertex 2.86667 12.0652 1
    endloop
  endfacet
  facet normal 0 1 -0
    outer loop
      vertex 2.86667 2.13479 1
      vertex -2.86667 2.13479 2.1
      vertex 2.86667 2.13479 2.1
    endloop
  endfacet
  facet normal 0 1 0
    outer loop
      vertex -2.86667 2.13479 2.1
      vertex 2.86667 2.13479 1
      vertex -2.86667 2.13479 1
    endloop
  endfacet
  facet normal -0.866025 -0.5 0
    outer loop
      vertex 5.73333 7.1 1
      vertex 2.86667 12.0652 2.1
      vertex 2.86667 12.0652 1
    endloop
  endfacet
  facet normal -0.866025 -0.5 0
    outer loop
      vertex 2.86667 12.0652 2.1
      vertex 5.73333 7.1 1
      vertex 5.73333 7.1 2.1
    endloop
  endfacet
endsolid OpenSCAD_Model
