solid OpenSCAD_Model
  facet normal 0.587786 0.809017 -0
    outer loop
      vertex 25.8687 8.40526 0
      vertex 0 27.2 6.2
      vertex 25.8687 8.40526 6.2
    endloop
  endfacet
  facet normal 0.587786 0.809017 0
    outer loop
      vertex 0 27.2 6.2
      vertex 25.8687 8.40526 0
      vertex 0 27.2 0
    endloop
  endfacet
  facet normal 0 0 1
    outer loop
      vertex 0 27.2 6.2
      vertex 24.347 7.91083 6.2
      vertex 25.8687 8.40526 6.2
    endloop
  endfacet
  facet normal 0 0 1
    outer loop
      vertex 0 27.2 6.2
      vertex 0 25.6 6.2
      vertex 24.347 7.91083 6.2
    endloop
  endfacet
  facet normal 0 0 1
    outer loop
      vertex 0 27.2 6.2
      vertex -24.347 7.91083 6.2
      vertex 0 25.6 6.2
    endloop
  endfacet
  facet normal 0 -0 1
    outer loop
      vertex -24.347 7.91083 6.2
      vertex 0 27.2 6.2
      vertex -25.8687 8.40526 6.2
    endloop
  endfacet
  facet normal -0 0 1
    outer loop
      vertex 24.347 7.91083 6.2
      vertex 15.9878 -22.0053 6.2
      vertex 25.8687 8.40526 6.2
    endloop
  endfacet
  facet normal -0 0 1
    outer loop
      vertex 15.0473 -20.7108 6.2
      vertex 15.9878 -22.0053 6.2
      vertex 24.347 7.91083 6.2
    endloop
  endfacet
  facet normal -0 0 1
    outer loop
      vertex -15.0473 -20.7108 6.2
      vertex 15.9878 -22.0053 6.2
      vertex 15.0473 -20.7108 6.2
    endloop
  endfacet
  facet normal 0 0 1
    outer loop
      vertex -15.0473 -20.7108 6.2
      vertex -15.9878 -22.0053 6.2
      vertex 15.9878 -22.0053 6.2
    endloop
  endfacet
  facet normal 0 0 1
    outer loop
      vertex -24.347 7.91083 6.2
      vertex -15.9878 -22.0053 6.2
      vertex -15.0473 -20.7108 6.2
    endloop
  endfacet
  facet normal 0 0 1
    outer loop
      vertex -15.9878 -22.0053 6.2
      vertex -24.347 7.91083 6.2
      vertex -25.8687 8.40526 6.2
    endloop
  endfacet
  facet normal 0 0 -1
    outer loop
      vertex 15.9878 -22.0053 0
      vertex 0 27.2 0
      vertex 25.8687 8.40526 0
    endloop
  endfacet
  facet normal 0 0 -1
    outer loop
      vertex -15.9878 -22.0053 0
      vertex 0 27.2 0
      vertex 15.9878 -22.0053 0
    endloop
  endfacet
  facet normal 0 0 -1
    outer loop
      vertex 0 27.2 0
      vertex -15.9878 -22.0053 0
      vertex -25.8687 8.40526 0
    endloop
  endfacet
  facet normal -0.951057 -0.309014 0
    outer loop
      vertex -15.9878 -22.0053 0
      vertex -25.8687 8.40526 6.2
      vertex -25.8687 8.40526 0
    endloop
  endfacet
  facet normal -0.951057 -0.309014 0
    outer loop
      vertex -25.8687 8.40526 6.2
      vertex -15.9878 -22.0053 0
      vertex -15.9878 -22.0053 6.2
    endloop
  endfacet
  facet normal 0 -1 0
    outer loop
      vertex -15.9878 -22.0053 0
      vertex 15.9878 -22.0053 6.2
      vertex -15.9878 -22.0053 6.2
    endloop
  endfacet
  facet normal 0 -1 -0
    outer loop
      vertex 15.9878 -22.0053 6.2
      vertex -15.9878 -22.0053 0
      vertex 15.9878 -22.0053 0
    endloop
  endfacet
  facet normal 0.951057 -0.309014 0
    outer loop
      vertex 15.9878 -22.0053 6.2
      vertex 25.8687 8.40526 0
      vertex 25.8687 8.40526 6.2
    endloop
  endfacet
  facet normal 0.951057 -0.309014 0
    outer loop
      vertex 25.8687 8.40526 0
      vertex 15.9878 -22.0053 6.2
      vertex 15.9878 -22.0053 0
    endloop
  endfacet
  facet normal -0.587786 0.809017 0
    outer loop
      vertex 0 27.2 0
      vertex -25.8687 8.40526 6.2
      vertex 0 27.2 6.2
    endloop
  endfacet
  facet normal -0.587786 0.809017 0
    outer loop
      vertex -25.8687 8.40526 6.2
      vertex 0 27.2 0
      vertex -25.8687 8.40526 0
    endloop
  endfacet
  facet normal -0.587786 -0.809016 0
    outer loop
      vertex 0 25.6 4.6
      vertex 24.347 7.91083 6.2
      vertex 0 25.6 6.2
    endloop
  endfacet
  facet normal -0.587786 -0.809016 -0
    outer loop
      vertex 24.347 7.91083 6.2
      vertex 0 25.6 4.6
      vertex 24.347 7.91083 4.6
    endloop
  endfacet
  facet normal 0 0 1
    outer loop
      vertex 24.347 7.91083 4.6
      vertex 6.6 -1.4 4.6
      vertex 15.0473 -20.7108 4.6
    endloop
  endfacet
  facet normal 0 0 1
    outer loop
      vertex 24.347 7.91083 4.6
      vertex 4.0078 3.07455 4.6
      vertex 6.6 -1.4 4.6
    endloop
  endfacet
  facet normal -0 0 1
    outer loop
      vertex 3.91971 10.7038 4.6
      vertex 24.347 7.91083 4.6
      vertex 3.93843 11.0981 4.6
    endloop
  endfacet
  facet normal 0 0 1
    outer loop
      vertex 24.347 7.91083 4.6
      vertex 3.86357 11.8981 4.6
      vertex 3.93843 11.0981 4.6
    endloop
  endfacet
  facet normal 0 0 1
    outer loop
      vertex 24.347 7.91083 4.6
      vertex 3.63898 12.6134 4.6
      vertex 3.86357 11.8981 4.6
    endloop
  endfacet
  facet normal 0 0 1
    outer loop
      vertex 24.347 7.91083 4.6
      vertex 3.26465 13.244 4.6
      vertex 3.63898 12.6134 4.6
    endloop
  endfacet
  facet normal 0 0 1
    outer loop
      vertex 0 25.6 4.6
      vertex 3.26465 13.244 4.6
      vertex 24.347 7.91083 4.6
    endloop
  endfacet
  facet normal 0 0 1
    outer loop
      vertex 3.26465 13.244 4.6
      vertex 0 25.6 4.6
      vertex 2.7406 13.7899 4.6
    endloop
  endfacet
  facet normal 0 0 1
    outer loop
      vertex 2.7406 13.7899 4.6
      vertex 0 25.6 4.6
      vertex 2.0907 14.2307 4.6
    endloop
  endfacet
  facet normal 0 0 1
    outer loop
      vertex 2.0907 14.2307 4.6
      vertex 0 25.6 4.6
      vertex 1.33878 14.5455 4.6
    endloop
  endfacet
  facet normal 0 0 1
    outer loop
      vertex 0 25.6 4.6
      vertex 0.484863 14.7343 4.6
      vertex 1.33878 14.5455 4.6
    endloop
  endfacet
  facet normal 0 0 1
    outer loop
      vertex 0 25.6 4.6
      vertex -0.471024 14.7973 4.6
      vertex 0.484863 14.7343 4.6
    endloop
  endfacet
  facet normal 0 0 1
    outer loop
      vertex 0 25.6 4.6
      vertex -0.862686 14.7837 4.6
      vertex -0.471024 14.7973 4.6
    endloop
  endfacet
  facet normal 0 0 1
    outer loop
      vertex 0 25.6 4.6
      vertex -1.27391 14.743 4.6
      vertex -0.862686 14.7837 4.6
    endloop
  endfacet
  facet normal 0 0 1
    outer loop
      vertex 0 25.6 4.6
      vertex -1.70468 14.6751 4.6
      vertex -1.27391 14.743 4.6
    endloop
  endfacet
  facet normal 0 0 1
    outer loop
      vertex 0 25.6 4.6
      vertex -2.155 14.5801 4.6
      vertex -1.70468 14.6751 4.6
    endloop
  endfacet
  facet normal 0 0 1
    outer loop
      vertex 0 25.6 4.6
      vertex -2.6237 14.4584 4.6
      vertex -2.155 14.5801 4.6
    endloop
  endfacet
  facet normal 0 0 1
    outer loop
      vertex 0 25.6 4.6
      vertex -3.10979 14.3107 4.6
      vertex -2.6237 14.4584 4.6
    endloop
  endfacet
  facet normal 0 0 1
    outer loop
      vertex 0 25.6 4.6
      vertex -3.61322 14.137 4.6
      vertex -3.10979 14.3107 4.6
    endloop
  endfacet
  facet normal 0 0 1
    outer loop
      vertex 0 25.6 4.6
      vertex -4.134 13.9371 4.6
      vertex -3.61322 14.137 4.6
    endloop
  endfacet
  facet normal 0 0 1
    outer loop
      vertex -24.347 7.91083 4.6
      vertex -4.134 12.1677 4.6
      vertex -4.134 13.9371 4.6
    endloop
  endfacet
  facet normal 0 0 1
    outer loop
      vertex -4.22079 3.07455 4.6
      vertex -6.6 -1.4 4.6
      vertex -4.22079 1.6 4.6
    endloop
  endfacet
  facet normal 0 0 1
    outer loop
      vertex -4.134 12.1677 4.6
      vertex -24.347 7.91083 4.6
      vertex -4.22079 3.07455 4.6
    endloop
  endfacet
  facet normal 0 0 1
    outer loop
      vertex -6.6 -1.4 4.6
      vertex -15.0473 -20.7108 4.6
      vertex -6.6 -14.6 4.6
    endloop
  endfacet
  facet normal 0 0 1
    outer loop
      vertex -4.22079 3.07455 4.6
      vertex -24.347 7.91083 4.6
      vertex -6.6 -1.4 4.6
    endloop
  endfacet
  facet normal 0 0 1
    outer loop
      vertex -6.6 -1.4 4.6
      vertex -24.347 7.91083 4.6
      vertex -15.0473 -20.7108 4.6
    endloop
  endfacet
  facet normal 0 0 1
    outer loop
      vertex -24.347 7.91083 4.6
      vertex -4.134 13.9371 4.6
      vertex 0 25.6 4.6
    endloop
  endfacet
  facet normal -0 0 1
    outer loop
      vertex 6.6 -14.6 4.6
      vertex 15.0473 -20.7108 4.6
      vertex 6.6 -1.4 4.6
    endloop
  endfacet
  facet normal -0 0 1
    outer loop
      vertex -6.6 -14.6 4.6
      vertex 15.0473 -20.7108 4.6
      vertex 6.6 -14.6 4.6
    endloop
  endfacet
  facet normal 0 0 1
    outer loop
      vertex 15.0473 -20.7108 4.6
      vertex -6.6 -14.6 4.6
      vertex -15.0473 -20.7108 4.6
    endloop
  endfacet
  facet normal -0 0 1
    outer loop
      vertex 4.0078 1.6 4.6
      vertex 6.6 -1.4 4.6
      vertex 4.0078 3.07455 4.6
    endloop
  endfacet
  facet normal 0 0 1
    outer loop
      vertex -6.6 -1.4 4.6
      vertex 4.0078 1.6 4.6
      vertex -4.22079 1.6 4.6
    endloop
  endfacet
  facet normal 0 0 1
    outer loop
      vertex 4.0078 1.6 4.6
      vertex -6.6 -1.4 4.6
      vertex 6.6 -1.4 4.6
    endloop
  endfacet
  facet normal -0 0 1
    outer loop
      vertex 3.86354 10.3199 4.6
      vertex 24.347 7.91083 4.6
      vertex 3.91971 10.7038 4.6
    endloop
  endfacet
  facet normal -0 0 1
    outer loop
      vertex 3.76994 9.94621 4.6
      vertex 24.347 7.91083 4.6
      vertex 3.86354 10.3199 4.6
    endloop
  endfacet
  facet normal 0 0 1
    outer loop
      vertex 24.347 7.91083 4.6
      vertex 3.76994 9.94621 4.6
      vertex 4.0078 3.07455 4.6
    endloop
  endfacet
  facet normal -0 0 1
    outer loop
      vertex 3.6389 9.58283 4.6
      vertex 4.0078 3.07455 4.6
      vertex 3.76994 9.94621 4.6
    endloop
  endfacet
  facet normal -0 0 1
    outer loop
      vertex 3.45856 9.20863 4.6
      vertex 4.0078 3.07455 4.6
      vertex 3.6389 9.58283 4.6
    endloop
  endfacet
  facet normal -0 0 1
    outer loop
      vertex 3.21689 8.80239 4.6
      vertex 4.0078 3.07455 4.6
      vertex 3.45856 9.20863 4.6
    endloop
  endfacet
  facet normal -0 0 1
    outer loop
      vertex 2.91391 8.36414 4.6
      vertex 4.0078 3.07455 4.6
      vertex 3.21689 8.80239 4.6
    endloop
  endfacet
  facet normal -0 0 1
    outer loop
      vertex 2.54962 7.89388 4.6
      vertex 4.0078 3.07455 4.6
      vertex 2.91391 8.36414 4.6
    endloop
  endfacet
  facet normal -0 0 1
    outer loop
      vertex 2.382 7.70857 4.6
      vertex 4.0078 3.07455 4.6
      vertex 2.54962 7.89388 4.6
    endloop
  endfacet
  facet normal -0 0 1
    outer loop
      vertex 2.09608 7.40438 4.6
      vertex 4.0078 3.07455 4.6
      vertex 2.382 7.70857 4.6
    endloop
  endfacet
  facet normal -0 0 1
    outer loop
      vertex 1.69189 6.98133 4.6
      vertex 4.0078 3.07455 4.6
      vertex 2.09608 7.40438 4.6
    endloop
  endfacet
  facet normal -0 0 1
    outer loop
      vertex 1.1694 6.43942 4.6
      vertex 4.0078 3.07455 4.6
      vertex 1.69189 6.98133 4.6
    endloop
  endfacet
  facet normal -0 0 1
    outer loop
      vertex 0.528168 5.7781 4.6
      vertex 4.0078 3.07455 4.6
      vertex 1.1694 6.43942 4.6
    endloop
  endfacet
  facet normal -0 0 1
    outer loop
      vertex -0.232407 4.99685 4.6
      vertex 4.0078 3.07455 4.6
      vertex 0.528168 5.7781 4.6
    endloop
  endfacet
  facet normal -0 0 1
    outer loop
      vertex -1.11234 4.09567 4.6
      vertex 4.0078 3.07455 4.6
      vertex -0.232407 4.99685 4.6
    endloop
  endfacet
  facet normal 0 0 1
    outer loop
      vertex 4.0078 3.07455 4.6
      vertex -1.11234 4.09567 4.6
      vertex -2.1116 3.07455 4.6
    endloop
  endfacet
  facet normal 0 0 1
    outer loop
      vertex 1.06175 12.9563 4.6
      vertex 2.17638 10.9865 4.6
      vertex 2.13107 11.4793 4.6
    endloop
  endfacet
  facet normal 0 0 1
    outer loop
      vertex 2.17638 10.9865 4.6
      vertex 1.06175 12.9563 4.6
      vertex 2.15549 10.6681 4.6
    endloop
  endfacet
  facet normal 0 0 1
    outer loop
      vertex 1.45152 12.6713 4.6
      vertex 2.13107 11.4793 4.6
      vertex 1.99516 11.9244 4.6
    endloop
  endfacet
  facet normal 0 0 1
    outer loop
      vertex 1.06175 12.9563 4.6
      vertex 2.13107 11.4793 4.6
      vertex 1.45152 12.6713 4.6
    endloop
  endfacet
  facet normal 0 0 1
    outer loop
      vertex 0.617188 13.1599 4.6
      vertex 2.15549 10.6681 4.6
      vertex 1.06175 12.9563 4.6
    endloop
  endfacet
  facet normal 0 0 1
    outer loop
      vertex 1.45152 12.6713 4.6
      vertex 1.99516 11.9244 4.6
      vertex 1.76865 12.3218 4.6
    endloop
  endfacet
  facet normal 0 0 1
    outer loop
      vertex 2.15549 10.6681 4.6
      vertex 0.617188 13.1599 4.6
      vertex 2.09283 10.3471 4.6
    endloop
  endfacet
  facet normal 0 0 1
    outer loop
      vertex 0.117813 13.282 4.6
      vertex 2.09283 10.3471 4.6
      vertex 0.617188 13.1599 4.6
    endloop
  endfacet
  facet normal 0 0 1
    outer loop
      vertex 2.09283 10.3471 4.6
      vertex 0.117813 13.282 4.6
      vertex 1.98839 10.0233 4.6
    endloop
  endfacet
  facet normal 0 0 1
    outer loop
      vertex 1.98839 10.0233 4.6
      vertex 0.117813 13.282 4.6
      vertex 1.84218 9.69676 4.6
    endloop
  endfacet
  facet normal 0 0 1
    outer loop
      vertex -0.43634 13.3227 4.6
      vertex 1.84218 9.69676 4.6
      vertex 0.117813 13.282 4.6
    endloop
  endfacet
  facet normal 0 0 1
    outer loop
      vertex 1.84218 9.69676 4.6
      vertex -0.43634 13.3227 4.6
      vertex 1.64334 9.35076 4.6
    endloop
  endfacet
  facet normal -0 0 1
    outer loop
      vertex -0.854324 13.3048 4.6
      vertex 1.64334 9.35076 4.6
      vertex -0.43634 13.3227 4.6
    endloop
  endfacet
  facet normal 0 0 1
    outer loop
      vertex 1.64334 9.35076 4.6
      vertex -0.854324 13.3048 4.6
      vertex 1.38106 8.96838 4.6
    endloop
  endfacet
  facet normal -0 0 1
    outer loop
      vertex -1.28371 13.2511 4.6
      vertex 1.38106 8.96838 4.6
      vertex -0.854324 13.3048 4.6
    endloop
  endfacet
  facet normal -0 0 1
    outer loop
      vertex -1.72447 13.1615 4.6
      vertex 1.38106 8.96838 4.6
      vertex -1.28371 13.2511 4.6
    endloop
  endfacet
  facet normal 0 0 1
    outer loop
      vertex 1.38106 8.96838 4.6
      vertex -1.72447 13.1615 4.6
      vertex 1.05531 8.54961 4.6
    endloop
  endfacet
  facet normal -0 0 1
    outer loop
      vertex -2.17664 13.0362 4.6
      vertex 1.05531 8.54961 4.6
      vertex -1.72447 13.1615 4.6
    endloop
  endfacet
  facet normal 0 0 1
    outer loop
      vertex 1.05531 8.54961 4.6
      vertex -2.17664 13.0362 4.6
      vertex 0.666107 8.09446 4.6
    endloop
  endfacet
  facet normal -0 0 1
    outer loop
      vertex -2.64235 12.8744 4.6
      vertex 0.666107 8.09446 4.6
      vertex -2.17664 13.0362 4.6
    endloop
  endfacet
  facet normal 0 0 1
    outer loop
      vertex 0.666107 8.09446 4.6
      vertex -2.64235 12.8744 4.6
      vertex 0.364716 7.76521 4.6
    endloop
  endfacet
  facet normal -0 0 1
    outer loop
      vertex -3.12383 12.6757 4.6
      vertex 0.364716 7.76521 4.6
      vertex -2.64235 12.8744 4.6
    endloop
  endfacet
  facet normal -0 0 1
    outer loop
      vertex -3.62105 12.4402 4.6
      vertex 0.364716 7.76521 4.6
      vertex -3.12383 12.6757 4.6
    endloop
  endfacet
  facet normal 0 0 1
    outer loop
      vertex 0.364716 7.76521 4.6
      vertex -3.62105 12.4402 4.6
      vertex -0.0966949 7.28127 4.6
    endloop
  endfacet
  facet normal -0 0 1
    outer loop
      vertex -4.134 12.1677 4.6
      vertex -0.0966949 7.28127 4.6
      vertex -3.62105 12.4402 4.6
    endloop
  endfacet
  facet normal 0 0 1
    outer loop
      vertex -0.0966949 7.28127 4.6
      vertex -4.134 12.1677 4.6
      vertex -0.718155 6.64265 4.6
    endloop
  endfacet
  facet normal 0 0 1
    outer loop
      vertex -0.718155 6.64265 4.6
      vertex -4.134 12.1677 4.6
      vertex -1.49963 5.84934 4.6
    endloop
  endfacet
  facet normal 0 0 1
    outer loop
      vertex -1.49963 5.84934 4.6
      vertex -4.134 12.1677 4.6
      vertex -2.31584 5.02293 4.6
    endloop
  endfacet
  facet normal 0 0 1
    outer loop
      vertex -2.31584 5.02293 4.6
      vertex -4.134 12.1677 4.6
      vertex -3.04143 4.28498 4.6
    endloop
  endfacet
  facet normal 0 0 1
    outer loop
      vertex -3.04143 4.28498 4.6
      vertex -4.134 12.1677 4.6
      vertex -3.67641 3.63552 4.6
    endloop
  endfacet
  facet normal 0 0 1
    outer loop
      vertex -3.67641 3.63552 4.6
      vertex -4.134 12.1677 4.6
      vertex -4.22079 3.07455 4.6
    endloop
  endfacet
  facet normal 0.951057 0.309016 0
    outer loop
      vertex -15.0473 -20.7108 6.2
      vertex -24.347 7.91083 4.6
      vertex -24.347 7.91083 6.2
    endloop
  endfacet
  facet normal 0.951057 0.309016 0
    outer loop
      vertex -24.347 7.91083 4.6
      vertex -15.0473 -20.7108 6.2
      vertex -15.0473 -20.7108 4.6
    endloop
  endfacet
  facet normal 0 1 -0
    outer loop
      vertex 15.0473 -20.7108 4.6
      vertex -15.0473 -20.7108 6.2
      vertex 15.0473 -20.7108 6.2
    endloop
  endfacet
  facet normal 0 1 0
    outer loop
      vertex -15.0473 -20.7108 6.2
      vertex 15.0473 -20.7108 4.6
      vertex -15.0473 -20.7108 4.6
    endloop
  endfacet
  facet normal -0.951057 0.309016 0
    outer loop
      vertex 15.0473 -20.7108 4.6
      vertex 24.347 7.91083 6.2
      vertex 24.347 7.91083 4.6
    endloop
  endfacet
  facet normal -0.951057 0.309016 0
    outer loop
      vertex 24.347 7.91083 6.2
      vertex 15.0473 -20.7108 4.6
      vertex 15.0473 -20.7108 6.2
    endloop
  endfacet
  facet normal 0.587786 -0.809016 0
    outer loop
      vertex -24.347 7.91083 4.6
      vertex 0 25.6 6.2
      vertex -24.347 7.91083 6.2
    endloop
  endfacet
  facet normal 0.587786 -0.809016 0
    outer loop
      vertex 0 25.6 6.2
      vertex -24.347 7.91083 4.6
      vertex 0 25.6 4.6
    endloop
  endfacet
  facet normal -0 0 1
    outer loop
      vertex -6.6 -1.4 0.8
      vertex 6.6 -14.6 0.8
      vertex 6.6 -1.4 0.8
    endloop
  endfacet
  facet normal 0 0 1
    outer loop
      vertex 6.6 -14.6 0.8
      vertex -6.6 -1.4 0.8
      vertex -6.6 -14.6 0.8
    endloop
  endfacet
  facet normal 1 -0 0
    outer loop
      vertex -6.6 -14.6 4.6
      vertex -6.6 -1.4 0.8
      vertex -6.6 -1.4 4.6
    endloop
  endfacet
  facet normal 1 0 0
    outer loop
      vertex -6.6 -1.4 0.8
      vertex -6.6 -14.6 4.6
      vertex -6.6 -14.6 0.8
    endloop
  endfacet
  facet normal 0 -1 0
    outer loop
      vertex -6.6 -1.4 0.8
      vertex 6.6 -1.4 4.6
      vertex -6.6 -1.4 4.6
    endloop
  endfacet
  facet normal 0 -1 -0
    outer loop
      vertex 6.6 -1.4 4.6
      vertex -6.6 -1.4 0.8
      vertex 6.6 -1.4 0.8
    endloop
  endfacet
  facet normal -1 0 0
    outer loop
      vertex 6.6 -14.6 0.8
      vertex 6.6 -1.4 4.6
      vertex 6.6 -1.4 0.8
    endloop
  endfacet
  facet normal -1 -0 0
    outer loop
      vertex 6.6 -1.4 4.6
      vertex 6.6 -14.6 0.8
      vertex 6.6 -14.6 4.6
    endloop
  endfacet
  facet normal 0 1 -0
    outer loop
      vertex 6.6 -14.6 0.8
      vertex -6.6 -14.6 4.6
      vertex 6.6 -14.6 4.6
    endloop
  endfacet
  facet normal 0 1 0
    outer loop
      vertex -6.6 -14.6 4.6
      vertex 6.6 -14.6 0.8
      vertex -6.6 -14.6 0.8
    endloop
  endfacet
  facet normal -0 0 1
    outer loop
      vertex 2.13107 11.4793 0.8
      vertex 3.93843 11.0981 0.8
      vertex 3.86357 11.8981 0.8
    endloop
  endfacet
  facet normal 0 0 1
    outer loop
      vertex 3.93843 11.0981 0.8
      vertex 2.17638 10.9865 0.8
      vertex 3.91971 10.7038 0.8
    endloop
  endfacet
  facet normal 0 0 1
    outer loop
      vertex 2.15549 10.6681 0.8
      vertex 3.91971 10.7038 0.8
      vertex 2.17638 10.9865 0.8
    endloop
  endfacet
  facet normal -0 0 1
    outer loop
      vertex 1.99516 11.9244 0.8
      vertex 3.86357 11.8981 0.8
      vertex 3.63898 12.6134 0.8
    endloop
  endfacet
  facet normal 0 0 1
    outer loop
      vertex 3.91971 10.7038 0.8
      vertex 2.15549 10.6681 0.8
      vertex 3.86354 10.3199 0.8
    endloop
  endfacet
  facet normal 0 0 1
    outer loop
      vertex 3.86354 10.3199 0.8
      vertex 2.15549 10.6681 0.8
      vertex 3.76994 9.94621 0.8
    endloop
  endfacet
  facet normal 0 0 1
    outer loop
      vertex 1.99516 11.9244 0.8
      vertex 3.63898 12.6134 0.8
      vertex 3.26465 13.244 0.8
    endloop
  endfacet
  facet normal -0 0 1
    outer loop
      vertex 2.09283 10.3471 0.8
      vertex 3.76994 9.94621 0.8
      vertex 2.15549 10.6681 0.8
    endloop
  endfacet
  facet normal 0 0 1
    outer loop
      vertex 3.76994 9.94621 0.8
      vertex 2.09283 10.3471 0.8
      vertex 3.6389 9.58283 0.8
    endloop
  endfacet
  facet normal 0 0 1
    outer loop
      vertex 1.76865 12.3218 0.8
      vertex 3.26465 13.244 0.8
      vertex 2.7406 13.7899 0.8
    endloop
  endfacet
  facet normal -0 0 1
    outer loop
      vertex 1.98839 10.0233 0.8
      vertex 3.6389 9.58283 0.8
      vertex 2.09283 10.3471 0.8
    endloop
  endfacet
  facet normal 0 0 1
    outer loop
      vertex 3.6389 9.58283 0.8
      vertex 1.98839 10.0233 0.8
      vertex 3.45856 9.20863 0.8
    endloop
  endfacet
  facet normal -0 0 1
    outer loop
      vertex 1.84218 9.69676 0.8
      vertex 3.45856 9.20863 0.8
      vertex 1.98839 10.0233 0.8
    endloop
  endfacet
  facet normal 0 0 1
    outer loop
      vertex 3.93843 11.0981 0.8
      vertex 2.13107 11.4793 0.8
      vertex 2.17638 10.9865 0.8
    endloop
  endfacet
  facet normal 0 0 1
    outer loop
      vertex 1.45152 12.6713 0.8
      vertex 2.7406 13.7899 0.8
      vertex 2.0907 14.2307 0.8
    endloop
  endfacet
  facet normal 0 0 1
    outer loop
      vertex 3.86357 11.8981 0.8
      vertex 1.99516 11.9244 0.8
      vertex 2.13107 11.4793 0.8
    endloop
  endfacet
  facet normal 0 0 1
    outer loop
      vertex 3.26465 13.244 0.8
      vertex 1.76865 12.3218 0.8
      vertex 1.99516 11.9244 0.8
    endloop
  endfacet
  facet normal 0 0 1
    outer loop
      vertex 2.7406 13.7899 0.8
      vertex 1.45152 12.6713 0.8
      vertex 1.76865 12.3218 0.8
    endloop
  endfacet
  facet normal 0 0 1
    outer loop
      vertex 1.06175 12.9563 0.8
      vertex 2.0907 14.2307 0.8
      vertex 1.33878 14.5455 0.8
    endloop
  endfacet
  facet normal 0 0 1
    outer loop
      vertex 2.0907 14.2307 0.8
      vertex 1.06175 12.9563 0.8
      vertex 1.45152 12.6713 0.8
    endloop
  endfacet
  facet normal 0 0 1
    outer loop
      vertex 1.33878 14.5455 0.8
      vertex 0.617188 13.1599 0.8
      vertex 1.06175 12.9563 0.8
    endloop
  endfacet
  facet normal 0 0 1
    outer loop
      vertex 0.484863 14.7343 0.8
      vertex 0.617188 13.1599 0.8
      vertex 1.33878 14.5455 0.8
    endloop
  endfacet
  facet normal 0 0 1
    outer loop
      vertex 0.484863 14.7343 0.8
      vertex 0.117813 13.282 0.8
      vertex 0.617188 13.1599 0.8
    endloop
  endfacet
  facet normal 0 0 1
    outer loop
      vertex -0.471024 14.7973 0.8
      vertex 0.117813 13.282 0.8
      vertex 0.484863 14.7343 0.8
    endloop
  endfacet
  facet normal 0 0 1
    outer loop
      vertex 0.117813 13.282 0.8
      vertex -0.471024 14.7973 0.8
      vertex -0.43634 13.3227 0.8
    endloop
  endfacet
  facet normal -0 0 1
    outer loop
      vertex -0.862686 14.7837 0.8
      vertex -0.43634 13.3227 0.8
      vertex -0.471024 14.7973 0.8
    endloop
  endfacet
  facet normal 0 0 1
    outer loop
      vertex -0.43634 13.3227 0.8
      vertex -0.862686 14.7837 0.8
      vertex -0.854324 13.3048 0.8
    endloop
  endfacet
  facet normal -0 0 1
    outer loop
      vertex -1.27391 14.743 0.8
      vertex -0.854324 13.3048 0.8
      vertex -0.862686 14.7837 0.8
    endloop
  endfacet
  facet normal 0 0 1
    outer loop
      vertex -1.27391 14.743 0.8
      vertex -1.28371 13.2511 0.8
      vertex -0.854324 13.3048 0.8
    endloop
  endfacet
  facet normal -0 0 1
    outer loop
      vertex -1.70468 14.6751 0.8
      vertex -1.28371 13.2511 0.8
      vertex -1.27391 14.743 0.8
    endloop
  endfacet
  facet normal 0 0 1
    outer loop
      vertex -1.70468 14.6751 0.8
      vertex -1.72447 13.1615 0.8
      vertex -1.28371 13.2511 0.8
    endloop
  endfacet
  facet normal -0 0 1
    outer loop
      vertex -2.155 14.5801 0.8
      vertex -1.72447 13.1615 0.8
      vertex -1.70468 14.6751 0.8
    endloop
  endfacet
  facet normal 0 0 1
    outer loop
      vertex -2.155 14.5801 0.8
      vertex -2.17664 13.0362 0.8
      vertex -1.72447 13.1615 0.8
    endloop
  endfacet
  facet normal -0 0 1
    outer loop
      vertex -2.6237 14.4584 0.8
      vertex -2.17664 13.0362 0.8
      vertex -2.155 14.5801 0.8
    endloop
  endfacet
  facet normal -0 0 1
    outer loop
      vertex -3.10979 14.3107 0.8
      vertex -2.17664 13.0362 0.8
      vertex -2.6237 14.4584 0.8
    endloop
  endfacet
  facet normal 0 0 1
    outer loop
      vertex -2.17664 13.0362 0.8
      vertex -3.10979 14.3107 0.8
      vertex -2.64235 12.8744 0.8
    endloop
  endfacet
  facet normal -0 0 1
    outer loop
      vertex -3.61322 14.137 0.8
      vertex -2.64235 12.8744 0.8
      vertex -3.10979 14.3107 0.8
    endloop
  endfacet
  facet normal 0 0 1
    outer loop
      vertex -2.64235 12.8744 0.8
      vertex -3.61322 14.137 0.8
      vertex -3.12383 12.6757 0.8
    endloop
  endfacet
  facet normal -0 0 1
    outer loop
      vertex -4.134 13.9371 0.8
      vertex -3.12383 12.6757 0.8
      vertex -3.61322 14.137 0.8
    endloop
  endfacet
  facet normal 0 0 1
    outer loop
      vertex -3.12383 12.6757 0.8
      vertex -4.134 13.9371 0.8
      vertex -3.62105 12.4402 0.8
    endloop
  endfacet
  facet normal 0 0 1
    outer loop
      vertex -3.62105 12.4402 0.8
      vertex -4.134 13.9371 0.8
      vertex -4.134 12.1677 0.8
    endloop
  endfacet
  facet normal 0 0 1
    outer loop
      vertex 3.45856 9.20863 0.8
      vertex 1.84218 9.69676 0.8
      vertex 3.21689 8.80239 0.8
    endloop
  endfacet
  facet normal -0 0 1
    outer loop
      vertex 1.64334 9.35076 0.8
      vertex 3.21689 8.80239 0.8
      vertex 1.84218 9.69676 0.8
    endloop
  endfacet
  facet normal 0 0 1
    outer loop
      vertex 3.21689 8.80239 0.8
      vertex 1.64334 9.35076 0.8
      vertex 2.91391 8.36414 0.8
    endloop
  endfacet
  facet normal -0 0 1
    outer loop
      vertex 1.38106 8.96838 0.8
      vertex 2.91391 8.36414 0.8
      vertex 1.64334 9.35076 0.8
    endloop
  endfacet
  facet normal 0 0 1
    outer loop
      vertex 2.91391 8.36414 0.8
      vertex 1.38106 8.96838 0.8
      vertex 2.54962 7.89388 0.8
    endloop
  endfacet
  facet normal 0 0 1
    outer loop
      vertex 2.54962 7.89388 0.8
      vertex 1.38106 8.96838 0.8
      vertex 2.382 7.70857 0.8
    endloop
  endfacet
  facet normal -0 0 1
    outer loop
      vertex 1.05531 8.54961 0.8
      vertex 2.382 7.70857 0.8
      vertex 1.38106 8.96838 0.8
    endloop
  endfacet
  facet normal 0 0 1
    outer loop
      vertex 2.382 7.70857 0.8
      vertex 1.05531 8.54961 0.8
      vertex 2.09608 7.40438 0.8
    endloop
  endfacet
  facet normal -0 0 1
    outer loop
      vertex 0.666107 8.09446 0.8
      vertex 2.09608 7.40438 0.8
      vertex 1.05531 8.54961 0.8
    endloop
  endfacet
  facet normal 0 0 1
    outer loop
      vertex 2.09608 7.40438 0.8
      vertex 0.666107 8.09446 0.8
      vertex 1.69189 6.98133 0.8
    endloop
  endfacet
  facet normal -0 0 1
    outer loop
      vertex 0.364716 7.76521 0.8
      vertex 1.69189 6.98133 0.8
      vertex 0.666107 8.09446 0.8
    endloop
  endfacet
  facet normal 0 0 1
    outer loop
      vertex 1.69189 6.98133 0.8
      vertex 0.364716 7.76521 0.8
      vertex 1.1694 6.43942 0.8
    endloop
  endfacet
  facet normal -0 0 1
    outer loop
      vertex -0.0966949 7.28127 0.8
      vertex 1.1694 6.43942 0.8
      vertex 0.364716 7.76521 0.8
    endloop
  endfacet
  facet normal 0 0 1
    outer loop
      vertex 1.1694 6.43942 0.8
      vertex -0.0966949 7.28127 0.8
      vertex 0.528168 5.7781 0.8
    endloop
  endfacet
  facet normal -0 0 1
    outer loop
      vertex -0.718155 6.64265 0.8
      vertex 0.528168 5.7781 0.8
      vertex -0.0966949 7.28127 0.8
    endloop
  endfacet
  facet normal 0 0 1
    outer loop
      vertex 0.528168 5.7781 0.8
      vertex -0.718155 6.64265 0.8
      vertex -0.232407 4.99685 0.8
    endloop
  endfacet
  facet normal -0 0 1
    outer loop
      vertex -1.49963 5.84934 0.8
      vertex -0.232407 4.99685 0.8
      vertex -0.718155 6.64265 0.8
    endloop
  endfacet
  facet normal 0 0 1
    outer loop
      vertex -0.232407 4.99685 0.8
      vertex -1.49963 5.84934 0.8
      vertex -1.11234 4.09567 0.8
    endloop
  endfacet
  facet normal -0 0 1
    outer loop
      vertex -2.31584 5.02293 0.8
      vertex -1.11234 4.09567 0.8
      vertex -1.49963 5.84934 0.8
    endloop
  endfacet
  facet normal -0 0 1
    outer loop
      vertex -3.04143 4.28498 0.8
      vertex -1.11234 4.09567 0.8
      vertex -2.31584 5.02293 0.8
    endloop
  endfacet
  facet normal -0 0 1
    outer loop
      vertex -2.1116 3.07455 0.8
      vertex 4.0078 1.6 0.8
      vertex 4.0078 3.07455 0.8
    endloop
  endfacet
  facet normal 0 0 1
    outer loop
      vertex -1.11234 4.09567 0.8
      vertex -3.04143 4.28498 0.8
      vertex -2.1116 3.07455 0.8
    endloop
  endfacet
  facet normal -0 0 1
    outer loop
      vertex -3.67641 3.63552 0.8
      vertex -2.1116 3.07455 0.8
      vertex -3.04143 4.28498 0.8
    endloop
  endfacet
  facet normal 0 0 1
    outer loop
      vertex -4.22079 3.07455 0.8
      vertex -2.1116 3.07455 0.8
      vertex -3.67641 3.63552 0.8
    endloop
  endfacet
  facet normal 0 0 1
    outer loop
      vertex -4.22079 1.6 0.8
      vertex -2.1116 3.07455 0.8
      vertex -4.22079 3.07455 0.8
    endloop
  endfacet
  facet normal 0 0 1
    outer loop
      vertex -2.1116 3.07455 0.8
      vertex -4.22079 1.6 0.8
      vertex 4.0078 1.6 0.8
    endloop
  endfacet
  facet normal 0 -1 0
    outer loop
      vertex -2.1116 3.07455 0.8
      vertex 4.0078 3.07455 4.6
      vertex -2.1116 3.07455 4.6
    endloop
  endfacet
  facet normal 0 -1 -0
    outer loop
      vertex 4.0078 3.07455 4.6
      vertex -2.1116 3.07455 0.8
      vertex 4.0078 3.07455 0.8
    endloop
  endfacet
  facet normal -0.714716 0.699415 0
    outer loop
      vertex -2.1116 3.07455 0.8
      vertex -1.11234 4.09567 4.6
      vertex -1.11234 4.09567 0.8
    endloop
  endfacet
  facet normal -0.714716 0.699415 0
    outer loop
      vertex -1.11234 4.09567 4.6
      vertex -2.1116 3.07455 0.8
      vertex -2.1116 3.07455 4.6
    endloop
  endfacet
  facet normal -0.715491 0.698622 0
    outer loop
      vertex -1.11234 4.09567 0.8
      vertex -0.232407 4.99685 4.6
      vertex -0.232407 4.99685 0.8
    endloop
  endfacet
  facet normal -0.715491 0.698622 0
    outer loop
      vertex -0.232407 4.99685 4.6
      vertex -1.11234 4.09567 0.8
      vertex -1.11234 4.09567 4.6
    endloop
  endfacet
  facet normal -0.716524 0.697562 0
    outer loop
      vertex -0.232407 4.99685 0.8
      vertex 0.528168 5.7781 4.6
      vertex 0.528168 5.7781 0.8
    endloop
  endfacet
  facet normal -0.716524 0.697562 0
    outer loop
      vertex 0.528168 5.7781 4.6
      vertex -0.232407 4.99685 0.8
      vertex -0.232407 4.99685 4.6
    endloop
  endfacet
  facet normal -0.717926 0.696119 0
    outer loop
      vertex 0.528168 5.7781 0.8
      vertex 1.1694 6.43942 4.6
      vertex 1.1694 6.43942 0.8
    endloop
  endfacet
  facet normal -0.717926 0.696119 0
    outer loop
      vertex 1.1694 6.43942 4.6
      vertex 0.528168 5.7781 0.8
      vertex 0.528168 5.7781 4.6
    endloop
  endfacet
  facet normal -0.719888 0.69409 0
    outer loop
      vertex 1.1694 6.43942 0.8
      vertex 1.69189 6.98133 4.6
      vertex 1.69189 6.98133 0.8
    endloop
  endfacet
  facet normal -0.719888 0.69409 0
    outer loop
      vertex 1.69189 6.98133 4.6
      vertex 1.1694 6.43942 0.8
      vertex 1.1694 6.43942 4.6
    endloop
  endfacet
  facet normal -0.72304 0.690806 0
    outer loop
      vertex 1.69189 6.98133 0.8
      vertex 2.09608 7.40438 4.6
      vertex 2.09608 7.40438 0.8
    endloop
  endfacet
  facet normal -0.72304 0.690806 0
    outer loop
      vertex 2.09608 7.40438 4.6
      vertex 1.69189 6.98133 0.8
      vertex 1.69189 6.98133 4.6
    endloop
  endfacet
  facet normal -0.72865 0.684886 0
    outer loop
      vertex 2.09608 7.40438 0.8
      vertex 2.382 7.70857 4.6
      vertex 2.382 7.70857 0.8
    endloop
  endfacet
  facet normal -0.72865 0.684886 0
    outer loop
      vertex 2.382 7.70857 4.6
      vertex 2.09608 7.40438 0.8
      vertex 2.09608 7.40438 4.6
    endloop
  endfacet
  facet normal -0.741618 0.670822 0
    outer loop
      vertex 2.382 7.70857 0.8
      vertex 2.54962 7.89388 4.6
      vertex 2.54962 7.89388 0.8
    endloop
  endfacet
  facet normal -0.741618 0.670822 0
    outer loop
      vertex 2.54962 7.89388 4.6
      vertex 2.382 7.70857 0.8
      vertex 2.382 7.70857 4.6
    endloop
  endfacet
  facet normal -0.790546 0.612402 0
    outer loop
      vertex 2.54962 7.89388 0.8
      vertex 2.91391 8.36414 4.6
      vertex 2.91391 8.36414 0.8
    endloop
  endfacet
  facet normal -0.790546 0.612402 0
    outer loop
      vertex 2.91391 8.36414 4.6
      vertex 2.54962 7.89388 0.8
      vertex 2.54962 7.89388 4.6
    endloop
  endfacet
  facet normal -0.822564 0.568672 0
    outer loop
      vertex 2.91391 8.36414 0.8
      vertex 3.21689 8.80239 4.6
      vertex 3.21689 8.80239 0.8
    endloop
  endfacet
  facet normal -0.822564 0.568672 0
    outer loop
      vertex 3.21689 8.80239 4.6
      vertex 2.91391 8.36414 0.8
      vertex 2.91391 8.36414 4.6
    endloop
  endfacet
  facet normal -0.859423 0.511266 0
    outer loop
      vertex 3.21689 8.80239 0.8
      vertex 3.45856 9.20863 4.6
      vertex 3.45856 9.20863 0.8
    endloop
  endfacet
  facet normal -0.859423 0.511266 0
    outer loop
      vertex 3.45856 9.20863 4.6
      vertex 3.21689 8.80239 0.8
      vertex 3.21689 8.80239 4.6
    endloop
  endfacet
  facet normal -0.900842 0.434147 0
    outer loop
      vertex 3.45856 9.20863 0.8
      vertex 3.6389 9.58283 4.6
      vertex 3.6389 9.58283 0.8
    endloop
  endfacet
  facet normal -0.900842 0.434147 0
    outer loop
      vertex 3.6389 9.58283 4.6
      vertex 3.45856 9.20863 0.8
      vertex 3.45856 9.20863 4.6
    endloop
  endfacet
  facet normal -0.940703 0.339231 0
    outer loop
      vertex 3.6389 9.58283 0.8
      vertex 3.76994 9.94621 4.6
      vertex 3.76994 9.94621 0.8
    endloop
  endfacet
  facet normal -0.940703 0.339231 0
    outer loop
      vertex 3.76994 9.94621 4.6
      vertex 3.6389 9.58283 0.8
      vertex 3.6389 9.58283 4.6
    endloop
  endfacet
  facet normal -0.970034 0.242969 0
    outer loop
      vertex 3.76994 9.94621 0.8
      vertex 3.86354 10.3199 4.6
      vertex 3.86354 10.3199 0.8
    endloop
  endfacet
  facet normal -0.970034 0.242969 0
    outer loop
      vertex 3.86354 10.3199 4.6
      vertex 3.76994 9.94621 0.8
      vertex 3.76994 9.94621 4.6
    endloop
  endfacet
  facet normal -0.989465 0.144773 0
    outer loop
      vertex 3.86354 10.3199 0.8
      vertex 3.91971 10.7038 4.6
      vertex 3.91971 10.7038 0.8
    endloop
  endfacet
  facet normal -0.989465 0.144773 0
    outer loop
      vertex 3.91971 10.7038 4.6
      vertex 3.86354 10.3199 0.8
      vertex 3.86354 10.3199 4.6
    endloop
  endfacet
  facet normal -0.998875 0.0474231 0
    outer loop
      vertex 3.91971 10.7038 0.8
      vertex 3.93843 11.0981 4.6
      vertex 3.93843 11.0981 0.8
    endloop
  endfacet
  facet normal -0.998875 0.0474231 0
    outer loop
      vertex 3.93843 11.0981 4.6
      vertex 3.91971 10.7038 0.8
      vertex 3.91971 10.7038 4.6
    endloop
  endfacet
  facet normal -0.99565 -0.093168 0
    outer loop
      vertex 3.93843 11.0981 0.8
      vertex 3.86357 11.8981 4.6
      vertex 3.86357 11.8981 0.8
    endloop
  endfacet
  facet normal -0.99565 -0.093168 0
    outer loop
      vertex 3.86357 11.8981 4.6
      vertex 3.93843 11.0981 0.8
      vertex 3.93843 11.0981 4.6
    endloop
  endfacet
  facet normal -0.954077 -0.299561 0
    outer loop
      vertex 3.86357 11.8981 0.8
      vertex 3.63898 12.6134 4.6
      vertex 3.63898 12.6134 0.8
    endloop
  endfacet
  facet normal -0.954077 -0.299561 0
    outer loop
      vertex 3.63898 12.6134 4.6
      vertex 3.86357 11.8981 0.8
      vertex 3.86357 11.8981 4.6
    endloop
  endfacet
  facet normal -0.859908 -0.510449 0
    outer loop
      vertex 3.63898 12.6134 0.8
      vertex 3.26465 13.244 4.6
      vertex 3.26465 13.244 0.8
    endloop
  endfacet
  facet normal -0.859908 -0.510449 0
    outer loop
      vertex 3.26465 13.244 4.6
      vertex 3.63898 12.6134 0.8
      vertex 3.63898 12.6134 4.6
    endloop
  endfacet
  facet normal -0.721397 -0.692522 0
    outer loop
      vertex 3.26465 13.244 0.8
      vertex 2.7406 13.7899 4.6
      vertex 2.7406 13.7899 0.8
    endloop
  endfacet
  facet normal -0.721397 -0.692522 0
    outer loop
      vertex 2.7406 13.7899 4.6
      vertex 3.26465 13.244 0.8
      vertex 3.26465 13.244 4.6
    endloop
  endfacet
  facet normal -0.561324 -0.827596 0
    outer loop
      vertex 2.0907 14.2307 0.8
      vertex 2.7406 13.7899 4.6
      vertex 2.0907 14.2307 4.6
    endloop
  endfacet
  facet normal -0.561324 -0.827596 -0
    outer loop
      vertex 2.7406 13.7899 4.6
      vertex 2.0907 14.2307 0.8
      vertex 2.7406 13.7899 0.8
    endloop
  endfacet
  facet normal -0.386183 -0.922422 0
    outer loop
      vertex 1.33878 14.5455 0.8
      vertex 2.0907 14.2307 4.6
      vertex 1.33878 14.5455 4.6
    endloop
  endfacet
  facet normal -0.386183 -0.922422 -0
    outer loop
      vertex 2.0907 14.2307 4.6
      vertex 1.33878 14.5455 0.8
      vertex 2.0907 14.2307 0.8
    endloop
  endfacet
  facet normal -0.215885 -0.976419 0
    outer loop
      vertex 0.484863 14.7343 0.8
      vertex 1.33878 14.5455 4.6
      vertex 0.484863 14.7343 4.6
    endloop
  endfacet
  facet normal -0.215885 -0.976419 -0
    outer loop
      vertex 1.33878 14.5455 4.6
      vertex 0.484863 14.7343 0.8
      vertex 1.33878 14.5455 0.8
    endloop
  endfacet
  facet normal -0.0657647 -0.997835 0
    outer loop
      vertex -0.471024 14.7973 0.8
      vertex 0.484863 14.7343 4.6
      vertex -0.471024 14.7973 4.6
    endloop
  endfacet
  facet normal -0.0657647 -0.997835 -0
    outer loop
      vertex 0.484863 14.7343 4.6
      vertex -0.471024 14.7973 0.8
      vertex 0.484863 14.7343 0.8
    endloop
  endfacet
  facet normal 0.0347029 -0.999398 0
    outer loop
      vertex -0.862686 14.7837 0.8
      vertex -0.471024 14.7973 4.6
      vertex -0.862686 14.7837 4.6
    endloop
  endfacet
  facet normal 0.0347029 -0.999398 0
    outer loop
      vertex -0.471024 14.7973 4.6
      vertex -0.862686 14.7837 0.8
      vertex -0.471024 14.7973 0.8
    endloop
  endfacet
  facet normal 0.0984916 -0.995138 0
    outer loop
      vertex -1.27391 14.743 0.8
      vertex -0.862686 14.7837 4.6
      vertex -1.27391 14.743 4.6
    endloop
  endfacet
  facet normal 0.0984916 -0.995138 0
    outer loop
      vertex -0.862686 14.7837 4.6
      vertex -1.27391 14.743 0.8
      vertex -0.862686 14.7837 0.8
    endloop
  endfacet
  facet normal 0.155702 -0.987804 0
    outer loop
      vertex -1.70468 14.6751 0.8
      vertex -1.27391 14.743 4.6
      vertex -1.70468 14.6751 4.6
    endloop
  endfacet
  facet normal 0.155702 -0.987804 0
    outer loop
      vertex -1.27391 14.743 4.6
      vertex -1.70468 14.6751 0.8
      vertex -1.27391 14.743 0.8
    endloop
  endfacet
  facet normal 0.206418 -0.978464 0
    outer loop
      vertex -2.155 14.5801 0.8
      vertex -1.70468 14.6751 4.6
      vertex -2.155 14.5801 4.6
    endloop
  endfacet
  facet normal 0.206418 -0.978464 0
    outer loop
      vertex -1.70468 14.6751 4.6
      vertex -2.155 14.5801 0.8
      vertex -1.70468 14.6751 0.8
    endloop
  endfacet
  facet normal 0.25132 -0.967904 0
    outer loop
      vertex -2.6237 14.4584 0.8
      vertex -2.155 14.5801 4.6
      vertex -2.6237 14.4584 4.6
    endloop
  endfacet
  facet normal 0.25132 -0.967904 0
    outer loop
      vertex -2.155 14.5801 4.6
      vertex -2.6237 14.4584 0.8
      vertex -2.155 14.5801 0.8
    endloop
  endfacet
  facet normal 0.290728 -0.956806 0
    outer loop
      vertex -3.10979 14.3107 0.8
      vertex -2.6237 14.4584 4.6
      vertex -3.10979 14.3107 4.6
    endloop
  endfacet
  facet normal 0.290728 -0.956806 0
    outer loop
      vertex -2.6237 14.4584 4.6
      vertex -3.10979 14.3107 0.8
      vertex -2.6237 14.4584 0.8
    endloop
  endfacet
  facet normal 0.326164 -0.945313 0
    outer loop
      vertex -3.61322 14.137 0.8
      vertex -3.10979 14.3107 4.6
      vertex -3.61322 14.137 4.6
    endloop
  endfacet
  facet normal 0.326164 -0.945313 0
    outer loop
      vertex -3.10979 14.3107 4.6
      vertex -3.61322 14.137 0.8
      vertex -3.10979 14.3107 0.8
    endloop
  endfacet
  facet normal 0.358354 -0.933586 0
    outer loop
      vertex -4.134 13.9371 0.8
      vertex -3.61322 14.137 4.6
      vertex -4.134 13.9371 4.6
    endloop
  endfacet
  facet normal 0.358354 -0.933586 0
    outer loop
      vertex -3.61322 14.137 4.6
      vertex -4.134 13.9371 0.8
      vertex -3.61322 14.137 0.8
    endloop
  endfacet
  facet normal 1 -0 0
    outer loop
      vertex -4.134 12.1677 4.6
      vertex -4.134 13.9371 0.8
      vertex -4.134 13.9371 4.6
    endloop
  endfacet
  facet normal 1 0 0
    outer loop
      vertex -4.134 13.9371 0.8
      vertex -4.134 12.1677 4.6
      vertex -4.134 12.1677 0.8
    endloop
  endfacet
  facet normal -0.469149 0.883119 0
    outer loop
      vertex -3.62105 12.4402 0.8
      vertex -4.134 12.1677 4.6
      vertex -3.62105 12.4402 4.6
    endloop
  endfacet
  facet normal -0.469149 0.883119 0
    outer loop
      vertex -4.134 12.1677 4.6
      vertex -3.62105 12.4402 0.8
      vertex -4.134 12.1677 0.8
    endloop
  endfacet
  facet normal -0.428049 0.903756 0
    outer loop
      vertex -3.12383 12.6757 0.8
      vertex -3.62105 12.4402 4.6
      vertex -3.12383 12.6757 4.6
    endloop
  endfacet
  facet normal -0.428049 0.903756 0
    outer loop
      vertex -3.62105 12.4402 4.6
      vertex -3.12383 12.6757 0.8
      vertex -3.62105 12.4402 0.8
    endloop
  endfacet
  facet normal -0.381478 0.924378 0
    outer loop
      vertex -2.64235 12.8744 0.8
      vertex -3.12383 12.6757 4.6
      vertex -2.64235 12.8744 4.6
    endloop
  endfacet
  facet normal -0.381478 0.924378 0
    outer loop
      vertex -3.12383 12.6757 4.6
      vertex -2.64235 12.8744 0.8
      vertex -3.12383 12.6757 0.8
    endloop
  endfacet
  facet normal -0.328184 0.944614 0
    outer loop
      vertex -2.17664 13.0362 0.8
      vertex -2.64235 12.8744 4.6
      vertex -2.17664 13.0362 4.6
    endloop
  endfacet
  facet normal -0.328184 0.944614 0
    outer loop
      vertex -2.64235 12.8744 4.6
      vertex -2.17664 13.0362 0.8
      vertex -2.64235 12.8744 0.8
    endloop
  endfacet
  facet normal -0.267045 0.963684 0
    outer loop
      vertex -1.72447 13.1615 0.8
      vertex -2.17664 13.0362 4.6
      vertex -1.72447 13.1615 4.6
    endloop
  endfacet
  facet normal -0.267045 0.963684 0
    outer loop
      vertex -2.17664 13.0362 4.6
      vertex -1.72447 13.1615 0.8
      vertex -2.17664 13.0362 0.8
    endloop
  endfacet
  facet normal -0.199211 0.979957 0
    outer loop
      vertex -1.28371 13.2511 0.8
      vertex -1.72447 13.1615 4.6
      vertex -1.28371 13.2511 4.6
    endloop
  endfacet
  facet normal -0.199211 0.979957 0
    outer loop
      vertex -1.72447 13.1615 4.6
      vertex -1.28371 13.2511 0.8
      vertex -1.72447 13.1615 0.8
    endloop
  endfacet
  facet normal -0.124096 0.99227 0
    outer loop
      vertex -0.854324 13.3048 0.8
      vertex -1.28371 13.2511 4.6
      vertex -0.854324 13.3048 4.6
    endloop
  endfacet
  facet normal -0.124096 0.99227 0
    outer loop
      vertex -1.28371 13.2511 4.6
      vertex -0.854324 13.3048 0.8
      vertex -1.28371 13.2511 0.8
    endloop
  endfacet
  facet normal -0.0427854 0.999084 0
    outer loop
      vertex -0.43634 13.3227 0.8
      vertex -0.854324 13.3048 4.6
      vertex -0.43634 13.3227 4.6
    endloop
  endfacet
  facet normal -0.0427854 0.999084 0
    outer loop
      vertex -0.854324 13.3048 4.6
      vertex -0.43634 13.3227 0.8
      vertex -0.854324 13.3048 0.8
    endloop
  endfacet
  facet normal 0.0732481 0.997314 -0
    outer loop
      vertex 0.117813 13.282 0.8
      vertex -0.43634 13.3227 4.6
      vertex 0.117813 13.282 4.6
    endloop
  endfacet
  facet normal 0.0732481 0.997314 0
    outer loop
      vertex -0.43634 13.3227 4.6
      vertex 0.117813 13.282 0.8
      vertex -0.43634 13.3227 0.8
    endloop
  endfacet
  facet normal 0.237509 0.971385 -0
    outer loop
      vertex 0.617188 13.1599 0.8
      vertex 0.117813 13.282 4.6
      vertex 0.617188 13.1599 4.6
    endloop
  endfacet
  facet normal 0.237509 0.971385 0
    outer loop
      vertex 0.117813 13.282 4.6
      vertex 0.617188 13.1599 0.8
      vertex 0.117813 13.282 0.8
    endloop
  endfacet
  facet normal 0.416388 0.909187 -0
    outer loop
      vertex 1.06175 12.9563 0.8
      vertex 0.617188 13.1599 4.6
      vertex 1.06175 12.9563 4.6
    endloop
  endfacet
  facet normal 0.416388 0.909187 0
    outer loop
      vertex 0.617188 13.1599 4.6
      vertex 1.06175 12.9563 0.8
      vertex 0.617188 13.1599 0.8
    endloop
  endfacet
  facet normal 0.590243 0.807225 -0
    outer loop
      vertex 1.45152 12.6713 0.8
      vertex 1.06175 12.9563 4.6
      vertex 1.45152 12.6713 4.6
    endloop
  endfacet
  facet normal 0.590243 0.807225 0
    outer loop
      vertex 1.06175 12.9563 4.6
      vertex 1.45152 12.6713 0.8
      vertex 1.06175 12.9563 0.8
    endloop
  endfacet
  facet normal 0.74057 0.67198 0
    outer loop
      vertex 1.76865 12.3218 4.6
      vertex 1.45152 12.6713 0.8
      vertex 1.45152 12.6713 4.6
    endloop
  endfacet
  facet normal 0.74057 0.67198 0
    outer loop
      vertex 1.45152 12.6713 0.8
      vertex 1.76865 12.3218 4.6
      vertex 1.76865 12.3218 0.8
    endloop
  endfacet
  facet normal 0.868785 0.49519 0
    outer loop
      vertex 1.99516 11.9244 4.6
      vertex 1.76865 12.3218 0.8
      vertex 1.76865 12.3218 4.6
    endloop
  endfacet
  facet normal 0.868785 0.49519 0
    outer loop
      vertex 1.76865 12.3218 0.8
      vertex 1.99516 11.9244 4.6
      vertex 1.99516 11.9244 0.8
    endloop
  endfacet
  facet normal 0.956407 0.292036 0
    outer loop
      vertex 2.13107 11.4793 4.6
      vertex 1.99516 11.9244 0.8
      vertex 1.99516 11.9244 4.6
    endloop
  endfacet
  facet normal 0.956407 0.292036 0
    outer loop
      vertex 1.99516 11.9244 0.8
      vertex 2.13107 11.4793 4.6
      vertex 2.13107 11.4793 0.8
    endloop
  endfacet
  facet normal 0.9958 0.0915578 0
    outer loop
      vertex 2.17638 10.9865 4.6
      vertex 2.13107 11.4793 0.8
      vertex 2.13107 11.4793 4.6
    endloop
  endfacet
  facet normal 0.9958 0.0915578 0
    outer loop
      vertex 2.13107 11.4793 0.8
      vertex 2.17638 10.9865 4.6
      vertex 2.17638 10.9865 0.8
    endloop
  endfacet
  facet normal 0.997855 -0.0654685 0
    outer loop
      vertex 2.15549 10.6681 4.6
      vertex 2.17638 10.9865 0.8
      vertex 2.17638 10.9865 4.6
    endloop
  endfacet
  facet normal 0.997855 -0.0654685 0
    outer loop
      vertex 2.17638 10.9865 0.8
      vertex 2.15549 10.6681 4.6
      vertex 2.15549 10.6681 0.8
    endloop
  endfacet
  facet normal 0.981476 -0.191587 0
    outer loop
      vertex 2.09283 10.3471 4.6
      vertex 2.15549 10.6681 0.8
      vertex 2.15549 10.6681 4.6
    endloop
  endfacet
  facet normal 0.981476 -0.191587 0
    outer loop
      vertex 2.15549 10.6681 0.8
      vertex 2.09283 10.3471 4.6
      vertex 2.09283 10.3471 0.8
    endloop
  endfacet
  facet normal 0.951719 -0.306972 0
    outer loop
      vertex 1.98839 10.0233 4.6
      vertex 2.09283 10.3471 0.8
      vertex 2.09283 10.3471 4.6
    endloop
  endfacet
  facet normal 0.951719 -0.306972 0
    outer loop
      vertex 2.09283 10.3471 0.8
      vertex 1.98839 10.0233 4.6
      vertex 1.98839 10.0233 0.8
    endloop
  endfacet
  facet normal 0.912687 -0.40866 0
    outer loop
      vertex 1.84218 9.69676 4.6
      vertex 1.98839 10.0233 0.8
      vertex 1.98839 10.0233 4.6
    endloop
  endfacet
  facet normal 0.912687 -0.40866 0
    outer loop
      vertex 1.98839 10.0233 0.8
      vertex 1.84218 9.69676 4.6
      vertex 1.84218 9.69676 0.8
    endloop
  endfacet
  facet normal 0.867025 -0.498264 0
    outer loop
      vertex 1.64334 9.35076 4.6
      vertex 1.84218 9.69676 0.8
      vertex 1.84218 9.69676 4.6
    endloop
  endfacet
  facet normal 0.867025 -0.498264 0
    outer loop
      vertex 1.84218 9.69676 0.8
      vertex 1.64334 9.35076 4.6
      vertex 1.64334 9.35076 0.8
    endloop
  endfacet
  facet normal 0.824652 -0.565641 0
    outer loop
      vertex 1.38106 8.96838 4.6
      vertex 1.64334 9.35076 0.8
      vertex 1.64334 9.35076 4.6
    endloop
  endfacet
  facet normal 0.824652 -0.565641 0
    outer loop
      vertex 1.64334 9.35076 0.8
      vertex 1.38106 8.96838 4.6
      vertex 1.38106 8.96838 0.8
    endloop
  endfacet
  facet normal 0.789316 -0.613988 0
    outer loop
      vertex 1.05531 8.54961 4.6
      vertex 1.38106 8.96838 0.8
      vertex 1.38106 8.96838 4.6
    endloop
  endfacet
  facet normal 0.789316 -0.613988 0
    outer loop
      vertex 1.38106 8.96838 0.8
      vertex 1.05531 8.54961 4.6
      vertex 1.05531 8.54961 0.8
    endloop
  endfacet
  facet normal 0.76002 -0.6499 0
    outer loop
      vertex 0.666107 8.09446 4.6
      vertex 1.05531 8.54961 0.8
      vertex 1.05531 8.54961 4.6
    endloop
  endfacet
  facet normal 0.76002 -0.6499 0
    outer loop
      vertex 1.05531 8.54961 0.8
      vertex 0.666107 8.09446 4.6
      vertex 0.666107 8.09446 0.8
    endloop
  endfacet
  facet normal 0.737624 -0.675211 0
    outer loop
      vertex 0.364716 7.76521 4.6
      vertex 0.666107 8.09446 0.8
      vertex 0.666107 8.09446 4.6
    endloop
  endfacet
  facet normal 0.737624 -0.675211 0
    outer loop
      vertex 0.666107 8.09446 0.8
      vertex 0.364716 7.76521 4.6
      vertex 0.364716 7.76521 0.8
    endloop
  endfacet
  facet normal 0.723753 -0.690059 0
    outer loop
      vertex -0.0966949 7.28127 4.6
      vertex 0.364716 7.76521 0.8
      vertex 0.364716 7.76521 4.6
    endloop
  endfacet
  facet normal 0.723753 -0.690059 0
    outer loop
      vertex 0.364716 7.76521 0.8
      vertex -0.0966949 7.28127 4.6
      vertex -0.0966949 7.28127 0.8
    endloop
  endfacet
  facet normal 0.71667 -0.697413 0
    outer loop
      vertex -0.718155 6.64265 4.6
      vertex -0.0966949 7.28127 0.8
      vertex -0.0966949 7.28127 4.6
    endloop
  endfacet
  facet normal 0.71667 -0.697413 0
    outer loop
      vertex -0.0966949 7.28127 0.8
      vertex -0.718155 6.64265 4.6
      vertex -0.718155 6.64265 0.8
    endloop
  endfacet
  facet normal 0.712401 -0.701773 0
    outer loop
      vertex -1.49963 5.84934 4.6
      vertex -0.718155 6.64265 0.8
      vertex -0.718155 6.64265 4.6
    endloop
  endfacet
  facet normal 0.712401 -0.701773 0
    outer loop
      vertex -0.718155 6.64265 0.8
      vertex -1.49963 5.84934 4.6
      vertex -1.49963 5.84934 0.8
    endloop
  endfacet
  facet normal 0.711484 -0.702702 0
    outer loop
      vertex -2.31584 5.02293 4.6
      vertex -1.49963 5.84934 0.8
      vertex -1.49963 5.84934 4.6
    endloop
  endfacet
  facet normal 0.711484 -0.702702 0
    outer loop
      vertex -1.49963 5.84934 0.8
      vertex -2.31584 5.02293 4.6
      vertex -2.31584 5.02293 0.8
    endloop
  endfacet
  facet normal 0.713053 -0.70111 0
    outer loop
      vertex -3.04143 4.28498 4.6
      vertex -2.31584 5.02293 0.8
      vertex -2.31584 5.02293 4.6
    endloop
  endfacet
  facet normal 0.713053 -0.70111 0
    outer loop
      vertex -2.31584 5.02293 0.8
      vertex -3.04143 4.28498 4.6
      vertex -3.04143 4.28498 0.8
    endloop
  endfacet
  facet normal 0.715033 -0.699091 0
    outer loop
      vertex -3.67641 3.63552 4.6
      vertex -3.04143 4.28498 0.8
      vertex -3.04143 4.28498 4.6
    endloop
  endfacet
  facet normal 0.715033 -0.699091 0
    outer loop
      vertex -3.04143 4.28498 0.8
      vertex -3.67641 3.63552 4.6
      vertex -3.67641 3.63552 0.8
    endloop
  endfacet
  facet normal 0.717639 -0.696416 0
    outer loop
      vertex -4.22079 3.07455 4.6
      vertex -3.67641 3.63552 0.8
      vertex -3.67641 3.63552 4.6
    endloop
  endfacet
  facet normal 0.717639 -0.696416 0
    outer loop
      vertex -3.67641 3.63552 0.8
      vertex -4.22079 3.07455 4.6
      vertex -4.22079 3.07455 0.8
    endloop
  endfacet
  facet normal 1 -0 0
    outer loop
      vertex -4.22079 1.6 4.6
      vertex -4.22079 3.07455 0.8
      vertex -4.22079 3.07455 4.6
    endloop
  endfacet
  facet normal 1 0 0
    outer loop
      vertex -4.22079 3.07455 0.8
      vertex -4.22079 1.6 4.6
      vertex -4.22079 1.6 0.8
    endloop
  endfacet
  facet normal 0 1 -0
    outer loop
      vertex 4.0078 1.6 0.8
      vertex -4.22079 1.6 4.6
      vertex 4.0078 1.6 4.6
    endloop
  endfacet
  facet normal 0 1 0
    outer loop
      vertex -4.22079 1.6 4.6
      vertex 4.0078 1.6 0.8
      vertex -4.22079 1.6 0.8
    endloop
  endfacet
  facet normal -1 0 0
    outer loop
      vertex 4.0078 1.6 0.8
      vertex 4.0078 3.07455 4.6
      vertex 4.0078 3.07455 0.8
    endloop
  endfacet
  facet normal -1 -0 0
    outer loop
      vertex 4.0078 3.07455 4.6
      vertex 4.0078 1.6 0.8
      vertex 4.0078 1.6 4.6
    endloop
  endfacet
endsolid OpenSCAD_Model
