solid OpenSCAD_Model
  facet normal 0.587785 0.809017 -0
    outer loop
      vertex 16.3582 5.31509 0
      vertex 0 17.2 3.7
      vertex 16.3582 5.31509 3.7
    endloop
  endfacet
  facet normal 0.587785 0.809017 0
    outer loop
      vertex 0 17.2 3.7
      vertex 16.3582 5.31509 0
      vertex 0 17.2 0
    endloop
  endfacet
  facet normal 0 0 1
    outer loop
      vertex 0 17.2 3.7
      vertex 14.8365 4.82066 3.7
      vertex 16.3582 5.31509 3.7
    endloop
  endfacet
  facet normal 0 0 1
    outer loop
      vertex 0 17.2 3.7
      vertex 0 15.6 3.7
      vertex 14.8365 4.82066 3.7
    endloop
  endfacet
  facet normal 0 0 1
    outer loop
      vertex 0 17.2 3.7
      vertex -14.8365 4.82066 3.7
      vertex 0 15.6 3.7
    endloop
  endfacet
  facet normal 0 -0 1
    outer loop
      vertex -14.8365 4.82066 3.7
      vertex 0 17.2 3.7
      vertex -16.3582 5.31509 3.7
    endloop
  endfacet
  facet normal -0 0 1
    outer loop
      vertex 14.8365 4.82066 3.7
      vertex 10.1099 -13.9151 3.7
      vertex 16.3582 5.31509 3.7
    endloop
  endfacet
  facet normal -0 0 1
    outer loop
      vertex 9.16945 -12.6207 3.7
      vertex 10.1099 -13.9151 3.7
      vertex 14.8365 4.82066 3.7
    endloop
  endfacet
  facet normal -0 0 1
    outer loop
      vertex -9.16945 -12.6207 3.7
      vertex 10.1099 -13.9151 3.7
      vertex 9.16945 -12.6207 3.7
    endloop
  endfacet
  facet normal 0 0 1
    outer loop
      vertex -9.16945 -12.6207 3.7
      vertex -10.1099 -13.9151 3.7
      vertex 10.1099 -13.9151 3.7
    endloop
  endfacet
  facet normal 0 0 1
    outer loop
      vertex -14.8365 4.82066 3.7
      vertex -10.1099 -13.9151 3.7
      vertex -9.16945 -12.6207 3.7
    endloop
  endfacet
  facet normal 0 0 1
    outer loop
      vertex -10.1099 -13.9151 3.7
      vertex -14.8365 4.82066 3.7
      vertex -16.3582 5.31509 3.7
    endloop
  endfacet
  facet normal 0 0 -1
    outer loop
      vertex 10.1099 -13.9151 0
      vertex 0 17.2 0
      vertex 16.3582 5.31509 0
    endloop
  endfacet
  facet normal 0 0 -1
    outer loop
      vertex -10.1099 -13.9151 0
      vertex 0 17.2 0
      vertex 10.1099 -13.9151 0
    endloop
  endfacet
  facet normal 0 0 -1
    outer loop
      vertex 0 17.2 0
      vertex -10.1099 -13.9151 0
      vertex -16.3582 5.31509 0
    endloop
  endfacet
  facet normal -0.951056 -0.309018 0
    outer loop
      vertex -10.1099 -13.9151 0
      vertex -16.3582 5.31509 3.7
      vertex -16.3582 5.31509 0
    endloop
  endfacet
  facet normal -0.951056 -0.309018 0
    outer loop
      vertex -16.3582 5.31509 3.7
      vertex -10.1099 -13.9151 0
      vertex -10.1099 -13.9151 3.7
    endloop
  endfacet
  facet normal 0 -1 0
    outer loop
      vertex -10.1099 -13.9151 0
      vertex 10.1099 -13.9151 3.7
      vertex -10.1099 -13.9151 3.7
    endloop
  endfacet
  facet normal 0 -1 -0
    outer loop
      vertex 10.1099 -13.9151 3.7
      vertex -10.1099 -13.9151 0
      vertex 10.1099 -13.9151 0
    endloop
  endfacet
  facet normal 0.951056 -0.309018 0
    outer loop
      vertex 10.1099 -13.9151 3.7
      vertex 16.3582 5.31509 0
      vertex 16.3582 5.31509 3.7
    endloop
  endfacet
  facet normal 0.951056 -0.309018 0
    outer loop
      vertex 16.3582 5.31509 0
      vertex 10.1099 -13.9151 3.7
      vertex 10.1099 -13.9151 0
    endloop
  endfacet
  facet normal -0.587785 0.809017 0
    outer loop
      vertex 0 17.2 0
      vertex -16.3582 5.31509 3.7
      vertex 0 17.2 3.7
    endloop
  endfacet
  facet normal -0.587785 0.809017 0
    outer loop
      vertex -16.3582 5.31509 3.7
      vertex 0 17.2 0
      vertex -16.3582 5.31509 0
    endloop
  endfacet
  facet normal 0 1 -0
    outer loop
      vertex 9.16945 -12.6207 2.1
      vertex -9.16945 -12.6207 3.7
      vertex 9.16945 -12.6207 3.7
    endloop
  endfacet
  facet normal 0 1 0
    outer loop
      vertex -9.16945 -12.6207 3.7
      vertex 9.16945 -12.6207 2.1
      vertex -9.16945 -12.6207 2.1
    endloop
  endfacet
  facet normal -0.587785 -0.809017 0
    outer loop
      vertex 0 15.6 2.1
      vertex 14.8365 4.82066 3.7
      vertex 0 15.6 3.7
    endloop
  endfacet
  facet normal -0.587785 -0.809017 -0
    outer loop
      vertex 14.8365 4.82066 3.7
      vertex 0 15.6 2.1
      vertex 14.8365 4.82066 2.1
    endloop
  endfacet
  facet normal 0 0 1
    outer loop
      vertex 0.91802 3.98719 2.1
      vertex -3.65258 3.98719 2.1
      vertex 0.91802 1.6 2.1
    endloop
  endfacet
  facet normal 0 0 1
    outer loop
      vertex 14.8365 4.82066 2.1
      vertex 4.1 -1.4 2.1
      vertex 9.16945 -12.6207 2.1
    endloop
  endfacet
  facet normal 0 0 1
    outer loop
      vertex 3.72542 3.98719 2.1
      vertex 14.8365 4.82066 2.1
      vertex 3.72542 5.1264 2.1
    endloop
  endfacet
  facet normal 0 0 1
    outer loop
      vertex 14.8365 4.82066 2.1
      vertex 2.28103 11.7248 2.1
      vertex 3.72542 5.1264 2.1
    endloop
  endfacet
  facet normal 0 0 1
    outer loop
      vertex 0 15.6 2.1
      vertex 2.28103 11.7248 2.1
      vertex 14.8365 4.82066 2.1
    endloop
  endfacet
  facet normal 0 0 1
    outer loop
      vertex 0 15.6 2.1
      vertex 0.55863 11.7248 2.1
      vertex 2.28103 11.7248 2.1
    endloop
  endfacet
  facet normal 0 0 1
    outer loop
      vertex 0 15.6 2.1
      vertex -3.65258 5.30959 2.1
      vertex 0.55863 11.7248 2.1
    endloop
  endfacet
  facet normal -0 0 1
    outer loop
      vertex -14.8365 4.82066 2.1
      vertex -3.65258 3.98719 2.1
      vertex -3.65258 5.30959 2.1
    endloop
  endfacet
  facet normal 0 0 1
    outer loop
      vertex -4.1 -1.4 2.1
      vertex -9.16945 -12.6207 2.1
      vertex -4.1 -9.6 2.1
    endloop
  endfacet
  facet normal 0 0 1
    outer loop
      vertex -3.65258 3.98719 2.1
      vertex -14.8365 4.82066 2.1
      vertex -4.1 -1.4 2.1
    endloop
  endfacet
  facet normal 0 0 1
    outer loop
      vertex -4.1 -1.4 2.1
      vertex -14.8365 4.82066 2.1
      vertex -9.16945 -12.6207 2.1
    endloop
  endfacet
  facet normal 0 0 1
    outer loop
      vertex -14.8365 4.82066 2.1
      vertex -3.65258 5.30959 2.1
      vertex 0 15.6 2.1
    endloop
  endfacet
  facet normal -0 0 1
    outer loop
      vertex 4.1 -9.6 2.1
      vertex 9.16945 -12.6207 2.1
      vertex 4.1 -1.4 2.1
    endloop
  endfacet
  facet normal -0 0 1
    outer loop
      vertex -4.1 -9.6 2.1
      vertex 9.16945 -12.6207 2.1
      vertex 4.1 -9.6 2.1
    endloop
  endfacet
  facet normal 0 0 1
    outer loop
      vertex 9.16945 -12.6207 2.1
      vertex -4.1 -9.6 2.1
      vertex -9.16945 -12.6207 2.1
    endloop
  endfacet
  facet normal 0 0 1
    outer loop
      vertex 14.8365 4.82066 2.1
      vertex 3.72542 3.98719 2.1
      vertex 4.1 -1.4 2.1
    endloop
  endfacet
  facet normal 0 0 1
    outer loop
      vertex 2.28103 1.6 2.1
      vertex 3.72542 3.98719 2.1
      vertex 2.28103 3.98719 2.1
    endloop
  endfacet
  facet normal 0 0 1
    outer loop
      vertex 3.72542 3.98719 2.1
      vertex 2.28103 1.6 2.1
      vertex 4.1 -1.4 2.1
    endloop
  endfacet
  facet normal -0 0 1
    outer loop
      vertex 0.91802 1.6 2.1
      vertex 4.1 -1.4 2.1
      vertex 2.28103 1.6 2.1
    endloop
  endfacet
  facet normal 0 0 1
    outer loop
      vertex -4.1 -1.4 2.1
      vertex 0.91802 1.6 2.1
      vertex -3.65258 3.98719 2.1
    endloop
  endfacet
  facet normal 0 0 1
    outer loop
      vertex 0.91802 1.6 2.1
      vertex -4.1 -1.4 2.1
      vertex 4.1 -1.4 2.1
    endloop
  endfacet
  facet normal 0 0 1
    outer loop
      vertex 3.72542 5.1264 2.1
      vertex 2.28103 11.7248 2.1
      vertex 2.28103 5.1264 2.1
    endloop
  endfacet
  facet normal 0 -0 1
    outer loop
      vertex 0.91802 5.1264 2.1
      vertex 0.91802 10.5313 2.1
      vertex -2.54037 5.1264 2.1
    endloop
  endfacet
  facet normal 0.951056 0.309017 0
    outer loop
      vertex -9.16945 -12.6207 3.7
      vertex -14.8365 4.82066 2.1
      vertex -14.8365 4.82066 3.7
    endloop
  endfacet
  facet normal 0.951056 0.309017 0
    outer loop
      vertex -14.8365 4.82066 2.1
      vertex -9.16945 -12.6207 3.7
      vertex -9.16945 -12.6207 2.1
    endloop
  endfacet
  facet normal -0.951056 0.309017 0
    outer loop
      vertex 9.16945 -12.6207 2.1
      vertex 14.8365 4.82066 3.7
      vertex 14.8365 4.82066 2.1
    endloop
  endfacet
  facet normal -0.951056 0.309017 0
    outer loop
      vertex 14.8365 4.82066 3.7
      vertex 9.16945 -12.6207 2.1
      vertex 9.16945 -12.6207 3.7
    endloop
  endfacet
  facet normal 0.587785 -0.809017 0
    outer loop
      vertex -14.8365 4.82066 2.1
      vertex 0 15.6 3.7
      vertex -14.8365 4.82066 3.7
    endloop
  endfacet
  facet normal 0.587785 -0.809017 0
    outer loop
      vertex 0 15.6 3.7
      vertex -14.8365 4.82066 2.1
      vertex 0 15.6 2.1
    endloop
  endfacet
  facet normal -0 0 1
    outer loop
      vertex -4.1 -1.4 0.8
      vertex 4.1 -9.6 0.8
      vertex 4.1 -1.4 0.8
    endloop
  endfacet
  facet normal 0 0 1
    outer loop
      vertex 4.1 -9.6 0.8
      vertex -4.1 -1.4 0.8
      vertex -4.1 -9.6 0.8
    endloop
  endfacet
  facet normal 1 -0 0
    outer loop
      vertex -4.1 -9.6 2.1
      vertex -4.1 -1.4 0.8
      vertex -4.1 -1.4 2.1
    endloop
  endfacet
  facet normal 1 0 0
    outer loop
      vertex -4.1 -1.4 0.8
      vertex -4.1 -9.6 2.1
      vertex -4.1 -9.6 0.8
    endloop
  endfacet
  facet normal 0 -1 0
    outer loop
      vertex -4.1 -1.4 0.8
      vertex 4.1 -1.4 2.1
      vertex -4.1 -1.4 2.1
    endloop
  endfacet
  facet normal 0 -1 -0
    outer loop
      vertex 4.1 -1.4 2.1
      vertex -4.1 -1.4 0.8
      vertex 4.1 -1.4 0.8
    endloop
  endfacet
  facet normal -1 0 0
    outer loop
      vertex 4.1 -9.6 0.8
      vertex 4.1 -1.4 2.1
      vertex 4.1 -1.4 0.8
    endloop
  endfacet
  facet normal -1 -0 0
    outer loop
      vertex 4.1 -1.4 2.1
      vertex 4.1 -9.6 0.8
      vertex 4.1 -9.6 2.1
    endloop
  endfacet
  facet normal 0 1 -0
    outer loop
      vertex 4.1 -9.6 0.8
      vertex -4.1 -9.6 2.1
      vertex 4.1 -9.6 2.1
    endloop
  endfacet
  facet normal 0 1 0
    outer loop
      vertex -4.1 -9.6 2.1
      vertex 4.1 -9.6 0.8
      vertex -4.1 -9.6 0.8
    endloop
  endfacet
  facet normal -0 0 1
    outer loop
      vertex -2.54037 5.1264 0.8
      vertex 0.91802 3.98719 0.8
      vertex 0.91802 5.1264 0.8
    endloop
  endfacet
  facet normal 0 0 1
    outer loop
      vertex -3.65258 3.98719 0.8
      vertex -2.54037 5.1264 0.8
      vertex -3.65258 5.30959 0.8
    endloop
  endfacet
  facet normal 0 0 1
    outer loop
      vertex -2.54037 5.1264 0.8
      vertex -3.65258 3.98719 0.8
      vertex 0.91802 3.98719 0.8
    endloop
  endfacet
  facet normal -0 0 1
    outer loop
      vertex 0.91802 10.5313 0.8
      vertex 2.28103 5.1264 0.8
      vertex 2.28103 11.7248 0.8
    endloop
  endfacet
  facet normal 0 0 1
    outer loop
      vertex 0.91802 5.1264 0.8
      vertex 2.28103 5.1264 0.8
      vertex 0.91802 10.5313 0.8
    endloop
  endfacet
  facet normal 0 0 1
    outer loop
      vertex 2.28103 5.1264 0.8
      vertex 0.91802 5.1264 0.8
      vertex 2.28103 3.98719 0.8
    endloop
  endfacet
  facet normal -0 0 1
    outer loop
      vertex 0.55863 11.7248 0.8
      vertex 0.91802 10.5313 0.8
      vertex 2.28103 11.7248 0.8
    endloop
  endfacet
  facet normal 0 0 1
    outer loop
      vertex -3.65258 5.30959 0.8
      vertex 0.91802 10.5313 0.8
      vertex 0.55863 11.7248 0.8
    endloop
  endfacet
  facet normal 0 0 1
    outer loop
      vertex 0.91802 10.5313 0.8
      vertex -3.65258 5.30959 0.8
      vertex -2.54037 5.1264 0.8
    endloop
  endfacet
  facet normal -0 0 1
    outer loop
      vertex 2.28103 5.1264 0.8
      vertex 3.72542 3.98719 0.8
      vertex 3.72542 5.1264 0.8
    endloop
  endfacet
  facet normal 0 0 1
    outer loop
      vertex 3.72542 3.98719 0.8
      vertex 2.28103 5.1264 0.8
      vertex 2.28103 3.98719 0.8
    endloop
  endfacet
  facet normal 0 0 1
    outer loop
      vertex 0.91802 3.98719 0.8
      vertex 2.28103 3.98719 0.8
      vertex 0.91802 5.1264 0.8
    endloop
  endfacet
  facet normal 0 0 1
    outer loop
      vertex 2.28103 3.98719 0.8
      vertex 0.91802 3.98719 0.8
      vertex 2.28103 1.6 0.8
    endloop
  endfacet
  facet normal 0 0 1
    outer loop
      vertex 2.28103 1.6 0.8
      vertex 0.91802 3.98719 0.8
      vertex 0.91802 1.6 0.8
    endloop
  endfacet
  facet normal 0 1 -0
    outer loop
      vertex 3.72542 3.98719 0.8
      vertex 2.28103 3.98719 2.1
      vertex 3.72542 3.98719 2.1
    endloop
  endfacet
  facet normal 0 1 0
    outer loop
      vertex 2.28103 3.98719 2.1
      vertex 3.72542 3.98719 0.8
      vertex 2.28103 3.98719 0.8
    endloop
  endfacet
  facet normal -1 0 0
    outer loop
      vertex 3.72542 3.98719 0.8
      vertex 3.72542 5.1264 2.1
      vertex 3.72542 5.1264 0.8
    endloop
  endfacet
  facet normal -1 -0 0
    outer loop
      vertex 3.72542 5.1264 2.1
      vertex 3.72542 3.98719 0.8
      vertex 3.72542 3.98719 2.1
    endloop
  endfacet
  facet normal 0 -1 0
    outer loop
      vertex 2.28103 5.1264 0.8
      vertex 3.72542 5.1264 2.1
      vertex 2.28103 5.1264 2.1
    endloop
  endfacet
  facet normal 0 -1 -0
    outer loop
      vertex 3.72542 5.1264 2.1
      vertex 2.28103 5.1264 0.8
      vertex 3.72542 5.1264 0.8
    endloop
  endfacet
  facet normal -1 0 0
    outer loop
      vertex 2.28103 5.1264 0.8
      vertex 2.28103 11.7248 2.1
      vertex 2.28103 11.7248 0.8
    endloop
  endfacet
  facet normal -1 -0 0
    outer loop
      vertex 2.28103 11.7248 2.1
      vertex 2.28103 5.1264 0.8
      vertex 2.28103 5.1264 2.1
    endloop
  endfacet
  facet normal 0 -1 0
    outer loop
      vertex 0.55863 11.7248 0.8
      vertex 2.28103 11.7248 2.1
      vertex 0.55863 11.7248 2.1
    endloop
  endfacet
  facet normal 0 -1 -0
    outer loop
      vertex 2.28103 11.7248 2.1
      vertex 0.55863 11.7248 0.8
      vertex 2.28103 11.7248 0.8
    endloop
  endfacet
  facet normal 0.835974 -0.548768 0
    outer loop
      vertex -3.65258 5.30959 2.1
      vertex 0.55863 11.7248 0.8
      vertex 0.55863 11.7248 2.1
    endloop
  endfacet
  facet normal 0.835974 -0.548768 0
    outer loop
      vertex 0.55863 11.7248 0.8
      vertex -3.65258 5.30959 2.1
      vertex -3.65258 5.30959 0.8
    endloop
  endfacet
  facet normal 1 -0 0
    outer loop
      vertex -3.65258 3.98719 2.1
      vertex -3.65258 5.30959 0.8
      vertex -3.65258 5.30959 2.1
    endloop
  endfacet
  facet normal 1 0 0
    outer loop
      vertex -3.65258 5.30959 0.8
      vertex -3.65258 3.98719 2.1
      vertex -3.65258 3.98719 0.8
    endloop
  endfacet
  facet normal 0 1 -0
    outer loop
      vertex 0.91802 3.98719 0.8
      vertex -3.65258 3.98719 2.1
      vertex 0.91802 3.98719 2.1
    endloop
  endfacet
  facet normal 0 1 0
    outer loop
      vertex -3.65258 3.98719 2.1
      vertex 0.91802 3.98719 0.8
      vertex -3.65258 3.98719 0.8
    endloop
  endfacet
  facet normal 1 -0 0
    outer loop
      vertex 0.91802 1.6 2.1
      vertex 0.91802 3.98719 0.8
      vertex 0.91802 3.98719 2.1
    endloop
  endfacet
  facet normal 1 0 0
    outer loop
      vertex 0.91802 3.98719 0.8
      vertex 0.91802 1.6 2.1
      vertex 0.91802 1.6 0.8
    endloop
  endfacet
  facet normal 0 1 -0
    outer loop
      vertex 2.28103 1.6 0.8
      vertex 0.91802 1.6 2.1
      vertex 2.28103 1.6 2.1
    endloop
  endfacet
  facet normal 0 1 0
    outer loop
      vertex 0.91802 1.6 2.1
      vertex 2.28103 1.6 0.8
      vertex 0.91802 1.6 0.8
    endloop
  endfacet
  facet normal -1 0 0
    outer loop
      vertex 2.28103 1.6 0.8
      vertex 2.28103 3.98719 2.1
      vertex 2.28103 3.98719 0.8
    endloop
  endfacet
  facet normal -1 -0 0
    outer loop
      vertex 2.28103 3.98719 2.1
      vertex 2.28103 1.6 0.8
      vertex 2.28103 1.6 2.1
    endloop
  endfacet
  facet normal -0.842324 0.538971 0
    outer loop
      vertex -2.54037 5.1264 0.8
      vertex 0.91802 10.5313 2.1
      vertex 0.91802 10.5313 0.8
    endloop
  endfacet
  facet normal -0.842324 0.538971 0
    outer loop
      vertex 0.91802 10.5313 2.1
      vertex -2.54037 5.1264 0.8
      vertex -2.54037 5.1264 2.1
    endloop
  endfacet
  facet normal 1 -0 0
    outer loop
      vertex 0.91802 5.1264 2.1
      vertex 0.91802 10.5313 0.8
      vertex 0.91802 10.5313 2.1
    endloop
  endfacet
  facet normal 1 0 0
    outer loop
      vertex 0.91802 10.5313 0.8
      vertex 0.91802 5.1264 2.1
      vertex 0.91802 5.1264 0.8
    endloop
  endfacet
  facet normal 0 -1 0
    outer loop
      vertex -2.54037 5.1264 0.8
      vertex 0.91802 5.1264 2.1
      vertex -2.54037 5.1264 2.1
    endloop
  endfacet
  facet normal 0 -1 -0
    outer loop
      vertex 0.91802 5.1264 2.1
      vertex -2.54037 5.1264 0.8
      vertex 0.91802 5.1264 0.8
    endloop
  endfacet
endsolid OpenSCAD_Model
