solid OpenSCAD_Model
  facet normal 0.587785 0.809017 -0
    outer loop
      vertex 16.3582 5.31509 0
      vertex 0 17.2 3.7
      vertex 16.3582 5.31509 3.7
    endloop
  endfacet
  facet normal 0.587785 0.809017 0
    outer loop
      vertex 0 17.2 3.7
      vertex 16.3582 5.31509 0
      vertex 0 17.2 0
    endloop
  endfacet
  facet normal 0 0 1
    outer loop
      vertex 0 17.2 3.7
      vertex 14.8365 4.82066 3.7
      vertex 16.3582 5.31509 3.7
    endloop
  endfacet
  facet normal 0 0 1
    outer loop
      vertex 0 17.2 3.7
      vertex 0 15.6 3.7
      vertex 14.8365 4.82066 3.7
    endloop
  endfacet
  facet normal 0 0 1
    outer loop
      vertex 0 17.2 3.7
      vertex -14.8365 4.82066 3.7
      vertex 0 15.6 3.7
    endloop
  endfacet
  facet normal 0 -0 1
    outer loop
      vertex -14.8365 4.82066 3.7
      vertex 0 17.2 3.7
      vertex -16.3582 5.31509 3.7
    endloop
  endfacet
  facet normal -0 0 1
    outer loop
      vertex 14.8365 4.82066 3.7
      vertex 10.1099 -13.9151 3.7
      vertex 16.3582 5.31509 3.7
    endloop
  endfacet
  facet normal -0 0 1
    outer loop
      vertex 9.16945 -12.6207 3.7
      vertex 10.1099 -13.9151 3.7
      vertex 14.8365 4.82066 3.7
    endloop
  endfacet
  facet normal -0 0 1
    outer loop
      vertex -9.16945 -12.6207 3.7
      vertex 10.1099 -13.9151 3.7
      vertex 9.16945 -12.6207 3.7
    endloop
  endfacet
  facet normal 0 0 1
    outer loop
      vertex -9.16945 -12.6207 3.7
      vertex -10.1099 -13.9151 3.7
      vertex 10.1099 -13.9151 3.7
    endloop
  endfacet
  facet normal 0 0 1
    outer loop
      vertex -14.8365 4.82066 3.7
      vertex -10.1099 -13.9151 3.7
      vertex -9.16945 -12.6207 3.7
    endloop
  endfacet
  facet normal 0 0 1
    outer loop
      vertex -10.1099 -13.9151 3.7
      vertex -14.8365 4.82066 3.7
      vertex -16.3582 5.31509 3.7
    endloop
  endfacet
  facet normal 0 0 -1
    outer loop
      vertex 10.1099 -13.9151 0
      vertex 0 17.2 0
      vertex 16.3582 5.31509 0
    endloop
  endfacet
  facet normal 0 0 -1
    outer loop
      vertex -10.1099 -13.9151 0
      vertex 0 17.2 0
      vertex 10.1099 -13.9151 0
    endloop
  endfacet
  facet normal 0 0 -1
    outer loop
      vertex 0 17.2 0
      vertex -10.1099 -13.9151 0
      vertex -16.3582 5.31509 0
    endloop
  endfacet
  facet normal -0.951056 -0.309018 0
    outer loop
      vertex -10.1099 -13.9151 0
      vertex -16.3582 5.31509 3.7
      vertex -16.3582 5.31509 0
    endloop
  endfacet
  facet normal -0.951056 -0.309018 0
    outer loop
      vertex -16.3582 5.31509 3.7
      vertex -10.1099 -13.9151 0
      vertex -10.1099 -13.9151 3.7
    endloop
  endfacet
  facet normal 0 -1 0
    outer loop
      vertex -10.1099 -13.9151 0
      vertex 10.1099 -13.9151 3.7
      vertex -10.1099 -13.9151 3.7
    endloop
  endfacet
  facet normal 0 -1 -0
    outer loop
      vertex 10.1099 -13.9151 3.7
      vertex -10.1099 -13.9151 0
      vertex 10.1099 -13.9151 0
    endloop
  endfacet
  facet normal 0.951056 -0.309018 0
    outer loop
      vertex 10.1099 -13.9151 3.7
      vertex 16.3582 5.31509 0
      vertex 16.3582 5.31509 3.7
    endloop
  endfacet
  facet normal 0.951056 -0.309018 0
    outer loop
      vertex 16.3582 5.31509 0
      vertex 10.1099 -13.9151 3.7
      vertex 10.1099 -13.9151 0
    endloop
  endfacet
  facet normal -0.587785 0.809017 0
    outer loop
      vertex 0 17.2 0
      vertex -16.3582 5.31509 3.7
      vertex 0 17.2 3.7
    endloop
  endfacet
  facet normal -0.587785 0.809017 0
    outer loop
      vertex -16.3582 5.31509 3.7
      vertex 0 17.2 0
      vertex -16.3582 5.31509 0
    endloop
  endfacet
  facet normal 0 1 -0
    outer loop
      vertex 9.16945 -12.6207 2.1
      vertex -9.16945 -12.6207 3.7
      vertex 9.16945 -12.6207 3.7
    endloop
  endfacet
  facet normal 0 1 0
    outer loop
      vertex -9.16945 -12.6207 3.7
      vertex 9.16945 -12.6207 2.1
      vertex -9.16945 -12.6207 2.1
    endloop
  endfacet
  facet normal -0.587785 -0.809017 0
    outer loop
      vertex 0 15.6 2.1
      vertex 14.8365 4.82066 3.7
      vertex 0 15.6 3.7
    endloop
  endfacet
  facet normal -0.587785 -0.809017 -0
    outer loop
      vertex 14.8365 4.82066 3.7
      vertex 0 15.6 2.1
      vertex 14.8365 4.82066 2.1
    endloop
  endfacet
  facet normal 0 0 1
    outer loop
      vertex 14.8365 4.82066 2.1
      vertex 4.1 -1.4 2.1
      vertex 9.16945 -12.6207 2.1
    endloop
  endfacet
  facet normal 0 0 1
    outer loop
      vertex 3.3287 3.83366 2.1
      vertex 14.8365 4.82066 2.1
      vertex 3.39312 4.5404 2.1
    endloop
  endfacet
  facet normal 0 0 1
    outer loop
      vertex 14.8365 4.82066 2.1
      vertex 3.35859 5.009 2.1
      vertex 3.39312 4.5404 2.1
    endloop
  endfacet
  facet normal 0 0 1
    outer loop
      vertex 14.8365 4.82066 2.1
      vertex 3.25495 5.43862 2.1
      vertex 3.35859 5.009 2.1
    endloop
  endfacet
  facet normal -0 0 1
    outer loop
      vertex 3.12574 8.87797 2.1
      vertex 14.8365 4.82066 2.1
      vertex 3.15583 9.28259 2.1
    endloop
  endfacet
  facet normal 0 0 1
    outer loop
      vertex 14.8365 4.82066 2.1
      vertex 3.09904 9.85574 2.1
      vertex 3.15583 9.28259 2.1
    endloop
  endfacet
  facet normal 0 0 1
    outer loop
      vertex 14.8365 4.82066 2.1
      vertex 2.92866 10.3665 2.1
      vertex 3.09904 9.85574 2.1
    endloop
  endfacet
  facet normal 0 0 1
    outer loop
      vertex 14.8365 4.82066 2.1
      vertex 2.64467 10.8148 2.1
      vertex 2.92866 10.3665 2.1
    endloop
  endfacet
  facet normal 0 0 1
    outer loop
      vertex 0 15.6 2.1
      vertex 2.64467 10.8148 2.1
      vertex 14.8365 4.82066 2.1
    endloop
  endfacet
  facet normal 0 0 1
    outer loop
      vertex 2.64467 10.8148 2.1
      vertex 0 15.6 2.1
      vertex 2.24712 11.2008 2.1
    endloop
  endfacet
  facet normal 0 0 1
    outer loop
      vertex 2.24712 11.2008 2.1
      vertex 0 15.6 2.1
      vertex 1.75208 11.5112 2.1
    endloop
  endfacet
  facet normal 0 0 1
    outer loop
      vertex 0 15.6 2.1
      vertex 1.17568 11.733 2.1
      vertex 1.75208 11.5112 2.1
    endloop
  endfacet
  facet normal 0 0 1
    outer loop
      vertex 0 15.6 2.1
      vertex 0.517889 11.866 2.1
      vertex 1.17568 11.733 2.1
    endloop
  endfacet
  facet normal 0 0 1
    outer loop
      vertex 0 15.6 2.1
      vertex -0.221276 11.9104 2.1
      vertex 0.517889 11.866 2.1
    endloop
  endfacet
  facet normal 0 0 1
    outer loop
      vertex 0 15.6 2.1
      vertex -0.527902 11.9036 2.1
      vertex -0.221276 11.9104 2.1
    endloop
  endfacet
  facet normal 0 0 1
    outer loop
      vertex 0 15.6 2.1
      vertex -0.844293 11.8832 2.1
      vertex -0.527902 11.9036 2.1
    endloop
  endfacet
  facet normal 0 0 1
    outer loop
      vertex 0 15.6 2.1
      vertex -1.17045 11.8492 2.1
      vertex -0.844293 11.8832 2.1
    endloop
  endfacet
  facet normal 0 0 1
    outer loop
      vertex 0 15.6 2.1
      vertex -1.50637 11.8016 2.1
      vertex -1.17045 11.8492 2.1
    endloop
  endfacet
  facet normal 0 0 1
    outer loop
      vertex 0 15.6 2.1
      vertex -1.85326 11.7404 2.1
      vertex -1.50637 11.8016 2.1
    endloop
  endfacet
  facet normal 0 0 1
    outer loop
      vertex 0 15.6 2.1
      vertex -2.21246 11.6656 2.1
      vertex -1.85326 11.7404 2.1
    endloop
  endfacet
  facet normal 0 0 1
    outer loop
      vertex 0 15.6 2.1
      vertex -2.58392 11.5772 2.1
      vertex -2.21246 11.6656 2.1
    endloop
  endfacet
  facet normal 0 0 1
    outer loop
      vertex 0 15.6 2.1
      vertex -2.96768 11.4752 2.1
      vertex -2.58392 11.5772 2.1
    endloop
  endfacet
  facet normal 0 0 1
    outer loop
      vertex -14.8365 4.82066 2.1
      vertex -2.96768 10.2528 2.1
      vertex -2.96768 11.4752 2.1
    endloop
  endfacet
  facet normal 0 0 1
    outer loop
      vertex -2.96768 10.2528 2.1
      vertex -3.27277 3.22559 2.1
      vertex -2.98119 3.06947 2.1
    endloop
  endfacet
  facet normal 0 0 1
    outer loop
      vertex -14.8365 4.82066 2.1
      vertex -3.27277 1.9008 2.1
      vertex -3.27277 3.22559 2.1
    endloop
  endfacet
  facet normal 0 0 1
    outer loop
      vertex -2.96768 10.2528 2.1
      vertex -14.8365 4.82066 2.1
      vertex -3.27277 3.22559 2.1
    endloop
  endfacet
  facet normal 0 0 1
    outer loop
      vertex -4.1 -1.4 2.1
      vertex -9.16945 -12.6207 2.1
      vertex -4.1 -9.6 2.1
    endloop
  endfacet
  facet normal 0 0 1
    outer loop
      vertex -3.27277 1.9008 2.1
      vertex -14.8365 4.82066 2.1
      vertex -4.1 -1.4 2.1
    endloop
  endfacet
  facet normal 0 0 1
    outer loop
      vertex -4.1 -1.4 2.1
      vertex -14.8365 4.82066 2.1
      vertex -9.16945 -12.6207 2.1
    endloop
  endfacet
  facet normal 0 0 1
    outer loop
      vertex -14.8365 4.82066 2.1
      vertex -2.96768 11.4752 2.1
      vertex 0 15.6 2.1
    endloop
  endfacet
  facet normal -0 0 1
    outer loop
      vertex 4.1 -9.6 2.1
      vertex 9.16945 -12.6207 2.1
      vertex 4.1 -1.4 2.1
    endloop
  endfacet
  facet normal -0 0 1
    outer loop
      vertex -4.1 -9.6 2.1
      vertex 9.16945 -12.6207 2.1
      vertex 4.1 -9.6 2.1
    endloop
  endfacet
  facet normal 0 0 1
    outer loop
      vertex 9.16945 -12.6207 2.1
      vertex -4.1 -9.6 2.1
      vertex -9.16945 -12.6207 2.1
    endloop
  endfacet
  facet normal 0 0 1
    outer loop
      vertex 14.8365 4.82066 2.1
      vertex 3.3287 3.83366 2.1
      vertex 4.1 -1.4 2.1
    endloop
  endfacet
  facet normal -0 0 1
    outer loop
      vertex 3.13543 3.21166 2.1
      vertex 4.1 -1.4 2.1
      vertex 3.3287 3.83366 2.1
    endloop
  endfacet
  facet normal -0 0 1
    outer loop
      vertex 2.8133 2.67442 2.1
      vertex 4.1 -1.4 2.1
      vertex 3.13543 3.21166 2.1
    endloop
  endfacet
  facet normal -0 0 1
    outer loop
      vertex 2.36233 2.22189 2.1
      vertex 4.1 -1.4 2.1
      vertex 2.8133 2.67442 2.1
    endloop
  endfacet
  facet normal -0 0 1
    outer loop
      vertex 1.79273 1.86302 2.1
      vertex 4.1 -1.4 2.1
      vertex 2.36233 2.22189 2.1
    endloop
  endfacet
  facet normal -0 0 1
    outer loop
      vertex 1.11463 1.60667 2.1
      vertex 4.1 -1.4 2.1
      vertex 1.79273 1.86302 2.1
    endloop
  endfacet
  facet normal -0 0 1
    outer loop
      vertex 0.328024 1.45287 2.1
      vertex 4.1 -1.4 2.1
      vertex 1.11463 1.60667 2.1
    endloop
  endfacet
  facet normal -0 0 1
    outer loop
      vertex -0.567071 1.4016 2.1
      vertex 4.1 -1.4 2.1
      vertex 0.328024 1.45287 2.1
    endloop
  endfacet
  facet normal 0 0 1
    outer loop
      vertex -4.1 -1.4 2.1
      vertex -0.567071 1.4016 2.1
      vertex -0.888116 1.4094 2.1
    endloop
  endfacet
  facet normal 0 0 1
    outer loop
      vertex -4.1 -1.4 2.1
      vertex -0.888116 1.4094 2.1
      vertex -1.21383 1.43281 2.1
    endloop
  endfacet
  facet normal 0 0 1
    outer loop
      vertex -4.1 -1.4 2.1
      vertex -1.21383 1.43281 2.1
      vertex -1.54421 1.47181 2.1
    endloop
  endfacet
  facet normal 0 0 1
    outer loop
      vertex -4.1 -1.4 2.1
      vertex -1.54421 1.47181 2.1
      vertex -1.87928 1.52641 2.1
    endloop
  endfacet
  facet normal 0 0 1
    outer loop
      vertex -4.1 -1.4 2.1
      vertex -1.87928 1.52641 2.1
      vertex -2.21938 1.59661 2.1
    endloop
  endfacet
  facet normal 0 0 1
    outer loop
      vertex -4.1 -1.4 2.1
      vertex -2.21938 1.59661 2.1
      vertex -2.565 1.6824 2.1
    endloop
  endfacet
  facet normal 0 0 1
    outer loop
      vertex -4.1 -1.4 2.1
      vertex -2.565 1.6824 2.1
      vertex -2.91613 1.78379 2.1
    endloop
  endfacet
  facet normal 0 0 1
    outer loop
      vertex -4.1 -1.4 2.1
      vertex -2.91613 1.78379 2.1
      vertex -3.27277 1.9008 2.1
    endloop
  endfacet
  facet normal 0 0 1
    outer loop
      vertex -0.567071 1.4016 2.1
      vertex -4.1 -1.4 2.1
      vertex 4.1 -1.4 2.1
    endloop
  endfacet
  facet normal 0 0 1
    outer loop
      vertex 14.8365 4.82066 2.1
      vertex 3.12574 8.87797 2.1
      vertex 3.25495 5.43862 2.1
    endloop
  endfacet
  facet normal -0 0 1
    outer loop
      vertex 3.03545 8.50602 2.1
      vertex 3.25495 5.43862 2.1
      vertex 3.12574 8.87797 2.1
    endloop
  endfacet
  facet normal 0 0 1
    outer loop
      vertex 3.25495 5.43862 2.1
      vertex 3.03545 8.50602 2.1
      vertex 3.08224 5.82925 2.1
    endloop
  endfacet
  facet normal -0 0 1
    outer loop
      vertex 2.88498 8.16673 2.1
      vertex 3.08224 5.82925 2.1
      vertex 3.03545 8.50602 2.1
    endloop
  endfacet
  facet normal 0 0 1
    outer loop
      vertex 2.88498 8.16673 2.1
      vertex 2.84043 6.18089 2.1
      vertex 3.08224 5.82925 2.1
    endloop
  endfacet
  facet normal -0 0 1
    outer loop
      vertex 2.67432 7.86009 2.1
      vertex 2.84043 6.18089 2.1
      vertex 2.88498 8.16673 2.1
    endloop
  endfacet
  facet normal 0 0 1
    outer loop
      vertex 2.67432 7.86009 2.1
      vertex 2.53721 6.4847 2.1
      vertex 2.84043 6.18089 2.1
    endloop
  endfacet
  facet normal -0 0 1
    outer loop
      vertex 2.40819 7.59211 2.1
      vertex 2.53721 6.4847 2.1
      vertex 2.67432 7.86009 2.1
    endloop
  endfacet
  facet normal 0 0 1
    outer loop
      vertex 2.40819 7.59211 2.1
      vertex 2.18015 6.73174 2.1
      vertex 2.53721 6.4847 2.1
    endloop
  endfacet
  facet normal -0 0 1
    outer loop
      vertex 2.09118 7.36869 2.1
      vertex 2.18015 6.73174 2.1
      vertex 2.40819 7.59211 2.1
    endloop
  endfacet
  facet normal 0 0 1
    outer loop
      vertex 2.09118 7.36869 2.1
      vertex 1.76926 6.92201 2.1
      vertex 2.18015 6.73174 2.1
    endloop
  endfacet
  facet normal -0 0 1
    outer loop
      vertex 1.72329 7.18981 2.1
      vertex 1.76926 6.92201 2.1
      vertex 2.09118 7.36869 2.1
    endloop
  endfacet
  facet normal 0 0 1
    outer loop
      vertex 1.76926 6.92201 2.1
      vertex 1.72329 7.18981 2.1
      vertex 1.30453 7.05549 2.1
    endloop
  endfacet
  facet normal 0 0 1
    outer loop
      vertex 0.933935 10.5233 2.1
      vertex 1.79282 9.14098 2.1
      vertex 1.75828 9.50901 2.1
    endloop
  endfacet
  facet normal 0 0 1
    outer loop
      vertex 1.79282 9.14098 2.1
      vertex 0.959509 7.79861 2.1
      vertex 1.75934 8.78274 2.1
    endloop
  endfacet
  facet normal 0 0 1
    outer loop
      vertex 1.24012 10.3404 2.1
      vertex 1.75828 9.50901 2.1
      vertex 1.65465 9.8316 2.1
    endloop
  endfacet
  facet normal 0 -0 1
    outer loop
      vertex 1.25702 7.97549 2.1
      vertex 1.75934 8.78274 2.1
      vertex 0.959509 7.79861 2.1
    endloop
  endfacet
  facet normal 0 0 1
    outer loop
      vertex 1.24012 10.3404 2.1
      vertex 1.65465 9.8316 2.1
      vertex 1.48192 10.1087 2.1
    endloop
  endfacet
  facet normal 0 0 1
    outer loop
      vertex 1.65888 8.46906 2.1
      vertex 1.25702 7.97549 2.1
      vertex 1.49143 8.19999 2.1
    endloop
  endfacet
  facet normal 0 0 1
    outer loop
      vertex 0.933935 10.5233 2.1
      vertex 1.75828 9.50901 2.1
      vertex 1.24012 10.3404 2.1
    endloop
  endfacet
  facet normal 0 0 1
    outer loop
      vertex 1.75934 8.78274 2.1
      vertex 1.25702 7.97549 2.1
      vertex 1.65888 8.46906 2.1
    endloop
  endfacet
  facet normal 0 0 1
    outer loop
      vertex 1.79282 9.14098 2.1
      vertex 0.933935 10.5233 2.1
      vertex 0.959509 7.79861 2.1
    endloop
  endfacet
  facet normal 0 0 1
    outer loop
      vertex 0.933935 10.5233 2.1
      vertex 0.602652 7.67227 2.1
      vertex 0.959509 7.79861 2.1
    endloop
  endfacet
  facet normal 0 0 1
    outer loop
      vertex 0.567968 10.6539 2.1
      vertex 0.602652 7.67227 2.1
      vertex 0.933935 10.5233 2.1
    endloop
  endfacet
  facet normal 0 0 1
    outer loop
      vertex 0.567968 10.6539 2.1
      vertex 0.186453 7.59646 2.1
      vertex 0.602652 7.67227 2.1
    endloop
  endfacet
  facet normal 0 0 1
    outer loop
      vertex 0.142233 10.7323 2.1
      vertex 0.186453 7.59646 2.1
      vertex 0.567968 10.6539 2.1
    endloop
  endfacet
  facet normal 0 0 1
    outer loop
      vertex 0.142233 10.7323 2.1
      vertex -0.289071 7.57119 2.1
      vertex 0.186453 7.59646 2.1
    endloop
  endfacet
  facet normal 0 0 1
    outer loop
      vertex -0.34327 10.7584 2.1
      vertex -0.289071 7.57119 2.1
      vertex 0.142233 10.7323 2.1
    endloop
  endfacet
  facet normal -0 0 1
    outer loop
      vertex -0.6298 10.7507 2.1
      vertex -0.289071 7.57119 2.1
      vertex -0.34327 10.7584 2.1
    endloop
  endfacet
  facet normal -0 0 1
    outer loop
      vertex -0.926492 10.7276 2.1
      vertex -0.289071 7.57119 2.1
      vertex -0.6298 10.7507 2.1
    endloop
  endfacet
  facet normal -0 0 1
    outer loop
      vertex -1.23336 10.6892 2.1
      vertex -0.289071 7.57119 2.1
      vertex -0.926492 10.7276 2.1
    endloop
  endfacet
  facet normal 0 0 1
    outer loop
      vertex -1.23336 10.6892 2.1
      vertex -1.52328 7.57119 2.1
      vertex -0.289071 7.57119 2.1
    endloop
  endfacet
  facet normal -0 0 1
    outer loop
      vertex -1.88053 10.5653 2.1
      vertex -1.52328 7.57119 2.1
      vertex -1.55038 10.6354 2.1
    endloop
  endfacet
  facet normal -0 0 1
    outer loop
      vertex -1.55038 10.6354 2.1
      vertex -1.52328 7.57119 2.1
      vertex -1.23336 10.6892 2.1
    endloop
  endfacet
  facet normal 0 0 1
    outer loop
      vertex 1.05849 6.16067 2.1
      vertex 2.03013 4.5399 2.1
      vertex 1.99091 4.96293 2.1
    endloop
  endfacet
  facet normal 0 0 1
    outer loop
      vertex 1.40282 5.93969 2.1
      vertex 1.99091 4.96293 2.1
      vertex 1.8733 5.33724 2.1
    endloop
  endfacet
  facet normal 0 0 1
    outer loop
      vertex 0.6527 6.31852 2.1
      vertex 2.03013 4.5399 2.1
      vertex 1.05849 6.16067 2.1
    endloop
  endfacet
  facet normal 0 0 1
    outer loop
      vertex 1.40282 5.93969 2.1
      vertex 1.8733 5.33724 2.1
      vertex 1.67727 5.66284 2.1
    endloop
  endfacet
  facet normal 0 0 1
    outer loop
      vertex 1.99091 4.96293 2.1
      vertex 1.40282 5.93969 2.1
      vertex 1.05849 6.16067 2.1
    endloop
  endfacet
  facet normal 0 0 1
    outer loop
      vertex 2.03013 4.5399 2.1
      vertex 0.97962 2.83956 2.1
      vertex 1.98795 4.08399 2.1
    endloop
  endfacet
  facet normal 0 0 1
    outer loop
      vertex 1.86143 3.68572 2.1
      vertex 1.35532 3.06199 2.1
      vertex 1.65055 3.34506 2.1
    endloop
  endfacet
  facet normal 0 -0 1
    outer loop
      vertex 1.35532 3.06199 2.1
      vertex 1.98795 4.08399 2.1
      vertex 0.97962 2.83956 2.1
    endloop
  endfacet
  facet normal 0 0 1
    outer loop
      vertex 1.98795 4.08399 2.1
      vertex 1.35532 3.06199 2.1
      vertex 1.86143 3.68572 2.1
    endloop
  endfacet
  facet normal 0 0 1
    outer loop
      vertex 2.03013 4.5399 2.1
      vertex 0.6527 6.31852 2.1
      vertex 0.97962 2.83956 2.1
    endloop
  endfacet
  facet normal 0 0 1
    outer loop
      vertex 0.6527 6.31852 2.1
      vertex 0.527197 2.68069 2.1
      vertex 0.97962 2.83956 2.1
    endloop
  endfacet
  facet normal 0 0 1
    outer loop
      vertex 0.185446 6.41322 2.1
      vertex 0.527197 2.68069 2.1
      vertex 0.6527 6.31852 2.1
    endloop
  endfacet
  facet normal 0 0 1
    outer loop
      vertex 0.185446 6.41322 2.1
      vertex -0.00193119 2.58537 2.1
      vertex 0.527197 2.68069 2.1
    endloop
  endfacet
  facet normal 0 0 1
    outer loop
      vertex -0.34327 6.44479 2.1
      vertex -0.00193119 2.58537 2.1
      vertex 0.185446 6.41322 2.1
    endloop
  endfacet
  facet normal 0 0 1
    outer loop
      vertex -0.34327 6.44479 2.1
      vertex -0.607781 2.5536 2.1
      vertex -0.00193119 2.58537 2.1
    endloop
  endfacet
  facet normal 0 0 1
    outer loop
      vertex -0.34327 6.44479 2.1
      vertex -0.973519 2.5642 2.1
      vertex -0.607781 2.5536 2.1
    endloop
  endfacet
  facet normal -0 0 1
    outer loop
      vertex -1.52328 6.44479 2.1
      vertex -0.973519 2.5642 2.1
      vertex -0.34327 6.44479 2.1
    endloop
  endfacet
  facet normal 0 0 1
    outer loop
      vertex -0.973519 2.5642 2.1
      vertex -1.52328 6.44479 2.1
      vertex -1.33164 2.59602 2.1
    endloop
  endfacet
  facet normal 0 0 1
    outer loop
      vertex -1.52328 6.44479 2.1
      vertex -1.68217 2.64904 2.1
      vertex -1.33164 2.59602 2.1
    endloop
  endfacet
  facet normal -0 0 1
    outer loop
      vertex -2.2268 10.4782 2.1
      vertex -1.52328 7.57119 2.1
      vertex -1.88053 10.5653 2.1
    endloop
  endfacet
  facet normal -0 0 1
    outer loop
      vertex -2.58918 10.374 2.1
      vertex -1.52328 7.57119 2.1
      vertex -2.2268 10.4782 2.1
    endloop
  endfacet
  facet normal 0 0 1
    outer loop
      vertex -1.52328 6.44479 2.1
      vertex -2.02508 2.72329 2.1
      vertex -1.68217 2.64904 2.1
    endloop
  endfacet
  facet normal -0 0 1
    outer loop
      vertex -2.96768 10.2528 2.1
      vertex -1.52328 7.57119 2.1
      vertex -2.58918 10.374 2.1
    endloop
  endfacet
  facet normal 0 0 1
    outer loop
      vertex -1.52328 6.44479 2.1
      vertex -2.35734 2.81832 2.1
      vertex -2.02508 2.72329 2.1
    endloop
  endfacet
  facet normal 0 0 1
    outer loop
      vertex -1.52328 7.57119 2.1
      vertex -2.96768 10.2528 2.1
      vertex -1.52328 6.44479 2.1
    endloop
  endfacet
  facet normal 0 0 1
    outer loop
      vertex -1.52328 6.44479 2.1
      vertex -2.67605 2.93372 2.1
      vertex -2.35734 2.81832 2.1
    endloop
  endfacet
  facet normal 0 0 1
    outer loop
      vertex -1.52328 6.44479 2.1
      vertex -2.96768 10.2528 2.1
      vertex -2.98119 3.06947 2.1
    endloop
  endfacet
  facet normal 0 0 1
    outer loop
      vertex -1.52328 6.44479 2.1
      vertex -2.98119 3.06947 2.1
      vertex -2.67605 2.93372 2.1
    endloop
  endfacet
  facet normal 0.951056 0.309017 0
    outer loop
      vertex -9.16945 -12.6207 3.7
      vertex -14.8365 4.82066 2.1
      vertex -14.8365 4.82066 3.7
    endloop
  endfacet
  facet normal 0.951056 0.309017 0
    outer loop
      vertex -14.8365 4.82066 2.1
      vertex -9.16945 -12.6207 3.7
      vertex -9.16945 -12.6207 2.1
    endloop
  endfacet
  facet normal -0.951056 0.309017 0
    outer loop
      vertex 9.16945 -12.6207 2.1
      vertex 14.8365 4.82066 3.7
      vertex 14.8365 4.82066 2.1
    endloop
  endfacet
  facet normal -0.951056 0.309017 0
    outer loop
      vertex 14.8365 4.82066 3.7
      vertex 9.16945 -12.6207 2.1
      vertex 9.16945 -12.6207 3.7
    endloop
  endfacet
  facet normal 0.587785 -0.809017 0
    outer loop
      vertex -14.8365 4.82066 2.1
      vertex 0 15.6 3.7
      vertex -14.8365 4.82066 3.7
    endloop
  endfacet
  facet normal 0.587785 -0.809017 0
    outer loop
      vertex 0 15.6 3.7
      vertex -14.8365 4.82066 2.1
      vertex 0 15.6 2.1
    endloop
  endfacet
  facet normal -0 0 1
    outer loop
      vertex -4.1 -1.4 0.8
      vertex 4.1 -9.6 0.8
      vertex 4.1 -1.4 0.8
    endloop
  endfacet
  facet normal 0 0 1
    outer loop
      vertex 4.1 -9.6 0.8
      vertex -4.1 -1.4 0.8
      vertex -4.1 -9.6 0.8
    endloop
  endfacet
  facet normal 1 -0 0
    outer loop
      vertex -4.1 -9.6 2.1
      vertex -4.1 -1.4 0.8
      vertex -4.1 -1.4 2.1
    endloop
  endfacet
  facet normal 1 0 0
    outer loop
      vertex -4.1 -1.4 0.8
      vertex -4.1 -9.6 2.1
      vertex -4.1 -9.6 0.8
    endloop
  endfacet
  facet normal 0 -1 0
    outer loop
      vertex -4.1 -1.4 0.8
      vertex 4.1 -1.4 2.1
      vertex -4.1 -1.4 2.1
    endloop
  endfacet
  facet normal 0 -1 -0
    outer loop
      vertex 4.1 -1.4 2.1
      vertex -4.1 -1.4 0.8
      vertex 4.1 -1.4 0.8
    endloop
  endfacet
  facet normal -1 0 0
    outer loop
      vertex 4.1 -9.6 0.8
      vertex 4.1 -1.4 2.1
      vertex 4.1 -1.4 0.8
    endloop
  endfacet
  facet normal -1 -0 0
    outer loop
      vertex 4.1 -1.4 2.1
      vertex 4.1 -9.6 0.8
      vertex 4.1 -9.6 2.1
    endloop
  endfacet
  facet normal 0 1 -0
    outer loop
      vertex 4.1 -9.6 0.8
      vertex -4.1 -9.6 2.1
      vertex 4.1 -9.6 2.1
    endloop
  endfacet
  facet normal 0 1 0
    outer loop
      vertex -4.1 -9.6 2.1
      vertex 4.1 -9.6 0.8
      vertex -4.1 -9.6 0.8
    endloop
  endfacet
  facet normal -0 0 1
    outer loop
      vertex 1.75828 9.50901 0.8
      vertex 3.15583 9.28259 0.8
      vertex 3.09904 9.85574 0.8
    endloop
  endfacet
  facet normal 0 0 1
    outer loop
      vertex 3.15583 9.28259 0.8
      vertex 1.79282 9.14098 0.8
      vertex 3.12574 8.87797 0.8
    endloop
  endfacet
  facet normal 0 0 1
    outer loop
      vertex 1.65465 9.8316 0.8
      vertex 3.09904 9.85574 0.8
      vertex 2.92866 10.3665 0.8
    endloop
  endfacet
  facet normal 0 0 1
    outer loop
      vertex 1.75934 8.78274 0.8
      vertex 3.12574 8.87797 0.8
      vertex 1.79282 9.14098 0.8
    endloop
  endfacet
  facet normal 0 0 1
    outer loop
      vertex 3.12574 8.87797 0.8
      vertex 1.75934 8.78274 0.8
      vertex 3.03545 8.50602 0.8
    endloop
  endfacet
  facet normal 0 0 1
    outer loop
      vertex 1.65465 9.8316 0.8
      vertex 2.92866 10.3665 0.8
      vertex 2.64467 10.8148 0.8
    endloop
  endfacet
  facet normal 0 0 1
    outer loop
      vertex 3.03545 8.50602 0.8
      vertex 1.75934 8.78274 0.8
      vertex 2.88498 8.16673 0.8
    endloop
  endfacet
  facet normal 0 0 1
    outer loop
      vertex 1.48192 10.1087 0.8
      vertex 2.64467 10.8148 0.8
      vertex 2.24712 11.2008 0.8
    endloop
  endfacet
  facet normal -0 0 1
    outer loop
      vertex 1.65888 8.46906 0.8
      vertex 2.88498 8.16673 0.8
      vertex 1.75934 8.78274 0.8
    endloop
  endfacet
  facet normal 0 0 1
    outer loop
      vertex 2.88498 8.16673 0.8
      vertex 1.65888 8.46906 0.8
      vertex 2.67432 7.86009 0.8
    endloop
  endfacet
  facet normal 0 0 1
    outer loop
      vertex 3.15583 9.28259 0.8
      vertex 1.75828 9.50901 0.8
      vertex 1.79282 9.14098 0.8
    endloop
  endfacet
  facet normal 0 0 1
    outer loop
      vertex 1.24012 10.3404 0.8
      vertex 2.24712 11.2008 0.8
      vertex 1.75208 11.5112 0.8
    endloop
  endfacet
  facet normal 0 0 1
    outer loop
      vertex 3.09904 9.85574 0.8
      vertex 1.65465 9.8316 0.8
      vertex 1.75828 9.50901 0.8
    endloop
  endfacet
  facet normal 0 0 1
    outer loop
      vertex 2.64467 10.8148 0.8
      vertex 1.48192 10.1087 0.8
      vertex 1.65465 9.8316 0.8
    endloop
  endfacet
  facet normal 0 0 1
    outer loop
      vertex 2.24712 11.2008 0.8
      vertex 1.24012 10.3404 0.8
      vertex 1.48192 10.1087 0.8
    endloop
  endfacet
  facet normal 0 0 1
    outer loop
      vertex 0.933935 10.5233 0.8
      vertex 1.75208 11.5112 0.8
      vertex 1.17568 11.733 0.8
    endloop
  endfacet
  facet normal 0 0 1
    outer loop
      vertex 1.75208 11.5112 0.8
      vertex 0.933935 10.5233 0.8
      vertex 1.24012 10.3404 0.8
    endloop
  endfacet
  facet normal 0 0 1
    outer loop
      vertex 1.17568 11.733 0.8
      vertex 0.567968 10.6539 0.8
      vertex 0.933935 10.5233 0.8
    endloop
  endfacet
  facet normal 0 0 1
    outer loop
      vertex 0.517889 11.866 0.8
      vertex 0.567968 10.6539 0.8
      vertex 1.17568 11.733 0.8
    endloop
  endfacet
  facet normal 0 0 1
    outer loop
      vertex 0.517889 11.866 0.8
      vertex 0.142233 10.7323 0.8
      vertex 0.567968 10.6539 0.8
    endloop
  endfacet
  facet normal 0 0 1
    outer loop
      vertex -0.221276 11.9104 0.8
      vertex 0.142233 10.7323 0.8
      vertex 0.517889 11.866 0.8
    endloop
  endfacet
  facet normal 0 0 1
    outer loop
      vertex -0.221276 11.9104 0.8
      vertex -0.34327 10.7584 0.8
      vertex 0.142233 10.7323 0.8
    endloop
  endfacet
  facet normal -0 0 1
    outer loop
      vertex -0.527902 11.9036 0.8
      vertex -0.34327 10.7584 0.8
      vertex -0.221276 11.9104 0.8
    endloop
  endfacet
  facet normal 0 0 1
    outer loop
      vertex -0.527902 11.9036 0.8
      vertex -0.6298 10.7507 0.8
      vertex -0.34327 10.7584 0.8
    endloop
  endfacet
  facet normal -0 0 1
    outer loop
      vertex -0.844293 11.8832 0.8
      vertex -0.6298 10.7507 0.8
      vertex -0.527902 11.9036 0.8
    endloop
  endfacet
  facet normal 0 0 1
    outer loop
      vertex -0.844293 11.8832 0.8
      vertex -0.926492 10.7276 0.8
      vertex -0.6298 10.7507 0.8
    endloop
  endfacet
  facet normal -0 0 1
    outer loop
      vertex -1.17045 11.8492 0.8
      vertex -0.926492 10.7276 0.8
      vertex -0.844293 11.8832 0.8
    endloop
  endfacet
  facet normal 0 0 1
    outer loop
      vertex -1.17045 11.8492 0.8
      vertex -1.23336 10.6892 0.8
      vertex -0.926492 10.7276 0.8
    endloop
  endfacet
  facet normal -0 0 1
    outer loop
      vertex -1.50637 11.8016 0.8
      vertex -1.23336 10.6892 0.8
      vertex -1.17045 11.8492 0.8
    endloop
  endfacet
  facet normal 0 0 1
    outer loop
      vertex -1.50637 11.8016 0.8
      vertex -1.55038 10.6354 0.8
      vertex -1.23336 10.6892 0.8
    endloop
  endfacet
  facet normal -0 0 1
    outer loop
      vertex -1.85326 11.7404 0.8
      vertex -1.55038 10.6354 0.8
      vertex -1.50637 11.8016 0.8
    endloop
  endfacet
  facet normal 0 0 1
    outer loop
      vertex -1.85326 11.7404 0.8
      vertex -1.88053 10.5653 0.8
      vertex -1.55038 10.6354 0.8
    endloop
  endfacet
  facet normal -0 0 1
    outer loop
      vertex -2.21246 11.6656 0.8
      vertex -1.88053 10.5653 0.8
      vertex -1.85326 11.7404 0.8
    endloop
  endfacet
  facet normal 0 0 1
    outer loop
      vertex -2.21246 11.6656 0.8
      vertex -2.2268 10.4782 0.8
      vertex -1.88053 10.5653 0.8
    endloop
  endfacet
  facet normal -0 0 1
    outer loop
      vertex -2.58392 11.5772 0.8
      vertex -2.2268 10.4782 0.8
      vertex -2.21246 11.6656 0.8
    endloop
  endfacet
  facet normal 0 0 1
    outer loop
      vertex -2.58392 11.5772 0.8
      vertex -2.58918 10.374 0.8
      vertex -2.2268 10.4782 0.8
    endloop
  endfacet
  facet normal -0 0 1
    outer loop
      vertex -2.96768 11.4752 0.8
      vertex -2.58918 10.374 0.8
      vertex -2.58392 11.5772 0.8
    endloop
  endfacet
  facet normal 0 0 1
    outer loop
      vertex -2.58918 10.374 0.8
      vertex -2.96768 11.4752 0.8
      vertex -2.96768 10.2528 0.8
    endloop
  endfacet
  facet normal 0 0 1
    outer loop
      vertex 2.67432 7.86009 0.8
      vertex 1.65888 8.46906 0.8
      vertex 2.40819 7.59211 0.8
    endloop
  endfacet
  facet normal -0 0 1
    outer loop
      vertex 1.49143 8.19999 0.8
      vertex 2.40819 7.59211 0.8
      vertex 1.65888 8.46906 0.8
    endloop
  endfacet
  facet normal 0 0 1
    outer loop
      vertex 2.40819 7.59211 0.8
      vertex 1.49143 8.19999 0.8
      vertex 2.09118 7.36869 0.8
    endloop
  endfacet
  facet normal -0 0 1
    outer loop
      vertex 1.25702 7.97549 0.8
      vertex 2.09118 7.36869 0.8
      vertex 1.49143 8.19999 0.8
    endloop
  endfacet
  facet normal 0 0 1
    outer loop
      vertex 2.09118 7.36869 0.8
      vertex 1.25702 7.97549 0.8
      vertex 1.72329 7.18981 0.8
    endloop
  endfacet
  facet normal 0 0 1
    outer loop
      vertex 1.72329 7.18981 0.8
      vertex 1.25702 7.97549 0.8
      vertex 1.30453 7.05549 0.8
    endloop
  endfacet
  facet normal 0 0 1
    outer loop
      vertex 3.35859 5.009 0.8
      vertex 1.99091 4.96293 0.8
      vertex 2.03013 4.5399 0.8
    endloop
  endfacet
  facet normal 0 0 1
    outer loop
      vertex 2.53721 6.4847 0.8
      vertex 1.8733 5.33724 0.8
      vertex 1.99091 4.96293 0.8
    endloop
  endfacet
  facet normal 0 0 1
    outer loop
      vertex 1.40282 5.93969 0.8
      vertex 2.18015 6.73174 0.8
      vertex 1.76926 6.92201 0.8
    endloop
  endfacet
  facet normal 0 0 1
    outer loop
      vertex 2.53721 6.4847 0.8
      vertex 1.67727 5.66284 0.8
      vertex 1.8733 5.33724 0.8
    endloop
  endfacet
  facet normal 0 0 1
    outer loop
      vertex 2.18015 6.73174 0.8
      vertex 1.40282 5.93969 0.8
      vertex 1.67727 5.66284 0.8
    endloop
  endfacet
  facet normal 0 0 1
    outer loop
      vertex 1.05849 6.16067 0.8
      vertex 1.76926 6.92201 0.8
      vertex 1.30453 7.05549 0.8
    endloop
  endfacet
  facet normal 0 0 1
    outer loop
      vertex 1.76926 6.92201 0.8
      vertex 1.05849 6.16067 0.8
      vertex 1.40282 5.93969 0.8
    endloop
  endfacet
  facet normal -0 0 1
    outer loop
      vertex 0.959509 7.79861 0.8
      vertex 1.30453 7.05549 0.8
      vertex 1.25702 7.97549 0.8
    endloop
  endfacet
  facet normal -0 0 1
    outer loop
      vertex 0.602652 7.67227 0.8
      vertex 1.30453 7.05549 0.8
      vertex 0.959509 7.79861 0.8
    endloop
  endfacet
  facet normal 0 0 1
    outer loop
      vertex 1.30453 7.05549 0.8
      vertex 0.6527 6.31852 0.8
      vertex 1.05849 6.16067 0.8
    endloop
  endfacet
  facet normal 0 0 1
    outer loop
      vertex 1.30453 7.05549 0.8
      vertex 0.602652 7.67227 0.8
      vertex 0.6527 6.31852 0.8
    endloop
  endfacet
  facet normal 0 0 1
    outer loop
      vertex 0.185446 6.41322 0.8
      vertex 0.602652 7.67227 0.8
      vertex 0.186453 7.59646 0.8
    endloop
  endfacet
  facet normal 0 0 1
    outer loop
      vertex 0.602652 7.67227 0.8
      vertex 0.185446 6.41322 0.8
      vertex 0.6527 6.31852 0.8
    endloop
  endfacet
  facet normal -0 0 1
    outer loop
      vertex -0.289071 7.57119 0.8
      vertex 0.185446 6.41322 0.8
      vertex 0.186453 7.59646 0.8
    endloop
  endfacet
  facet normal 0 0 1
    outer loop
      vertex -0.289071 7.57119 0.8
      vertex -0.34327 6.44479 0.8
      vertex 0.185446 6.41322 0.8
    endloop
  endfacet
  facet normal -0 0 1
    outer loop
      vertex -1.52328 7.57119 0.8
      vertex -0.34327 6.44479 0.8
      vertex -0.289071 7.57119 0.8
    endloop
  endfacet
  facet normal 0 0 1
    outer loop
      vertex -0.34327 6.44479 0.8
      vertex -1.52328 7.57119 0.8
      vertex -1.52328 6.44479 0.8
    endloop
  endfacet
  facet normal 0 0 1
    outer loop
      vertex 2.03013 4.5399 0.8
      vertex 3.39312 4.5404 0.8
      vertex 3.35859 5.009 0.8
    endloop
  endfacet
  facet normal 0 0 1
    outer loop
      vertex 1.99091 4.96293 0.8
      vertex 3.35859 5.009 0.8
      vertex 3.25495 5.43862 0.8
    endloop
  endfacet
  facet normal 0 0 1
    outer loop
      vertex 3.39312 4.5404 0.8
      vertex 2.03013 4.5399 0.8
      vertex 3.3287 3.83366 0.8
    endloop
  endfacet
  facet normal 0 0 1
    outer loop
      vertex 1.99091 4.96293 0.8
      vertex 3.25495 5.43862 0.8
      vertex 3.08224 5.82925 0.8
    endloop
  endfacet
  facet normal 0 0 1
    outer loop
      vertex 1.99091 4.96293 0.8
      vertex 3.08224 5.82925 0.8
      vertex 2.84043 6.18089 0.8
    endloop
  endfacet
  facet normal -0 0 1
    outer loop
      vertex 1.98795 4.08399 0.8
      vertex 3.3287 3.83366 0.8
      vertex 2.03013 4.5399 0.8
    endloop
  endfacet
  facet normal 0 0 1
    outer loop
      vertex 1.99091 4.96293 0.8
      vertex 2.84043 6.18089 0.8
      vertex 2.53721 6.4847 0.8
    endloop
  endfacet
  facet normal 0 0 1
    outer loop
      vertex 3.3287 3.83366 0.8
      vertex 1.98795 4.08399 0.8
      vertex 3.13543 3.21166 0.8
    endloop
  endfacet
  facet normal 0 0 1
    outer loop
      vertex 1.67727 5.66284 0.8
      vertex 2.53721 6.4847 0.8
      vertex 2.18015 6.73174 0.8
    endloop
  endfacet
  facet normal -0 0 1
    outer loop
      vertex 1.86143 3.68572 0.8
      vertex 3.13543 3.21166 0.8
      vertex 1.98795 4.08399 0.8
    endloop
  endfacet
  facet normal 0 0 1
    outer loop
      vertex 3.13543 3.21166 0.8
      vertex 1.86143 3.68572 0.8
      vertex 2.8133 2.67442 0.8
    endloop
  endfacet
  facet normal -0 0 1
    outer loop
      vertex 1.65055 3.34506 0.8
      vertex 2.8133 2.67442 0.8
      vertex 1.86143 3.68572 0.8
    endloop
  endfacet
  facet normal 0 0 1
    outer loop
      vertex 2.8133 2.67442 0.8
      vertex 1.65055 3.34506 0.8
      vertex 2.36233 2.22189 0.8
    endloop
  endfacet
  facet normal -0 0 1
    outer loop
      vertex 1.35532 3.06199 0.8
      vertex 2.36233 2.22189 0.8
      vertex 1.65055 3.34506 0.8
    endloop
  endfacet
  facet normal 0 0 1
    outer loop
      vertex 2.36233 2.22189 0.8
      vertex 1.35532 3.06199 0.8
      vertex 1.79273 1.86302 0.8
    endloop
  endfacet
  facet normal -0 0 1
    outer loop
      vertex 0.97962 2.83956 0.8
      vertex 1.79273 1.86302 0.8
      vertex 1.35532 3.06199 0.8
    endloop
  endfacet
  facet normal 0 0 1
    outer loop
      vertex 1.79273 1.86302 0.8
      vertex 0.97962 2.83956 0.8
      vertex 1.11463 1.60667 0.8
    endloop
  endfacet
  facet normal -0 0 1
    outer loop
      vertex 0.527197 2.68069 0.8
      vertex 1.11463 1.60667 0.8
      vertex 0.97962 2.83956 0.8
    endloop
  endfacet
  facet normal 0 0 1
    outer loop
      vertex 0.527197 2.68069 0.8
      vertex 0.328024 1.45287 0.8
      vertex 1.11463 1.60667 0.8
    endloop
  endfacet
  facet normal -0 0 1
    outer loop
      vertex -0.00193119 2.58537 0.8
      vertex 0.328024 1.45287 0.8
      vertex 0.527197 2.68069 0.8
    endloop
  endfacet
  facet normal 0 0 1
    outer loop
      vertex -0.00193119 2.58537 0.8
      vertex -0.567071 1.4016 0.8
      vertex 0.328024 1.45287 0.8
    endloop
  endfacet
  facet normal -0 0 1
    outer loop
      vertex -0.607781 2.5536 0.8
      vertex -0.567071 1.4016 0.8
      vertex -0.00193119 2.58537 0.8
    endloop
  endfacet
  facet normal 0 0 1
    outer loop
      vertex -0.607781 2.5536 0.8
      vertex -0.888116 1.4094 0.8
      vertex -0.567071 1.4016 0.8
    endloop
  endfacet
  facet normal 0 0 1
    outer loop
      vertex -0.973519 2.5642 0.8
      vertex -0.888116 1.4094 0.8
      vertex -0.607781 2.5536 0.8
    endloop
  endfacet
  facet normal 0 0 1
    outer loop
      vertex -0.973519 2.5642 0.8
      vertex -1.21383 1.43281 0.8
      vertex -0.888116 1.4094 0.8
    endloop
  endfacet
  facet normal 0 0 1
    outer loop
      vertex -1.33164 2.59602 0.8
      vertex -1.21383 1.43281 0.8
      vertex -0.973519 2.5642 0.8
    endloop
  endfacet
  facet normal 0 0 1
    outer loop
      vertex -1.33164 2.59602 0.8
      vertex -1.54421 1.47181 0.8
      vertex -1.21383 1.43281 0.8
    endloop
  endfacet
  facet normal 0 0 1
    outer loop
      vertex -1.68217 2.64904 0.8
      vertex -1.54421 1.47181 0.8
      vertex -1.33164 2.59602 0.8
    endloop
  endfacet
  facet normal 0 0 1
    outer loop
      vertex -1.68217 2.64904 0.8
      vertex -1.87928 1.52641 0.8
      vertex -1.54421 1.47181 0.8
    endloop
  endfacet
  facet normal 0 0 1
    outer loop
      vertex -2.21938 1.59661 0.8
      vertex -1.68217 2.64904 0.8
      vertex -2.02508 2.72329 0.8
    endloop
  endfacet
  facet normal 0 0 1
    outer loop
      vertex -1.68217 2.64904 0.8
      vertex -2.21938 1.59661 0.8
      vertex -1.87928 1.52641 0.8
    endloop
  endfacet
  facet normal 0 0 1
    outer loop
      vertex -2.565 1.6824 0.8
      vertex -2.02508 2.72329 0.8
      vertex -2.35734 2.81832 0.8
    endloop
  endfacet
  facet normal 0 0 1
    outer loop
      vertex -2.02508 2.72329 0.8
      vertex -2.565 1.6824 0.8
      vertex -2.21938 1.59661 0.8
    endloop
  endfacet
  facet normal 0 0 1
    outer loop
      vertex -2.91613 1.78379 0.8
      vertex -2.35734 2.81832 0.8
      vertex -2.67605 2.93372 0.8
    endloop
  endfacet
  facet normal 0 0 1
    outer loop
      vertex -2.35734 2.81832 0.8
      vertex -2.91613 1.78379 0.8
      vertex -2.565 1.6824 0.8
    endloop
  endfacet
  facet normal 0 0 1
    outer loop
      vertex -3.27277 1.9008 0.8
      vertex -2.67605 2.93372 0.8
      vertex -2.98119 3.06947 0.8
    endloop
  endfacet
  facet normal 0 0 1
    outer loop
      vertex -3.27277 1.9008 0.8
      vertex -2.98119 3.06947 0.8
      vertex -3.27277 3.22559 0.8
    endloop
  endfacet
  facet normal 0 0 1
    outer loop
      vertex -2.67605 2.93372 0.8
      vertex -3.27277 1.9008 0.8
      vertex -2.91613 1.78379 0.8
    endloop
  endfacet
  facet normal -0.19189 0.981416 0
    outer loop
      vertex 1.11463 1.60667 0.8
      vertex 0.328024 1.45287 2.1
      vertex 1.11463 1.60667 2.1
    endloop
  endfacet
  facet normal -0.19189 0.981416 0
    outer loop
      vertex 0.328024 1.45287 2.1
      vertex 1.11463 1.60667 0.8
      vertex 0.328024 1.45287 0.8
    endloop
  endfacet
  facet normal -0.353617 0.93539 0
    outer loop
      vertex 1.79273 1.86302 0.8
      vertex 1.11463 1.60667 2.1
      vertex 1.79273 1.86302 2.1
    endloop
  endfacet
  facet normal -0.353617 0.93539 0
    outer loop
      vertex 1.11463 1.60667 2.1
      vertex 1.79273 1.86302 0.8
      vertex 1.11463 1.60667 0.8
    endloop
  endfacet
  facet normal -0.533061 0.846077 0
    outer loop
      vertex 2.36233 2.22189 0.8
      vertex 1.79273 1.86302 2.1
      vertex 2.36233 2.22189 2.1
    endloop
  endfacet
  facet normal -0.533061 0.846077 0
    outer loop
      vertex 1.79273 1.86302 2.1
      vertex 2.36233 2.22189 0.8
      vertex 1.79273 1.86302 0.8
    endloop
  endfacet
  facet normal -0.708327 0.705885 0
    outer loop
      vertex 2.36233 2.22189 0.8
      vertex 2.8133 2.67442 2.1
      vertex 2.8133 2.67442 0.8
    endloop
  endfacet
  facet normal -0.708327 0.705885 0
    outer loop
      vertex 2.8133 2.67442 2.1
      vertex 2.36233 2.22189 0.8
      vertex 2.36233 2.22189 2.1
    endloop
  endfacet
  facet normal -0.857644 0.514245 0
    outer loop
      vertex 2.8133 2.67442 0.8
      vertex 3.13543 3.21166 2.1
      vertex 3.13543 3.21166 0.8
    endloop
  endfacet
  facet normal -0.857644 0.514245 0
    outer loop
      vertex 3.13543 3.21166 2.1
      vertex 2.8133 2.67442 0.8
      vertex 2.8133 2.67442 2.1
    endloop
  endfacet
  facet normal -0.954962 0.296729 0
    outer loop
      vertex 3.13543 3.21166 0.8
      vertex 3.3287 3.83366 2.1
      vertex 3.3287 3.83366 0.8
    endloop
  endfacet
  facet normal -0.954962 0.296729 0
    outer loop
      vertex 3.3287 3.83366 2.1
      vertex 3.13543 3.21166 0.8
      vertex 3.13543 3.21166 2.1
    endloop
  endfacet
  facet normal -0.995871 0.0907746 0
    outer loop
      vertex 3.3287 3.83366 0.8
      vertex 3.39312 4.5404 2.1
      vertex 3.39312 4.5404 0.8
    endloop
  endfacet
  facet normal -0.995871 0.0907746 0
    outer loop
      vertex 3.39312 4.5404 2.1
      vertex 3.3287 3.83366 0.8
      vertex 3.3287 3.83366 2.1
    endloop
  endfacet
  facet normal -0.997296 -0.0734883 0
    outer loop
      vertex 3.39312 4.5404 0.8
      vertex 3.35859 5.009 2.1
      vertex 3.35859 5.009 0.8
    endloop
  endfacet
  facet normal -0.997296 -0.0734883 0
    outer loop
      vertex 3.35859 5.009 2.1
      vertex 3.39312 4.5404 0.8
      vertex 3.39312 4.5404 2.1
    endloop
  endfacet
  facet normal -0.972114 -0.234509 0
    outer loop
      vertex 3.35859 5.009 0.8
      vertex 3.25495 5.43862 2.1
      vertex 3.25495 5.43862 0.8
    endloop
  endfacet
  facet normal -0.972114 -0.234509 0
    outer loop
      vertex 3.25495 5.43862 2.1
      vertex 3.35859 5.009 0.8
      vertex 3.35859 5.009 2.1
    endloop
  endfacet
  facet normal -0.914595 -0.404372 0
    outer loop
      vertex 3.25495 5.43862 0.8
      vertex 3.08224 5.82925 2.1
      vertex 3.08224 5.82925 0.8
    endloop
  endfacet
  facet normal -0.914595 -0.404372 0
    outer loop
      vertex 3.08224 5.82925 2.1
      vertex 3.25495 5.43862 0.8
      vertex 3.25495 5.43862 2.1
    endloop
  endfacet
  facet normal -0.823979 -0.56662 0
    outer loop
      vertex 3.08224 5.82925 0.8
      vertex 2.84043 6.18089 2.1
      vertex 2.84043 6.18089 0.8
    endloop
  endfacet
  facet normal -0.823979 -0.56662 0
    outer loop
      vertex 2.84043 6.18089 2.1
      vertex 3.08224 5.82925 0.8
      vertex 3.08224 5.82925 2.1
    endloop
  endfacet
  facet normal -0.707794 -0.706419 0
    outer loop
      vertex 2.84043 6.18089 0.8
      vertex 2.53721 6.4847 2.1
      vertex 2.53721 6.4847 0.8
    endloop
  endfacet
  facet normal -0.707794 -0.706419 0
    outer loop
      vertex 2.53721 6.4847 2.1
      vertex 2.84043 6.18089 0.8
      vertex 2.84043 6.18089 2.1
    endloop
  endfacet
  facet normal -0.568968 -0.82236 0
    outer loop
      vertex 2.18015 6.73174 0.8
      vertex 2.53721 6.4847 2.1
      vertex 2.18015 6.73174 2.1
    endloop
  endfacet
  facet normal -0.568968 -0.82236 -0
    outer loop
      vertex 2.53721 6.4847 2.1
      vertex 2.18015 6.73174 0.8
      vertex 2.53721 6.4847 0.8
    endloop
  endfacet
  facet normal -0.420202 -0.907431 0
    outer loop
      vertex 1.76926 6.92201 0.8
      vertex 2.18015 6.73174 2.1
      vertex 1.76926 6.92201 2.1
    endloop
  endfacet
  facet normal -0.420202 -0.907431 -0
    outer loop
      vertex 2.18015 6.73174 2.1
      vertex 1.76926 6.92201 0.8
      vertex 2.18015 6.73174 0.8
    endloop
  endfacet
  facet normal -0.276059 -0.961141 0
    outer loop
      vertex 1.30453 7.05549 0.8
      vertex 1.76926 6.92201 2.1
      vertex 1.30453 7.05549 2.1
    endloop
  endfacet
  facet normal -0.276059 -0.961141 -0
    outer loop
      vertex 1.76926 6.92201 2.1
      vertex 1.30453 7.05549 0.8
      vertex 1.76926 6.92201 0.8
    endloop
  endfacet
  facet normal -0.305429 0.952215 0
    outer loop
      vertex 1.72329 7.18981 0.8
      vertex 1.30453 7.05549 2.1
      vertex 1.72329 7.18981 2.1
    endloop
  endfacet
  facet normal -0.305429 0.952215 0
    outer loop
      vertex 1.30453 7.05549 2.1
      vertex 1.72329 7.18981 0.8
      vertex 1.30453 7.05549 0.8
    endloop
  endfacet
  facet normal -0.437281 0.899325 0
    outer loop
      vertex 2.09118 7.36869 0.8
      vertex 1.72329 7.18981 2.1
      vertex 2.09118 7.36869 2.1
    endloop
  endfacet
  facet normal -0.437281 0.899325 0
    outer loop
      vertex 1.72329 7.18981 2.1
      vertex 2.09118 7.36869 0.8
      vertex 1.72329 7.18981 0.8
    endloop
  endfacet
  facet normal -0.576078 0.817395 0
    outer loop
      vertex 2.40819 7.59211 0.8
      vertex 2.09118 7.36869 2.1
      vertex 2.40819 7.59211 2.1
    endloop
  endfacet
  facet normal -0.576078 0.817395 0
    outer loop
      vertex 2.09118 7.36869 2.1
      vertex 2.40819 7.59211 0.8
      vertex 2.09118 7.36869 0.8
    endloop
  endfacet
  facet normal -0.709552 0.704653 0
    outer loop
      vertex 2.40819 7.59211 0.8
      vertex 2.67432 7.86009 2.1
      vertex 2.67432 7.86009 0.8
    endloop
  endfacet
  facet normal -0.709552 0.704653 0
    outer loop
      vertex 2.67432 7.86009 2.1
      vertex 2.40819 7.59211 0.8
      vertex 2.40819 7.59211 2.1
    endloop
  endfacet
  facet normal -0.824236 0.566246 0
    outer loop
      vertex 2.67432 7.86009 0.8
      vertex 2.88498 8.16673 2.1
      vertex 2.88498 8.16673 0.8
    endloop
  endfacet
  facet normal -0.824236 0.566246 0
    outer loop
      vertex 2.88498 8.16673 2.1
      vertex 2.67432 7.86009 0.8
      vertex 2.67432 7.86009 2.1
    endloop
  endfacet
  facet normal -0.914137 0.405406 0
    outer loop
      vertex 2.88498 8.16673 0.8
      vertex 3.03545 8.50602 2.1
      vertex 3.03545 8.50602 0.8
    endloop
  endfacet
  facet normal -0.914137 0.405406 0
    outer loop
      vertex 3.03545 8.50602 2.1
      vertex 2.88498 8.16673 0.8
      vertex 2.88498 8.16673 2.1
    endloop
  endfacet
  facet normal -0.971778 0.235897 0
    outer loop
      vertex 3.03545 8.50602 0.8
      vertex 3.12574 8.87797 2.1
      vertex 3.12574 8.87797 0.8
    endloop
  endfacet
  facet normal -0.971778 0.235897 0
    outer loop
      vertex 3.12574 8.87797 2.1
      vertex 3.03545 8.50602 0.8
      vertex 3.03545 8.50602 2.1
    endloop
  endfacet
  facet normal -0.997246 0.0741613 0
    outer loop
      vertex 3.12574 8.87797 0.8
      vertex 3.15583 9.28259 2.1
      vertex 3.15583 9.28259 0.8
    endloop
  endfacet
  facet normal -0.997246 0.0741613 0
    outer loop
      vertex 3.15583 9.28259 2.1
      vertex 3.12574 8.87797 0.8
      vertex 3.12574 8.87797 2.1
    endloop
  endfacet
  facet normal -0.995127 -0.0986012 0
    outer loop
      vertex 3.15583 9.28259 0.8
      vertex 3.09904 9.85574 2.1
      vertex 3.09904 9.85574 0.8
    endloop
  endfacet
  facet normal -0.995127 -0.0986012 0
    outer loop
      vertex 3.09904 9.85574 2.1
      vertex 3.15583 9.28259 0.8
      vertex 3.15583 9.28259 2.1
    endloop
  endfacet
  facet normal -0.948613 -0.316439 0
    outer loop
      vertex 3.09904 9.85574 0.8
      vertex 2.92866 10.3665 2.1
      vertex 2.92866 10.3665 0.8
    endloop
  endfacet
  facet normal -0.948613 -0.316439 0
    outer loop
      vertex 2.92866 10.3665 2.1
      vertex 3.09904 9.85574 0.8
      vertex 3.09904 9.85574 2.1
    endloop
  endfacet
  facet normal -0.844762 -0.535142 0
    outer loop
      vertex 2.92866 10.3665 0.8
      vertex 2.64467 10.8148 2.1
      vertex 2.64467 10.8148 0.8
    endloop
  endfacet
  facet normal -0.844762 -0.535142 0
    outer loop
      vertex 2.64467 10.8148 2.1
      vertex 2.92866 10.3665 0.8
      vertex 2.92866 10.3665 2.1
    endloop
  endfacet
  facet normal -0.696608 -0.717452 0
    outer loop
      vertex 2.24712 11.2008 0.8
      vertex 2.64467 10.8148 2.1
      vertex 2.24712 11.2008 2.1
    endloop
  endfacet
  facet normal -0.696608 -0.717452 -0
    outer loop
      vertex 2.64467 10.8148 2.1
      vertex 2.24712 11.2008 0.8
      vertex 2.64467 10.8148 0.8
    endloop
  endfacet
  facet normal -0.531229 -0.847228 0
    outer loop
      vertex 1.75208 11.5112 0.8
      vertex 2.24712 11.2008 2.1
      vertex 1.75208 11.5112 2.1
    endloop
  endfacet
  facet normal -0.531229 -0.847228 -0
    outer loop
      vertex 2.24712 11.2008 2.1
      vertex 1.75208 11.5112 0.8
      vertex 2.24712 11.2008 0.8
    endloop
  endfacet
  facet normal -0.359131 -0.933287 0
    outer loop
      vertex 1.17568 11.733 0.8
      vertex 1.75208 11.5112 2.1
      vertex 1.17568 11.733 2.1
    endloop
  endfacet
  facet normal -0.359131 -0.933287 -0
    outer loop
      vertex 1.75208 11.5112 2.1
      vertex 1.17568 11.733 0.8
      vertex 1.75208 11.5112 0.8
    endloop
  endfacet
  facet normal -0.198181 -0.980165 0
    outer loop
      vertex 0.517889 11.866 0.8
      vertex 1.17568 11.733 2.1
      vertex 0.517889 11.866 2.1
    endloop
  endfacet
  facet normal -0.198181 -0.980165 -0
    outer loop
      vertex 1.17568 11.733 2.1
      vertex 0.517889 11.866 0.8
      vertex 1.17568 11.733 0.8
    endloop
  endfacet
  facet normal -0.0599597 -0.998201 0
    outer loop
      vertex -0.221276 11.9104 0.8
      vertex 0.517889 11.866 2.1
      vertex -0.221276 11.9104 2.1
    endloop
  endfacet
  facet normal -0.0599597 -0.998201 -0
    outer loop
      vertex 0.517889 11.866 2.1
      vertex -0.221276 11.9104 0.8
      vertex 0.517889 11.866 0.8
    endloop
  endfacet
  facet normal 0.0221714 -0.999754 0
    outer loop
      vertex -0.527902 11.9036 0.8
      vertex -0.221276 11.9104 2.1
      vertex -0.527902 11.9036 2.1
    endloop
  endfacet
  facet normal 0.0221714 -0.999754 0
    outer loop
      vertex -0.221276 11.9104 2.1
      vertex -0.527902 11.9036 0.8
      vertex -0.221276 11.9104 0.8
    endloop
  endfacet
  facet normal 0.0643436 -0.997928 0
    outer loop
      vertex -0.844293 11.8832 0.8
      vertex -0.527902 11.9036 2.1
      vertex -0.844293 11.8832 2.1
    endloop
  endfacet
  facet normal 0.0643436 -0.997928 0
    outer loop
      vertex -0.527902 11.9036 2.1
      vertex -0.844293 11.8832 0.8
      vertex -0.527902 11.9036 0.8
    endloop
  endfacet
  facet normal 0.103682 -0.99461 0
    outer loop
      vertex -1.17045 11.8492 0.8
      vertex -0.844293 11.8832 2.1
      vertex -1.17045 11.8492 2.1
    endloop
  endfacet
  facet normal 0.103682 -0.99461 0
    outer loop
      vertex -0.844293 11.8832 2.1
      vertex -1.17045 11.8492 0.8
      vertex -0.844293 11.8832 0.8
    endloop
  endfacet
  facet normal 0.140299 -0.990109 0
    outer loop
      vertex -1.50637 11.8016 0.8
      vertex -1.17045 11.8492 2.1
      vertex -1.50637 11.8016 2.1
    endloop
  endfacet
  facet normal 0.140299 -0.990109 0
    outer loop
      vertex -1.17045 11.8492 2.1
      vertex -1.50637 11.8016 0.8
      vertex -1.17045 11.8492 0.8
    endloop
  endfacet
  facet normal 0.173742 -0.984791 0
    outer loop
      vertex -1.85326 11.7404 0.8
      vertex -1.50637 11.8016 2.1
      vertex -1.85326 11.7404 2.1
    endloop
  endfacet
  facet normal 0.173742 -0.984791 0
    outer loop
      vertex -1.50637 11.8016 2.1
      vertex -1.85326 11.7404 0.8
      vertex -1.50637 11.8016 0.8
    endloop
  endfacet
  facet normal 0.203867 -0.978999 0
    outer loop
      vertex -2.21246 11.6656 0.8
      vertex -1.85326 11.7404 2.1
      vertex -2.21246 11.6656 2.1
    endloop
  endfacet
  facet normal 0.203867 -0.978999 0
    outer loop
      vertex -1.85326 11.7404 2.1
      vertex -2.21246 11.6656 0.8
      vertex -1.85326 11.7404 0.8
    endloop
  endfacet
  facet normal 0.231514 -0.972831 0
    outer loop
      vertex -2.58392 11.5772 0.8
      vertex -2.21246 11.6656 2.1
      vertex -2.58392 11.5772 2.1
    endloop
  endfacet
  facet normal 0.231514 -0.972831 0
    outer loop
      vertex -2.21246 11.6656 2.1
      vertex -2.58392 11.5772 0.8
      vertex -2.21246 11.6656 0.8
    endloop
  endfacet
  facet normal 0.256873 -0.966445 0
    outer loop
      vertex -2.96768 11.4752 0.8
      vertex -2.58392 11.5772 2.1
      vertex -2.96768 11.4752 2.1
    endloop
  endfacet
  facet normal 0.256873 -0.966445 0
    outer loop
      vertex -2.58392 11.5772 2.1
      vertex -2.96768 11.4752 0.8
      vertex -2.58392 11.5772 0.8
    endloop
  endfacet
  facet normal 1 -0 0
    outer loop
      vertex -2.96768 10.2528 2.1
      vertex -2.96768 11.4752 0.8
      vertex -2.96768 11.4752 2.1
    endloop
  endfacet
  facet normal 1 0 0
    outer loop
      vertex -2.96768 11.4752 0.8
      vertex -2.96768 10.2528 2.1
      vertex -2.96768 10.2528 0.8
    endloop
  endfacet
  facet normal -0.304958 0.952366 0
    outer loop
      vertex -2.58918 10.374 0.8
      vertex -2.96768 10.2528 2.1
      vertex -2.58918 10.374 2.1
    endloop
  endfacet
  facet normal -0.304958 0.952366 0
    outer loop
      vertex -2.96768 10.2528 2.1
      vertex -2.58918 10.374 0.8
      vertex -2.96768 10.2528 0.8
    endloop
  endfacet
  facet normal -0.276346 0.961058 0
    outer loop
      vertex -2.2268 10.4782 0.8
      vertex -2.58918 10.374 2.1
      vertex -2.2268 10.4782 2.1
    endloop
  endfacet
  facet normal -0.276346 0.961058 0
    outer loop
      vertex -2.58918 10.374 2.1
      vertex -2.2268 10.4782 0.8
      vertex -2.58918 10.374 0.8
    endloop
  endfacet
  facet normal -0.243939 0.969791 0
    outer loop
      vertex -1.88053 10.5653 0.8
      vertex -2.2268 10.4782 2.1
      vertex -1.88053 10.5653 2.1
    endloop
  endfacet
  facet normal -0.243939 0.969791 0
    outer loop
      vertex -2.2268 10.4782 2.1
      vertex -1.88053 10.5653 0.8
      vertex -2.2268 10.4782 0.8
    endloop
  endfacet
  facet normal -0.207698 0.978193 0
    outer loop
      vertex -1.55038 10.6354 0.8
      vertex -1.88053 10.5653 2.1
      vertex -1.55038 10.6354 2.1
    endloop
  endfacet
  facet normal -0.207698 0.978193 0
    outer loop
      vertex -1.88053 10.5653 2.1
      vertex -1.55038 10.6354 0.8
      vertex -1.88053 10.5653 0.8
    endloop
  endfacet
  facet normal -0.167313 0.985904 0
    outer loop
      vertex -1.23336 10.6892 0.8
      vertex -1.55038 10.6354 2.1
      vertex -1.23336 10.6892 2.1
    endloop
  endfacet
  facet normal -0.167313 0.985904 0
    outer loop
      vertex -1.55038 10.6354 2.1
      vertex -1.23336 10.6892 0.8
      vertex -1.55038 10.6354 0.8
    endloop
  endfacet
  facet normal -0.124167 0.992261 0
    outer loop
      vertex -0.926492 10.7276 0.8
      vertex -1.23336 10.6892 2.1
      vertex -0.926492 10.7276 2.1
    endloop
  endfacet
  facet normal -0.124167 0.992261 0
    outer loop
      vertex -1.23336 10.6892 2.1
      vertex -0.926492 10.7276 0.8
      vertex -1.23336 10.6892 0.8
    endloop
  endfacet
  facet normal -0.0776236 0.996983 0
    outer loop
      vertex -0.6298 10.7507 0.8
      vertex -0.926492 10.7276 2.1
      vertex -0.6298 10.7507 2.1
    endloop
  endfacet
  facet normal -0.0776236 0.996983 0
    outer loop
      vertex -0.926492 10.7276 2.1
      vertex -0.6298 10.7507 0.8
      vertex -0.926492 10.7276 0.8
    endloop
  endfacet
  facet normal -0.0268636 0.999639 0
    outer loop
      vertex -0.34327 10.7584 0.8
      vertex -0.6298 10.7507 2.1
      vertex -0.34327 10.7584 2.1
    endloop
  endfacet
  facet normal -0.0268636 0.999639 0
    outer loop
      vertex -0.6298 10.7507 2.1
      vertex -0.34327 10.7584 0.8
      vertex -0.6298 10.7507 0.8
    endloop
  endfacet
  facet normal 0.0536812 0.998558 -0
    outer loop
      vertex 0.142233 10.7323 0.8
      vertex -0.34327 10.7584 2.1
      vertex 0.142233 10.7323 2.1
    endloop
  endfacet
  facet normal 0.0536812 0.998558 0
    outer loop
      vertex -0.34327 10.7584 2.1
      vertex 0.142233 10.7323 0.8
      vertex -0.34327 10.7584 0.8
    endloop
  endfacet
  facet normal 0.181107 0.983463 -0
    outer loop
      vertex 0.567968 10.6539 0.8
      vertex 0.142233 10.7323 2.1
      vertex 0.567968 10.6539 2.1
    endloop
  endfacet
  facet normal 0.181107 0.983463 0
    outer loop
      vertex 0.142233 10.7323 2.1
      vertex 0.567968 10.6539 0.8
      vertex 0.142233 10.7323 0.8
    endloop
  endfacet
  facet normal 0.336102 0.941825 -0
    outer loop
      vertex 0.933935 10.5233 0.8
      vertex 0.567968 10.6539 2.1
      vertex 0.933935 10.5233 2.1
    endloop
  endfacet
  facet normal 0.336102 0.941825 0
    outer loop
      vertex 0.567968 10.6539 2.1
      vertex 0.933935 10.5233 0.8
      vertex 0.567968 10.6539 0.8
    endloop
  endfacet
  facet normal 0.512823 0.858494 -0
    outer loop
      vertex 1.24012 10.3404 0.8
      vertex 0.933935 10.5233 2.1
      vertex 1.24012 10.3404 2.1
    endloop
  endfacet
  facet normal 0.512823 0.858494 0
    outer loop
      vertex 0.933935 10.5233 2.1
      vertex 1.24012 10.3404 0.8
      vertex 0.933935 10.5233 0.8
    endloop
  endfacet
  facet normal 0.691866 0.722025 -0
    outer loop
      vertex 1.48192 10.1087 0.8
      vertex 1.24012 10.3404 2.1
      vertex 1.48192 10.1087 2.1
    endloop
  endfacet
  facet normal 0.691866 0.722025 0
    outer loop
      vertex 1.24012 10.3404 2.1
      vertex 1.48192 10.1087 0.8
      vertex 1.24012 10.3404 0.8
    endloop
  endfacet
  facet normal 0.848627 0.528991 0
    outer loop
      vertex 1.65465 9.8316 2.1
      vertex 1.48192 10.1087 0.8
      vertex 1.48192 10.1087 2.1
    endloop
  endfacet
  facet normal 0.848627 0.528991 0
    outer loop
      vertex 1.48192 10.1087 0.8
      vertex 1.65465 9.8316 2.1
      vertex 1.65465 9.8316 0.8
    endloop
  endfacet
  facet normal 0.95208 0.30585 0
    outer loop
      vertex 1.75828 9.50901 2.1
      vertex 1.65465 9.8316 0.8
      vertex 1.65465 9.8316 2.1
    endloop
  endfacet
  facet normal 0.95208 0.30585 0
    outer loop
      vertex 1.65465 9.8316 0.8
      vertex 1.75828 9.50901 2.1
      vertex 1.75828 9.50901 0.8
    endloop
  endfacet
  facet normal 0.995625 0.0934404 0
    outer loop
      vertex 1.79282 9.14098 2.1
      vertex 1.75828 9.50901 0.8
      vertex 1.75828 9.50901 2.1
    endloop
  endfacet
  facet normal 0.995625 0.0934404 0
    outer loop
      vertex 1.75828 9.50901 0.8
      vertex 1.79282 9.14098 2.1
      vertex 1.79282 9.14098 0.8
    endloop
  endfacet
  facet normal 0.995661 -0.0930514 0
    outer loop
      vertex 1.75934 8.78274 2.1
      vertex 1.79282 9.14098 0.8
      vertex 1.79282 9.14098 2.1
    endloop
  endfacet
  facet normal 0.995661 -0.0930514 0
    outer loop
      vertex 1.79282 9.14098 0.8
      vertex 1.75934 8.78274 2.1
      vertex 1.75934 8.78274 0.8
    endloop
  endfacet
  facet normal 0.952352 -0.305003 0
    outer loop
      vertex 1.65888 8.46906 2.1
      vertex 1.75934 8.78274 0.8
      vertex 1.75934 8.78274 2.1
    endloop
  endfacet
  facet normal 0.952352 -0.305003 0
    outer loop
      vertex 1.75934 8.78274 0.8
      vertex 1.65888 8.46906 2.1
      vertex 1.65888 8.46906 0.8
    endloop
  endfacet
  facet normal 0.849016 -0.528367 0
    outer loop
      vertex 1.49143 8.19999 2.1
      vertex 1.65888 8.46906 0.8
      vertex 1.65888 8.46906 2.1
    endloop
  endfacet
  facet normal 0.849016 -0.528367 0
    outer loop
      vertex 1.65888 8.46906 0.8
      vertex 1.49143 8.19999 2.1
      vertex 1.49143 8.19999 0.8
    endloop
  endfacet
  facet normal 0.691676 -0.722208 0
    outer loop
      vertex 1.25702 7.97549 0.8
      vertex 1.49143 8.19999 2.1
      vertex 1.25702 7.97549 2.1
    endloop
  endfacet
  facet normal 0.691676 -0.722208 0
    outer loop
      vertex 1.49143 8.19999 2.1
      vertex 1.25702 7.97549 0.8
      vertex 1.49143 8.19999 0.8
    endloop
  endfacet
  facet normal 0.511036 -0.859559 0
    outer loop
      vertex 0.959509 7.79861 0.8
      vertex 1.25702 7.97549 2.1
      vertex 0.959509 7.79861 2.1
    endloop
  endfacet
  facet normal 0.511036 -0.859559 0
    outer loop
      vertex 1.25702 7.97549 2.1
      vertex 0.959509 7.79861 0.8
      vertex 1.25702 7.97549 0.8
    endloop
  endfacet
  facet normal 0.333737 -0.942666 0
    outer loop
      vertex 0.602652 7.67227 0.8
      vertex 0.959509 7.79861 2.1
      vertex 0.602652 7.67227 2.1
    endloop
  endfacet
  facet normal 0.333737 -0.942666 0
    outer loop
      vertex 0.959509 7.79861 2.1
      vertex 0.602652 7.67227 0.8
      vertex 0.959509 7.79861 0.8
    endloop
  endfacet
  facet normal 0.1792 -0.983813 0
    outer loop
      vertex 0.186453 7.59646 0.8
      vertex 0.602652 7.67227 2.1
      vertex 0.186453 7.59646 2.1
    endloop
  endfacet
  facet normal 0.1792 -0.983813 0
    outer loop
      vertex 0.602652 7.67227 2.1
      vertex 0.186453 7.59646 0.8
      vertex 0.602652 7.67227 0.8
    endloop
  endfacet
  facet normal 0.0530665 -0.998591 0
    outer loop
      vertex -0.289071 7.57119 0.8
      vertex 0.186453 7.59646 2.1
      vertex -0.289071 7.57119 2.1
    endloop
  endfacet
  facet normal 0.0530665 -0.998591 0
    outer loop
      vertex 0.186453 7.59646 2.1
      vertex -0.289071 7.57119 0.8
      vertex 0.186453 7.59646 0.8
    endloop
  endfacet
  facet normal 0 -1 0
    outer loop
      vertex -1.52328 7.57119 0.8
      vertex -0.289071 7.57119 2.1
      vertex -1.52328 7.57119 2.1
    endloop
  endfacet
  facet normal 0 -1 -0
    outer loop
      vertex -0.289071 7.57119 2.1
      vertex -1.52328 7.57119 0.8
      vertex -0.289071 7.57119 0.8
    endloop
  endfacet
  facet normal 1 -0 0
    outer loop
      vertex -1.52328 6.44479 2.1
      vertex -1.52328 7.57119 0.8
      vertex -1.52328 7.57119 2.1
    endloop
  endfacet
  facet normal 1 0 0
    outer loop
      vertex -1.52328 7.57119 0.8
      vertex -1.52328 6.44479 2.1
      vertex -1.52328 6.44479 0.8
    endloop
  endfacet
  facet normal 0 1 -0
    outer loop
      vertex -0.34327 6.44479 0.8
      vertex -1.52328 6.44479 2.1
      vertex -0.34327 6.44479 2.1
    endloop
  endfacet
  facet normal 0 1 0
    outer loop
      vertex -1.52328 6.44479 2.1
      vertex -0.34327 6.44479 0.8
      vertex -1.52328 6.44479 0.8
    endloop
  endfacet
  facet normal 0.0596045 0.998222 -0
    outer loop
      vertex 0.185446 6.41322 0.8
      vertex -0.34327 6.44479 2.1
      vertex 0.185446 6.41322 2.1
    endloop
  endfacet
  facet normal 0.0596045 0.998222 0
    outer loop
      vertex -0.34327 6.44479 2.1
      vertex 0.185446 6.41322 0.8
      vertex -0.34327 6.44479 0.8
    endloop
  endfacet
  facet normal 0.198635 0.980074 -0
    outer loop
      vertex 0.6527 6.31852 0.8
      vertex 0.185446 6.41322 2.1
      vertex 0.6527 6.31852 2.1
    endloop
  endfacet
  facet normal 0.198635 0.980074 0
    outer loop
      vertex 0.185446 6.41322 2.1
      vertex 0.6527 6.31852 0.8
      vertex 0.185446 6.41322 0.8
    endloop
  endfacet
  facet normal 0.362532 0.931971 -0
    outer loop
      vertex 1.05849 6.16067 0.8
      vertex 0.6527 6.31852 2.1
      vertex 1.05849 6.16067 2.1
    endloop
  endfacet
  facet normal 0.362532 0.931971 0
    outer loop
      vertex 0.6527 6.31852 2.1
      vertex 1.05849 6.16067 0.8
      vertex 0.6527 6.31852 0.8
    endloop
  endfacet
  facet normal 0.540109 0.841595 -0
    outer loop
      vertex 1.40282 5.93969 0.8
      vertex 1.05849 6.16067 2.1
      vertex 1.40282 5.93969 2.1
    endloop
  endfacet
  facet normal 0.540109 0.841595 0
    outer loop
      vertex 1.05849 6.16067 2.1
      vertex 1.40282 5.93969 0.8
      vertex 1.05849 6.16067 0.8
    endloop
  endfacet
  facet normal 0.710178 0.704022 0
    outer loop
      vertex 1.67727 5.66284 2.1
      vertex 1.40282 5.93969 0.8
      vertex 1.40282 5.93969 2.1
    endloop
  endfacet
  facet normal 0.710178 0.704022 0
    outer loop
      vertex 1.40282 5.93969 0.8
      vertex 1.67727 5.66284 2.1
      vertex 1.67727 5.66284 0.8
    endloop
  endfacet
  facet normal 0.856714 0.515791 0
    outer loop
      vertex 1.8733 5.33724 2.1
      vertex 1.67727 5.66284 0.8
      vertex 1.67727 5.66284 2.1
    endloop
  endfacet
  facet normal 0.856714 0.515791 0
    outer loop
      vertex 1.67727 5.66284 0.8
      vertex 1.8733 5.33724 2.1
      vertex 1.8733 5.33724 0.8
    endloop
  endfacet
  facet normal 0.954016 0.299756 0
    outer loop
      vertex 1.99091 4.96293 2.1
      vertex 1.8733 5.33724 0.8
      vertex 1.8733 5.33724 2.1
    endloop
  endfacet
  facet normal 0.954016 0.299756 0
    outer loop
      vertex 1.8733 5.33724 0.8
      vertex 1.99091 4.96293 2.1
      vertex 1.99091 4.96293 0.8
    endloop
  endfacet
  facet normal 0.99573 0.0923162 0
    outer loop
      vertex 2.03013 4.5399 2.1
      vertex 1.99091 4.96293 0.8
      vertex 1.99091 4.96293 2.1
    endloop
  endfacet
  facet normal 0.99573 0.0923162 0
    outer loop
      vertex 1.99091 4.96293 0.8
      vertex 2.03013 4.5399 2.1
      vertex 2.03013 4.5399 0.8
    endloop
  endfacet
  facet normal 0.995747 -0.0921248 0
    outer loop
      vertex 1.98795 4.08399 2.1
      vertex 2.03013 4.5399 0.8
      vertex 2.03013 4.5399 2.1
    endloop
  endfacet
  facet normal 0.995747 -0.0921248 0
    outer loop
      vertex 2.03013 4.5399 0.8
      vertex 1.98795 4.08399 2.1
      vertex 1.98795 4.08399 0.8
    endloop
  endfacet
  facet normal 0.953066 -0.302764 0
    outer loop
      vertex 1.86143 3.68572 2.1
      vertex 1.98795 4.08399 0.8
      vertex 1.98795 4.08399 2.1
    endloop
  endfacet
  facet normal 0.953066 -0.302764 0
    outer loop
      vertex 1.98795 4.08399 0.8
      vertex 1.86143 3.68572 2.1
      vertex 1.86143 3.68572 0.8
    endloop
  endfacet
  facet normal 0.85027 -0.526346 0
    outer loop
      vertex 1.65055 3.34506 2.1
      vertex 1.86143 3.68572 0.8
      vertex 1.86143 3.68572 2.1
    endloop
  endfacet
  facet normal 0.85027 -0.526346 0
    outer loop
      vertex 1.86143 3.68572 0.8
      vertex 1.65055 3.34506 2.1
      vertex 1.65055 3.34506 0.8
    endloop
  endfacet
  facet normal 0.692085 -0.721816 0
    outer loop
      vertex 1.35532 3.06199 0.8
      vertex 1.65055 3.34506 2.1
      vertex 1.35532 3.06199 2.1
    endloop
  endfacet
  facet normal 0.692085 -0.721816 0
    outer loop
      vertex 1.65055 3.34506 2.1
      vertex 1.35532 3.06199 0.8
      vertex 1.65055 3.34506 0.8
    endloop
  endfacet
  facet normal 0.509451 -0.860499 0
    outer loop
      vertex 0.97962 2.83956 0.8
      vertex 1.35532 3.06199 2.1
      vertex 0.97962 2.83956 2.1
    endloop
  endfacet
  facet normal 0.509451 -0.860499 0
    outer loop
      vertex 1.35532 3.06199 2.1
      vertex 0.97962 2.83956 0.8
      vertex 1.35532 3.06199 0.8
    endloop
  endfacet
  facet normal 0.33132 -0.943518 0
    outer loop
      vertex 0.527197 2.68069 0.8
      vertex 0.97962 2.83956 2.1
      vertex 0.527197 2.68069 2.1
    endloop
  endfacet
  facet normal 0.33132 -0.943518 0
    outer loop
      vertex 0.97962 2.83956 2.1
      vertex 0.527197 2.68069 0.8
      vertex 0.97962 2.83956 0.8
    endloop
  endfacet
  facet normal 0.177292 -0.984158 0
    outer loop
      vertex -0.00193119 2.58537 0.8
      vertex 0.527197 2.68069 2.1
      vertex -0.00193119 2.58537 2.1
    endloop
  endfacet
  facet normal 0.177292 -0.984158 0
    outer loop
      vertex 0.527197 2.68069 2.1
      vertex -0.00193119 2.58537 0.8
      vertex 0.527197 2.68069 0.8
    endloop
  endfacet
  facet normal 0.0523668 -0.998628 0
    outer loop
      vertex -0.607781 2.5536 0.8
      vertex -0.00193119 2.58537 2.1
      vertex -0.607781 2.5536 2.1
    endloop
  endfacet
  facet normal 0.0523668 -0.998628 0
    outer loop
      vertex -0.00193119 2.58537 2.1
      vertex -0.607781 2.5536 0.8
      vertex -0.00193119 2.58537 0.8
    endloop
  endfacet
  facet normal -0.0289703 -0.99958 0
    outer loop
      vertex -0.973519 2.5642 0.8
      vertex -0.607781 2.5536 2.1
      vertex -0.973519 2.5642 2.1
    endloop
  endfacet
  facet normal -0.0289703 -0.99958 -0
    outer loop
      vertex -0.607781 2.5536 2.1
      vertex -0.973519 2.5642 0.8
      vertex -0.607781 2.5536 0.8
    endloop
  endfacet
  facet normal -0.088504 -0.996076 0
    outer loop
      vertex -1.33164 2.59602 0.8
      vertex -0.973519 2.5642 2.1
      vertex -1.33164 2.59602 2.1
    endloop
  endfacet
  facet normal -0.088504 -0.996076 -0
    outer loop
      vertex -0.973519 2.5642 2.1
      vertex -1.33164 2.59602 0.8
      vertex -0.973519 2.5642 0.8
    endloop
  endfacet
  facet normal -0.149556 -0.988753 0
    outer loop
      vertex -1.68217 2.64904 0.8
      vertex -1.33164 2.59602 2.1
      vertex -1.68217 2.64904 2.1
    endloop
  endfacet
  facet normal -0.149556 -0.988753 -0
    outer loop
      vertex -1.33164 2.59602 2.1
      vertex -1.68217 2.64904 0.8
      vertex -1.33164 2.59602 0.8
    endloop
  endfacet
  facet normal -0.211625 -0.977351 0
    outer loop
      vertex -2.02508 2.72329 0.8
      vertex -1.68217 2.64904 2.1
      vertex -2.02508 2.72329 2.1
    endloop
  endfacet
  facet normal -0.211625 -0.977351 -0
    outer loop
      vertex -1.68217 2.64904 2.1
      vertex -2.02508 2.72329 0.8
      vertex -1.68217 2.64904 0.8
    endloop
  endfacet
  facet normal -0.274985 -0.961449 0
    outer loop
      vertex -2.35734 2.81832 0.8
      vertex -2.02508 2.72329 2.1
      vertex -2.35734 2.81832 2.1
    endloop
  endfacet
  facet normal -0.274985 -0.961449 -0
    outer loop
      vertex -2.02508 2.72329 2.1
      vertex -2.35734 2.81832 0.8
      vertex -2.02508 2.72329 0.8
    endloop
  endfacet
  facet normal -0.340454 -0.940261 0
    outer loop
      vertex -2.67605 2.93372 0.8
      vertex -2.35734 2.81832 2.1
      vertex -2.67605 2.93372 2.1
    endloop
  endfacet
  facet normal -0.340454 -0.940261 -0
    outer loop
      vertex -2.35734 2.81832 2.1
      vertex -2.67605 2.93372 0.8
      vertex -2.35734 2.81832 0.8
    endloop
  endfacet
  facet normal -0.406469 -0.913665 0
    outer loop
      vertex -2.98119 3.06947 0.8
      vertex -2.67605 2.93372 2.1
      vertex -2.98119 3.06947 2.1
    endloop
  endfacet
  facet normal -0.406469 -0.913665 -0
    outer loop
      vertex -2.67605 2.93372 2.1
      vertex -2.98119 3.06947 0.8
      vertex -2.67605 2.93372 0.8
    endloop
  endfacet
  facet normal -0.472025 -0.881585 0
    outer loop
      vertex -3.27277 3.22559 0.8
      vertex -2.98119 3.06947 2.1
      vertex -3.27277 3.22559 2.1
    endloop
  endfacet
  facet normal -0.472025 -0.881585 -0
    outer loop
      vertex -2.98119 3.06947 2.1
      vertex -3.27277 3.22559 0.8
      vertex -2.98119 3.06947 0.8
    endloop
  endfacet
  facet normal 1 -0 0
    outer loop
      vertex -3.27277 1.9008 2.1
      vertex -3.27277 3.22559 0.8
      vertex -3.27277 3.22559 2.1
    endloop
  endfacet
  facet normal 1 0 0
    outer loop
      vertex -3.27277 3.22559 0.8
      vertex -3.27277 1.9008 2.1
      vertex -3.27277 1.9008 0.8
    endloop
  endfacet
  facet normal 0.31174 0.950167 -0
    outer loop
      vertex -2.91613 1.78379 0.8
      vertex -3.27277 1.9008 2.1
      vertex -2.91613 1.78379 2.1
    endloop
  endfacet
  facet normal 0.31174 0.950167 0
    outer loop
      vertex -3.27277 1.9008 2.1
      vertex -2.91613 1.78379 0.8
      vertex -3.27277 1.9008 0.8
    endloop
  endfacet
  facet normal 0.27742 0.960749 -0
    outer loop
      vertex -2.565 1.6824 0.8
      vertex -2.91613 1.78379 2.1
      vertex -2.565 1.6824 2.1
    endloop
  endfacet
  facet normal 0.27742 0.960749 0
    outer loop
      vertex -2.91613 1.78379 2.1
      vertex -2.565 1.6824 0.8
      vertex -2.91613 1.78379 0.8
    endloop
  endfacet
  facet normal 0.24091 0.970547 -0
    outer loop
      vertex -2.21938 1.59661 0.8
      vertex -2.565 1.6824 2.1
      vertex -2.21938 1.59661 2.1
    endloop
  endfacet
  facet normal 0.24091 0.970547 0
    outer loop
      vertex -2.565 1.6824 2.1
      vertex -2.21938 1.59661 0.8
      vertex -2.565 1.6824 0.8
    endloop
  endfacet
  facet normal 0.202149 0.979355 -0
    outer loop
      vertex -1.87928 1.52641 0.8
      vertex -2.21938 1.59661 2.1
      vertex -1.87928 1.52641 2.1
    endloop
  endfacet
  facet normal 0.202149 0.979355 0
    outer loop
      vertex -2.21938 1.59661 2.1
      vertex -1.87928 1.52641 0.8
      vertex -2.21938 1.59661 0.8
    endloop
  endfacet
  facet normal 0.16083 0.986982 -0
    outer loop
      vertex -1.54421 1.47181 0.8
      vertex -1.87928 1.52641 2.1
      vertex -1.54421 1.47181 2.1
    endloop
  endfacet
  facet normal 0.16083 0.986982 0
    outer loop
      vertex -1.87928 1.52641 2.1
      vertex -1.54421 1.47181 0.8
      vertex -1.87928 1.52641 0.8
    endloop
  endfacet
  facet normal 0.117232 0.993105 -0
    outer loop
      vertex -1.21383 1.43281 0.8
      vertex -1.54421 1.47181 2.1
      vertex -1.21383 1.43281 2.1
    endloop
  endfacet
  facet normal 0.117232 0.993105 0
    outer loop
      vertex -1.54421 1.47181 2.1
      vertex -1.21383 1.43281 0.8
      vertex -1.54421 1.47181 0.8
    endloop
  endfacet
  facet normal 0.0716879 0.997427 -0
    outer loop
      vertex -0.888116 1.4094 0.8
      vertex -1.21383 1.43281 2.1
      vertex -0.888116 1.4094 2.1
    endloop
  endfacet
  facet normal 0.0716879 0.997427 0
    outer loop
      vertex -1.21383 1.43281 2.1
      vertex -0.888116 1.4094 0.8
      vertex -1.21383 1.43281 0.8
    endloop
  endfacet
  facet normal 0.0242885 0.999705 -0
    outer loop
      vertex -0.567071 1.4016 0.8
      vertex -0.888116 1.4094 2.1
      vertex -0.567071 1.4016 2.1
    endloop
  endfacet
  facet normal 0.0242885 0.999705 0
    outer loop
      vertex -0.888116 1.4094 2.1
      vertex -0.567071 1.4016 0.8
      vertex -0.888116 1.4094 0.8
    endloop
  endfacet
  facet normal -0.0571851 0.998364 0
    outer loop
      vertex 0.328024 1.45287 0.8
      vertex -0.567071 1.4016 2.1
      vertex 0.328024 1.45287 2.1
    endloop
  endfacet
  facet normal -0.0571851 0.998364 0
    outer loop
      vertex -0.567071 1.4016 2.1
      vertex 0.328024 1.45287 0.8
      vertex -0.567071 1.4016 0.8
    endloop
  endfacet
endsolid OpenSCAD_Model
