solid OpenSCAD_Model
  facet normal 0.587786 0.809017 -0
    outer loop
      vertex 25.8687 8.40526 0
      vertex 0 27.2 6.2
      vertex 25.8687 8.40526 6.2
    endloop
  endfacet
  facet normal 0.587786 0.809017 0
    outer loop
      vertex 0 27.2 6.2
      vertex 25.8687 8.40526 0
      vertex 0 27.2 0
    endloop
  endfacet
  facet normal 0 0 1
    outer loop
      vertex 0 27.2 6.2
      vertex 24.347 7.91083 6.2
      vertex 25.8687 8.40526 6.2
    endloop
  endfacet
  facet normal 0 0 1
    outer loop
      vertex 0 27.2 6.2
      vertex 0 25.6 6.2
      vertex 24.347 7.91083 6.2
    endloop
  endfacet
  facet normal 0 0 1
    outer loop
      vertex 0 27.2 6.2
      vertex -24.347 7.91083 6.2
      vertex 0 25.6 6.2
    endloop
  endfacet
  facet normal 0 -0 1
    outer loop
      vertex -24.347 7.91083 6.2
      vertex 0 27.2 6.2
      vertex -25.8687 8.40526 6.2
    endloop
  endfacet
  facet normal -0 0 1
    outer loop
      vertex 24.347 7.91083 6.2
      vertex 15.9878 -22.0053 6.2
      vertex 25.8687 8.40526 6.2
    endloop
  endfacet
  facet normal -0 0 1
    outer loop
      vertex 15.0473 -20.7108 6.2
      vertex 15.9878 -22.0053 6.2
      vertex 24.347 7.91083 6.2
    endloop
  endfacet
  facet normal -0 0 1
    outer loop
      vertex -15.0473 -20.7108 6.2
      vertex 15.9878 -22.0053 6.2
      vertex 15.0473 -20.7108 6.2
    endloop
  endfacet
  facet normal 0 0 1
    outer loop
      vertex -15.0473 -20.7108 6.2
      vertex -15.9878 -22.0053 6.2
      vertex 15.9878 -22.0053 6.2
    endloop
  endfacet
  facet normal 0 0 1
    outer loop
      vertex -24.347 7.91083 6.2
      vertex -15.9878 -22.0053 6.2
      vertex -15.0473 -20.7108 6.2
    endloop
  endfacet
  facet normal 0 0 1
    outer loop
      vertex -15.9878 -22.0053 6.2
      vertex -24.347 7.91083 6.2
      vertex -25.8687 8.40526 6.2
    endloop
  endfacet
  facet normal 0 0 -1
    outer loop
      vertex 15.9878 -22.0053 0
      vertex 0 27.2 0
      vertex 25.8687 8.40526 0
    endloop
  endfacet
  facet normal 0 0 -1
    outer loop
      vertex -15.9878 -22.0053 0
      vertex 0 27.2 0
      vertex 15.9878 -22.0053 0
    endloop
  endfacet
  facet normal 0 0 -1
    outer loop
      vertex 0 27.2 0
      vertex -15.9878 -22.0053 0
      vertex -25.8687 8.40526 0
    endloop
  endfacet
  facet normal -0.951057 -0.309014 0
    outer loop
      vertex -15.9878 -22.0053 0
      vertex -25.8687 8.40526 6.2
      vertex -25.8687 8.40526 0
    endloop
  endfacet
  facet normal -0.951057 -0.309014 0
    outer loop
      vertex -25.8687 8.40526 6.2
      vertex -15.9878 -22.0053 0
      vertex -15.9878 -22.0053 6.2
    endloop
  endfacet
  facet normal 0 -1 0
    outer loop
      vertex -15.9878 -22.0053 0
      vertex 15.9878 -22.0053 6.2
      vertex -15.9878 -22.0053 6.2
    endloop
  endfacet
  facet normal 0 -1 -0
    outer loop
      vertex 15.9878 -22.0053 6.2
      vertex -15.9878 -22.0053 0
      vertex 15.9878 -22.0053 0
    endloop
  endfacet
  facet normal 0.951057 -0.309014 0
    outer loop
      vertex 15.9878 -22.0053 6.2
      vertex 25.8687 8.40526 0
      vertex 25.8687 8.40526 6.2
    endloop
  endfacet
  facet normal 0.951057 -0.309014 0
    outer loop
      vertex 25.8687 8.40526 0
      vertex 15.9878 -22.0053 6.2
      vertex 15.9878 -22.0053 0
    endloop
  endfacet
  facet normal -0.587786 0.809017 0
    outer loop
      vertex 0 27.2 0
      vertex -25.8687 8.40526 6.2
      vertex 0 27.2 6.2
    endloop
  endfacet
  facet normal -0.587786 0.809017 0
    outer loop
      vertex -25.8687 8.40526 6.2
      vertex 0 27.2 0
      vertex -25.8687 8.40526 0
    endloop
  endfacet
  facet normal 0 1 -0
    outer loop
      vertex 15.0473 -20.7108 4.6
      vertex -15.0473 -20.7108 6.2
      vertex 15.0473 -20.7108 6.2
    endloop
  endfacet
  facet normal 0 1 0
    outer loop
      vertex -15.0473 -20.7108 6.2
      vertex 15.0473 -20.7108 4.6
      vertex -15.0473 -20.7108 4.6
    endloop
  endfacet
  facet normal -0.587786 -0.809016 0
    outer loop
      vertex 0 25.6 4.6
      vertex 24.347 7.91083 6.2
      vertex 0 25.6 6.2
    endloop
  endfacet
  facet normal -0.587786 -0.809016 -0
    outer loop
      vertex 24.347 7.91083 6.2
      vertex 0 25.6 4.6
      vertex 24.347 7.91083 4.6
    endloop
  endfacet
  facet normal 0 0 1
    outer loop
      vertex 0 25.6 4.6
      vertex -14.6 -1.4 4.6
      vertex -1.4 -1.4 4.6
    endloop
  endfacet
  facet normal 0 0 1
    outer loop
      vertex -24.347 7.91083 4.6
      vertex -14.6 -14.6 4.6
      vertex -14.6 -1.4 4.6
    endloop
  endfacet
  facet normal 0 0 1
    outer loop
      vertex -14.6 -14.6 4.6
      vertex -24.347 7.91083 4.6
      vertex -15.0473 -20.7108 4.6
    endloop
  endfacet
  facet normal -0 0 1
    outer loop
      vertex -24.347 7.91083 4.6
      vertex -14.6 -1.4 4.6
      vertex 0 25.6 4.6
    endloop
  endfacet
  facet normal 0 0 1
    outer loop
      vertex 14.6 -14.6 4.6
      vertex 24.347 7.91083 4.6
      vertex 14.6 -1.4 4.6
    endloop
  endfacet
  facet normal 0 0 1
    outer loop
      vertex 0 25.6 4.6
      vertex 14.6 -1.4 4.6
      vertex 24.347 7.91083 4.6
    endloop
  endfacet
  facet normal 0 0 1
    outer loop
      vertex -1.4 -1.4 4.6
      vertex 1.4 -1.4 4.6
      vertex 0 25.6 4.6
    endloop
  endfacet
  facet normal 0 0 1
    outer loop
      vertex 14.6 -1.4 4.6
      vertex 0 25.6 4.6
      vertex 1.4 -1.4 4.6
    endloop
  endfacet
  facet normal 0 0 1
    outer loop
      vertex 24.347 7.91083 4.6
      vertex 14.6 -14.6 4.6
      vertex 15.0473 -20.7108 4.6
    endloop
  endfacet
  facet normal -0 0 1
    outer loop
      vertex 1.4 -14.6 4.6
      vertex 15.0473 -20.7108 4.6
      vertex 14.6 -14.6 4.6
    endloop
  endfacet
  facet normal 0 0 1
    outer loop
      vertex 1.4 -1.4 4.6
      vertex -1.4 -1.4 4.6
      vertex 1.4 -14.6 4.6
    endloop
  endfacet
  facet normal 0 0 1
    outer loop
      vertex -1.4 -14.6 4.6
      vertex 1.4 -14.6 4.6
      vertex -1.4 -1.4 4.6
    endloop
  endfacet
  facet normal -0 0 1
    outer loop
      vertex -1.4 -14.6 4.6
      vertex 15.0473 -20.7108 4.6
      vertex 1.4 -14.6 4.6
    endloop
  endfacet
  facet normal 0 0 1
    outer loop
      vertex -15.0473 -20.7108 4.6
      vertex -1.4 -14.6 4.6
      vertex -14.6 -14.6 4.6
    endloop
  endfacet
  facet normal 0 0 1
    outer loop
      vertex -1.4 -14.6 4.6
      vertex -15.0473 -20.7108 4.6
      vertex 15.0473 -20.7108 4.6
    endloop
  endfacet
  facet normal 0.951057 0.309016 0
    outer loop
      vertex -15.0473 -20.7108 6.2
      vertex -24.347 7.91083 4.6
      vertex -24.347 7.91083 6.2
    endloop
  endfacet
  facet normal 0.951057 0.309016 0
    outer loop
      vertex -24.347 7.91083 4.6
      vertex -15.0473 -20.7108 6.2
      vertex -15.0473 -20.7108 4.6
    endloop
  endfacet
  facet normal -0.951057 0.309016 0
    outer loop
      vertex 15.0473 -20.7108 4.6
      vertex 24.347 7.91083 6.2
      vertex 24.347 7.91083 4.6
    endloop
  endfacet
  facet normal -0.951057 0.309016 0
    outer loop
      vertex 24.347 7.91083 6.2
      vertex 15.0473 -20.7108 4.6
      vertex 15.0473 -20.7108 6.2
    endloop
  endfacet
  facet normal 0.587786 -0.809016 0
    outer loop
      vertex -24.347 7.91083 4.6
      vertex 0 25.6 6.2
      vertex -24.347 7.91083 6.2
    endloop
  endfacet
  facet normal 0.587786 -0.809016 0
    outer loop
      vertex 0 25.6 6.2
      vertex -24.347 7.91083 4.6
      vertex 0 25.6 4.6
    endloop
  endfacet
  facet normal -0 0 1
    outer loop
      vertex 1.4 -1.4 1
      vertex 14.6 -14.6 1
      vertex 14.6 -1.4 1
    endloop
  endfacet
  facet normal 0 0 1
    outer loop
      vertex 14.6 -14.6 1
      vertex 1.4 -1.4 1
      vertex 1.4 -14.6 1
    endloop
  endfacet
  facet normal 1 -0 0
    outer loop
      vertex 1.4 -14.6 4.6
      vertex 1.4 -1.4 1
      vertex 1.4 -1.4 4.6
    endloop
  endfacet
  facet normal 1 0 0
    outer loop
      vertex 1.4 -1.4 1
      vertex 1.4 -14.6 4.6
      vertex 1.4 -14.6 1
    endloop
  endfacet
  facet normal 0 -1 0
    outer loop
      vertex 1.4 -1.4 1
      vertex 14.6 -1.4 4.6
      vertex 1.4 -1.4 4.6
    endloop
  endfacet
  facet normal 0 -1 -0
    outer loop
      vertex 14.6 -1.4 4.6
      vertex 1.4 -1.4 1
      vertex 14.6 -1.4 1
    endloop
  endfacet
  facet normal -1 0 0
    outer loop
      vertex 14.6 -14.6 1
      vertex 14.6 -1.4 4.6
      vertex 14.6 -1.4 1
    endloop
  endfacet
  facet normal -1 -0 0
    outer loop
      vertex 14.6 -1.4 4.6
      vertex 14.6 -14.6 1
      vertex 14.6 -14.6 4.6
    endloop
  endfacet
  facet normal 0 1 -0
    outer loop
      vertex 14.6 -14.6 1
      vertex 1.4 -14.6 4.6
      vertex 14.6 -14.6 4.6
    endloop
  endfacet
  facet normal 0 1 0
    outer loop
      vertex 1.4 -14.6 4.6
      vertex 14.6 -14.6 1
      vertex 1.4 -14.6 1
    endloop
  endfacet
  facet normal -0 0 1
    outer loop
      vertex -14.6 -1.4 1
      vertex -1.4 -14.6 1
      vertex -1.4 -1.4 1
    endloop
  endfacet
  facet normal 0 0 1
    outer loop
      vertex -1.4 -14.6 1
      vertex -14.6 -1.4 1
      vertex -14.6 -14.6 1
    endloop
  endfacet
  facet normal 1 -0 0
    outer loop
      vertex -14.6 -14.6 4.6
      vertex -14.6 -1.4 1
      vertex -14.6 -1.4 4.6
    endloop
  endfacet
  facet normal 1 0 0
    outer loop
      vertex -14.6 -1.4 1
      vertex -14.6 -14.6 4.6
      vertex -14.6 -14.6 1
    endloop
  endfacet
  facet normal 0 -1 0
    outer loop
      vertex -14.6 -1.4 1
      vertex -1.4 -1.4 4.6
      vertex -14.6 -1.4 4.6
    endloop
  endfacet
  facet normal 0 -1 -0
    outer loop
      vertex -1.4 -1.4 4.6
      vertex -14.6 -1.4 1
      vertex -1.4 -1.4 1
    endloop
  endfacet
  facet normal -1 0 0
    outer loop
      vertex -1.4 -14.6 1
      vertex -1.4 -1.4 4.6
      vertex -1.4 -1.4 1
    endloop
  endfacet
  facet normal -1 -0 0
    outer loop
      vertex -1.4 -1.4 4.6
      vertex -1.4 -14.6 1
      vertex -1.4 -14.6 4.6
    endloop
  endfacet
  facet normal 0 1 -0
    outer loop
      vertex -1.4 -14.6 1
      vertex -14.6 -14.6 4.6
      vertex -1.4 -14.6 4.6
    endloop
  endfacet
  facet normal 0 1 0
    outer loop
      vertex -14.6 -14.6 4.6
      vertex -1.4 -14.6 1
      vertex -14.6 -14.6 1
    endloop
  endfacet
endsolid OpenSCAD_Model
