solid OpenSCAD_Model
  facet normal 0 0 1
    outer loop
      vertex 0.707932 3.62151 3.2
      vertex -0.250427 2.7396 3.2
      vertex 0.707932 -2.71926 3.2
    endloop
  endfacet
  facet normal -0 0 1
    outer loop
      vertex -0.26004 3.62151 3.2
      vertex -0.250427 2.7396 3.2
      vertex 0.707932 3.62151 3.2
    endloop
  endfacet
  facet normal -0 0 1
    outer loop
      vertex -1.97081 3.27779 3.2
      vertex -0.250427 2.7396 3.2
      vertex -0.26004 3.62151 3.2
    endloop
  endfacet
  facet normal 0 0 1
    outer loop
      vertex -0.250427 2.7396 3.2
      vertex -1.97081 3.27779 3.2
      vertex -1.97081 2.39588 3.2
    endloop
  endfacet
  facet normal -0 0 1
    outer loop
      vertex 0.707932 -2.71926 3.2
      vertex 2.28931 -3.53333 3.2
      vertex 2.28931 -2.71926 3.2
    endloop
  endfacet
  facet normal 0 0 1
    outer loop
      vertex -0.250427 -2.71926 3.2
      vertex 0.707932 -2.71926 3.2
      vertex -0.250427 2.7396 3.2
    endloop
  endfacet
  facet normal -0 0 1
    outer loop
      vertex -0.250427 -2.71926 3.2
      vertex 2.28931 -3.53333 3.2
      vertex 0.707932 -2.71926 3.2
    endloop
  endfacet
  facet normal 0 0 1
    outer loop
      vertex -1.83188 -3.53333 3.2
      vertex -0.250427 -2.71926 3.2
      vertex -1.83188 -2.71926 3.2
    endloop
  endfacet
  facet normal 0 0 1
    outer loop
      vertex -0.250427 -2.71926 3.2
      vertex -1.83188 -3.53333 3.2
      vertex 2.28931 -3.53333 3.2
    endloop
  endfacet
  facet normal 0 -1 0
    outer loop
      vertex 0.707932 -2.71926 3.2
      vertex 2.28931 -2.71926 6.2
      vertex 0.707932 -2.71926 6.2
    endloop
  endfacet
  facet normal 0 -1 -0
    outer loop
      vertex 2.28931 -2.71926 6.2
      vertex 0.707932 -2.71926 3.2
      vertex 2.28931 -2.71926 3.2
    endloop
  endfacet
  facet normal -1 0 0
    outer loop
      vertex 0.707932 -2.71926 3.2
      vertex 0.707932 3.62151 6.2
      vertex 0.707932 3.62151 3.2
    endloop
  endfacet
  facet normal -1 -0 0
    outer loop
      vertex 0.707932 3.62151 6.2
      vertex 0.707932 -2.71926 3.2
      vertex 0.707932 -2.71926 6.2
    endloop
  endfacet
  facet normal 0 -1 0
    outer loop
      vertex -0.26004 3.62151 3.2
      vertex 0.707932 3.62151 6.2
      vertex -0.26004 3.62151 6.2
    endloop
  endfacet
  facet normal 0 -1 -0
    outer loop
      vertex 0.707932 3.62151 6.2
      vertex -0.26004 3.62151 3.2
      vertex 0.707932 3.62151 3.2
    endloop
  endfacet
  facet normal 0.196979 -0.980408 0
    outer loop
      vertex -1.97081 3.27779 3.2
      vertex -0.26004 3.62151 6.2
      vertex -1.97081 3.27779 6.2
    endloop
  endfacet
  facet normal 0.196979 -0.980408 0
    outer loop
      vertex -0.26004 3.62151 6.2
      vertex -1.97081 3.27779 3.2
      vertex -0.26004 3.62151 3.2
    endloop
  endfacet
  facet normal 1 -0 0
    outer loop
      vertex -1.97081 2.39588 6.2
      vertex -1.97081 3.27779 3.2
      vertex -1.97081 3.27779 6.2
    endloop
  endfacet
  facet normal 1 0 0
    outer loop
      vertex -1.97081 3.27779 3.2
      vertex -1.97081 2.39588 6.2
      vertex -1.97081 2.39588 3.2
    endloop
  endfacet
  facet normal -0.195921 0.98062 0
    outer loop
      vertex -0.250427 2.7396 3.2
      vertex -1.97081 2.39588 6.2
      vertex -0.250427 2.7396 6.2
    endloop
  endfacet
  facet normal -0.195921 0.98062 0
    outer loop
      vertex -1.97081 2.39588 6.2
      vertex -0.250427 2.7396 3.2
      vertex -1.97081 2.39588 3.2
    endloop
  endfacet
  facet normal 1 -0 0
    outer loop
      vertex -0.250427 -2.71926 6.2
      vertex -0.250427 2.7396 3.2
      vertex -0.250427 2.7396 6.2
    endloop
  endfacet
  facet normal 1 0 0
    outer loop
      vertex -0.250427 2.7396 3.2
      vertex -0.250427 -2.71926 6.2
      vertex -0.250427 -2.71926 3.2
    endloop
  endfacet
  facet normal 0 -1 0
    outer loop
      vertex -1.83188 -2.71926 3.2
      vertex -0.250427 -2.71926 6.2
      vertex -1.83188 -2.71926 6.2
    endloop
  endfacet
  facet normal 0 -1 -0
    outer loop
      vertex -0.250427 -2.71926 6.2
      vertex -1.83188 -2.71926 3.2
      vertex -0.250427 -2.71926 3.2
    endloop
  endfacet
  facet normal 1 -0 0
    outer loop
      vertex -1.83188 -3.53333 6.2
      vertex -1.83188 -2.71926 3.2
      vertex -1.83188 -2.71926 6.2
    endloop
  endfacet
  facet normal 1 0 0
    outer loop
      vertex -1.83188 -2.71926 3.2
      vertex -1.83188 -3.53333 6.2
      vertex -1.83188 -3.53333 3.2
    endloop
  endfacet
  facet normal 0 1 -0
    outer loop
      vertex 2.28931 -3.53333 3.2
      vertex -1.83188 -3.53333 6.2
      vertex 2.28931 -3.53333 6.2
    endloop
  endfacet
  facet normal 0 1 0
    outer loop
      vertex -1.83188 -3.53333 6.2
      vertex 2.28931 -3.53333 3.2
      vertex -1.83188 -3.53333 3.2
    endloop
  endfacet
  facet normal -1 0 0
    outer loop
      vertex 2.28931 -3.53333 3.2
      vertex 2.28931 -2.71926 6.2
      vertex 2.28931 -2.71926 3.2
    endloop
  endfacet
  facet normal -1 -0 0
    outer loop
      vertex 2.28931 -2.71926 6.2
      vertex 2.28931 -3.53333 3.2
      vertex 2.28931 -3.53333 6.2
    endloop
  endfacet
  facet normal -1 0 0
    outer loop
      vertex 3.53333 -6.36 3.2
      vertex 3.53333 -5.36 6.2
      vertex 3.53333 -5.36 3.2
    endloop
  endfacet
  facet normal -1 -0 0
    outer loop
      vertex 3.53333 -5.36 6.2
      vertex 3.53333 -6.36 3.2
      vertex 3.53333 -6.36 6.2
    endloop
  endfacet
  facet normal -0 0 1
    outer loop
      vertex -3.53333 -5.36 3.2
      vertex 3.53333 -6.36 3.2
      vertex 3.53333 -5.36 3.2
    endloop
  endfacet
  facet normal 0 0 1
    outer loop
      vertex 3.53333 -6.36 3.2
      vertex -3.53333 -5.36 3.2
      vertex -3.53333 -6.36 3.2
    endloop
  endfacet
  facet normal 1 -0 0
    outer loop
      vertex -3.53333 -6.36 6.2
      vertex -3.53333 -5.36 3.2
      vertex -3.53333 -5.36 6.2
    endloop
  endfacet
  facet normal 1 0 0
    outer loop
      vertex -3.53333 -5.36 3.2
      vertex -3.53333 -6.36 6.2
      vertex -3.53333 -6.36 3.2
    endloop
  endfacet
  facet normal 0 -1 0
    outer loop
      vertex -3.53333 -5.36 3.2
      vertex 3.53333 -5.36 6.2
      vertex -3.53333 -5.36 6.2
    endloop
  endfacet
  facet normal 0 -1 -0
    outer loop
      vertex 3.53333 -5.36 6.2
      vertex -3.53333 -5.36 3.2
      vertex 3.53333 -5.36 3.2
    endloop
  endfacet
  facet normal 0 1 -0
    outer loop
      vertex 3.53333 -6.36 3.2
      vertex -3.53333 -6.36 6.2
      vertex 3.53333 -6.36 6.2
    endloop
  endfacet
  facet normal 0 1 0
    outer loop
      vertex -3.53333 -6.36 6.2
      vertex 3.53333 -6.36 3.2
      vertex -3.53333 -6.36 3.2
    endloop
  endfacet
  facet normal -0.866025 0.500001 0
    outer loop
      vertex -8.66667 0 0
      vertex -4.33333 7.50555 6.2
      vertex -4.33333 7.50555 0
    endloop
  endfacet
  facet normal -0.866025 0.500001 0
    outer loop
      vertex -4.33333 7.50555 6.2
      vertex -8.66667 0 0
      vertex -8.66667 0 6.2
    endloop
  endfacet
  facet normal 0 0 -1
    outer loop
      vertex 4.33333 -7.50555 0
      vertex 4.33333 7.50555 0
      vertex 8.66667 0 0
    endloop
  endfacet
  facet normal 0 0 -1
    outer loop
      vertex -4.33333 -7.50555 0
      vertex 4.33333 7.50555 0
      vertex 4.33333 -7.50555 0
    endloop
  endfacet
  facet normal 0 0 -1
    outer loop
      vertex -4.33333 -7.50555 0
      vertex -4.33333 7.50555 0
      vertex 4.33333 7.50555 0
    endloop
  endfacet
  facet normal 0 -0 -1
    outer loop
      vertex -4.33333 7.50555 0
      vertex -4.33333 -7.50555 0
      vertex -8.66667 0 0
    endloop
  endfacet
  facet normal 0.866025 -0.500001 0
    outer loop
      vertex 4.33333 -7.50555 6.2
      vertex 8.66667 0 0
      vertex 8.66667 0 6.2
    endloop
  endfacet
  facet normal 0.866025 -0.500001 0
    outer loop
      vertex 8.66667 0 0
      vertex 4.33333 -7.50555 6.2
      vertex 4.33333 -7.50555 0
    endloop
  endfacet
  facet normal -0 0 1
    outer loop
      vertex -1.97081 2.39588 6.2
      vertex -0.250427 -2.71926 6.2
      vertex -0.250427 2.7396 6.2
    endloop
  endfacet
  facet normal -0 0 1
    outer loop
      vertex -8.66667 0 6.2
      vertex -1.83188 -2.71926 6.2
      vertex -1.97081 2.39588 6.2
    endloop
  endfacet
  facet normal 0 0 1
    outer loop
      vertex -0.250427 -2.71926 6.2
      vertex -1.97081 2.39588 6.2
      vertex -1.83188 -2.71926 6.2
    endloop
  endfacet
  facet normal -0 0 1
    outer loop
      vertex 0.707932 3.62151 6.2
      vertex 8.66667 0 6.2
      vertex 4.33333 7.50555 6.2
    endloop
  endfacet
  facet normal 0 0 1
    outer loop
      vertex 8.66667 0 6.2
      vertex 3.53333 -5.36 6.2
      vertex 4.33333 -7.50555 6.2
    endloop
  endfacet
  facet normal 0 0 1
    outer loop
      vertex 8.66667 0 6.2
      vertex 2.28931 -2.71926 6.2
      vertex 3.53333 -5.36 6.2
    endloop
  endfacet
  facet normal 0 0 1
    outer loop
      vertex 8.66667 0 6.2
      vertex 0.707932 3.62151 6.2
      vertex 2.28931 -2.71926 6.2
    endloop
  endfacet
  facet normal 0 0 1
    outer loop
      vertex 4.33333 7.50555 6.2
      vertex -0.26004 3.62151 6.2
      vertex 0.707932 3.62151 6.2
    endloop
  endfacet
  facet normal -0 0 1
    outer loop
      vertex -4.33333 7.50555 6.2
      vertex -0.26004 3.62151 6.2
      vertex 4.33333 7.50555 6.2
    endloop
  endfacet
  facet normal 0 0 1
    outer loop
      vertex -8.66667 0 6.2
      vertex -1.97081 2.39588 6.2
      vertex -1.97081 3.27779 6.2
    endloop
  endfacet
  facet normal 0 0 1
    outer loop
      vertex -1.83188 -2.71926 6.2
      vertex -8.66667 0 6.2
      vertex -3.53333 -5.36 6.2
    endloop
  endfacet
  facet normal 0 0 1
    outer loop
      vertex -8.66667 0 6.2
      vertex -1.97081 3.27779 6.2
      vertex -4.33333 7.50555 6.2
    endloop
  endfacet
  facet normal 0 0 1
    outer loop
      vertex -0.26004 3.62151 6.2
      vertex -4.33333 7.50555 6.2
      vertex -1.97081 3.27779 6.2
    endloop
  endfacet
  facet normal -0 0 1
    outer loop
      vertex 3.53333 -6.36 6.2
      vertex 4.33333 -7.50555 6.2
      vertex 3.53333 -5.36 6.2
    endloop
  endfacet
  facet normal -0 0 1
    outer loop
      vertex -3.53333 -6.36 6.2
      vertex 4.33333 -7.50555 6.2
      vertex 3.53333 -6.36 6.2
    endloop
  endfacet
  facet normal 0 0 1
    outer loop
      vertex -3.53333 -6.36 6.2
      vertex -4.33333 -7.50555 6.2
      vertex 4.33333 -7.50555 6.2
    endloop
  endfacet
  facet normal 0 -0 1
    outer loop
      vertex -4.33333 -7.50555 6.2
      vertex -3.53333 -5.36 6.2
      vertex -8.66667 0 6.2
    endloop
  endfacet
  facet normal 0 0 1
    outer loop
      vertex -3.53333 -5.36 6.2
      vertex -4.33333 -7.50555 6.2
      vertex -3.53333 -6.36 6.2
    endloop
  endfacet
  facet normal -0 0 1
    outer loop
      vertex 2.28931 -3.53333 6.2
      vertex 3.53333 -5.36 6.2
      vertex 2.28931 -2.71926 6.2
    endloop
  endfacet
  facet normal -0 0 1
    outer loop
      vertex -1.83188 -3.53333 6.2
      vertex 3.53333 -5.36 6.2
      vertex 2.28931 -3.53333 6.2
    endloop
  endfacet
  facet normal 0 0 1
    outer loop
      vertex -1.83188 -3.53333 6.2
      vertex -3.53333 -5.36 6.2
      vertex 3.53333 -5.36 6.2
    endloop
  endfacet
  facet normal 0 0 1
    outer loop
      vertex -1.83188 -2.71926 6.2
      vertex -3.53333 -5.36 6.2
      vertex -1.83188 -3.53333 6.2
    endloop
  endfacet
  facet normal 0 0 1
    outer loop
      vertex 2.28931 -2.71926 6.2
      vertex 0.707932 3.62151 6.2
      vertex 0.707932 -2.71926 6.2
    endloop
  endfacet
  facet normal 0 1 -0
    outer loop
      vertex 4.33333 7.50555 0
      vertex -4.33333 7.50555 6.2
      vertex 4.33333 7.50555 6.2
    endloop
  endfacet
  facet normal 0 1 0
    outer loop
      vertex -4.33333 7.50555 6.2
      vertex 4.33333 7.50555 0
      vertex -4.33333 7.50555 0
    endloop
  endfacet
  facet normal -0.866025 -0.500001 0
    outer loop
      vertex -4.33333 -7.50555 0
      vertex -8.66667 0 6.2
      vertex -8.66667 0 0
    endloop
  endfacet
  facet normal -0.866025 -0.500001 0
    outer loop
      vertex -8.66667 0 6.2
      vertex -4.33333 -7.50555 0
      vertex -4.33333 -7.50555 6.2
    endloop
  endfacet
  facet normal 0 -1 0
    outer loop
      vertex -4.33333 -7.50555 0
      vertex 4.33333 -7.50555 6.2
      vertex -4.33333 -7.50555 6.2
    endloop
  endfacet
  facet normal 0 -1 -0
    outer loop
      vertex 4.33333 -7.50555 6.2
      vertex -4.33333 -7.50555 0
      vertex 4.33333 -7.50555 0
    endloop
  endfacet
  facet normal 0.866025 0.500001 0
    outer loop
      vertex 8.66667 0 6.2
      vertex 4.33333 7.50555 0
      vertex 4.33333 7.50555 6.2
    endloop
  endfacet
  facet normal 0.866025 0.500001 0
    outer loop
      vertex 4.33333 7.50555 0
      vertex 8.66667 0 6.2
      vertex 8.66667 0 0
    endloop
  endfacet
endsolid OpenSCAD_Model
