solid OpenSCAD_Model
  facet normal -0 0 1
    outer loop
      vertex 2.39337 0.701479 0.7
      vertex 2.95444 0.0196247 0.7
      vertex 2.87057 0.863375 0.7
    endloop
  endfacet
  facet normal -0 0 1
    outer loop
      vertex 2.24432 1.18779 0.7
      vertex 2.87057 0.863375 0.7
      vertex 2.619 1.47977 0.7
    endloop
  endfacet
  facet normal 0 0 1
    outer loop
      vertex 2.39337 -0.660336 0.7
      vertex 2.95444 0.0196247 0.7
      vertex 2.44305 0.0196247 0.7
    endloop
  endfacet
  facet normal 0 0 1
    outer loop
      vertex 2.95444 0.0196247 0.7
      vertex 2.39337 -0.660336 0.7
      vertex 2.87057 -0.822217 0.7
    endloop
  endfacet
  facet normal 0 0 1
    outer loop
      vertex 2.95444 0.0196247 0.7
      vertex 2.39337 0.701479 0.7
      vertex 2.44305 0.0196247 0.7
    endloop
  endfacet
  facet normal 0 0 1
    outer loop
      vertex 2.87057 0.863375 0.7
      vertex 2.24432 1.18779 0.7
      vertex 2.39337 0.701479 0.7
    endloop
  endfacet
  facet normal 0 0 1
    outer loop
      vertex 1.99591 1.47922 0.7
      vertex 2.619 1.47977 0.7
      vertex 2.20856 1.85684 0.7
    endloop
  endfacet
  facet normal 0 0 1
    outer loop
      vertex 2.619 1.47977 0.7
      vertex 1.99591 1.47922 0.7
      vertex 2.24432 1.18779 0.7
    endloop
  endfacet
  facet normal 0 0 1
    outer loop
      vertex 1.64812 1.98255 0.7
      vertex 1.99591 1.47922 0.7
      vertex 2.20856 1.85684 0.7
    endloop
  endfacet
  facet normal 0 0 1
    outer loop
      vertex 1.64812 1.98255 0.7
      vertex 1.64812 1.57636 0.7
      vertex 1.99591 1.47922 0.7
    endloop
  endfacet
  facet normal 0 0 1
    outer loop
      vertex 1.64812 1.98255 0.7
      vertex 1.30222 1.47922 0.7
      vertex 1.64812 1.57636 0.7
    endloop
  endfacet
  facet normal -0 0 1
    outer loop
      vertex 1.08766 1.85684 0.7
      vertex 1.30222 1.47922 0.7
      vertex 1.64812 1.98255 0.7
    endloop
  endfacet
  facet normal -0 0 1
    outer loop
      vertex 0.677216 1.47977 0.7
      vertex 1.30222 1.47922 0.7
      vertex 1.08766 1.85684 0.7
    endloop
  endfacet
  facet normal 0 0 1
    outer loop
      vertex 1.30222 1.47922 0.7
      vertex 0.677216 1.47977 0.7
      vertex 1.05443 1.18779 0.7
    endloop
  endfacet
  facet normal 0 0 1
    outer loop
      vertex 1.05443 1.18779 0.7
      vertex 0.425644 0.863375 0.7
      vertex 0.905396 0.701479 0.7
    endloop
  endfacet
  facet normal 0 0 1
    outer loop
      vertex 0.425644 0.863375 0.7
      vertex 1.05443 1.18779 0.7
      vertex 0.677216 1.47977 0.7
    endloop
  endfacet
  facet normal 0 0 1
    outer loop
      vertex 2.24432 -1.14602 0.7
      vertex 2.87057 -0.822217 0.7
      vertex 2.39337 -0.660336 0.7
    endloop
  endfacet
  facet normal 0 0 1
    outer loop
      vertex 2.87057 -0.822217 0.7
      vertex 2.24432 -1.14602 0.7
      vertex 2.619 -1.43802 0.7
    endloop
  endfacet
  facet normal -0 0 1
    outer loop
      vertex 1.99591 -1.43742 0.7
      vertex 2.619 -1.43802 0.7
      vertex 2.24432 -1.14602 0.7
    endloop
  endfacet
  facet normal 0 0 1
    outer loop
      vertex 2.619 -1.43802 0.7
      vertex 1.99591 -1.43742 0.7
      vertex 2.20856 -1.81506 0.7
    endloop
  endfacet
  facet normal 0 0 1
    outer loop
      vertex 1.64812 -1.94073 0.7
      vertex 1.99591 -1.43742 0.7
      vertex 1.64812 -1.53456 0.7
    endloop
  endfacet
  facet normal 0 0 1
    outer loop
      vertex 1.99591 -1.43742 0.7
      vertex 1.64812 -1.94073 0.7
      vertex 2.20856 -1.81506 0.7
    endloop
  endfacet
  facet normal 0 0 1
    outer loop
      vertex 1.30222 -1.43742 0.7
      vertex 1.64812 -1.94073 0.7
      vertex 1.64812 -1.53456 0.7
    endloop
  endfacet
  facet normal 0 0 1
    outer loop
      vertex 1.30222 -1.43742 0.7
      vertex 1.08766 -1.81506 0.7
      vertex 1.64812 -1.94073 0.7
    endloop
  endfacet
  facet normal 0 0 1
    outer loop
      vertex 0.677216 -1.43802 0.7
      vertex 1.30222 -1.43742 0.7
      vertex 1.05443 -1.14602 0.7
    endloop
  endfacet
  facet normal -0 0 1
    outer loop
      vertex 0.425644 -0.822217 0.7
      vertex 1.05443 -1.14602 0.7
      vertex 0.905396 -0.660336 0.7
    endloop
  endfacet
  facet normal 0 0 1
    outer loop
      vertex 0.341782 0.0196247 0.7
      vertex 0.905396 0.701479 0.7
      vertex 0.425644 0.863375 0.7
    endloop
  endfacet
  facet normal 0 0 1
    outer loop
      vertex 1.30222 -1.43742 0.7
      vertex 0.677216 -1.43802 0.7
      vertex 1.08766 -1.81506 0.7
    endloop
  endfacet
  facet normal 0 0 1
    outer loop
      vertex 0.905396 0.701479 0.7
      vertex 0.341782 0.0196247 0.7
      vertex 0.855713 0.0196247 0.7
    endloop
  endfacet
  facet normal 0 0 1
    outer loop
      vertex 0.855713 0.0196247 0.7
      vertex 0.341782 0.0196247 0.7
      vertex 0.905396 -0.660336 0.7
    endloop
  endfacet
  facet normal 0 -0 1
    outer loop
      vertex 0.425644 -0.822217 0.7
      vertex 0.905396 -0.660336 0.7
      vertex 0.341782 0.0196247 0.7
    endloop
  endfacet
  facet normal 0 0 1
    outer loop
      vertex 1.05443 -1.14602 0.7
      vertex 0.425644 -0.822217 0.7
      vertex 0.677216 -1.43802 0.7
    endloop
  endfacet
  facet normal 0 0 1
    outer loop
      vertex -1.2368 1.91326 0.7
      vertex -1.74312 1.44733 0.7
      vertex -1.2368 -1.4366 0.7
    endloop
  endfacet
  facet normal -0 0 1
    outer loop
      vertex -1.7482 1.91326 0.7
      vertex -1.74312 1.44733 0.7
      vertex -1.2368 1.91326 0.7
    endloop
  endfacet
  facet normal -0 0 1
    outer loop
      vertex -2.65201 1.73166 0.7
      vertex -1.74312 1.44733 0.7
      vertex -1.7482 1.91326 0.7
    endloop
  endfacet
  facet normal 0 0 1
    outer loop
      vertex -1.74312 1.44733 0.7
      vertex -2.65201 1.73166 0.7
      vertex -2.65201 1.26575 0.7
    endloop
  endfacet
  facet normal -0 0 1
    outer loop
      vertex -1.2368 -1.4366 0.7
      vertex -0.401367 -1.86667 0.7
      vertex -0.401367 -1.4366 0.7
    endloop
  endfacet
  facet normal 0 0 1
    outer loop
      vertex -1.74312 -1.4366 0.7
      vertex -1.2368 -1.4366 0.7
      vertex -1.74312 1.44733 0.7
    endloop
  endfacet
  facet normal -0 0 1
    outer loop
      vertex -1.74312 -1.4366 0.7
      vertex -0.401367 -1.86667 0.7
      vertex -1.2368 -1.4366 0.7
    endloop
  endfacet
  facet normal 0 0 1
    outer loop
      vertex -2.5786 -1.86667 0.7
      vertex -1.74312 -1.4366 0.7
      vertex -2.5786 -1.4366 0.7
    endloop
  endfacet
  facet normal 0 0 1
    outer loop
      vertex -1.74312 -1.4366 0.7
      vertex -2.5786 -1.86667 0.7
      vertex -0.401367 -1.86667 0.7
    endloop
  endfacet
  facet normal -0.676507 0.736436 0
    outer loop
      vertex 2.619 -1.43802 0.7
      vertex 2.20856 -1.81506 3.7
      vertex 2.619 -1.43802 3.7
    endloop
  endfacet
  facet normal -0.676507 0.736436 0
    outer loop
      vertex 2.20856 -1.81506 3.7
      vertex 2.619 -1.43802 0.7
      vertex 2.20856 -1.81506 0.7
    endloop
  endfacet
  facet normal -0.925731 0.378183 0
    outer loop
      vertex 2.619 -1.43802 0.7
      vertex 2.87057 -0.822217 3.7
      vertex 2.87057 -0.822217 0.7
    endloop
  endfacet
  facet normal -0.925731 0.378183 0
    outer loop
      vertex 2.87057 -0.822217 3.7
      vertex 2.619 -1.43802 0.7
      vertex 2.619 -1.43802 3.7
    endloop
  endfacet
  facet normal -0.995074 0.099136 0
    outer loop
      vertex 2.87057 -0.822217 0.7
      vertex 2.95444 0.0196247 3.7
      vertex 2.95444 0.0196247 0.7
    endloop
  endfacet
  facet normal -0.995074 0.099136 0
    outer loop
      vertex 2.95444 0.0196247 3.7
      vertex 2.87057 -0.822217 0.7
      vertex 2.87057 -0.822217 3.7
    endloop
  endfacet
  facet normal -0.995096 -0.098914 0
    outer loop
      vertex 2.95444 0.0196247 0.7
      vertex 2.87057 0.863375 3.7
      vertex 2.87057 0.863375 0.7
    endloop
  endfacet
  facet normal -0.995096 -0.098914 0
    outer loop
      vertex 2.87057 0.863375 3.7
      vertex 2.95444 0.0196247 0.7
      vertex 2.95444 0.0196247 3.7
    endloop
  endfacet
  facet normal -0.925858 -0.377872 0
    outer loop
      vertex 2.87057 0.863375 0.7
      vertex 2.619 1.47977 3.7
      vertex 2.619 1.47977 0.7
    endloop
  endfacet
  facet normal -0.925858 -0.377872 0
    outer loop
      vertex 2.619 1.47977 3.7
      vertex 2.87057 0.863375 0.7
      vertex 2.87057 0.863375 3.7
    endloop
  endfacet
  facet normal -0.676537 -0.736409 0
    outer loop
      vertex 2.20856 1.85684 0.7
      vertex 2.619 1.47977 3.7
      vertex 2.20856 1.85684 3.7
    endloop
  endfacet
  facet normal -0.676537 -0.736409 -0
    outer loop
      vertex 2.619 1.47977 3.7
      vertex 2.20856 1.85684 0.7
      vertex 2.619 1.47977 0.7
    endloop
  endfacet
  facet normal -0.218868 -0.975755 0
    outer loop
      vertex 1.64812 1.98255 0.7
      vertex 2.20856 1.85684 3.7
      vertex 1.64812 1.98255 3.7
    endloop
  endfacet
  facet normal -0.218868 -0.975755 -0
    outer loop
      vertex 2.20856 1.85684 3.7
      vertex 1.64812 1.98255 0.7
      vertex 2.20856 1.85684 0.7
    endloop
  endfacet
  facet normal 0.21886 -0.975756 0
    outer loop
      vertex 1.08766 1.85684 0.7
      vertex 1.64812 1.98255 3.7
      vertex 1.08766 1.85684 3.7
    endloop
  endfacet
  facet normal 0.21886 -0.975756 0
    outer loop
      vertex 1.64812 1.98255 3.7
      vertex 1.08766 1.85684 0.7
      vertex 1.64812 1.98255 0.7
    endloop
  endfacet
  facet normal 0.676533 -0.736412 0
    outer loop
      vertex 0.677216 1.47977 0.7
      vertex 1.08766 1.85684 3.7
      vertex 0.677216 1.47977 3.7
    endloop
  endfacet
  facet normal 0.676533 -0.736412 0
    outer loop
      vertex 1.08766 1.85684 3.7
      vertex 0.677216 1.47977 0.7
      vertex 1.08766 1.85684 0.7
    endloop
  endfacet
  facet normal 0.925857 -0.377874 0
    outer loop
      vertex 0.425644 0.863375 3.7
      vertex 0.677216 1.47977 0.7
      vertex 0.677216 1.47977 3.7
    endloop
  endfacet
  facet normal 0.925857 -0.377874 0
    outer loop
      vertex 0.677216 1.47977 0.7
      vertex 0.425644 0.863375 3.7
      vertex 0.425644 0.863375 0.7
    endloop
  endfacet
  facet normal 0.995097 -0.0989046 0
    outer loop
      vertex 0.341782 0.0196247 3.7
      vertex 0.425644 0.863375 0.7
      vertex 0.425644 0.863375 3.7
    endloop
  endfacet
  facet normal 0.995097 -0.0989046 0
    outer loop
      vertex 0.425644 0.863375 0.7
      vertex 0.341782 0.0196247 3.7
      vertex 0.341782 0.0196247 0.7
    endloop
  endfacet
  facet normal 0.995075 0.0991267 0
    outer loop
      vertex 0.425644 -0.822217 3.7
      vertex 0.341782 0.0196247 0.7
      vertex 0.341782 0.0196247 3.7
    endloop
  endfacet
  facet normal 0.995075 0.0991267 0
    outer loop
      vertex 0.341782 0.0196247 0.7
      vertex 0.425644 -0.822217 3.7
      vertex 0.425644 -0.822217 0.7
    endloop
  endfacet
  facet normal 0.92573 0.378185 0
    outer loop
      vertex 0.677216 -1.43802 3.7
      vertex 0.425644 -0.822217 0.7
      vertex 0.425644 -0.822217 3.7
    endloop
  endfacet
  facet normal 0.92573 0.378185 0
    outer loop
      vertex 0.425644 -0.822217 0.7
      vertex 0.677216 -1.43802 3.7
      vertex 0.677216 -1.43802 0.7
    endloop
  endfacet
  facet normal 0.676504 0.736439 -0
    outer loop
      vertex 1.08766 -1.81506 0.7
      vertex 0.677216 -1.43802 3.7
      vertex 1.08766 -1.81506 3.7
    endloop
  endfacet
  facet normal 0.676504 0.736439 0
    outer loop
      vertex 0.677216 -1.43802 3.7
      vertex 1.08766 -1.81506 0.7
      vertex 0.677216 -1.43802 0.7
    endloop
  endfacet
  facet normal 0.218794 0.975771 -0
    outer loop
      vertex 1.64812 -1.94073 0.7
      vertex 1.08766 -1.81506 3.7
      vertex 1.64812 -1.94073 3.7
    endloop
  endfacet
  facet normal 0.218794 0.975771 0
    outer loop
      vertex 1.08766 -1.81506 3.7
      vertex 1.64812 -1.94073 0.7
      vertex 1.08766 -1.81506 0.7
    endloop
  endfacet
  facet normal -0.218801 0.975769 0
    outer loop
      vertex 2.20856 -1.81506 0.7
      vertex 1.64812 -1.94073 3.7
      vertex 2.20856 -1.81506 3.7
    endloop
  endfacet
  facet normal -0.218801 0.975769 0
    outer loop
      vertex 1.64812 -1.94073 3.7
      vertex 2.20856 -1.81506 0.7
      vertex 1.64812 -1.94073 0.7
    endloop
  endfacet
  facet normal -0.76181 -0.6478 0
    outer loop
      vertex 1.30222 -1.43742 0.7
      vertex 1.05443 -1.14602 3.7
      vertex 1.05443 -1.14602 0.7
    endloop
  endfacet
  facet normal -0.76181 -0.6478 0
    outer loop
      vertex 1.05443 -1.14602 3.7
      vertex 1.30222 -1.43742 0.7
      vertex 1.30222 -1.43742 3.7
    endloop
  endfacet
  facet normal -0.956004 -0.293354 0
    outer loop
      vertex 1.05443 -1.14602 0.7
      vertex 0.905396 -0.660336 3.7
      vertex 0.905396 -0.660336 0.7
    endloop
  endfacet
  facet normal -0.956004 -0.293354 0
    outer loop
      vertex 0.905396 -0.660336 3.7
      vertex 1.05443 -1.14602 0.7
      vertex 1.05443 -1.14602 3.7
    endloop
  endfacet
  facet normal -0.997341 -0.0728732 0
    outer loop
      vertex 0.905396 -0.660336 0.7
      vertex 0.855713 0.0196247 3.7
      vertex 0.855713 0.0196247 0.7
    endloop
  endfacet
  facet normal -0.997341 -0.0728732 0
    outer loop
      vertex 0.855713 0.0196247 3.7
      vertex 0.905396 -0.660336 0.7
      vertex 0.905396 -0.660336 3.7
    endloop
  endfacet
  facet normal -0.997356 0.0726719 0
    outer loop
      vertex 0.855713 0.0196247 0.7
      vertex 0.905396 0.701479 3.7
      vertex 0.905396 0.701479 0.7
    endloop
  endfacet
  facet normal -0.997356 0.0726719 0
    outer loop
      vertex 0.905396 0.701479 3.7
      vertex 0.855713 0.0196247 0.7
      vertex 0.855713 0.0196247 3.7
    endloop
  endfacet
  facet normal -0.95611 0.293008 0
    outer loop
      vertex 0.905396 0.701479 0.7
      vertex 1.05443 1.18779 3.7
      vertex 1.05443 1.18779 0.7
    endloop
  endfacet
  facet normal -0.95611 0.293008 0
    outer loop
      vertex 1.05443 1.18779 3.7
      vertex 0.905396 0.701479 0.7
      vertex 0.905396 0.701479 3.7
    endloop
  endfacet
  facet normal -0.761843 0.647761 0
    outer loop
      vertex 1.05443 1.18779 0.7
      vertex 1.30222 1.47922 3.7
      vertex 1.30222 1.47922 0.7
    endloop
  endfacet
  facet normal -0.761843 0.647761 0
    outer loop
      vertex 1.30222 1.47922 3.7
      vertex 1.05443 1.18779 0.7
      vertex 1.05443 1.18779 3.7
    endloop
  endfacet
  facet normal -0.270373 0.962756 0
    outer loop
      vertex 1.64812 1.57636 0.7
      vertex 1.30222 1.47922 3.7
      vertex 1.64812 1.57636 3.7
    endloop
  endfacet
  facet normal -0.270373 0.962756 0
    outer loop
      vertex 1.30222 1.47922 3.7
      vertex 1.64812 1.57636 0.7
      vertex 1.30222 1.47922 0.7
    endloop
  endfacet
  facet normal 0.26901 0.963137 -0
    outer loop
      vertex 1.99591 1.47922 0.7
      vertex 1.64812 1.57636 3.7
      vertex 1.99591 1.47922 3.7
    endloop
  endfacet
  facet normal 0.26901 0.963137 0
    outer loop
      vertex 1.64812 1.57636 3.7
      vertex 1.99591 1.47922 0.7
      vertex 1.64812 1.57636 0.7
    endloop
  endfacet
  facet normal 0.761044 0.648701 0
    outer loop
      vertex 2.24432 1.18779 3.7
      vertex 1.99591 1.47922 0.7
      vertex 1.99591 1.47922 3.7
    endloop
  endfacet
  facet normal 0.761044 0.648701 0
    outer loop
      vertex 1.99591 1.47922 0.7
      vertex 2.24432 1.18779 3.7
      vertex 2.24432 1.18779 0.7
    endloop
  endfacet
  facet normal 0.956101 0.293037 0
    outer loop
      vertex 2.39337 0.701479 3.7
      vertex 2.24432 1.18779 0.7
      vertex 2.24432 1.18779 3.7
    endloop
  endfacet
  facet normal 0.956101 0.293037 0
    outer loop
      vertex 2.24432 1.18779 0.7
      vertex 2.39337 0.701479 3.7
      vertex 2.39337 0.701479 0.7
    endloop
  endfacet
  facet normal 0.997356 0.0726675 0
    outer loop
      vertex 2.44305 0.0196247 3.7
      vertex 2.39337 0.701479 0.7
      vertex 2.39337 0.701479 3.7
    endloop
  endfacet
  facet normal 0.997356 0.0726675 0
    outer loop
      vertex 2.39337 0.701479 0.7
      vertex 2.44305 0.0196247 3.7
      vertex 2.44305 0.0196247 0.7
    endloop
  endfacet
  facet normal 0.997342 -0.0728688 0
    outer loop
      vertex 2.39337 -0.660336 3.7
      vertex 2.44305 0.0196247 0.7
      vertex 2.44305 0.0196247 3.7
    endloop
  endfacet
  facet normal 0.997342 -0.0728688 0
    outer loop
      vertex 2.44305 0.0196247 0.7
      vertex 2.39337 -0.660336 3.7
      vertex 2.39337 -0.660336 0.7
    endloop
  endfacet
  facet normal 0.955995 -0.293382 0
    outer loop
      vertex 2.24432 -1.14602 3.7
      vertex 2.39337 -0.660336 0.7
      vertex 2.39337 -0.660336 3.7
    endloop
  endfacet
  facet normal 0.955995 -0.293382 0
    outer loop
      vertex 2.39337 -0.660336 0.7
      vertex 2.24432 -1.14602 3.7
      vertex 2.24432 -1.14602 0.7
    endloop
  endfacet
  facet normal 0.761011 -0.648739 0
    outer loop
      vertex 1.99591 -1.43742 3.7
      vertex 2.24432 -1.14602 0.7
      vertex 2.24432 -1.14602 3.7
    endloop
  endfacet
  facet normal 0.761011 -0.648739 0
    outer loop
      vertex 2.24432 -1.14602 0.7
      vertex 1.99591 -1.43742 3.7
      vertex 1.99591 -1.43742 0.7
    endloop
  endfacet
  facet normal 0.26901 -0.963137 0
    outer loop
      vertex 1.64812 -1.53456 0.7
      vertex 1.99591 -1.43742 3.7
      vertex 1.64812 -1.53456 3.7
    endloop
  endfacet
  facet normal 0.26901 -0.963137 0
    outer loop
      vertex 1.99591 -1.43742 3.7
      vertex 1.64812 -1.53456 0.7
      vertex 1.99591 -1.43742 0.7
    endloop
  endfacet
  facet normal -0.270373 -0.962756 0
    outer loop
      vertex 1.30222 -1.43742 0.7
      vertex 1.64812 -1.53456 3.7
      vertex 1.30222 -1.43742 3.7
    endloop
  endfacet
  facet normal -0.270373 -0.962756 -0
    outer loop
      vertex 1.64812 -1.53456 3.7
      vertex 1.30222 -1.43742 0.7
      vertex 1.64812 -1.53456 0.7
    endloop
  endfacet
  facet normal 0 -1 0
    outer loop
      vertex -1.2368 -1.4366 0.7
      vertex -0.401367 -1.4366 3.7
      vertex -1.2368 -1.4366 3.7
    endloop
  endfacet
  facet normal 0 -1 -0
    outer loop
      vertex -0.401367 -1.4366 3.7
      vertex -1.2368 -1.4366 0.7
      vertex -0.401367 -1.4366 0.7
    endloop
  endfacet
  facet normal -1 0 0
    outer loop
      vertex -1.2368 -1.4366 0.7
      vertex -1.2368 1.91326 3.7
      vertex -1.2368 1.91326 0.7
    endloop
  endfacet
  facet normal -1 -0 0
    outer loop
      vertex -1.2368 1.91326 3.7
      vertex -1.2368 -1.4366 0.7
      vertex -1.2368 -1.4366 3.7
    endloop
  endfacet
  facet normal 0 -1 0
    outer loop
      vertex -1.7482 1.91326 0.7
      vertex -1.2368 1.91326 3.7
      vertex -1.7482 1.91326 3.7
    endloop
  endfacet
  facet normal 0 -1 -0
    outer loop
      vertex -1.2368 1.91326 3.7
      vertex -1.7482 1.91326 0.7
      vertex -1.2368 1.91326 0.7
    endloop
  endfacet
  facet normal 0.19699 -0.980405 0
    outer loop
      vertex -2.65201 1.73166 0.7
      vertex -1.7482 1.91326 3.7
      vertex -2.65201 1.73166 3.7
    endloop
  endfacet
  facet normal 0.19699 -0.980405 0
    outer loop
      vertex -1.7482 1.91326 3.7
      vertex -2.65201 1.73166 0.7
      vertex -1.7482 1.91326 0.7
    endloop
  endfacet
  facet normal 1 -0 0
    outer loop
      vertex -2.65201 1.26575 3.7
      vertex -2.65201 1.73166 0.7
      vertex -2.65201 1.73166 3.7
    endloop
  endfacet
  facet normal 1 0 0
    outer loop
      vertex -2.65201 1.73166 0.7
      vertex -2.65201 1.26575 3.7
      vertex -2.65201 1.26575 0.7
    endloop
  endfacet
  facet normal -0.195911 0.980622 0
    outer loop
      vertex -1.74312 1.44733 0.7
      vertex -2.65201 1.26575 3.7
      vertex -1.74312 1.44733 3.7
    endloop
  endfacet
  facet normal -0.195911 0.980622 0
    outer loop
      vertex -2.65201 1.26575 3.7
      vertex -1.74312 1.44733 0.7
      vertex -2.65201 1.26575 0.7
    endloop
  endfacet
  facet normal 1 -0 0
    outer loop
      vertex -1.74312 -1.4366 3.7
      vertex -1.74312 1.44733 0.7
      vertex -1.74312 1.44733 3.7
    endloop
  endfacet
  facet normal 1 0 0
    outer loop
      vertex -1.74312 1.44733 0.7
      vertex -1.74312 -1.4366 3.7
      vertex -1.74312 -1.4366 0.7
    endloop
  endfacet
  facet normal 0 -1 0
    outer loop
      vertex -2.5786 -1.4366 0.7
      vertex -1.74312 -1.4366 3.7
      vertex -2.5786 -1.4366 3.7
    endloop
  endfacet
  facet normal 0 -1 -0
    outer loop
      vertex -1.74312 -1.4366 3.7
      vertex -2.5786 -1.4366 0.7
      vertex -1.74312 -1.4366 0.7
    endloop
  endfacet
  facet normal 1 -0 0
    outer loop
      vertex -2.5786 -1.86667 3.7
      vertex -2.5786 -1.4366 0.7
      vertex -2.5786 -1.4366 3.7
    endloop
  endfacet
  facet normal 1 0 0
    outer loop
      vertex -2.5786 -1.4366 0.7
      vertex -2.5786 -1.86667 3.7
      vertex -2.5786 -1.86667 0.7
    endloop
  endfacet
  facet normal 0 1 -0
    outer loop
      vertex -0.401367 -1.86667 0.7
      vertex -2.5786 -1.86667 3.7
      vertex -0.401367 -1.86667 3.7
    endloop
  endfacet
  facet normal 0 1 0
    outer loop
      vertex -2.5786 -1.86667 3.7
      vertex -0.401367 -1.86667 0.7
      vertex -2.5786 -1.86667 0.7
    endloop
  endfacet
  facet normal -1 0 0
    outer loop
      vertex -0.401367 -1.86667 0.7
      vertex -0.401367 -1.4366 3.7
      vertex -0.401367 -1.4366 0.7
    endloop
  endfacet
  facet normal -1 -0 0
    outer loop
      vertex -0.401367 -1.4366 3.7
      vertex -0.401367 -1.86667 0.7
      vertex -0.401367 -1.86667 3.7
    endloop
  endfacet
  facet normal -1 0 0
    outer loop
      vertex 1.86667 -3.36 0.7
      vertex 1.86667 -2.36 3.7
      vertex 1.86667 -2.36 0.7
    endloop
  endfacet
  facet normal -1 -0 0
    outer loop
      vertex 1.86667 -2.36 3.7
      vertex 1.86667 -3.36 0.7
      vertex 1.86667 -3.36 3.7
    endloop
  endfacet
  facet normal -0 0 1
    outer loop
      vertex -1.86667 -2.36 0.7
      vertex 1.86667 -3.36 0.7
      vertex 1.86667 -2.36 0.7
    endloop
  endfacet
  facet normal 0 0 1
    outer loop
      vertex 1.86667 -3.36 0.7
      vertex -1.86667 -2.36 0.7
      vertex -1.86667 -3.36 0.7
    endloop
  endfacet
  facet normal 1 -0 0
    outer loop
      vertex -1.86667 -3.36 3.7
      vertex -1.86667 -2.36 0.7
      vertex -1.86667 -2.36 3.7
    endloop
  endfacet
  facet normal 1 0 0
    outer loop
      vertex -1.86667 -2.36 0.7
      vertex -1.86667 -3.36 3.7
      vertex -1.86667 -3.36 0.7
    endloop
  endfacet
  facet normal 0 -1 0
    outer loop
      vertex -1.86667 -2.36 0.7
      vertex 1.86667 -2.36 3.7
      vertex -1.86667 -2.36 3.7
    endloop
  endfacet
  facet normal 0 -1 -0
    outer loop
      vertex 1.86667 -2.36 3.7
      vertex -1.86667 -2.36 0.7
      vertex 1.86667 -2.36 0.7
    endloop
  endfacet
  facet normal 0 1 -0
    outer loop
      vertex 1.86667 -3.36 0.7
      vertex -1.86667 -3.36 3.7
      vertex 1.86667 -3.36 3.7
    endloop
  endfacet
  facet normal 0 1 0
    outer loop
      vertex -1.86667 -3.36 3.7
      vertex 1.86667 -3.36 0.7
      vertex -1.86667 -3.36 0.7
    endloop
  endfacet
  facet normal 0 1 -0
    outer loop
      vertex 2.66667 4.6188 0
      vertex -2.66667 4.6188 3.7
      vertex 2.66667 4.6188 3.7
    endloop
  endfacet
  facet normal 0 1 0
    outer loop
      vertex -2.66667 4.6188 3.7
      vertex 2.66667 4.6188 0
      vertex -2.66667 4.6188 0
    endloop
  endfacet
  facet normal 0.866026 0.499999 0
    outer loop
      vertex 5.33333 0 3.7
      vertex 2.66667 4.6188 0
      vertex 2.66667 4.6188 3.7
    endloop
  endfacet
  facet normal 0.866026 0.499999 0
    outer loop
      vertex 2.66667 4.6188 0
      vertex 5.33333 0 3.7
      vertex 5.33333 0 0
    endloop
  endfacet
  facet normal -0.866026 0.499999 0
    outer loop
      vertex -5.33333 0 0
      vertex -2.66667 4.6188 3.7
      vertex -2.66667 4.6188 0
    endloop
  endfacet
  facet normal -0.866026 0.499999 0
    outer loop
      vertex -2.66667 4.6188 3.7
      vertex -5.33333 0 0
      vertex -5.33333 0 3.7
    endloop
  endfacet
  facet normal 0.866026 -0.499999 0
    outer loop
      vertex 2.66667 -4.6188 3.7
      vertex 5.33333 0 0
      vertex 5.33333 0 3.7
    endloop
  endfacet
  facet normal 0.866026 -0.499999 0
    outer loop
      vertex 5.33333 0 0
      vertex 2.66667 -4.6188 3.7
      vertex 2.66667 -4.6188 0
    endloop
  endfacet
  facet normal -0.866026 -0.499999 0
    outer loop
      vertex -2.66667 -4.6188 0
      vertex -5.33333 0 3.7
      vertex -5.33333 0 0
    endloop
  endfacet
  facet normal -0.866026 -0.499999 0
    outer loop
      vertex -5.33333 0 3.7
      vertex -2.66667 -4.6188 0
      vertex -2.66667 -4.6188 3.7
    endloop
  endfacet
  facet normal 0 -1 0
    outer loop
      vertex -2.66667 -4.6188 0
      vertex 2.66667 -4.6188 3.7
      vertex -2.66667 -4.6188 3.7
    endloop
  endfacet
  facet normal 0 -1 -0
    outer loop
      vertex 2.66667 -4.6188 3.7
      vertex -2.66667 -4.6188 0
      vertex 2.66667 -4.6188 0
    endloop
  endfacet
  facet normal 0 0 -1
    outer loop
      vertex 2.66667 -4.6188 0
      vertex 2.66667 4.6188 0
      vertex 5.33333 0 0
    endloop
  endfacet
  facet normal 0 0 -1
    outer loop
      vertex -2.66667 -4.6188 0
      vertex 2.66667 4.6188 0
      vertex 2.66667 -4.6188 0
    endloop
  endfacet
  facet normal 0 0 -1
    outer loop
      vertex -2.66667 -4.6188 0
      vertex -2.66667 4.6188 0
      vertex 2.66667 4.6188 0
    endloop
  endfacet
  facet normal 0 -0 -1
    outer loop
      vertex -2.66667 4.6188 0
      vertex -2.66667 -4.6188 0
      vertex -5.33333 0 0
    endloop
  endfacet
  facet normal -0 0 1
    outer loop
      vertex -2.65201 1.26575 3.7
      vertex -1.74312 -1.4366 3.7
      vertex -1.74312 1.44733 3.7
    endloop
  endfacet
  facet normal -0 0 1
    outer loop
      vertex -5.33333 0 3.7
      vertex -2.5786 -1.4366 3.7
      vertex -2.65201 1.26575 3.7
    endloop
  endfacet
  facet normal 0 0 1
    outer loop
      vertex -1.74312 -1.4366 3.7
      vertex -2.65201 1.26575 3.7
      vertex -2.5786 -1.4366 3.7
    endloop
  endfacet
  facet normal -0 0 1
    outer loop
      vertex 1.64812 -1.94073 3.7
      vertex 1.86667 -2.36 3.7
      vertex 2.20856 -1.81506 3.7
    endloop
  endfacet
  facet normal 0 0 1
    outer loop
      vertex 1.08766 -1.81506 3.7
      vertex 1.86667 -2.36 3.7
      vertex 1.64812 -1.94073 3.7
    endloop
  endfacet
  facet normal 0 0 1
    outer loop
      vertex -0.401367 -1.4366 3.7
      vertex 0.425644 -0.822217 3.7
      vertex 0.341782 0.0196247 3.7
    endloop
  endfacet
  facet normal -0 0 1
    outer loop
      vertex -0.401367 -1.4366 3.7
      vertex 0.677216 -1.43802 3.7
      vertex 0.425644 -0.822217 3.7
    endloop
  endfacet
  facet normal 0 0 1
    outer loop
      vertex -0.401367 -1.86667 3.7
      vertex 0.677216 -1.43802 3.7
      vertex -0.401367 -1.4366 3.7
    endloop
  endfacet
  facet normal 0 0 1
    outer loop
      vertex 0.677216 -1.43802 3.7
      vertex -0.401367 -1.86667 3.7
      vertex 1.08766 -1.81506 3.7
    endloop
  endfacet
  facet normal 0 0 1
    outer loop
      vertex 1.08766 -1.81506 3.7
      vertex -0.401367 -1.86667 3.7
      vertex 1.86667 -2.36 3.7
    endloop
  endfacet
  facet normal 0 0 1
    outer loop
      vertex -0.401367 -1.86667 3.7
      vertex -1.86667 -2.36 3.7
      vertex 1.86667 -2.36 3.7
    endloop
  endfacet
  facet normal 0 0 1
    outer loop
      vertex -1.86667 -2.36 3.7
      vertex -2.5786 -1.86667 3.7
      vertex -1.86667 -3.36 3.7
    endloop
  endfacet
  facet normal -0 0 1
    outer loop
      vertex -2.5786 -1.86667 3.7
      vertex -1.86667 -2.36 3.7
      vertex -0.401367 -1.86667 3.7
    endloop
  endfacet
  facet normal 0 0 1
    outer loop
      vertex 5.33333 0 3.7
      vertex 2.87057 0.863375 3.7
      vertex 2.95444 0.0196247 3.7
    endloop
  endfacet
  facet normal -0 0 1
    outer loop
      vertex 2.619 1.47977 3.7
      vertex 5.33333 0 3.7
      vertex 2.66667 4.6188 3.7
    endloop
  endfacet
  facet normal 0 0 1
    outer loop
      vertex 5.33333 0 3.7
      vertex 2.619 1.47977 3.7
      vertex 2.87057 0.863375 3.7
    endloop
  endfacet
  facet normal 0 0 1
    outer loop
      vertex 2.66667 4.6188 3.7
      vertex 2.20856 1.85684 3.7
      vertex 2.619 1.47977 3.7
    endloop
  endfacet
  facet normal 0 0 1
    outer loop
      vertex 2.66667 4.6188 3.7
      vertex 1.64812 1.98255 3.7
      vertex 2.20856 1.85684 3.7
    endloop
  endfacet
  facet normal 0 0 1
    outer loop
      vertex 2.66667 4.6188 3.7
      vertex 1.08766 1.85684 3.7
      vertex 1.64812 1.98255 3.7
    endloop
  endfacet
  facet normal -0 0 1
    outer loop
      vertex -1.2368 1.91326 3.7
      vertex 1.08766 1.85684 3.7
      vertex 2.66667 4.6188 3.7
    endloop
  endfacet
  facet normal 0 0 1
    outer loop
      vertex -1.2368 1.91326 3.7
      vertex 0.341782 0.0196247 3.7
      vertex 0.425644 0.863375 3.7
    endloop
  endfacet
  facet normal 0 0 1
    outer loop
      vertex 0.341782 0.0196247 3.7
      vertex -1.2368 1.91326 3.7
      vertex -1.2368 -1.4366 3.7
    endloop
  endfacet
  facet normal 0 0 1
    outer loop
      vertex 0.677216 1.47977 3.7
      vertex -1.2368 1.91326 3.7
      vertex 0.425644 0.863375 3.7
    endloop
  endfacet
  facet normal 0 0 1
    outer loop
      vertex 1.08766 1.85684 3.7
      vertex -1.2368 1.91326 3.7
      vertex 0.677216 1.47977 3.7
    endloop
  endfacet
  facet normal -0 0 1
    outer loop
      vertex -2.66667 4.6188 3.7
      vertex -1.2368 1.91326 3.7
      vertex 2.66667 4.6188 3.7
    endloop
  endfacet
  facet normal 0 0 1
    outer loop
      vertex -1.2368 1.91326 3.7
      vertex -2.66667 4.6188 3.7
      vertex -1.7482 1.91326 3.7
    endloop
  endfacet
  facet normal 0 0 1
    outer loop
      vertex -5.33333 0 3.7
      vertex -2.65201 1.73166 3.7
      vertex -2.66667 4.6188 3.7
    endloop
  endfacet
  facet normal 0 0 1
    outer loop
      vertex -1.7482 1.91326 3.7
      vertex -2.66667 4.6188 3.7
      vertex -2.65201 1.73166 3.7
    endloop
  endfacet
  facet normal 0 0 1
    outer loop
      vertex 2.87057 -0.822217 3.7
      vertex 5.33333 0 3.7
      vertex 2.95444 0.0196247 3.7
    endloop
  endfacet
  facet normal 0 0 1
    outer loop
      vertex 2.619 -1.43802 3.7
      vertex 5.33333 0 3.7
      vertex 2.87057 -0.822217 3.7
    endloop
  endfacet
  facet normal 0 0 1
    outer loop
      vertex 5.33333 0 3.7
      vertex 2.619 -1.43802 3.7
      vertex 2.66667 -4.6188 3.7
    endloop
  endfacet
  facet normal 0 0 1
    outer loop
      vertex 1.86667 -3.36 3.7
      vertex 2.619 -1.43802 3.7
      vertex 2.20856 -1.81506 3.7
    endloop
  endfacet
  facet normal 0 0 1
    outer loop
      vertex 1.86667 -3.36 3.7
      vertex 2.20856 -1.81506 3.7
      vertex 1.86667 -2.36 3.7
    endloop
  endfacet
  facet normal 0 0 1
    outer loop
      vertex 2.619 -1.43802 3.7
      vertex 1.86667 -3.36 3.7
      vertex 2.66667 -4.6188 3.7
    endloop
  endfacet
  facet normal -0 0 1
    outer loop
      vertex -1.86667 -3.36 3.7
      vertex 2.66667 -4.6188 3.7
      vertex 1.86667 -3.36 3.7
    endloop
  endfacet
  facet normal 0 0 1
    outer loop
      vertex -1.86667 -3.36 3.7
      vertex -2.66667 -4.6188 3.7
      vertex 2.66667 -4.6188 3.7
    endloop
  endfacet
  facet normal 0 0 1
    outer loop
      vertex -2.5786 -1.86667 3.7
      vertex -2.66667 -4.6188 3.7
      vertex -1.86667 -3.36 3.7
    endloop
  endfacet
  facet normal 0 0 1
    outer loop
      vertex -2.5786 -1.4366 3.7
      vertex -5.33333 0 3.7
      vertex -2.5786 -1.86667 3.7
    endloop
  endfacet
  facet normal 0 0 1
    outer loop
      vertex -2.65201 1.73166 3.7
      vertex -5.33333 0 3.7
      vertex -2.65201 1.26575 3.7
    endloop
  endfacet
  facet normal 0 0 1
    outer loop
      vertex -2.5786 -1.86667 3.7
      vertex -5.33333 0 3.7
      vertex -2.66667 -4.6188 3.7
    endloop
  endfacet
  facet normal 0 0 1
    outer loop
      vertex 0.341782 0.0196247 3.7
      vertex -1.2368 -1.4366 3.7
      vertex -0.401367 -1.4366 3.7
    endloop
  endfacet
  facet normal 0 0 1
    outer loop
      vertex 0.855713 0.0196247 3.7
      vertex 2.44305 0.0196247 3.7
      vertex 2.39337 0.701479 3.7
    endloop
  endfacet
  facet normal 0 0 1
    outer loop
      vertex 0.905396 0.701479 3.7
      vertex 2.39337 0.701479 3.7
      vertex 2.24432 1.18779 3.7
    endloop
  endfacet
  facet normal 0 0 1
    outer loop
      vertex 2.44305 0.0196247 3.7
      vertex 0.855713 0.0196247 3.7
      vertex 2.39337 -0.660336 3.7
    endloop
  endfacet
  facet normal 0 0 1
    outer loop
      vertex 1.64812 1.57636 3.7
      vertex 2.24432 1.18779 3.7
      vertex 1.99591 1.47922 3.7
    endloop
  endfacet
  facet normal 0 -0 1
    outer loop
      vertex 0.905396 -0.660336 3.7
      vertex 2.39337 -0.660336 3.7
      vertex 0.855713 0.0196247 3.7
    endloop
  endfacet
  facet normal 0 0 1
    outer loop
      vertex 2.24432 1.18779 3.7
      vertex 1.64812 1.57636 3.7
      vertex 1.05443 1.18779 3.7
    endloop
  endfacet
  facet normal 0 0 1
    outer loop
      vertex 2.39337 -0.660336 3.7
      vertex 0.905396 -0.660336 3.7
      vertex 2.24432 -1.14602 3.7
    endloop
  endfacet
  facet normal 0 0 1
    outer loop
      vertex 1.05443 1.18779 3.7
      vertex 1.64812 1.57636 3.7
      vertex 1.30222 1.47922 3.7
    endloop
  endfacet
  facet normal 0 -0 1
    outer loop
      vertex 1.05443 -1.14602 3.7
      vertex 2.24432 -1.14602 3.7
      vertex 0.905396 -0.660336 3.7
    endloop
  endfacet
  facet normal 0 0 1
    outer loop
      vertex 2.24432 1.18779 3.7
      vertex 1.05443 1.18779 3.7
      vertex 0.905396 0.701479 3.7
    endloop
  endfacet
  facet normal 0 -0 1
    outer loop
      vertex 1.64812 -1.53456 3.7
      vertex 2.24432 -1.14602 3.7
      vertex 1.05443 -1.14602 3.7
    endloop
  endfacet
  facet normal 0 0 1
    outer loop
      vertex 2.39337 0.701479 3.7
      vertex 0.905396 0.701479 3.7
      vertex 0.855713 0.0196247 3.7
    endloop
  endfacet
  facet normal 0 0 1
    outer loop
      vertex 2.24432 -1.14602 3.7
      vertex 1.64812 -1.53456 3.7
      vertex 1.99591 -1.43742 3.7
    endloop
  endfacet
  facet normal 0 0 1
    outer loop
      vertex 1.64812 -1.53456 3.7
      vertex 1.05443 -1.14602 3.7
      vertex 1.30222 -1.43742 3.7
    endloop
  endfacet
endsolid OpenSCAD_Model
