solid OpenSCAD_Model
  facet normal -0 0 1
    outer loop
      vertex 1.15707 2.00573 3.2
      vertex 2.17433 1.71041 3.2
      vertex 2.10086 2.28889 3.2
    endloop
  endfacet
  facet normal 0 0 1
    outer loop
      vertex 2.17433 1.71041 3.2
      vertex 1.20154 1.64878 3.2
      vertex 2.15596 1.42144 3.2
    endloop
  endfacet
  facet normal 0 0 1
    outer loop
      vertex 1.18105 1.41411 3.2
      vertex 2.15596 1.42144 3.2
      vertex 1.20154 1.64878 3.2
    endloop
  endfacet
  facet normal 0 0 1
    outer loop
      vertex 1.15707 2.00573 3.2
      vertex 2.10086 2.28889 3.2
      vertex 1.88043 2.78426 3.2
    endloop
  endfacet
  facet normal 0 0 1
    outer loop
      vertex 2.15596 1.42144 3.2
      vertex 1.18105 1.41411 3.2
      vertex 2.10085 1.1426 3.2
    endloop
  endfacet
  facet normal -0 0 1
    outer loop
      vertex 1.11954 1.17676 3.2
      vertex 2.10085 1.1426 3.2
      vertex 1.18105 1.41411 3.2
    endloop
  endfacet
  facet normal 0 0 1
    outer loop
      vertex 1.02368 2.31579 3.2
      vertex 1.88043 2.78426 3.2
      vertex 1.51303 3.19652 3.2
    endloop
  endfacet
  facet normal 0 0 1
    outer loop
      vertex 2.10085 1.1426 3.2
      vertex 1.11954 1.17676 3.2
      vertex 2.00897 0.873862 3.2
    endloop
  endfacet
  facet normal 0 0 1
    outer loop
      vertex 2.00897 0.873862 3.2
      vertex 1.11954 1.17676 3.2
      vertex 1.8687 0.594459 3.2
    endloop
  endfacet
  facet normal -0 0 1
    outer loop
      vertex 1.01703 0.936744 3.2
      vertex 1.8687 0.594459 3.2
      vertex 1.11954 1.17676 3.2
    endloop
  endfacet
  facet normal 0 0 1
    outer loop
      vertex 2.17433 1.71041 3.2
      vertex 1.15707 2.00573 3.2
      vertex 1.20154 1.64878 3.2
    endloop
  endfacet
  facet normal 0 0 1
    outer loop
      vertex 1.88043 2.78426 3.2
      vertex 1.02368 2.31579 3.2
      vertex 1.15707 2.00573 3.2
    endloop
  endfacet
  facet normal 0 0 1
    outer loop
      vertex 0.801361 2.57897 3.2
      vertex 1.51303 3.19652 3.2
      vertex 1.02211 3.5055 3.2
    endloop
  endfacet
  facet normal 0 0 1
    outer loop
      vertex 1.51303 3.19652 3.2
      vertex 0.801361 2.57897 3.2
      vertex 1.02368 2.31579 3.2
    endloop
  endfacet
  facet normal 0 0 1
    outer loop
      vertex 1.02211 3.5055 3.2
      vertex 0.507721 2.77877 3.2
      vertex 0.801361 2.57897 3.2
    endloop
  endfacet
  facet normal 0 0 1
    outer loop
      vertex 0.431091 3.69088 3.2
      vertex 0.507721 2.77877 3.2
      vertex 1.02211 3.5055 3.2
    endloop
  endfacet
  facet normal 0 0 1
    outer loop
      vertex 0.431091 3.69088 3.2
      vertex 0.160294 2.89864 3.2
      vertex 0.507721 2.77877 3.2
    endloop
  endfacet
  facet normal 0 0 1
    outer loop
      vertex -0.26004 3.75268 3.2
      vertex 0.160294 2.89864 3.2
      vertex 0.431091 3.69088 3.2
    endloop
  endfacet
  facet normal 0 0 1
    outer loop
      vertex 0.160294 2.89864 3.2
      vertex -0.26004 3.75268 3.2
      vertex -0.240891 2.93859 3.2
    endloop
  endfacet
  facet normal -0 0 1
    outer loop
      vertex -0.550751 3.73936 3.2
      vertex -0.240891 2.93859 3.2
      vertex -0.26004 3.75268 3.2
    endloop
  endfacet
  facet normal 0 0 1
    outer loop
      vertex -0.240891 2.93859 3.2
      vertex -0.550751 3.73936 3.2
      vertex -0.549973 2.92101 3.2
    endloop
  endfacet
  facet normal -0 0 1
    outer loop
      vertex -0.860641 3.69938 3.2
      vertex -0.549973 2.92101 3.2
      vertex -0.550751 3.73936 3.2
    endloop
  endfacet
  facet normal 0 0 1
    outer loop
      vertex -0.860641 3.69938 3.2
      vertex -0.870239 2.86828 3.2
      vertex -0.549973 2.92101 3.2
    endloop
  endfacet
  facet normal -0 0 1
    outer loop
      vertex -1.18973 3.63276 3.2
      vertex -0.870239 2.86828 3.2
      vertex -0.860641 3.69938 3.2
    endloop
  endfacet
  facet normal 0 0 1
    outer loop
      vertex -1.18973 3.63276 3.2
      vertex -1.20168 2.78037 3.2
      vertex -0.870239 2.86828 3.2
    endloop
  endfacet
  facet normal -0 0 1
    outer loop
      vertex -1.5369 3.54002 3.2
      vertex -1.20168 2.78037 3.2
      vertex -1.18973 3.63276 3.2
    endloop
  endfacet
  facet normal 0 0 1
    outer loop
      vertex -1.5369 3.54002 3.2
      vertex -1.54643 2.65678 3.2
      vertex -1.20168 2.78037 3.2
    endloop
  endfacet
  facet normal -0 0 1
    outer loop
      vertex -1.90108 3.4217 3.2
      vertex -1.54643 2.65678 3.2
      vertex -1.5369 3.54002 3.2
    endloop
  endfacet
  facet normal 0 0 1
    outer loop
      vertex -1.90108 3.4217 3.2
      vertex -1.90665 2.49695 3.2
      vertex -1.54643 2.65678 3.2
    endloop
  endfacet
  facet normal -0 0 1
    outer loop
      vertex -2.28232 3.27779 3.2
      vertex -1.90665 2.49695 3.2
      vertex -1.90108 3.4217 3.2
    endloop
  endfacet
  facet normal 0 0 1
    outer loop
      vertex -1.90665 2.49695 3.2
      vertex -2.28232 3.27779 3.2
      vertex -2.28232 2.30089 3.2
    endloop
  endfacet
  facet normal 0 0 1
    outer loop
      vertex 1.8687 0.594459 3.2
      vertex 1.01703 0.936744 3.2
      vertex 1.66824 0.283652 3.2
    endloop
  endfacet
  facet normal -0 0 1
    outer loop
      vertex 0.862885 0.677588 3.2
      vertex 1.66824 0.283652 3.2
      vertex 1.01703 0.936744 3.2
    endloop
  endfacet
  facet normal 0 0 1
    outer loop
      vertex 1.66824 0.283652 3.2
      vertex 0.862885 0.677588 3.2
      vertex 1.40761 -0.0585861 3.2
    endloop
  endfacet
  facet normal -0 0 1
    outer loop
      vertex 0.646454 0.382728 3.2
      vertex 1.40761 -0.0585861 3.2
      vertex 0.862885 0.677588 3.2
    endloop
  endfacet
  facet normal 0 0 1
    outer loop
      vertex 1.40761 -0.0585861 3.2
      vertex 0.646454 0.382728 3.2
      vertex 1.2697 -0.209587 3.2
    endloop
  endfacet
  facet normal 0 0 1
    outer loop
      vertex 1.2697 -0.209587 3.2
      vertex 0.646454 0.382728 3.2
      vertex 1.0157 -0.477257 3.2
    endloop
  endfacet
  facet normal -0 0 1
    outer loop
      vertex 0.367737 0.052146 3.2
      vertex 1.0157 -0.477257 3.2
      vertex 0.646454 0.382728 3.2
    endloop
  endfacet
  facet normal -0 0 1
    outer loop
      vertex 0.126251 -0.20919 3.2
      vertex 1.0157 -0.477257 3.2
      vertex 0.367737 0.052146 3.2
    endloop
  endfacet
  facet normal 0 0 1
    outer loop
      vertex 1.0157 -0.477257 3.2
      vertex 0.126251 -0.20919 3.2
      vertex 0.645599 -0.86158 3.2
    endloop
  endfacet
  facet normal -0 0 1
    outer loop
      vertex -0.272293 -0.622368 3.2
      vertex 0.645599 -0.86158 3.2
      vertex 0.126251 -0.20919 3.2
    endloop
  endfacet
  facet normal 0 0 1
    outer loop
      vertex 0.645599 -0.86158 3.2
      vertex -0.272293 -0.622368 3.2
      vertex 0.158936 -1.36309 3.2
    endloop
  endfacet
  facet normal -0 0 1
    outer loop
      vertex -0.827927 -1.18736 3.2
      vertex 0.158936 -1.36309 3.2
      vertex -0.272293 -0.622368 3.2
    endloop
  endfacet
  facet normal 0 0 1
    outer loop
      vertex 0.158936 -1.36309 3.2
      vertex -0.827927 -1.18736 3.2
      vertex -0.444839 -1.98232 3.2
    endloop
  endfacet
  facet normal -0 0 1
    outer loop
      vertex -1.41762 -1.78483 3.2
      vertex -0.444839 -1.98232 3.2
      vertex -0.827927 -1.18736 3.2
    endloop
  endfacet
  facet normal 0 0 1
    outer loop
      vertex -0.444839 -1.98232 3.2
      vertex -1.41762 -1.78483 3.2
      vertex -1.16577 -2.71926 3.2
    endloop
  endfacet
  facet normal -0 0 1
    outer loop
      vertex -1.16577 -2.71926 3.2
      vertex 2.21263 -3.53333 3.2
      vertex 2.21263 -2.71926 3.2
    endloop
  endfacet
  facet normal -0 0 1
    outer loop
      vertex -1.91838 -2.29546 3.2
      vertex -1.16577 -2.71926 3.2
      vertex -1.41762 -1.78483 3.2
    endloop
  endfacet
  facet normal 0 0 1
    outer loop
      vertex -2.33023 -2.71926 3.2
      vertex -1.16577 -2.71926 3.2
      vertex -1.91838 -2.29546 3.2
    endloop
  endfacet
  facet normal 0 0 1
    outer loop
      vertex -2.33023 -3.53333 3.2
      vertex -1.16577 -2.71926 3.2
      vertex -2.33023 -2.71926 3.2
    endloop
  endfacet
  facet normal 0 0 1
    outer loop
      vertex -1.16577 -2.71926 3.2
      vertex -2.33023 -3.53333 3.2
      vertex 2.21263 -3.53333 3.2
    endloop
  endfacet
  facet normal 0 -1 0
    outer loop
      vertex -1.16577 -2.71926 3.2
      vertex 2.21263 -2.71926 6.2
      vertex -1.16577 -2.71926 6.2
    endloop
  endfacet
  facet normal 0 -1 -0
    outer loop
      vertex 2.21263 -2.71926 6.2
      vertex -1.16577 -2.71926 3.2
      vertex 2.21263 -2.71926 3.2
    endloop
  endfacet
  facet normal -0.714828 0.6993 0
    outer loop
      vertex -1.16577 -2.71926 3.2
      vertex -0.444839 -1.98232 6.2
      vertex -0.444839 -1.98232 3.2
    endloop
  endfacet
  facet normal -0.714828 0.6993 0
    outer loop
      vertex -0.444839 -1.98232 6.2
      vertex -1.16577 -2.71926 3.2
      vertex -1.16577 -2.71926 6.2
    endloop
  endfacet
  facet normal -0.715985 0.698115 0
    outer loop
      vertex -0.444839 -1.98232 3.2
      vertex 0.158936 -1.36309 6.2
      vertex 0.158936 -1.36309 3.2
    endloop
  endfacet
  facet normal -0.715985 0.698115 0
    outer loop
      vertex 0.158936 -1.36309 6.2
      vertex -0.444839 -1.98232 3.2
      vertex -0.444839 -1.98232 6.2
    endloop
  endfacet
  facet normal -0.71765 0.696404 0
    outer loop
      vertex 0.158936 -1.36309 3.2
      vertex 0.645599 -0.86158 6.2
      vertex 0.645599 -0.86158 3.2
    endloop
  endfacet
  facet normal -0.71765 0.696404 0
    outer loop
      vertex 0.645599 -0.86158 6.2
      vertex 0.158936 -1.36309 3.2
      vertex 0.158936 -1.36309 6.2
    endloop
  endfacet
  facet normal -0.720309 0.693654 0
    outer loop
      vertex 0.645599 -0.86158 3.2
      vertex 1.0157 -0.477257 6.2
      vertex 1.0157 -0.477257 3.2
    endloop
  endfacet
  facet normal -0.720309 0.693654 0
    outer loop
      vertex 1.0157 -0.477257 6.2
      vertex 0.645599 -0.86158 3.2
      vertex 0.645599 -0.86158 6.2
    endloop
  endfacet
  facet normal -0.725387 0.688341 0
    outer loop
      vertex 1.0157 -0.477257 3.2
      vertex 1.2697 -0.209587 6.2
      vertex 1.2697 -0.209587 3.2
    endloop
  endfacet
  facet normal -0.725387 0.688341 0
    outer loop
      vertex 1.2697 -0.209587 6.2
      vertex 1.0157 -0.477257 3.2
      vertex 1.0157 -0.477257 6.2
    endloop
  endfacet
  facet normal -0.738389 0.674375 0
    outer loop
      vertex 1.2697 -0.209587 3.2
      vertex 1.40761 -0.0585861 6.2
      vertex 1.40761 -0.0585861 3.2
    endloop
  endfacet
  facet normal -0.738389 0.674375 0
    outer loop
      vertex 1.40761 -0.0585861 6.2
      vertex 1.2697 -0.209587 3.2
      vertex 1.2697 -0.209587 6.2
    endloop
  endfacet
  facet normal -0.795569 0.605863 0
    outer loop
      vertex 1.40761 -0.0585861 3.2
      vertex 1.66824 0.283652 6.2
      vertex 1.66824 0.283652 3.2
    endloop
  endfacet
  facet normal -0.795569 0.605863 0
    outer loop
      vertex 1.66824 0.283652 6.2
      vertex 1.40761 -0.0585861 3.2
      vertex 1.40761 -0.0585861 6.2
    endloop
  endfacet
  facet normal -0.840371 0.542011 0
    outer loop
      vertex 1.66824 0.283652 3.2
      vertex 1.8687 0.594459 6.2
      vertex 1.8687 0.594459 3.2
    endloop
  endfacet
  facet normal -0.840371 0.542011 0
    outer loop
      vertex 1.8687 0.594459 6.2
      vertex 1.66824 0.283652 3.2
      vertex 1.66824 0.283652 6.2
    endloop
  endfacet
  facet normal -0.893699 0.448668 0
    outer loop
      vertex 1.8687 0.594459 3.2
      vertex 2.00897 0.873862 6.2
      vertex 2.00897 0.873862 3.2
    endloop
  endfacet
  facet normal -0.893699 0.448668 0
    outer loop
      vertex 2.00897 0.873862 6.2
      vertex 1.8687 0.594459 3.2
      vertex 1.8687 0.594459 6.2
    endloop
  endfacet
  facet normal -0.946225 0.323509 0
    outer loop
      vertex 2.00897 0.873862 3.2
      vertex 2.10085 1.1426 6.2
      vertex 2.10085 1.1426 3.2
    endloop
  endfacet
  facet normal -0.946225 0.323509 0
    outer loop
      vertex 2.10085 1.1426 6.2
      vertex 2.00897 0.873862 3.2
      vertex 2.00897 0.873862 6.2
    endloop
  endfacet
  facet normal -0.981023 0.19389 0
    outer loop
      vertex 2.10085 1.1426 3.2
      vertex 2.15596 1.42144 6.2
      vertex 2.15596 1.42144 3.2
    endloop
  endfacet
  facet normal -0.981023 0.19389 0
    outer loop
      vertex 2.15596 1.42144 6.2
      vertex 2.10085 1.1426 3.2
      vertex 2.10085 1.1426 6.2
    endloop
  endfacet
  facet normal -0.997985 0.0634425 0
    outer loop
      vertex 2.15596 1.42144 3.2
      vertex 2.17433 1.71041 6.2
      vertex 2.17433 1.71041 3.2
    endloop
  endfacet
  facet normal -0.997985 0.0634425 0
    outer loop
      vertex 2.17433 1.71041 6.2
      vertex 2.15596 1.42144 3.2
      vertex 2.15596 1.42144 6.2
    endloop
  endfacet
  facet normal -0.992031 -0.125993 0
    outer loop
      vertex 2.17433 1.71041 3.2
      vertex 2.10086 2.28889 6.2
      vertex 2.10086 2.28889 3.2
    endloop
  endfacet
  facet normal -0.992031 -0.125993 0
    outer loop
      vertex 2.10086 2.28889 6.2
      vertex 2.17433 1.71041 3.2
      vertex 2.17433 1.71041 6.2
    endloop
  endfacet
  facet normal -0.91363 -0.406547 0
    outer loop
      vertex 2.10086 2.28889 3.2
      vertex 1.88043 2.78426 6.2
      vertex 1.88043 2.78426 3.2
    endloop
  endfacet
  facet normal -0.91363 -0.406547 0
    outer loop
      vertex 1.88043 2.78426 6.2
      vertex 2.10086 2.28889 3.2
      vertex 2.10086 2.28889 6.2
    endloop
  endfacet
  facet normal -0.746557 -0.665321 0
    outer loop
      vertex 1.88043 2.78426 3.2
      vertex 1.51303 3.19652 6.2
      vertex 1.51303 3.19652 3.2
    endloop
  endfacet
  facet normal -0.746557 -0.665321 0
    outer loop
      vertex 1.51303 3.19652 6.2
      vertex 1.88043 2.78426 3.2
      vertex 1.88043 2.78426 6.2
    endloop
  endfacet
  facet normal -0.532668 -0.846324 0
    outer loop
      vertex 1.02211 3.5055 3.2
      vertex 1.51303 3.19652 6.2
      vertex 1.02211 3.5055 6.2
    endloop
  endfacet
  facet normal -0.532668 -0.846324 -0
    outer loop
      vertex 1.51303 3.19652 6.2
      vertex 1.02211 3.5055 3.2
      vertex 1.51303 3.19652 3.2
    endloop
  endfacet
  facet normal -0.299285 -0.954164 0
    outer loop
      vertex 0.431091 3.69088 3.2
      vertex 1.02211 3.5055 6.2
      vertex 0.431091 3.69088 6.2
    endloop
  endfacet
  facet normal -0.299285 -0.954164 -0
    outer loop
      vertex 1.02211 3.5055 6.2
      vertex 0.431091 3.69088 3.2
      vertex 1.02211 3.5055 3.2
    endloop
  endfacet
  facet normal -0.0890633 -0.996026 0
    outer loop
      vertex -0.26004 3.75268 3.2
      vertex 0.431091 3.69088 6.2
      vertex -0.26004 3.75268 6.2
    endloop
  endfacet
  facet normal -0.0890633 -0.996026 -0
    outer loop
      vertex 0.431091 3.69088 6.2
      vertex -0.26004 3.75268 3.2
      vertex 0.431091 3.69088 3.2
    endloop
  endfacet
  facet normal 0.0457707 -0.998952 0
    outer loop
      vertex -0.550751 3.73936 3.2
      vertex -0.26004 3.75268 6.2
      vertex -0.550751 3.73936 6.2
    endloop
  endfacet
  facet normal 0.0457707 -0.998952 0
    outer loop
      vertex -0.26004 3.75268 6.2
      vertex -0.550751 3.73936 3.2
      vertex -0.26004 3.75268 3.2
    endloop
  endfacet
  facet normal 0.127953 -0.99178 0
    outer loop
      vertex -0.860641 3.69938 3.2
      vertex -0.550751 3.73936 6.2
      vertex -0.860641 3.69938 6.2
    endloop
  endfacet
  facet normal 0.127953 -0.99178 0
    outer loop
      vertex -0.550751 3.73936 6.2
      vertex -0.860641 3.69938 3.2
      vertex -0.550751 3.73936 3.2
    endloop
  endfacet
  facet normal 0.198413 -0.980119 0
    outer loop
      vertex -1.18973 3.63276 3.2
      vertex -0.860641 3.69938 6.2
      vertex -1.18973 3.63276 6.2
    endloop
  endfacet
  facet normal 0.198413 -0.980119 0
    outer loop
      vertex -0.860641 3.69938 6.2
      vertex -1.18973 3.63276 3.2
      vertex -0.860641 3.69938 3.2
    endloop
  endfacet
  facet normal 0.258082 -0.966123 0
    outer loop
      vertex -1.5369 3.54002 3.2
      vertex -1.18973 3.63276 6.2
      vertex -1.5369 3.54002 6.2
    endloop
  endfacet
  facet normal 0.258082 -0.966123 0
    outer loop
      vertex -1.18973 3.63276 6.2
      vertex -1.5369 3.54002 3.2
      vertex -1.18973 3.63276 3.2
    endloop
  endfacet
  facet normal 0.308995 -0.951064 0
    outer loop
      vertex -1.90108 3.4217 3.2
      vertex -1.5369 3.54002 6.2
      vertex -1.90108 3.4217 6.2
    endloop
  endfacet
  facet normal 0.308995 -0.951064 0
    outer loop
      vertex -1.5369 3.54002 6.2
      vertex -1.90108 3.4217 3.2
      vertex -1.5369 3.54002 3.2
    endloop
  endfacet
  facet normal 0.353156 -0.935565 0
    outer loop
      vertex -2.28232 3.27779 3.2
      vertex -1.90108 3.4217 6.2
      vertex -2.28232 3.27779 6.2
    endloop
  endfacet
  facet normal 0.353156 -0.935565 0
    outer loop
      vertex -1.90108 3.4217 6.2
      vertex -2.28232 3.27779 3.2
      vertex -1.90108 3.4217 3.2
    endloop
  endfacet
  facet normal 1 -0 0
    outer loop
      vertex -2.28232 2.30089 6.2
      vertex -2.28232 3.27779 3.2
      vertex -2.28232 3.27779 6.2
    endloop
  endfacet
  facet normal 1 0 0
    outer loop
      vertex -2.28232 3.27779 3.2
      vertex -2.28232 2.30089 6.2
      vertex -2.28232 2.30089 3.2
    endloop
  endfacet
  facet normal -0.462674 0.886528 0
    outer loop
      vertex -1.90665 2.49695 3.2
      vertex -2.28232 2.30089 6.2
      vertex -1.90665 2.49695 6.2
    endloop
  endfacet
  facet normal -0.462674 0.886528 0
    outer loop
      vertex -2.28232 2.30089 6.2
      vertex -1.90665 2.49695 3.2
      vertex -2.28232 2.30089 3.2
    endloop
  endfacet
  facet normal -0.405571 0.914064 0
    outer loop
      vertex -1.54643 2.65678 3.2
      vertex -1.90665 2.49695 6.2
      vertex -1.54643 2.65678 6.2
    endloop
  endfacet
  facet normal -0.405571 0.914064 0
    outer loop
      vertex -1.90665 2.49695 6.2
      vertex -1.54643 2.65678 3.2
      vertex -1.90665 2.49695 3.2
    endloop
  endfacet
  facet normal -0.337462 0.941339 0
    outer loop
      vertex -1.20168 2.78037 3.2
      vertex -1.54643 2.65678 6.2
      vertex -1.20168 2.78037 6.2
    endloop
  endfacet
  facet normal -0.337462 0.941339 0
    outer loop
      vertex -1.54643 2.65678 6.2
      vertex -1.20168 2.78037 3.2
      vertex -1.54643 2.65678 3.2
    endloop
  endfacet
  facet normal -0.256371 0.966578 0
    outer loop
      vertex -0.870239 2.86828 3.2
      vertex -1.20168 2.78037 6.2
      vertex -0.870239 2.86828 6.2
    endloop
  endfacet
  facet normal -0.256371 0.966578 0
    outer loop
      vertex -1.20168 2.78037 6.2
      vertex -0.870239 2.86828 3.2
      vertex -1.20168 2.78037 3.2
    endloop
  endfacet
  facet normal -0.162457 0.986716 0
    outer loop
      vertex -0.549973 2.92101 3.2
      vertex -0.870239 2.86828 6.2
      vertex -0.549973 2.92101 6.2
    endloop
  endfacet
  facet normal -0.162457 0.986716 0
    outer loop
      vertex -0.870239 2.86828 6.2
      vertex -0.549973 2.92101 3.2
      vertex -0.870239 2.86828 3.2
    endloop
  endfacet
  facet normal -0.0567863 0.998386 0
    outer loop
      vertex -0.240891 2.93859 3.2
      vertex -0.549973 2.92101 6.2
      vertex -0.240891 2.93859 6.2
    endloop
  endfacet
  facet normal -0.0567863 0.998386 0
    outer loop
      vertex -0.549973 2.92101 6.2
      vertex -0.240891 2.93859 3.2
      vertex -0.549973 2.92101 3.2
    endloop
  endfacet
  facet normal 0.0990899 0.995078 -0
    outer loop
      vertex 0.160294 2.89864 3.2
      vertex -0.240891 2.93859 6.2
      vertex 0.160294 2.89864 6.2
    endloop
  endfacet
  facet normal 0.0990899 0.995078 0
    outer loop
      vertex -0.240891 2.93859 6.2
      vertex 0.160294 2.89864 3.2
      vertex -0.240891 2.93859 3.2
    endloop
  endfacet
  facet normal 0.326155 0.945316 -0
    outer loop
      vertex 0.507721 2.77877 3.2
      vertex 0.160294 2.89864 6.2
      vertex 0.507721 2.77877 6.2
    endloop
  endfacet
  facet normal 0.326155 0.945316 0
    outer loop
      vertex 0.160294 2.89864 6.2
      vertex 0.507721 2.77877 3.2
      vertex 0.160294 2.89864 3.2
    endloop
  endfacet
  facet normal 0.56255 0.826763 -0
    outer loop
      vertex 0.801361 2.57897 3.2
      vertex 0.507721 2.77877 6.2
      vertex 0.801361 2.57897 6.2
    endloop
  endfacet
  facet normal 0.56255 0.826763 0
    outer loop
      vertex 0.507721 2.77877 6.2
      vertex 0.801361 2.57897 3.2
      vertex 0.507721 2.77877 3.2
    endloop
  endfacet
  facet normal 0.763918 0.645313 0
    outer loop
      vertex 1.02368 2.31579 6.2
      vertex 0.801361 2.57897 3.2
      vertex 0.801361 2.57897 6.2
    endloop
  endfacet
  facet normal 0.763918 0.645313 0
    outer loop
      vertex 0.801361 2.57897 3.2
      vertex 1.02368 2.31579 6.2
      vertex 1.02368 2.31579 3.2
    endloop
  endfacet
  facet normal 0.9186 0.395188 0
    outer loop
      vertex 1.15707 2.00573 6.2
      vertex 1.02368 2.31579 3.2
      vertex 1.02368 2.31579 6.2
    endloop
  endfacet
  facet normal 0.9186 0.395188 0
    outer loop
      vertex 1.02368 2.31579 3.2
      vertex 1.15707 2.00573 6.2
      vertex 1.15707 2.00573 3.2
    endloop
  endfacet
  facet normal 0.992329 0.123628 0
    outer loop
      vertex 1.20154 1.64878 6.2
      vertex 1.15707 2.00573 3.2
      vertex 1.15707 2.00573 6.2
    endloop
  endfacet
  facet normal 0.992329 0.123628 0
    outer loop
      vertex 1.15707 2.00573 3.2
      vertex 1.20154 1.64878 6.2
      vertex 1.20154 1.64878 3.2
    endloop
  endfacet
  facet normal 0.99621 -0.0869832 0
    outer loop
      vertex 1.18105 1.41411 6.2
      vertex 1.20154 1.64878 3.2
      vertex 1.20154 1.64878 6.2
    endloop
  endfacet
  facet normal 0.99621 -0.0869832 0
    outer loop
      vertex 1.20154 1.64878 3.2
      vertex 1.18105 1.41411 6.2
      vertex 1.18105 1.41411 3.2
    endloop
  endfacet
  facet normal 0.968022 -0.250866 0
    outer loop
      vertex 1.11954 1.17676 6.2
      vertex 1.18105 1.41411 3.2
      vertex 1.18105 1.41411 6.2
    endloop
  endfacet
  facet normal 0.968022 -0.250866 0
    outer loop
      vertex 1.18105 1.41411 3.2
      vertex 1.11954 1.17676 6.2
      vertex 1.11954 1.17676 3.2
    endloop
  endfacet
  facet normal 0.919635 -0.392773 0
    outer loop
      vertex 1.01703 0.936744 6.2
      vertex 1.11954 1.17676 3.2
      vertex 1.11954 1.17676 6.2
    endloop
  endfacet
  facet normal 0.919635 -0.392773 0
    outer loop
      vertex 1.11954 1.17676 3.2
      vertex 1.01703 0.936744 6.2
      vertex 1.01703 0.936744 3.2
    endloop
  endfacet
  facet normal 0.85946 -0.511203 0
    outer loop
      vertex 0.862885 0.677588 6.2
      vertex 1.01703 0.936744 3.2
      vertex 1.01703 0.936744 6.2
    endloop
  endfacet
  facet normal 0.85946 -0.511203 0
    outer loop
      vertex 1.01703 0.936744 3.2
      vertex 0.862885 0.677588 6.2
      vertex 0.862885 0.677588 3.2
    endloop
  endfacet
  facet normal 0.806144 -0.59172 0
    outer loop
      vertex 0.646454 0.382728 6.2
      vertex 0.862885 0.677588 3.2
      vertex 0.862885 0.677588 6.2
    endloop
  endfacet
  facet normal 0.806144 -0.59172 0
    outer loop
      vertex 0.862885 0.677588 3.2
      vertex 0.646454 0.382728 6.2
      vertex 0.646454 0.382728 3.2
    endloop
  endfacet
  facet normal 0.764533 -0.644585 0
    outer loop
      vertex 0.367737 0.052146 6.2
      vertex 0.646454 0.382728 3.2
      vertex 0.646454 0.382728 6.2
    endloop
  endfacet
  facet normal 0.764533 -0.644585 0
    outer loop
      vertex 0.646454 0.382728 3.2
      vertex 0.367737 0.052146 6.2
      vertex 0.367737 0.052146 3.2
    endloop
  endfacet
  facet normal 0.734449 -0.678664 0
    outer loop
      vertex 0.126251 -0.20919 6.2
      vertex 0.367737 0.052146 3.2
      vertex 0.367737 0.052146 6.2
    endloop
  endfacet
  facet normal 0.734449 -0.678664 0
    outer loop
      vertex 0.367737 0.052146 3.2
      vertex 0.126251 -0.20919 6.2
      vertex 0.126251 -0.20919 3.2
    endloop
  endfacet
  facet normal 0.719738 -0.694246 0
    outer loop
      vertex -0.272293 -0.622368 6.2
      vertex 0.126251 -0.20919 3.2
      vertex 0.126251 -0.20919 6.2
    endloop
  endfacet
  facet normal 0.719738 -0.694246 0
    outer loop
      vertex 0.126251 -0.20919 3.2
      vertex -0.272293 -0.622368 6.2
      vertex -0.272293 -0.622368 3.2
    endloop
  endfacet
  facet normal 0.712987 -0.701178 0
    outer loop
      vertex -0.827927 -1.18736 6.2
      vertex -0.272293 -0.622368 3.2
      vertex -0.272293 -0.622368 6.2
    endloop
  endfacet
  facet normal 0.712987 -0.701178 0
    outer loop
      vertex -0.272293 -0.622368 3.2
      vertex -0.827927 -1.18736 6.2
      vertex -0.827927 -1.18736 3.2
    endloop
  endfacet
  facet normal 0.711724 -0.70246 0
    outer loop
      vertex -1.41762 -1.78483 6.2
      vertex -0.827927 -1.18736 3.2
      vertex -0.827927 -1.18736 6.2
    endloop
  endfacet
  facet normal 0.711724 -0.70246 0
    outer loop
      vertex -0.827927 -1.18736 3.2
      vertex -1.41762 -1.78483 6.2
      vertex -1.41762 -1.78483 3.2
    endloop
  endfacet
  facet normal 0.713973 -0.700173 0
    outer loop
      vertex -1.91838 -2.29546 6.2
      vertex -1.41762 -1.78483 3.2
      vertex -1.41762 -1.78483 6.2
    endloop
  endfacet
  facet normal 0.713973 -0.700173 0
    outer loop
      vertex -1.41762 -1.78483 3.2
      vertex -1.91838 -2.29546 6.2
      vertex -1.91838 -2.29546 3.2
    endloop
  endfacet
  facet normal 0.717145 -0.696924 0
    outer loop
      vertex -2.33023 -2.71926 6.2
      vertex -1.91838 -2.29546 3.2
      vertex -1.91838 -2.29546 6.2
    endloop
  endfacet
  facet normal 0.717145 -0.696924 0
    outer loop
      vertex -1.91838 -2.29546 3.2
      vertex -2.33023 -2.71926 6.2
      vertex -2.33023 -2.71926 3.2
    endloop
  endfacet
  facet normal 1 -0 0
    outer loop
      vertex -2.33023 -3.53333 6.2
      vertex -2.33023 -2.71926 3.2
      vertex -2.33023 -2.71926 6.2
    endloop
  endfacet
  facet normal 1 0 0
    outer loop
      vertex -2.33023 -2.71926 3.2
      vertex -2.33023 -3.53333 6.2
      vertex -2.33023 -3.53333 3.2
    endloop
  endfacet
  facet normal 0 1 -0
    outer loop
      vertex 2.21263 -3.53333 3.2
      vertex -2.33023 -3.53333 6.2
      vertex 2.21263 -3.53333 6.2
    endloop
  endfacet
  facet normal 0 1 0
    outer loop
      vertex -2.33023 -3.53333 6.2
      vertex 2.21263 -3.53333 3.2
      vertex -2.33023 -3.53333 3.2
    endloop
  endfacet
  facet normal -1 0 0
    outer loop
      vertex 2.21263 -3.53333 3.2
      vertex 2.21263 -2.71926 6.2
      vertex 2.21263 -2.71926 3.2
    endloop
  endfacet
  facet normal -1 -0 0
    outer loop
      vertex 2.21263 -2.71926 6.2
      vertex 2.21263 -3.53333 3.2
      vertex 2.21263 -3.53333 6.2
    endloop
  endfacet
  facet normal -1 0 0
    outer loop
      vertex 3.53333 -6.36 3.2
      vertex 3.53333 -5.36 6.2
      vertex 3.53333 -5.36 3.2
    endloop
  endfacet
  facet normal -1 -0 0
    outer loop
      vertex 3.53333 -5.36 6.2
      vertex 3.53333 -6.36 3.2
      vertex 3.53333 -6.36 6.2
    endloop
  endfacet
  facet normal -0 0 1
    outer loop
      vertex -3.53333 -5.36 3.2
      vertex 3.53333 -6.36 3.2
      vertex 3.53333 -5.36 3.2
    endloop
  endfacet
  facet normal 0 0 1
    outer loop
      vertex 3.53333 -6.36 3.2
      vertex -3.53333 -5.36 3.2
      vertex -3.53333 -6.36 3.2
    endloop
  endfacet
  facet normal 1 -0 0
    outer loop
      vertex -3.53333 -6.36 6.2
      vertex -3.53333 -5.36 3.2
      vertex -3.53333 -5.36 6.2
    endloop
  endfacet
  facet normal 1 0 0
    outer loop
      vertex -3.53333 -5.36 3.2
      vertex -3.53333 -6.36 6.2
      vertex -3.53333 -6.36 3.2
    endloop
  endfacet
  facet normal 0 -1 0
    outer loop
      vertex -3.53333 -5.36 3.2
      vertex 3.53333 -5.36 6.2
      vertex -3.53333 -5.36 6.2
    endloop
  endfacet
  facet normal 0 -1 -0
    outer loop
      vertex 3.53333 -5.36 6.2
      vertex -3.53333 -5.36 3.2
      vertex 3.53333 -5.36 3.2
    endloop
  endfacet
  facet normal 0 1 -0
    outer loop
      vertex 3.53333 -6.36 3.2
      vertex -3.53333 -6.36 6.2
      vertex 3.53333 -6.36 6.2
    endloop
  endfacet
  facet normal 0 1 0
    outer loop
      vertex -3.53333 -6.36 6.2
      vertex 3.53333 -6.36 3.2
      vertex -3.53333 -6.36 3.2
    endloop
  endfacet
  facet normal -0.866025 0.500001 0
    outer loop
      vertex -8.66667 0 0
      vertex -4.33333 7.50555 6.2
      vertex -4.33333 7.50555 0
    endloop
  endfacet
  facet normal -0.866025 0.500001 0
    outer loop
      vertex -4.33333 7.50555 6.2
      vertex -8.66667 0 0
      vertex -8.66667 0 6.2
    endloop
  endfacet
  facet normal 0 0 -1
    outer loop
      vertex 4.33333 -7.50555 0
      vertex 4.33333 7.50555 0
      vertex 8.66667 0 0
    endloop
  endfacet
  facet normal 0 0 -1
    outer loop
      vertex -4.33333 -7.50555 0
      vertex 4.33333 7.50555 0
      vertex 4.33333 -7.50555 0
    endloop
  endfacet
  facet normal 0 0 -1
    outer loop
      vertex -4.33333 -7.50555 0
      vertex -4.33333 7.50555 0
      vertex 4.33333 7.50555 0
    endloop
  endfacet
  facet normal 0 -0 -1
    outer loop
      vertex -4.33333 7.50555 0
      vertex -4.33333 -7.50555 0
      vertex -8.66667 0 0
    endloop
  endfacet
  facet normal 0.866025 -0.500001 0
    outer loop
      vertex 4.33333 -7.50555 6.2
      vertex 8.66667 0 0
      vertex 8.66667 0 6.2
    endloop
  endfacet
  facet normal 0.866025 -0.500001 0
    outer loop
      vertex 8.66667 0 0
      vertex 4.33333 -7.50555 6.2
      vertex 4.33333 -7.50555 0
    endloop
  endfacet
  facet normal -0 0 1
    outer loop
      vertex 2.10086 2.28889 6.2
      vertex 8.66667 0 6.2
      vertex 4.33333 7.50555 6.2
    endloop
  endfacet
  facet normal 0 0 1
    outer loop
      vertex 8.66667 0 6.2
      vertex 3.53333 -5.36 6.2
      vertex 4.33333 -7.50555 6.2
    endloop
  endfacet
  facet normal -0 0 1
    outer loop
      vertex 2.10085 1.1426 6.2
      vertex 8.66667 0 6.2
      vertex 2.15596 1.42144 6.2
    endloop
  endfacet
  facet normal 0 0 1
    outer loop
      vertex 8.66667 0 6.2
      vertex 2.17433 1.71041 6.2
      vertex 2.15596 1.42144 6.2
    endloop
  endfacet
  facet normal 0 0 1
    outer loop
      vertex 8.66667 0 6.2
      vertex 2.10086 2.28889 6.2
      vertex 2.17433 1.71041 6.2
    endloop
  endfacet
  facet normal 0 0 1
    outer loop
      vertex 4.33333 7.50555 6.2
      vertex 1.88043 2.78426 6.2
      vertex 2.10086 2.28889 6.2
    endloop
  endfacet
  facet normal 0 0 1
    outer loop
      vertex 4.33333 7.50555 6.2
      vertex 1.51303 3.19652 6.2
      vertex 1.88043 2.78426 6.2
    endloop
  endfacet
  facet normal 0 0 1
    outer loop
      vertex 4.33333 7.50555 6.2
      vertex 1.02211 3.5055 6.2
      vertex 1.51303 3.19652 6.2
    endloop
  endfacet
  facet normal 0 0 1
    outer loop
      vertex 4.33333 7.50555 6.2
      vertex 0.431091 3.69088 6.2
      vertex 1.02211 3.5055 6.2
    endloop
  endfacet
  facet normal 0 0 1
    outer loop
      vertex 4.33333 7.50555 6.2
      vertex -0.26004 3.75268 6.2
      vertex 0.431091 3.69088 6.2
    endloop
  endfacet
  facet normal -0 0 1
    outer loop
      vertex -4.33333 7.50555 6.2
      vertex -0.26004 3.75268 6.2
      vertex 4.33333 7.50555 6.2
    endloop
  endfacet
  facet normal 0 0 1
    outer loop
      vertex -0.26004 3.75268 6.2
      vertex -4.33333 7.50555 6.2
      vertex -0.550751 3.73936 6.2
    endloop
  endfacet
  facet normal 0 0 1
    outer loop
      vertex -0.550751 3.73936 6.2
      vertex -4.33333 7.50555 6.2
      vertex -0.860641 3.69938 6.2
    endloop
  endfacet
  facet normal 0 0 1
    outer loop
      vertex -0.860641 3.69938 6.2
      vertex -4.33333 7.50555 6.2
      vertex -1.18973 3.63276 6.2
    endloop
  endfacet
  facet normal 0 0 1
    outer loop
      vertex -1.18973 3.63276 6.2
      vertex -4.33333 7.50555 6.2
      vertex -1.5369 3.54002 6.2
    endloop
  endfacet
  facet normal 0 0 1
    outer loop
      vertex -1.5369 3.54002 6.2
      vertex -4.33333 7.50555 6.2
      vertex -1.90108 3.4217 6.2
    endloop
  endfacet
  facet normal 0 0 1
    outer loop
      vertex -8.66667 0 6.2
      vertex -2.28232 2.30089 6.2
      vertex -2.28232 3.27779 6.2
    endloop
  endfacet
  facet normal 0 0 1
    outer loop
      vertex -2.33023 -2.71926 6.2
      vertex -3.53333 -5.36 6.2
      vertex -2.33023 -3.53333 6.2
    endloop
  endfacet
  facet normal 0 0 1
    outer loop
      vertex -2.28232 2.30089 6.2
      vertex -8.66667 0 6.2
      vertex -2.33023 -2.71926 6.2
    endloop
  endfacet
  facet normal 0 0 1
    outer loop
      vertex -2.33023 -2.71926 6.2
      vertex -8.66667 0 6.2
      vertex -3.53333 -5.36 6.2
    endloop
  endfacet
  facet normal 0 0 1
    outer loop
      vertex -8.66667 0 6.2
      vertex -2.28232 3.27779 6.2
      vertex -4.33333 7.50555 6.2
    endloop
  endfacet
  facet normal 0 0 1
    outer loop
      vertex -1.90108 3.4217 6.2
      vertex -4.33333 7.50555 6.2
      vertex -2.28232 3.27779 6.2
    endloop
  endfacet
  facet normal -0 0 1
    outer loop
      vertex 3.53333 -6.36 6.2
      vertex 4.33333 -7.50555 6.2
      vertex 3.53333 -5.36 6.2
    endloop
  endfacet
  facet normal -0 0 1
    outer loop
      vertex -3.53333 -6.36 6.2
      vertex 4.33333 -7.50555 6.2
      vertex 3.53333 -6.36 6.2
    endloop
  endfacet
  facet normal 0 0 1
    outer loop
      vertex -3.53333 -6.36 6.2
      vertex -4.33333 -7.50555 6.2
      vertex 4.33333 -7.50555 6.2
    endloop
  endfacet
  facet normal 0 -0 1
    outer loop
      vertex -4.33333 -7.50555 6.2
      vertex -3.53333 -5.36 6.2
      vertex -8.66667 0 6.2
    endloop
  endfacet
  facet normal 0 0 1
    outer loop
      vertex -3.53333 -5.36 6.2
      vertex -4.33333 -7.50555 6.2
      vertex -3.53333 -6.36 6.2
    endloop
  endfacet
  facet normal -0 0 1
    outer loop
      vertex 2.21263 -3.53333 6.2
      vertex 3.53333 -5.36 6.2
      vertex 2.21263 -2.71926 6.2
    endloop
  endfacet
  facet normal 0 0 1
    outer loop
      vertex -3.53333 -5.36 6.2
      vertex 2.21263 -3.53333 6.2
      vertex -2.33023 -3.53333 6.2
    endloop
  endfacet
  facet normal 0 0 1
    outer loop
      vertex 2.21263 -3.53333 6.2
      vertex -3.53333 -5.36 6.2
      vertex 3.53333 -5.36 6.2
    endloop
  endfacet
  facet normal -0 0 1
    outer loop
      vertex 2.00897 0.873862 6.2
      vertex 8.66667 0 6.2
      vertex 2.10085 1.1426 6.2
    endloop
  endfacet
  facet normal 0 0 1
    outer loop
      vertex 8.66667 0 6.2
      vertex 2.21263 -2.71926 6.2
      vertex 3.53333 -5.36 6.2
    endloop
  endfacet
  facet normal 0 0 1
    outer loop
      vertex 8.66667 0 6.2
      vertex 2.00897 0.873862 6.2
      vertex 2.21263 -2.71926 6.2
    endloop
  endfacet
  facet normal -0 0 1
    outer loop
      vertex 1.8687 0.594459 6.2
      vertex 2.21263 -2.71926 6.2
      vertex 2.00897 0.873862 6.2
    endloop
  endfacet
  facet normal -0 0 1
    outer loop
      vertex 1.66824 0.283652 6.2
      vertex 2.21263 -2.71926 6.2
      vertex 1.8687 0.594459 6.2
    endloop
  endfacet
  facet normal -0 0 1
    outer loop
      vertex 1.40761 -0.0585861 6.2
      vertex 2.21263 -2.71926 6.2
      vertex 1.66824 0.283652 6.2
    endloop
  endfacet
  facet normal -0 0 1
    outer loop
      vertex 1.2697 -0.209587 6.2
      vertex 2.21263 -2.71926 6.2
      vertex 1.40761 -0.0585861 6.2
    endloop
  endfacet
  facet normal -0 0 1
    outer loop
      vertex 1.0157 -0.477257 6.2
      vertex 2.21263 -2.71926 6.2
      vertex 1.2697 -0.209587 6.2
    endloop
  endfacet
  facet normal -0 0 1
    outer loop
      vertex 0.645599 -0.86158 6.2
      vertex 2.21263 -2.71926 6.2
      vertex 1.0157 -0.477257 6.2
    endloop
  endfacet
  facet normal -0 0 1
    outer loop
      vertex 0.158936 -1.36309 6.2
      vertex 2.21263 -2.71926 6.2
      vertex 0.645599 -0.86158 6.2
    endloop
  endfacet
  facet normal -0 0 1
    outer loop
      vertex -0.444839 -1.98232 6.2
      vertex 2.21263 -2.71926 6.2
      vertex 0.158936 -1.36309 6.2
    endloop
  endfacet
  facet normal 0 0 1
    outer loop
      vertex 2.21263 -2.71926 6.2
      vertex -0.444839 -1.98232 6.2
      vertex -1.16577 -2.71926 6.2
    endloop
  endfacet
  facet normal 0 0 1
    outer loop
      vertex 0.801361 2.57897 6.2
      vertex 1.20154 1.64878 6.2
      vertex 1.15707 2.00573 6.2
    endloop
  endfacet
  facet normal 0 0 1
    outer loop
      vertex 0.507721 2.77877 6.2
      vertex 1.20154 1.64878 6.2
      vertex 0.801361 2.57897 6.2
    endloop
  endfacet
  facet normal 0 0 1
    outer loop
      vertex 0.801361 2.57897 6.2
      vertex 1.15707 2.00573 6.2
      vertex 1.02368 2.31579 6.2
    endloop
  endfacet
  facet normal 0 0 1
    outer loop
      vertex 1.20154 1.64878 6.2
      vertex 0.507721 2.77877 6.2
      vertex 1.18105 1.41411 6.2
    endloop
  endfacet
  facet normal 0 0 1
    outer loop
      vertex 0.160294 2.89864 6.2
      vertex 1.18105 1.41411 6.2
      vertex 0.507721 2.77877 6.2
    endloop
  endfacet
  facet normal 0 0 1
    outer loop
      vertex 1.18105 1.41411 6.2
      vertex 0.160294 2.89864 6.2
      vertex 1.11954 1.17676 6.2
    endloop
  endfacet
  facet normal 0 0 1
    outer loop
      vertex 1.11954 1.17676 6.2
      vertex 0.160294 2.89864 6.2
      vertex 1.01703 0.936744 6.2
    endloop
  endfacet
  facet normal 0 0 1
    outer loop
      vertex -0.240891 2.93859 6.2
      vertex 1.01703 0.936744 6.2
      vertex 0.160294 2.89864 6.2
    endloop
  endfacet
  facet normal 0 0 1
    outer loop
      vertex 1.01703 0.936744 6.2
      vertex -0.240891 2.93859 6.2
      vertex 0.862885 0.677588 6.2
    endloop
  endfacet
  facet normal -0 0 1
    outer loop
      vertex -0.549973 2.92101 6.2
      vertex 0.862885 0.677588 6.2
      vertex -0.240891 2.93859 6.2
    endloop
  endfacet
  facet normal 0 0 1
    outer loop
      vertex 0.862885 0.677588 6.2
      vertex -0.549973 2.92101 6.2
      vertex 0.646454 0.382728 6.2
    endloop
  endfacet
  facet normal -0 0 1
    outer loop
      vertex -0.870239 2.86828 6.2
      vertex 0.646454 0.382728 6.2
      vertex -0.549973 2.92101 6.2
    endloop
  endfacet
  facet normal -0 0 1
    outer loop
      vertex -1.20168 2.78037 6.2
      vertex 0.646454 0.382728 6.2
      vertex -0.870239 2.86828 6.2
    endloop
  endfacet
  facet normal 0 0 1
    outer loop
      vertex 0.646454 0.382728 6.2
      vertex -1.20168 2.78037 6.2
      vertex 0.367737 0.052146 6.2
    endloop
  endfacet
  facet normal -0 0 1
    outer loop
      vertex -1.54643 2.65678 6.2
      vertex 0.367737 0.052146 6.2
      vertex -1.20168 2.78037 6.2
    endloop
  endfacet
  facet normal 0 0 1
    outer loop
      vertex 0.367737 0.052146 6.2
      vertex -1.54643 2.65678 6.2
      vertex 0.126251 -0.20919 6.2
    endloop
  endfacet
  facet normal -0 0 1
    outer loop
      vertex -1.90665 2.49695 6.2
      vertex 0.126251 -0.20919 6.2
      vertex -1.54643 2.65678 6.2
    endloop
  endfacet
  facet normal -0 0 1
    outer loop
      vertex -2.28232 2.30089 6.2
      vertex 0.126251 -0.20919 6.2
      vertex -1.90665 2.49695 6.2
    endloop
  endfacet
  facet normal 0 0 1
    outer loop
      vertex 0.126251 -0.20919 6.2
      vertex -2.28232 2.30089 6.2
      vertex -0.272293 -0.622368 6.2
    endloop
  endfacet
  facet normal 0 0 1
    outer loop
      vertex -0.272293 -0.622368 6.2
      vertex -2.28232 2.30089 6.2
      vertex -0.827927 -1.18736 6.2
    endloop
  endfacet
  facet normal 0 0 1
    outer loop
      vertex -0.827927 -1.18736 6.2
      vertex -2.28232 2.30089 6.2
      vertex -1.41762 -1.78483 6.2
    endloop
  endfacet
  facet normal 0 0 1
    outer loop
      vertex -1.41762 -1.78483 6.2
      vertex -2.28232 2.30089 6.2
      vertex -1.91838 -2.29546 6.2
    endloop
  endfacet
  facet normal 0 0 1
    outer loop
      vertex -1.91838 -2.29546 6.2
      vertex -2.28232 2.30089 6.2
      vertex -2.33023 -2.71926 6.2
    endloop
  endfacet
  facet normal 0 1 -0
    outer loop
      vertex 4.33333 7.50555 0
      vertex -4.33333 7.50555 6.2
      vertex 4.33333 7.50555 6.2
    endloop
  endfacet
  facet normal 0 1 0
    outer loop
      vertex -4.33333 7.50555 6.2
      vertex 4.33333 7.50555 0
      vertex -4.33333 7.50555 0
    endloop
  endfacet
  facet normal -0.866025 -0.500001 0
    outer loop
      vertex -4.33333 -7.50555 0
      vertex -8.66667 0 6.2
      vertex -8.66667 0 0
    endloop
  endfacet
  facet normal -0.866025 -0.500001 0
    outer loop
      vertex -8.66667 0 6.2
      vertex -4.33333 -7.50555 0
      vertex -4.33333 -7.50555 6.2
    endloop
  endfacet
  facet normal 0 -1 0
    outer loop
      vertex -4.33333 -7.50555 0
      vertex 4.33333 -7.50555 6.2
      vertex -4.33333 -7.50555 6.2
    endloop
  endfacet
  facet normal 0 -1 -0
    outer loop
      vertex 4.33333 -7.50555 6.2
      vertex -4.33333 -7.50555 0
      vertex 4.33333 -7.50555 0
    endloop
  endfacet
  facet normal 0.866025 0.500001 0
    outer loop
      vertex 8.66667 0 6.2
      vertex 4.33333 7.50555 0
      vertex 4.33333 7.50555 6.2
    endloop
  endfacet
  facet normal 0.866025 0.500001 0
    outer loop
      vertex 4.33333 7.50555 0
      vertex 8.66667 0 6.2
      vertex 8.66667 0 0
    endloop
  endfacet
endsolid OpenSCAD_Model
