solid OpenSCAD_Model
  facet normal -0 0 1
    outer loop
      vertex 0.581924 1.14462 0.7
      vertex 1.1487 0.903612 0.7
      vertex 1.06136 1.34557 0.7
    endloop
  endfacet
  facet normal 0 0 1
    outer loop
      vertex 1.1487 0.903612 0.7
      vertex 0.634766 0.87105 0.7
      vertex 1.12686 0.676622 0.7
    endloop
  endfacet
  facet normal -0 0 1
    outer loop
      vertex 0.610397 0.684557 0.7
      vertex 1.12686 0.676622 0.7
      vertex 0.634766 0.87105 0.7
    endloop
  endfacet
  facet normal 0 0 1
    outer loop
      vertex 0.581924 1.14462 0.7
      vertex 1.06136 1.34557 0.7
      vertex 0.799332 1.68872 0.7
    endloop
  endfacet
  facet normal 0 0 1
    outer loop
      vertex 1.12686 0.676622 0.7
      vertex 0.610397 0.684557 0.7
      vertex 1.06134 0.461657 0.7
    endloop
  endfacet
  facet normal -0 0 1
    outer loop
      vertex 0.537292 0.49489 0.7
      vertex 1.06134 0.461657 0.7
      vertex 0.610397 0.684557 0.7
    endloop
  endfacet
  facet normal 0 0 1
    outer loop
      vertex 1.1487 0.903612 0.7
      vertex 0.581924 1.14462 0.7
      vertex 0.634766 0.87105 0.7
    endloop
  endfacet
  facet normal 0 0 1
    outer loop
      vertex 0.799332 1.68872 0.7
      vertex 0.423355 1.36247 0.7
      vertex 0.581924 1.14462 0.7
    endloop
  endfacet
  facet normal 0 0 1
    outer loop
      vertex 0.390472 1.90909 0.7
      vertex 0.423355 1.36247 0.7
      vertex 0.799332 1.68872 0.7
    endloop
  endfacet
  facet normal 0 0 1
    outer loop
      vertex 0.390472 1.90909 0.7
      vertex 0.180008 1.50496 0.7
      vertex 0.423355 1.36247 0.7
    endloop
  endfacet
  facet normal 0 0 1
    outer loop
      vertex -0.137375 1.98255 0.7
      vertex 0.180008 1.50496 0.7
      vertex 0.390472 1.90909 0.7
    endloop
  endfacet
  facet normal 0 0 1
    outer loop
      vertex 0.180008 1.50496 0.7
      vertex -0.137375 1.98255 0.7
      vertex -0.127258 1.55246 0.7
    endloop
  endfacet
  facet normal -0 0 1
    outer loop
      vertex -0.371552 1.96671 0.7
      vertex -0.127258 1.55246 0.7
      vertex -0.137375 1.98255 0.7
    endloop
  endfacet
  facet normal 0 0 1
    outer loop
      vertex -0.371552 1.96671 0.7
      vertex -0.374405 1.53156 0.7
      vertex -0.127258 1.55246 0.7
    endloop
  endfacet
  facet normal -0 0 1
    outer loop
      vertex -0.62854 1.91919 0.7
      vertex -0.374405 1.53156 0.7
      vertex -0.371552 1.96671 0.7
    endloop
  endfacet
  facet normal 0 0 1
    outer loop
      vertex -0.62854 1.91919 0.7
      vertex -0.634842 1.46887 0.7
      vertex -0.374405 1.53156 0.7
    endloop
  endfacet
  facet normal -0 0 1
    outer loop
      vertex -0.907013 1.84062 0.7
      vertex -0.634842 1.46887 0.7
      vertex -0.62854 1.91919 0.7
    endloop
  endfacet
  facet normal 0 0 1
    outer loop
      vertex -0.907013 1.84062 0.7
      vertex -0.911118 1.36376 0.7
      vertex -0.634842 1.46887 0.7
    endloop
  endfacet
  facet normal -0 0 1
    outer loop
      vertex -1.20575 1.73166 0.7
      vertex -0.911118 1.36376 0.7
      vertex -0.907013 1.84062 0.7
    endloop
  endfacet
  facet normal 0 0 1
    outer loop
      vertex -0.911118 1.36376 0.7
      vertex -1.20575 1.73166 0.7
      vertex -1.20575 1.21556 0.7
    endloop
  endfacet
  facet normal 0 0 1
    outer loop
      vertex 1.06134 0.461657 0.7
      vertex 0.537292 0.49489 0.7
      vertex 0.938248 0.234026 0.7
    endloop
  endfacet
  facet normal -0 0 1
    outer loop
      vertex 0.402802 0.282442 0.7
      vertex 0.938248 0.234026 0.7
      vertex 0.537292 0.49489 0.7
    endloop
  endfacet
  facet normal 0 0 1
    outer loop
      vertex 0.938248 0.234026 0.7
      vertex 0.402802 0.282442 0.7
      vertex 0.743637 -0.0309572 0.7
    endloop
  endfacet
  facet normal 0 0 1
    outer loop
      vertex 0.743637 -0.0309572 0.7
      vertex 0.402802 0.282442 0.7
      vertex 0.611359 -0.173734 0.7
    endloop
  endfacet
  facet normal -0 0 1
    outer loop
      vertex 0.194275 0.027544 0.7
      vertex 0.611359 -0.173734 0.7
      vertex 0.402802 0.282442 0.7
    endloop
  endfacet
  facet normal 0 0 1
    outer loop
      vertex 0.611359 -0.173734 0.7
      vertex 0.194275 0.027544 0.7
      vertex 0.341064 -0.455182 0.7
    endloop
  endfacet
  facet normal -0 0 1
    outer loop
      vertex -0.0281982 -0.209638 0.7
      vertex 0.341064 -0.455182 0.7
      vertex 0.194275 0.027544 0.7
    endloop
  endfacet
  facet normal 0 0 1
    outer loop
      vertex -0.0281982 -0.209638 0.7
      vertex -0.0677795 -0.875928 0.7
      vertex 0.341064 -0.455182 0.7
    endloop
  endfacet
  facet normal -0 0 1
    outer loop
      vertex -0.437393 -0.627286 0.7
      vertex -0.0677795 -0.875928 0.7
      vertex -0.0281982 -0.209638 0.7
    endloop
  endfacet
  facet normal 0 0 1
    outer loop
      vertex -0.437393 -0.627286 0.7
      vertex -0.615875 -1.4366 0.7
      vertex -0.0677795 -0.875928 0.7
    endloop
  endfacet
  facet normal 0 -0 1
    outer loop
      vertex -0.615875 -1.4366 0.7
      vertex -0.437393 -0.627286 0.7
      vertex -0.887085 -1.08355 0.7
    endloop
  endfacet
  facet normal -0 0 1
    outer loop
      vertex -0.615875 -1.4366 0.7
      vertex 1.16893 -1.86667 0.7
      vertex 1.16893 -1.4366 0.7
    endloop
  endfacet
  facet normal 0 0 1
    outer loop
      vertex -1.23106 -1.4366 0.7
      vertex -0.615875 -1.4366 0.7
      vertex -0.887085 -1.08355 0.7
    endloop
  endfacet
  facet normal 0 0 1
    outer loop
      vertex -1.23106 -1.86667 0.7
      vertex -0.615875 -1.4366 0.7
      vertex -1.23106 -1.4366 0.7
    endloop
  endfacet
  facet normal 0 0 1
    outer loop
      vertex -0.615875 -1.4366 0.7
      vertex -1.23106 -1.86667 0.7
      vertex 1.16893 -1.86667 0.7
    endloop
  endfacet
  facet normal 0 -1 0
    outer loop
      vertex -0.615875 -1.4366 0.7
      vertex 1.16893 -1.4366 3.7
      vertex -0.615875 -1.4366 3.7
    endloop
  endfacet
  facet normal 0 -1 -0
    outer loop
      vertex 1.16893 -1.4366 3.7
      vertex -0.615875 -1.4366 0.7
      vertex 1.16893 -1.4366 0.7
    endloop
  endfacet
  facet normal -0.715081 0.699041 0
    outer loop
      vertex -0.615875 -1.4366 0.7
      vertex -0.0677795 -0.875928 3.7
      vertex -0.0677795 -0.875928 0.7
    endloop
  endfacet
  facet normal -0.715081 0.699041 0
    outer loop
      vertex -0.0677795 -0.875928 3.7
      vertex -0.615875 -1.4366 0.7
      vertex -0.615875 -1.4366 3.7
    endloop
  endfacet
  facet normal -0.717178 0.69689 0
    outer loop
      vertex -0.0677795 -0.875928 0.7
      vertex 0.341064 -0.455182 3.7
      vertex 0.341064 -0.455182 0.7
    endloop
  endfacet
  facet normal -0.717178 0.69689 0
    outer loop
      vertex 0.341064 -0.455182 3.7
      vertex -0.0677795 -0.875928 0.7
      vertex -0.0677795 -0.875928 3.7
    endloop
  endfacet
  facet normal -0.721253 0.692672 0
    outer loop
      vertex 0.341064 -0.455182 0.7
      vertex 0.611359 -0.173734 3.7
      vertex 0.611359 -0.173734 0.7
    endloop
  endfacet
  facet normal -0.721253 0.692672 0
    outer loop
      vertex 0.611359 -0.173734 3.7
      vertex 0.341064 -0.455182 0.7
      vertex 0.341064 -0.455182 3.7
    endloop
  endfacet
  facet normal -0.733563 0.679622 0
    outer loop
      vertex 0.611359 -0.173734 0.7
      vertex 0.743637 -0.0309572 3.7
      vertex 0.743637 -0.0309572 0.7
    endloop
  endfacet
  facet normal -0.733563 0.679622 0
    outer loop
      vertex 0.743637 -0.0309572 3.7
      vertex 0.611359 -0.173734 0.7
      vertex 0.611359 -0.173734 3.7
    endloop
  endfacet
  facet normal -0.805984 0.591937 0
    outer loop
      vertex 0.743637 -0.0309572 0.7
      vertex 0.938248 0.234026 3.7
      vertex 0.938248 0.234026 0.7
    endloop
  endfacet
  facet normal -0.805984 0.591937 0
    outer loop
      vertex 0.938248 0.234026 3.7
      vertex 0.743637 -0.0309572 0.7
      vertex 0.743637 -0.0309572 3.7
    endloop
  endfacet
  facet normal -0.879629 0.475661 0
    outer loop
      vertex 0.938248 0.234026 0.7
      vertex 1.06134 0.461657 3.7
      vertex 1.06134 0.461657 0.7
    endloop
  endfacet
  facet normal -0.879629 0.475661 0
    outer loop
      vertex 1.06134 0.461657 3.7
      vertex 0.938248 0.234026 0.7
      vertex 0.938248 0.234026 3.7
    endloop
  endfacet
  facet normal -0.956555 0.291552 0
    outer loop
      vertex 1.06134 0.461657 0.7
      vertex 1.12686 0.676622 3.7
      vertex 1.12686 0.676622 0.7
    endloop
  endfacet
  facet normal -0.956555 0.291552 0
    outer loop
      vertex 1.12686 0.676622 3.7
      vertex 1.06134 0.461657 0.7
      vertex 1.06134 0.461657 3.7
    endloop
  endfacet
  facet normal -0.995403 0.0957734 0
    outer loop
      vertex 1.12686 0.676622 0.7
      vertex 1.1487 0.903612 3.7
      vertex 1.1487 0.903612 0.7
    endloop
  endfacet
  facet normal -0.995403 0.0957734 0
    outer loop
      vertex 1.1487 0.903612 3.7
      vertex 1.12686 0.676622 0.7
      vertex 1.12686 0.676622 3.7
    endloop
  endfacet
  facet normal -0.981027 -0.193871 0
    outer loop
      vertex 1.1487 0.903612 0.7
      vertex 1.06136 1.34557 3.7
      vertex 1.06136 1.34557 0.7
    endloop
  endfacet
  facet normal -0.981027 -0.193871 0
    outer loop
      vertex 1.06136 1.34557 3.7
      vertex 1.1487 0.903612 0.7
      vertex 1.1487 0.903612 3.7
    endloop
  endfacet
  facet normal -0.794783 -0.606893 0
    outer loop
      vertex 1.06136 1.34557 0.7
      vertex 0.799332 1.68872 3.7
      vertex 0.799332 1.68872 0.7
    endloop
  endfacet
  facet normal -0.794783 -0.606893 0
    outer loop
      vertex 0.799332 1.68872 3.7
      vertex 1.06136 1.34557 0.7
      vertex 1.06136 1.34557 3.7
    endloop
  endfacet
  facet normal -0.474458 -0.880278 0
    outer loop
      vertex 0.390472 1.90909 0.7
      vertex 0.799332 1.68872 3.7
      vertex 0.390472 1.90909 3.7
    endloop
  endfacet
  facet normal -0.474458 -0.880278 -0
    outer loop
      vertex 0.799332 1.68872 3.7
      vertex 0.390472 1.90909 0.7
      vertex 0.799332 1.68872 0.7
    endloop
  endfacet
  facet normal -0.137841 -0.990454 0
    outer loop
      vertex -0.137375 1.98255 0.7
      vertex 0.390472 1.90909 3.7
      vertex -0.137375 1.98255 3.7
    endloop
  endfacet
  facet normal -0.137841 -0.990454 -0
    outer loop
      vertex 0.390472 1.90909 3.7
      vertex -0.137375 1.98255 0.7
      vertex 0.390472 1.90909 0.7
    endloop
  endfacet
  facet normal 0.0674869 -0.99772 0
    outer loop
      vertex -0.371552 1.96671 0.7
      vertex -0.137375 1.98255 3.7
      vertex -0.371552 1.96671 3.7
    endloop
  endfacet
  facet normal 0.0674869 -0.99772 0
    outer loop
      vertex -0.137375 1.98255 3.7
      vertex -0.371552 1.96671 0.7
      vertex -0.137375 1.98255 0.7
    endloop
  endfacet
  facet normal 0.181829 -0.98333 0
    outer loop
      vertex -0.62854 1.91919 0.7
      vertex -0.371552 1.96671 3.7
      vertex -0.62854 1.91919 3.7
    endloop
  endfacet
  facet normal 0.181829 -0.98333 0
    outer loop
      vertex -0.371552 1.96671 3.7
      vertex -0.62854 1.91919 0.7
      vertex -0.371552 1.96671 0.7
    endloop
  endfacet
  facet normal 0.271544 -0.962426 0
    outer loop
      vertex -0.907013 1.84062 0.7
      vertex -0.62854 1.91919 3.7
      vertex -0.907013 1.84062 3.7
    endloop
  endfacet
  facet normal 0.271544 -0.962426 0
    outer loop
      vertex -0.62854 1.91919 3.7
      vertex -0.907013 1.84062 0.7
      vertex -0.62854 1.91919 0.7
    endloop
  endfacet
  facet normal 0.342655 -0.939461 0
    outer loop
      vertex -1.20575 1.73166 0.7
      vertex -0.907013 1.84062 3.7
      vertex -1.20575 1.73166 3.7
    endloop
  endfacet
  facet normal 0.342655 -0.939461 0
    outer loop
      vertex -0.907013 1.84062 3.7
      vertex -1.20575 1.73166 0.7
      vertex -0.907013 1.84062 0.7
    endloop
  endfacet
  facet normal 1 -0 0
    outer loop
      vertex -1.20575 1.21556 3.7
      vertex -1.20575 1.73166 0.7
      vertex -1.20575 1.73166 3.7
    endloop
  endfacet
  facet normal 1 0 0
    outer loop
      vertex -1.20575 1.73166 0.7
      vertex -1.20575 1.21556 3.7
      vertex -1.20575 1.21556 0.7
    endloop
  endfacet
  facet normal -0.449357 0.893352 0
    outer loop
      vertex -0.911118 1.36376 0.7
      vertex -1.20575 1.21556 3.7
      vertex -0.911118 1.36376 3.7
    endloop
  endfacet
  facet normal -0.449357 0.893352 0
    outer loop
      vertex -1.20575 1.21556 3.7
      vertex -0.911118 1.36376 0.7
      vertex -1.20575 1.21556 0.7
    endloop
  endfacet
  facet normal -0.355588 0.934643 0
    outer loop
      vertex -0.634842 1.46887 0.7
      vertex -0.911118 1.36376 3.7
      vertex -0.634842 1.46887 3.7
    endloop
  endfacet
  facet normal -0.355588 0.934643 0
    outer loop
      vertex -0.911118 1.36376 3.7
      vertex -0.634842 1.46887 0.7
      vertex -0.911118 1.36376 0.7
    endloop
  endfacet
  facet normal -0.234026 0.97223 0
    outer loop
      vertex -0.374405 1.53156 0.7
      vertex -0.634842 1.46887 3.7
      vertex -0.374405 1.53156 3.7
    endloop
  endfacet
  facet normal -0.234026 0.97223 0
    outer loop
      vertex -0.634842 1.46887 3.7
      vertex -0.374405 1.53156 0.7
      vertex -0.634842 1.46887 0.7
    endloop
  endfacet
  facet normal -0.0842643 0.996443 0
    outer loop
      vertex -0.127258 1.55246 0.7
      vertex -0.374405 1.53156 3.7
      vertex -0.127258 1.55246 3.7
    endloop
  endfacet
  facet normal -0.0842643 0.996443 0
    outer loop
      vertex -0.374405 1.53156 3.7
      vertex -0.127258 1.55246 0.7
      vertex -0.374405 1.53156 0.7
    endloop
  endfacet
  facet normal 0.152774 0.988261 -0
    outer loop
      vertex 0.180008 1.50496 0.7
      vertex -0.127258 1.55246 3.7
      vertex 0.180008 1.50496 3.7
    endloop
  endfacet
  facet normal 0.152774 0.988261 0
    outer loop
      vertex -0.127258 1.55246 3.7
      vertex 0.180008 1.50496 0.7
      vertex -0.127258 1.55246 0.7
    endloop
  endfacet
  facet normal 0.505293 0.862948 -0
    outer loop
      vertex 0.423355 1.36247 0.7
      vertex 0.180008 1.50496 3.7
      vertex 0.423355 1.36247 3.7
    endloop
  endfacet
  facet normal 0.505293 0.862948 0
    outer loop
      vertex 0.180008 1.50496 3.7
      vertex 0.423355 1.36247 0.7
      vertex 0.180008 1.50496 0.7
    endloop
  endfacet
  facet normal 0.808502 0.588494 0
    outer loop
      vertex 0.581924 1.14462 3.7
      vertex 0.423355 1.36247 0.7
      vertex 0.423355 1.36247 3.7
    endloop
  endfacet
  facet normal 0.808502 0.588494 0
    outer loop
      vertex 0.423355 1.36247 0.7
      vertex 0.581924 1.14462 3.7
      vertex 0.581924 1.14462 0.7
    endloop
  endfacet
  facet normal 0.981851 0.189652 0
    outer loop
      vertex 0.634766 0.87105 3.7
      vertex 0.581924 1.14462 0.7
      vertex 0.581924 1.14462 3.7
    endloop
  endfacet
  facet normal 0.981851 0.189652 0
    outer loop
      vertex 0.581924 1.14462 0.7
      vertex 0.634766 0.87105 3.7
      vertex 0.634766 0.87105 0.7
    endloop
  endfacet
  facet normal 0.99157 -0.129568 0
    outer loop
      vertex 0.610397 0.684557 3.7
      vertex 0.634766 0.87105 0.7
      vertex 0.634766 0.87105 3.7
    endloop
  endfacet
  facet normal 0.99157 -0.129568 0
    outer loop
      vertex 0.634766 0.87105 0.7
      vertex 0.610397 0.684557 3.7
      vertex 0.610397 0.684557 0.7
    endloop
  endfacet
  facet normal 0.933088 -0.359648 0
    outer loop
      vertex 0.537292 0.49489 3.7
      vertex 0.610397 0.684557 0.7
      vertex 0.610397 0.684557 3.7
    endloop
  endfacet
  facet normal 0.933088 -0.359648 0
    outer loop
      vertex 0.610397 0.684557 0.7
      vertex 0.537292 0.49489 3.7
      vertex 0.537292 0.49489 0.7
    endloop
  endfacet
  facet normal 0.844928 -0.534881 0
    outer loop
      vertex 0.402802 0.282442 3.7
      vertex 0.537292 0.49489 0.7
      vertex 0.537292 0.49489 3.7
    endloop
  endfacet
  facet normal 0.844928 -0.534881 0
    outer loop
      vertex 0.537292 0.49489 0.7
      vertex 0.402802 0.282442 3.7
      vertex 0.402802 0.282442 0.7
    endloop
  endfacet
  facet normal 0.773996 -0.633191 0
    outer loop
      vertex 0.194275 0.027544 3.7
      vertex 0.402802 0.282442 0.7
      vertex 0.402802 0.282442 3.7
    endloop
  endfacet
  facet normal 0.773996 -0.633191 0
    outer loop
      vertex 0.402802 0.282442 0.7
      vertex 0.194275 0.027544 3.7
      vertex 0.194275 0.027544 0.7
    endloop
  endfacet
  facet normal 0.729361 -0.684129 0
    outer loop
      vertex -0.0281982 -0.209638 3.7
      vertex 0.194275 0.027544 0.7
      vertex 0.194275 0.027544 3.7
    endloop
  endfacet
  facet normal 0.729361 -0.684129 0
    outer loop
      vertex 0.194275 0.027544 0.7
      vertex -0.0281982 -0.209638 3.7
      vertex -0.0281982 -0.209638 0.7
    endloop
  endfacet
  facet normal 0.714299 -0.699841 0
    outer loop
      vertex -0.437393 -0.627286 3.7
      vertex -0.0281982 -0.209638 0.7
      vertex -0.0281982 -0.209638 3.7
    endloop
  endfacet
  facet normal 0.714299 -0.699841 0
    outer loop
      vertex -0.0281982 -0.209638 0.7
      vertex -0.437393 -0.627286 3.7
      vertex -0.437393 -0.627286 0.7
    endloop
  endfacet
  facet normal 0.712218 -0.701959 0
    outer loop
      vertex -0.887085 -1.08355 3.7
      vertex -0.437393 -0.627286 0.7
      vertex -0.437393 -0.627286 3.7
    endloop
  endfacet
  facet normal 0.712218 -0.701959 0
    outer loop
      vertex -0.437393 -0.627286 0.7
      vertex -0.887085 -1.08355 3.7
      vertex -0.887085 -1.08355 0.7
    endloop
  endfacet
  facet normal 0.716252 -0.697841 0
    outer loop
      vertex -1.23106 -1.4366 3.7
      vertex -0.887085 -1.08355 0.7
      vertex -0.887085 -1.08355 3.7
    endloop
  endfacet
  facet normal 0.716252 -0.697841 0
    outer loop
      vertex -0.887085 -1.08355 0.7
      vertex -1.23106 -1.4366 3.7
      vertex -1.23106 -1.4366 0.7
    endloop
  endfacet
  facet normal 1 -0 0
    outer loop
      vertex -1.23106 -1.86667 3.7
      vertex -1.23106 -1.4366 0.7
      vertex -1.23106 -1.4366 3.7
    endloop
  endfacet
  facet normal 1 0 0
    outer loop
      vertex -1.23106 -1.4366 0.7
      vertex -1.23106 -1.86667 3.7
      vertex -1.23106 -1.86667 0.7
    endloop
  endfacet
  facet normal 0 1 -0
    outer loop
      vertex 1.16893 -1.86667 0.7
      vertex -1.23106 -1.86667 3.7
      vertex 1.16893 -1.86667 3.7
    endloop
  endfacet
  facet normal 0 1 0
    outer loop
      vertex -1.23106 -1.86667 3.7
      vertex 1.16893 -1.86667 0.7
      vertex -1.23106 -1.86667 0.7
    endloop
  endfacet
  facet normal -1 0 0
    outer loop
      vertex 1.16893 -1.86667 0.7
      vertex 1.16893 -1.4366 3.7
      vertex 1.16893 -1.4366 0.7
    endloop
  endfacet
  facet normal -1 -0 0
    outer loop
      vertex 1.16893 -1.4366 3.7
      vertex 1.16893 -1.86667 0.7
      vertex 1.16893 -1.86667 3.7
    endloop
  endfacet
  facet normal -1 0 0
    outer loop
      vertex 1.86667 -3.36 0.7
      vertex 1.86667 -2.36 3.7
      vertex 1.86667 -2.36 0.7
    endloop
  endfacet
  facet normal -1 -0 0
    outer loop
      vertex 1.86667 -2.36 3.7
      vertex 1.86667 -3.36 0.7
      vertex 1.86667 -3.36 3.7
    endloop
  endfacet
  facet normal -0 0 1
    outer loop
      vertex -1.86667 -2.36 0.7
      vertex 1.86667 -3.36 0.7
      vertex 1.86667 -2.36 0.7
    endloop
  endfacet
  facet normal 0 0 1
    outer loop
      vertex 1.86667 -3.36 0.7
      vertex -1.86667 -2.36 0.7
      vertex -1.86667 -3.36 0.7
    endloop
  endfacet
  facet normal 1 -0 0
    outer loop
      vertex -1.86667 -3.36 3.7
      vertex -1.86667 -2.36 0.7
      vertex -1.86667 -2.36 3.7
    endloop
  endfacet
  facet normal 1 0 0
    outer loop
      vertex -1.86667 -2.36 0.7
      vertex -1.86667 -3.36 3.7
      vertex -1.86667 -3.36 0.7
    endloop
  endfacet
  facet normal 0 -1 0
    outer loop
      vertex -1.86667 -2.36 0.7
      vertex 1.86667 -2.36 3.7
      vertex -1.86667 -2.36 3.7
    endloop
  endfacet
  facet normal 0 -1 -0
    outer loop
      vertex 1.86667 -2.36 3.7
      vertex -1.86667 -2.36 0.7
      vertex 1.86667 -2.36 0.7
    endloop
  endfacet
  facet normal 0 1 -0
    outer loop
      vertex 1.86667 -3.36 0.7
      vertex -1.86667 -3.36 3.7
      vertex 1.86667 -3.36 3.7
    endloop
  endfacet
  facet normal 0 1 0
    outer loop
      vertex -1.86667 -3.36 3.7
      vertex 1.86667 -3.36 0.7
      vertex -1.86667 -3.36 0.7
    endloop
  endfacet
  facet normal 0 1 -0
    outer loop
      vertex 2.66667 4.6188 0
      vertex -2.66667 4.6188 3.7
      vertex 2.66667 4.6188 3.7
    endloop
  endfacet
  facet normal 0 1 0
    outer loop
      vertex -2.66667 4.6188 3.7
      vertex 2.66667 4.6188 0
      vertex -2.66667 4.6188 0
    endloop
  endfacet
  facet normal 0.866026 0.499999 0
    outer loop
      vertex 5.33333 0 3.7
      vertex 2.66667 4.6188 0
      vertex 2.66667 4.6188 3.7
    endloop
  endfacet
  facet normal 0.866026 0.499999 0
    outer loop
      vertex 2.66667 4.6188 0
      vertex 5.33333 0 3.7
      vertex 5.33333 0 0
    endloop
  endfacet
  facet normal -0.866026 0.499999 0
    outer loop
      vertex -5.33333 0 0
      vertex -2.66667 4.6188 3.7
      vertex -2.66667 4.6188 0
    endloop
  endfacet
  facet normal -0.866026 0.499999 0
    outer loop
      vertex -2.66667 4.6188 3.7
      vertex -5.33333 0 0
      vertex -5.33333 0 3.7
    endloop
  endfacet
  facet normal 0.866026 -0.499999 0
    outer loop
      vertex 2.66667 -4.6188 3.7
      vertex 5.33333 0 0
      vertex 5.33333 0 3.7
    endloop
  endfacet
  facet normal 0.866026 -0.499999 0
    outer loop
      vertex 5.33333 0 0
      vertex 2.66667 -4.6188 3.7
      vertex 2.66667 -4.6188 0
    endloop
  endfacet
  facet normal -0.866026 -0.499999 0
    outer loop
      vertex -2.66667 -4.6188 0
      vertex -5.33333 0 3.7
      vertex -5.33333 0 0
    endloop
  endfacet
  facet normal -0.866026 -0.499999 0
    outer loop
      vertex -5.33333 0 3.7
      vertex -2.66667 -4.6188 0
      vertex -2.66667 -4.6188 3.7
    endloop
  endfacet
  facet normal 0 -1 0
    outer loop
      vertex -2.66667 -4.6188 0
      vertex 2.66667 -4.6188 3.7
      vertex -2.66667 -4.6188 3.7
    endloop
  endfacet
  facet normal 0 -1 -0
    outer loop
      vertex 2.66667 -4.6188 3.7
      vertex -2.66667 -4.6188 0
      vertex 2.66667 -4.6188 0
    endloop
  endfacet
  facet normal 0 0 -1
    outer loop
      vertex 2.66667 -4.6188 0
      vertex 2.66667 4.6188 0
      vertex 5.33333 0 0
    endloop
  endfacet
  facet normal 0 0 -1
    outer loop
      vertex -2.66667 -4.6188 0
      vertex 2.66667 4.6188 0
      vertex 2.66667 -4.6188 0
    endloop
  endfacet
  facet normal 0 0 -1
    outer loop
      vertex -2.66667 -4.6188 0
      vertex -2.66667 4.6188 0
      vertex 2.66667 4.6188 0
    endloop
  endfacet
  facet normal 0 -0 -1
    outer loop
      vertex -2.66667 4.6188 0
      vertex -2.66667 -4.6188 0
      vertex -5.33333 0 0
    endloop
  endfacet
  facet normal -0 0 1
    outer loop
      vertex 1.06136 1.34557 3.7
      vertex 5.33333 0 3.7
      vertex 2.66667 4.6188 3.7
    endloop
  endfacet
  facet normal 0 0 1
    outer loop
      vertex 5.33333 0 3.7
      vertex 1.86667 -2.36 3.7
      vertex 2.66667 -4.6188 3.7
    endloop
  endfacet
  facet normal -0 0 1
    outer loop
      vertex 1.12686 0.676622 3.7
      vertex 5.33333 0 3.7
      vertex 1.1487 0.903612 3.7
    endloop
  endfacet
  facet normal -0 0 1
    outer loop
      vertex 1.06134 0.461657 3.7
      vertex 5.33333 0 3.7
      vertex 1.12686 0.676622 3.7
    endloop
  endfacet
  facet normal 0 0 1
    outer loop
      vertex 5.33333 0 3.7
      vertex 1.06136 1.34557 3.7
      vertex 1.1487 0.903612 3.7
    endloop
  endfacet
  facet normal 0 0 1
    outer loop
      vertex 2.66667 4.6188 3.7
      vertex 0.799332 1.68872 3.7
      vertex 1.06136 1.34557 3.7
    endloop
  endfacet
  facet normal 0 0 1
    outer loop
      vertex 2.66667 4.6188 3.7
      vertex 0.390472 1.90909 3.7
      vertex 0.799332 1.68872 3.7
    endloop
  endfacet
  facet normal 0 0 1
    outer loop
      vertex 2.66667 4.6188 3.7
      vertex -0.137375 1.98255 3.7
      vertex 0.390472 1.90909 3.7
    endloop
  endfacet
  facet normal -0 0 1
    outer loop
      vertex -2.66667 4.6188 3.7
      vertex -0.137375 1.98255 3.7
      vertex 2.66667 4.6188 3.7
    endloop
  endfacet
  facet normal 0 0 1
    outer loop
      vertex -0.137375 1.98255 3.7
      vertex -2.66667 4.6188 3.7
      vertex -0.371552 1.96671 3.7
    endloop
  endfacet
  facet normal 0 0 1
    outer loop
      vertex -0.371552 1.96671 3.7
      vertex -2.66667 4.6188 3.7
      vertex -0.62854 1.91919 3.7
    endloop
  endfacet
  facet normal 0 0 1
    outer loop
      vertex -0.62854 1.91919 3.7
      vertex -2.66667 4.6188 3.7
      vertex -0.907013 1.84062 3.7
    endloop
  endfacet
  facet normal 0 0 1
    outer loop
      vertex -5.33333 0 3.7
      vertex -1.20575 1.21556 3.7
      vertex -1.20575 1.73166 3.7
    endloop
  endfacet
  facet normal 0 0 1
    outer loop
      vertex -1.23106 -1.4366 3.7
      vertex -1.86667 -2.36 3.7
      vertex -1.23106 -1.86667 3.7
    endloop
  endfacet
  facet normal 0 0 1
    outer loop
      vertex -1.20575 1.21556 3.7
      vertex -5.33333 0 3.7
      vertex -1.23106 -1.4366 3.7
    endloop
  endfacet
  facet normal 0 0 1
    outer loop
      vertex -1.23106 -1.4366 3.7
      vertex -5.33333 0 3.7
      vertex -1.86667 -2.36 3.7
    endloop
  endfacet
  facet normal 0 0 1
    outer loop
      vertex -5.33333 0 3.7
      vertex -1.20575 1.73166 3.7
      vertex -2.66667 4.6188 3.7
    endloop
  endfacet
  facet normal 0 0 1
    outer loop
      vertex -0.907013 1.84062 3.7
      vertex -2.66667 4.6188 3.7
      vertex -1.20575 1.73166 3.7
    endloop
  endfacet
  facet normal -0 0 1
    outer loop
      vertex 1.86667 -3.36 3.7
      vertex 2.66667 -4.6188 3.7
      vertex 1.86667 -2.36 3.7
    endloop
  endfacet
  facet normal -0 0 1
    outer loop
      vertex -1.86667 -3.36 3.7
      vertex 2.66667 -4.6188 3.7
      vertex 1.86667 -3.36 3.7
    endloop
  endfacet
  facet normal 0 0 1
    outer loop
      vertex -1.86667 -3.36 3.7
      vertex -2.66667 -4.6188 3.7
      vertex 2.66667 -4.6188 3.7
    endloop
  endfacet
  facet normal 0 -0 1
    outer loop
      vertex -2.66667 -4.6188 3.7
      vertex -1.86667 -2.36 3.7
      vertex -5.33333 0 3.7
    endloop
  endfacet
  facet normal 0 0 1
    outer loop
      vertex -1.86667 -2.36 3.7
      vertex -2.66667 -4.6188 3.7
      vertex -1.86667 -3.36 3.7
    endloop
  endfacet
  facet normal -0 0 1
    outer loop
      vertex 1.16893 -1.86667 3.7
      vertex 1.86667 -2.36 3.7
      vertex 1.16893 -1.4366 3.7
    endloop
  endfacet
  facet normal 0 0 1
    outer loop
      vertex -1.86667 -2.36 3.7
      vertex 1.16893 -1.86667 3.7
      vertex -1.23106 -1.86667 3.7
    endloop
  endfacet
  facet normal 0 0 1
    outer loop
      vertex 1.16893 -1.86667 3.7
      vertex -1.86667 -2.36 3.7
      vertex 1.86667 -2.36 3.7
    endloop
  endfacet
  facet normal 0 -0 1
    outer loop
      vertex 1.16893 -1.4366 3.7
      vertex 5.33333 0 3.7
      vertex 1.06134 0.461657 3.7
    endloop
  endfacet
  facet normal 0 0 1
    outer loop
      vertex 5.33333 0 3.7
      vertex 1.16893 -1.4366 3.7
      vertex 1.86667 -2.36 3.7
    endloop
  endfacet
  facet normal -0 0 1
    outer loop
      vertex 0.938248 0.234026 3.7
      vertex 1.16893 -1.4366 3.7
      vertex 1.06134 0.461657 3.7
    endloop
  endfacet
  facet normal -0 0 1
    outer loop
      vertex 0.743637 -0.0309572 3.7
      vertex 1.16893 -1.4366 3.7
      vertex 0.938248 0.234026 3.7
    endloop
  endfacet
  facet normal -0 0 1
    outer loop
      vertex 0.611359 -0.173734 3.7
      vertex 1.16893 -1.4366 3.7
      vertex 0.743637 -0.0309572 3.7
    endloop
  endfacet
  facet normal -0 0 1
    outer loop
      vertex 0.341064 -0.455182 3.7
      vertex 1.16893 -1.4366 3.7
      vertex 0.611359 -0.173734 3.7
    endloop
  endfacet
  facet normal -0 0 1
    outer loop
      vertex -0.0677795 -0.875928 3.7
      vertex 1.16893 -1.4366 3.7
      vertex 0.341064 -0.455182 3.7
    endloop
  endfacet
  facet normal 0 0 1
    outer loop
      vertex 1.16893 -1.4366 3.7
      vertex -0.0677795 -0.875928 3.7
      vertex -0.615875 -1.4366 3.7
    endloop
  endfacet
  facet normal 0 0 1
    outer loop
      vertex 0.423355 1.36247 3.7
      vertex 0.634766 0.87105 3.7
      vertex 0.581924 1.14462 3.7
    endloop
  endfacet
  facet normal 0 0 1
    outer loop
      vertex 0.180008 1.50496 3.7
      vertex 0.634766 0.87105 3.7
      vertex 0.423355 1.36247 3.7
    endloop
  endfacet
  facet normal 0 0 1
    outer loop
      vertex 0.634766 0.87105 3.7
      vertex 0.180008 1.50496 3.7
      vertex 0.610397 0.684557 3.7
    endloop
  endfacet
  facet normal 0 0 1
    outer loop
      vertex 0.610397 0.684557 3.7
      vertex 0.180008 1.50496 3.7
      vertex 0.537292 0.49489 3.7
    endloop
  endfacet
  facet normal 0 0 1
    outer loop
      vertex -0.127258 1.55246 3.7
      vertex 0.537292 0.49489 3.7
      vertex 0.180008 1.50496 3.7
    endloop
  endfacet
  facet normal 0 0 1
    outer loop
      vertex 0.537292 0.49489 3.7
      vertex -0.127258 1.55246 3.7
      vertex 0.402802 0.282442 3.7
    endloop
  endfacet
  facet normal -0 0 1
    outer loop
      vertex -0.374405 1.53156 3.7
      vertex 0.402802 0.282442 3.7
      vertex -0.127258 1.55246 3.7
    endloop
  endfacet
  facet normal -0 0 1
    outer loop
      vertex -0.634842 1.46887 3.7
      vertex 0.402802 0.282442 3.7
      vertex -0.374405 1.53156 3.7
    endloop
  endfacet
  facet normal 0 0 1
    outer loop
      vertex 0.402802 0.282442 3.7
      vertex -0.634842 1.46887 3.7
      vertex 0.194275 0.027544 3.7
    endloop
  endfacet
  facet normal -0 0 1
    outer loop
      vertex -0.911118 1.36376 3.7
      vertex 0.194275 0.027544 3.7
      vertex -0.634842 1.46887 3.7
    endloop
  endfacet
  facet normal 0 0 1
    outer loop
      vertex 0.194275 0.027544 3.7
      vertex -0.911118 1.36376 3.7
      vertex -0.0281982 -0.209638 3.7
    endloop
  endfacet
  facet normal -0 0 1
    outer loop
      vertex -1.20575 1.21556 3.7
      vertex -0.0281982 -0.209638 3.7
      vertex -0.911118 1.36376 3.7
    endloop
  endfacet
  facet normal 0 0 1
    outer loop
      vertex -0.0281982 -0.209638 3.7
      vertex -1.20575 1.21556 3.7
      vertex -0.437393 -0.627286 3.7
    endloop
  endfacet
  facet normal 0 0 1
    outer loop
      vertex -0.437393 -0.627286 3.7
      vertex -1.20575 1.21556 3.7
      vertex -0.887085 -1.08355 3.7
    endloop
  endfacet
  facet normal 0 0 1
    outer loop
      vertex -0.887085 -1.08355 3.7
      vertex -1.20575 1.21556 3.7
      vertex -1.23106 -1.4366 3.7
    endloop
  endfacet
endsolid OpenSCAD_Model
