solid OpenSCAD_Model
  facet normal -0 0 1
    outer loop
      vertex 4.58255 0.938727 3.2
      vertex 5.59235 0.0371618 3.2
      vertex 5.52179 1.1497 3.2
    endloop
  endfacet
  facet normal -0 0 1
    outer loop
      vertex 4.45717 1.67579 3.2
      vertex 5.52179 1.1497 3.2
      vertex 5.31015 2.07098 3.2
    endloop
  endfacet
  facet normal 0 0 1
    outer loop
      vertex 4.58255 -0.861732 3.2
      vertex 5.59235 0.0371618 3.2
      vertex 4.62434 0.0371618 3.2
    endloop
  endfacet
  facet normal -0 0 1
    outer loop
      vertex 4.24818 2.24833 3.2
      vertex 5.31015 2.07098 3.2
      vertex 4.9574 2.801 3.2
    endloop
  endfacet
  facet normal 0 0 1
    outer loop
      vertex 5.59235 0.0371618 3.2
      vertex 4.58255 -0.861732 3.2
      vertex 5.52179 -1.07272 3.2
    endloop
  endfacet
  facet normal 0 0 1
    outer loop
      vertex 4.45717 -1.59722 3.2
      vertex 5.52179 -1.07272 3.2
      vertex 4.58255 -0.861732 3.2
    endloop
  endfacet
  facet normal 0 0 1
    outer loop
      vertex 5.59235 0.0371618 3.2
      vertex 4.58255 0.938727 3.2
      vertex 4.62434 0.0371618 3.2
    endloop
  endfacet
  facet normal 0 0 1
    outer loop
      vertex 3.95561 2.65693 3.2
      vertex 4.9574 2.801 3.2
      vertex 4.47101 3.32972 3.2
    endloop
  endfacet
  facet normal 0 0 1
    outer loop
      vertex 5.52179 1.1497 3.2
      vertex 4.45717 1.67579 3.2
      vertex 4.58255 0.938727 3.2
    endloop
  endfacet
  facet normal 0 0 1
    outer loop
      vertex 5.31015 2.07098 3.2
      vertex 4.24818 2.24833 3.2
      vertex 4.45717 1.67579 3.2
    endloop
  endfacet
  facet normal 0 0 1
    outer loop
      vertex 4.9574 2.801 3.2
      vertex 3.95561 2.65693 3.2
      vertex 4.24818 2.24833 3.2
    endloop
  endfacet
  facet normal 0 0 1
    outer loop
      vertex 3.57944 2.90211 3.2
      vertex 4.47101 3.32972 3.2
      vertex 3.85843 3.64693 3.2
    endloop
  endfacet
  facet normal 0 0 1
    outer loop
      vertex 4.47101 3.32972 3.2
      vertex 3.57944 2.90211 3.2
      vertex 3.95561 2.65693 3.2
    endloop
  endfacet
  facet normal 0 0 1
    outer loop
      vertex 3.11964 3.75268 3.2
      vertex 3.57944 2.90211 3.2
      vertex 3.85843 3.64693 3.2
    endloop
  endfacet
  facet normal 0 0 1
    outer loop
      vertex 3.11964 3.75268 3.2
      vertex 3.11964 2.98382 3.2
      vertex 3.57944 2.90211 3.2
    endloop
  endfacet
  facet normal 0 0 1
    outer loop
      vertex 3.11964 3.75268 3.2
      vertex 2.66252 2.90211 3.2
      vertex 3.11964 2.98382 3.2
    endloop
  endfacet
  facet normal -0 0 1
    outer loop
      vertex 2.38086 3.64693 3.2
      vertex 2.66252 2.90211 3.2
      vertex 3.11964 3.75268 3.2
    endloop
  endfacet
  facet normal -0 0 1
    outer loop
      vertex 1.76828 3.32972 3.2
      vertex 2.66252 2.90211 3.2
      vertex 2.38086 3.64693 3.2
    endloop
  endfacet
  facet normal 0 0 1
    outer loop
      vertex 2.66252 2.90211 3.2
      vertex 1.76828 3.32972 3.2
      vertex 2.28795 2.65693 3.2
    endloop
  endfacet
  facet normal -0 0 1
    outer loop
      vertex 1.28189 2.801 3.2
      vertex 2.28795 2.65693 3.2
      vertex 1.76828 3.32972 3.2
    endloop
  endfacet
  facet normal 0 0 1
    outer loop
      vertex 2.28795 2.65693 3.2
      vertex 1.28189 2.801 3.2
      vertex 1.9959 2.24833 3.2
    endloop
  endfacet
  facet normal 0 0 1
    outer loop
      vertex 0.929138 2.07098 3.2
      vertex 1.9959 2.24833 3.2
      vertex 1.28189 2.801 3.2
    endloop
  endfacet
  facet normal 0 0 1
    outer loop
      vertex 1.9959 2.24833 3.2
      vertex 0.929138 2.07098 3.2
      vertex 1.78693 1.67579 3.2
    endloop
  endfacet
  facet normal 0 0 1
    outer loop
      vertex 0.717499 1.1497 3.2
      vertex 1.78693 1.67579 3.2
      vertex 0.929138 2.07098 3.2
    endloop
  endfacet
  facet normal 0 0 1
    outer loop
      vertex 5.52179 -1.07272 3.2
      vertex 4.45717 -1.59722 3.2
      vertex 5.31015 -1.99241 3.2
    endloop
  endfacet
  facet normal 0 0 1
    outer loop
      vertex 4.24818 -2.16926 3.2
      vertex 5.31015 -1.99241 3.2
      vertex 4.45717 -1.59722 3.2
    endloop
  endfacet
  facet normal 0 0 1
    outer loop
      vertex 5.31015 -1.99241 3.2
      vertex 4.24818 -2.16926 3.2
      vertex 4.9574 -2.72195 3.2
    endloop
  endfacet
  facet normal -0 0 1
    outer loop
      vertex 3.95561 -2.57783 3.2
      vertex 4.9574 -2.72195 3.2
      vertex 4.24818 -2.16926 3.2
    endloop
  endfacet
  facet normal 0 0 1
    outer loop
      vertex 4.9574 -2.72195 3.2
      vertex 3.95561 -2.57783 3.2
      vertex 4.47101 -3.25062 3.2
    endloop
  endfacet
  facet normal -0 0 1
    outer loop
      vertex 3.57944 -2.82298 3.2
      vertex 4.47101 -3.25062 3.2
      vertex 3.95561 -2.57783 3.2
    endloop
  endfacet
  facet normal 0 0 1
    outer loop
      vertex 4.47101 -3.25062 3.2
      vertex 3.57944 -2.82298 3.2
      vertex 3.85843 -3.5678 3.2
    endloop
  endfacet
  facet normal 0 0 1
    outer loop
      vertex 3.11964 -3.67353 3.2
      vertex 3.57944 -2.82298 3.2
      vertex 3.11964 -2.90469 3.2
    endloop
  endfacet
  facet normal 0 0 1
    outer loop
      vertex 3.57944 -2.82298 3.2
      vertex 3.11964 -3.67353 3.2
      vertex 3.85843 -3.5678 3.2
    endloop
  endfacet
  facet normal 0 0 1
    outer loop
      vertex 2.66252 -2.82298 3.2
      vertex 3.11964 -3.67353 3.2
      vertex 3.11964 -2.90469 3.2
    endloop
  endfacet
  facet normal 0 0 1
    outer loop
      vertex 2.66252 -2.82298 3.2
      vertex 2.38086 -3.5678 3.2
      vertex 3.11964 -3.67353 3.2
    endloop
  endfacet
  facet normal 0 0 1
    outer loop
      vertex 1.76828 -3.25062 3.2
      vertex 2.66252 -2.82298 3.2
      vertex 2.28795 -2.57783 3.2
    endloop
  endfacet
  facet normal 0 0 1
    outer loop
      vertex 1.28189 -2.72195 3.2
      vertex 2.28795 -2.57783 3.2
      vertex 1.9959 -2.16926 3.2
    endloop
  endfacet
  facet normal -0 0 1
    outer loop
      vertex 0.929138 -1.99241 3.2
      vertex 1.9959 -2.16926 3.2
      vertex 1.78693 -1.59722 3.2
    endloop
  endfacet
  facet normal 0 0 1
    outer loop
      vertex 2.66252 -2.82298 3.2
      vertex 1.76828 -3.25062 3.2
      vertex 2.38086 -3.5678 3.2
    endloop
  endfacet
  facet normal -0 0 1
    outer loop
      vertex 0.717499 -1.07272 3.2
      vertex 1.78693 -1.59722 3.2
      vertex 1.66154 -0.861732 3.2
    endloop
  endfacet
  facet normal -0 0 1
    outer loop
      vertex 0.646942 0.0371618 3.2
      vertex 1.66154 -0.861732 3.2
      vertex 1.61974 0.0371618 3.2
    endloop
  endfacet
  facet normal 0 0 1
    outer loop
      vertex 1.78693 1.67579 3.2
      vertex 0.717499 1.1497 3.2
      vertex 1.66154 0.938727 3.2
    endloop
  endfacet
  facet normal 0 0 1
    outer loop
      vertex 1.66154 -0.861732 3.2
      vertex 0.646942 0.0371618 3.2
      vertex 0.717499 -1.07272 3.2
    endloop
  endfacet
  facet normal 0 0 1
    outer loop
      vertex 0.646942 0.0371618 3.2
      vertex 1.66154 0.938727 3.2
      vertex 0.717499 1.1497 3.2
    endloop
  endfacet
  facet normal 0 0 1
    outer loop
      vertex 1.78693 -1.59722 3.2
      vertex 0.717499 -1.07272 3.2
      vertex 0.929138 -1.99241 3.2
    endloop
  endfacet
  facet normal 0 0 1
    outer loop
      vertex 1.66154 0.938727 3.2
      vertex 0.646942 0.0371618 3.2
      vertex 1.61974 0.0371618 3.2
    endloop
  endfacet
  facet normal 0 0 1
    outer loop
      vertex 1.9959 -2.16926 3.2
      vertex 0.929138 -1.99241 3.2
      vertex 1.28189 -2.72195 3.2
    endloop
  endfacet
  facet normal 0 0 1
    outer loop
      vertex 2.28795 -2.57783 3.2
      vertex 1.28189 -2.72195 3.2
      vertex 1.76828 -3.25062 3.2
    endloop
  endfacet
  facet normal 0 0 1
    outer loop
      vertex -2.34111 3.62151 3.2
      vertex -3.29948 2.7396 3.2
      vertex -2.34111 -2.71926 3.2
    endloop
  endfacet
  facet normal -0 0 1
    outer loop
      vertex -3.3091 3.62151 3.2
      vertex -3.29948 2.7396 3.2
      vertex -2.34111 3.62151 3.2
    endloop
  endfacet
  facet normal -0 0 1
    outer loop
      vertex -5.01987 3.27779 3.2
      vertex -3.29948 2.7396 3.2
      vertex -3.3091 3.62151 3.2
    endloop
  endfacet
  facet normal 0 0 1
    outer loop
      vertex -3.29948 2.7396 3.2
      vertex -5.01987 3.27779 3.2
      vertex -5.01987 2.39588 3.2
    endloop
  endfacet
  facet normal -0 0 1
    outer loop
      vertex -2.34111 -2.71926 3.2
      vertex -0.75972 -3.53333 3.2
      vertex -0.75972 -2.71926 3.2
    endloop
  endfacet
  facet normal 0 0 1
    outer loop
      vertex -3.29948 -2.71926 3.2
      vertex -2.34111 -2.71926 3.2
      vertex -3.29948 2.7396 3.2
    endloop
  endfacet
  facet normal -0 0 1
    outer loop
      vertex -3.29948 -2.71926 3.2
      vertex -0.75972 -3.53333 3.2
      vertex -2.34111 -2.71926 3.2
    endloop
  endfacet
  facet normal 0 0 1
    outer loop
      vertex -4.88094 -3.53333 3.2
      vertex -3.29948 -2.71926 3.2
      vertex -4.88094 -2.71926 3.2
    endloop
  endfacet
  facet normal 0 0 1
    outer loop
      vertex -3.29948 -2.71926 3.2
      vertex -4.88094 -3.53333 3.2
      vertex -0.75972 -3.53333 3.2
    endloop
  endfacet
  facet normal -0.459798 0.888023 0
    outer loop
      vertex 4.47101 -3.25062 3.2
      vertex 3.85843 -3.5678 6.2
      vertex 4.47101 -3.25062 6.2
    endloop
  endfacet
  facet normal -0.459798 0.888023 0
    outer loop
      vertex 3.85843 -3.5678 6.2
      vertex 4.47101 -3.25062 3.2
      vertex 3.85843 -3.5678 3.2
    endloop
  endfacet
  facet normal -0.735922 0.677067 0
    outer loop
      vertex 4.47101 -3.25062 3.2
      vertex 4.9574 -2.72195 6.2
      vertex 4.9574 -2.72195 3.2
    endloop
  endfacet
  facet normal -0.735922 0.677067 0
    outer loop
      vertex 4.9574 -2.72195 6.2
      vertex 4.47101 -3.25062 3.2
      vertex 4.47101 -3.25062 6.2
    endloop
  endfacet
  facet normal -0.900282 0.435308 0
    outer loop
      vertex 4.9574 -2.72195 3.2
      vertex 5.31015 -1.99241 6.2
      vertex 5.31015 -1.99241 3.2
    endloop
  endfacet
  facet normal -0.900282 0.435308 0
    outer loop
      vertex 5.31015 -1.99241 6.2
      vertex 4.9574 -2.72195 3.2
      vertex 4.9574 -2.72195 6.2
    endloop
  endfacet
  facet normal -0.974529 0.22426 0
    outer loop
      vertex 5.31015 -1.99241 3.2
      vertex 5.52179 -1.07272 6.2
      vertex 5.52179 -1.07272 3.2
    endloop
  endfacet
  facet normal -0.974529 0.22426 0
    outer loop
      vertex 5.52179 -1.07272 6.2
      vertex 5.31015 -1.99241 3.2
      vertex 5.31015 -1.99241 6.2
    endloop
  endfacet
  facet normal -0.997985 0.0634463 0
    outer loop
      vertex 5.52179 -1.07272 3.2
      vertex 5.59235 0.0371618 6.2
      vertex 5.59235 0.0371618 3.2
    endloop
  endfacet
  facet normal -0.997985 0.0634463 0
    outer loop
      vertex 5.59235 0.0371618 6.2
      vertex 5.52179 -1.07272 3.2
      vertex 5.52179 -1.07272 6.2
    endloop
  endfacet
  facet normal -0.997995 -0.0632954 0
    outer loop
      vertex 5.59235 0.0371618 3.2
      vertex 5.52179 1.1497 6.2
      vertex 5.52179 1.1497 3.2
    endloop
  endfacet
  facet normal -0.997995 -0.0632954 0
    outer loop
      vertex 5.52179 1.1497 6.2
      vertex 5.59235 0.0371618 3.2
      vertex 5.59235 0.0371618 6.2
    endloop
  endfacet
  facet normal -0.974614 -0.223892 0
    outer loop
      vertex 5.52179 1.1497 3.2
      vertex 5.31015 2.07098 6.2
      vertex 5.31015 2.07098 3.2
    endloop
  endfacet
  facet normal -0.974614 -0.223892 0
    outer loop
      vertex 5.31015 2.07098 6.2
      vertex 5.52179 1.1497 3.2
      vertex 5.52179 1.1497 6.2
    endloop
  endfacet
  facet normal -0.900394 -0.435076 0
    outer loop
      vertex 5.31015 2.07098 3.2
      vertex 4.9574 2.801 6.2
      vertex 4.9574 2.801 3.2
    endloop
  endfacet
  facet normal -0.900394 -0.435076 0
    outer loop
      vertex 4.9574 2.801 6.2
      vertex 5.31015 2.07098 3.2
      vertex 5.31015 2.07098 6.2
    endloop
  endfacet
  facet normal -0.735953 -0.677032 0
    outer loop
      vertex 4.9574 2.801 3.2
      vertex 4.47101 3.32972 6.2
      vertex 4.47101 3.32972 3.2
    endloop
  endfacet
  facet normal -0.735953 -0.677032 0
    outer loop
      vertex 4.47101 3.32972 6.2
      vertex 4.9574 2.801 3.2
      vertex 4.9574 2.801 6.2
    endloop
  endfacet
  facet normal -0.459833 -0.888006 0
    outer loop
      vertex 3.85843 3.64693 3.2
      vertex 4.47101 3.32972 6.2
      vertex 3.85843 3.64693 6.2
    endloop
  endfacet
  facet normal -0.459833 -0.888006 -0
    outer loop
      vertex 4.47101 3.32972 6.2
      vertex 3.85843 3.64693 3.2
      vertex 4.47101 3.32972 3.2
    endloop
  endfacet
  facet normal -0.141695 -0.98991 0
    outer loop
      vertex 3.11964 3.75268 3.2
      vertex 3.85843 3.64693 6.2
      vertex 3.11964 3.75268 6.2
    endloop
  endfacet
  facet normal -0.141695 -0.98991 -0
    outer loop
      vertex 3.85843 3.64693 6.2
      vertex 3.11964 3.75268 3.2
      vertex 3.85843 3.64693 3.2
    endloop
  endfacet
  facet normal 0.141697 -0.98991 0
    outer loop
      vertex 2.38086 3.64693 3.2
      vertex 3.11964 3.75268 6.2
      vertex 2.38086 3.64693 6.2
    endloop
  endfacet
  facet normal 0.141697 -0.98991 0
    outer loop
      vertex 3.11964 3.75268 6.2
      vertex 2.38086 3.64693 3.2
      vertex 3.11964 3.75268 3.2
    endloop
  endfacet
  facet normal 0.459833 -0.888006 0
    outer loop
      vertex 1.76828 3.32972 3.2
      vertex 2.38086 3.64693 6.2
      vertex 1.76828 3.32972 6.2
    endloop
  endfacet
  facet normal 0.459833 -0.888006 0
    outer loop
      vertex 2.38086 3.64693 6.2
      vertex 1.76828 3.32972 3.2
      vertex 2.38086 3.64693 3.2
    endloop
  endfacet
  facet normal 0.735953 -0.677032 0
    outer loop
      vertex 1.28189 2.801 6.2
      vertex 1.76828 3.32972 3.2
      vertex 1.76828 3.32972 6.2
    endloop
  endfacet
  facet normal 0.735953 -0.677032 0
    outer loop
      vertex 1.76828 3.32972 3.2
      vertex 1.28189 2.801 6.2
      vertex 1.28189 2.801 3.2
    endloop
  endfacet
  facet normal 0.900393 -0.435078 0
    outer loop
      vertex 0.929138 2.07098 6.2
      vertex 1.28189 2.801 3.2
      vertex 1.28189 2.801 6.2
    endloop
  endfacet
  facet normal 0.900393 -0.435078 0
    outer loop
      vertex 1.28189 2.801 3.2
      vertex 0.929138 2.07098 6.2
      vertex 0.929138 2.07098 3.2
    endloop
  endfacet
  facet normal 0.974614 -0.223891 0
    outer loop
      vertex 0.717499 1.1497 6.2
      vertex 0.929138 2.07098 3.2
      vertex 0.929138 2.07098 6.2
    endloop
  endfacet
  facet normal 0.974614 -0.223891 0
    outer loop
      vertex 0.929138 2.07098 3.2
      vertex 0.717499 1.1497 6.2
      vertex 0.717499 1.1497 3.2
    endloop
  endfacet
  facet normal 0.997995 -0.0632927 0
    outer loop
      vertex 0.646942 0.0371618 6.2
      vertex 0.717499 1.1497 3.2
      vertex 0.717499 1.1497 6.2
    endloop
  endfacet
  facet normal 0.997995 -0.0632927 0
    outer loop
      vertex 0.717499 1.1497 3.2
      vertex 0.646942 0.0371618 6.2
      vertex 0.646942 0.0371618 3.2
    endloop
  endfacet
  facet normal 0.997985 0.0634436 0
    outer loop
      vertex 0.717499 -1.07272 6.2
      vertex 0.646942 0.0371618 3.2
      vertex 0.646942 0.0371618 6.2
    endloop
  endfacet
  facet normal 0.997985 0.0634436 0
    outer loop
      vertex 0.646942 0.0371618 3.2
      vertex 0.717499 -1.07272 6.2
      vertex 0.717499 -1.07272 3.2
    endloop
  endfacet
  facet normal 0.97453 0.224259 0
    outer loop
      vertex 0.929138 -1.99241 6.2
      vertex 0.717499 -1.07272 3.2
      vertex 0.717499 -1.07272 6.2
    endloop
  endfacet
  facet normal 0.97453 0.224259 0
    outer loop
      vertex 0.717499 -1.07272 3.2
      vertex 0.929138 -1.99241 6.2
      vertex 0.929138 -1.99241 3.2
    endloop
  endfacet
  facet normal 0.900281 0.43531 0
    outer loop
      vertex 1.28189 -2.72195 6.2
      vertex 0.929138 -1.99241 3.2
      vertex 0.929138 -1.99241 6.2
    endloop
  endfacet
  facet normal 0.900281 0.43531 0
    outer loop
      vertex 0.929138 -1.99241 3.2
      vertex 1.28189 -2.72195 6.2
      vertex 1.28189 -2.72195 3.2
    endloop
  endfacet
  facet normal 0.735922 0.677067 0
    outer loop
      vertex 1.76828 -3.25062 6.2
      vertex 1.28189 -2.72195 3.2
      vertex 1.28189 -2.72195 6.2
    endloop
  endfacet
  facet normal 0.735922 0.677067 0
    outer loop
      vertex 1.28189 -2.72195 3.2
      vertex 1.76828 -3.25062 6.2
      vertex 1.76828 -3.25062 3.2
    endloop
  endfacet
  facet normal 0.459798 0.888023 -0
    outer loop
      vertex 2.38086 -3.5678 3.2
      vertex 1.76828 -3.25062 6.2
      vertex 2.38086 -3.5678 6.2
    endloop
  endfacet
  facet normal 0.459798 0.888023 0
    outer loop
      vertex 1.76828 -3.25062 6.2
      vertex 2.38086 -3.5678 3.2
      vertex 1.76828 -3.25062 3.2
    endloop
  endfacet
  facet normal 0.141671 0.989914 -0
    outer loop
      vertex 3.11964 -3.67353 3.2
      vertex 2.38086 -3.5678 6.2
      vertex 3.11964 -3.67353 6.2
    endloop
  endfacet
  facet normal 0.141671 0.989914 0
    outer loop
      vertex 2.38086 -3.5678 6.2
      vertex 3.11964 -3.67353 3.2
      vertex 2.38086 -3.5678 3.2
    endloop
  endfacet
  facet normal -0.141669 0.989914 0
    outer loop
      vertex 3.85843 -3.5678 3.2
      vertex 3.11964 -3.67353 6.2
      vertex 3.85843 -3.5678 6.2
    endloop
  endfacet
  facet normal -0.141669 0.989914 0
    outer loop
      vertex 3.11964 -3.67353 6.2
      vertex 3.85843 -3.5678 3.2
      vertex 3.11964 -3.67353 3.2
    endloop
  endfacet
  facet normal -0.547623 -0.836725 0
    outer loop
      vertex 2.28795 -2.57783 3.2
      vertex 2.66252 -2.82298 6.2
      vertex 2.28795 -2.57783 6.2
    endloop
  endfacet
  facet normal -0.547623 -0.836725 -0
    outer loop
      vertex 2.66252 -2.82298 6.2
      vertex 2.28795 -2.57783 3.2
      vertex 2.66252 -2.82298 3.2
    endloop
  endfacet
  facet normal -0.813532 -0.581521 0
    outer loop
      vertex 2.28795 -2.57783 3.2
      vertex 1.9959 -2.16926 6.2
      vertex 1.9959 -2.16926 3.2
    endloop
  endfacet
  facet normal -0.813532 -0.581521 0
    outer loop
      vertex 1.9959 -2.16926 6.2
      vertex 2.28795 -2.57783 3.2
      vertex 2.28795 -2.57783 6.2
    endloop
  endfacet
  facet normal -0.939289 -0.343128 0
    outer loop
      vertex 1.9959 -2.16926 3.2
      vertex 1.78693 -1.59722 6.2
      vertex 1.78693 -1.59722 3.2
    endloop
  endfacet
  facet normal -0.939289 -0.343128 0
    outer loop
      vertex 1.78693 -1.59722 6.2
      vertex 1.9959 -2.16926 3.2
      vertex 1.9959 -2.16926 6.2
    endloop
  endfacet
  facet normal -0.985777 -0.168061 0
    outer loop
      vertex 1.78693 -1.59722 3.2
      vertex 1.66154 -0.861732 6.2
      vertex 1.66154 -0.861732 3.2
    endloop
  endfacet
  facet normal -0.985777 -0.168061 0
    outer loop
      vertex 1.66154 -0.861732 6.2
      vertex 1.78693 -1.59722 3.2
      vertex 1.78693 -1.59722 6.2
    endloop
  endfacet
  facet normal -0.998921 -0.0464514 0
    outer loop
      vertex 1.66154 -0.861732 3.2
      vertex 1.61974 0.0371618 6.2
      vertex 1.61974 0.0371618 3.2
    endloop
  endfacet
  facet normal -0.998921 -0.0464514 0
    outer loop
      vertex 1.61974 0.0371618 6.2
      vertex 1.66154 -0.861732 3.2
      vertex 1.66154 -0.861732 6.2
    endloop
  endfacet
  facet normal -0.998927 0.0463141 0
    outer loop
      vertex 1.61974 0.0371618 3.2
      vertex 1.66154 0.938727 6.2
      vertex 1.66154 0.938727 3.2
    endloop
  endfacet
  facet normal -0.998927 0.0463141 0
    outer loop
      vertex 1.66154 0.938727 6.2
      vertex 1.61974 0.0371618 3.2
      vertex 1.61974 0.0371618 6.2
    endloop
  endfacet
  facet normal -0.985836 0.167712 0
    outer loop
      vertex 1.66154 0.938727 3.2
      vertex 1.78693 1.67579 6.2
      vertex 1.78693 1.67579 3.2
    endloop
  endfacet
  facet normal -0.985836 0.167712 0
    outer loop
      vertex 1.78693 1.67579 6.2
      vertex 1.66154 0.938727 3.2
      vertex 1.66154 0.938727 6.2
    endloop
  endfacet
  facet normal -0.939385 0.342864 0
    outer loop
      vertex 1.78693 1.67579 3.2
      vertex 1.9959 2.24833 6.2
      vertex 1.9959 2.24833 3.2
    endloop
  endfacet
  facet normal -0.939385 0.342864 0
    outer loop
      vertex 1.9959 2.24833 6.2
      vertex 1.78693 1.67579 3.2
      vertex 1.78693 1.67579 6.2
    endloop
  endfacet
  facet normal -0.813552 0.581492 0
    outer loop
      vertex 1.9959 2.24833 3.2
      vertex 2.28795 2.65693 6.2
      vertex 2.28795 2.65693 3.2
    endloop
  endfacet
  facet normal -0.813552 0.581492 0
    outer loop
      vertex 2.28795 2.65693 6.2
      vertex 1.9959 2.24833 3.2
      vertex 1.9959 2.24833 6.2
    endloop
  endfacet
  facet normal -0.54767 0.836694 0
    outer loop
      vertex 2.66252 2.90211 3.2
      vertex 2.28795 2.65693 6.2
      vertex 2.66252 2.90211 6.2
    endloop
  endfacet
  facet normal -0.54767 0.836694 0
    outer loop
      vertex 2.28795 2.65693 6.2
      vertex 2.66252 2.90211 3.2
      vertex 2.28795 2.65693 3.2
    endloop
  endfacet
  facet normal -0.175961 0.984397 0
    outer loop
      vertex 3.11964 2.98382 3.2
      vertex 2.66252 2.90211 6.2
      vertex 3.11964 2.98382 6.2
    endloop
  endfacet
  facet normal -0.175961 0.984397 0
    outer loop
      vertex 2.66252 2.90211 6.2
      vertex 3.11964 2.98382 3.2
      vertex 2.66252 2.90211 3.2
    endloop
  endfacet
  facet normal 0.174966 0.984574 -0
    outer loop
      vertex 3.57944 2.90211 3.2
      vertex 3.11964 2.98382 6.2
      vertex 3.57944 2.90211 6.2
    endloop
  endfacet
  facet normal 0.174966 0.984574 0
    outer loop
      vertex 3.11964 2.98382 6.2
      vertex 3.57944 2.90211 3.2
      vertex 3.11964 2.98382 3.2
    endloop
  endfacet
  facet normal 0.546036 0.837762 -0
    outer loop
      vertex 3.95561 2.65693 3.2
      vertex 3.57944 2.90211 6.2
      vertex 3.95561 2.65693 6.2
    endloop
  endfacet
  facet normal 0.546036 0.837762 0
    outer loop
      vertex 3.57944 2.90211 6.2
      vertex 3.95561 2.65693 3.2
      vertex 3.57944 2.90211 3.2
    endloop
  endfacet
  facet normal 0.813062 0.582177 0
    outer loop
      vertex 4.24818 2.24833 6.2
      vertex 3.95561 2.65693 3.2
      vertex 3.95561 2.65693 6.2
    endloop
  endfacet
  facet normal 0.813062 0.582177 0
    outer loop
      vertex 3.95561 2.65693 3.2
      vertex 4.24818 2.24833 6.2
      vertex 4.24818 2.24833 3.2
    endloop
  endfacet
  facet normal 0.939375 0.342893 0
    outer loop
      vertex 4.45717 1.67579 6.2
      vertex 4.24818 2.24833 3.2
      vertex 4.24818 2.24833 6.2
    endloop
  endfacet
  facet normal 0.939375 0.342893 0
    outer loop
      vertex 4.24818 2.24833 3.2
      vertex 4.45717 1.67579 6.2
      vertex 4.45717 1.67579 3.2
    endloop
  endfacet
  facet normal 0.985838 0.167699 0
    outer loop
      vertex 4.58255 0.938727 6.2
      vertex 4.45717 1.67579 3.2
      vertex 4.45717 1.67579 6.2
    endloop
  endfacet
  facet normal 0.985838 0.167699 0
    outer loop
      vertex 4.45717 1.67579 3.2
      vertex 4.58255 0.938727 6.2
      vertex 4.58255 0.938727 3.2
    endloop
  endfacet
  facet normal 0.998927 0.046303 0
    outer loop
      vertex 4.62434 0.0371618 6.2
      vertex 4.58255 0.938727 3.2
      vertex 4.58255 0.938727 6.2
    endloop
  endfacet
  facet normal 0.998927 0.046303 0
    outer loop
      vertex 4.58255 0.938727 3.2
      vertex 4.62434 0.0371618 6.2
      vertex 4.62434 0.0371618 3.2
    endloop
  endfacet
  facet normal 0.998921 -0.0464403 0
    outer loop
      vertex 4.58255 -0.861732 6.2
      vertex 4.62434 0.0371618 3.2
      vertex 4.62434 0.0371618 6.2
    endloop
  endfacet
  facet normal 0.998921 -0.0464403 0
    outer loop
      vertex 4.62434 0.0371618 3.2
      vertex 4.58255 -0.861732 6.2
      vertex 4.58255 -0.861732 3.2
    endloop
  endfacet
  facet normal 0.985779 -0.168048 0
    outer loop
      vertex 4.45717 -1.59722 6.2
      vertex 4.58255 -0.861732 3.2
      vertex 4.58255 -0.861732 6.2
    endloop
  endfacet
  facet normal 0.985779 -0.168048 0
    outer loop
      vertex 4.58255 -0.861732 3.2
      vertex 4.45717 -1.59722 6.2
      vertex 4.45717 -1.59722 3.2
    endloop
  endfacet
  facet normal 0.939278 -0.343157 0
    outer loop
      vertex 4.24818 -2.16926 6.2
      vertex 4.45717 -1.59722 3.2
      vertex 4.45717 -1.59722 6.2
    endloop
  endfacet
  facet normal 0.939278 -0.343157 0
    outer loop
      vertex 4.45717 -1.59722 3.2
      vertex 4.24818 -2.16926 6.2
      vertex 4.24818 -2.16926 3.2
    endloop
  endfacet
  facet normal 0.813042 -0.582205 0
    outer loop
      vertex 3.95561 -2.57783 6.2
      vertex 4.24818 -2.16926 3.2
      vertex 4.24818 -2.16926 6.2
    endloop
  endfacet
  facet normal 0.813042 -0.582205 0
    outer loop
      vertex 4.24818 -2.16926 3.2
      vertex 3.95561 -2.57783 6.2
      vertex 3.95561 -2.57783 3.2
    endloop
  endfacet
  facet normal 0.545989 -0.837792 0
    outer loop
      vertex 3.57944 -2.82298 3.2
      vertex 3.95561 -2.57783 6.2
      vertex 3.57944 -2.82298 6.2
    endloop
  endfacet
  facet normal 0.545989 -0.837792 0
    outer loop
      vertex 3.95561 -2.57783 6.2
      vertex 3.57944 -2.82298 3.2
      vertex 3.95561 -2.57783 3.2
    endloop
  endfacet
  facet normal 0.174966 -0.984574 0
    outer loop
      vertex 3.11964 -2.90469 3.2
      vertex 3.57944 -2.82298 6.2
      vertex 3.11964 -2.90469 6.2
    endloop
  endfacet
  facet normal 0.174966 -0.984574 0
    outer loop
      vertex 3.57944 -2.82298 6.2
      vertex 3.11964 -2.90469 3.2
      vertex 3.57944 -2.82298 3.2
    endloop
  endfacet
  facet normal -0.175961 -0.984397 0
    outer loop
      vertex 2.66252 -2.82298 3.2
      vertex 3.11964 -2.90469 6.2
      vertex 2.66252 -2.82298 6.2
    endloop
  endfacet
  facet normal -0.175961 -0.984397 -0
    outer loop
      vertex 3.11964 -2.90469 6.2
      vertex 2.66252 -2.82298 3.2
      vertex 3.11964 -2.90469 3.2
    endloop
  endfacet
  facet normal 0 -1 0
    outer loop
      vertex -2.34111 -2.71926 3.2
      vertex -0.75972 -2.71926 6.2
      vertex -2.34111 -2.71926 6.2
    endloop
  endfacet
  facet normal 0 -1 -0
    outer loop
      vertex -0.75972 -2.71926 6.2
      vertex -2.34111 -2.71926 3.2
      vertex -0.75972 -2.71926 3.2
    endloop
  endfacet
  facet normal -1 0 0
    outer loop
      vertex -2.34111 -2.71926 3.2
      vertex -2.34111 3.62151 6.2
      vertex -2.34111 3.62151 3.2
    endloop
  endfacet
  facet normal -1 -0 0
    outer loop
      vertex -2.34111 3.62151 6.2
      vertex -2.34111 -2.71926 3.2
      vertex -2.34111 -2.71926 6.2
    endloop
  endfacet
  facet normal 0 -1 0
    outer loop
      vertex -3.3091 3.62151 3.2
      vertex -2.34111 3.62151 6.2
      vertex -3.3091 3.62151 6.2
    endloop
  endfacet
  facet normal 0 -1 -0
    outer loop
      vertex -2.34111 3.62151 6.2
      vertex -3.3091 3.62151 3.2
      vertex -2.34111 3.62151 3.2
    endloop
  endfacet
  facet normal 0.196979 -0.980408 0
    outer loop
      vertex -5.01987 3.27779 3.2
      vertex -3.3091 3.62151 6.2
      vertex -5.01987 3.27779 6.2
    endloop
  endfacet
  facet normal 0.196979 -0.980408 0
    outer loop
      vertex -3.3091 3.62151 6.2
      vertex -5.01987 3.27779 3.2
      vertex -3.3091 3.62151 3.2
    endloop
  endfacet
  facet normal 1 -0 0
    outer loop
      vertex -5.01987 2.39588 6.2
      vertex -5.01987 3.27779 3.2
      vertex -5.01987 3.27779 6.2
    endloop
  endfacet
  facet normal 1 0 0
    outer loop
      vertex -5.01987 3.27779 3.2
      vertex -5.01987 2.39588 6.2
      vertex -5.01987 2.39588 3.2
    endloop
  endfacet
  facet normal -0.19592 0.98062 0
    outer loop
      vertex -3.29948 2.7396 3.2
      vertex -5.01987 2.39588 6.2
      vertex -3.29948 2.7396 6.2
    endloop
  endfacet
  facet normal -0.19592 0.98062 0
    outer loop
      vertex -5.01987 2.39588 6.2
      vertex -3.29948 2.7396 3.2
      vertex -5.01987 2.39588 3.2
    endloop
  endfacet
  facet normal 1 -0 0
    outer loop
      vertex -3.29948 -2.71926 6.2
      vertex -3.29948 2.7396 3.2
      vertex -3.29948 2.7396 6.2
    endloop
  endfacet
  facet normal 1 0 0
    outer loop
      vertex -3.29948 2.7396 3.2
      vertex -3.29948 -2.71926 6.2
      vertex -3.29948 -2.71926 3.2
    endloop
  endfacet
  facet normal 0 -1 0
    outer loop
      vertex -4.88094 -2.71926 3.2
      vertex -3.29948 -2.71926 6.2
      vertex -4.88094 -2.71926 6.2
    endloop
  endfacet
  facet normal 0 -1 -0
    outer loop
      vertex -3.29948 -2.71926 6.2
      vertex -4.88094 -2.71926 3.2
      vertex -3.29948 -2.71926 3.2
    endloop
  endfacet
  facet normal 1 -0 0
    outer loop
      vertex -4.88094 -3.53333 6.2
      vertex -4.88094 -2.71926 3.2
      vertex -4.88094 -2.71926 6.2
    endloop
  endfacet
  facet normal 1 0 0
    outer loop
      vertex -4.88094 -2.71926 3.2
      vertex -4.88094 -3.53333 6.2
      vertex -4.88094 -3.53333 3.2
    endloop
  endfacet
  facet normal 0 1 -0
    outer loop
      vertex -0.75972 -3.53333 3.2
      vertex -4.88094 -3.53333 6.2
      vertex -0.75972 -3.53333 6.2
    endloop
  endfacet
  facet normal 0 1 0
    outer loop
      vertex -4.88094 -3.53333 6.2
      vertex -0.75972 -3.53333 3.2
      vertex -4.88094 -3.53333 3.2
    endloop
  endfacet
  facet normal -1 0 0
    outer loop
      vertex -0.75972 -3.53333 3.2
      vertex -0.75972 -2.71926 6.2
      vertex -0.75972 -2.71926 3.2
    endloop
  endfacet
  facet normal -1 -0 0
    outer loop
      vertex -0.75972 -2.71926 6.2
      vertex -0.75972 -3.53333 3.2
      vertex -0.75972 -3.53333 6.2
    endloop
  endfacet
  facet normal -1 0 0
    outer loop
      vertex 3.53333 -6.36 3.2
      vertex 3.53333 -5.36 6.2
      vertex 3.53333 -5.36 3.2
    endloop
  endfacet
  facet normal -1 -0 0
    outer loop
      vertex 3.53333 -5.36 6.2
      vertex 3.53333 -6.36 3.2
      vertex 3.53333 -6.36 6.2
    endloop
  endfacet
  facet normal -0 0 1
    outer loop
      vertex -3.53333 -5.36 3.2
      vertex 3.53333 -6.36 3.2
      vertex 3.53333 -5.36 3.2
    endloop
  endfacet
  facet normal 0 0 1
    outer loop
      vertex 3.53333 -6.36 3.2
      vertex -3.53333 -5.36 3.2
      vertex -3.53333 -6.36 3.2
    endloop
  endfacet
  facet normal 1 -0 0
    outer loop
      vertex -3.53333 -6.36 6.2
      vertex -3.53333 -5.36 3.2
      vertex -3.53333 -5.36 6.2
    endloop
  endfacet
  facet normal 1 0 0
    outer loop
      vertex -3.53333 -5.36 3.2
      vertex -3.53333 -6.36 6.2
      vertex -3.53333 -6.36 3.2
    endloop
  endfacet
  facet normal 0 -1 0
    outer loop
      vertex -3.53333 -5.36 3.2
      vertex 3.53333 -5.36 6.2
      vertex -3.53333 -5.36 6.2
    endloop
  endfacet
  facet normal 0 -1 -0
    outer loop
      vertex 3.53333 -5.36 6.2
      vertex -3.53333 -5.36 3.2
      vertex 3.53333 -5.36 3.2
    endloop
  endfacet
  facet normal 0 1 -0
    outer loop
      vertex 3.53333 -6.36 3.2
      vertex -3.53333 -6.36 6.2
      vertex 3.53333 -6.36 6.2
    endloop
  endfacet
  facet normal 0 1 0
    outer loop
      vertex -3.53333 -6.36 6.2
      vertex 3.53333 -6.36 3.2
      vertex -3.53333 -6.36 3.2
    endloop
  endfacet
  facet normal -0.866025 0.500001 0
    outer loop
      vertex -8.66667 0 0
      vertex -4.33333 7.50555 6.2
      vertex -4.33333 7.50555 0
    endloop
  endfacet
  facet normal -0.866025 0.500001 0
    outer loop
      vertex -4.33333 7.50555 6.2
      vertex -8.66667 0 0
      vertex -8.66667 0 6.2
    endloop
  endfacet
  facet normal 0 0 -1
    outer loop
      vertex 4.33333 -7.50555 0
      vertex 4.33333 7.50555 0
      vertex 8.66667 0 0
    endloop
  endfacet
  facet normal 0 0 -1
    outer loop
      vertex -4.33333 -7.50555 0
      vertex 4.33333 7.50555 0
      vertex 4.33333 -7.50555 0
    endloop
  endfacet
  facet normal 0 0 -1
    outer loop
      vertex -4.33333 -7.50555 0
      vertex -4.33333 7.50555 0
      vertex 4.33333 7.50555 0
    endloop
  endfacet
  facet normal 0 -0 -1
    outer loop
      vertex -4.33333 7.50555 0
      vertex -4.33333 -7.50555 0
      vertex -8.66667 0 0
    endloop
  endfacet
  facet normal 0.866025 -0.500001 0
    outer loop
      vertex 4.33333 -7.50555 6.2
      vertex 8.66667 0 0
      vertex 8.66667 0 6.2
    endloop
  endfacet
  facet normal 0.866025 -0.500001 0
    outer loop
      vertex 8.66667 0 0
      vertex 4.33333 -7.50555 6.2
      vertex 4.33333 -7.50555 0
    endloop
  endfacet
  facet normal -0 0 1
    outer loop
      vertex -5.01987 2.39588 6.2
      vertex -3.29948 -2.71926 6.2
      vertex -3.29948 2.7396 6.2
    endloop
  endfacet
  facet normal -0 0 1
    outer loop
      vertex -8.66667 0 6.2
      vertex -4.88094 -2.71926 6.2
      vertex -5.01987 2.39588 6.2
    endloop
  endfacet
  facet normal 0 0 1
    outer loop
      vertex -3.29948 -2.71926 6.2
      vertex -5.01987 2.39588 6.2
      vertex -4.88094 -2.71926 6.2
    endloop
  endfacet
  facet normal -0 0 1
    outer loop
      vertex 3.11964 -3.67353 6.2
      vertex 3.53333 -5.36 6.2
      vertex 3.85843 -3.5678 6.2
    endloop
  endfacet
  facet normal 0 0 1
    outer loop
      vertex 2.38086 -3.5678 6.2
      vertex 3.53333 -5.36 6.2
      vertex 3.11964 -3.67353 6.2
    endloop
  endfacet
  facet normal 0 0 1
    outer loop
      vertex 1.76828 -3.25062 6.2
      vertex 3.53333 -5.36 6.2
      vertex 2.38086 -3.5678 6.2
    endloop
  endfacet
  facet normal 0 0 1
    outer loop
      vertex -0.75972 -3.53333 6.2
      vertex 1.76828 -3.25062 6.2
      vertex 1.28189 -2.72195 6.2
    endloop
  endfacet
  facet normal 0 0 1
    outer loop
      vertex -0.75972 -2.71926 6.2
      vertex 0.717499 -1.07272 6.2
      vertex 0.646942 0.0371618 6.2
    endloop
  endfacet
  facet normal 0 0 1
    outer loop
      vertex -0.75972 -2.71926 6.2
      vertex 0.929138 -1.99241 6.2
      vertex 0.717499 -1.07272 6.2
    endloop
  endfacet
  facet normal -0 0 1
    outer loop
      vertex -0.75972 -2.71926 6.2
      vertex 1.28189 -2.72195 6.2
      vertex 0.929138 -1.99241 6.2
    endloop
  endfacet
  facet normal 0 0 1
    outer loop
      vertex -0.75972 -3.53333 6.2
      vertex 1.28189 -2.72195 6.2
      vertex -0.75972 -2.71926 6.2
    endloop
  endfacet
  facet normal 0 0 1
    outer loop
      vertex 1.76828 -3.25062 6.2
      vertex -0.75972 -3.53333 6.2
      vertex 3.53333 -5.36 6.2
    endloop
  endfacet
  facet normal 0 0 1
    outer loop
      vertex -0.75972 -3.53333 6.2
      vertex -3.53333 -5.36 6.2
      vertex 3.53333 -5.36 6.2
    endloop
  endfacet
  facet normal 0 0 1
    outer loop
      vertex -3.53333 -5.36 6.2
      vertex -4.33333 -7.50555 6.2
      vertex -3.53333 -6.36 6.2
    endloop
  endfacet
  facet normal -0 0 1
    outer loop
      vertex -4.88094 -3.53333 6.2
      vertex -3.53333 -5.36 6.2
      vertex -0.75972 -3.53333 6.2
    endloop
  endfacet
  facet normal 0 0 1
    outer loop
      vertex -4.88094 -3.53333 6.2
      vertex -4.33333 -7.50555 6.2
      vertex -3.53333 -5.36 6.2
    endloop
  endfacet
  facet normal 0 0 1
    outer loop
      vertex -4.88094 -3.53333 6.2
      vertex -8.66667 0 6.2
      vertex -4.33333 -7.50555 6.2
    endloop
  endfacet
  facet normal 0 0 1
    outer loop
      vertex -4.88094 -2.71926 6.2
      vertex -8.66667 0 6.2
      vertex -4.88094 -3.53333 6.2
    endloop
  endfacet
  facet normal 0 0 1
    outer loop
      vertex 8.66667 0 6.2
      vertex 5.52179 1.1497 6.2
      vertex 5.59235 0.0371618 6.2
    endloop
  endfacet
  facet normal 0 0 1
    outer loop
      vertex 8.66667 0 6.2
      vertex 5.31015 2.07098 6.2
      vertex 5.52179 1.1497 6.2
    endloop
  endfacet
  facet normal 0 0 1
    outer loop
      vertex 8.66667 0 6.2
      vertex 4.9574 2.801 6.2
      vertex 5.31015 2.07098 6.2
    endloop
  endfacet
  facet normal 0 0 1
    outer loop
      vertex 4.33333 7.50555 6.2
      vertex 4.9574 2.801 6.2
      vertex 8.66667 0 6.2
    endloop
  endfacet
  facet normal 0 0 1
    outer loop
      vertex 4.9574 2.801 6.2
      vertex 4.33333 7.50555 6.2
      vertex 4.47101 3.32972 6.2
    endloop
  endfacet
  facet normal 0 0 1
    outer loop
      vertex 4.33333 7.50555 6.2
      vertex 3.85843 3.64693 6.2
      vertex 4.47101 3.32972 6.2
    endloop
  endfacet
  facet normal 0 0 1
    outer loop
      vertex 4.33333 7.50555 6.2
      vertex 3.11964 3.75268 6.2
      vertex 3.85843 3.64693 6.2
    endloop
  endfacet
  facet normal 0 0 1
    outer loop
      vertex 4.33333 7.50555 6.2
      vertex 2.38086 3.64693 6.2
      vertex 3.11964 3.75268 6.2
    endloop
  endfacet
  facet normal 0 0 1
    outer loop
      vertex 4.33333 7.50555 6.2
      vertex 1.76828 3.32972 6.2
      vertex 2.38086 3.64693 6.2
    endloop
  endfacet
  facet normal -0 0 1
    outer loop
      vertex -2.34111 3.62151 6.2
      vertex 1.76828 3.32972 6.2
      vertex 4.33333 7.50555 6.2
    endloop
  endfacet
  facet normal 0 0 1
    outer loop
      vertex -2.34111 3.62151 6.2
      vertex 0.646942 0.0371618 6.2
      vertex 0.717499 1.1497 6.2
    endloop
  endfacet
  facet normal 0 0 1
    outer loop
      vertex -2.34111 3.62151 6.2
      vertex 0.717499 1.1497 6.2
      vertex 0.929138 2.07098 6.2
    endloop
  endfacet
  facet normal 0 0 1
    outer loop
      vertex 0.646942 0.0371618 6.2
      vertex -2.34111 3.62151 6.2
      vertex -2.34111 -2.71926 6.2
    endloop
  endfacet
  facet normal 0 0 1
    outer loop
      vertex 1.28189 2.801 6.2
      vertex -2.34111 3.62151 6.2
      vertex 0.929138 2.07098 6.2
    endloop
  endfacet
  facet normal 0 0 1
    outer loop
      vertex 1.76828 3.32972 6.2
      vertex -2.34111 3.62151 6.2
      vertex 1.28189 2.801 6.2
    endloop
  endfacet
  facet normal -0 0 1
    outer loop
      vertex -4.33333 7.50555 6.2
      vertex -2.34111 3.62151 6.2
      vertex 4.33333 7.50555 6.2
    endloop
  endfacet
  facet normal 0 0 1
    outer loop
      vertex -2.34111 3.62151 6.2
      vertex -4.33333 7.50555 6.2
      vertex -3.3091 3.62151 6.2
    endloop
  endfacet
  facet normal 0 0 1
    outer loop
      vertex -4.33333 7.50555 6.2
      vertex -5.01987 3.27779 6.2
      vertex -3.3091 3.62151 6.2
    endloop
  endfacet
  facet normal 0 0 1
    outer loop
      vertex -5.01987 3.27779 6.2
      vertex -8.66667 0 6.2
      vertex -5.01987 2.39588 6.2
    endloop
  endfacet
  facet normal 0 0 1
    outer loop
      vertex -8.66667 0 6.2
      vertex -5.01987 3.27779 6.2
      vertex -4.33333 7.50555 6.2
    endloop
  endfacet
  facet normal 0 0 1
    outer loop
      vertex 5.52179 -1.07272 6.2
      vertex 8.66667 0 6.2
      vertex 5.59235 0.0371618 6.2
    endloop
  endfacet
  facet normal 0 0 1
    outer loop
      vertex 5.31015 -1.99241 6.2
      vertex 8.66667 0 6.2
      vertex 5.52179 -1.07272 6.2
    endloop
  endfacet
  facet normal 0 0 1
    outer loop
      vertex 4.9574 -2.72195 6.2
      vertex 8.66667 0 6.2
      vertex 5.31015 -1.99241 6.2
    endloop
  endfacet
  facet normal 0 0 1
    outer loop
      vertex 4.33333 -7.50555 6.2
      vertex 4.9574 -2.72195 6.2
      vertex 4.47101 -3.25062 6.2
    endloop
  endfacet
  facet normal -0 0 1
    outer loop
      vertex 4.9574 -2.72195 6.2
      vertex 4.33333 -7.50555 6.2
      vertex 8.66667 0 6.2
    endloop
  endfacet
  facet normal 0 0 1
    outer loop
      vertex 3.53333 -5.36 6.2
      vertex 4.47101 -3.25062 6.2
      vertex 3.85843 -3.5678 6.2
    endloop
  endfacet
  facet normal 0 0 1
    outer loop
      vertex 4.47101 -3.25062 6.2
      vertex 3.53333 -5.36 6.2
      vertex 4.33333 -7.50555 6.2
    endloop
  endfacet
  facet normal -0 0 1
    outer loop
      vertex 3.53333 -6.36 6.2
      vertex 4.33333 -7.50555 6.2
      vertex 3.53333 -5.36 6.2
    endloop
  endfacet
  facet normal -0 0 1
    outer loop
      vertex -3.53333 -6.36 6.2
      vertex 4.33333 -7.50555 6.2
      vertex 3.53333 -6.36 6.2
    endloop
  endfacet
  facet normal 0 0 1
    outer loop
      vertex 4.33333 -7.50555 6.2
      vertex -3.53333 -6.36 6.2
      vertex -4.33333 -7.50555 6.2
    endloop
  endfacet
  facet normal 0 0 1
    outer loop
      vertex 0.646942 0.0371618 6.2
      vertex -2.34111 -2.71926 6.2
      vertex -0.75972 -2.71926 6.2
    endloop
  endfacet
  facet normal 0 0 1
    outer loop
      vertex 1.61974 0.0371618 6.2
      vertex 4.62434 0.0371618 6.2
      vertex 4.58255 0.938727 6.2
    endloop
  endfacet
  facet normal 0 0 1
    outer loop
      vertex 1.66154 0.938727 6.2
      vertex 4.58255 0.938727 6.2
      vertex 4.45717 1.67579 6.2
    endloop
  endfacet
  facet normal 0 0 1
    outer loop
      vertex 4.62434 0.0371618 6.2
      vertex 1.61974 0.0371618 6.2
      vertex 4.58255 -0.861732 6.2
    endloop
  endfacet
  facet normal 0 0 1
    outer loop
      vertex 1.78693 1.67579 6.2
      vertex 4.45717 1.67579 6.2
      vertex 4.24818 2.24833 6.2
    endloop
  endfacet
  facet normal 0 -0 1
    outer loop
      vertex 1.66154 -0.861732 6.2
      vertex 4.58255 -0.861732 6.2
      vertex 1.61974 0.0371618 6.2
    endloop
  endfacet
  facet normal 0 0 1
    outer loop
      vertex 1.9959 2.24833 6.2
      vertex 4.24818 2.24833 6.2
      vertex 3.95561 2.65693 6.2
    endloop
  endfacet
  facet normal 0 0 1
    outer loop
      vertex 4.58255 -0.861732 6.2
      vertex 1.66154 -0.861732 6.2
      vertex 4.45717 -1.59722 6.2
    endloop
  endfacet
  facet normal 0 0 1
    outer loop
      vertex 3.11964 2.98382 6.2
      vertex 3.95561 2.65693 6.2
      vertex 3.57944 2.90211 6.2
    endloop
  endfacet
  facet normal 0 -0 1
    outer loop
      vertex 1.78693 -1.59722 6.2
      vertex 4.45717 -1.59722 6.2
      vertex 1.66154 -0.861732 6.2
    endloop
  endfacet
  facet normal 0 0 1
    outer loop
      vertex 3.95561 2.65693 6.2
      vertex 3.11964 2.98382 6.2
      vertex 1.9959 2.24833 6.2
    endloop
  endfacet
  facet normal 0 0 1
    outer loop
      vertex 4.45717 -1.59722 6.2
      vertex 1.78693 -1.59722 6.2
      vertex 4.24818 -2.16926 6.2
    endloop
  endfacet
  facet normal 0 0 1
    outer loop
      vertex 2.28795 2.65693 6.2
      vertex 3.11964 2.98382 6.2
      vertex 2.66252 2.90211 6.2
    endloop
  endfacet
  facet normal 0 -0 1
    outer loop
      vertex 1.9959 -2.16926 6.2
      vertex 4.24818 -2.16926 6.2
      vertex 1.78693 -1.59722 6.2
    endloop
  endfacet
  facet normal 0 0 1
    outer loop
      vertex 3.11964 2.98382 6.2
      vertex 2.28795 2.65693 6.2
      vertex 1.9959 2.24833 6.2
    endloop
  endfacet
  facet normal 0 0 1
    outer loop
      vertex 4.24818 -2.16926 6.2
      vertex 1.9959 -2.16926 6.2
      vertex 3.95561 -2.57783 6.2
    endloop
  endfacet
  facet normal 0 0 1
    outer loop
      vertex 4.24818 2.24833 6.2
      vertex 1.9959 2.24833 6.2
      vertex 1.78693 1.67579 6.2
    endloop
  endfacet
  facet normal 0 -0 1
    outer loop
      vertex 3.11964 -2.90469 6.2
      vertex 3.95561 -2.57783 6.2
      vertex 1.9959 -2.16926 6.2
    endloop
  endfacet
  facet normal 0 0 1
    outer loop
      vertex 4.45717 1.67579 6.2
      vertex 1.78693 1.67579 6.2
      vertex 1.66154 0.938727 6.2
    endloop
  endfacet
  facet normal 0 0 1
    outer loop
      vertex 3.95561 -2.57783 6.2
      vertex 3.11964 -2.90469 6.2
      vertex 3.57944 -2.82298 6.2
    endloop
  endfacet
  facet normal 0 0 1
    outer loop
      vertex 4.58255 0.938727 6.2
      vertex 1.66154 0.938727 6.2
      vertex 1.61974 0.0371618 6.2
    endloop
  endfacet
  facet normal -0 -0 1
    outer loop
      vertex 2.28795 -2.57783 6.2
      vertex 3.11964 -2.90469 6.2
      vertex 1.9959 -2.16926 6.2
    endloop
  endfacet
  facet normal 0 0 1
    outer loop
      vertex 3.11964 -2.90469 6.2
      vertex 2.28795 -2.57783 6.2
      vertex 2.66252 -2.82298 6.2
    endloop
  endfacet
  facet normal 0 1 -0
    outer loop
      vertex 4.33333 7.50555 0
      vertex -4.33333 7.50555 6.2
      vertex 4.33333 7.50555 6.2
    endloop
  endfacet
  facet normal 0 1 0
    outer loop
      vertex -4.33333 7.50555 6.2
      vertex 4.33333 7.50555 0
      vertex -4.33333 7.50555 0
    endloop
  endfacet
  facet normal -0.866025 -0.500001 0
    outer loop
      vertex -4.33333 -7.50555 0
      vertex -8.66667 0 6.2
      vertex -8.66667 0 0
    endloop
  endfacet
  facet normal -0.866025 -0.500001 0
    outer loop
      vertex -8.66667 0 6.2
      vertex -4.33333 -7.50555 0
      vertex -4.33333 -7.50555 6.2
    endloop
  endfacet
  facet normal 0 -1 0
    outer loop
      vertex -4.33333 -7.50555 0
      vertex 4.33333 -7.50555 6.2
      vertex -4.33333 -7.50555 6.2
    endloop
  endfacet
  facet normal 0 -1 -0
    outer loop
      vertex 4.33333 -7.50555 6.2
      vertex -4.33333 -7.50555 0
      vertex 4.33333 -7.50555 0
    endloop
  endfacet
  facet normal 0.866025 0.500001 0
    outer loop
      vertex 8.66667 0 6.2
      vertex 4.33333 7.50555 0
      vertex 4.33333 7.50555 6.2
    endloop
  endfacet
  facet normal 0.866025 0.500001 0
    outer loop
      vertex 4.33333 7.50555 0
      vertex 8.66667 0 6.2
      vertex 8.66667 0 0
    endloop
  endfacet
endsolid OpenSCAD_Model
