solid OpenSCAD_Model
  facet normal -0 0 1
    outer loop
      vertex 1.35886 2.14892 3.2
      vertex 2.35645 1.89831 3.2
      vertex 2.28882 2.43017 3.2
    endloop
  endfacet
  facet normal 0 0 1
    outer loop
      vertex 2.35645 1.89831 3.2
      vertex 1.39799 1.80567 3.2
      vertex 2.31784 1.51015 3.2
    endloop
  endfacet
  facet normal 0 0 1
    outer loop
      vertex 1.35886 2.14892 3.2
      vertex 2.28882 2.43017 3.2
      vertex 2.08594 2.88218 3.2
    endloop
  endfacet
  facet normal 0 0 1
    outer loop
      vertex 1.35886 1.46242 3.2
      vertex 2.31784 1.51015 3.2
      vertex 1.39799 1.80567 3.2
    endloop
  endfacet
  facet normal 0 0 1
    outer loop
      vertex 1.24146 2.43787 3.2
      vertex 2.08594 2.88218 3.2
      vertex 1.74779 3.25434 3.2
    endloop
  endfacet
  facet normal 0 0 1
    outer loop
      vertex 2.35645 1.89831 3.2
      vertex 1.35886 2.14892 3.2
      vertex 1.39799 1.80567 3.2
    endloop
  endfacet
  facet normal 0 0 1
    outer loop
      vertex 2.20201 1.16354 3.2
      vertex 1.35886 1.46242 3.2
      vertex 2.00897 0.858451 3.2
    endloop
  endfacet
  facet normal -0 0 1
    outer loop
      vertex 1.24146 1.17347 3.2
      vertex 2.00897 0.858451 3.2
      vertex 1.35886 1.46242 3.2
    endloop
  endfacet
  facet normal 0 0 1
    outer loop
      vertex 2.31784 1.51015 3.2
      vertex 1.35886 1.46242 3.2
      vertex 2.20201 1.16354 3.2
    endloop
  endfacet
  facet normal 0 0 1
    outer loop
      vertex 1.04579 2.67254 3.2
      vertex 1.74779 3.25434 3.2
      vertex 1.29095 3.5312 3.2
    endloop
  endfacet
  facet normal 0 0 1
    outer loop
      vertex 2.08594 2.88218 3.2
      vertex 1.24146 2.43787 3.2
      vertex 1.35886 2.14892 3.2
    endloop
  endfacet
  facet normal 0 0 1
    outer loop
      vertex 1.74779 3.25434 3.2
      vertex 1.04579 2.67254 3.2
      vertex 1.24146 2.43787 3.2
    endloop
  endfacet
  facet normal 0 0 1
    outer loop
      vertex 1.29095 3.5312 3.2
      vertex 0.780899 2.84547 3.2
      vertex 1.04579 2.67254 3.2
    endloop
  endfacet
  facet normal 0 0 1
    outer loop
      vertex 0.731888 3.6973 3.2
      vertex 0.780899 2.84547 3.2
      vertex 1.29095 3.5312 3.2
    endloop
  endfacet
  facet normal 0 0 1
    outer loop
      vertex 0.731888 3.6973 3.2
      vertex 0.455841 2.94924 3.2
      vertex 0.780899 2.84547 3.2
    endloop
  endfacet
  facet normal 0 0 1
    outer loop
      vertex 0.0705872 3.75268 3.2
      vertex 0.455841 2.94924 3.2
      vertex 0.731888 3.6973 3.2
    endloop
  endfacet
  facet normal 0 0 1
    outer loop
      vertex 0.0705872 3.75268 3.2
      vertex 0.0705872 2.98382 3.2
      vertex 0.455841 2.94924 3.2
    endloop
  endfacet
  facet normal 0 0 1
    outer loop
      vertex 0.0705872 3.75268 3.2
      vertex -0.316742 2.94924 3.2
      vertex 0.0705872 2.98382 3.2
    endloop
  endfacet
  facet normal -0 0 1
    outer loop
      vertex -0.588333 3.6973 3.2
      vertex -0.316742 2.94924 3.2
      vertex 0.0705872 3.75268 3.2
    endloop
  endfacet
  facet normal 0 0 1
    outer loop
      vertex -0.588333 3.6973 3.2
      vertex -0.641815 2.84547 3.2
      vertex -0.316742 2.94924 3.2
    endloop
  endfacet
  facet normal -0 0 1
    outer loop
      vertex -1.14662 3.5312 3.2
      vertex -0.641815 2.84547 3.2
      vertex -0.588333 3.6973 3.2
    endloop
  endfacet
  facet normal 0 0 1
    outer loop
      vertex -0.641815 2.84547 3.2
      vertex -1.14662 3.5312 3.2
      vertex -0.904602 2.67254 3.2
    endloop
  endfacet
  facet normal -0 0 1
    outer loop
      vertex -1.60426 3.25434 3.2
      vertex -0.904602 2.67254 3.2
      vertex -1.14662 3.5312 3.2
    endloop
  endfacet
  facet normal 0 0 1
    outer loop
      vertex -0.904602 2.67254 3.2
      vertex -1.60426 3.25434 3.2
      vertex -1.0976 2.43787 3.2
    endloop
  endfacet
  facet normal -0 0 1
    outer loop
      vertex -1.9437 2.88218 3.2
      vertex -1.0976 2.43787 3.2
      vertex -1.60426 3.25434 3.2
    endloop
  endfacet
  facet normal 0 0 1
    outer loop
      vertex -1.0976 2.43787 3.2
      vertex -1.9437 2.88218 3.2
      vertex -1.21339 2.14892 3.2
    endloop
  endfacet
  facet normal -0 0 1
    outer loop
      vertex -2.14737 2.43017 3.2
      vertex -1.21339 2.14892 3.2
      vertex -1.9437 2.88218 3.2
    endloop
  endfacet
  facet normal 0 -0 1
    outer loop
      vertex -2.17665 1.51015 3.2
      vertex -1.252 1.80567 3.2
      vertex -2.21526 1.89831 3.2
    endloop
  endfacet
  facet normal 0 0 1
    outer loop
      vertex -1.252 1.80567 3.2
      vertex -1.60559 0.604514 3.2
      vertex -1.2821 0.411277 3.2
    endloop
  endfacet
  facet normal 0 0 1
    outer loop
      vertex -2.21526 1.89831 3.2
      vertex -1.21339 2.14892 3.2
      vertex -2.14737 2.43017 3.2
    endloop
  endfacet
  facet normal 0 -0 1
    outer loop
      vertex -2.06085 1.16354 3.2
      vertex -1.252 1.80567 3.2
      vertex -2.17665 1.51015 3.2
    endloop
  endfacet
  facet normal 0 0 1
    outer loop
      vertex -1.21339 2.14892 3.2
      vertex -2.21526 1.89831 3.2
      vertex -1.252 1.80567 3.2
    endloop
  endfacet
  facet normal 0 0 1
    outer loop
      vertex -1.252 1.80567 3.2
      vertex -1.86786 0.858451 3.2
      vertex -1.60559 0.604514 3.2
    endloop
  endfacet
  facet normal 0 0 1
    outer loop
      vertex -1.252 1.80567 3.2
      vertex -2.06085 1.16354 3.2
      vertex -1.86786 0.858451 3.2
    endloop
  endfacet
  facet normal 0 0 1
    outer loop
      vertex 2.00897 0.858451 3.2
      vertex 1.24146 1.17347 3.2
      vertex 1.74728 0.604514 3.2
    endloop
  endfacet
  facet normal -0 0 1
    outer loop
      vertex 1.04579 0.938804 3.2
      vertex 1.74728 0.604514 3.2
      vertex 1.24146 1.17347 3.2
    endloop
  endfacet
  facet normal 0 0 1
    outer loop
      vertex 1.74728 0.604514 3.2
      vertex 1.04579 0.938804 3.2
      vertex 1.42543 0.411277 3.2
    endloop
  endfacet
  facet normal 0 0 1
    outer loop
      vertex 1.04579 0.938804 3.2
      vertex 1.04338 0.278708 3.2
      vertex 1.42543 0.411277 3.2
    endloop
  endfacet
  facet normal -0 0 1
    outer loop
      vertex 0.780899 0.765861 3.2
      vertex 1.04338 0.278708 3.2
      vertex 1.04579 0.938804 3.2
    endloop
  endfacet
  facet normal -0 0 1
    outer loop
      vertex 0.455841 0.662101 3.2
      vertex 1.04338 0.278708 3.2
      vertex 0.780899 0.765861 3.2
    endloop
  endfacet
  facet normal 0 0 1
    outer loop
      vertex 1.04338 0.278708 3.2
      vertex 0.500549 -0.173332 3.2
      vertex 0.863937 -0.296455 3.2
    endloop
  endfacet
  facet normal 0 0 1
    outer loop
      vertex 1.04338 0.278708 3.2
      vertex 0.455841 0.662101 3.2
      vertex 0.500549 -0.173332 3.2
    endloop
  endfacet
  facet normal 0 0 1
    outer loop
      vertex 0.0705872 -0.132301 3.2
      vertex 0.455841 0.662101 3.2
      vertex 0.0705872 0.627509 3.2
    endloop
  endfacet
  facet normal 0 0 1
    outer loop
      vertex 0.455841 0.662101 3.2
      vertex 0.0705872 -0.132301 3.2
      vertex 0.500549 -0.173332 3.2
    endloop
  endfacet
  facet normal 0 0 1
    outer loop
      vertex -0.316742 0.662101 3.2
      vertex 0.0705872 -0.132301 3.2
      vertex 0.0705872 0.627509 3.2
    endloop
  endfacet
  facet normal 0 0 1
    outer loop
      vertex -0.316742 0.662101 3.2
      vertex -0.356689 -0.173332 3.2
      vertex 0.0705872 -0.132301 3.2
    endloop
  endfacet
  facet normal 0 0 1
    outer loop
      vertex -0.897385 0.278708 3.2
      vertex -0.316742 0.662101 3.2
      vertex -0.641815 0.765861 3.2
    endloop
  endfacet
  facet normal 0 0 1
    outer loop
      vertex -0.316742 0.662101 3.2
      vertex -0.897385 0.278708 3.2
      vertex -0.356689 -0.173332 3.2
    endloop
  endfacet
  facet normal 0 0 1
    outer loop
      vertex -0.356689 -0.173332 3.2
      vertex -0.897385 0.278708 3.2
      vertex -0.718506 -0.296455 3.2
    endloop
  endfacet
  facet normal 0 0 1
    outer loop
      vertex -0.904602 0.938804 3.2
      vertex -0.897385 0.278708 3.2
      vertex -0.641815 0.765861 3.2
    endloop
  endfacet
  facet normal 0 0 1
    outer loop
      vertex -1.2821 0.411277 3.2
      vertex -0.904602 0.938804 3.2
      vertex -1.0976 1.17347 3.2
    endloop
  endfacet
  facet normal 0 0 1
    outer loop
      vertex -1.2821 0.411277 3.2
      vertex -1.0976 1.17347 3.2
      vertex -1.21339 1.46242 3.2
    endloop
  endfacet
  facet normal 0 0 1
    outer loop
      vertex -0.904602 0.938804 3.2
      vertex -1.2821 0.411277 3.2
      vertex -0.897385 0.278708 3.2
    endloop
  endfacet
  facet normal 0 0 1
    outer loop
      vertex -1.2821 0.411277 3.2
      vertex -1.21339 1.46242 3.2
      vertex -1.252 1.80567 3.2
    endloop
  endfacet
  facet normal 0 0 1
    outer loop
      vertex 2.48074 -1.08617 3.2
      vertex 1.51221 -1.11773 3.2
      vertex 1.55615 -1.51849 3.2
    endloop
  endfacet
  facet normal 0 0 1
    outer loop
      vertex 1.16077 -0.501671 3.2
      vertex 1.83887 -0.0773392 3.2
      vertex 1.47548 0.135322 3.2
    endloop
  endfacet
  facet normal 0 0 1
    outer loop
      vertex 2.13356 -0.359276 3.2
      vertex 1.38042 -0.778786 3.2
      vertex 1.51221 -1.11773 3.2
    endloop
  endfacet
  facet normal 0 0 1
    outer loop
      vertex 1.83887 -0.0773392 3.2
      vertex 1.16077 -0.501671 3.2
      vertex 1.38042 -0.778786 3.2
    endloop
  endfacet
  facet normal 0 0 1
    outer loop
      vertex 0.863937 -0.296455 3.2
      vertex 1.47548 0.135322 3.2
      vertex 1.04338 0.278708 3.2
    endloop
  endfacet
  facet normal 0 0 1
    outer loop
      vertex 1.47548 0.135322 3.2
      vertex 0.863937 -0.296455 3.2
      vertex 1.16077 -0.501671 3.2
    endloop
  endfacet
  facet normal -0 0 1
    outer loop
      vertex 1.55615 -1.51849 3.2
      vertex 2.52414 -1.51998 3.2
      vertex 2.48074 -1.08617 3.2
    endloop
  endfacet
  facet normal 0 0 1
    outer loop
      vertex 1.51221 -1.11773 3.2
      vertex 2.48074 -1.08617 3.2
      vertex 2.35056 -0.699272 3.2
    endloop
  endfacet
  facet normal 0 0 1
    outer loop
      vertex 1.51195 -1.91686 3.2
      vertex 2.52414 -1.51998 3.2
      vertex 1.55615 -1.51849 3.2
    endloop
  endfacet
  facet normal 0 0 1
    outer loop
      vertex 1.51221 -1.11773 3.2
      vertex 2.35056 -0.699272 3.2
      vertex 2.13356 -0.359276 3.2
    endloop
  endfacet
  facet normal 0 0 1
    outer loop
      vertex 2.52414 -1.51998 3.2
      vertex 1.51195 -1.91686 3.2
      vertex 2.45358 -2.16001 3.2
    endloop
  endfacet
  facet normal 0 0 1
    outer loop
      vertex 1.38042 -0.778786 3.2
      vertex 2.13356 -0.359276 3.2
      vertex 1.83887 -0.0773392 3.2
    endloop
  endfacet
  facet normal 0 0 1
    outer loop
      vertex 2.45358 -2.16001 3.2
      vertex 1.51195 -1.91686 3.2
      vertex 2.24194 -2.69242 3.2
    endloop
  endfacet
  facet normal -0 0 1
    outer loop
      vertex 1.37935 -2.25503 3.2
      vertex 2.24194 -2.69242 3.2
      vertex 1.51195 -1.91686 3.2
    endloop
  endfacet
  facet normal 0 0 1
    outer loop
      vertex 2.24194 -2.69242 3.2
      vertex 1.37935 -2.25503 3.2
      vertex 1.88919 -3.11718 3.2
    endloop
  endfacet
  facet normal -0 0 1
    outer loop
      vertex 1.15836 -2.53298 3.2
      vertex 1.88919 -3.11718 3.2
      vertex 1.37935 -2.25503 3.2
    endloop
  endfacet
  facet normal 0 0 1
    outer loop
      vertex 1.88919 -3.11718 3.2
      vertex 1.15836 -2.53298 3.2
      vertex 1.40494 -3.42628 3.2
    endloop
  endfacet
  facet normal -0 0 1
    outer loop
      vertex 0.860733 -2.73949 3.2
      vertex 1.40494 -3.42628 3.2
      vertex 1.15836 -2.53298 3.2
    endloop
  endfacet
  facet normal 0 0 1
    outer loop
      vertex 0.860733 -2.73949 3.2
      vertex 0.798737 -3.61172 3.2
      vertex 1.40494 -3.42628 3.2
    endloop
  endfacet
  facet normal -0 0 1
    outer loop
      vertex 0.498154 -2.8634 3.2
      vertex 0.798737 -3.61172 3.2
      vertex 0.860733 -2.73949 3.2
    endloop
  endfacet
  facet normal 0 0 1
    outer loop
      vertex 0.0705872 -3.67353 3.2
      vertex 0.498154 -2.8634 3.2
      vertex 0.0705872 -2.90469 3.2
    endloop
  endfacet
  facet normal 0 0 1
    outer loop
      vertex 0.498154 -2.8634 3.2
      vertex 0.0705872 -3.67353 3.2
      vertex 0.798737 -3.61172 3.2
    endloop
  endfacet
  facet normal 0 0 1
    outer loop
      vertex -0.356689 -2.86366 3.2
      vertex 0.0705872 -3.67353 3.2
      vertex 0.0705872 -2.90469 3.2
    endloop
  endfacet
  facet normal 0 0 1
    outer loop
      vertex -0.356689 -2.86366 3.2
      vertex -0.657532 -3.61172 3.2
      vertex 0.0705872 -3.67353 3.2
    endloop
  endfacet
  facet normal 0 0 1
    outer loop
      vertex -0.718506 -2.74055 3.2
      vertex -0.657532 -3.61172 3.2
      vertex -0.356689 -2.86366 3.2
    endloop
  endfacet
  facet normal 0 0 1
    outer loop
      vertex -1.26373 -3.42628 3.2
      vertex -0.718506 -2.74055 3.2
      vertex -1.01483 -2.53539 3.2
    endloop
  endfacet
  facet normal 0 0 1
    outer loop
      vertex -1.748 -3.11718 3.2
      vertex -1.01483 -2.53539 3.2
      vertex -1.23445 -2.25823 3.2
    endloop
  endfacet
  facet normal 0 0 1
    outer loop
      vertex -0.718506 -2.74055 3.2
      vertex -1.26373 -3.42628 3.2
      vertex -0.657532 -3.61172 3.2
    endloop
  endfacet
  facet normal 0 0 1
    outer loop
      vertex -2.10074 -2.69242 3.2
      vertex -1.23445 -2.25823 3.2
      vertex -1.36623 -1.91927 3.2
    endloop
  endfacet
  facet normal -0 0 1
    outer loop
      vertex -2.38293 -1.51998 3.2
      vertex -1.36623 -1.91927 3.2
      vertex -1.41014 -1.51849 3.2
    endloop
  endfacet
  facet normal 0 0 1
    outer loop
      vertex -1.23445 -0.778786 3.2
      vertex -2.20831 -0.699272 3.2
      vertex -1.36623 -1.11773 3.2
    endloop
  endfacet
  facet normal 0 0 1
    outer loop
      vertex -1.36623 -1.91927 3.2
      vertex -2.31239 -2.16001 3.2
      vertex -2.10074 -2.69242 3.2
    endloop
  endfacet
  facet normal -0 0 1
    outer loop
      vertex -2.33928 -1.08617 3.2
      vertex -1.36623 -1.11773 3.2
      vertex -2.20831 -0.699272 3.2
    endloop
  endfacet
  facet normal 0 0 1
    outer loop
      vertex -1.01483 -2.53539 3.2
      vertex -1.748 -3.11718 3.2
      vertex -1.26373 -3.42628 3.2
    endloop
  endfacet
  facet normal 0 0 1
    outer loop
      vertex -1.36623 -1.11773 3.2
      vertex -2.33928 -1.08617 3.2
      vertex -1.41014 -1.51849 3.2
    endloop
  endfacet
  facet normal 0 0 1
    outer loop
      vertex -1.23445 -2.25823 3.2
      vertex -2.10074 -2.69242 3.2
      vertex -1.748 -3.11718 3.2
    endloop
  endfacet
  facet normal 0 0 1
    outer loop
      vertex -1.41014 -1.51849 3.2
      vertex -2.33928 -1.08617 3.2
      vertex -2.38293 -1.51998 3.2
    endloop
  endfacet
  facet normal 0 0 1
    outer loop
      vertex -1.36623 -1.91927 3.2
      vertex -2.38293 -1.51998 3.2
      vertex -2.31239 -2.16001 3.2
    endloop
  endfacet
  facet normal -0 0 1
    outer loop
      vertex -1.32976 0.135322 3.2
      vertex -0.718506 -0.296455 3.2
      vertex -0.897385 0.278708 3.2
    endloop
  endfacet
  facet normal 0 0 1
    outer loop
      vertex -0.718506 -0.296455 3.2
      vertex -1.32976 0.135322 3.2
      vertex -1.01483 -0.501671 3.2
    endloop
  endfacet
  facet normal -0 0 1
    outer loop
      vertex -1.69397 -0.0773392 3.2
      vertex -1.01483 -0.501671 3.2
      vertex -1.32976 0.135322 3.2
    endloop
  endfacet
  facet normal 0 0 1
    outer loop
      vertex -1.01483 -0.501671 3.2
      vertex -1.69397 -0.0773392 3.2
      vertex -1.23445 -0.778786 3.2
    endloop
  endfacet
  facet normal -0 0 1
    outer loop
      vertex -1.99004 -0.359276 3.2
      vertex -1.23445 -0.778786 3.2
      vertex -1.69397 -0.0773392 3.2
    endloop
  endfacet
  facet normal -0 0 1
    outer loop
      vertex -2.20831 -0.699272 3.2
      vertex -1.23445 -0.778786 3.2
      vertex -1.99004 -0.359276 3.2
    endloop
  endfacet
  facet normal -0.292523 0.956258 0
    outer loop
      vertex 1.40494 -3.42628 3.2
      vertex 0.798737 -3.61172 6.2
      vertex 1.40494 -3.42628 6.2
    endloop
  endfacet
  facet normal -0.292523 0.956258 0
    outer loop
      vertex 0.798737 -3.61172 6.2
      vertex 1.40494 -3.42628 3.2
      vertex 0.798737 -3.61172 3.2
    endloop
  endfacet
  facet normal -0.538041 0.842919 0
    outer loop
      vertex 1.88919 -3.11718 3.2
      vertex 1.40494 -3.42628 6.2
      vertex 1.88919 -3.11718 6.2
    endloop
  endfacet
  facet normal -0.538041 0.842919 0
    outer loop
      vertex 1.40494 -3.42628 6.2
      vertex 1.88919 -3.11718 3.2
      vertex 1.40494 -3.42628 3.2
    endloop
  endfacet
  facet normal -0.769304 0.638883 0
    outer loop
      vertex 1.88919 -3.11718 3.2
      vertex 2.24194 -2.69242 6.2
      vertex 2.24194 -2.69242 3.2
    endloop
  endfacet
  facet normal -0.769304 0.638883 0
    outer loop
      vertex 2.24194 -2.69242 6.2
      vertex 1.88919 -3.11718 3.2
      vertex 1.88919 -3.11718 6.2
    endloop
  endfacet
  facet normal -0.929271 0.369398 0
    outer loop
      vertex 2.24194 -2.69242 3.2
      vertex 2.45358 -2.16001 6.2
      vertex 2.45358 -2.16001 3.2
    endloop
  endfacet
  facet normal -0.929271 0.369398 0
    outer loop
      vertex 2.45358 -2.16001 6.2
      vertex 2.24194 -2.69242 3.2
      vertex 2.24194 -2.69242 6.2
    endloop
  endfacet
  facet normal -0.993978 0.109581 0
    outer loop
      vertex 2.45358 -2.16001 3.2
      vertex 2.52414 -1.51998 6.2
      vertex 2.52414 -1.51998 3.2
    endloop
  endfacet
  facet normal -0.993978 0.109581 0
    outer loop
      vertex 2.52414 -1.51998 6.2
      vertex 2.45358 -2.16001 3.2
      vertex 2.45358 -2.16001 6.2
    endloop
  endfacet
  facet normal -0.995033 -0.0995469 0
    outer loop
      vertex 2.52414 -1.51998 3.2
      vertex 2.48074 -1.08617 6.2
      vertex 2.48074 -1.08617 3.2
    endloop
  endfacet
  facet normal -0.995033 -0.0995469 0
    outer loop
      vertex 2.48074 -1.08617 6.2
      vertex 2.52414 -1.51998 3.2
      vertex 2.52414 -1.51998 6.2
    endloop
  endfacet
  facet normal -0.947787 -0.318903 0
    outer loop
      vertex 2.48074 -1.08617 3.2
      vertex 2.35056 -0.699272 6.2
      vertex 2.35056 -0.699272 3.2
    endloop
  endfacet
  facet normal -0.947787 -0.318903 0
    outer loop
      vertex 2.35056 -0.699272 6.2
      vertex 2.48074 -1.08617 3.2
      vertex 2.48074 -1.08617 6.2
    endloop
  endfacet
  facet normal -0.842943 -0.538002 0
    outer loop
      vertex 2.35056 -0.699272 3.2
      vertex 2.13356 -0.359276 6.2
      vertex 2.13356 -0.359276 3.2
    endloop
  endfacet
  facet normal -0.842943 -0.538002 0
    outer loop
      vertex 2.13356 -0.359276 6.2
      vertex 2.35056 -0.699272 3.2
      vertex 2.35056 -0.699272 6.2
    endloop
  endfacet
  facet normal -0.691299 -0.722569 0
    outer loop
      vertex 1.83887 -0.0773392 3.2
      vertex 2.13356 -0.359276 6.2
      vertex 1.83887 -0.0773392 6.2
    endloop
  endfacet
  facet normal -0.691299 -0.722569 -0
    outer loop
      vertex 2.13356 -0.359276 6.2
      vertex 1.83887 -0.0773392 3.2
      vertex 2.13356 -0.359276 3.2
    endloop
  endfacet
  facet normal -0.505082 -0.863071 0
    outer loop
      vertex 1.47548 0.135322 3.2
      vertex 1.83887 -0.0773392 6.2
      vertex 1.47548 0.135322 6.2
    endloop
  endfacet
  facet normal -0.505082 -0.863071 -0
    outer loop
      vertex 1.83887 -0.0773392 6.2
      vertex 1.47548 0.135322 3.2
      vertex 1.83887 -0.0773392 3.2
    endloop
  endfacet
  facet normal -0.314948 -0.949109 0
    outer loop
      vertex 1.04338 0.278708 3.2
      vertex 1.47548 0.135322 6.2
      vertex 1.04338 0.278708 6.2
    endloop
  endfacet
  facet normal -0.314948 -0.949109 -0
    outer loop
      vertex 1.47548 0.135322 6.2
      vertex 1.04338 0.278708 3.2
      vertex 1.47548 0.135322 3.2
    endloop
  endfacet
  facet normal -0.327819 0.94474 0
    outer loop
      vertex 1.42543 0.411277 3.2
      vertex 1.04338 0.278708 6.2
      vertex 1.42543 0.411277 6.2
    endloop
  endfacet
  facet normal -0.327819 0.94474 0
    outer loop
      vertex 1.04338 0.278708 6.2
      vertex 1.42543 0.411277 3.2
      vertex 1.04338 0.278708 3.2
    endloop
  endfacet
  facet normal -0.514744 0.857344 0
    outer loop
      vertex 1.74728 0.604514 3.2
      vertex 1.42543 0.411277 6.2
      vertex 1.74728 0.604514 6.2
    endloop
  endfacet
  facet normal -0.514744 0.857344 0
    outer loop
      vertex 1.42543 0.411277 6.2
      vertex 1.74728 0.604514 3.2
      vertex 1.42543 0.411277 3.2
    endloop
  endfacet
  facet normal -0.696396 0.717658 0
    outer loop
      vertex 2.00897 0.858451 3.2
      vertex 1.74728 0.604514 6.2
      vertex 2.00897 0.858451 6.2
    endloop
  endfacet
  facet normal -0.696396 0.717658 0
    outer loop
      vertex 1.74728 0.604514 6.2
      vertex 2.00897 0.858451 3.2
      vertex 1.74728 0.604514 3.2
    endloop
  endfacet
  facet normal -0.845048 0.53469 0
    outer loop
      vertex 2.00897 0.858451 3.2
      vertex 2.20201 1.16354 6.2
      vertex 2.20201 1.16354 3.2
    endloop
  endfacet
  facet normal -0.845048 0.53469 0
    outer loop
      vertex 2.20201 1.16354 6.2
      vertex 2.00897 0.858451 3.2
      vertex 2.00897 0.858451 6.2
    endloop
  endfacet
  facet normal -0.948442 0.31695 0
    outer loop
      vertex 2.20201 1.16354 3.2
      vertex 2.31784 1.51015 6.2
      vertex 2.31784 1.51015 3.2
    endloop
  endfacet
  facet normal -0.948442 0.31695 0
    outer loop
      vertex 2.31784 1.51015 6.2
      vertex 2.20201 1.16354 3.2
      vertex 2.20201 1.16354 6.2
    endloop
  endfacet
  facet normal -0.995089 0.0989808 0
    outer loop
      vertex 2.31784 1.51015 3.2
      vertex 2.35645 1.89831 6.2
      vertex 2.35645 1.89831 3.2
    endloop
  endfacet
  facet normal -0.995089 0.0989808 0
    outer loop
      vertex 2.35645 1.89831 6.2
      vertex 2.31784 1.51015 3.2
      vertex 2.31784 1.51015 6.2
    endloop
  endfacet
  facet normal -0.992012 -0.126142 0
    outer loop
      vertex 2.35645 1.89831 3.2
      vertex 2.28882 2.43017 6.2
      vertex 2.28882 2.43017 3.2
    endloop
  endfacet
  facet normal -0.992012 -0.126142 0
    outer loop
      vertex 2.28882 2.43017 6.2
      vertex 2.35645 1.89831 3.2
      vertex 2.35645 1.89831 6.2
    endloop
  endfacet
  facet normal -0.912317 -0.409484 0
    outer loop
      vertex 2.28882 2.43017 3.2
      vertex 2.08594 2.88218 6.2
      vertex 2.08594 2.88218 3.2
    endloop
  endfacet
  facet normal -0.912317 -0.409484 0
    outer loop
      vertex 2.08594 2.88218 6.2
      vertex 2.28882 2.43017 3.2
      vertex 2.28882 2.43017 6.2
    endloop
  endfacet
  facet normal -0.740116 -0.67248 0
    outer loop
      vertex 2.08594 2.88218 3.2
      vertex 1.74779 3.25434 6.2
      vertex 1.74779 3.25434 3.2
    endloop
  endfacet
  facet normal -0.740116 -0.67248 0
    outer loop
      vertex 1.74779 3.25434 6.2
      vertex 2.08594 2.88218 3.2
      vertex 2.08594 2.88218 6.2
    endloop
  endfacet
  facet normal -0.518284 -0.855208 0
    outer loop
      vertex 1.29095 3.5312 3.2
      vertex 1.74779 3.25434 6.2
      vertex 1.29095 3.5312 6.2
    endloop
  endfacet
  facet normal -0.518284 -0.855208 -0
    outer loop
      vertex 1.74779 3.25434 6.2
      vertex 1.29095 3.5312 3.2
      vertex 1.74779 3.25434 3.2
    endloop
  endfacet
  facet normal -0.284801 -0.958587 0
    outer loop
      vertex 0.731888 3.6973 3.2
      vertex 1.29095 3.5312 6.2
      vertex 0.731888 3.6973 6.2
    endloop
  endfacet
  facet normal -0.284801 -0.958587 -0
    outer loop
      vertex 1.29095 3.5312 6.2
      vertex 0.731888 3.6973 3.2
      vertex 1.29095 3.5312 3.2
    endloop
  endfacet
  facet normal -0.0834519 -0.996512 0
    outer loop
      vertex 0.0705872 3.75268 3.2
      vertex 0.731888 3.6973 6.2
      vertex 0.0705872 3.75268 6.2
    endloop
  endfacet
  facet normal -0.0834519 -0.996512 -0
    outer loop
      vertex 0.731888 3.6973 6.2
      vertex 0.0705872 3.75268 3.2
      vertex 0.731888 3.6973 3.2
    endloop
  endfacet
  facet normal 0.0837513 -0.996487 0
    outer loop
      vertex -0.588333 3.6973 3.2
      vertex 0.0705872 3.75268 6.2
      vertex -0.588333 3.6973 6.2
    endloop
  endfacet
  facet normal 0.0837513 -0.996487 0
    outer loop
      vertex 0.0705872 3.75268 6.2
      vertex -0.588333 3.6973 3.2
      vertex 0.0705872 3.75268 3.2
    endloop
  endfacet
  facet normal 0.285164 -0.958479 0
    outer loop
      vertex -1.14662 3.5312 3.2
      vertex -0.588333 3.6973 6.2
      vertex -1.14662 3.5312 6.2
    endloop
  endfacet
  facet normal 0.285164 -0.958479 0
    outer loop
      vertex -0.588333 3.6973 6.2
      vertex -1.14662 3.5312 3.2
      vertex -0.588333 3.6973 3.2
    endloop
  endfacet
  facet normal 0.517621 -0.85561 0
    outer loop
      vertex -1.60426 3.25434 3.2
      vertex -1.14662 3.5312 6.2
      vertex -1.60426 3.25434 6.2
    endloop
  endfacet
  facet normal 0.517621 -0.85561 0
    outer loop
      vertex -1.14662 3.5312 6.2
      vertex -1.60426 3.25434 3.2
      vertex -1.14662 3.5312 3.2
    endloop
  endfacet
  facet normal 0.73884 -0.673881 0
    outer loop
      vertex -1.9437 2.88218 6.2
      vertex -1.60426 3.25434 3.2
      vertex -1.60426 3.25434 6.2
    endloop
  endfacet
  facet normal 0.73884 -0.673881 0
    outer loop
      vertex -1.60426 3.25434 3.2
      vertex -1.9437 2.88218 6.2
      vertex -1.9437 2.88218 3.2
    endloop
  endfacet
  facet normal 0.911721 -0.41081 0
    outer loop
      vertex -2.14737 2.43017 6.2
      vertex -1.9437 2.88218 3.2
      vertex -1.9437 2.88218 6.2
    endloop
  endfacet
  facet normal 0.911721 -0.41081 0
    outer loop
      vertex -1.9437 2.88218 3.2
      vertex -2.14737 2.43017 6.2
      vertex -2.14737 2.43017 3.2
    endloop
  endfacet
  facet normal 0.991951 -0.126619 0
    outer loop
      vertex -2.21526 1.89831 6.2
      vertex -2.14737 2.43017 3.2
      vertex -2.14737 2.43017 6.2
    endloop
  endfacet
  facet normal 0.991951 -0.126619 0
    outer loop
      vertex -2.14737 2.43017 3.2
      vertex -2.21526 1.89831 6.2
      vertex -2.21526 1.89831 3.2
    endloop
  endfacet
  facet normal 0.995089 0.0989808 0
    outer loop
      vertex -2.17665 1.51015 6.2
      vertex -2.21526 1.89831 3.2
      vertex -2.21526 1.89831 6.2
    endloop
  endfacet
  facet normal 0.995089 0.0989808 0
    outer loop
      vertex -2.21526 1.89831 3.2
      vertex -2.17665 1.51015 6.2
      vertex -2.17665 1.51015 3.2
    endloop
  endfacet
  facet normal 0.948467 0.316876 0
    outer loop
      vertex -2.06085 1.16354 6.2
      vertex -2.17665 1.51015 3.2
      vertex -2.17665 1.51015 6.2
    endloop
  endfacet
  facet normal 0.948467 0.316876 0
    outer loop
      vertex -2.17665 1.51015 3.2
      vertex -2.06085 1.16354 6.2
      vertex -2.06085 1.16354 3.2
    endloop
  endfacet
  facet normal 0.845111 0.534591 0
    outer loop
      vertex -1.86786 0.858451 6.2
      vertex -2.06085 1.16354 3.2
      vertex -2.06085 1.16354 6.2
    endloop
  endfacet
  facet normal 0.845111 0.534591 0
    outer loop
      vertex -2.06085 1.16354 3.2
      vertex -1.86786 0.858451 6.2
      vertex -1.86786 0.858451 3.2
    endloop
  endfacet
  facet normal 0.695602 0.718428 -0
    outer loop
      vertex -1.60559 0.604514 3.2
      vertex -1.86786 0.858451 6.2
      vertex -1.60559 0.604514 6.2
    endloop
  endfacet
  facet normal 0.695602 0.718428 0
    outer loop
      vertex -1.86786 0.858451 6.2
      vertex -1.60559 0.604514 3.2
      vertex -1.86786 0.858451 3.2
    endloop
  endfacet
  facet normal 0.512822 0.858495 -0
    outer loop
      vertex -1.2821 0.411277 3.2
      vertex -1.60559 0.604514 6.2
      vertex -1.2821 0.411277 6.2
    endloop
  endfacet
  facet normal 0.512822 0.858495 0
    outer loop
      vertex -1.60559 0.604514 6.2
      vertex -1.2821 0.411277 3.2
      vertex -1.60559 0.604514 3.2
    endloop
  endfacet
  facet normal 0.32579 0.945442 -0
    outer loop
      vertex -0.897385 0.278708 3.2
      vertex -1.2821 0.411277 6.2
      vertex -0.897385 0.278708 6.2
    endloop
  endfacet
  facet normal 0.32579 0.945442 0
    outer loop
      vertex -1.2821 0.411277 6.2
      vertex -0.897385 0.278708 3.2
      vertex -1.2821 0.411277 3.2
    endloop
  endfacet
  facet normal 0.314767 -0.949169 0
    outer loop
      vertex -1.32976 0.135322 3.2
      vertex -0.897385 0.278708 6.2
      vertex -1.32976 0.135322 6.2
    endloop
  endfacet
  facet normal 0.314767 -0.949169 0
    outer loop
      vertex -0.897385 0.278708 6.2
      vertex -1.32976 0.135322 3.2
      vertex -0.897385 0.278708 3.2
    endloop
  endfacet
  facet normal 0.504234 -0.863567 0
    outer loop
      vertex -1.69397 -0.0773392 3.2
      vertex -1.32976 0.135322 6.2
      vertex -1.69397 -0.0773392 6.2
    endloop
  endfacet
  facet normal 0.504234 -0.863567 0
    outer loop
      vertex -1.32976 0.135322 6.2
      vertex -1.69397 -0.0773392 3.2
      vertex -1.32976 0.135322 3.2
    endloop
  endfacet
  facet normal 0.689611 -0.72418 0
    outer loop
      vertex -1.99004 -0.359276 3.2
      vertex -1.69397 -0.0773392 6.2
      vertex -1.99004 -0.359276 6.2
    endloop
  endfacet
  facet normal 0.689611 -0.72418 0
    outer loop
      vertex -1.69397 -0.0773392 6.2
      vertex -1.99004 -0.359276 3.2
      vertex -1.69397 -0.0773392 3.2
    endloop
  endfacet
  facet normal 0.841515 -0.540234 0
    outer loop
      vertex -2.20831 -0.699272 6.2
      vertex -1.99004 -0.359276 3.2
      vertex -1.99004 -0.359276 6.2
    endloop
  endfacet
  facet normal 0.841515 -0.540234 0
    outer loop
      vertex -1.99004 -0.359276 3.2
      vertex -2.20831 -0.699272 6.2
      vertex -2.20831 -0.699272 3.2
    endloop
  endfacet
  facet normal 0.947201 -0.32064 0
    outer loop
      vertex -2.33928 -1.08617 6.2
      vertex -2.20831 -0.699272 3.2
      vertex -2.20831 -0.699272 6.2
    endloop
  endfacet
  facet normal 0.947201 -0.32064 0
    outer loop
      vertex -2.20831 -0.699272 3.2
      vertex -2.33928 -1.08617 6.2
      vertex -2.33928 -1.08617 3.2
    endloop
  endfacet
  facet normal 0.994976 -0.100115 0
    outer loop
      vertex -2.38293 -1.51998 6.2
      vertex -2.33928 -1.08617 3.2
      vertex -2.33928 -1.08617 6.2
    endloop
  endfacet
  facet normal 0.994976 -0.100115 0
    outer loop
      vertex -2.33928 -1.08617 3.2
      vertex -2.38293 -1.51998 6.2
      vertex -2.38293 -1.51998 3.2
    endloop
  endfacet
  facet normal 0.993981 0.10955 0
    outer loop
      vertex -2.31239 -2.16001 6.2
      vertex -2.38293 -1.51998 3.2
      vertex -2.38293 -1.51998 6.2
    endloop
  endfacet
  facet normal 0.993981 0.10955 0
    outer loop
      vertex -2.38293 -1.51998 3.2
      vertex -2.31239 -2.16001 6.2
      vertex -2.31239 -2.16001 3.2
    endloop
  endfacet
  facet normal 0.929265 0.369413 0
    outer loop
      vertex -2.10074 -2.69242 6.2
      vertex -2.31239 -2.16001 3.2
      vertex -2.31239 -2.16001 6.2
    endloop
  endfacet
  facet normal 0.929265 0.369413 0
    outer loop
      vertex -2.31239 -2.16001 3.2
      vertex -2.10074 -2.69242 6.2
      vertex -2.10074 -2.69242 3.2
    endloop
  endfacet
  facet normal 0.769313 0.638872 0
    outer loop
      vertex -1.748 -3.11718 6.2
      vertex -2.10074 -2.69242 3.2
      vertex -2.10074 -2.69242 6.2
    endloop
  endfacet
  facet normal 0.769313 0.638872 0
    outer loop
      vertex -2.10074 -2.69242 3.2
      vertex -1.748 -3.11718 6.2
      vertex -1.748 -3.11718 3.2
    endloop
  endfacet
  facet normal 0.538025 0.842929 -0
    outer loop
      vertex -1.26373 -3.42628 3.2
      vertex -1.748 -3.11718 6.2
      vertex -1.26373 -3.42628 6.2
    endloop
  endfacet
  facet normal 0.538025 0.842929 0
    outer loop
      vertex -1.748 -3.11718 6.2
      vertex -1.26373 -3.42628 3.2
      vertex -1.748 -3.11718 3.2
    endloop
  endfacet
  facet normal 0.292526 0.956258 -0
    outer loop
      vertex -0.657532 -3.61172 3.2
      vertex -1.26373 -3.42628 6.2
      vertex -0.657532 -3.61172 6.2
    endloop
  endfacet
  facet normal 0.292526 0.956258 0
    outer loop
      vertex -1.26373 -3.42628 6.2
      vertex -0.657532 -3.61172 3.2
      vertex -1.26373 -3.42628 3.2
    endloop
  endfacet
  facet normal 0.0845857 0.996416 -0
    outer loop
      vertex 0.0705872 -3.67353 3.2
      vertex -0.657532 -3.61172 6.2
      vertex 0.0705872 -3.67353 6.2
    endloop
  endfacet
  facet normal 0.0845857 0.996416 0
    outer loop
      vertex -0.657532 -3.61172 6.2
      vertex 0.0705872 -3.67353 3.2
      vertex -0.657532 -3.61172 3.2
    endloop
  endfacet
  facet normal -0.0845822 0.996417 0
    outer loop
      vertex 0.798737 -3.61172 3.2
      vertex 0.0705872 -3.67353 6.2
      vertex 0.798737 -3.61172 6.2
    endloop
  endfacet
  facet normal -0.0845822 0.996417 0
    outer loop
      vertex 0.0705872 -3.67353 6.2
      vertex 0.798737 -3.61172 3.2
      vertex 0.0705872 -3.67353 3.2
    endloop
  endfacet
  facet normal -0.304076 -0.952648 0
    outer loop
      vertex -0.641815 0.765861 3.2
      vertex -0.316742 0.662101 6.2
      vertex -0.641815 0.765861 6.2
    endloop
  endfacet
  facet normal -0.304076 -0.952648 -0
    outer loop
      vertex -0.316742 0.662101 6.2
      vertex -0.641815 0.765861 3.2
      vertex -0.316742 0.662101 3.2
    endloop
  endfacet
  facet normal -0.549743 -0.835334 0
    outer loop
      vertex -0.904602 0.938804 3.2
      vertex -0.641815 0.765861 6.2
      vertex -0.904602 0.938804 6.2
    endloop
  endfacet
  facet normal -0.549743 -0.835334 -0
    outer loop
      vertex -0.641815 0.765861 6.2
      vertex -0.904602 0.938804 3.2
      vertex -0.641815 0.765861 3.2
    endloop
  endfacet
  facet normal -0.772344 -0.635204 0
    outer loop
      vertex -0.904602 0.938804 3.2
      vertex -1.0976 1.17347 6.2
      vertex -1.0976 1.17347 3.2
    endloop
  endfacet
  facet normal -0.772344 -0.635204 0
    outer loop
      vertex -1.0976 1.17347 6.2
      vertex -0.904602 0.938804 3.2
      vertex -0.904602 0.938804 6.2
    endloop
  endfacet
  facet normal -0.928244 -0.371972 0
    outer loop
      vertex -1.0976 1.17347 3.2
      vertex -1.21339 1.46242 6.2
      vertex -1.21339 1.46242 3.2
    endloop
  endfacet
  facet normal -0.928244 -0.371972 0
    outer loop
      vertex -1.21339 1.46242 6.2
      vertex -1.0976 1.17347 3.2
      vertex -1.0976 1.17347 6.2
    endloop
  endfacet
  facet normal -0.993733 -0.111779 0
    outer loop
      vertex -1.21339 1.46242 3.2
      vertex -1.252 1.80567 6.2
      vertex -1.252 1.80567 3.2
    endloop
  endfacet
  facet normal -0.993733 -0.111779 0
    outer loop
      vertex -1.252 1.80567 6.2
      vertex -1.21339 1.46242 3.2
      vertex -1.21339 1.46242 6.2
    endloop
  endfacet
  facet normal -0.993733 0.111779 0
    outer loop
      vertex -1.252 1.80567 3.2
      vertex -1.21339 2.14892 6.2
      vertex -1.21339 2.14892 3.2
    endloop
  endfacet
  facet normal -0.993733 0.111779 0
    outer loop
      vertex -1.21339 2.14892 6.2
      vertex -1.252 1.80567 3.2
      vertex -1.252 1.80567 6.2
    endloop
  endfacet
  facet normal -0.928244 0.371972 0
    outer loop
      vertex -1.21339 2.14892 3.2
      vertex -1.0976 2.43787 6.2
      vertex -1.0976 2.43787 3.2
    endloop
  endfacet
  facet normal -0.928244 0.371972 0
    outer loop
      vertex -1.0976 2.43787 6.2
      vertex -1.21339 2.14892 3.2
      vertex -1.21339 2.14892 6.2
    endloop
  endfacet
  facet normal -0.772349 0.635198 0
    outer loop
      vertex -1.0976 2.43787 3.2
      vertex -0.904602 2.67254 6.2
      vertex -0.904602 2.67254 3.2
    endloop
  endfacet
  facet normal -0.772349 0.635198 0
    outer loop
      vertex -0.904602 2.67254 6.2
      vertex -1.0976 2.43787 3.2
      vertex -1.0976 2.43787 6.2
    endloop
  endfacet
  facet normal -0.549714 0.835353 0
    outer loop
      vertex -0.641815 2.84547 3.2
      vertex -0.904602 2.67254 6.2
      vertex -0.641815 2.84547 6.2
    endloop
  endfacet
  facet normal -0.549714 0.835353 0
    outer loop
      vertex -0.904602 2.67254 6.2
      vertex -0.641815 2.84547 3.2
      vertex -0.904602 2.67254 3.2
    endloop
  endfacet
  facet normal -0.304102 0.952639 0
    outer loop
      vertex -0.316742 2.94924 3.2
      vertex -0.641815 2.84547 6.2
      vertex -0.316742 2.94924 6.2
    endloop
  endfacet
  facet normal -0.304102 0.952639 0
    outer loop
      vertex -0.641815 2.84547 6.2
      vertex -0.316742 2.94924 3.2
      vertex -0.641815 2.84547 3.2
    endloop
  endfacet
  facet normal -0.0889244 0.996038 0
    outer loop
      vertex 0.0705872 2.98382 3.2
      vertex -0.316742 2.94924 6.2
      vertex 0.0705872 2.98382 6.2
    endloop
  endfacet
  facet normal -0.0889244 0.996038 0
    outer loop
      vertex -0.316742 2.94924 6.2
      vertex 0.0705872 2.98382 3.2
      vertex -0.316742 2.94924 3.2
    endloop
  endfacet
  facet normal 0.0893996 0.995996 -0
    outer loop
      vertex 0.455841 2.94924 3.2
      vertex 0.0705872 2.98382 6.2
      vertex 0.455841 2.94924 6.2
    endloop
  endfacet
  facet normal 0.0893996 0.995996 0
    outer loop
      vertex 0.0705872 2.98382 6.2
      vertex 0.455841 2.94924 3.2
      vertex 0.0705872 2.98382 3.2
    endloop
  endfacet
  facet normal 0.304115 0.952635 -0
    outer loop
      vertex 0.780899 2.84547 3.2
      vertex 0.455841 2.94924 6.2
      vertex 0.780899 2.84547 6.2
    endloop
  endfacet
  facet normal 0.304115 0.952635 0
    outer loop
      vertex 0.455841 2.94924 6.2
      vertex 0.780899 2.84547 3.2
      vertex 0.455841 2.94924 3.2
    endloop
  endfacet
  facet normal 0.546656 0.837357 -0
    outer loop
      vertex 1.04579 2.67254 3.2
      vertex 0.780899 2.84547 6.2
      vertex 1.04579 2.67254 6.2
    endloop
  endfacet
  facet normal 0.546656 0.837357 0
    outer loop
      vertex 0.780899 2.84547 6.2
      vertex 1.04579 2.67254 3.2
      vertex 0.780899 2.84547 3.2
    endloop
  endfacet
  facet normal 0.768042 0.6404 0
    outer loop
      vertex 1.24146 2.43787 6.2
      vertex 1.04579 2.67254 3.2
      vertex 1.04579 2.67254 6.2
    endloop
  endfacet
  facet normal 0.768042 0.6404 0
    outer loop
      vertex 1.04579 2.67254 3.2
      vertex 1.24146 2.43787 6.2
      vertex 1.24146 2.43787 3.2
    endloop
  endfacet
  facet normal 0.926451 0.376416 0
    outer loop
      vertex 1.35886 2.14892 6.2
      vertex 1.24146 2.43787 3.2
      vertex 1.24146 2.43787 6.2
    endloop
  endfacet
  facet normal 0.926451 0.376416 0
    outer loop
      vertex 1.24146 2.43787 3.2
      vertex 1.35886 2.14892 6.2
      vertex 1.35886 2.14892 3.2
    endloop
  endfacet
  facet normal 0.993565 0.113265 0
    outer loop
      vertex 1.39799 1.80567 6.2
      vertex 1.35886 2.14892 3.2
      vertex 1.35886 2.14892 6.2
    endloop
  endfacet
  facet normal 0.993565 0.113265 0
    outer loop
      vertex 1.35886 2.14892 3.2
      vertex 1.39799 1.80567 6.2
      vertex 1.39799 1.80567 3.2
    endloop
  endfacet
  facet normal 0.993565 -0.113265 0
    outer loop
      vertex 1.35886 1.46242 6.2
      vertex 1.39799 1.80567 3.2
      vertex 1.39799 1.80567 6.2
    endloop
  endfacet
  facet normal 0.993565 -0.113265 0
    outer loop
      vertex 1.39799 1.80567 3.2
      vertex 1.35886 1.46242 6.2
      vertex 1.35886 1.46242 3.2
    endloop
  endfacet
  facet normal 0.926451 -0.376416 0
    outer loop
      vertex 1.24146 1.17347 6.2
      vertex 1.35886 1.46242 3.2
      vertex 1.35886 1.46242 6.2
    endloop
  endfacet
  facet normal 0.926451 -0.376416 0
    outer loop
      vertex 1.35886 1.46242 3.2
      vertex 1.24146 1.17347 6.2
      vertex 1.24146 1.17347 3.2
    endloop
  endfacet
  facet normal 0.768036 -0.640407 0
    outer loop
      vertex 1.04579 0.938804 6.2
      vertex 1.24146 1.17347 3.2
      vertex 1.24146 1.17347 6.2
    endloop
  endfacet
  facet normal 0.768036 -0.640407 0
    outer loop
      vertex 1.24146 1.17347 3.2
      vertex 1.04579 0.938804 6.2
      vertex 1.04579 0.938804 3.2
    endloop
  endfacet
  facet normal 0.546685 -0.837339 0
    outer loop
      vertex 0.780899 0.765861 3.2
      vertex 1.04579 0.938804 6.2
      vertex 0.780899 0.765861 6.2
    endloop
  endfacet
  facet normal 0.546685 -0.837339 0
    outer loop
      vertex 1.04579 0.938804 6.2
      vertex 0.780899 0.765861 3.2
      vertex 1.04579 0.938804 3.2
    endloop
  endfacet
  facet normal 0.304088 -0.952644 0
    outer loop
      vertex 0.455841 0.662101 3.2
      vertex 0.780899 0.765861 6.2
      vertex 0.455841 0.662101 6.2
    endloop
  endfacet
  facet normal 0.304088 -0.952644 0
    outer loop
      vertex 0.780899 0.765861 6.2
      vertex 0.455841 0.662101 3.2
      vertex 0.780899 0.765861 3.2
    endloop
  endfacet
  facet normal 0.0894304 -0.995993 0
    outer loop
      vertex 0.0705872 0.627509 3.2
      vertex 0.455841 0.662101 6.2
      vertex 0.0705872 0.627509 6.2
    endloop
  endfacet
  facet normal 0.0894304 -0.995993 0
    outer loop
      vertex 0.455841 0.662101 6.2
      vertex 0.0705872 0.627509 3.2
      vertex 0.455841 0.662101 3.2
    endloop
  endfacet
  facet normal -0.088955 -0.996036 0
    outer loop
      vertex -0.316742 0.662101 3.2
      vertex 0.0705872 0.627509 6.2
      vertex -0.316742 0.662101 6.2
    endloop
  endfacet
  facet normal -0.088955 -0.996036 -0
    outer loop
      vertex 0.0705872 0.627509 6.2
      vertex -0.316742 0.662101 3.2
      vertex 0.0705872 0.627509 3.2
    endloop
  endfacet
  facet normal -0.322119 -0.946699 0
    outer loop
      vertex -0.718506 -2.74055 3.2
      vertex -0.356689 -2.86366 6.2
      vertex -0.718506 -2.74055 6.2
    endloop
  endfacet
  facet normal -0.322119 -0.946699 -0
    outer loop
      vertex -0.356689 -2.86366 6.2
      vertex -0.718506 -2.74055 3.2
      vertex -0.356689 -2.86366 3.2
    endloop
  endfacet
  facet normal -0.569234 -0.822176 0
    outer loop
      vertex -1.01483 -2.53539 3.2
      vertex -0.718506 -2.74055 6.2
      vertex -1.01483 -2.53539 6.2
    endloop
  endfacet
  facet normal -0.569234 -0.822176 -0
    outer loop
      vertex -0.718506 -2.74055 6.2
      vertex -1.01483 -2.53539 3.2
      vertex -0.718506 -2.74055 3.2
    endloop
  endfacet
  facet normal -0.783768 -0.621053 0
    outer loop
      vertex -1.01483 -2.53539 3.2
      vertex -1.23445 -2.25823 6.2
      vertex -1.23445 -2.25823 3.2
    endloop
  endfacet
  facet normal -0.783768 -0.621053 0
    outer loop
      vertex -1.23445 -2.25823 6.2
      vertex -1.01483 -2.53539 3.2
      vertex -1.01483 -2.53539 6.2
    endloop
  endfacet
  facet normal -0.93204 -0.362356 0
    outer loop
      vertex -1.23445 -2.25823 3.2
      vertex -1.36623 -1.91927 6.2
      vertex -1.36623 -1.91927 3.2
    endloop
  endfacet
  facet normal -0.93204 -0.362356 0
    outer loop
      vertex -1.36623 -1.91927 6.2
      vertex -1.23445 -2.25823 3.2
      vertex -1.23445 -2.25823 6.2
    endloop
  endfacet
  facet normal -0.994052 -0.10891 0
    outer loop
      vertex -1.36623 -1.91927 3.2
      vertex -1.41014 -1.51849 6.2
      vertex -1.41014 -1.51849 3.2
    endloop
  endfacet
  facet normal -0.994052 -0.10891 0
    outer loop
      vertex -1.41014 -1.51849 6.2
      vertex -1.36623 -1.91927 3.2
      vertex -1.36623 -1.91927 6.2
    endloop
  endfacet
  facet normal -0.994051 0.108915 0
    outer loop
      vertex -1.41014 -1.51849 3.2
      vertex -1.36623 -1.11773 6.2
      vertex -1.36623 -1.11773 3.2
    endloop
  endfacet
  facet normal -0.994051 0.108915 0
    outer loop
      vertex -1.36623 -1.11773 6.2
      vertex -1.41014 -1.51849 3.2
      vertex -1.41014 -1.51849 6.2
    endloop
  endfacet
  facet normal -0.932034 0.362371 0
    outer loop
      vertex -1.36623 -1.11773 3.2
      vertex -1.23445 -0.778786 6.2
      vertex -1.23445 -0.778786 3.2
    endloop
  endfacet
  facet normal -0.932034 0.362371 0
    outer loop
      vertex -1.23445 -0.778786 6.2
      vertex -1.36623 -1.11773 3.2
      vertex -1.36623 -1.11773 6.2
    endloop
  endfacet
  facet normal -0.783719 0.621115 0
    outer loop
      vertex -1.23445 -0.778786 3.2
      vertex -1.01483 -0.501671 6.2
      vertex -1.01483 -0.501671 3.2
    endloop
  endfacet
  facet normal -0.783719 0.621115 0
    outer loop
      vertex -1.01483 -0.501671 6.2
      vertex -1.23445 -0.778786 3.2
      vertex -1.23445 -0.778786 6.2
    endloop
  endfacet
  facet normal -0.569339 0.822103 0
    outer loop
      vertex -0.718506 -0.296455 3.2
      vertex -1.01483 -0.501671 6.2
      vertex -0.718506 -0.296455 6.2
    endloop
  endfacet
  facet normal -0.569339 0.822103 0
    outer loop
      vertex -1.01483 -0.501671 6.2
      vertex -0.718506 -0.296455 3.2
      vertex -1.01483 -0.501671 3.2
    endloop
  endfacet
  facet normal -0.32215 0.946689 0
    outer loop
      vertex -0.356689 -0.173332 3.2
      vertex -0.718506 -0.296455 6.2
      vertex -0.356689 -0.173332 6.2
    endloop
  endfacet
  facet normal -0.32215 0.946689 0
    outer loop
      vertex -0.718506 -0.296455 6.2
      vertex -0.356689 -0.173332 3.2
      vertex -0.718506 -0.296455 3.2
    endloop
  endfacet
  facet normal -0.0955895 0.995421 0
    outer loop
      vertex 0.0705872 -0.132301 3.2
      vertex -0.356689 -0.173332 6.2
      vertex 0.0705872 -0.132301 6.2
    endloop
  endfacet
  facet normal -0.0955895 0.995421 0
    outer loop
      vertex -0.356689 -0.173332 6.2
      vertex 0.0705872 -0.132301 3.2
      vertex -0.356689 -0.173332 3.2
    endloop
  endfacet
  facet normal 0.0949978 0.995477 -0
    outer loop
      vertex 0.500549 -0.173332 3.2
      vertex 0.0705872 -0.132301 6.2
      vertex 0.500549 -0.173332 6.2
    endloop
  endfacet
  facet normal 0.0949978 0.995477 0
    outer loop
      vertex 0.0705872 -0.132301 6.2
      vertex 0.500549 -0.173332 3.2
      vertex 0.0705872 -0.132301 3.2
    endloop
  endfacet
  facet normal 0.3209 0.947113 -0
    outer loop
      vertex 0.863937 -0.296455 3.2
      vertex 0.500549 -0.173332 6.2
      vertex 0.863937 -0.296455 6.2
    endloop
  endfacet
  facet normal 0.3209 0.947113 0
    outer loop
      vertex 0.500549 -0.173332 6.2
      vertex 0.863937 -0.296455 3.2
      vertex 0.500549 -0.173332 3.2
    endloop
  endfacet
  facet normal 0.568678 0.82256 -0
    outer loop
      vertex 1.16077 -0.501671 3.2
      vertex 0.863937 -0.296455 6.2
      vertex 1.16077 -0.501671 6.2
    endloop
  endfacet
  facet normal 0.568678 0.82256 0
    outer loop
      vertex 0.863937 -0.296455 6.2
      vertex 1.16077 -0.501671 3.2
      vertex 0.863937 -0.296455 3.2
    endloop
  endfacet
  facet normal 0.783678 0.621168 0
    outer loop
      vertex 1.38042 -0.778786 6.2
      vertex 1.16077 -0.501671 3.2
      vertex 1.16077 -0.501671 6.2
    endloop
  endfacet
  facet normal 0.783678 0.621168 0
    outer loop
      vertex 1.16077 -0.501671 3.2
      vertex 1.38042 -0.778786 6.2
      vertex 1.38042 -0.778786 3.2
    endloop
  endfacet
  facet normal 0.932025 0.362395 0
    outer loop
      vertex 1.51221 -1.11773 6.2
      vertex 1.38042 -0.778786 3.2
      vertex 1.38042 -0.778786 6.2
    endloop
  endfacet
  facet normal 0.932025 0.362395 0
    outer loop
      vertex 1.38042 -0.778786 3.2
      vertex 1.51221 -1.11773 6.2
      vertex 1.51221 -1.11773 3.2
    endloop
  endfacet
  facet normal 0.994043 0.108989 0
    outer loop
      vertex 1.55615 -1.51849 6.2
      vertex 1.51221 -1.11773 3.2
      vertex 1.51221 -1.11773 6.2
    endloop
  endfacet
  facet normal 0.994043 0.108989 0
    outer loop
      vertex 1.51221 -1.11773 3.2
      vertex 1.55615 -1.51849 6.2
      vertex 1.55615 -1.51849 3.2
    endloop
  endfacet
  facet normal 0.993901 -0.110275 0
    outer loop
      vertex 1.51195 -1.91686 6.2
      vertex 1.55615 -1.51849 3.2
      vertex 1.55615 -1.51849 6.2
    endloop
  endfacet
  facet normal 0.993901 -0.110275 0
    outer loop
      vertex 1.55615 -1.51849 3.2
      vertex 1.51195 -1.91686 6.2
      vertex 1.51195 -1.91686 3.2
    endloop
  endfacet
  facet normal 0.930988 -0.36505 0
    outer loop
      vertex 1.37935 -2.25503 6.2
      vertex 1.51195 -1.91686 3.2
      vertex 1.51195 -1.91686 6.2
    endloop
  endfacet
  facet normal 0.930988 -0.36505 0
    outer loop
      vertex 1.51195 -1.91686 3.2
      vertex 1.37935 -2.25503 6.2
      vertex 1.37935 -2.25503 3.2
    endloop
  endfacet
  facet normal 0.782747 -0.62234 0
    outer loop
      vertex 1.15836 -2.53298 6.2
      vertex 1.37935 -2.25503 3.2
      vertex 1.37935 -2.25503 6.2
    endloop
  endfacet
  facet normal 0.782747 -0.62234 0
    outer loop
      vertex 1.37935 -2.25503 3.2
      vertex 1.15836 -2.53298 6.2
      vertex 1.15836 -2.53298 3.2
    endloop
  endfacet
  facet normal 0.570069 -0.821597 0
    outer loop
      vertex 0.860733 -2.73949 3.2
      vertex 1.15836 -2.53298 6.2
      vertex 0.860733 -2.73949 6.2
    endloop
  endfacet
  facet normal 0.570069 -0.821597 0
    outer loop
      vertex 1.15836 -2.53298 6.2
      vertex 0.860733 -2.73949 3.2
      vertex 1.15836 -2.53298 3.2
    endloop
  endfacet
  facet normal 0.323384 -0.946268 0
    outer loop
      vertex 0.498154 -2.8634 3.2
      vertex 0.860733 -2.73949 6.2
      vertex 0.498154 -2.8634 6.2
    endloop
  endfacet
  facet normal 0.323384 -0.946268 0
    outer loop
      vertex 0.860733 -2.73949 6.2
      vertex 0.498154 -2.8634 3.2
      vertex 0.860733 -2.73949 3.2
    endloop
  endfacet
  facet normal 0.0961225 -0.99537 0
    outer loop
      vertex 0.0705872 -2.90469 3.2
      vertex 0.498154 -2.8634 6.2
      vertex 0.0705872 -2.90469 6.2
    endloop
  endfacet
  facet normal 0.0961225 -0.99537 0
    outer loop
      vertex 0.498154 -2.8634 6.2
      vertex 0.0705872 -2.90469 3.2
      vertex 0.498154 -2.8634 3.2
    endloop
  endfacet
  facet normal -0.0955872 -0.995421 0
    outer loop
      vertex -0.356689 -2.86366 3.2
      vertex 0.0705872 -2.90469 6.2
      vertex -0.356689 -2.86366 6.2
    endloop
  endfacet
  facet normal -0.0955872 -0.995421 -0
    outer loop
      vertex 0.0705872 -2.90469 6.2
      vertex -0.356689 -2.86366 3.2
      vertex 0.0705872 -2.90469 3.2
    endloop
  endfacet
  facet normal -1 0 0
    outer loop
      vertex 3.53333 -6.36 3.2
      vertex 3.53333 -5.36 6.2
      vertex 3.53333 -5.36 3.2
    endloop
  endfacet
  facet normal -1 -0 0
    outer loop
      vertex 3.53333 -5.36 6.2
      vertex 3.53333 -6.36 3.2
      vertex 3.53333 -6.36 6.2
    endloop
  endfacet
  facet normal -0 0 1
    outer loop
      vertex -3.53333 -5.36 3.2
      vertex 3.53333 -6.36 3.2
      vertex 3.53333 -5.36 3.2
    endloop
  endfacet
  facet normal 0 0 1
    outer loop
      vertex 3.53333 -6.36 3.2
      vertex -3.53333 -5.36 3.2
      vertex -3.53333 -6.36 3.2
    endloop
  endfacet
  facet normal 1 -0 0
    outer loop
      vertex -3.53333 -6.36 6.2
      vertex -3.53333 -5.36 3.2
      vertex -3.53333 -5.36 6.2
    endloop
  endfacet
  facet normal 1 0 0
    outer loop
      vertex -3.53333 -5.36 3.2
      vertex -3.53333 -6.36 6.2
      vertex -3.53333 -6.36 3.2
    endloop
  endfacet
  facet normal 0 -1 0
    outer loop
      vertex -3.53333 -5.36 3.2
      vertex 3.53333 -5.36 6.2
      vertex -3.53333 -5.36 6.2
    endloop
  endfacet
  facet normal 0 -1 -0
    outer loop
      vertex 3.53333 -5.36 6.2
      vertex -3.53333 -5.36 3.2
      vertex 3.53333 -5.36 3.2
    endloop
  endfacet
  facet normal 0 1 -0
    outer loop
      vertex 3.53333 -6.36 3.2
      vertex -3.53333 -6.36 6.2
      vertex 3.53333 -6.36 6.2
    endloop
  endfacet
  facet normal 0 1 0
    outer loop
      vertex -3.53333 -6.36 6.2
      vertex 3.53333 -6.36 3.2
      vertex -3.53333 -6.36 3.2
    endloop
  endfacet
  facet normal -0.866025 0.500001 0
    outer loop
      vertex -8.66667 0 0
      vertex -4.33333 7.50555 6.2
      vertex -4.33333 7.50555 0
    endloop
  endfacet
  facet normal -0.866025 0.500001 0
    outer loop
      vertex -4.33333 7.50555 6.2
      vertex -8.66667 0 0
      vertex -8.66667 0 6.2
    endloop
  endfacet
  facet normal 0 0 -1
    outer loop
      vertex 4.33333 -7.50555 0
      vertex 4.33333 7.50555 0
      vertex 8.66667 0 0
    endloop
  endfacet
  facet normal 0 0 -1
    outer loop
      vertex -4.33333 -7.50555 0
      vertex 4.33333 7.50555 0
      vertex 4.33333 -7.50555 0
    endloop
  endfacet
  facet normal 0 0 -1
    outer loop
      vertex -4.33333 -7.50555 0
      vertex -4.33333 7.50555 0
      vertex 4.33333 7.50555 0
    endloop
  endfacet
  facet normal 0 -0 -1
    outer loop
      vertex -4.33333 7.50555 0
      vertex -4.33333 -7.50555 0
      vertex -8.66667 0 0
    endloop
  endfacet
  facet normal 0.866025 -0.500001 0
    outer loop
      vertex 4.33333 -7.50555 6.2
      vertex 8.66667 0 0
      vertex 8.66667 0 6.2
    endloop
  endfacet
  facet normal 0.866025 -0.500001 0
    outer loop
      vertex 8.66667 0 0
      vertex 4.33333 -7.50555 6.2
      vertex 4.33333 -7.50555 0
    endloop
  endfacet
  facet normal -0 0 1
    outer loop
      vertex 2.28882 2.43017 6.2
      vertex 8.66667 0 6.2
      vertex 4.33333 7.50555 6.2
    endloop
  endfacet
  facet normal 0 0 1
    outer loop
      vertex 8.66667 0 6.2
      vertex 3.53333 -5.36 6.2
      vertex 4.33333 -7.50555 6.2
    endloop
  endfacet
  facet normal 0 0 1
    outer loop
      vertex 2.45358 -2.16001 6.2
      vertex 8.66667 0 6.2
      vertex 2.52414 -1.51998 6.2
    endloop
  endfacet
  facet normal 0 0 1
    outer loop
      vertex 8.66667 0 6.2
      vertex 2.48074 -1.08617 6.2
      vertex 2.52414 -1.51998 6.2
    endloop
  endfacet
  facet normal -0 0 1
    outer loop
      vertex 2.31784 1.51015 6.2
      vertex 8.66667 0 6.2
      vertex 2.35645 1.89831 6.2
    endloop
  endfacet
  facet normal 0 0 1
    outer loop
      vertex 8.66667 0 6.2
      vertex 2.28882 2.43017 6.2
      vertex 2.35645 1.89831 6.2
    endloop
  endfacet
  facet normal 0 0 1
    outer loop
      vertex 4.33333 7.50555 6.2
      vertex 2.08594 2.88218 6.2
      vertex 2.28882 2.43017 6.2
    endloop
  endfacet
  facet normal 0 0 1
    outer loop
      vertex 4.33333 7.50555 6.2
      vertex 1.74779 3.25434 6.2
      vertex 2.08594 2.88218 6.2
    endloop
  endfacet
  facet normal 0 0 1
    outer loop
      vertex 4.33333 7.50555 6.2
      vertex 1.29095 3.5312 6.2
      vertex 1.74779 3.25434 6.2
    endloop
  endfacet
  facet normal 0 0 1
    outer loop
      vertex 4.33333 7.50555 6.2
      vertex 0.731888 3.6973 6.2
      vertex 1.29095 3.5312 6.2
    endloop
  endfacet
  facet normal 0 0 1
    outer loop
      vertex 4.33333 7.50555 6.2
      vertex 0.0705872 3.75268 6.2
      vertex 0.731888 3.6973 6.2
    endloop
  endfacet
  facet normal -0 0 1
    outer loop
      vertex -4.33333 7.50555 6.2
      vertex 0.0705872 3.75268 6.2
      vertex 4.33333 7.50555 6.2
    endloop
  endfacet
  facet normal 0 0 1
    outer loop
      vertex 0.0705872 3.75268 6.2
      vertex -4.33333 7.50555 6.2
      vertex -0.588333 3.6973 6.2
    endloop
  endfacet
  facet normal 0 0 1
    outer loop
      vertex -0.588333 3.6973 6.2
      vertex -4.33333 7.50555 6.2
      vertex -1.14662 3.5312 6.2
    endloop
  endfacet
  facet normal 0 0 1
    outer loop
      vertex -2.20831 -0.699272 6.2
      vertex -8.66667 0 6.2
      vertex -2.33928 -1.08617 6.2
    endloop
  endfacet
  facet normal 0 0 1
    outer loop
      vertex -2.33928 -1.08617 6.2
      vertex -8.66667 0 6.2
      vertex -2.38293 -1.51998 6.2
    endloop
  endfacet
  facet normal 0 0 1
    outer loop
      vertex -8.66667 0 6.2
      vertex -2.21526 1.89831 6.2
      vertex -2.14737 2.43017 6.2
    endloop
  endfacet
  facet normal 0 0 1
    outer loop
      vertex -2.38293 -1.51998 6.2
      vertex -8.66667 0 6.2
      vertex -3.53333 -5.36 6.2
    endloop
  endfacet
  facet normal 0 0 1
    outer loop
      vertex -8.66667 0 6.2
      vertex -2.14737 2.43017 6.2
      vertex -4.33333 7.50555 6.2
    endloop
  endfacet
  facet normal 0 0 1
    outer loop
      vertex -1.9437 2.88218 6.2
      vertex -4.33333 7.50555 6.2
      vertex -2.14737 2.43017 6.2
    endloop
  endfacet
  facet normal 0 0 1
    outer loop
      vertex -1.60426 3.25434 6.2
      vertex -4.33333 7.50555 6.2
      vertex -1.9437 2.88218 6.2
    endloop
  endfacet
  facet normal 0 0 1
    outer loop
      vertex -1.14662 3.5312 6.2
      vertex -4.33333 7.50555 6.2
      vertex -1.60426 3.25434 6.2
    endloop
  endfacet
  facet normal -0 0 1
    outer loop
      vertex 3.53333 -6.36 6.2
      vertex 4.33333 -7.50555 6.2
      vertex 3.53333 -5.36 6.2
    endloop
  endfacet
  facet normal -0 0 1
    outer loop
      vertex -3.53333 -6.36 6.2
      vertex 4.33333 -7.50555 6.2
      vertex 3.53333 -6.36 6.2
    endloop
  endfacet
  facet normal 0 0 1
    outer loop
      vertex -3.53333 -6.36 6.2
      vertex -4.33333 -7.50555 6.2
      vertex 4.33333 -7.50555 6.2
    endloop
  endfacet
  facet normal 0 -0 1
    outer loop
      vertex -4.33333 -7.50555 6.2
      vertex -3.53333 -5.36 6.2
      vertex -8.66667 0 6.2
    endloop
  endfacet
  facet normal 0 0 1
    outer loop
      vertex -3.53333 -5.36 6.2
      vertex -4.33333 -7.50555 6.2
      vertex -3.53333 -6.36 6.2
    endloop
  endfacet
  facet normal 0 0 1
    outer loop
      vertex 8.66667 0 6.2
      vertex 2.45358 -2.16001 6.2
      vertex 3.53333 -5.36 6.2
    endloop
  endfacet
  facet normal -0 0 1
    outer loop
      vertex 2.24194 -2.69242 6.2
      vertex 3.53333 -5.36 6.2
      vertex 2.45358 -2.16001 6.2
    endloop
  endfacet
  facet normal -0 0 1
    outer loop
      vertex 1.88919 -3.11718 6.2
      vertex 3.53333 -5.36 6.2
      vertex 2.24194 -2.69242 6.2
    endloop
  endfacet
  facet normal -0 0 1
    outer loop
      vertex 1.40494 -3.42628 6.2
      vertex 3.53333 -5.36 6.2
      vertex 1.88919 -3.11718 6.2
    endloop
  endfacet
  facet normal -0 0 1
    outer loop
      vertex 0.798737 -3.61172 6.2
      vertex 3.53333 -5.36 6.2
      vertex 1.40494 -3.42628 6.2
    endloop
  endfacet
  facet normal -0 0 1
    outer loop
      vertex 0.0705872 -3.67353 6.2
      vertex 3.53333 -5.36 6.2
      vertex 0.798737 -3.61172 6.2
    endloop
  endfacet
  facet normal 0 0 1
    outer loop
      vertex -3.53333 -5.36 6.2
      vertex 0.0705872 -3.67353 6.2
      vertex -0.657532 -3.61172 6.2
    endloop
  endfacet
  facet normal 0 0 1
    outer loop
      vertex -3.53333 -5.36 6.2
      vertex -0.657532 -3.61172 6.2
      vertex -1.26373 -3.42628 6.2
    endloop
  endfacet
  facet normal 0 0 1
    outer loop
      vertex 0.0705872 -3.67353 6.2
      vertex -3.53333 -5.36 6.2
      vertex 3.53333 -5.36 6.2
    endloop
  endfacet
  facet normal 0 0 1
    outer loop
      vertex -1.748 -3.11718 6.2
      vertex -3.53333 -5.36 6.2
      vertex -1.26373 -3.42628 6.2
    endloop
  endfacet
  facet normal 0 0 1
    outer loop
      vertex -2.10074 -2.69242 6.2
      vertex -3.53333 -5.36 6.2
      vertex -1.748 -3.11718 6.2
    endloop
  endfacet
  facet normal 0 0 1
    outer loop
      vertex -2.31239 -2.16001 6.2
      vertex -3.53333 -5.36 6.2
      vertex -2.10074 -2.69242 6.2
    endloop
  endfacet
  facet normal 0 0 1
    outer loop
      vertex -3.53333 -5.36 6.2
      vertex -2.31239 -2.16001 6.2
      vertex -2.38293 -1.51998 6.2
    endloop
  endfacet
  facet normal 0 -0 1
    outer loop
      vertex 2.35056 -0.699272 6.2
      vertex 8.66667 0 6.2
      vertex 2.31784 1.51015 6.2
    endloop
  endfacet
  facet normal 0 0 1
    outer loop
      vertex 8.66667 0 6.2
      vertex 2.35056 -0.699272 6.2
      vertex 2.48074 -1.08617 6.2
    endloop
  endfacet
  facet normal -0 0 1
    outer loop
      vertex 2.20201 1.16354 6.2
      vertex 2.35056 -0.699272 6.2
      vertex 2.31784 1.51015 6.2
    endloop
  endfacet
  facet normal 0 0 1
    outer loop
      vertex 2.20201 1.16354 6.2
      vertex 2.13356 -0.359276 6.2
      vertex 2.35056 -0.699272 6.2
    endloop
  endfacet
  facet normal -0 0 1
    outer loop
      vertex 2.00897 0.858451 6.2
      vertex 2.13356 -0.359276 6.2
      vertex 2.20201 1.16354 6.2
    endloop
  endfacet
  facet normal 0 0 1
    outer loop
      vertex 2.00897 0.858451 6.2
      vertex 1.83887 -0.0773392 6.2
      vertex 2.13356 -0.359276 6.2
    endloop
  endfacet
  facet normal -0 0 1
    outer loop
      vertex 1.74728 0.604514 6.2
      vertex 1.83887 -0.0773392 6.2
      vertex 2.00897 0.858451 6.2
    endloop
  endfacet
  facet normal 0 0 1
    outer loop
      vertex 1.74728 0.604514 6.2
      vertex 1.47548 0.135322 6.2
      vertex 1.83887 -0.0773392 6.2
    endloop
  endfacet
  facet normal -0 0 1
    outer loop
      vertex 1.42543 0.411277 6.2
      vertex 1.47548 0.135322 6.2
      vertex 1.74728 0.604514 6.2
    endloop
  endfacet
  facet normal 0 0 1
    outer loop
      vertex 1.47548 0.135322 6.2
      vertex 1.42543 0.411277 6.2
      vertex 1.04338 0.278708 6.2
    endloop
  endfacet
  facet normal 0 0 1
    outer loop
      vertex -1.2821 0.411277 6.2
      vertex -1.32976 0.135322 6.2
      vertex -0.897385 0.278708 6.2
    endloop
  endfacet
  facet normal 0 0 1
    outer loop
      vertex -1.60559 0.604514 6.2
      vertex -1.32976 0.135322 6.2
      vertex -1.2821 0.411277 6.2
    endloop
  endfacet
  facet normal 0 0 1
    outer loop
      vertex -1.60559 0.604514 6.2
      vertex -1.69397 -0.0773392 6.2
      vertex -1.32976 0.135322 6.2
    endloop
  endfacet
  facet normal 0 0 1
    outer loop
      vertex -1.86786 0.858451 6.2
      vertex -1.69397 -0.0773392 6.2
      vertex -1.60559 0.604514 6.2
    endloop
  endfacet
  facet normal 0 0 1
    outer loop
      vertex -1.86786 0.858451 6.2
      vertex -1.99004 -0.359276 6.2
      vertex -1.69397 -0.0773392 6.2
    endloop
  endfacet
  facet normal 0 0 1
    outer loop
      vertex -2.06085 1.16354 6.2
      vertex -1.99004 -0.359276 6.2
      vertex -1.86786 0.858451 6.2
    endloop
  endfacet
  facet normal 0 0 1
    outer loop
      vertex -2.20831 -0.699272 6.2
      vertex -2.06085 1.16354 6.2
      vertex -2.17665 1.51015 6.2
    endloop
  endfacet
  facet normal 0 0 1
    outer loop
      vertex -2.06085 1.16354 6.2
      vertex -2.20831 -0.699272 6.2
      vertex -1.99004 -0.359276 6.2
    endloop
  endfacet
  facet normal 0 0 1
    outer loop
      vertex -8.66667 0 6.2
      vertex -2.17665 1.51015 6.2
      vertex -2.21526 1.89831 6.2
    endloop
  endfacet
  facet normal -0 0 1
    outer loop
      vertex -8.66667 0 6.2
      vertex -2.20831 -0.699272 6.2
      vertex -2.17665 1.51015 6.2
    endloop
  endfacet
  facet normal 0 0 1
    outer loop
      vertex 0.500549 -0.173332 6.2
      vertex 1.55615 -1.51849 6.2
      vertex 1.51221 -1.11773 6.2
    endloop
  endfacet
  facet normal 0 0 1
    outer loop
      vertex 0.863937 -0.296455 6.2
      vertex 1.51221 -1.11773 6.2
      vertex 1.38042 -0.778786 6.2
    endloop
  endfacet
  facet normal 0 0 1
    outer loop
      vertex 0.498154 -2.8634 6.2
      vertex 1.55615 -1.51849 6.2
      vertex 0.500549 -0.173332 6.2
    endloop
  endfacet
  facet normal 0 0 1
    outer loop
      vertex 0.863937 -0.296455 6.2
      vertex 1.38042 -0.778786 6.2
      vertex 1.16077 -0.501671 6.2
    endloop
  endfacet
  facet normal 0 0 1
    outer loop
      vertex 1.51221 -1.11773 6.2
      vertex 0.863937 -0.296455 6.2
      vertex 0.500549 -0.173332 6.2
    endloop
  endfacet
  facet normal 0 0 1
    outer loop
      vertex 1.55615 -1.51849 6.2
      vertex 0.498154 -2.8634 6.2
      vertex 1.51195 -1.91686 6.2
    endloop
  endfacet
  facet normal 0 0 1
    outer loop
      vertex 1.37935 -2.25503 6.2
      vertex 0.860733 -2.73949 6.2
      vertex 1.15836 -2.53298 6.2
    endloop
  endfacet
  facet normal 0 -0 1
    outer loop
      vertex 0.860733 -2.73949 6.2
      vertex 1.51195 -1.91686 6.2
      vertex 0.498154 -2.8634 6.2
    endloop
  endfacet
  facet normal 0 0 1
    outer loop
      vertex 1.51195 -1.91686 6.2
      vertex 0.860733 -2.73949 6.2
      vertex 1.37935 -2.25503 6.2
    endloop
  endfacet
  facet normal 0 0 1
    outer loop
      vertex 0.0705872 -0.132301 6.2
      vertex 0.498154 -2.8634 6.2
      vertex 0.500549 -0.173332 6.2
    endloop
  endfacet
  facet normal 0 0 1
    outer loop
      vertex 0.0705872 -0.132301 6.2
      vertex 0.0705872 -2.90469 6.2
      vertex 0.498154 -2.8634 6.2
    endloop
  endfacet
  facet normal -0 0 1
    outer loop
      vertex -0.356689 -0.173332 6.2
      vertex 0.0705872 -2.90469 6.2
      vertex 0.0705872 -0.132301 6.2
    endloop
  endfacet
  facet normal 0 0 1
    outer loop
      vertex -0.356689 -0.173332 6.2
      vertex -0.356689 -2.86366 6.2
      vertex 0.0705872 -2.90469 6.2
    endloop
  endfacet
  facet normal 0 0 1
    outer loop
      vertex -1.36623 -1.11773 6.2
      vertex -0.356689 -0.173332 6.2
      vertex -0.718506 -0.296455 6.2
    endloop
  endfacet
  facet normal 0 0 1
    outer loop
      vertex -0.356689 -0.173332 6.2
      vertex -1.41014 -1.51849 6.2
      vertex -0.356689 -2.86366 6.2
    endloop
  endfacet
  facet normal 0 0 1
    outer loop
      vertex -1.36623 -1.11773 6.2
      vertex -0.718506 -0.296455 6.2
      vertex -1.01483 -0.501671 6.2
    endloop
  endfacet
  facet normal -0 -0 1
    outer loop
      vertex -1.36623 -1.91927 6.2
      vertex -0.356689 -2.86366 6.2
      vertex -1.41014 -1.51849 6.2
    endloop
  endfacet
  facet normal 0 0 1
    outer loop
      vertex -1.36623 -1.11773 6.2
      vertex -1.01483 -0.501671 6.2
      vertex -1.23445 -0.778786 6.2
    endloop
  endfacet
  facet normal 0 0 1
    outer loop
      vertex -0.356689 -2.86366 6.2
      vertex -1.36623 -1.91927 6.2
      vertex -0.718506 -2.74055 6.2
    endloop
  endfacet
  facet normal 0 0 1
    outer loop
      vertex -0.356689 -0.173332 6.2
      vertex -1.36623 -1.11773 6.2
      vertex -1.41014 -1.51849 6.2
    endloop
  endfacet
  facet normal 0 0 1
    outer loop
      vertex -0.718506 -2.74055 6.2
      vertex -1.36623 -1.91927 6.2
      vertex -1.01483 -2.53539 6.2
    endloop
  endfacet
  facet normal 0 0 1
    outer loop
      vertex -1.01483 -2.53539 6.2
      vertex -1.36623 -1.91927 6.2
      vertex -1.23445 -2.25823 6.2
    endloop
  endfacet
  facet normal 0 0 1
    outer loop
      vertex 0.455841 2.94924 6.2
      vertex 1.39799 1.80567 6.2
      vertex 1.35886 2.14892 6.2
    endloop
  endfacet
  facet normal 0 0 1
    outer loop
      vertex 0.780899 2.84547 6.2
      vertex 1.35886 2.14892 6.2
      vertex 1.24146 2.43787 6.2
    endloop
  endfacet
  facet normal 0 0 1
    outer loop
      vertex 0.455841 2.94924 6.2
      vertex 1.35886 2.14892 6.2
      vertex 0.780899 2.84547 6.2
    endloop
  endfacet
  facet normal 0 0 1
    outer loop
      vertex 0.780899 2.84547 6.2
      vertex 1.24146 2.43787 6.2
      vertex 1.04579 2.67254 6.2
    endloop
  endfacet
  facet normal 0 0 1
    outer loop
      vertex 0.455841 0.662101 6.2
      vertex 1.39799 1.80567 6.2
      vertex 0.455841 2.94924 6.2
    endloop
  endfacet
  facet normal 0 0 1
    outer loop
      vertex 1.35886 1.46242 6.2
      vertex 0.780899 0.765861 6.2
      vertex 1.24146 1.17347 6.2
    endloop
  endfacet
  facet normal 0 0 1
    outer loop
      vertex 1.24146 1.17347 6.2
      vertex 0.780899 0.765861 6.2
      vertex 1.04579 0.938804 6.2
    endloop
  endfacet
  facet normal 0 0 1
    outer loop
      vertex 1.39799 1.80567 6.2
      vertex 0.455841 0.662101 6.2
      vertex 1.35886 1.46242 6.2
    endloop
  endfacet
  facet normal 0 0 1
    outer loop
      vertex 1.35886 1.46242 6.2
      vertex 0.455841 0.662101 6.2
      vertex 0.780899 0.765861 6.2
    endloop
  endfacet
  facet normal 0 0 1
    outer loop
      vertex 0.0705872 2.98382 6.2
      vertex 0.455841 0.662101 6.2
      vertex 0.455841 2.94924 6.2
    endloop
  endfacet
  facet normal 0 0 1
    outer loop
      vertex 0.0705872 2.98382 6.2
      vertex 0.0705872 0.627509 6.2
      vertex 0.455841 0.662101 6.2
    endloop
  endfacet
  facet normal -0 0 1
    outer loop
      vertex -0.316742 2.94924 6.2
      vertex 0.0705872 0.627509 6.2
      vertex 0.0705872 2.98382 6.2
    endloop
  endfacet
  facet normal 0 0 1
    outer loop
      vertex -0.316742 2.94924 6.2
      vertex -0.316742 0.662101 6.2
      vertex 0.0705872 0.627509 6.2
    endloop
  endfacet
  facet normal 0 0 1
    outer loop
      vertex -1.252 1.80567 6.2
      vertex -0.316742 2.94924 6.2
      vertex -0.641815 2.84547 6.2
    endloop
  endfacet
  facet normal 0 0 1
    outer loop
      vertex -0.316742 2.94924 6.2
      vertex -1.252 1.80567 6.2
      vertex -0.316742 0.662101 6.2
    endloop
  endfacet
  facet normal 0 0 1
    outer loop
      vertex -1.21339 2.14892 6.2
      vertex -0.641815 2.84547 6.2
      vertex -0.904602 2.67254 6.2
    endloop
  endfacet
  facet normal 0 0 1
    outer loop
      vertex -0.316742 0.662101 6.2
      vertex -1.252 1.80567 6.2
      vertex -0.641815 0.765861 6.2
    endloop
  endfacet
  facet normal 0 0 1
    outer loop
      vertex -1.21339 2.14892 6.2
      vertex -0.904602 2.67254 6.2
      vertex -1.0976 2.43787 6.2
    endloop
  endfacet
  facet normal -0 -0 1
    outer loop
      vertex -1.21339 1.46242 6.2
      vertex -0.641815 0.765861 6.2
      vertex -1.252 1.80567 6.2
    endloop
  endfacet
  facet normal 0 0 1
    outer loop
      vertex -0.641815 2.84547 6.2
      vertex -1.21339 2.14892 6.2
      vertex -1.252 1.80567 6.2
    endloop
  endfacet
  facet normal 0 0 1
    outer loop
      vertex -0.641815 0.765861 6.2
      vertex -1.21339 1.46242 6.2
      vertex -0.904602 0.938804 6.2
    endloop
  endfacet
  facet normal 0 0 1
    outer loop
      vertex -0.904602 0.938804 6.2
      vertex -1.21339 1.46242 6.2
      vertex -1.0976 1.17347 6.2
    endloop
  endfacet
  facet normal 0 1 -0
    outer loop
      vertex 4.33333 7.50555 0
      vertex -4.33333 7.50555 6.2
      vertex 4.33333 7.50555 6.2
    endloop
  endfacet
  facet normal 0 1 0
    outer loop
      vertex -4.33333 7.50555 6.2
      vertex 4.33333 7.50555 0
      vertex -4.33333 7.50555 0
    endloop
  endfacet
  facet normal -0.866025 -0.500001 0
    outer loop
      vertex -4.33333 -7.50555 0
      vertex -8.66667 0 6.2
      vertex -8.66667 0 0
    endloop
  endfacet
  facet normal -0.866025 -0.500001 0
    outer loop
      vertex -8.66667 0 6.2
      vertex -4.33333 -7.50555 0
      vertex -4.33333 -7.50555 6.2
    endloop
  endfacet
  facet normal 0 -1 0
    outer loop
      vertex -4.33333 -7.50555 0
      vertex 4.33333 -7.50555 6.2
      vertex -4.33333 -7.50555 6.2
    endloop
  endfacet
  facet normal 0 -1 -0
    outer loop
      vertex 4.33333 -7.50555 6.2
      vertex -4.33333 -7.50555 0
      vertex 4.33333 -7.50555 0
    endloop
  endfacet
  facet normal 0.866025 0.500001 0
    outer loop
      vertex 8.66667 0 6.2
      vertex 4.33333 7.50555 0
      vertex 4.33333 7.50555 6.2
    endloop
  endfacet
  facet normal 0.866025 0.500001 0
    outer loop
      vertex 4.33333 7.50555 0
      vertex 8.66667 0 6.2
      vertex 8.66667 0 0
    endloop
  endfacet
endsolid OpenSCAD_Model
