solid OpenSCAD_Model
  facet normal 0 0 1
    outer loop
      vertex 1.11577 1.82962 0.7
      vertex 0.922409 1.4447 0.7
      vertex 1.11577 1.36371 0.7
    endloop
  endfacet
  facet normal 0 0 1
    outer loop
      vertex 0.907227 1.89653 0.7
      vertex 0.922409 1.4447 0.7
      vertex 1.11577 1.82962 0.7
    endloop
  endfacet
  facet normal 0 0 1
    outer loop
      vertex 0.907227 1.89653 0.7
      vertex 0.727142 1.504 0.7
      vertex 0.922409 1.4447 0.7
    endloop
  endfacet
  facet normal 0 0 1
    outer loop
      vertex 0.706894 1.94431 0.7
      vertex 0.727142 1.504 0.7
      vertex 0.907227 1.89653 0.7
    endloop
  endfacet
  facet normal 0 0 1
    outer loop
      vertex 0.706894 1.94431 0.7
      vertex 0.531906 1.54035 0.7
      vertex 0.727142 1.504 0.7
    endloop
  endfacet
  facet normal 0 0 1
    outer loop
      vertex 0.511658 1.97298 0.7
      vertex 0.531906 1.54035 0.7
      vertex 0.706894 1.94431 0.7
    endloop
  endfacet
  facet normal 0 0 1
    outer loop
      vertex 0.511658 1.97298 0.7
      vertex 0.338562 1.55246 0.7
      vertex 0.531906 1.54035 0.7
    endloop
  endfacet
  facet normal 0 0 1
    outer loop
      vertex 0.318298 1.98255 0.7
      vertex 0.338562 1.55246 0.7
      vertex 0.511658 1.97298 0.7
    endloop
  endfacet
  facet normal 0 0 1
    outer loop
      vertex 0.318298 1.98255 0.7
      vertex -0.107956 1.46689 0.7
      vertex 0.338562 1.55246 0.7
    endloop
  endfacet
  facet normal -0 0 1
    outer loop
      vertex -0.325363 1.84925 0.7
      vertex -0.107956 1.46689 0.7
      vertex 0.318298 1.98255 0.7
    endloop
  endfacet
  facet normal 0 0 1
    outer loop
      vertex -0.325363 1.84925 0.7
      vertex -0.434845 1.21019 0.7
      vertex -0.107956 1.46689 0.7
    endloop
  endfacet
  facet normal -0 0 1
    outer loop
      vertex -0.823486 1.44939 0.7
      vertex -0.434845 1.21019 0.7
      vertex -0.325363 1.84925 0.7
    endloop
  endfacet
  facet normal -0 0 1
    outer loop
      vertex -1.14247 0.825365 0.7
      vertex -0.644653 0.780458 0.7
      vertex -0.823486 1.44939 0.7
    endloop
  endfacet
  facet normal 0 0 1
    outer loop
      vertex -0.434845 1.21019 0.7
      vertex -0.823486 1.44939 0.7
      vertex -0.644653 0.780458 0.7
    endloop
  endfacet
  facet normal -0 0 1
    outer loop
      vertex 0.797104 -0.287854 0.7
      vertex 1.36136 -0.65408 0.7
      vertex 1.27875 -0.121259 0.7
    endloop
  endfacet
  facet normal 0 0 1
    outer loop
      vertex 0.797104 -0.287854 0.7
      vertex 1.27875 -0.121259 0.7
      vertex 1.03096 0.286821 0.7
    endloop
  endfacet
  facet normal 0 0 1
    outer loop
      vertex 0.797104 -1.01873 0.7
      vertex 1.36136 -0.65408 0.7
      vertex 0.847427 -0.65408 0.7
    endloop
  endfacet
  facet normal 0 0 1
    outer loop
      vertex 1.36136 -0.65408 0.7
      vertex 0.797104 -1.01873 0.7
      vertex 1.27527 -1.17901 0.7
    endloop
  endfacet
  facet normal 0 0 1
    outer loop
      vertex 1.36136 -0.65408 0.7
      vertex 0.797104 -0.287854 0.7
      vertex 0.847427 -0.65408 0.7
    endloop
  endfacet
  facet normal 0 0 1
    outer loop
      vertex 1.03096 0.286821 0.7
      vertex 0.646164 -0.00892353 0.7
      vertex 0.797104 -0.287854 0.7
    endloop
  endfacet
  facet normal 0 0 1
    outer loop
      vertex 0.640778 0.546129 0.7
      vertex 0.646164 -0.00892353 0.7
      vertex 1.03096 0.286821 0.7
    endloop
  endfacet
  facet normal 0 0 1
    outer loop
      vertex 0.640778 0.546129 0.7
      vertex 0.409134 0.167559 0.7
      vertex 0.646164 -0.00892353 0.7
    endloop
  endfacet
  facet normal 0 0 1
    outer loop
      vertex 0.130966 0.63257 0.7
      vertex 0.409134 0.167559 0.7
      vertex 0.640778 0.546129 0.7
    endloop
  endfacet
  facet normal 0 0 1
    outer loop
      vertex 0.130966 0.63257 0.7
      vertex 0.100571 0.226381 0.7
      vertex 0.409134 0.167559 0.7
    endloop
  endfacet
  facet normal -0 0 1
    outer loop
      vertex -0.128525 0.60306 0.7
      vertex 0.100571 0.226381 0.7
      vertex 0.130966 0.63257 0.7
    endloop
  endfacet
  facet normal 0 0 1
    outer loop
      vertex -0.128525 0.60306 0.7
      vertex -0.207947 0.167559 0.7
      vertex 0.100571 0.226381 0.7
    endloop
  endfacet
  facet normal -0 0 1
    outer loop
      vertex -0.365219 0.514559 0.7
      vertex -0.207947 0.167559 0.7
      vertex -0.128525 0.60306 0.7
    endloop
  endfacet
  facet normal -0 0 1
    outer loop
      vertex -0.571548 0.370882 0.7
      vertex -0.207947 0.167559 0.7
      vertex -0.365219 0.514559 0.7
    endloop
  endfacet
  facet normal 0 0 1
    outer loop
      vertex -0.207947 0.167559 0.7
      vertex -0.571548 0.370882 0.7
      vertex -0.444962 -0.00892353 0.7
    endloop
  endfacet
  facet normal -0 0 1
    outer loop
      vertex -0.739899 0.175798 0.7
      vertex -0.444962 -0.00892353 0.7
      vertex -0.571548 0.370882 0.7
    endloop
  endfacet
  facet normal 0 0 1
    outer loop
      vertex -0.444962 -0.00892353 0.7
      vertex -0.739899 0.175798 0.7
      vertex -0.595917 -0.287854 0.7
    endloop
  endfacet
  facet normal -0 0 1
    outer loop
      vertex -1.24879 0.0196247 0.7
      vertex -0.595917 -0.287854 0.7
      vertex -0.739899 0.175798 0.7
    endloop
  endfacet
  facet normal 0 0 1
    outer loop
      vertex 1.27527 -1.17901 0.7
      vertex 0.797104 -1.01873 0.7
      vertex 1.01703 -1.5887 0.7
    endloop
  endfacet
  facet normal -0 0 1
    outer loop
      vertex 0.646164 -1.29802 0.7
      vertex 1.01703 -1.5887 0.7
      vertex 0.797104 -1.01873 0.7
    endloop
  endfacet
  facet normal 0 0 1
    outer loop
      vertex 0.646164 -1.29802 0.7
      vertex 0.615768 -1.85273 0.7
      vertex 1.01703 -1.5887 0.7
    endloop
  endfacet
  facet normal -0 0 1
    outer loop
      vertex 0.409134 -1.47542 0.7
      vertex 0.615768 -1.85273 0.7
      vertex 0.646164 -1.29802 0.7
    endloop
  endfacet
  facet normal 0 0 1
    outer loop
      vertex 0.100571 -1.94073 0.7
      vertex 0.409134 -1.47542 0.7
      vertex 0.100571 -1.53456 0.7
    endloop
  endfacet
  facet normal 0 0 1
    outer loop
      vertex 0.409134 -1.47542 0.7
      vertex 0.100571 -1.94073 0.7
      vertex 0.615768 -1.85273 0.7
    endloop
  endfacet
  facet normal 0 0 1
    outer loop
      vertex -0.207947 -1.47542 0.7
      vertex 0.100571 -1.94073 0.7
      vertex 0.100571 -1.53456 0.7
    endloop
  endfacet
  facet normal 0 0 1
    outer loop
      vertex -0.47789 -1.81506 0.7
      vertex -0.207947 -1.47542 0.7
      vertex -0.444962 -1.29802 0.7
    endloop
  endfacet
  facet normal 0 0 1
    outer loop
      vertex -0.207947 -1.47542 0.7
      vertex -0.47789 -1.81506 0.7
      vertex 0.100571 -1.94073 0.7
    endloop
  endfacet
  facet normal 0 0 1
    outer loop
      vertex -0.901962 -1.43802 0.7
      vertex -0.444962 -1.29802 0.7
      vertex -0.595917 -1.01873 0.7
    endloop
  endfacet
  facet normal 0 0 1
    outer loop
      vertex -0.444962 -1.29802 0.7
      vertex -0.901962 -1.43802 0.7
      vertex -0.47789 -1.81506 0.7
    endloop
  endfacet
  facet normal -0 0 1
    outer loop
      vertex -1.16208 -0.822217 0.7
      vertex -0.595917 -1.01873 0.7
      vertex -0.646225 -0.65408 0.7
    endloop
  endfacet
  facet normal 0 -0 1
    outer loop
      vertex -1.16208 -0.822217 0.7
      vertex -0.595917 -0.287854 0.7
      vertex -1.24879 0.0196247 0.7
    endloop
  endfacet
  facet normal 0 0 1
    outer loop
      vertex -0.644653 0.780458 0.7
      vertex -1.14247 0.825365 0.7
      vertex -0.739899 0.175798 0.7
    endloop
  endfacet
  facet normal 0 0 1
    outer loop
      vertex -0.739899 0.175798 0.7
      vertex -1.14247 0.825365 0.7
      vertex -1.24879 0.0196247 0.7
    endloop
  endfacet
  facet normal 0 0 1
    outer loop
      vertex -0.595917 -0.287854 0.7
      vertex -1.16208 -0.822217 0.7
      vertex -0.646225 -0.65408 0.7
    endloop
  endfacet
  facet normal 0 0 1
    outer loop
      vertex -0.595917 -1.01873 0.7
      vertex -1.16208 -0.822217 0.7
      vertex -0.901962 -1.43802 0.7
    endloop
  endfacet
  facet normal -0.549677 0.835377 0
    outer loop
      vertex 1.01703 -1.5887 0.7
      vertex 0.615768 -1.85273 3.7
      vertex 1.01703 -1.5887 3.7
    endloop
  endfacet
  facet normal -0.549677 0.835377 0
    outer loop
      vertex 0.615768 -1.85273 3.7
      vertex 1.01703 -1.5887 0.7
      vertex 0.615768 -1.85273 0.7
    endloop
  endfacet
  facet normal -0.845965 0.533238 0
    outer loop
      vertex 1.01703 -1.5887 0.7
      vertex 1.27527 -1.17901 3.7
      vertex 1.27527 -1.17901 0.7
    endloop
  endfacet
  facet normal -0.845965 0.533238 0
    outer loop
      vertex 1.27527 -1.17901 3.7
      vertex 1.01703 -1.5887 0.7
      vertex 1.01703 -1.5887 3.7
    endloop
  endfacet
  facet normal -0.986817 0.161841 0
    outer loop
      vertex 1.27527 -1.17901 0.7
      vertex 1.36136 -0.65408 3.7
      vertex 1.36136 -0.65408 0.7
    endloop
  endfacet
  facet normal -0.986817 0.161841 0
    outer loop
      vertex 1.36136 -0.65408 3.7
      vertex 1.27527 -1.17901 0.7
      vertex 1.27527 -1.17901 3.7
    endloop
  endfacet
  facet normal -0.988193 -0.153212 0
    outer loop
      vertex 1.36136 -0.65408 0.7
      vertex 1.27875 -0.121259 3.7
      vertex 1.27875 -0.121259 0.7
    endloop
  endfacet
  facet normal -0.988193 -0.153212 0
    outer loop
      vertex 1.27875 -0.121259 3.7
      vertex 1.36136 -0.65408 0.7
      vertex 1.36136 -0.65408 3.7
    endloop
  endfacet
  facet normal -0.854762 -0.51902 0
    outer loop
      vertex 1.27875 -0.121259 0.7
      vertex 1.03096 0.286821 3.7
      vertex 1.03096 0.286821 0.7
    endloop
  endfacet
  facet normal -0.854762 -0.51902 0
    outer loop
      vertex 1.03096 0.286821 3.7
      vertex 1.27875 -0.121259 0.7
      vertex 1.27875 -0.121259 3.7
    endloop
  endfacet
  facet normal -0.553498 -0.832851 0
    outer loop
      vertex 0.640778 0.546129 0.7
      vertex 1.03096 0.286821 3.7
      vertex 0.640778 0.546129 3.7
    endloop
  endfacet
  facet normal -0.553498 -0.832851 -0
    outer loop
      vertex 1.03096 0.286821 3.7
      vertex 0.640778 0.546129 0.7
      vertex 1.03096 0.286821 0.7
    endloop
  endfacet
  facet normal -0.167169 -0.985928 0
    outer loop
      vertex 0.130966 0.63257 0.7
      vertex 0.640778 0.546129 3.7
      vertex 0.130966 0.63257 3.7
    endloop
  endfacet
  facet normal -0.167169 -0.985928 -0
    outer loop
      vertex 0.640778 0.546129 3.7
      vertex 0.130966 0.63257 0.7
      vertex 0.640778 0.546129 0.7
    endloop
  endfacet
  facet normal 0.112994 -0.993596 0
    outer loop
      vertex -0.128525 0.60306 0.7
      vertex 0.130966 0.63257 3.7
      vertex -0.128525 0.60306 3.7
    endloop
  endfacet
  facet normal 0.112994 -0.993596 0
    outer loop
      vertex 0.130966 0.63257 3.7
      vertex -0.128525 0.60306 0.7
      vertex 0.130966 0.63257 0.7
    endloop
  endfacet
  facet normal 0.350224 -0.936666 0
    outer loop
      vertex -0.365219 0.514559 0.7
      vertex -0.128525 0.60306 3.7
      vertex -0.365219 0.514559 3.7
    endloop
  endfacet
  facet normal 0.350224 -0.936666 0
    outer loop
      vertex -0.128525 0.60306 3.7
      vertex -0.365219 0.514559 0.7
      vertex -0.128525 0.60306 0.7
    endloop
  endfacet
  facet normal 0.57145 -0.820637 0
    outer loop
      vertex -0.571548 0.370882 0.7
      vertex -0.365219 0.514559 3.7
      vertex -0.571548 0.370882 3.7
    endloop
  endfacet
  facet normal 0.57145 -0.820637 0
    outer loop
      vertex -0.365219 0.514559 3.7
      vertex -0.571548 0.370882 0.7
      vertex -0.365219 0.514559 0.7
    endloop
  endfacet
  facet normal 0.757074 -0.653329 0
    outer loop
      vertex -0.739899 0.175798 3.7
      vertex -0.571548 0.370882 0.7
      vertex -0.571548 0.370882 3.7
    endloop
  endfacet
  facet normal 0.757074 -0.653329 0
    outer loop
      vertex -0.571548 0.370882 0.7
      vertex -0.739899 0.175798 3.7
      vertex -0.739899 0.175798 0.7
    endloop
  endfacet
  facet normal -0.98782 0.155601 0
    outer loop
      vertex -0.739899 0.175798 0.7
      vertex -0.644653 0.780458 3.7
      vertex -0.644653 0.780458 0.7
    endloop
  endfacet
  facet normal -0.98782 0.155601 0
    outer loop
      vertex -0.644653 0.780458 3.7
      vertex -0.739899 0.175798 0.7
      vertex -0.739899 0.175798 3.7
    endloop
  endfacet
  facet normal -0.898618 0.438732 0
    outer loop
      vertex -0.644653 0.780458 0.7
      vertex -0.434845 1.21019 3.7
      vertex -0.434845 1.21019 0.7
    endloop
  endfacet
  facet normal -0.898618 0.438732 0
    outer loop
      vertex -0.434845 1.21019 3.7
      vertex -0.644653 0.780458 0.7
      vertex -0.644653 0.780458 3.7
    endloop
  endfacet
  facet normal -0.617611 0.786484 0
    outer loop
      vertex -0.107956 1.46689 0.7
      vertex -0.434845 1.21019 3.7
      vertex -0.107956 1.46689 3.7
    endloop
  endfacet
  facet normal -0.617611 0.786484 0
    outer loop
      vertex -0.434845 1.21019 3.7
      vertex -0.107956 1.46689 0.7
      vertex -0.434845 1.21019 0.7
    endloop
  endfacet
  facet normal -0.188213 0.982128 0
    outer loop
      vertex 0.338562 1.55246 0.7
      vertex -0.107956 1.46689 3.7
      vertex 0.338562 1.55246 3.7
    endloop
  endfacet
  facet normal -0.188213 0.982128 0
    outer loop
      vertex -0.107956 1.46689 3.7
      vertex 0.338562 1.55246 0.7
      vertex -0.107956 1.46689 0.7
    endloop
  endfacet
  facet normal 0.062512 0.998044 -0
    outer loop
      vertex 0.531906 1.54035 0.7
      vertex 0.338562 1.55246 3.7
      vertex 0.531906 1.54035 3.7
    endloop
  endfacet
  facet normal 0.062512 0.998044 0
    outer loop
      vertex 0.338562 1.55246 3.7
      vertex 0.531906 1.54035 0.7
      vertex 0.338562 1.55246 0.7
    endloop
  endfacet
  facet normal 0.183039 0.983106 -0
    outer loop
      vertex 0.727142 1.504 0.7
      vertex 0.531906 1.54035 3.7
      vertex 0.727142 1.504 3.7
    endloop
  endfacet
  facet normal 0.183039 0.983106 0
    outer loop
      vertex 0.531906 1.54035 3.7
      vertex 0.727142 1.504 0.7
      vertex 0.531906 1.54035 0.7
    endloop
  endfacet
  facet normal 0.290583 0.95685 -0
    outer loop
      vertex 0.922409 1.4447 0.7
      vertex 0.727142 1.504 3.7
      vertex 0.922409 1.4447 3.7
    endloop
  endfacet
  facet normal 0.290583 0.95685 0
    outer loop
      vertex 0.727142 1.504 3.7
      vertex 0.922409 1.4447 0.7
      vertex 0.727142 1.504 0.7
    endloop
  endfacet
  facet normal 0.386334 0.922359 -0
    outer loop
      vertex 1.11577 1.36371 0.7
      vertex 0.922409 1.4447 3.7
      vertex 1.11577 1.36371 3.7
    endloop
  endfacet
  facet normal 0.386334 0.922359 0
    outer loop
      vertex 0.922409 1.4447 3.7
      vertex 1.11577 1.36371 0.7
      vertex 0.922409 1.4447 0.7
    endloop
  endfacet
  facet normal -1 0 0
    outer loop
      vertex 1.11577 1.36371 0.7
      vertex 1.11577 1.82962 3.7
      vertex 1.11577 1.82962 0.7
    endloop
  endfacet
  facet normal -1 -0 0
    outer loop
      vertex 1.11577 1.82962 3.7
      vertex 1.11577 1.36371 0.7
      vertex 1.11577 1.36371 3.7
    endloop
  endfacet
  facet normal -0.305506 -0.95219 0
    outer loop
      vertex 0.907227 1.89653 0.7
      vertex 1.11577 1.82962 3.7
      vertex 0.907227 1.89653 3.7
    endloop
  endfacet
  facet normal -0.305506 -0.95219 -0
    outer loop
      vertex 1.11577 1.82962 3.7
      vertex 0.907227 1.89653 0.7
      vertex 1.11577 1.82962 0.7
    endloop
  endfacet
  facet normal -0.231996 -0.972717 0
    outer loop
      vertex 0.706894 1.94431 0.7
      vertex 0.907227 1.89653 3.7
      vertex 0.706894 1.94431 3.7
    endloop
  endfacet
  facet normal -0.231996 -0.972717 -0
    outer loop
      vertex 0.907227 1.89653 3.7
      vertex 0.706894 1.94431 0.7
      vertex 0.907227 1.89653 0.7
    endloop
  endfacet
  facet normal -0.14529 -0.989389 0
    outer loop
      vertex 0.511658 1.97298 0.7
      vertex 0.706894 1.94431 3.7
      vertex 0.511658 1.97298 3.7
    endloop
  endfacet
  facet normal -0.14529 -0.989389 -0
    outer loop
      vertex 0.706894 1.94431 3.7
      vertex 0.511658 1.97298 0.7
      vertex 0.706894 1.94431 0.7
    endloop
  endfacet
  facet normal -0.0494327 -0.998777 0
    outer loop
      vertex 0.318298 1.98255 0.7
      vertex 0.511658 1.97298 3.7
      vertex 0.318298 1.98255 3.7
    endloop
  endfacet
  facet normal -0.0494327 -0.998777 -0
    outer loop
      vertex 0.511658 1.97298 3.7
      vertex 0.318298 1.98255 0.7
      vertex 0.511658 1.97298 0.7
    endloop
  endfacet
  facet normal 0.202793 -0.979222 0
    outer loop
      vertex -0.325363 1.84925 0.7
      vertex 0.318298 1.98255 3.7
      vertex -0.325363 1.84925 3.7
    endloop
  endfacet
  facet normal 0.202793 -0.979222 0
    outer loop
      vertex 0.318298 1.98255 3.7
      vertex -0.325363 1.84925 0.7
      vertex 0.318298 1.98255 0.7
    endloop
  endfacet
  facet normal 0.625994 -0.779828 0
    outer loop
      vertex -0.823486 1.44939 0.7
      vertex -0.325363 1.84925 3.7
      vertex -0.823486 1.44939 3.7
    endloop
  endfacet
  facet normal 0.625994 -0.779828 0
    outer loop
      vertex -0.325363 1.84925 3.7
      vertex -0.823486 1.44939 0.7
      vertex -0.325363 1.84925 0.7
    endloop
  endfacet
  facet normal 0.890413 -0.455154 0
    outer loop
      vertex -1.14247 0.825365 3.7
      vertex -0.823486 1.44939 0.7
      vertex -0.823486 1.44939 3.7
    endloop
  endfacet
  facet normal 0.890413 -0.455154 0
    outer loop
      vertex -0.823486 1.44939 0.7
      vertex -1.14247 0.825365 3.7
      vertex -1.14247 0.825365 0.7
    endloop
  endfacet
  facet normal 0.991406 -0.130819 0
    outer loop
      vertex -1.24879 0.0196247 3.7
      vertex -1.14247 0.825365 0.7
      vertex -1.14247 0.825365 3.7
    endloop
  endfacet
  facet normal 0.991406 -0.130819 0
    outer loop
      vertex -1.14247 0.825365 0.7
      vertex -1.24879 0.0196247 3.7
      vertex -1.24879 0.0196247 0.7
    endloop
  endfacet
  facet normal 0.994737 0.102458 0
    outer loop
      vertex -1.16208 -0.822217 3.7
      vertex -1.24879 0.0196247 0.7
      vertex -1.24879 0.0196247 3.7
    endloop
  endfacet
  facet normal 0.994737 0.102458 0
    outer loop
      vertex -1.24879 0.0196247 0.7
      vertex -1.16208 -0.822217 3.7
      vertex -1.16208 -0.822217 0.7
    endloop
  endfacet
  facet normal 0.921189 0.389115 0
    outer loop
      vertex -0.901962 -1.43802 3.7
      vertex -1.16208 -0.822217 0.7
      vertex -1.16208 -0.822217 3.7
    endloop
  endfacet
  facet normal 0.921189 0.389115 0
    outer loop
      vertex -1.16208 -0.822217 0.7
      vertex -0.901962 -1.43802 3.7
      vertex -0.901962 -1.43802 0.7
    endloop
  endfacet
  facet normal 0.66445 0.747333 -0
    outer loop
      vertex -0.47789 -1.81506 0.7
      vertex -0.901962 -1.43802 3.7
      vertex -0.47789 -1.81506 3.7
    endloop
  endfacet
  facet normal 0.66445 0.747333 0
    outer loop
      vertex -0.901962 -1.43802 3.7
      vertex -0.47789 -1.81506 0.7
      vertex -0.901962 -1.43802 0.7
    endloop
  endfacet
  facet normal 0.212297 0.977205 -0
    outer loop
      vertex 0.100571 -1.94073 0.7
      vertex -0.47789 -1.81506 3.7
      vertex 0.100571 -1.94073 3.7
    endloop
  endfacet
  facet normal 0.212297 0.977205 0
    outer loop
      vertex -0.47789 -1.81506 3.7
      vertex 0.100571 -1.94073 0.7
      vertex -0.47789 -1.81506 0.7
    endloop
  endfacet
  facet normal -0.16837 0.985724 0
    outer loop
      vertex 0.615768 -1.85273 0.7
      vertex 0.100571 -1.94073 3.7
      vertex 0.615768 -1.85273 3.7
    endloop
  endfacet
  facet normal -0.16837 0.985724 0
    outer loop
      vertex 0.100571 -1.94073 3.7
      vertex 0.615768 -1.85273 0.7
      vertex 0.100571 -1.94073 0.7
    endloop
  endfacet
  facet normal -0.599219 -0.800585 0
    outer loop
      vertex -0.444962 -1.29802 0.7
      vertex -0.207947 -1.47542 3.7
      vertex -0.444962 -1.29802 3.7
    endloop
  endfacet
  facet normal -0.599219 -0.800585 -0
    outer loop
      vertex -0.207947 -1.47542 3.7
      vertex -0.444962 -1.29802 0.7
      vertex -0.207947 -1.47542 0.7
    endloop
  endfacet
  facet normal -0.879723 -0.475486 0
    outer loop
      vertex -0.444962 -1.29802 0.7
      vertex -0.595917 -1.01873 3.7
      vertex -0.595917 -1.01873 0.7
    endloop
  endfacet
  facet normal -0.879723 -0.475486 0
    outer loop
      vertex -0.595917 -1.01873 3.7
      vertex -0.444962 -1.29802 0.7
      vertex -0.444962 -1.29802 3.7
    endloop
  endfacet
  facet normal -0.990617 -0.136668 0
    outer loop
      vertex -0.595917 -1.01873 0.7
      vertex -0.646225 -0.65408 3.7
      vertex -0.646225 -0.65408 0.7
    endloop
  endfacet
  facet normal -0.990617 -0.136668 0
    outer loop
      vertex -0.646225 -0.65408 3.7
      vertex -0.595917 -1.01873 0.7
      vertex -0.595917 -1.01873 3.7
    endloop
  endfacet
  facet normal -0.990696 0.136091 0
    outer loop
      vertex -0.646225 -0.65408 0.7
      vertex -0.595917 -0.287854 3.7
      vertex -0.595917 -0.287854 0.7
    endloop
  endfacet
  facet normal -0.990696 0.136091 0
    outer loop
      vertex -0.595917 -0.287854 3.7
      vertex -0.646225 -0.65408 0.7
      vertex -0.646225 -0.65408 3.7
    endloop
  endfacet
  facet normal -0.879467 0.475961 0
    outer loop
      vertex -0.595917 -0.287854 0.7
      vertex -0.444962 -0.00892353 3.7
      vertex -0.444962 -0.00892353 0.7
    endloop
  endfacet
  facet normal -0.879467 0.475961 0
    outer loop
      vertex -0.444962 -0.00892353 3.7
      vertex -0.595917 -0.287854 0.7
      vertex -0.595917 -0.287854 3.7
    endloop
  endfacet
  facet normal -0.597227 0.802072 0
    outer loop
      vertex -0.207947 0.167559 0.7
      vertex -0.444962 -0.00892353 3.7
      vertex -0.207947 0.167559 3.7
    endloop
  endfacet
  facet normal -0.597227 0.802072 0
    outer loop
      vertex -0.444962 -0.00892353 3.7
      vertex -0.207947 0.167559 0.7
      vertex -0.444962 -0.00892353 0.7
    endloop
  endfacet
  facet normal -0.187286 0.982305 0
    outer loop
      vertex 0.100571 0.226381 0.7
      vertex -0.207947 0.167559 3.7
      vertex 0.100571 0.226381 3.7
    endloop
  endfacet
  facet normal -0.187286 0.982305 0
    outer loop
      vertex -0.207947 0.167559 3.7
      vertex 0.100571 0.226381 0.7
      vertex -0.207947 0.167559 0.7
    endloop
  endfacet
  facet normal 0.18726 0.98231 -0
    outer loop
      vertex 0.409134 0.167559 0.7
      vertex 0.100571 0.226381 3.7
      vertex 0.409134 0.167559 3.7
    endloop
  endfacet
  facet normal 0.18726 0.98231 0
    outer loop
      vertex 0.100571 0.226381 3.7
      vertex 0.409134 0.167559 0.7
      vertex 0.100571 0.226381 0.7
    endloop
  endfacet
  facet normal 0.597203 0.80209 -0
    outer loop
      vertex 0.646164 -0.00892353 0.7
      vertex 0.409134 0.167559 3.7
      vertex 0.646164 -0.00892353 3.7
    endloop
  endfacet
  facet normal 0.597203 0.80209 0
    outer loop
      vertex 0.409134 0.167559 3.7
      vertex 0.646164 -0.00892353 0.7
      vertex 0.409134 0.167559 0.7
    endloop
  endfacet
  facet normal 0.879486 0.475924 0
    outer loop
      vertex 0.797104 -0.287854 3.7
      vertex 0.646164 -0.00892353 0.7
      vertex 0.646164 -0.00892353 3.7
    endloop
  endfacet
  facet normal 0.879486 0.475924 0
    outer loop
      vertex 0.646164 -0.00892353 0.7
      vertex 0.797104 -0.287854 3.7
      vertex 0.797104 -0.287854 0.7
    endloop
  endfacet
  facet normal 0.990691 0.136131 0
    outer loop
      vertex 0.847427 -0.65408 3.7
      vertex 0.797104 -0.287854 0.7
      vertex 0.797104 -0.287854 3.7
    endloop
  endfacet
  facet normal 0.990691 0.136131 0
    outer loop
      vertex 0.797104 -0.287854 0.7
      vertex 0.847427 -0.65408 3.7
      vertex 0.847427 -0.65408 0.7
    endloop
  endfacet
  facet normal 0.990611 -0.136708 0
    outer loop
      vertex 0.797104 -1.01873 3.7
      vertex 0.847427 -0.65408 0.7
      vertex 0.847427 -0.65408 3.7
    endloop
  endfacet
  facet normal 0.990611 -0.136708 0
    outer loop
      vertex 0.847427 -0.65408 0.7
      vertex 0.797104 -1.01873 3.7
      vertex 0.797104 -1.01873 0.7
    endloop
  endfacet
  facet normal 0.879743 -0.47545 0
    outer loop
      vertex 0.646164 -1.29802 3.7
      vertex 0.797104 -1.01873 0.7
      vertex 0.797104 -1.01873 3.7
    endloop
  endfacet
  facet normal 0.879743 -0.47545 0
    outer loop
      vertex 0.797104 -1.01873 0.7
      vertex 0.646164 -1.29802 3.7
      vertex 0.646164 -1.29802 0.7
    endloop
  endfacet
  facet normal 0.599194 -0.800604 0
    outer loop
      vertex 0.409134 -1.47542 0.7
      vertex 0.646164 -1.29802 3.7
      vertex 0.409134 -1.47542 3.7
    endloop
  endfacet
  facet normal 0.599194 -0.800604 0
    outer loop
      vertex 0.646164 -1.29802 3.7
      vertex 0.409134 -1.47542 0.7
      vertex 0.646164 -1.29802 0.7
    endloop
  endfacet
  facet normal 0.188236 -0.982124 0
    outer loop
      vertex 0.100571 -1.53456 0.7
      vertex 0.409134 -1.47542 3.7
      vertex 0.100571 -1.53456 3.7
    endloop
  endfacet
  facet normal 0.188236 -0.982124 0
    outer loop
      vertex 0.409134 -1.47542 3.7
      vertex 0.100571 -1.53456 0.7
      vertex 0.409134 -1.47542 0.7
    endloop
  endfacet
  facet normal -0.188263 -0.982119 0
    outer loop
      vertex -0.207947 -1.47542 0.7
      vertex 0.100571 -1.53456 3.7
      vertex -0.207947 -1.47542 3.7
    endloop
  endfacet
  facet normal -0.188263 -0.982119 -0
    outer loop
      vertex 0.100571 -1.53456 3.7
      vertex -0.207947 -1.47542 0.7
      vertex 0.100571 -1.53456 0.7
    endloop
  endfacet
  facet normal -1 0 0
    outer loop
      vertex 1.86667 -3.36 0.7
      vertex 1.86667 -2.36 3.7
      vertex 1.86667 -2.36 0.7
    endloop
  endfacet
  facet normal -1 -0 0
    outer loop
      vertex 1.86667 -2.36 3.7
      vertex 1.86667 -3.36 0.7
      vertex 1.86667 -3.36 3.7
    endloop
  endfacet
  facet normal -0 0 1
    outer loop
      vertex -1.86667 -2.36 0.7
      vertex 1.86667 -3.36 0.7
      vertex 1.86667 -2.36 0.7
    endloop
  endfacet
  facet normal 0 0 1
    outer loop
      vertex 1.86667 -3.36 0.7
      vertex -1.86667 -2.36 0.7
      vertex -1.86667 -3.36 0.7
    endloop
  endfacet
  facet normal 1 -0 0
    outer loop
      vertex -1.86667 -3.36 3.7
      vertex -1.86667 -2.36 0.7
      vertex -1.86667 -2.36 3.7
    endloop
  endfacet
  facet normal 1 0 0
    outer loop
      vertex -1.86667 -2.36 0.7
      vertex -1.86667 -3.36 3.7
      vertex -1.86667 -3.36 0.7
    endloop
  endfacet
  facet normal 0 -1 0
    outer loop
      vertex -1.86667 -2.36 0.7
      vertex 1.86667 -2.36 3.7
      vertex -1.86667 -2.36 3.7
    endloop
  endfacet
  facet normal 0 -1 -0
    outer loop
      vertex 1.86667 -2.36 3.7
      vertex -1.86667 -2.36 0.7
      vertex 1.86667 -2.36 0.7
    endloop
  endfacet
  facet normal 0 1 -0
    outer loop
      vertex 1.86667 -3.36 0.7
      vertex -1.86667 -3.36 3.7
      vertex 1.86667 -3.36 3.7
    endloop
  endfacet
  facet normal 0 1 0
    outer loop
      vertex -1.86667 -3.36 3.7
      vertex 1.86667 -3.36 0.7
      vertex -1.86667 -3.36 0.7
    endloop
  endfacet
  facet normal 0 1 -0
    outer loop
      vertex 2.66667 4.6188 0
      vertex -2.66667 4.6188 3.7
      vertex 2.66667 4.6188 3.7
    endloop
  endfacet
  facet normal 0 1 0
    outer loop
      vertex -2.66667 4.6188 3.7
      vertex 2.66667 4.6188 0
      vertex -2.66667 4.6188 0
    endloop
  endfacet
  facet normal 0.866026 0.499999 0
    outer loop
      vertex 5.33333 0 3.7
      vertex 2.66667 4.6188 0
      vertex 2.66667 4.6188 3.7
    endloop
  endfacet
  facet normal 0.866026 0.499999 0
    outer loop
      vertex 2.66667 4.6188 0
      vertex 5.33333 0 3.7
      vertex 5.33333 0 0
    endloop
  endfacet
  facet normal -0.866026 0.499999 0
    outer loop
      vertex -5.33333 0 0
      vertex -2.66667 4.6188 3.7
      vertex -2.66667 4.6188 0
    endloop
  endfacet
  facet normal -0.866026 0.499999 0
    outer loop
      vertex -2.66667 4.6188 3.7
      vertex -5.33333 0 0
      vertex -5.33333 0 3.7
    endloop
  endfacet
  facet normal 0.866026 -0.499999 0
    outer loop
      vertex 2.66667 -4.6188 3.7
      vertex 5.33333 0 0
      vertex 5.33333 0 3.7
    endloop
  endfacet
  facet normal 0.866026 -0.499999 0
    outer loop
      vertex 5.33333 0 0
      vertex 2.66667 -4.6188 3.7
      vertex 2.66667 -4.6188 0
    endloop
  endfacet
  facet normal -0.866026 -0.499999 0
    outer loop
      vertex -2.66667 -4.6188 0
      vertex -5.33333 0 3.7
      vertex -5.33333 0 0
    endloop
  endfacet
  facet normal -0.866026 -0.499999 0
    outer loop
      vertex -5.33333 0 3.7
      vertex -2.66667 -4.6188 0
      vertex -2.66667 -4.6188 3.7
    endloop
  endfacet
  facet normal 0 -1 0
    outer loop
      vertex -2.66667 -4.6188 0
      vertex 2.66667 -4.6188 3.7
      vertex -2.66667 -4.6188 3.7
    endloop
  endfacet
  facet normal 0 -1 -0
    outer loop
      vertex 2.66667 -4.6188 3.7
      vertex -2.66667 -4.6188 0
      vertex 2.66667 -4.6188 0
    endloop
  endfacet
  facet normal 0 0 -1
    outer loop
      vertex 2.66667 -4.6188 0
      vertex 2.66667 4.6188 0
      vertex 5.33333 0 0
    endloop
  endfacet
  facet normal 0 0 -1
    outer loop
      vertex -2.66667 -4.6188 0
      vertex 2.66667 4.6188 0
      vertex 2.66667 -4.6188 0
    endloop
  endfacet
  facet normal 0 0 -1
    outer loop
      vertex -2.66667 -4.6188 0
      vertex -2.66667 4.6188 0
      vertex 2.66667 4.6188 0
    endloop
  endfacet
  facet normal 0 -0 -1
    outer loop
      vertex -2.66667 4.6188 0
      vertex -2.66667 -4.6188 0
      vertex -5.33333 0 0
    endloop
  endfacet
  facet normal -0 0 1
    outer loop
      vertex 1.11577 1.82962 3.7
      vertex 5.33333 0 3.7
      vertex 2.66667 4.6188 3.7
    endloop
  endfacet
  facet normal 0 0 1
    outer loop
      vertex 5.33333 0 3.7
      vertex 1.86667 -2.36 3.7
      vertex 2.66667 -4.6188 3.7
    endloop
  endfacet
  facet normal 0 0 1
    outer loop
      vertex 5.33333 0 3.7
      vertex 1.36136 -0.65408 3.7
      vertex 1.86667 -2.36 3.7
    endloop
  endfacet
  facet normal 0 0 1
    outer loop
      vertex 5.33333 0 3.7
      vertex 1.27875 -0.121259 3.7
      vertex 1.36136 -0.65408 3.7
    endloop
  endfacet
  facet normal 0 0 1
    outer loop
      vertex 5.33333 0 3.7
      vertex 1.11577 1.82962 3.7
      vertex 1.11577 1.36371 3.7
    endloop
  endfacet
  facet normal 0 0 1
    outer loop
      vertex 2.66667 4.6188 3.7
      vertex 0.907227 1.89653 3.7
      vertex 1.11577 1.82962 3.7
    endloop
  endfacet
  facet normal 0 0 1
    outer loop
      vertex 2.66667 4.6188 3.7
      vertex 0.706894 1.94431 3.7
      vertex 0.907227 1.89653 3.7
    endloop
  endfacet
  facet normal 0 0 1
    outer loop
      vertex 2.66667 4.6188 3.7
      vertex 0.511658 1.97298 3.7
      vertex 0.706894 1.94431 3.7
    endloop
  endfacet
  facet normal 0 0 1
    outer loop
      vertex 2.66667 4.6188 3.7
      vertex 0.318298 1.98255 3.7
      vertex 0.511658 1.97298 3.7
    endloop
  endfacet
  facet normal -0 0 1
    outer loop
      vertex -2.66667 4.6188 3.7
      vertex 0.318298 1.98255 3.7
      vertex 2.66667 4.6188 3.7
    endloop
  endfacet
  facet normal 0 0 1
    outer loop
      vertex 0.318298 1.98255 3.7
      vertex -2.66667 4.6188 3.7
      vertex -0.325363 1.84925 3.7
    endloop
  endfacet
  facet normal 0 0 1
    outer loop
      vertex -5.33333 0 3.7
      vertex -1.24879 0.0196247 3.7
      vertex -1.14247 0.825365 3.7
    endloop
  endfacet
  facet normal 0 0 1
    outer loop
      vertex -1.24879 0.0196247 3.7
      vertex -5.33333 0 3.7
      vertex -1.86667 -2.36 3.7
    endloop
  endfacet
  facet normal 0 0 1
    outer loop
      vertex -5.33333 0 3.7
      vertex -1.14247 0.825365 3.7
      vertex -2.66667 4.6188 3.7
    endloop
  endfacet
  facet normal 0 0 1
    outer loop
      vertex -0.823486 1.44939 3.7
      vertex -2.66667 4.6188 3.7
      vertex -1.14247 0.825365 3.7
    endloop
  endfacet
  facet normal 0 0 1
    outer loop
      vertex -0.325363 1.84925 3.7
      vertex -2.66667 4.6188 3.7
      vertex -0.823486 1.44939 3.7
    endloop
  endfacet
  facet normal -0 0 1
    outer loop
      vertex 1.86667 -3.36 3.7
      vertex 2.66667 -4.6188 3.7
      vertex 1.86667 -2.36 3.7
    endloop
  endfacet
  facet normal -0 0 1
    outer loop
      vertex -1.86667 -3.36 3.7
      vertex 2.66667 -4.6188 3.7
      vertex 1.86667 -3.36 3.7
    endloop
  endfacet
  facet normal 0 0 1
    outer loop
      vertex -1.86667 -3.36 3.7
      vertex -2.66667 -4.6188 3.7
      vertex 2.66667 -4.6188 3.7
    endloop
  endfacet
  facet normal 0 -0 1
    outer loop
      vertex -2.66667 -4.6188 3.7
      vertex -1.86667 -2.36 3.7
      vertex -5.33333 0 3.7
    endloop
  endfacet
  facet normal 0 0 1
    outer loop
      vertex -1.86667 -2.36 3.7
      vertex -2.66667 -4.6188 3.7
      vertex -1.86667 -3.36 3.7
    endloop
  endfacet
  facet normal -0 0 1
    outer loop
      vertex 1.27527 -1.17901 3.7
      vertex 1.86667 -2.36 3.7
      vertex 1.36136 -0.65408 3.7
    endloop
  endfacet
  facet normal -0 0 1
    outer loop
      vertex 1.01703 -1.5887 3.7
      vertex 1.86667 -2.36 3.7
      vertex 1.27527 -1.17901 3.7
    endloop
  endfacet
  facet normal -0 0 1
    outer loop
      vertex 0.615768 -1.85273 3.7
      vertex 1.86667 -2.36 3.7
      vertex 1.01703 -1.5887 3.7
    endloop
  endfacet
  facet normal -0 0 1
    outer loop
      vertex 0.100571 -1.94073 3.7
      vertex 1.86667 -2.36 3.7
      vertex 0.615768 -1.85273 3.7
    endloop
  endfacet
  facet normal 0 0 1
    outer loop
      vertex -1.86667 -2.36 3.7
      vertex 0.100571 -1.94073 3.7
      vertex -0.47789 -1.81506 3.7
    endloop
  endfacet
  facet normal 0 0 1
    outer loop
      vertex 0.100571 -1.94073 3.7
      vertex -1.86667 -2.36 3.7
      vertex 1.86667 -2.36 3.7
    endloop
  endfacet
  facet normal 0 0 1
    outer loop
      vertex -0.901962 -1.43802 3.7
      vertex -1.86667 -2.36 3.7
      vertex -0.47789 -1.81506 3.7
    endloop
  endfacet
  facet normal 0 0 1
    outer loop
      vertex -1.16208 -0.822217 3.7
      vertex -1.86667 -2.36 3.7
      vertex -0.901962 -1.43802 3.7
    endloop
  endfacet
  facet normal 0 0 1
    outer loop
      vertex -1.86667 -2.36 3.7
      vertex -1.16208 -0.822217 3.7
      vertex -1.24879 0.0196247 3.7
    endloop
  endfacet
  facet normal 0 0 1
    outer loop
      vertex 5.33333 0 3.7
      vertex 1.11577 1.36371 3.7
      vertex 1.27875 -0.121259 3.7
    endloop
  endfacet
  facet normal 0 0 1
    outer loop
      vertex 1.11577 1.36371 3.7
      vertex 1.03096 0.286821 3.7
      vertex 1.27875 -0.121259 3.7
    endloop
  endfacet
  facet normal 0 0 1
    outer loop
      vertex 0.640778 0.546129 3.7
      vertex 1.11577 1.36371 3.7
      vertex 0.922409 1.4447 3.7
    endloop
  endfacet
  facet normal 0 0 1
    outer loop
      vertex 0.640778 0.546129 3.7
      vertex 0.922409 1.4447 3.7
      vertex 0.727142 1.504 3.7
    endloop
  endfacet
  facet normal 0 0 1
    outer loop
      vertex 1.11577 1.36371 3.7
      vertex 0.640778 0.546129 3.7
      vertex 1.03096 0.286821 3.7
    endloop
  endfacet
  facet normal 0 0 1
    outer loop
      vertex 0.531906 1.54035 3.7
      vertex 0.640778 0.546129 3.7
      vertex 0.727142 1.504 3.7
    endloop
  endfacet
  facet normal 0 0 1
    outer loop
      vertex 0.130966 0.63257 3.7
      vertex 0.531906 1.54035 3.7
      vertex 0.338562 1.55246 3.7
    endloop
  endfacet
  facet normal 0 0 1
    outer loop
      vertex 0.531906 1.54035 3.7
      vertex 0.130966 0.63257 3.7
      vertex 0.640778 0.546129 3.7
    endloop
  endfacet
  facet normal -0 0 1
    outer loop
      vertex -0.107956 1.46689 3.7
      vertex 0.130966 0.63257 3.7
      vertex 0.338562 1.55246 3.7
    endloop
  endfacet
  facet normal -0 0 1
    outer loop
      vertex -0.434845 1.21019 3.7
      vertex 0.130966 0.63257 3.7
      vertex -0.107956 1.46689 3.7
    endloop
  endfacet
  facet normal 0 0 1
    outer loop
      vertex 0.130966 0.63257 3.7
      vertex -0.434845 1.21019 3.7
      vertex -0.128525 0.60306 3.7
    endloop
  endfacet
  facet normal -0 0 1
    outer loop
      vertex -0.644653 0.780458 3.7
      vertex -0.128525 0.60306 3.7
      vertex -0.434845 1.21019 3.7
    endloop
  endfacet
  facet normal 0 0 1
    outer loop
      vertex -0.128525 0.60306 3.7
      vertex -0.644653 0.780458 3.7
      vertex -0.365219 0.514559 3.7
    endloop
  endfacet
  facet normal 0 0 1
    outer loop
      vertex -0.365219 0.514559 3.7
      vertex -0.644653 0.780458 3.7
      vertex -0.571548 0.370882 3.7
    endloop
  endfacet
  facet normal 0 0 1
    outer loop
      vertex -0.571548 0.370882 3.7
      vertex -0.644653 0.780458 3.7
      vertex -0.739899 0.175798 3.7
    endloop
  endfacet
  facet normal 0 0 1
    outer loop
      vertex -0.646225 -0.65408 3.7
      vertex 0.847427 -0.65408 3.7
      vertex 0.797104 -0.287854 3.7
    endloop
  endfacet
  facet normal 0 0 1
    outer loop
      vertex 0.100571 0.226381 3.7
      vertex 0.797104 -0.287854 3.7
      vertex 0.646164 -0.00892353 3.7
    endloop
  endfacet
  facet normal 0 0 1
    outer loop
      vertex 0.847427 -0.65408 3.7
      vertex -0.646225 -0.65408 3.7
      vertex 0.797104 -1.01873 3.7
    endloop
  endfacet
  facet normal 0 0 1
    outer loop
      vertex 0.100571 0.226381 3.7
      vertex 0.646164 -0.00892353 3.7
      vertex 0.409134 0.167559 3.7
    endloop
  endfacet
  facet normal 0 -0 1
    outer loop
      vertex -0.595917 -1.01873 3.7
      vertex 0.797104 -1.01873 3.7
      vertex -0.646225 -0.65408 3.7
    endloop
  endfacet
  facet normal 0 0 1
    outer loop
      vertex 0.797104 -0.287854 3.7
      vertex 0.100571 0.226381 3.7
      vertex -0.595917 -0.287854 3.7
    endloop
  endfacet
  facet normal 0 -0 1
    outer loop
      vertex 0.100571 -1.53456 3.7
      vertex 0.797104 -1.01873 3.7
      vertex -0.595917 -1.01873 3.7
    endloop
  endfacet
  facet normal 0 0 1
    outer loop
      vertex -0.444962 -0.00892353 3.7
      vertex 0.100571 0.226381 3.7
      vertex -0.207947 0.167559 3.7
    endloop
  endfacet
  facet normal 0 0 1
    outer loop
      vertex 0.797104 -1.01873 3.7
      vertex 0.100571 -1.53456 3.7
      vertex 0.646164 -1.29802 3.7
    endloop
  endfacet
  facet normal 0 0 1
    outer loop
      vertex 0.100571 0.226381 3.7
      vertex -0.444962 -0.00892353 3.7
      vertex -0.595917 -0.287854 3.7
    endloop
  endfacet
  facet normal 0 0 1
    outer loop
      vertex 0.646164 -1.29802 3.7
      vertex 0.100571 -1.53456 3.7
      vertex 0.409134 -1.47542 3.7
    endloop
  endfacet
  facet normal 0 0 1
    outer loop
      vertex 0.797104 -0.287854 3.7
      vertex -0.595917 -0.287854 3.7
      vertex -0.646225 -0.65408 3.7
    endloop
  endfacet
  facet normal -0 -0 1
    outer loop
      vertex -0.444962 -1.29802 3.7
      vertex 0.100571 -1.53456 3.7
      vertex -0.595917 -1.01873 3.7
    endloop
  endfacet
  facet normal 0 0 1
    outer loop
      vertex 0.100571 -1.53456 3.7
      vertex -0.444962 -1.29802 3.7
      vertex -0.207947 -1.47542 3.7
    endloop
  endfacet
endsolid OpenSCAD_Model
