solid OpenSCAD_Model
  facet normal -0 0 1
    outer loop
      vertex 0.692047 1.21518 0.7
      vertex 1.2449 1.00287 0.7
      vertex 1.16452 1.40853 0.7
    endloop
  endfacet
  facet normal 0 0 1
    outer loop
      vertex 1.2449 1.00287 0.7
      vertex 0.738556 0.953936 0.7
      vertex 1.19902 0.703508 0.7
    endloop
  endfacet
  facet normal 0 0 1
    outer loop
      vertex 0.692047 1.21518 0.7
      vertex 1.16452 1.40853 0.7
      vertex 0.923355 1.71927 0.7
    endloop
  endfacet
  facet normal 0 0 1
    outer loop
      vertex 0.692047 0.69269 0.7
      vertex 1.19902 0.703508 0.7
      vertex 0.738556 0.953936 0.7
    endloop
  endfacet
  facet normal 0 0 1
    outer loop
      vertex 1.19902 0.703508 0.7
      vertex 0.692047 0.69269 0.7
      vertex 1.06134 0.453524 0.7
    endloop
  endfacet
  facet normal 0 0 1
    outer loop
      vertex 1.2449 1.00287 0.7
      vertex 0.692047 1.21518 0.7
      vertex 0.738556 0.953936 0.7
    endloop
  endfacet
  facet normal 0 0 1
    outer loop
      vertex 0.923355 1.71927 0.7
      vertex 0.55249 1.4119 0.7
      vertex 0.692047 1.21518 0.7
    endloop
  endfacet
  facet normal 0 0 1
    outer loop
      vertex 0.541077 1.91672 0.7
      vertex 0.55249 1.4119 0.7
      vertex 0.923355 1.71927 0.7
    endloop
  endfacet
  facet normal 0 0 1
    outer loop
      vertex 0.541077 1.91672 0.7
      vertex 0.330658 1.53523 0.7
      vertex 0.55249 1.4119 0.7
    endloop
  endfacet
  facet normal 0 0 1
    outer loop
      vertex 0.0372925 1.98255 0.7
      vertex 0.330658 1.53523 0.7
      vertex 0.541077 1.91672 0.7
    endloop
  endfacet
  facet normal 0 0 1
    outer loop
      vertex 0.0372925 1.98255 0.7
      vertex 0.0372925 1.57636 0.7
      vertex 0.330658 1.53523 0.7
    endloop
  endfacet
  facet normal 0 0 1
    outer loop
      vertex 0.0372925 1.98255 0.7
      vertex -0.257309 1.53523 0.7
      vertex 0.0372925 1.57636 0.7
    endloop
  endfacet
  facet normal -0 0 1
    outer loop
      vertex -0.464935 1.91672 0.7
      vertex -0.257309 1.53523 0.7
      vertex 0.0372925 1.98255 0.7
    endloop
  endfacet
  facet normal 0 0 1
    outer loop
      vertex -0.464935 1.91672 0.7
      vertex -0.47789 1.4119 0.7
      vertex -0.257309 1.53523 0.7
    endloop
  endfacet
  facet normal -0 0 1
    outer loop
      vertex -0.847534 1.71927 0.7
      vertex -0.47789 1.4119 0.7
      vertex -0.464935 1.91672 0.7
    endloop
  endfacet
  facet normal 0 0 1
    outer loop
      vertex -0.47789 1.4119 0.7
      vertex -0.847534 1.71927 0.7
      vertex -0.61554 1.21518 0.7
    endloop
  endfacet
  facet normal -0 0 1
    outer loop
      vertex -1.08961 1.40853 0.7
      vertex -0.61554 1.21518 0.7
      vertex -0.847534 1.71927 0.7
    endloop
  endfacet
  facet normal 0 0 1
    outer loop
      vertex -1.17032 1.00287 0.7
      vertex -0.61554 1.21518 0.7
      vertex -1.08961 1.40853 0.7
    endloop
  endfacet
  facet normal 0 -0 1
    outer loop
      vertex -1.12444 0.703508 0.7
      vertex -0.661423 0.953936 0.7
      vertex -1.17032 1.00287 0.7
    endloop
  endfacet
  facet normal 0 0 1
    outer loop
      vertex -0.61554 1.21518 0.7
      vertex -1.17032 1.00287 0.7
      vertex -0.661423 0.953936 0.7
    endloop
  endfacet
  facet normal 0 0 1
    outer loop
      vertex -0.661423 0.953936 0.7
      vertex -0.986786 0.453524 0.7
      vertex -0.76683 0.264315 0.7
    endloop
  endfacet
  facet normal 0 0 1
    outer loop
      vertex -0.661423 0.953936 0.7
      vertex -1.12444 0.703508 0.7
      vertex -0.986786 0.453524 0.7
    endloop
  endfacet
  facet normal 0 0 1
    outer loop
      vertex 1.06134 0.453524 0.7
      vertex 0.692047 0.69269 0.7
      vertex 0.842041 0.264315 0.7
    endloop
  endfacet
  facet normal -0 0 1
    outer loop
      vertex 0.55249 0.495958 0.7
      vertex 0.842041 0.264315 0.7
      vertex 0.692047 0.69269 0.7
    endloop
  endfacet
  facet normal 0 0 1
    outer loop
      vertex 0.55249 0.495958 0.7
      vertex 0.551224 0.147234 0.7
      vertex 0.842041 0.264315 0.7
    endloop
  endfacet
  facet normal -0 0 1
    outer loop
      vertex 0.330658 0.372622 0.7
      vertex 0.551224 0.147234 0.7
      vertex 0.55249 0.495958 0.7
    endloop
  endfacet
  facet normal 0 0 1
    outer loop
      vertex 0.551224 0.147234 0.7
      vertex 0.330658 0.372622 0.7
      vertex 0.364822 -0.11868 0.7
    endloop
  endfacet
  facet normal 0 0 1
    outer loop
      vertex 0.0372925 -0.0698977 0.7
      vertex 0.330658 0.372622 0.7
      vertex 0.0372925 0.331514 0.7
    endloop
  endfacet
  facet normal 0 0 1
    outer loop
      vertex 0.330658 0.372622 0.7
      vertex 0.0372925 -0.0698977 0.7
      vertex 0.364822 -0.11868 0.7
    endloop
  endfacet
  facet normal 0 0 1
    outer loop
      vertex -0.257309 0.372622 0.7
      vertex 0.0372925 -0.0698977 0.7
      vertex 0.0372925 0.331514 0.7
    endloop
  endfacet
  facet normal 0 0 1
    outer loop
      vertex -0.257309 0.372622 0.7
      vertex -0.28833 -0.11868 0.7
      vertex 0.0372925 -0.0698977 0.7
    endloop
  endfacet
  facet normal 0 0 1
    outer loop
      vertex -0.257309 0.372622 0.7
      vertex -0.474091 0.147234 0.7
      vertex -0.28833 -0.11868 0.7
    endloop
  endfacet
  facet normal 0 0 1
    outer loop
      vertex -0.47789 0.495958 0.7
      vertex -0.474091 0.147234 0.7
      vertex -0.257309 0.372622 0.7
    endloop
  endfacet
  facet normal 0 0 1
    outer loop
      vertex -0.76683 0.264315 0.7
      vertex -0.47789 0.495958 0.7
      vertex -0.61554 0.69269 0.7
    endloop
  endfacet
  facet normal 0 0 1
    outer loop
      vertex -0.47789 0.495958 0.7
      vertex -0.76683 0.264315 0.7
      vertex -0.474091 0.147234 0.7
    endloop
  endfacet
  facet normal 0 0 1
    outer loop
      vertex -0.76683 0.264315 0.7
      vertex -0.61554 0.69269 0.7
      vertex -0.661423 0.953936 0.7
    endloop
  endfacet
  facet normal 0 0 1
    outer loop
      vertex 1.28192 -0.468534 0.7
      vertex 0.769897 -0.496884 0.7
      vertex 0.822113 -0.802228 0.7
    endloop
  endfacet
  facet normal 0 0 1
    outer loop
      vertex 1.12717 -0.189816 0.7
      vertex 0.613235 -0.265042 0.7
      vertex 0.769897 -0.496884 0.7
    endloop
  endfacet
  facet normal 0 0 1
    outer loop
      vertex 0.551224 0.147234 0.7
      vertex 0.613235 -0.265042 0.7
      vertex 0.88002 0.0198841 0.7
    endloop
  endfacet
  facet normal 0 0 1
    outer loop
      vertex 0.613235 -0.265042 0.7
      vertex 0.551224 0.147234 0.7
      vertex 0.364822 -0.11868 0.7
    endloop
  endfacet
  facet normal -0 0 1
    outer loop
      vertex 0.822113 -0.802228 0.7
      vertex 1.3335 -0.803006 0.7
      vertex 1.28192 -0.468534 0.7
    endloop
  endfacet
  facet normal 0 0 1
    outer loop
      vertex 0.769897 -0.496884 0.7
      vertex 1.28192 -0.468534 0.7
      vertex 1.12717 -0.189816 0.7
    endloop
  endfacet
  facet normal 0 0 1
    outer loop
      vertex 0.769577 -1.10598 0.7
      vertex 1.3335 -0.803006 0.7
      vertex 0.822113 -0.802228 0.7
    endloop
  endfacet
  facet normal 0 0 1
    outer loop
      vertex 0.613235 -0.265042 0.7
      vertex 1.12717 -0.189816 0.7
      vertex 0.88002 0.0198841 0.7
    endloop
  endfacet
  facet normal 0 0 1
    outer loop
      vertex 1.3335 -0.803006 0.7
      vertex 0.769577 -1.10598 0.7
      vertex 1.24965 -1.28888 0.7
    endloop
  endfacet
  facet normal 0 0 1
    outer loop
      vertex 1.24965 -1.28888 0.7
      vertex 0.769577 -1.10598 0.7
      vertex 0.998062 -1.64682 0.7
    endloop
  endfacet
  facet normal -0 0 1
    outer loop
      vertex 0.611969 -1.33818 0.7
      vertex 0.998062 -1.64682 0.7
      vertex 0.769577 -1.10598 0.7
    endloop
  endfacet
  facet normal 0 0 1
    outer loop
      vertex 0.611969 -1.33818 0.7
      vertex 0.590149 -1.86725 0.7
      vertex 0.998062 -1.64682 0.7
    endloop
  endfacet
  facet normal -0 0 1
    outer loop
      vertex 0.363235 -1.48546 0.7
      vertex 0.590149 -1.86725 0.7
      vertex 0.611969 -1.33818 0.7
    endloop
  endfacet
  facet normal 0 0 1
    outer loop
      vertex 0.0372925 -1.94073 0.7
      vertex 0.363235 -1.48546 0.7
      vertex 0.0372925 -1.53456 0.7
    endloop
  endfacet
  facet normal 0 0 1
    outer loop
      vertex 0.363235 -1.48546 0.7
      vertex 0.0372925 -1.94073 0.7
      vertex 0.590149 -1.86725 0.7
    endloop
  endfacet
  facet normal 0 0 1
    outer loop
      vertex -0.28833 -1.48578 0.7
      vertex 0.0372925 -1.94073 0.7
      vertex 0.0372925 -1.53456 0.7
    endloop
  endfacet
  facet normal 0 0 1
    outer loop
      vertex -0.28833 -1.48578 0.7
      vertex -0.515549 -1.86725 0.7
      vertex 0.0372925 -1.94073 0.7
    endloop
  endfacet
  facet normal 0 0 1
    outer loop
      vertex -0.536133 -1.33946 0.7
      vertex -0.515549 -1.86725 0.7
      vertex -0.28833 -1.48578 0.7
    endloop
  endfacet
  facet normal 0 0 1
    outer loop
      vertex -0.923462 -1.64682 0.7
      vertex -0.536133 -1.33946 0.7
      vertex -0.692764 -1.10757 0.7
    endloop
  endfacet
  facet normal 0 0 1
    outer loop
      vertex -0.536133 -1.33946 0.7
      vertex -0.923462 -1.64682 0.7
      vertex -0.515549 -1.86725 0.7
    endloop
  endfacet
  facet normal -0 0 1
    outer loop
      vertex -1.25891 -0.803006 0.7
      vertex -0.692764 -1.10757 0.7
      vertex -0.74498 -0.802228 0.7
    endloop
  endfacet
  facet normal -0 0 1
    outer loop
      vertex -1.20702 -0.468534 0.7
      vertex -0.692764 -0.496884 0.7
      vertex -1.05133 -0.189816 0.7
    endloop
  endfacet
  facet normal 0 0 1
    outer loop
      vertex -0.692764 -0.496884 0.7
      vertex -1.20702 -0.468534 0.7
      vertex -0.74498 -0.802228 0.7
    endloop
  endfacet
  facet normal 0 0 1
    outer loop
      vertex -0.692764 -1.10757 0.7
      vertex -1.25891 -0.803006 0.7
      vertex -1.17505 -1.28888 0.7
    endloop
  endfacet
  facet normal 0 0 1
    outer loop
      vertex -0.74498 -0.802228 0.7
      vertex -1.20702 -0.468534 0.7
      vertex -1.25891 -0.803006 0.7
    endloop
  endfacet
  facet normal 0 0 1
    outer loop
      vertex -0.692764 -1.10757 0.7
      vertex -1.17505 -1.28888 0.7
      vertex -0.923462 -1.64682 0.7
    endloop
  endfacet
  facet normal 0 0 1
    outer loop
      vertex -0.474091 0.147234 0.7
      vertex -0.536133 -0.265042 0.7
      vertex -0.28833 -0.11868 0.7
    endloop
  endfacet
  facet normal -0 0 1
    outer loop
      vertex -0.803223 0.0198841 0.7
      vertex -0.536133 -0.265042 0.7
      vertex -0.474091 0.147234 0.7
    endloop
  endfacet
  facet normal 0 0 1
    outer loop
      vertex -0.536133 -0.265042 0.7
      vertex -1.05133 -0.189816 0.7
      vertex -0.692764 -0.496884 0.7
    endloop
  endfacet
  facet normal -0 0 1
    outer loop
      vertex -1.05133 -0.189816 0.7
      vertex -0.536133 -0.265042 0.7
      vertex -0.803223 0.0198841 0.7
    endloop
  endfacet
  facet normal -0.475411 0.879764 0
    outer loop
      vertex 0.998062 -1.64682 0.7
      vertex 0.590149 -1.86725 3.7
      vertex 0.998062 -1.64682 3.7
    endloop
  endfacet
  facet normal -0.475411 0.879764 0
    outer loop
      vertex 0.590149 -1.86725 3.7
      vertex 0.998062 -1.64682 0.7
      vertex 0.590149 -1.86725 0.7
    endloop
  endfacet
  facet normal -0.818124 0.575041 0
    outer loop
      vertex 0.998062 -1.64682 0.7
      vertex 1.24965 -1.28888 3.7
      vertex 1.24965 -1.28888 0.7
    endloop
  endfacet
  facet normal -0.818124 0.575041 0
    outer loop
      vertex 1.24965 -1.28888 3.7
      vertex 0.998062 -1.64682 0.7
      vertex 0.998062 -1.64682 3.7
    endloop
  endfacet
  facet normal -0.985433 0.170062 0
    outer loop
      vertex 1.24965 -1.28888 0.7
      vertex 1.3335 -0.803006 3.7
      vertex 1.3335 -0.803006 0.7
    endloop
  endfacet
  facet normal -0.985433 0.170062 0
    outer loop
      vertex 1.3335 -0.803006 3.7
      vertex 1.24965 -1.28888 0.7
      vertex 1.24965 -1.28888 3.7
    endloop
  endfacet
  facet normal -0.988317 -0.152412 0
    outer loop
      vertex 1.3335 -0.803006 0.7
      vertex 1.28192 -0.468534 3.7
      vertex 1.28192 -0.468534 0.7
    endloop
  endfacet
  facet normal -0.988317 -0.152412 0
    outer loop
      vertex 1.28192 -0.468534 3.7
      vertex 1.3335 -0.803006 0.7
      vertex 1.3335 -0.803006 3.7
    endloop
  endfacet
  facet normal -0.874282 -0.485419 0
    outer loop
      vertex 1.28192 -0.468534 0.7
      vertex 1.12717 -0.189816 3.7
      vertex 1.12717 -0.189816 0.7
    endloop
  endfacet
  facet normal -0.874282 -0.485419 0
    outer loop
      vertex 1.12717 -0.189816 3.7
      vertex 1.28192 -0.468534 0.7
      vertex 1.28192 -0.468534 3.7
    endloop
  endfacet
  facet normal -0.646972 -0.762514 0
    outer loop
      vertex 0.88002 0.0198841 0.7
      vertex 1.12717 -0.189816 3.7
      vertex 0.88002 0.0198841 3.7
    endloop
  endfacet
  facet normal -0.646972 -0.762514 -0
    outer loop
      vertex 1.12717 -0.189816 3.7
      vertex 0.88002 0.0198841 0.7
      vertex 1.12717 -0.189816 0.7
    endloop
  endfacet
  facet normal -0.361177 -0.932497 0
    outer loop
      vertex 0.551224 0.147234 0.7
      vertex 0.88002 0.0198841 3.7
      vertex 0.551224 0.147234 3.7
    endloop
  endfacet
  facet normal -0.361177 -0.932497 -0
    outer loop
      vertex 0.88002 0.0198841 3.7
      vertex 0.551224 0.147234 0.7
      vertex 0.88002 0.0198841 0.7
    endloop
  endfacet
  facet normal -0.373464 0.927645 0
    outer loop
      vertex 0.842041 0.264315 0.7
      vertex 0.551224 0.147234 3.7
      vertex 0.842041 0.264315 3.7
    endloop
  endfacet
  facet normal -0.373464 0.927645 0
    outer loop
      vertex 0.551224 0.147234 3.7
      vertex 0.842041 0.264315 0.7
      vertex 0.551224 0.147234 0.7
    endloop
  endfacet
  facet normal -0.653253 0.75714 0
    outer loop
      vertex 1.06134 0.453524 0.7
      vertex 0.842041 0.264315 3.7
      vertex 1.06134 0.453524 3.7
    endloop
  endfacet
  facet normal -0.653253 0.75714 0
    outer loop
      vertex 0.842041 0.264315 3.7
      vertex 1.06134 0.453524 0.7
      vertex 0.842041 0.264315 0.7
    endloop
  endfacet
  facet normal -0.875936 0.482427 0
    outer loop
      vertex 1.06134 0.453524 0.7
      vertex 1.19902 0.703508 3.7
      vertex 1.19902 0.703508 0.7
    endloop
  endfacet
  facet normal -0.875936 0.482427 0
    outer loop
      vertex 1.19902 0.703508 3.7
      vertex 1.06134 0.453524 0.7
      vertex 1.06134 0.453524 3.7
    endloop
  endfacet
  facet normal -0.988459 0.15149 0
    outer loop
      vertex 1.19902 0.703508 0.7
      vertex 1.2449 1.00287 3.7
      vertex 1.2449 1.00287 0.7
    endloop
  endfacet
  facet normal -0.988459 0.15149 0
    outer loop
      vertex 1.2449 1.00287 3.7
      vertex 1.19902 0.703508 0.7
      vertex 1.19902 0.703508 3.7
    endloop
  endfacet
  facet normal -0.980929 -0.194367 0
    outer loop
      vertex 1.2449 1.00287 0.7
      vertex 1.16452 1.40853 3.7
      vertex 1.16452 1.40853 0.7
    endloop
  endfacet
  facet normal -0.980929 -0.194367 0
    outer loop
      vertex 1.16452 1.40853 3.7
      vertex 1.2449 1.00287 0.7
      vertex 1.2449 1.00287 3.7
    endloop
  endfacet
  facet normal -0.789994 -0.613114 0
    outer loop
      vertex 1.16452 1.40853 0.7
      vertex 0.923355 1.71927 3.7
      vertex 0.923355 1.71927 0.7
    endloop
  endfacet
  facet normal -0.789994 -0.613114 0
    outer loop
      vertex 0.923355 1.71927 3.7
      vertex 1.16452 1.40853 0.7
      vertex 1.16452 1.40853 3.7
    endloop
  endfacet
  facet normal -0.458909 -0.888483 0
    outer loop
      vertex 0.541077 1.91672 0.7
      vertex 0.923355 1.71927 3.7
      vertex 0.541077 1.91672 3.7
    endloop
  endfacet
  facet normal -0.458909 -0.888483 -0
    outer loop
      vertex 0.923355 1.71927 3.7
      vertex 0.541077 1.91672 0.7
      vertex 0.923355 1.71927 0.7
    endloop
  endfacet
  facet normal -0.129569 -0.99157 0
    outer loop
      vertex 0.0372925 1.98255 0.7
      vertex 0.541077 1.91672 3.7
      vertex 0.0372925 1.98255 3.7
    endloop
  endfacet
  facet normal -0.129569 -0.99157 -0
    outer loop
      vertex 0.541077 1.91672 3.7
      vertex 0.0372925 1.98255 0.7
      vertex 0.541077 1.91672 0.7
    endloop
  endfacet
  facet normal 0.129964 -0.991519 0
    outer loop
      vertex -0.464935 1.91672 0.7
      vertex 0.0372925 1.98255 3.7
      vertex -0.464935 1.91672 3.7
    endloop
  endfacet
  facet normal 0.129964 -0.991519 0
    outer loop
      vertex 0.0372925 1.98255 3.7
      vertex -0.464935 1.91672 0.7
      vertex 0.0372925 1.98255 0.7
    endloop
  endfacet
  facet normal 0.458605 -0.88864 0
    outer loop
      vertex -0.847534 1.71927 0.7
      vertex -0.464935 1.91672 3.7
      vertex -0.847534 1.71927 3.7
    endloop
  endfacet
  facet normal 0.458605 -0.88864 0
    outer loop
      vertex -0.464935 1.91672 3.7
      vertex -0.847534 1.71927 0.7
      vertex -0.464935 1.91672 0.7
    endloop
  endfacet
  facet normal 0.788873 -0.614556 0
    outer loop
      vertex -1.08961 1.40853 3.7
      vertex -0.847534 1.71927 0.7
      vertex -0.847534 1.71927 3.7
    endloop
  endfacet
  facet normal 0.788873 -0.614556 0
    outer loop
      vertex -0.847534 1.71927 0.7
      vertex -1.08961 1.40853 3.7
      vertex -1.08961 1.40853 0.7
    endloop
  endfacet
  facet normal 0.980776 -0.195135 0
    outer loop
      vertex -1.17032 1.00287 3.7
      vertex -1.08961 1.40853 0.7
      vertex -1.08961 1.40853 3.7
    endloop
  endfacet
  facet normal 0.980776 -0.195135 0
    outer loop
      vertex -1.08961 1.40853 0.7
      vertex -1.17032 1.00287 3.7
      vertex -1.17032 1.00287 0.7
    endloop
  endfacet
  facet normal 0.988459 0.15149 0
    outer loop
      vertex -1.12444 0.703508 3.7
      vertex -1.17032 1.00287 0.7
      vertex -1.17032 1.00287 3.7
    endloop
  endfacet
  facet normal 0.988459 0.15149 0
    outer loop
      vertex -1.17032 1.00287 0.7
      vertex -1.12444 0.703508 3.7
      vertex -1.12444 0.703508 0.7
    endloop
  endfacet
  facet normal 0.875975 0.482357 0
    outer loop
      vertex -0.986786 0.453524 3.7
      vertex -1.12444 0.703508 0.7
      vertex -1.12444 0.703508 3.7
    endloop
  endfacet
  facet normal 0.875975 0.482357 0
    outer loop
      vertex -1.12444 0.703508 0.7
      vertex -0.986786 0.453524 3.7
      vertex -0.986786 0.453524 0.7
    endloop
  endfacet
  facet normal 0.652132 0.758105 -0
    outer loop
      vertex -0.76683 0.264315 0.7
      vertex -0.986786 0.453524 3.7
      vertex -0.76683 0.264315 3.7
    endloop
  endfacet
  facet normal 0.652132 0.758105 0
    outer loop
      vertex -0.986786 0.453524 3.7
      vertex -0.76683 0.264315 0.7
      vertex -0.986786 0.453524 0.7
    endloop
  endfacet
  facet normal 0.371351 0.928493 -0
    outer loop
      vertex -0.474091 0.147234 0.7
      vertex -0.76683 0.264315 3.7
      vertex -0.474091 0.147234 3.7
    endloop
  endfacet
  facet normal 0.371351 0.928493 0
    outer loop
      vertex -0.76683 0.264315 3.7
      vertex -0.474091 0.147234 0.7
      vertex -0.76683 0.264315 0.7
    endloop
  endfacet
  facet normal 0.360856 -0.932622 0
    outer loop
      vertex -0.803223 0.0198841 0.7
      vertex -0.474091 0.147234 3.7
      vertex -0.803223 0.0198841 3.7
    endloop
  endfacet
  facet normal 0.360856 -0.932622 0
    outer loop
      vertex -0.474091 0.147234 3.7
      vertex -0.803223 0.0198841 0.7
      vertex -0.474091 0.147234 0.7
    endloop
  endfacet
  facet normal 0.645518 -0.763745 0
    outer loop
      vertex -1.05133 -0.189816 0.7
      vertex -0.803223 0.0198841 3.7
      vertex -1.05133 -0.189816 3.7
    endloop
  endfacet
  facet normal 0.645518 -0.763745 0
    outer loop
      vertex -0.803223 0.0198841 3.7
      vertex -1.05133 -0.189816 0.7
      vertex -0.803223 0.0198841 0.7
    endloop
  endfacet
  facet normal 0.873029 -0.487668 0
    outer loop
      vertex -1.20702 -0.468534 3.7
      vertex -1.05133 -0.189816 0.7
      vertex -1.05133 -0.189816 3.7
    endloop
  endfacet
  facet normal 0.873029 -0.487668 0
    outer loop
      vertex -1.05133 -0.189816 0.7
      vertex -1.20702 -0.468534 3.7
      vertex -1.20702 -0.468534 0.7
    endloop
  endfacet
  facet normal 0.988179 -0.153306 0
    outer loop
      vertex -1.25891 -0.803006 3.7
      vertex -1.20702 -0.468534 0.7
      vertex -1.20702 -0.468534 3.7
    endloop
  endfacet
  facet normal 0.988179 -0.153306 0
    outer loop
      vertex -1.20702 -0.468534 0.7
      vertex -1.25891 -0.803006 3.7
      vertex -1.25891 -0.803006 0.7
    endloop
  endfacet
  facet normal 0.98543 0.170081 0
    outer loop
      vertex -1.17505 -1.28888 3.7
      vertex -1.25891 -0.803006 0.7
      vertex -1.25891 -0.803006 3.7
    endloop
  endfacet
  facet normal 0.98543 0.170081 0
    outer loop
      vertex -1.25891 -0.803006 0.7
      vertex -1.17505 -1.28888 3.7
      vertex -1.17505 -1.28888 0.7
    endloop
  endfacet
  facet normal 0.818124 0.575041 0
    outer loop
      vertex -0.923462 -1.64682 3.7
      vertex -1.17505 -1.28888 0.7
      vertex -1.17505 -1.28888 3.7
    endloop
  endfacet
  facet normal 0.818124 0.575041 0
    outer loop
      vertex -1.17505 -1.28888 0.7
      vertex -0.923462 -1.64682 3.7
      vertex -0.923462 -1.64682 0.7
    endloop
  endfacet
  facet normal 0.475411 0.879764 -0
    outer loop
      vertex -0.515549 -1.86725 0.7
      vertex -0.923462 -1.64682 3.7
      vertex -0.515549 -1.86725 3.7
    endloop
  endfacet
  facet normal 0.475411 0.879764 0
    outer loop
      vertex -0.923462 -1.64682 3.7
      vertex -0.515549 -1.86725 0.7
      vertex -0.923462 -1.64682 0.7
    endloop
  endfacet
  facet normal 0.131755 0.991282 -0
    outer loop
      vertex 0.0372925 -1.94073 0.7
      vertex -0.515549 -1.86725 3.7
      vertex 0.0372925 -1.94073 3.7
    endloop
  endfacet
  facet normal 0.131755 0.991282 0
    outer loop
      vertex -0.515549 -1.86725 3.7
      vertex 0.0372925 -1.94073 0.7
      vertex -0.515549 -1.86725 0.7
    endloop
  endfacet
  facet normal -0.131751 0.991283 0
    outer loop
      vertex 0.590149 -1.86725 0.7
      vertex 0.0372925 -1.94073 3.7
      vertex 0.590149 -1.86725 3.7
    endloop
  endfacet
  facet normal -0.131751 0.991283 0
    outer loop
      vertex 0.0372925 -1.94073 3.7
      vertex 0.590149 -1.86725 0.7
      vertex 0.0372925 -1.94073 0.7
    endloop
  endfacet
  facet normal -0.488033 -0.872825 0
    outer loop
      vertex -0.47789 0.495958 0.7
      vertex -0.257309 0.372622 3.7
      vertex -0.47789 0.495958 3.7
    endloop
  endfacet
  facet normal -0.488033 -0.872825 -0
    outer loop
      vertex -0.257309 0.372622 3.7
      vertex -0.47789 0.495958 0.7
      vertex -0.257309 0.372622 0.7
    endloop
  endfacet
  facet normal -0.819354 -0.573288 0
    outer loop
      vertex -0.47789 0.495958 0.7
      vertex -0.61554 0.69269 3.7
      vertex -0.61554 0.69269 0.7
    endloop
  endfacet
  facet normal -0.819354 -0.573288 0
    outer loop
      vertex -0.61554 0.69269 3.7
      vertex -0.47789 0.495958 0.7
      vertex -0.47789 0.495958 3.7
    endloop
  endfacet
  facet normal -0.984925 -0.172984 0
    outer loop
      vertex -0.61554 0.69269 0.7
      vertex -0.661423 0.953936 3.7
      vertex -0.661423 0.953936 0.7
    endloop
  endfacet
  facet normal -0.984925 -0.172984 0
    outer loop
      vertex -0.661423 0.953936 3.7
      vertex -0.61554 0.69269 0.7
      vertex -0.61554 0.69269 3.7
    endloop
  endfacet
  facet normal -0.984924 0.172985 0
    outer loop
      vertex -0.661423 0.953936 0.7
      vertex -0.61554 1.21518 3.7
      vertex -0.61554 1.21518 0.7
    endloop
  endfacet
  facet normal -0.984924 0.172985 0
    outer loop
      vertex -0.61554 1.21518 3.7
      vertex -0.661423 0.953936 0.7
      vertex -0.661423 0.953936 3.7
    endloop
  endfacet
  facet normal -0.819338 0.573311 0
    outer loop
      vertex -0.61554 1.21518 0.7
      vertex -0.47789 1.4119 3.7
      vertex -0.47789 1.4119 0.7
    endloop
  endfacet
  facet normal -0.819338 0.573311 0
    outer loop
      vertex -0.47789 1.4119 3.7
      vertex -0.61554 1.21518 0.7
      vertex -0.61554 1.21518 3.7
    endloop
  endfacet
  facet normal -0.488015 0.872835 0
    outer loop
      vertex -0.257309 1.53523 0.7
      vertex -0.47789 1.4119 3.7
      vertex -0.257309 1.53523 3.7
    endloop
  endfacet
  facet normal -0.488015 0.872835 0
    outer loop
      vertex -0.47789 1.4119 3.7
      vertex -0.257309 1.53523 0.7
      vertex -0.47789 1.4119 0.7
    endloop
  endfacet
  facet normal -0.138271 0.990394 0
    outer loop
      vertex 0.0372925 1.57636 0.7
      vertex -0.257309 1.53523 3.7
      vertex 0.0372925 1.57636 3.7
    endloop
  endfacet
  facet normal -0.138271 0.990394 0
    outer loop
      vertex -0.257309 1.53523 3.7
      vertex 0.0372925 1.57636 0.7
      vertex -0.257309 1.53523 0.7
    endloop
  endfacet
  facet normal 0.138843 0.990314 -0
    outer loop
      vertex 0.330658 1.53523 0.7
      vertex 0.0372925 1.57636 3.7
      vertex 0.330658 1.53523 3.7
    endloop
  endfacet
  facet normal 0.138843 0.990314 0
    outer loop
      vertex 0.0372925 1.57636 3.7
      vertex 0.330658 1.53523 0.7
      vertex 0.0372925 1.57636 0.7
    endloop
  endfacet
  facet normal 0.485914 0.874007 -0
    outer loop
      vertex 0.55249 1.4119 0.7
      vertex 0.330658 1.53523 3.7
      vertex 0.55249 1.4119 3.7
    endloop
  endfacet
  facet normal 0.485914 0.874007 0
    outer loop
      vertex 0.330658 1.53523 3.7
      vertex 0.55249 1.4119 0.7
      vertex 0.330658 1.53523 0.7
    endloop
  endfacet
  facet normal 0.815606 0.578607 0
    outer loop
      vertex 0.692047 1.21518 3.7
      vertex 0.55249 1.4119 0.7
      vertex 0.55249 1.4119 3.7
    endloop
  endfacet
  facet normal 0.815606 0.578607 0
    outer loop
      vertex 0.55249 1.4119 0.7
      vertex 0.692047 1.21518 3.7
      vertex 0.692047 1.21518 0.7
    endloop
  endfacet
  facet normal 0.98452 0.175273 0
    outer loop
      vertex 0.738556 0.953936 3.7
      vertex 0.692047 1.21518 0.7
      vertex 0.692047 1.21518 3.7
    endloop
  endfacet
  facet normal 0.98452 0.175273 0
    outer loop
      vertex 0.692047 1.21518 0.7
      vertex 0.738556 0.953936 3.7
      vertex 0.738556 0.953936 0.7
    endloop
  endfacet
  facet normal 0.98452 -0.175272 0
    outer loop
      vertex 0.692047 0.69269 3.7
      vertex 0.738556 0.953936 0.7
      vertex 0.738556 0.953936 3.7
    endloop
  endfacet
  facet normal 0.98452 -0.175272 0
    outer loop
      vertex 0.738556 0.953936 0.7
      vertex 0.692047 0.69269 3.7
      vertex 0.692047 0.69269 0.7
    endloop
  endfacet
  facet normal 0.815623 -0.578584 0
    outer loop
      vertex 0.55249 0.495958 3.7
      vertex 0.692047 0.69269 0.7
      vertex 0.692047 0.69269 3.7
    endloop
  endfacet
  facet normal 0.815623 -0.578584 0
    outer loop
      vertex 0.692047 0.69269 0.7
      vertex 0.55249 0.495958 3.7
      vertex 0.55249 0.495958 0.7
    endloop
  endfacet
  facet normal 0.485932 -0.873997 0
    outer loop
      vertex 0.330658 0.372622 0.7
      vertex 0.55249 0.495958 3.7
      vertex 0.330658 0.372622 3.7
    endloop
  endfacet
  facet normal 0.485932 -0.873997 0
    outer loop
      vertex 0.55249 0.495958 3.7
      vertex 0.330658 0.372622 0.7
      vertex 0.55249 0.495958 0.7
    endloop
  endfacet
  facet normal 0.13877 -0.990325 0
    outer loop
      vertex 0.0372925 0.331514 0.7
      vertex 0.330658 0.372622 3.7
      vertex 0.0372925 0.331514 3.7
    endloop
  endfacet
  facet normal 0.13877 -0.990325 0
    outer loop
      vertex 0.330658 0.372622 3.7
      vertex 0.0372925 0.331514 0.7
      vertex 0.330658 0.372622 0.7
    endloop
  endfacet
  facet normal -0.138199 -0.990405 0
    outer loop
      vertex -0.257309 0.372622 0.7
      vertex 0.0372925 0.331514 3.7
      vertex -0.257309 0.372622 3.7
    endloop
  endfacet
  facet normal -0.138199 -0.990405 -0
    outer loop
      vertex 0.0372925 0.331514 3.7
      vertex -0.257309 0.372622 0.7
      vertex 0.0372925 0.331514 0.7
    endloop
  endfacet
  facet normal -0.508448 -0.861092 0
    outer loop
      vertex -0.536133 -1.33946 0.7
      vertex -0.28833 -1.48578 3.7
      vertex -0.536133 -1.33946 3.7
    endloop
  endfacet
  facet normal -0.508448 -0.861092 -0
    outer loop
      vertex -0.28833 -1.48578 3.7
      vertex -0.536133 -1.33946 0.7
      vertex -0.28833 -1.48578 0.7
    endloop
  endfacet
  facet normal -0.828674 -0.559731 0
    outer loop
      vertex -0.536133 -1.33946 0.7
      vertex -0.692764 -1.10757 3.7
      vertex -0.692764 -1.10757 0.7
    endloop
  endfacet
  facet normal -0.828674 -0.559731 0
    outer loop
      vertex -0.692764 -1.10757 3.7
      vertex -0.536133 -1.33946 0.7
      vertex -0.536133 -1.33946 3.7
    endloop
  endfacet
  facet normal -0.985691 -0.168561 0
    outer loop
      vertex -0.692764 -1.10757 0.7
      vertex -0.74498 -0.802228 3.7
      vertex -0.74498 -0.802228 0.7
    endloop
  endfacet
  facet normal -0.985691 -0.168561 0
    outer loop
      vertex -0.74498 -0.802228 3.7
      vertex -0.692764 -1.10757 0.7
      vertex -0.692764 -1.10757 3.7
    endloop
  endfacet
  facet normal -0.985691 0.16856 0
    outer loop
      vertex -0.74498 -0.802228 0.7
      vertex -0.692764 -0.496884 3.7
      vertex -0.692764 -0.496884 0.7
    endloop
  endfacet
  facet normal -0.985691 0.16856 0
    outer loop
      vertex -0.692764 -0.496884 3.7
      vertex -0.74498 -0.802228 0.7
      vertex -0.74498 -0.802228 3.7
    endloop
  endfacet
  facet normal -0.82862 0.559811 0
    outer loop
      vertex -0.692764 -0.496884 0.7
      vertex -0.536133 -0.265042 3.7
      vertex -0.536133 -0.265042 0.7
    endloop
  endfacet
  facet normal -0.82862 0.559811 0
    outer loop
      vertex -0.536133 -0.265042 3.7
      vertex -0.692764 -0.496884 0.7
      vertex -0.692764 -0.496884 3.7
    endloop
  endfacet
  facet normal -0.508557 0.861029 0
    outer loop
      vertex -0.28833 -0.11868 0.7
      vertex -0.536133 -0.265042 3.7
      vertex -0.28833 -0.11868 3.7
    endloop
  endfacet
  facet normal -0.508557 0.861029 0
    outer loop
      vertex -0.536133 -0.265042 3.7
      vertex -0.28833 -0.11868 0.7
      vertex -0.536133 -0.265042 0.7
    endloop
  endfacet
  facet normal -0.148159 0.988964 0
    outer loop
      vertex 0.0372925 -0.0698977 0.7
      vertex -0.28833 -0.11868 3.7
      vertex 0.0372925 -0.0698977 3.7
    endloop
  endfacet
  facet normal -0.148159 0.988964 0
    outer loop
      vertex -0.28833 -0.11868 3.7
      vertex 0.0372925 -0.0698977 0.7
      vertex -0.28833 -0.11868 0.7
    endloop
  endfacet
  facet normal 0.147315 0.98909 -0
    outer loop
      vertex 0.364822 -0.11868 0.7
      vertex 0.0372925 -0.0698977 3.7
      vertex 0.364822 -0.11868 3.7
    endloop
  endfacet
  facet normal 0.147315 0.98909 0
    outer loop
      vertex 0.0372925 -0.0698977 3.7
      vertex 0.364822 -0.11868 0.7
      vertex 0.0372925 -0.0698977 0.7
    endloop
  endfacet
  facet normal 0.50763 0.861575 -0
    outer loop
      vertex 0.613235 -0.265042 0.7
      vertex 0.364822 -0.11868 3.7
      vertex 0.613235 -0.265042 3.7
    endloop
  endfacet
  facet normal 0.50763 0.861575 0
    outer loop
      vertex 0.364822 -0.11868 3.7
      vertex 0.613235 -0.265042 0.7
      vertex 0.364822 -0.11868 0.7
    endloop
  endfacet
  facet normal 0.828569 0.559887 0
    outer loop
      vertex 0.769897 -0.496884 3.7
      vertex 0.613235 -0.265042 0.7
      vertex 0.613235 -0.265042 3.7
    endloop
  endfacet
  facet normal 0.828569 0.559887 0
    outer loop
      vertex 0.613235 -0.265042 0.7
      vertex 0.769897 -0.496884 3.7
      vertex 0.769897 -0.496884 0.7
    endloop
  endfacet
  facet normal 0.985691 0.16856 0
    outer loop
      vertex 0.822113 -0.802228 3.7
      vertex 0.769897 -0.496884 0.7
      vertex 0.769897 -0.496884 3.7
    endloop
  endfacet
  facet normal 0.985691 0.16856 0
    outer loop
      vertex 0.769897 -0.496884 0.7
      vertex 0.822113 -0.802228 3.7
      vertex 0.822113 -0.802228 0.7
    endloop
  endfacet
  facet normal 0.98537 -0.170427 0
    outer loop
      vertex 0.769577 -1.10598 3.7
      vertex 0.822113 -0.802228 0.7
      vertex 0.822113 -0.802228 3.7
    endloop
  endfacet
  facet normal 0.98537 -0.170427 0
    outer loop
      vertex 0.822113 -0.802228 0.7
      vertex 0.769577 -1.10598 3.7
      vertex 0.769577 -1.10598 0.7
    endloop
  endfacet
  facet normal 0.827403 -0.561608 0
    outer loop
      vertex 0.611969 -1.33818 3.7
      vertex 0.769577 -1.10598 0.7
      vertex 0.769577 -1.10598 3.7
    endloop
  endfacet
  facet normal 0.827403 -0.561608 0
    outer loop
      vertex 0.769577 -1.10598 0.7
      vertex 0.611969 -1.33818 3.7
      vertex 0.611969 -1.33818 0.7
    endloop
  endfacet
  facet normal 0.5095 -0.86047 0
    outer loop
      vertex 0.363235 -1.48546 0.7
      vertex 0.611969 -1.33818 3.7
      vertex 0.363235 -1.48546 3.7
    endloop
  endfacet
  facet normal 0.5095 -0.86047 0
    outer loop
      vertex 0.611969 -1.33818 3.7
      vertex 0.363235 -1.48546 0.7
      vertex 0.611969 -1.33818 0.7
    endloop
  endfacet
  facet normal 0.148959 -0.988843 0
    outer loop
      vertex 0.0372925 -1.53456 0.7
      vertex 0.363235 -1.48546 3.7
      vertex 0.0372925 -1.53456 3.7
    endloop
  endfacet
  facet normal 0.148959 -0.988843 0
    outer loop
      vertex 0.363235 -1.48546 3.7
      vertex 0.0372925 -1.53456 0.7
      vertex 0.363235 -1.48546 0.7
    endloop
  endfacet
  facet normal -0.148152 -0.988965 0
    outer loop
      vertex -0.28833 -1.48578 0.7
      vertex 0.0372925 -1.53456 3.7
      vertex -0.28833 -1.48578 3.7
    endloop
  endfacet
  facet normal -0.148152 -0.988965 -0
    outer loop
      vertex 0.0372925 -1.53456 3.7
      vertex -0.28833 -1.48578 0.7
      vertex 0.0372925 -1.53456 0.7
    endloop
  endfacet
  facet normal -1 0 0
    outer loop
      vertex 1.86667 -3.36 0.7
      vertex 1.86667 -2.36 3.7
      vertex 1.86667 -2.36 0.7
    endloop
  endfacet
  facet normal -1 -0 0
    outer loop
      vertex 1.86667 -2.36 3.7
      vertex 1.86667 -3.36 0.7
      vertex 1.86667 -3.36 3.7
    endloop
  endfacet
  facet normal -0 0 1
    outer loop
      vertex -1.86667 -2.36 0.7
      vertex 1.86667 -3.36 0.7
      vertex 1.86667 -2.36 0.7
    endloop
  endfacet
  facet normal 0 0 1
    outer loop
      vertex 1.86667 -3.36 0.7
      vertex -1.86667 -2.36 0.7
      vertex -1.86667 -3.36 0.7
    endloop
  endfacet
  facet normal 1 -0 0
    outer loop
      vertex -1.86667 -3.36 3.7
      vertex -1.86667 -2.36 0.7
      vertex -1.86667 -2.36 3.7
    endloop
  endfacet
  facet normal 1 0 0
    outer loop
      vertex -1.86667 -2.36 0.7
      vertex -1.86667 -3.36 3.7
      vertex -1.86667 -3.36 0.7
    endloop
  endfacet
  facet normal 0 -1 0
    outer loop
      vertex -1.86667 -2.36 0.7
      vertex 1.86667 -2.36 3.7
      vertex -1.86667 -2.36 3.7
    endloop
  endfacet
  facet normal 0 -1 -0
    outer loop
      vertex 1.86667 -2.36 3.7
      vertex -1.86667 -2.36 0.7
      vertex 1.86667 -2.36 0.7
    endloop
  endfacet
  facet normal 0 1 -0
    outer loop
      vertex 1.86667 -3.36 0.7
      vertex -1.86667 -3.36 3.7
      vertex 1.86667 -3.36 3.7
    endloop
  endfacet
  facet normal 0 1 0
    outer loop
      vertex -1.86667 -3.36 3.7
      vertex 1.86667 -3.36 0.7
      vertex -1.86667 -3.36 0.7
    endloop
  endfacet
  facet normal 0 1 -0
    outer loop
      vertex 2.66667 4.6188 0
      vertex -2.66667 4.6188 3.7
      vertex 2.66667 4.6188 3.7
    endloop
  endfacet
  facet normal 0 1 0
    outer loop
      vertex -2.66667 4.6188 3.7
      vertex 2.66667 4.6188 0
      vertex -2.66667 4.6188 0
    endloop
  endfacet
  facet normal 0.866026 0.499999 0
    outer loop
      vertex 5.33333 0 3.7
      vertex 2.66667 4.6188 0
      vertex 2.66667 4.6188 3.7
    endloop
  endfacet
  facet normal 0.866026 0.499999 0
    outer loop
      vertex 2.66667 4.6188 0
      vertex 5.33333 0 3.7
      vertex 5.33333 0 0
    endloop
  endfacet
  facet normal -0.866026 0.499999 0
    outer loop
      vertex -5.33333 0 0
      vertex -2.66667 4.6188 3.7
      vertex -2.66667 4.6188 0
    endloop
  endfacet
  facet normal -0.866026 0.499999 0
    outer loop
      vertex -2.66667 4.6188 3.7
      vertex -5.33333 0 0
      vertex -5.33333 0 3.7
    endloop
  endfacet
  facet normal 0.866026 -0.499999 0
    outer loop
      vertex 2.66667 -4.6188 3.7
      vertex 5.33333 0 0
      vertex 5.33333 0 3.7
    endloop
  endfacet
  facet normal 0.866026 -0.499999 0
    outer loop
      vertex 5.33333 0 0
      vertex 2.66667 -4.6188 3.7
      vertex 2.66667 -4.6188 0
    endloop
  endfacet
  facet normal -0.866026 -0.499999 0
    outer loop
      vertex -2.66667 -4.6188 0
      vertex -5.33333 0 3.7
      vertex -5.33333 0 0
    endloop
  endfacet
  facet normal -0.866026 -0.499999 0
    outer loop
      vertex -5.33333 0 3.7
      vertex -2.66667 -4.6188 0
      vertex -2.66667 -4.6188 3.7
    endloop
  endfacet
  facet normal 0 -1 0
    outer loop
      vertex -2.66667 -4.6188 0
      vertex 2.66667 -4.6188 3.7
      vertex -2.66667 -4.6188 3.7
    endloop
  endfacet
  facet normal 0 -1 -0
    outer loop
      vertex 2.66667 -4.6188 3.7
      vertex -2.66667 -4.6188 0
      vertex 2.66667 -4.6188 0
    endloop
  endfacet
  facet normal 0 0 -1
    outer loop
      vertex 2.66667 -4.6188 0
      vertex 2.66667 4.6188 0
      vertex 5.33333 0 0
    endloop
  endfacet
  facet normal 0 0 -1
    outer loop
      vertex -2.66667 -4.6188 0
      vertex 2.66667 4.6188 0
      vertex 2.66667 -4.6188 0
    endloop
  endfacet
  facet normal 0 0 -1
    outer loop
      vertex -2.66667 -4.6188 0
      vertex -2.66667 4.6188 0
      vertex 2.66667 4.6188 0
    endloop
  endfacet
  facet normal 0 -0 -1
    outer loop
      vertex -2.66667 4.6188 0
      vertex -2.66667 -4.6188 0
      vertex -5.33333 0 0
    endloop
  endfacet
  facet normal -0 0 1
    outer loop
      vertex 1.16452 1.40853 3.7
      vertex 5.33333 0 3.7
      vertex 2.66667 4.6188 3.7
    endloop
  endfacet
  facet normal 0 0 1
    outer loop
      vertex 5.33333 0 3.7
      vertex 1.86667 -2.36 3.7
      vertex 2.66667 -4.6188 3.7
    endloop
  endfacet
  facet normal -0 0 1
    outer loop
      vertex 1.19902 0.703508 3.7
      vertex 5.33333 0 3.7
      vertex 1.2449 1.00287 3.7
    endloop
  endfacet
  facet normal 0 0 1
    outer loop
      vertex 5.33333 0 3.7
      vertex 1.3335 -0.803006 3.7
      vertex 1.86667 -2.36 3.7
    endloop
  endfacet
  facet normal 0 -0 1
    outer loop
      vertex 1.3335 -0.803006 3.7
      vertex 5.33333 0 3.7
      vertex 1.28192 -0.468534 3.7
    endloop
  endfacet
  facet normal 0 0 1
    outer loop
      vertex 5.33333 0 3.7
      vertex 1.16452 1.40853 3.7
      vertex 1.2449 1.00287 3.7
    endloop
  endfacet
  facet normal 0 0 1
    outer loop
      vertex 2.66667 4.6188 3.7
      vertex 0.923355 1.71927 3.7
      vertex 1.16452 1.40853 3.7
    endloop
  endfacet
  facet normal 0 0 1
    outer loop
      vertex 2.66667 4.6188 3.7
      vertex 0.541077 1.91672 3.7
      vertex 0.923355 1.71927 3.7
    endloop
  endfacet
  facet normal 0 0 1
    outer loop
      vertex 2.66667 4.6188 3.7
      vertex 0.0372925 1.98255 3.7
      vertex 0.541077 1.91672 3.7
    endloop
  endfacet
  facet normal -0 0 1
    outer loop
      vertex -2.66667 4.6188 3.7
      vertex 0.0372925 1.98255 3.7
      vertex 2.66667 4.6188 3.7
    endloop
  endfacet
  facet normal 0 0 1
    outer loop
      vertex 0.0372925 1.98255 3.7
      vertex -2.66667 4.6188 3.7
      vertex -0.464935 1.91672 3.7
    endloop
  endfacet
  facet normal 0 0 1
    outer loop
      vertex -1.12444 0.703508 3.7
      vertex -5.33333 0 3.7
      vertex -1.20702 -0.468534 3.7
    endloop
  endfacet
  facet normal 0 0 1
    outer loop
      vertex -1.20702 -0.468534 3.7
      vertex -5.33333 0 3.7
      vertex -1.25891 -0.803006 3.7
    endloop
  endfacet
  facet normal 0 0 1
    outer loop
      vertex -5.33333 0 3.7
      vertex -1.17032 1.00287 3.7
      vertex -1.08961 1.40853 3.7
    endloop
  endfacet
  facet normal 0 0 1
    outer loop
      vertex -1.25891 -0.803006 3.7
      vertex -5.33333 0 3.7
      vertex -1.86667 -2.36 3.7
    endloop
  endfacet
  facet normal 0 0 1
    outer loop
      vertex -5.33333 0 3.7
      vertex -1.08961 1.40853 3.7
      vertex -2.66667 4.6188 3.7
    endloop
  endfacet
  facet normal 0 0 1
    outer loop
      vertex -0.847534 1.71927 3.7
      vertex -2.66667 4.6188 3.7
      vertex -1.08961 1.40853 3.7
    endloop
  endfacet
  facet normal 0 0 1
    outer loop
      vertex -0.464935 1.91672 3.7
      vertex -2.66667 4.6188 3.7
      vertex -0.847534 1.71927 3.7
    endloop
  endfacet
  facet normal -0 0 1
    outer loop
      vertex 1.86667 -3.36 3.7
      vertex 2.66667 -4.6188 3.7
      vertex 1.86667 -2.36 3.7
    endloop
  endfacet
  facet normal -0 0 1
    outer loop
      vertex -1.86667 -3.36 3.7
      vertex 2.66667 -4.6188 3.7
      vertex 1.86667 -3.36 3.7
    endloop
  endfacet
  facet normal 0 0 1
    outer loop
      vertex -1.86667 -3.36 3.7
      vertex -2.66667 -4.6188 3.7
      vertex 2.66667 -4.6188 3.7
    endloop
  endfacet
  facet normal 0 -0 1
    outer loop
      vertex -2.66667 -4.6188 3.7
      vertex -1.86667 -2.36 3.7
      vertex -5.33333 0 3.7
    endloop
  endfacet
  facet normal 0 0 1
    outer loop
      vertex -1.86667 -2.36 3.7
      vertex -2.66667 -4.6188 3.7
      vertex -1.86667 -3.36 3.7
    endloop
  endfacet
  facet normal -0 0 1
    outer loop
      vertex 1.24965 -1.28888 3.7
      vertex 1.86667 -2.36 3.7
      vertex 1.3335 -0.803006 3.7
    endloop
  endfacet
  facet normal -0 0 1
    outer loop
      vertex 0.998062 -1.64682 3.7
      vertex 1.86667 -2.36 3.7
      vertex 1.24965 -1.28888 3.7
    endloop
  endfacet
  facet normal -0 0 1
    outer loop
      vertex 0.590149 -1.86725 3.7
      vertex 1.86667 -2.36 3.7
      vertex 0.998062 -1.64682 3.7
    endloop
  endfacet
  facet normal -0 0 1
    outer loop
      vertex 0.0372925 -1.94073 3.7
      vertex 1.86667 -2.36 3.7
      vertex 0.590149 -1.86725 3.7
    endloop
  endfacet
  facet normal 0 0 1
    outer loop
      vertex -1.86667 -2.36 3.7
      vertex 0.0372925 -1.94073 3.7
      vertex -0.515549 -1.86725 3.7
    endloop
  endfacet
  facet normal 0 0 1
    outer loop
      vertex 0.0372925 -1.94073 3.7
      vertex -1.86667 -2.36 3.7
      vertex 1.86667 -2.36 3.7
    endloop
  endfacet
  facet normal 0 0 1
    outer loop
      vertex -0.923462 -1.64682 3.7
      vertex -1.86667 -2.36 3.7
      vertex -0.515549 -1.86725 3.7
    endloop
  endfacet
  facet normal 0 0 1
    outer loop
      vertex -1.17505 -1.28888 3.7
      vertex -1.86667 -2.36 3.7
      vertex -0.923462 -1.64682 3.7
    endloop
  endfacet
  facet normal 0 0 1
    outer loop
      vertex -1.86667 -2.36 3.7
      vertex -1.17505 -1.28888 3.7
      vertex -1.25891 -0.803006 3.7
    endloop
  endfacet
  facet normal 0 0 1
    outer loop
      vertex 5.33333 0 3.7
      vertex 1.19902 0.703508 3.7
      vertex 1.28192 -0.468534 3.7
    endloop
  endfacet
  facet normal 0 0 1
    outer loop
      vertex 1.19902 0.703508 3.7
      vertex 1.12717 -0.189816 3.7
      vertex 1.28192 -0.468534 3.7
    endloop
  endfacet
  facet normal -0 0 1
    outer loop
      vertex 1.06134 0.453524 3.7
      vertex 1.12717 -0.189816 3.7
      vertex 1.19902 0.703508 3.7
    endloop
  endfacet
  facet normal 0 0 1
    outer loop
      vertex 1.06134 0.453524 3.7
      vertex 0.88002 0.0198841 3.7
      vertex 1.12717 -0.189816 3.7
    endloop
  endfacet
  facet normal -0 0 1
    outer loop
      vertex 0.842041 0.264315 3.7
      vertex 0.88002 0.0198841 3.7
      vertex 1.06134 0.453524 3.7
    endloop
  endfacet
  facet normal 0 0 1
    outer loop
      vertex 0.88002 0.0198841 3.7
      vertex 0.842041 0.264315 3.7
      vertex 0.551224 0.147234 3.7
    endloop
  endfacet
  facet normal 0 0 1
    outer loop
      vertex -0.76683 0.264315 3.7
      vertex -0.803223 0.0198841 3.7
      vertex -0.474091 0.147234 3.7
    endloop
  endfacet
  facet normal 0 0 1
    outer loop
      vertex -0.986786 0.453524 3.7
      vertex -0.803223 0.0198841 3.7
      vertex -0.76683 0.264315 3.7
    endloop
  endfacet
  facet normal 0 0 1
    outer loop
      vertex -0.986786 0.453524 3.7
      vertex -1.05133 -0.189816 3.7
      vertex -0.803223 0.0198841 3.7
    endloop
  endfacet
  facet normal 0 0 1
    outer loop
      vertex -1.12444 0.703508 3.7
      vertex -1.05133 -0.189816 3.7
      vertex -0.986786 0.453524 3.7
    endloop
  endfacet
  facet normal 0 0 1
    outer loop
      vertex -5.33333 0 3.7
      vertex -1.12444 0.703508 3.7
      vertex -1.17032 1.00287 3.7
    endloop
  endfacet
  facet normal 0 0 1
    outer loop
      vertex -1.12444 0.703508 3.7
      vertex -1.20702 -0.468534 3.7
      vertex -1.05133 -0.189816 3.7
    endloop
  endfacet
  facet normal 0 0 1
    outer loop
      vertex 0.364822 -0.11868 3.7
      vertex 0.822113 -0.802228 3.7
      vertex 0.769897 -0.496884 3.7
    endloop
  endfacet
  facet normal 0 0 1
    outer loop
      vertex 0.364822 -0.11868 3.7
      vertex 0.769897 -0.496884 3.7
      vertex 0.613235 -0.265042 3.7
    endloop
  endfacet
  facet normal 0 0 1
    outer loop
      vertex 0.0372925 -0.0698977 3.7
      vertex 0.822113 -0.802228 3.7
      vertex 0.364822 -0.11868 3.7
    endloop
  endfacet
  facet normal 0 0 1
    outer loop
      vertex 0.822113 -0.802228 3.7
      vertex 0.363235 -1.48546 3.7
      vertex 0.769577 -1.10598 3.7
    endloop
  endfacet
  facet normal 0 0 1
    outer loop
      vertex 0.769577 -1.10598 3.7
      vertex 0.363235 -1.48546 3.7
      vertex 0.611969 -1.33818 3.7
    endloop
  endfacet
  facet normal 0 0 1
    outer loop
      vertex 0.822113 -0.802228 3.7
      vertex 0.0372925 -0.0698977 3.7
      vertex 0.363235 -1.48546 3.7
    endloop
  endfacet
  facet normal 0 0 1
    outer loop
      vertex 0.0372925 -0.0698977 3.7
      vertex 0.0372925 -1.53456 3.7
      vertex 0.363235 -1.48546 3.7
    endloop
  endfacet
  facet normal 0 0 1
    outer loop
      vertex -0.74498 -0.802228 3.7
      vertex 0.0372925 -0.0698977 3.7
      vertex -0.28833 -0.11868 3.7
    endloop
  endfacet
  facet normal 0 0 1
    outer loop
      vertex 0.0372925 -0.0698977 3.7
      vertex -0.74498 -0.802228 3.7
      vertex 0.0372925 -1.53456 3.7
    endloop
  endfacet
  facet normal 0 0 1
    outer loop
      vertex -0.692764 -0.496884 3.7
      vertex -0.28833 -0.11868 3.7
      vertex -0.536133 -0.265042 3.7
    endloop
  endfacet
  facet normal 0 0 1
    outer loop
      vertex 0.0372925 -1.53456 3.7
      vertex -0.74498 -0.802228 3.7
      vertex -0.28833 -1.48578 3.7
    endloop
  endfacet
  facet normal 0 0 1
    outer loop
      vertex -0.28833 -0.11868 3.7
      vertex -0.692764 -0.496884 3.7
      vertex -0.74498 -0.802228 3.7
    endloop
  endfacet
  facet normal -0 -0 1
    outer loop
      vertex -0.692764 -1.10757 3.7
      vertex -0.28833 -1.48578 3.7
      vertex -0.74498 -0.802228 3.7
    endloop
  endfacet
  facet normal 0 0 1
    outer loop
      vertex -0.28833 -1.48578 3.7
      vertex -0.692764 -1.10757 3.7
      vertex -0.536133 -1.33946 3.7
    endloop
  endfacet
  facet normal 0 0 1
    outer loop
      vertex 0.330658 1.53523 3.7
      vertex 0.738556 0.953936 3.7
      vertex 0.692047 1.21518 3.7
    endloop
  endfacet
  facet normal 0 0 1
    outer loop
      vertex 0.330658 1.53523 3.7
      vertex 0.692047 1.21518 3.7
      vertex 0.55249 1.4119 3.7
    endloop
  endfacet
  facet normal 0 0 1
    outer loop
      vertex 0.330658 0.372622 3.7
      vertex 0.738556 0.953936 3.7
      vertex 0.330658 1.53523 3.7
    endloop
  endfacet
  facet normal 0 0 1
    outer loop
      vertex 0.738556 0.953936 3.7
      vertex 0.330658 0.372622 3.7
      vertex 0.692047 0.69269 3.7
    endloop
  endfacet
  facet normal 0 0 1
    outer loop
      vertex 0.692047 0.69269 3.7
      vertex 0.330658 0.372622 3.7
      vertex 0.55249 0.495958 3.7
    endloop
  endfacet
  facet normal 0 0 1
    outer loop
      vertex 0.0372925 1.57636 3.7
      vertex 0.330658 0.372622 3.7
      vertex 0.330658 1.53523 3.7
    endloop
  endfacet
  facet normal 0 0 1
    outer loop
      vertex 0.0372925 1.57636 3.7
      vertex 0.0372925 0.331514 3.7
      vertex 0.330658 0.372622 3.7
    endloop
  endfacet
  facet normal -0 0 1
    outer loop
      vertex -0.257309 1.53523 3.7
      vertex 0.0372925 0.331514 3.7
      vertex 0.0372925 1.57636 3.7
    endloop
  endfacet
  facet normal 0 0 1
    outer loop
      vertex -0.257309 1.53523 3.7
      vertex -0.257309 0.372622 3.7
      vertex 0.0372925 0.331514 3.7
    endloop
  endfacet
  facet normal 0 0 1
    outer loop
      vertex -0.61554 1.21518 3.7
      vertex -0.257309 1.53523 3.7
      vertex -0.47789 1.4119 3.7
    endloop
  endfacet
  facet normal 0 0 1
    outer loop
      vertex -0.257309 1.53523 3.7
      vertex -0.661423 0.953936 3.7
      vertex -0.257309 0.372622 3.7
    endloop
  endfacet
  facet normal 0 0 1
    outer loop
      vertex -0.257309 1.53523 3.7
      vertex -0.61554 1.21518 3.7
      vertex -0.661423 0.953936 3.7
    endloop
  endfacet
  facet normal -0 -0 1
    outer loop
      vertex -0.61554 0.69269 3.7
      vertex -0.257309 0.372622 3.7
      vertex -0.661423 0.953936 3.7
    endloop
  endfacet
  facet normal 0 0 1
    outer loop
      vertex -0.257309 0.372622 3.7
      vertex -0.61554 0.69269 3.7
      vertex -0.47789 0.495958 3.7
    endloop
  endfacet
endsolid OpenSCAD_Model
