solid OpenSCAD_Model
  facet normal 0 0 1
    outer loop
      vertex 1.81012 3.62151 3.2
      vertex -1.10345 2.80744 3.2
      vertex 1.81012 2.80744 3.2
    endloop
  endfacet
  facet normal 0 0 1
    outer loop
      vertex -1.98996 3.62151 3.2
      vertex -1.10345 1.0537 3.2
      vertex -1.10345 2.80744 3.2
    endloop
  endfacet
  facet normal 0 0 1
    outer loop
      vertex -1.10345 1.0537 3.2
      vertex -1.46072 0.229636 3.2
      vertex -1.20168 0.297431 3.2
    endloop
  endfacet
  facet normal 0 0 1
    outer loop
      vertex -1.10345 1.0537 3.2
      vertex -1.72348 0.140677 3.2
      vertex -1.46072 0.229636 3.2
    endloop
  endfacet
  facet normal -0 0 1
    outer loop
      vertex -1.98996 3.62151 3.2
      vertex -1.10345 2.80744 3.2
      vertex 1.81012 3.62151 3.2
    endloop
  endfacet
  facet normal 0 0 1
    outer loop
      vertex -1.10345 1.0537 3.2
      vertex -1.98996 3.62151 3.2
      vertex -1.98996 0.0305243 3.2
    endloop
  endfacet
  facet normal 0 0 1
    outer loop
      vertex -1.10345 1.0537 3.2
      vertex -1.98996 0.0305243 3.2
      vertex -1.72348 0.140677 3.2
    endloop
  endfacet
  facet normal -0 0 1
    outer loop
      vertex 1.31546 -0.773827 3.2
      vertex 2.33722 -1.23809 3.2
      vertex 2.25948 -0.541878 3.2
    endloop
  endfacet
  facet normal 0 0 1
    outer loop
      vertex 1.31546 -0.773827 3.2
      vertex 2.25948 -0.541878 3.2
      vertex 2.02626 0.0510015 3.2
    endloop
  endfacet
  facet normal 0 0 1
    outer loop
      vertex 1.31546 -1.70234 3.2
      vertex 2.33722 -1.23809 3.2
      vertex 1.36923 -1.23809 3.2
    endloop
  endfacet
  facet normal 0 0 1
    outer loop
      vertex 1.15413 -0.378868 3.2
      vertex 2.02626 0.0510015 3.2
      vertex 1.63756 0.540519 3.2
    endloop
  endfacet
  facet normal 0 0 1
    outer loop
      vertex 2.33722 -1.23809 3.2
      vertex 1.31546 -1.70234 3.2
      vertex 2.25735 -1.95109 3.2
    endloop
  endfacet
  facet normal 0 0 1
    outer loop
      vertex 2.25735 -1.95109 3.2
      vertex 1.31546 -1.70234 3.2
      vertex 2.01775 -2.54957 3.2
    endloop
  endfacet
  facet normal 0 0 1
    outer loop
      vertex 2.33722 -1.23809 3.2
      vertex 1.31546 -0.773827 3.2
      vertex 1.36923 -1.23809 3.2
    endloop
  endfacet
  facet normal 0 0 1
    outer loop
      vertex 2.02626 0.0510015 3.2
      vertex 1.15413 -0.378868 3.2
      vertex 1.31546 -0.773827 3.2
    endloop
  endfacet
  facet normal 0 0 1
    outer loop
      vertex 0.885239 -0.053215 3.2
      vertex 1.63756 0.540519 3.2
      vertex 1.11577 0.905433 3.2
    endloop
  endfacet
  facet normal 0 0 1
    outer loop
      vertex 1.63756 0.540519 3.2
      vertex 0.885239 -0.053215 3.2
      vertex 1.15413 -0.378868 3.2
    endloop
  endfacet
  facet normal 0 0 1
    outer loop
      vertex 1.11577 0.905433 3.2
      vertex 0.524246 0.189292 3.2
      vertex 0.885239 -0.053215 3.2
    endloop
  endfacet
  facet normal 0 0 1
    outer loop
      vertex 0.483231 1.12438 3.2
      vertex 0.524246 0.189292 3.2
      vertex 1.11577 0.905433 3.2
    endloop
  endfacet
  facet normal 0 0 1
    outer loop
      vertex 0.483231 1.12438 3.2
      vertex 0.0865784 0.334785 3.2
      vertex 0.524246 0.189292 3.2
    endloop
  endfacet
  facet normal 0 0 1
    outer loop
      vertex -0.26004 1.19736 3.2
      vertex 0.0865784 0.334785 3.2
      vertex 0.483231 1.12438 3.2
    endloop
  endfacet
  facet normal 0 0 1
    outer loop
      vertex -0.427734 0.383292 3.2
      vertex -0.26004 1.19736 3.2
      vertex -0.40062 1.19337 3.2
    endloop
  endfacet
  facet normal 0 0 1
    outer loop
      vertex -0.26004 1.19736 3.2
      vertex -0.427734 0.383292 3.2
      vertex 0.0865784 0.334785 3.2
    endloop
  endfacet
  facet normal -0 0 1
    outer loop
      vertex -0.541199 1.18139 3.2
      vertex -0.427734 0.383292 3.2
      vertex -0.40062 1.19337 3.2
    endloop
  endfacet
  facet normal -0 0 1
    outer loop
      vertex -0.681778 1.1614 3.2
      vertex -0.427734 0.383292 3.2
      vertex -0.541199 1.18139 3.2
    endloop
  endfacet
  facet normal 0 0 1
    outer loop
      vertex -0.681778 1.1614 3.2
      vertex -0.686249 0.373755 3.2
      vertex -0.427734 0.383292 3.2
    endloop
  endfacet
  facet normal -0 0 1
    outer loop
      vertex -0.822327 1.13348 3.2
      vertex -0.686249 0.373755 3.2
      vertex -0.681778 1.1614 3.2
    endloop
  endfacet
  facet normal -0 0 1
    outer loop
      vertex -0.962875 1.09757 3.2
      vertex -0.686249 0.373755 3.2
      vertex -0.822327 1.13348 3.2
    endloop
  endfacet
  facet normal 0 0 1
    outer loop
      vertex -0.686249 0.373755 3.2
      vertex -0.962875 1.09757 3.2
      vertex -0.944229 0.34513 3.2
    endloop
  endfacet
  facet normal -0 0 1
    outer loop
      vertex -1.10345 1.0537 3.2
      vertex -0.944229 0.34513 3.2
      vertex -0.962875 1.09757 3.2
    endloop
  endfacet
  facet normal 0 0 1
    outer loop
      vertex -0.944229 0.34513 3.2
      vertex -1.10345 1.0537 3.2
      vertex -1.20168 0.297431 3.2
    endloop
  endfacet
  facet normal -0 0 1
    outer loop
      vertex 1.15413 -2.0973 3.2
      vertex 2.01775 -2.54957 3.2
      vertex 1.31546 -1.70234 3.2
    endloop
  endfacet
  facet normal 0 0 1
    outer loop
      vertex 2.01775 -2.54957 3.2
      vertex 1.15413 -2.0973 3.2
      vertex 1.61841 -3.03352 3.2
    endloop
  endfacet
  facet normal -0 0 1
    outer loop
      vertex 0.885239 -2.42295 3.2
      vertex 1.61841 -3.03352 3.2
      vertex 1.15413 -2.0973 3.2
    endloop
  endfacet
  facet normal 0 0 1
    outer loop
      vertex 1.61841 -3.03352 3.2
      vertex 0.885239 -2.42295 3.2
      vertex 1.0737 -3.38909 3.2
    endloop
  endfacet
  facet normal -0 0 1
    outer loop
      vertex 0.524231 -2.66546 3.2
      vertex 1.0737 -3.38909 3.2
      vertex 0.885239 -2.42295 3.2
    endloop
  endfacet
  facet normal 0 0 1
    outer loop
      vertex 0.524231 -2.66546 3.2
      vertex 0.39801 -3.60241 3.2
      vertex 1.0737 -3.38909 3.2
    endloop
  endfacet
  facet normal -0 0 1
    outer loop
      vertex 0.0865479 -2.81097 3.2
      vertex 0.39801 -3.60241 3.2
      vertex 0.524231 -2.66546 3.2
    endloop
  endfacet
  facet normal 0 0 1
    outer loop
      vertex 0.0865479 -2.81097 3.2
      vertex -0.408661 -3.67353 3.2
      vertex 0.39801 -3.60241 3.2
    endloop
  endfacet
  facet normal -0 0 1
    outer loop
      vertex -0.427811 -2.85946 3.2
      vertex -0.408661 -3.67353 3.2
      vertex 0.0865479 -2.81097 3.2
    endloop
  endfacet
  facet normal 0 0 1
    outer loop
      vertex -0.427811 -2.85946 3.2
      vertex -0.710815 -3.66499 3.2
      vertex -0.408661 -3.67353 3.2
    endloop
  endfacet
  facet normal 0 0 1
    outer loop
      vertex -0.763794 -2.84666 3.2
      vertex -0.710815 -3.66499 3.2
      vertex -0.427811 -2.85946 3.2
    endloop
  endfacet
  facet normal 0 0 1
    outer loop
      vertex -0.763794 -2.84666 3.2
      vertex -1.01671 -3.63935 3.2
      vertex -0.710815 -3.66499 3.2
    endloop
  endfacet
  facet normal 0 0 1
    outer loop
      vertex -1.08806 -2.80824 3.2
      vertex -1.01671 -3.63935 3.2
      vertex -0.763794 -2.84666 3.2
    endloop
  endfacet
  facet normal 0 0 1
    outer loop
      vertex -1.08806 -2.80824 3.2
      vertex -1.32634 -3.59664 3.2
      vertex -1.01671 -3.63935 3.2
    endloop
  endfacet
  facet normal 0 0 1
    outer loop
      vertex -1.4006 -2.74421 3.2
      vertex -1.32634 -3.59664 3.2
      vertex -1.08806 -2.80824 3.2
    endloop
  endfacet
  facet normal 0 0 1
    outer loop
      vertex -1.4006 -2.74421 3.2
      vertex -1.64125 -3.53684 3.2
      vertex -1.32634 -3.59664 3.2
    endloop
  endfacet
  facet normal 0 0 1
    outer loop
      vertex -1.7041 -2.65403 3.2
      vertex -1.64125 -3.53684 3.2
      vertex -1.4006 -2.74421 3.2
    endloop
  endfacet
  facet normal 0 0 1
    outer loop
      vertex -1.7041 -2.65403 3.2
      vertex -1.96312 -3.45997 3.2
      vertex -1.64125 -3.53684 3.2
    endloop
  endfacet
  facet normal 0 0 1
    outer loop
      vertex -2.00121 -2.53716 3.2
      vertex -1.96312 -3.45997 3.2
      vertex -1.7041 -2.65403 3.2
    endloop
  endfacet
  facet normal 0 0 1
    outer loop
      vertex -2.29192 -3.366 3.2
      vertex -2.00121 -2.53716 3.2
      vertex -2.29192 -2.39362 3.2
    endloop
  endfacet
  facet normal 0 0 1
    outer loop
      vertex -2.00121 -2.53716 3.2
      vertex -2.29192 -3.366 3.2
      vertex -1.96312 -3.45997 3.2
    endloop
  endfacet
  facet normal -0.30106 0.953605 0
    outer loop
      vertex 1.0737 -3.38909 3.2
      vertex 0.39801 -3.60241 6.2
      vertex 1.0737 -3.38909 6.2
    endloop
  endfacet
  facet normal -0.30106 0.953605 0
    outer loop
      vertex 0.39801 -3.60241 6.2
      vertex 1.0737 -3.38909 3.2
      vertex 0.39801 -3.60241 3.2
    endloop
  endfacet
  facet normal -0.546618 0.837382 0
    outer loop
      vertex 1.61841 -3.03352 3.2
      vertex 1.0737 -3.38909 6.2
      vertex 1.61841 -3.03352 6.2
    endloop
  endfacet
  facet normal -0.546618 0.837382 0
    outer loop
      vertex 1.0737 -3.38909 6.2
      vertex 1.61841 -3.03352 3.2
      vertex 1.0737 -3.38909 3.2
    endloop
  endfacet
  facet normal -0.77131 0.63646 0
    outer loop
      vertex 1.61841 -3.03352 3.2
      vertex 2.01775 -2.54957 6.2
      vertex 2.01775 -2.54957 3.2
    endloop
  endfacet
  facet normal -0.77131 0.63646 0
    outer loop
      vertex 2.01775 -2.54957 6.2
      vertex 1.61841 -3.03352 3.2
      vertex 1.61841 -3.03352 6.2
    endloop
  endfacet
  facet normal -0.928365 0.371669 0
    outer loop
      vertex 2.01775 -2.54957 3.2
      vertex 2.25735 -1.95109 6.2
      vertex 2.25735 -1.95109 3.2
    endloop
  endfacet
  facet normal -0.928365 0.371669 0
    outer loop
      vertex 2.25735 -1.95109 6.2
      vertex 2.01775 -2.54957 3.2
      vertex 2.01775 -2.54957 6.2
    endloop
  endfacet
  facet normal -0.993784 0.111323 0
    outer loop
      vertex 2.25735 -1.95109 3.2
      vertex 2.33722 -1.23809 6.2
      vertex 2.33722 -1.23809 3.2
    endloop
  endfacet
  facet normal -0.993784 0.111323 0
    outer loop
      vertex 2.33722 -1.23809 6.2
      vertex 2.25735 -1.95109 3.2
      vertex 2.25735 -1.95109 6.2
    endloop
  endfacet
  facet normal -0.993824 -0.110972 0
    outer loop
      vertex 2.33722 -1.23809 3.2
      vertex 2.25948 -0.541878 6.2
      vertex 2.25948 -0.541878 3.2
    endloop
  endfacet
  facet normal -0.993824 -0.110972 0
    outer loop
      vertex 2.25948 -0.541878 6.2
      vertex 2.33722 -1.23809 3.2
      vertex 2.33722 -1.23809 6.2
    endloop
  endfacet
  facet normal -0.93059 -0.366064 0
    outer loop
      vertex 2.25948 -0.541878 3.2
      vertex 2.02626 0.0510015 6.2
      vertex 2.02626 0.0510015 3.2
    endloop
  endfacet
  facet normal -0.93059 -0.366064 0
    outer loop
      vertex 2.02626 0.0510015 6.2
      vertex 2.25948 -0.541878 3.2
      vertex 2.25948 -0.541878 6.2
    endloop
  endfacet
  facet normal -0.783138 -0.621848 0
    outer loop
      vertex 2.02626 0.0510015 3.2
      vertex 1.63756 0.540519 6.2
      vertex 1.63756 0.540519 3.2
    endloop
  endfacet
  facet normal -0.783138 -0.621848 0
    outer loop
      vertex 1.63756 0.540519 6.2
      vertex 2.02626 0.0510015 3.2
      vertex 2.02626 0.0510015 6.2
    endloop
  endfacet
  facet normal -0.573105 -0.819482 0
    outer loop
      vertex 1.11577 0.905433 3.2
      vertex 1.63756 0.540519 6.2
      vertex 1.11577 0.905433 6.2
    endloop
  endfacet
  facet normal -0.573105 -0.819482 -0
    outer loop
      vertex 1.63756 0.540519 6.2
      vertex 1.11577 0.905433 3.2
      vertex 1.63756 0.540519 3.2
    endloop
  endfacet
  facet normal -0.327099 -0.94499 0
    outer loop
      vertex 0.483231 1.12438 3.2
      vertex 1.11577 0.905433 6.2
      vertex 0.483231 1.12438 6.2
    endloop
  endfacet
  facet normal -0.327099 -0.94499 -0
    outer loop
      vertex 1.11577 0.905433 6.2
      vertex 0.483231 1.12438 3.2
      vertex 1.11577 0.905433 3.2
    endloop
  endfacet
  facet normal -0.0977177 -0.995214 0
    outer loop
      vertex -0.26004 1.19736 3.2
      vertex 0.483231 1.12438 6.2
      vertex -0.26004 1.19736 6.2
    endloop
  endfacet
  facet normal -0.0977177 -0.995214 -0
    outer loop
      vertex 0.483231 1.12438 6.2
      vertex -0.26004 1.19736 3.2
      vertex 0.483231 1.12438 3.2
    endloop
  endfacet
  facet normal 0.028371 -0.999597 0
    outer loop
      vertex -0.40062 1.19337 3.2
      vertex -0.26004 1.19736 6.2
      vertex -0.40062 1.19337 6.2
    endloop
  endfacet
  facet normal 0.028371 -0.999597 0
    outer loop
      vertex -0.26004 1.19736 6.2
      vertex -0.40062 1.19337 3.2
      vertex -0.26004 1.19736 3.2
    endloop
  endfacet
  facet normal 0.0849112 -0.996389 0
    outer loop
      vertex -0.541199 1.18139 3.2
      vertex -0.40062 1.19337 6.2
      vertex -0.541199 1.18139 6.2
    endloop
  endfacet
  facet normal 0.0849112 -0.996389 0
    outer loop
      vertex -0.40062 1.19337 6.2
      vertex -0.541199 1.18139 3.2
      vertex -0.40062 1.19337 3.2
    endloop
  endfacet
  facet normal 0.140781 -0.990041 0
    outer loop
      vertex -0.681778 1.1614 3.2
      vertex -0.541199 1.18139 6.2
      vertex -0.681778 1.1614 6.2
    endloop
  endfacet
  facet normal 0.140781 -0.990041 0
    outer loop
      vertex -0.541199 1.18139 6.2
      vertex -0.681778 1.1614 3.2
      vertex -0.541199 1.18139 3.2
    endloop
  endfacet
  facet normal 0.194842 -0.980835 0
    outer loop
      vertex -0.822327 1.13348 3.2
      vertex -0.681778 1.1614 6.2
      vertex -0.822327 1.13348 6.2
    endloop
  endfacet
  facet normal 0.194842 -0.980835 0
    outer loop
      vertex -0.681778 1.1614 6.2
      vertex -0.822327 1.13348 3.2
      vertex -0.681778 1.1614 3.2
    endloop
  endfacet
  facet normal 0.247548 -0.968876 0
    outer loop
      vertex -0.962875 1.09757 3.2
      vertex -0.822327 1.13348 6.2
      vertex -0.962875 1.09757 6.2
    endloop
  endfacet
  facet normal 0.247548 -0.968876 0
    outer loop
      vertex -0.822327 1.13348 6.2
      vertex -0.962875 1.09757 3.2
      vertex -0.822327 1.13348 3.2
    endloop
  endfacet
  facet normal 0.297906 -0.954595 0
    outer loop
      vertex -1.10345 1.0537 3.2
      vertex -0.962875 1.09757 6.2
      vertex -1.10345 1.0537 6.2
    endloop
  endfacet
  facet normal 0.297906 -0.954595 0
    outer loop
      vertex -0.962875 1.09757 6.2
      vertex -1.10345 1.0537 3.2
      vertex -0.962875 1.09757 3.2
    endloop
  endfacet
  facet normal -1 0 0
    outer loop
      vertex -1.10345 1.0537 3.2
      vertex -1.10345 2.80744 6.2
      vertex -1.10345 2.80744 3.2
    endloop
  endfacet
  facet normal -1 -0 0
    outer loop
      vertex -1.10345 2.80744 6.2
      vertex -1.10345 1.0537 3.2
      vertex -1.10345 1.0537 6.2
    endloop
  endfacet
  facet normal 0 1 -0
    outer loop
      vertex 1.81012 2.80744 3.2
      vertex -1.10345 2.80744 6.2
      vertex 1.81012 2.80744 6.2
    endloop
  endfacet
  facet normal 0 1 0
    outer loop
      vertex -1.10345 2.80744 6.2
      vertex 1.81012 2.80744 3.2
      vertex -1.10345 2.80744 3.2
    endloop
  endfacet
  facet normal -1 0 0
    outer loop
      vertex 1.81012 2.80744 3.2
      vertex 1.81012 3.62151 6.2
      vertex 1.81012 3.62151 3.2
    endloop
  endfacet
  facet normal -1 -0 0
    outer loop
      vertex 1.81012 3.62151 6.2
      vertex 1.81012 2.80744 3.2
      vertex 1.81012 2.80744 6.2
    endloop
  endfacet
  facet normal 0 -1 0
    outer loop
      vertex -1.98996 3.62151 3.2
      vertex 1.81012 3.62151 6.2
      vertex -1.98996 3.62151 6.2
    endloop
  endfacet
  facet normal 0 -1 -0
    outer loop
      vertex 1.81012 3.62151 6.2
      vertex -1.98996 3.62151 3.2
      vertex 1.81012 3.62151 3.2
    endloop
  endfacet
  facet normal 1 -0 0
    outer loop
      vertex -1.98996 0.0305243 6.2
      vertex -1.98996 3.62151 3.2
      vertex -1.98996 3.62151 6.2
    endloop
  endfacet
  facet normal 1 0 0
    outer loop
      vertex -1.98996 3.62151 3.2
      vertex -1.98996 0.0305243 6.2
      vertex -1.98996 0.0305243 3.2
    endloop
  endfacet
  facet normal -0.382012 0.924158 0
    outer loop
      vertex -1.72348 0.140677 3.2
      vertex -1.98996 0.0305243 6.2
      vertex -1.72348 0.140677 6.2
    endloop
  endfacet
  facet normal -0.382012 0.924158 0
    outer loop
      vertex -1.98996 0.0305243 6.2
      vertex -1.72348 0.140677 3.2
      vertex -1.98996 0.0305243 3.2
    endloop
  endfacet
  facet normal -0.320677 0.947189 0
    outer loop
      vertex -1.46072 0.229636 3.2
      vertex -1.72348 0.140677 6.2
      vertex -1.46072 0.229636 6.2
    endloop
  endfacet
  facet normal -0.320677 0.947189 0
    outer loop
      vertex -1.72348 0.140677 6.2
      vertex -1.46072 0.229636 3.2
      vertex -1.72348 0.140677 3.2
    endloop
  endfacet
  facet normal -0.253189 0.967417 0
    outer loop
      vertex -1.20168 0.297431 3.2
      vertex -1.46072 0.229636 6.2
      vertex -1.20168 0.297431 6.2
    endloop
  endfacet
  facet normal -0.253189 0.967417 0
    outer loop
      vertex -1.46072 0.229636 6.2
      vertex -1.20168 0.297431 3.2
      vertex -1.46072 0.229636 3.2
    endloop
  endfacet
  facet normal -0.182174 0.983266 0
    outer loop
      vertex -0.944229 0.34513 3.2
      vertex -1.20168 0.297431 6.2
      vertex -0.944229 0.34513 6.2
    endloop
  endfacet
  facet normal -0.182174 0.983266 0
    outer loop
      vertex -1.20168 0.297431 6.2
      vertex -0.944229 0.34513 3.2
      vertex -1.20168 0.297431 3.2
    endloop
  endfacet
  facet normal -0.110281 0.9939 0
    outer loop
      vertex -0.686249 0.373755 3.2
      vertex -0.944229 0.34513 6.2
      vertex -0.686249 0.373755 6.2
    endloop
  endfacet
  facet normal -0.110281 0.9939 0
    outer loop
      vertex -0.944229 0.34513 6.2
      vertex -0.686249 0.373755 3.2
      vertex -0.944229 0.34513 3.2
    endloop
  endfacet
  facet normal -0.0368664 0.99932 0
    outer loop
      vertex -0.427734 0.383292 3.2
      vertex -0.686249 0.373755 6.2
      vertex -0.427734 0.383292 6.2
    endloop
  endfacet
  facet normal -0.0368664 0.99932 0
    outer loop
      vertex -0.686249 0.373755 6.2
      vertex -0.427734 0.383292 3.2
      vertex -0.686249 0.373755 3.2
    endloop
  endfacet
  facet normal 0.0938976 0.995582 -0
    outer loop
      vertex 0.0865784 0.334785 3.2
      vertex -0.427734 0.383292 6.2
      vertex 0.0865784 0.334785 6.2
    endloop
  endfacet
  facet normal 0.0938976 0.995582 0
    outer loop
      vertex -0.427734 0.383292 6.2
      vertex 0.0865784 0.334785 3.2
      vertex -0.427734 0.383292 3.2
    endloop
  endfacet
  facet normal 0.315455 0.948941 -0
    outer loop
      vertex 0.524246 0.189292 3.2
      vertex 0.0865784 0.334785 6.2
      vertex 0.524246 0.189292 6.2
    endloop
  endfacet
  facet normal 0.315455 0.948941 0
    outer loop
      vertex 0.0865784 0.334785 6.2
      vertex 0.524246 0.189292 3.2
      vertex 0.0865784 0.334785 3.2
    endloop
  endfacet
  facet normal 0.557634 0.830087 -0
    outer loop
      vertex 0.885239 -0.053215 3.2
      vertex 0.524246 0.189292 6.2
      vertex 0.885239 -0.053215 6.2
    endloop
  endfacet
  facet normal 0.557634 0.830087 0
    outer loop
      vertex 0.524246 0.189292 6.2
      vertex 0.885239 -0.053215 3.2
      vertex 0.524246 0.189292 3.2
    endloop
  endfacet
  facet normal 0.771109 0.636703 0
    outer loop
      vertex 1.15413 -0.378868 6.2
      vertex 0.885239 -0.053215 3.2
      vertex 0.885239 -0.053215 6.2
    endloop
  endfacet
  facet normal 0.771109 0.636703 0
    outer loop
      vertex 0.885239 -0.053215 3.2
      vertex 1.15413 -0.378868 6.2
      vertex 1.15413 -0.378868 3.2
    endloop
  endfacet
  facet normal 0.925747 0.378143 0
    outer loop
      vertex 1.31546 -0.773827 6.2
      vertex 1.15413 -0.378868 3.2
      vertex 1.15413 -0.378868 6.2
    endloop
  endfacet
  facet normal 0.925747 0.378143 0
    outer loop
      vertex 1.15413 -0.378868 3.2
      vertex 1.31546 -0.773827 6.2
      vertex 1.31546 -0.773827 3.2
    endloop
  endfacet
  facet normal 0.99336 0.115049 0
    outer loop
      vertex 1.36923 -1.23809 6.2
      vertex 1.31546 -0.773827 3.2
      vertex 1.31546 -0.773827 6.2
    endloop
  endfacet
  facet normal 0.99336 0.115049 0
    outer loop
      vertex 1.31546 -0.773827 3.2
      vertex 1.36923 -1.23809 6.2
      vertex 1.36923 -1.23809 3.2
    endloop
  endfacet
  facet normal 0.993359 -0.115052 0
    outer loop
      vertex 1.31546 -1.70234 6.2
      vertex 1.36923 -1.23809 3.2
      vertex 1.36923 -1.23809 6.2
    endloop
  endfacet
  facet normal 0.993359 -0.115052 0
    outer loop
      vertex 1.36923 -1.23809 3.2
      vertex 1.31546 -1.70234 6.2
      vertex 1.31546 -1.70234 3.2
    endloop
  endfacet
  facet normal 0.925748 -0.378142 0
    outer loop
      vertex 1.15413 -2.0973 6.2
      vertex 1.31546 -1.70234 3.2
      vertex 1.31546 -1.70234 6.2
    endloop
  endfacet
  facet normal 0.925748 -0.378142 0
    outer loop
      vertex 1.31546 -1.70234 3.2
      vertex 1.15413 -2.0973 6.2
      vertex 1.15413 -2.0973 3.2
    endloop
  endfacet
  facet normal 0.771106 -0.636707 0
    outer loop
      vertex 0.885239 -2.42295 6.2
      vertex 1.15413 -2.0973 3.2
      vertex 1.15413 -2.0973 6.2
    endloop
  endfacet
  facet normal 0.771106 -0.636707 0
    outer loop
      vertex 1.15413 -2.0973 3.2
      vertex 0.885239 -2.42295 6.2
      vertex 0.885239 -2.42295 3.2
    endloop
  endfacet
  facet normal 0.557623 -0.830095 0
    outer loop
      vertex 0.524231 -2.66546 3.2
      vertex 0.885239 -2.42295 6.2
      vertex 0.524231 -2.66546 6.2
    endloop
  endfacet
  facet normal 0.557623 -0.830095 0
    outer loop
      vertex 0.885239 -2.42295 6.2
      vertex 0.524231 -2.66546 3.2
      vertex 0.885239 -2.42295 3.2
    endloop
  endfacet
  facet normal 0.315478 -0.948933 0
    outer loop
      vertex 0.0865479 -2.81097 3.2
      vertex 0.524231 -2.66546 6.2
      vertex 0.0865479 -2.81097 6.2
    endloop
  endfacet
  facet normal 0.315478 -0.948933 0
    outer loop
      vertex 0.524231 -2.66546 6.2
      vertex 0.0865479 -2.81097 3.2
      vertex 0.524231 -2.66546 3.2
    endloop
  endfacet
  facet normal 0.0938566 -0.995586 0
    outer loop
      vertex -0.427811 -2.85946 3.2
      vertex 0.0865479 -2.81097 6.2
      vertex -0.427811 -2.85946 6.2
    endloop
  endfacet
  facet normal 0.0938566 -0.995586 0
    outer loop
      vertex 0.0865479 -2.81097 6.2
      vertex -0.427811 -2.85946 3.2
      vertex 0.0865479 -2.81097 3.2
    endloop
  endfacet
  facet normal -0.0380695 -0.999275 0
    outer loop
      vertex -0.763794 -2.84666 3.2
      vertex -0.427811 -2.85946 6.2
      vertex -0.763794 -2.84666 6.2
    endloop
  endfacet
  facet normal -0.0380695 -0.999275 -0
    outer loop
      vertex -0.427811 -2.85946 6.2
      vertex -0.763794 -2.84666 3.2
      vertex -0.427811 -2.85946 3.2
    endloop
  endfacet
  facet normal -0.11766 -0.993054 0
    outer loop
      vertex -1.08806 -2.80824 3.2
      vertex -0.763794 -2.84666 6.2
      vertex -1.08806 -2.80824 6.2
    endloop
  endfacet
  facet normal -0.11766 -0.993054 -0
    outer loop
      vertex -0.763794 -2.84666 6.2
      vertex -1.08806 -2.80824 3.2
      vertex -0.763794 -2.84666 3.2
    endloop
  endfacet
  facet normal -0.200701 -0.979653 0
    outer loop
      vertex -1.4006 -2.74421 3.2
      vertex -1.08806 -2.80824 6.2
      vertex -1.4006 -2.74421 6.2
    endloop
  endfacet
  facet normal -0.200701 -0.979653 -0
    outer loop
      vertex -1.08806 -2.80824 6.2
      vertex -1.4006 -2.74421 3.2
      vertex -1.08806 -2.80824 3.2
    endloop
  endfacet
  facet normal -0.284826 -0.958579 0
    outer loop
      vertex -1.7041 -2.65403 3.2
      vertex -1.4006 -2.74421 6.2
      vertex -1.7041 -2.65403 6.2
    endloop
  endfacet
  facet normal -0.284826 -0.958579 -0
    outer loop
      vertex -1.4006 -2.74421 6.2
      vertex -1.7041 -2.65403 3.2
      vertex -1.4006 -2.74421 3.2
    endloop
  endfacet
  facet normal -0.366054 -0.930593 0
    outer loop
      vertex -2.00121 -2.53716 3.2
      vertex -1.7041 -2.65403 6.2
      vertex -2.00121 -2.53716 6.2
    endloop
  endfacet
  facet normal -0.366054 -0.930593 -0
    outer loop
      vertex -1.7041 -2.65403 6.2
      vertex -2.00121 -2.53716 3.2
      vertex -1.7041 -2.65403 3.2
    endloop
  endfacet
  facet normal -0.442729 -0.896655 0
    outer loop
      vertex -2.29192 -2.39362 3.2
      vertex -2.00121 -2.53716 6.2
      vertex -2.29192 -2.39362 6.2
    endloop
  endfacet
  facet normal -0.442729 -0.896655 -0
    outer loop
      vertex -2.00121 -2.53716 6.2
      vertex -2.29192 -2.39362 3.2
      vertex -2.00121 -2.53716 3.2
    endloop
  endfacet
  facet normal 1 -0 0
    outer loop
      vertex -2.29192 -3.366 6.2
      vertex -2.29192 -2.39362 3.2
      vertex -2.29192 -2.39362 6.2
    endloop
  endfacet
  facet normal 1 0 0
    outer loop
      vertex -2.29192 -2.39362 3.2
      vertex -2.29192 -3.366 6.2
      vertex -2.29192 -3.366 3.2
    endloop
  endfacet
  facet normal 0.274795 0.961503 -0
    outer loop
      vertex -1.96312 -3.45997 3.2
      vertex -2.29192 -3.366 6.2
      vertex -1.96312 -3.45997 6.2
    endloop
  endfacet
  facet normal 0.274795 0.961503 0
    outer loop
      vertex -2.29192 -3.366 6.2
      vertex -1.96312 -3.45997 3.2
      vertex -2.29192 -3.366 3.2
    endloop
  endfacet
  facet normal 0.23229 0.972646 -0
    outer loop
      vertex -1.64125 -3.53684 3.2
      vertex -1.96312 -3.45997 6.2
      vertex -1.64125 -3.53684 6.2
    endloop
  endfacet
  facet normal 0.23229 0.972646 0
    outer loop
      vertex -1.96312 -3.45997 6.2
      vertex -1.64125 -3.53684 3.2
      vertex -1.96312 -3.45997 3.2
    endloop
  endfacet
  facet normal 0.186562 0.982443 -0
    outer loop
      vertex -1.32634 -3.59664 3.2
      vertex -1.64125 -3.53684 6.2
      vertex -1.32634 -3.59664 6.2
    endloop
  endfacet
  facet normal 0.186562 0.982443 0
    outer loop
      vertex -1.64125 -3.53684 6.2
      vertex -1.32634 -3.59664 3.2
      vertex -1.64125 -3.53684 3.2
    endloop
  endfacet
  facet normal 0.136645 0.99062 -0
    outer loop
      vertex -1.01671 -3.63935 3.2
      vertex -1.32634 -3.59664 6.2
      vertex -1.01671 -3.63935 6.2
    endloop
  endfacet
  facet normal 0.136645 0.99062 0
    outer loop
      vertex -1.32634 -3.59664 6.2
      vertex -1.01671 -3.63935 3.2
      vertex -1.32634 -3.59664 3.2
    endloop
  endfacet
  facet normal 0.0835267 0.996506 -0
    outer loop
      vertex -0.710815 -3.66499 3.2
      vertex -1.01671 -3.63935 6.2
      vertex -0.710815 -3.66499 6.2
    endloop
  endfacet
  facet normal 0.0835267 0.996506 0
    outer loop
      vertex -1.01671 -3.63935 6.2
      vertex -0.710815 -3.66499 3.2
      vertex -1.01671 -3.63935 3.2
    endloop
  endfacet
  facet normal 0.0282525 0.999601 -0
    outer loop
      vertex -0.408661 -3.67353 3.2
      vertex -0.710815 -3.66499 6.2
      vertex -0.408661 -3.67353 6.2
    endloop
  endfacet
  facet normal 0.0282525 0.999601 0
    outer loop
      vertex -0.710815 -3.66499 6.2
      vertex -0.408661 -3.67353 3.2
      vertex -0.710815 -3.66499 3.2
    endloop
  endfacet
  facet normal -0.0878241 0.996136 0
    outer loop
      vertex 0.39801 -3.60241 3.2
      vertex -0.408661 -3.67353 6.2
      vertex 0.39801 -3.60241 6.2
    endloop
  endfacet
  facet normal -0.0878241 0.996136 0
    outer loop
      vertex -0.408661 -3.67353 6.2
      vertex 0.39801 -3.60241 3.2
      vertex -0.408661 -3.67353 3.2
    endloop
  endfacet
  facet normal -1 0 0
    outer loop
      vertex 3.53333 -6.36 3.2
      vertex 3.53333 -5.36 6.2
      vertex 3.53333 -5.36 3.2
    endloop
  endfacet
  facet normal -1 -0 0
    outer loop
      vertex 3.53333 -5.36 6.2
      vertex 3.53333 -6.36 3.2
      vertex 3.53333 -6.36 6.2
    endloop
  endfacet
  facet normal -0 0 1
    outer loop
      vertex -3.53333 -5.36 3.2
      vertex 3.53333 -6.36 3.2
      vertex 3.53333 -5.36 3.2
    endloop
  endfacet
  facet normal 0 0 1
    outer loop
      vertex 3.53333 -6.36 3.2
      vertex -3.53333 -5.36 3.2
      vertex -3.53333 -6.36 3.2
    endloop
  endfacet
  facet normal 1 -0 0
    outer loop
      vertex -3.53333 -6.36 6.2
      vertex -3.53333 -5.36 3.2
      vertex -3.53333 -5.36 6.2
    endloop
  endfacet
  facet normal 1 0 0
    outer loop
      vertex -3.53333 -5.36 3.2
      vertex -3.53333 -6.36 6.2
      vertex -3.53333 -6.36 3.2
    endloop
  endfacet
  facet normal 0 -1 0
    outer loop
      vertex -3.53333 -5.36 3.2
      vertex 3.53333 -5.36 6.2
      vertex -3.53333 -5.36 6.2
    endloop
  endfacet
  facet normal 0 -1 -0
    outer loop
      vertex 3.53333 -5.36 6.2
      vertex -3.53333 -5.36 3.2
      vertex 3.53333 -5.36 3.2
    endloop
  endfacet
  facet normal 0 1 -0
    outer loop
      vertex 3.53333 -6.36 3.2
      vertex -3.53333 -6.36 6.2
      vertex 3.53333 -6.36 6.2
    endloop
  endfacet
  facet normal 0 1 0
    outer loop
      vertex -3.53333 -6.36 6.2
      vertex 3.53333 -6.36 3.2
      vertex -3.53333 -6.36 3.2
    endloop
  endfacet
  facet normal -0.866025 0.500001 0
    outer loop
      vertex -8.66667 0 0
      vertex -4.33333 7.50555 6.2
      vertex -4.33333 7.50555 0
    endloop
  endfacet
  facet normal -0.866025 0.500001 0
    outer loop
      vertex -4.33333 7.50555 6.2
      vertex -8.66667 0 0
      vertex -8.66667 0 6.2
    endloop
  endfacet
  facet normal 0 0 -1
    outer loop
      vertex 4.33333 -7.50555 0
      vertex 4.33333 7.50555 0
      vertex 8.66667 0 0
    endloop
  endfacet
  facet normal 0 0 -1
    outer loop
      vertex -4.33333 -7.50555 0
      vertex 4.33333 7.50555 0
      vertex 4.33333 -7.50555 0
    endloop
  endfacet
  facet normal 0 0 -1
    outer loop
      vertex -4.33333 -7.50555 0
      vertex -4.33333 7.50555 0
      vertex 4.33333 7.50555 0
    endloop
  endfacet
  facet normal 0 -0 -1
    outer loop
      vertex -4.33333 7.50555 0
      vertex -4.33333 -7.50555 0
      vertex -8.66667 0 0
    endloop
  endfacet
  facet normal 0.866025 -0.500001 0
    outer loop
      vertex 4.33333 -7.50555 6.2
      vertex 8.66667 0 0
      vertex 8.66667 0 6.2
    endloop
  endfacet
  facet normal 0.866025 -0.500001 0
    outer loop
      vertex 8.66667 0 0
      vertex 4.33333 -7.50555 6.2
      vertex 4.33333 -7.50555 0
    endloop
  endfacet
  facet normal -0 0 1
    outer loop
      vertex 1.81012 3.62151 6.2
      vertex 8.66667 0 6.2
      vertex 4.33333 7.50555 6.2
    endloop
  endfacet
  facet normal 0 0 1
    outer loop
      vertex 8.66667 0 6.2
      vertex 3.53333 -5.36 6.2
      vertex 4.33333 -7.50555 6.2
    endloop
  endfacet
  facet normal 0 0 1
    outer loop
      vertex 2.25735 -1.95109 6.2
      vertex 8.66667 0 6.2
      vertex 2.33722 -1.23809 6.2
    endloop
  endfacet
  facet normal 0 0 1
    outer loop
      vertex 8.66667 0 6.2
      vertex 2.25948 -0.541878 6.2
      vertex 2.33722 -1.23809 6.2
    endloop
  endfacet
  facet normal -0 -0 1
    outer loop
      vertex 2.02626 0.0510015 6.2
      vertex 8.66667 0 6.2
      vertex 1.81012 2.80744 6.2
    endloop
  endfacet
  facet normal 0 0 1
    outer loop
      vertex 8.66667 0 6.2
      vertex 1.81012 3.62151 6.2
      vertex 1.81012 2.80744 6.2
    endloop
  endfacet
  facet normal -0 0 1
    outer loop
      vertex -4.33333 7.50555 6.2
      vertex 1.81012 3.62151 6.2
      vertex 4.33333 7.50555 6.2
    endloop
  endfacet
  facet normal 0 0 1
    outer loop
      vertex -8.66667 0 6.2
      vertex -1.98996 0.0305243 6.2
      vertex -1.98996 3.62151 6.2
    endloop
  endfacet
  facet normal 0 0 1
    outer loop
      vertex -1.98996 0.0305243 6.2
      vertex -2.29192 -2.39362 6.2
      vertex -2.00121 -2.53716 6.2
    endloop
  endfacet
  facet normal 0 0 1
    outer loop
      vertex -2.29192 -2.39362 6.2
      vertex -3.53333 -5.36 6.2
      vertex -2.29192 -3.366 6.2
    endloop
  endfacet
  facet normal 0 0 1
    outer loop
      vertex -1.98996 0.0305243 6.2
      vertex -8.66667 0 6.2
      vertex -2.29192 -2.39362 6.2
    endloop
  endfacet
  facet normal 0 0 1
    outer loop
      vertex -2.29192 -2.39362 6.2
      vertex -8.66667 0 6.2
      vertex -3.53333 -5.36 6.2
    endloop
  endfacet
  facet normal 0 0 1
    outer loop
      vertex -8.66667 0 6.2
      vertex -1.98996 3.62151 6.2
      vertex -4.33333 7.50555 6.2
    endloop
  endfacet
  facet normal 0 0 1
    outer loop
      vertex 1.81012 3.62151 6.2
      vertex -4.33333 7.50555 6.2
      vertex -1.98996 3.62151 6.2
    endloop
  endfacet
  facet normal -0 0 1
    outer loop
      vertex 3.53333 -6.36 6.2
      vertex 4.33333 -7.50555 6.2
      vertex 3.53333 -5.36 6.2
    endloop
  endfacet
  facet normal -0 0 1
    outer loop
      vertex -3.53333 -6.36 6.2
      vertex 4.33333 -7.50555 6.2
      vertex 3.53333 -6.36 6.2
    endloop
  endfacet
  facet normal 0 0 1
    outer loop
      vertex -3.53333 -6.36 6.2
      vertex -4.33333 -7.50555 6.2
      vertex 4.33333 -7.50555 6.2
    endloop
  endfacet
  facet normal 0 -0 1
    outer loop
      vertex -4.33333 -7.50555 6.2
      vertex -3.53333 -5.36 6.2
      vertex -8.66667 0 6.2
    endloop
  endfacet
  facet normal 0 0 1
    outer loop
      vertex -3.53333 -5.36 6.2
      vertex -4.33333 -7.50555 6.2
      vertex -3.53333 -6.36 6.2
    endloop
  endfacet
  facet normal 0 0 1
    outer loop
      vertex 8.66667 0 6.2
      vertex 2.25735 -1.95109 6.2
      vertex 3.53333 -5.36 6.2
    endloop
  endfacet
  facet normal -0 0 1
    outer loop
      vertex 2.01775 -2.54957 6.2
      vertex 3.53333 -5.36 6.2
      vertex 2.25735 -1.95109 6.2
    endloop
  endfacet
  facet normal -0 0 1
    outer loop
      vertex 1.61841 -3.03352 6.2
      vertex 3.53333 -5.36 6.2
      vertex 2.01775 -2.54957 6.2
    endloop
  endfacet
  facet normal -0 0 1
    outer loop
      vertex 1.0737 -3.38909 6.2
      vertex 3.53333 -5.36 6.2
      vertex 1.61841 -3.03352 6.2
    endloop
  endfacet
  facet normal -0 0 1
    outer loop
      vertex 0.39801 -3.60241 6.2
      vertex 3.53333 -5.36 6.2
      vertex 1.0737 -3.38909 6.2
    endloop
  endfacet
  facet normal -0 0 1
    outer loop
      vertex -0.408661 -3.67353 6.2
      vertex 3.53333 -5.36 6.2
      vertex 0.39801 -3.60241 6.2
    endloop
  endfacet
  facet normal 0 0 1
    outer loop
      vertex -3.53333 -5.36 6.2
      vertex -0.408661 -3.67353 6.2
      vertex -0.710815 -3.66499 6.2
    endloop
  endfacet
  facet normal 0 0 1
    outer loop
      vertex -3.53333 -5.36 6.2
      vertex -0.710815 -3.66499 6.2
      vertex -1.01671 -3.63935 6.2
    endloop
  endfacet
  facet normal 0 0 1
    outer loop
      vertex -3.53333 -5.36 6.2
      vertex -1.01671 -3.63935 6.2
      vertex -1.32634 -3.59664 6.2
    endloop
  endfacet
  facet normal 0 0 1
    outer loop
      vertex -3.53333 -5.36 6.2
      vertex -1.32634 -3.59664 6.2
      vertex -1.64125 -3.53684 6.2
    endloop
  endfacet
  facet normal 0 0 1
    outer loop
      vertex -3.53333 -5.36 6.2
      vertex -1.64125 -3.53684 6.2
      vertex -1.96312 -3.45997 6.2
    endloop
  endfacet
  facet normal 0 0 1
    outer loop
      vertex -3.53333 -5.36 6.2
      vertex -1.96312 -3.45997 6.2
      vertex -2.29192 -3.366 6.2
    endloop
  endfacet
  facet normal 0 0 1
    outer loop
      vertex -0.408661 -3.67353 6.2
      vertex -3.53333 -5.36 6.2
      vertex 3.53333 -5.36 6.2
    endloop
  endfacet
  facet normal 0 0 1
    outer loop
      vertex 8.66667 0 6.2
      vertex 2.02626 0.0510015 6.2
      vertex 2.25948 -0.541878 6.2
    endloop
  endfacet
  facet normal 0 0 1
    outer loop
      vertex 1.81012 2.80744 6.2
      vertex 1.63756 0.540519 6.2
      vertex 2.02626 0.0510015 6.2
    endloop
  endfacet
  facet normal 0 0 1
    outer loop
      vertex 1.81012 2.80744 6.2
      vertex 1.11577 0.905433 6.2
      vertex 1.63756 0.540519 6.2
    endloop
  endfacet
  facet normal 0 0 1
    outer loop
      vertex 1.81012 2.80744 6.2
      vertex 0.483231 1.12438 6.2
      vertex 1.11577 0.905433 6.2
    endloop
  endfacet
  facet normal -0 0 1
    outer loop
      vertex -1.10345 2.80744 6.2
      vertex 0.483231 1.12438 6.2
      vertex 1.81012 2.80744 6.2
    endloop
  endfacet
  facet normal 0 0 1
    outer loop
      vertex 0.483231 1.12438 6.2
      vertex -1.10345 2.80744 6.2
      vertex -0.26004 1.19736 6.2
    endloop
  endfacet
  facet normal 0 0 1
    outer loop
      vertex -0.26004 1.19736 6.2
      vertex -1.10345 2.80744 6.2
      vertex -0.40062 1.19337 6.2
    endloop
  endfacet
  facet normal 0 0 1
    outer loop
      vertex -0.40062 1.19337 6.2
      vertex -1.10345 2.80744 6.2
      vertex -0.541199 1.18139 6.2
    endloop
  endfacet
  facet normal 0 0 1
    outer loop
      vertex -0.541199 1.18139 6.2
      vertex -1.10345 2.80744 6.2
      vertex -0.681778 1.1614 6.2
    endloop
  endfacet
  facet normal 0 0 1
    outer loop
      vertex -0.681778 1.1614 6.2
      vertex -1.10345 2.80744 6.2
      vertex -0.822327 1.13348 6.2
    endloop
  endfacet
  facet normal 0 0 1
    outer loop
      vertex -0.822327 1.13348 6.2
      vertex -1.10345 2.80744 6.2
      vertex -0.962875 1.09757 6.2
    endloop
  endfacet
  facet normal 0 0 1
    outer loop
      vertex -0.962875 1.09757 6.2
      vertex -1.10345 2.80744 6.2
      vertex -1.10345 1.0537 6.2
    endloop
  endfacet
  facet normal 0 0 1
    outer loop
      vertex 0.0865784 0.334785 6.2
      vertex 1.36923 -1.23809 6.2
      vertex 1.31546 -0.773827 6.2
    endloop
  endfacet
  facet normal 0 0 1
    outer loop
      vertex 0.885239 -0.053215 6.2
      vertex 1.31546 -0.773827 6.2
      vertex 1.15413 -0.378868 6.2
    endloop
  endfacet
  facet normal 0 0 1
    outer loop
      vertex 0.0865784 0.334785 6.2
      vertex 1.31546 -0.773827 6.2
      vertex 0.524246 0.189292 6.2
    endloop
  endfacet
  facet normal 0 0 1
    outer loop
      vertex 1.31546 -0.773827 6.2
      vertex 0.885239 -0.053215 6.2
      vertex 0.524246 0.189292 6.2
    endloop
  endfacet
  facet normal 0 0 1
    outer loop
      vertex 0.0865479 -2.81097 6.2
      vertex 1.36923 -1.23809 6.2
      vertex 0.0865784 0.334785 6.2
    endloop
  endfacet
  facet normal 0 -0 1
    outer loop
      vertex 0.885239 -2.42295 6.2
      vertex 1.31546 -1.70234 6.2
      vertex 0.524231 -2.66546 6.2
    endloop
  endfacet
  facet normal 0 0 1
    outer loop
      vertex 1.31546 -1.70234 6.2
      vertex 0.885239 -2.42295 6.2
      vertex 1.15413 -2.0973 6.2
    endloop
  endfacet
  facet normal 0 0 1
    outer loop
      vertex 1.36923 -1.23809 6.2
      vertex 0.0865479 -2.81097 6.2
      vertex 1.31546 -1.70234 6.2
    endloop
  endfacet
  facet normal 0 0 1
    outer loop
      vertex 1.31546 -1.70234 6.2
      vertex 0.0865479 -2.81097 6.2
      vertex 0.524231 -2.66546 6.2
    endloop
  endfacet
  facet normal 0 0 1
    outer loop
      vertex -0.427734 0.383292 6.2
      vertex 0.0865479 -2.81097 6.2
      vertex 0.0865784 0.334785 6.2
    endloop
  endfacet
  facet normal 0 0 1
    outer loop
      vertex -0.427734 0.383292 6.2
      vertex -0.427811 -2.85946 6.2
      vertex 0.0865479 -2.81097 6.2
    endloop
  endfacet
  facet normal -0 0 1
    outer loop
      vertex -0.686249 0.373755 6.2
      vertex -0.427811 -2.85946 6.2
      vertex -0.427734 0.383292 6.2
    endloop
  endfacet
  facet normal 0 0 1
    outer loop
      vertex -0.686249 0.373755 6.2
      vertex -0.763794 -2.84666 6.2
      vertex -0.427811 -2.85946 6.2
    endloop
  endfacet
  facet normal -0 0 1
    outer loop
      vertex -0.944229 0.34513 6.2
      vertex -0.763794 -2.84666 6.2
      vertex -0.686249 0.373755 6.2
    endloop
  endfacet
  facet normal 0 0 1
    outer loop
      vertex -0.944229 0.34513 6.2
      vertex -1.08806 -2.80824 6.2
      vertex -0.763794 -2.84666 6.2
    endloop
  endfacet
  facet normal -0 0 1
    outer loop
      vertex -1.20168 0.297431 6.2
      vertex -1.08806 -2.80824 6.2
      vertex -0.944229 0.34513 6.2
    endloop
  endfacet
  facet normal 0 0 1
    outer loop
      vertex -1.20168 0.297431 6.2
      vertex -1.4006 -2.74421 6.2
      vertex -1.08806 -2.80824 6.2
    endloop
  endfacet
  facet normal -0 0 1
    outer loop
      vertex -1.46072 0.229636 6.2
      vertex -1.4006 -2.74421 6.2
      vertex -1.20168 0.297431 6.2
    endloop
  endfacet
  facet normal -0 0 1
    outer loop
      vertex -1.72348 0.140677 6.2
      vertex -1.4006 -2.74421 6.2
      vertex -1.46072 0.229636 6.2
    endloop
  endfacet
  facet normal 0 0 1
    outer loop
      vertex -1.4006 -2.74421 6.2
      vertex -1.72348 0.140677 6.2
      vertex -1.7041 -2.65403 6.2
    endloop
  endfacet
  facet normal -0 0 1
    outer loop
      vertex -1.98996 0.0305243 6.2
      vertex -1.7041 -2.65403 6.2
      vertex -1.72348 0.140677 6.2
    endloop
  endfacet
  facet normal 0 0 1
    outer loop
      vertex -1.7041 -2.65403 6.2
      vertex -1.98996 0.0305243 6.2
      vertex -2.00121 -2.53716 6.2
    endloop
  endfacet
  facet normal 0 1 -0
    outer loop
      vertex 4.33333 7.50555 0
      vertex -4.33333 7.50555 6.2
      vertex 4.33333 7.50555 6.2
    endloop
  endfacet
  facet normal 0 1 0
    outer loop
      vertex -4.33333 7.50555 6.2
      vertex 4.33333 7.50555 0
      vertex -4.33333 7.50555 0
    endloop
  endfacet
  facet normal -0.866025 -0.500001 0
    outer loop
      vertex -4.33333 -7.50555 0
      vertex -8.66667 0 6.2
      vertex -8.66667 0 0
    endloop
  endfacet
  facet normal -0.866025 -0.500001 0
    outer loop
      vertex -8.66667 0 6.2
      vertex -4.33333 -7.50555 0
      vertex -4.33333 -7.50555 6.2
    endloop
  endfacet
  facet normal 0 -1 0
    outer loop
      vertex -4.33333 -7.50555 0
      vertex 4.33333 -7.50555 6.2
      vertex -4.33333 -7.50555 6.2
    endloop
  endfacet
  facet normal 0 -1 -0
    outer loop
      vertex 4.33333 -7.50555 6.2
      vertex -4.33333 -7.50555 0
      vertex 4.33333 -7.50555 0
    endloop
  endfacet
  facet normal 0.866025 0.500001 0
    outer loop
      vertex 8.66667 0 6.2
      vertex 4.33333 7.50555 0
      vertex 4.33333 7.50555 6.2
    endloop
  endfacet
  facet normal 0.866025 0.500001 0
    outer loop
      vertex 4.33333 7.50555 0
      vertex 8.66667 0 6.2
      vertex 8.66667 0 0
    endloop
  endfacet
endsolid OpenSCAD_Model
