solid OpenSCAD_Model
  facet normal -0 0 1
    outer loop
      vertex -1.78391 -1.04134 3.2
      vertex 0.660019 -1.84638 3.2
      vertex 0.660019 -1.04134 3.2
    endloop
  endfacet
  facet normal 0 0 1
    outer loop
      vertex -2.56985 -1.84638 3.2
      vertex -1.78391 -1.04134 3.2
      vertex -2.56985 -0.911888 3.2
    endloop
  endfacet
  facet normal 0 0 1
    outer loop
      vertex -1.78391 -1.04134 3.2
      vertex -2.56985 -1.84638 3.2
      vertex 0.660019 -1.84638 3.2
    endloop
  endfacet
  facet normal -0 0 1
    outer loop
      vertex 0.660019 2.77811 3.2
      vertex 1.62321 -1.04134 3.2
      vertex 1.62321 3.62151 3.2
    endloop
  endfacet
  facet normal 0 0 1
    outer loop
      vertex 0.660019 -1.04134 3.2
      vertex 1.62321 -1.04134 3.2
      vertex 0.660019 2.77811 3.2
    endloop
  endfacet
  facet normal 0 0 1
    outer loop
      vertex 1.62321 -1.04134 3.2
      vertex 0.660019 -1.04134 3.2
      vertex 1.62321 -1.84638 3.2
    endloop
  endfacet
  facet normal -0 0 1
    outer loop
      vertex 0.406052 3.62151 3.2
      vertex 0.660019 2.77811 3.2
      vertex 1.62321 3.62151 3.2
    endloop
  endfacet
  facet normal 0 0 1
    outer loop
      vertex -2.56985 -0.911888 3.2
      vertex 0.660019 2.77811 3.2
      vertex 0.406052 3.62151 3.2
    endloop
  endfacet
  facet normal 0 0 1
    outer loop
      vertex 0.660019 2.77811 3.2
      vertex -2.56985 -0.911888 3.2
      vertex -1.78391 -1.04134 3.2
    endloop
  endfacet
  facet normal -0 0 1
    outer loop
      vertex 1.62321 -1.04134 3.2
      vertex 2.64392 -1.84638 3.2
      vertex 2.64392 -1.04134 3.2
    endloop
  endfacet
  facet normal 0 0 1
    outer loop
      vertex 2.64392 -1.84638 3.2
      vertex 1.62321 -1.04134 3.2
      vertex 1.62321 -1.84638 3.2
    endloop
  endfacet
  facet normal 0 0 1
    outer loop
      vertex 0.660019 -1.84638 3.2
      vertex 1.62321 -1.84638 3.2
      vertex 0.660019 -1.04134 3.2
    endloop
  endfacet
  facet normal 0 0 1
    outer loop
      vertex 1.62321 -1.84638 3.2
      vertex 0.660019 -1.84638 3.2
      vertex 1.62321 -3.53333 3.2
    endloop
  endfacet
  facet normal 0 0 1
    outer loop
      vertex 1.62321 -3.53333 3.2
      vertex 0.660019 -1.84638 3.2
      vertex 0.660019 -3.53333 3.2
    endloop
  endfacet
  facet normal 0 1 -0
    outer loop
      vertex 2.64392 -1.84638 3.2
      vertex 1.62321 -1.84638 6.2
      vertex 2.64392 -1.84638 6.2
    endloop
  endfacet
  facet normal 0 1 0
    outer loop
      vertex 1.62321 -1.84638 6.2
      vertex 2.64392 -1.84638 3.2
      vertex 1.62321 -1.84638 3.2
    endloop
  endfacet
  facet normal -1 0 0
    outer loop
      vertex 2.64392 -1.84638 3.2
      vertex 2.64392 -1.04134 6.2
      vertex 2.64392 -1.04134 3.2
    endloop
  endfacet
  facet normal -1 -0 0
    outer loop
      vertex 2.64392 -1.04134 6.2
      vertex 2.64392 -1.84638 3.2
      vertex 2.64392 -1.84638 6.2
    endloop
  endfacet
  facet normal 0 -1 0
    outer loop
      vertex 1.62321 -1.04134 3.2
      vertex 2.64392 -1.04134 6.2
      vertex 1.62321 -1.04134 6.2
    endloop
  endfacet
  facet normal 0 -1 -0
    outer loop
      vertex 2.64392 -1.04134 6.2
      vertex 1.62321 -1.04134 3.2
      vertex 2.64392 -1.04134 3.2
    endloop
  endfacet
  facet normal -1 0 0
    outer loop
      vertex 1.62321 -1.04134 3.2
      vertex 1.62321 3.62151 6.2
      vertex 1.62321 3.62151 3.2
    endloop
  endfacet
  facet normal -1 -0 0
    outer loop
      vertex 1.62321 3.62151 6.2
      vertex 1.62321 -1.04134 3.2
      vertex 1.62321 -1.04134 6.2
    endloop
  endfacet
  facet normal 0 -1 0
    outer loop
      vertex 0.406052 3.62151 3.2
      vertex 1.62321 3.62151 6.2
      vertex 0.406052 3.62151 6.2
    endloop
  endfacet
  facet normal 0 -1 -0
    outer loop
      vertex 1.62321 3.62151 6.2
      vertex 0.406052 3.62151 3.2
      vertex 1.62321 3.62151 3.2
    endloop
  endfacet
  facet normal 0.835975 -0.548767 0
    outer loop
      vertex -2.56985 -0.911888 6.2
      vertex 0.406052 3.62151 3.2
      vertex 0.406052 3.62151 6.2
    endloop
  endfacet
  facet normal 0.835975 -0.548767 0
    outer loop
      vertex 0.406052 3.62151 3.2
      vertex -2.56985 -0.911888 6.2
      vertex -2.56985 -0.911888 3.2
    endloop
  endfacet
  facet normal 1 -0 0
    outer loop
      vertex -2.56985 -1.84638 6.2
      vertex -2.56985 -0.911888 3.2
      vertex -2.56985 -0.911888 6.2
    endloop
  endfacet
  facet normal 1 0 0
    outer loop
      vertex -2.56985 -0.911888 3.2
      vertex -2.56985 -1.84638 6.2
      vertex -2.56985 -1.84638 3.2
    endloop
  endfacet
  facet normal 0 1 -0
    outer loop
      vertex 0.660019 -1.84638 3.2
      vertex -2.56985 -1.84638 6.2
      vertex 0.660019 -1.84638 6.2
    endloop
  endfacet
  facet normal 0 1 0
    outer loop
      vertex -2.56985 -1.84638 6.2
      vertex 0.660019 -1.84638 3.2
      vertex -2.56985 -1.84638 3.2
    endloop
  endfacet
  facet normal 1 -0 0
    outer loop
      vertex 0.660019 -3.53333 6.2
      vertex 0.660019 -1.84638 3.2
      vertex 0.660019 -1.84638 6.2
    endloop
  endfacet
  facet normal 1 0 0
    outer loop
      vertex 0.660019 -1.84638 3.2
      vertex 0.660019 -3.53333 6.2
      vertex 0.660019 -3.53333 3.2
    endloop
  endfacet
  facet normal 0 1 -0
    outer loop
      vertex 1.62321 -3.53333 3.2
      vertex 0.660019 -3.53333 6.2
      vertex 1.62321 -3.53333 6.2
    endloop
  endfacet
  facet normal 0 1 0
    outer loop
      vertex 0.660019 -3.53333 6.2
      vertex 1.62321 -3.53333 3.2
      vertex 0.660019 -3.53333 3.2
    endloop
  endfacet
  facet normal -1 0 0
    outer loop
      vertex 1.62321 -3.53333 3.2
      vertex 1.62321 -1.84638 6.2
      vertex 1.62321 -1.84638 3.2
    endloop
  endfacet
  facet normal -1 -0 0
    outer loop
      vertex 1.62321 -1.84638 6.2
      vertex 1.62321 -3.53333 3.2
      vertex 1.62321 -3.53333 6.2
    endloop
  endfacet
  facet normal -0.842323 0.538972 0
    outer loop
      vertex -1.78391 -1.04134 3.2
      vertex 0.660019 2.77811 6.2
      vertex 0.660019 2.77811 3.2
    endloop
  endfacet
  facet normal -0.842323 0.538972 0
    outer loop
      vertex 0.660019 2.77811 6.2
      vertex -1.78391 -1.04134 3.2
      vertex -1.78391 -1.04134 6.2
    endloop
  endfacet
  facet normal 1 -0 0
    outer loop
      vertex 0.660019 -1.04134 6.2
      vertex 0.660019 2.77811 3.2
      vertex 0.660019 2.77811 6.2
    endloop
  endfacet
  facet normal 1 0 0
    outer loop
      vertex 0.660019 2.77811 3.2
      vertex 0.660019 -1.04134 6.2
      vertex 0.660019 -1.04134 3.2
    endloop
  endfacet
  facet normal 0 -1 0
    outer loop
      vertex -1.78391 -1.04134 3.2
      vertex 0.660019 -1.04134 6.2
      vertex -1.78391 -1.04134 6.2
    endloop
  endfacet
  facet normal 0 -1 -0
    outer loop
      vertex 0.660019 -1.04134 6.2
      vertex -1.78391 -1.04134 3.2
      vertex 0.660019 -1.04134 3.2
    endloop
  endfacet
  facet normal -1 0 0
    outer loop
      vertex 3.53333 -6.36 3.2
      vertex 3.53333 -5.36 6.2
      vertex 3.53333 -5.36 3.2
    endloop
  endfacet
  facet normal -1 -0 0
    outer loop
      vertex 3.53333 -5.36 6.2
      vertex 3.53333 -6.36 3.2
      vertex 3.53333 -6.36 6.2
    endloop
  endfacet
  facet normal -0 0 1
    outer loop
      vertex -3.53333 -5.36 3.2
      vertex 3.53333 -6.36 3.2
      vertex 3.53333 -5.36 3.2
    endloop
  endfacet
  facet normal 0 0 1
    outer loop
      vertex 3.53333 -6.36 3.2
      vertex -3.53333 -5.36 3.2
      vertex -3.53333 -6.36 3.2
    endloop
  endfacet
  facet normal 1 -0 0
    outer loop
      vertex -3.53333 -6.36 6.2
      vertex -3.53333 -5.36 3.2
      vertex -3.53333 -5.36 6.2
    endloop
  endfacet
  facet normal 1 0 0
    outer loop
      vertex -3.53333 -5.36 3.2
      vertex -3.53333 -6.36 6.2
      vertex -3.53333 -6.36 3.2
    endloop
  endfacet
  facet normal 0 -1 0
    outer loop
      vertex -3.53333 -5.36 3.2
      vertex 3.53333 -5.36 6.2
      vertex -3.53333 -5.36 6.2
    endloop
  endfacet
  facet normal 0 -1 -0
    outer loop
      vertex 3.53333 -5.36 6.2
      vertex -3.53333 -5.36 3.2
      vertex 3.53333 -5.36 3.2
    endloop
  endfacet
  facet normal 0 1 -0
    outer loop
      vertex 3.53333 -6.36 3.2
      vertex -3.53333 -6.36 6.2
      vertex 3.53333 -6.36 6.2
    endloop
  endfacet
  facet normal 0 1 0
    outer loop
      vertex -3.53333 -6.36 6.2
      vertex 3.53333 -6.36 3.2
      vertex -3.53333 -6.36 3.2
    endloop
  endfacet
  facet normal -0.866025 0.500001 0
    outer loop
      vertex -8.66667 0 0
      vertex -4.33333 7.50555 6.2
      vertex -4.33333 7.50555 0
    endloop
  endfacet
  facet normal -0.866025 0.500001 0
    outer loop
      vertex -4.33333 7.50555 6.2
      vertex -8.66667 0 0
      vertex -8.66667 0 6.2
    endloop
  endfacet
  facet normal 0 0 -1
    outer loop
      vertex 4.33333 -7.50555 0
      vertex 4.33333 7.50555 0
      vertex 8.66667 0 0
    endloop
  endfacet
  facet normal 0 0 -1
    outer loop
      vertex -4.33333 -7.50555 0
      vertex 4.33333 7.50555 0
      vertex 4.33333 -7.50555 0
    endloop
  endfacet
  facet normal 0 0 -1
    outer loop
      vertex -4.33333 -7.50555 0
      vertex -4.33333 7.50555 0
      vertex 4.33333 7.50555 0
    endloop
  endfacet
  facet normal 0 -0 -1
    outer loop
      vertex -4.33333 7.50555 0
      vertex -4.33333 -7.50555 0
      vertex -8.66667 0 0
    endloop
  endfacet
  facet normal 0.866025 -0.500001 0
    outer loop
      vertex 4.33333 -7.50555 6.2
      vertex 8.66667 0 0
      vertex 8.66667 0 6.2
    endloop
  endfacet
  facet normal 0.866025 -0.500001 0
    outer loop
      vertex 8.66667 0 0
      vertex 4.33333 -7.50555 6.2
      vertex 4.33333 -7.50555 0
    endloop
  endfacet
  facet normal 0 0 1
    outer loop
      vertex 0.660019 -1.84638 6.2
      vertex -2.56985 -1.84638 6.2
      vertex 0.660019 -3.53333 6.2
    endloop
  endfacet
  facet normal -0 0 1
    outer loop
      vertex 1.62321 3.62151 6.2
      vertex 8.66667 0 6.2
      vertex 4.33333 7.50555 6.2
    endloop
  endfacet
  facet normal 0 0 1
    outer loop
      vertex 8.66667 0 6.2
      vertex 3.53333 -5.36 6.2
      vertex 4.33333 -7.50555 6.2
    endloop
  endfacet
  facet normal 0 0 1
    outer loop
      vertex 2.64392 -1.84638 6.2
      vertex 8.66667 0 6.2
      vertex 2.64392 -1.04134 6.2
    endloop
  endfacet
  facet normal 0 0 1
    outer loop
      vertex 8.66667 0 6.2
      vertex 1.62321 3.62151 6.2
      vertex 2.64392 -1.04134 6.2
    endloop
  endfacet
  facet normal 0 0 1
    outer loop
      vertex 4.33333 7.50555 6.2
      vertex 0.406052 3.62151 6.2
      vertex 1.62321 3.62151 6.2
    endloop
  endfacet
  facet normal 0 0 1
    outer loop
      vertex -8.66667 0 6.2
      vertex -2.56985 -1.84638 6.2
      vertex -2.56985 -0.911888 6.2
    endloop
  endfacet
  facet normal 0 0 1
    outer loop
      vertex -2.56985 -1.84638 6.2
      vertex -8.66667 0 6.2
      vertex -3.53333 -5.36 6.2
    endloop
  endfacet
  facet normal -0 0 1
    outer loop
      vertex -8.66667 0 6.2
      vertex -2.56985 -0.911888 6.2
      vertex -4.33333 7.50555 6.2
    endloop
  endfacet
  facet normal 0 0 1
    outer loop
      vertex 0.406052 3.62151 6.2
      vertex -4.33333 7.50555 6.2
      vertex -2.56985 -0.911888 6.2
    endloop
  endfacet
  facet normal -0 0 1
    outer loop
      vertex -4.33333 7.50555 6.2
      vertex 0.406052 3.62151 6.2
      vertex 4.33333 7.50555 6.2
    endloop
  endfacet
  facet normal -0 0 1
    outer loop
      vertex 3.53333 -6.36 6.2
      vertex 4.33333 -7.50555 6.2
      vertex 3.53333 -5.36 6.2
    endloop
  endfacet
  facet normal -0 0 1
    outer loop
      vertex -3.53333 -6.36 6.2
      vertex 4.33333 -7.50555 6.2
      vertex 3.53333 -6.36 6.2
    endloop
  endfacet
  facet normal 0 0 1
    outer loop
      vertex -3.53333 -6.36 6.2
      vertex -4.33333 -7.50555 6.2
      vertex 4.33333 -7.50555 6.2
    endloop
  endfacet
  facet normal 0 -0 1
    outer loop
      vertex -4.33333 -7.50555 6.2
      vertex -3.53333 -5.36 6.2
      vertex -8.66667 0 6.2
    endloop
  endfacet
  facet normal 0 0 1
    outer loop
      vertex -3.53333 -5.36 6.2
      vertex -4.33333 -7.50555 6.2
      vertex -3.53333 -6.36 6.2
    endloop
  endfacet
  facet normal 0 0 1
    outer loop
      vertex 8.66667 0 6.2
      vertex 2.64392 -1.84638 6.2
      vertex 3.53333 -5.36 6.2
    endloop
  endfacet
  facet normal 0 0 1
    outer loop
      vertex 1.62321 -3.53333 6.2
      vertex 2.64392 -1.84638 6.2
      vertex 1.62321 -1.84638 6.2
    endloop
  endfacet
  facet normal 0 0 1
    outer loop
      vertex 2.64392 -1.84638 6.2
      vertex 1.62321 -3.53333 6.2
      vertex 3.53333 -5.36 6.2
    endloop
  endfacet
  facet normal -0 0 1
    outer loop
      vertex 0.660019 -3.53333 6.2
      vertex 3.53333 -5.36 6.2
      vertex 1.62321 -3.53333 6.2
    endloop
  endfacet
  facet normal 0 0 1
    outer loop
      vertex -3.53333 -5.36 6.2
      vertex 0.660019 -3.53333 6.2
      vertex -2.56985 -1.84638 6.2
    endloop
  endfacet
  facet normal 0 0 1
    outer loop
      vertex 0.660019 -3.53333 6.2
      vertex -3.53333 -5.36 6.2
      vertex 3.53333 -5.36 6.2
    endloop
  endfacet
  facet normal 0 0 1
    outer loop
      vertex 2.64392 -1.04134 6.2
      vertex 1.62321 3.62151 6.2
      vertex 1.62321 -1.04134 6.2
    endloop
  endfacet
  facet normal 0 0 1
    outer loop
      vertex 0.660019 2.77811 6.2
      vertex -1.78391 -1.04134 6.2
      vertex 0.660019 -1.04134 6.2
    endloop
  endfacet
  facet normal 0 1 -0
    outer loop
      vertex 4.33333 7.50555 0
      vertex -4.33333 7.50555 6.2
      vertex 4.33333 7.50555 6.2
    endloop
  endfacet
  facet normal 0 1 0
    outer loop
      vertex -4.33333 7.50555 6.2
      vertex 4.33333 7.50555 0
      vertex -4.33333 7.50555 0
    endloop
  endfacet
  facet normal -0.866025 -0.500001 0
    outer loop
      vertex -4.33333 -7.50555 0
      vertex -8.66667 0 6.2
      vertex -8.66667 0 0
    endloop
  endfacet
  facet normal -0.866025 -0.500001 0
    outer loop
      vertex -8.66667 0 6.2
      vertex -4.33333 -7.50555 0
      vertex -4.33333 -7.50555 6.2
    endloop
  endfacet
  facet normal 0 -1 0
    outer loop
      vertex -4.33333 -7.50555 0
      vertex 4.33333 -7.50555 6.2
      vertex -4.33333 -7.50555 6.2
    endloop
  endfacet
  facet normal 0 -1 -0
    outer loop
      vertex 4.33333 -7.50555 6.2
      vertex -4.33333 -7.50555 0
      vertex 4.33333 -7.50555 0
    endloop
  endfacet
  facet normal 0.866025 0.500001 0
    outer loop
      vertex 8.66667 0 6.2
      vertex 4.33333 7.50555 0
      vertex 4.33333 7.50555 6.2
    endloop
  endfacet
  facet normal 0.866025 0.500001 0
    outer loop
      vertex 4.33333 7.50555 0
      vertex 8.66667 0 6.2
      vertex 8.66667 0 0
    endloop
  endfacet
endsolid OpenSCAD_Model
