solid OpenSCAD_Model
  facet normal 0 0 1
    outer loop
      vertex 1.81918 3.51903 5
      vertex 0.687623 2.72798 5
      vertex 1.81918 3.11856 5
    endloop
  endfacet
  facet normal -0 0 1
    outer loop
      vertex -2.65101 3.51903 5
      vertex 0.687623 2.72798 5
      vertex 1.81918 3.51903 5
    endloop
  endfacet
  facet normal 0 0 1
    outer loop
      vertex 0.687623 2.72798 5
      vertex -2.65101 3.51903 5
      vertex -2.65101 2.72798 5
    endloop
  endfacet
  facet normal -0 0 1
    outer loop
      vertex 0.687623 2.72798 5
      vertex -0.704664 -3.43333 5
      vertex 1.81918 3.11856 5
    endloop
  endfacet
  facet normal 0 -0 1
    outer loop
      vertex -0.704664 -3.43333 5
      vertex 0.687623 2.72798 5
      vertex -1.68715 -3.43333 5
    endloop
  endfacet
  facet normal -1 0 0
    outer loop
      vertex 1.81918 3.11856 5
      vertex 1.81918 3.51903 6
      vertex 1.81918 3.51903 5
    endloop
  endfacet
  facet normal -1 -0 0
    outer loop
      vertex 1.81918 3.51903 6
      vertex 1.81918 3.11856 5
      vertex 1.81918 3.11856 6
    endloop
  endfacet
  facet normal 0 -1 0
    outer loop
      vertex -2.65101 3.51903 5
      vertex 1.81918 3.51903 6
      vertex -2.65101 3.51903 6
    endloop
  endfacet
  facet normal 0 -1 -0
    outer loop
      vertex 1.81918 3.51903 6
      vertex -2.65101 3.51903 5
      vertex 1.81918 3.51903 5
    endloop
  endfacet
  facet normal 1 -0 0
    outer loop
      vertex -2.65101 2.72798 6
      vertex -2.65101 3.51903 5
      vertex -2.65101 3.51903 6
    endloop
  endfacet
  facet normal 1 0 0
    outer loop
      vertex -2.65101 3.51903 5
      vertex -2.65101 2.72798 6
      vertex -2.65101 2.72798 5
    endloop
  endfacet
  facet normal 0 1 -0
    outer loop
      vertex 0.687623 2.72798 5
      vertex -2.65101 2.72798 6
      vertex 0.687623 2.72798 6
    endloop
  endfacet
  facet normal 0 1 0
    outer loop
      vertex -2.65101 2.72798 6
      vertex 0.687623 2.72798 5
      vertex -2.65101 2.72798 5
    endloop
  endfacet
  facet normal 0.93309 -0.359644 0
    outer loop
      vertex -1.68715 -3.43333 6
      vertex 0.687623 2.72798 5
      vertex 0.687623 2.72798 6
    endloop
  endfacet
  facet normal 0.93309 -0.359644 0
    outer loop
      vertex 0.687623 2.72798 5
      vertex -1.68715 -3.43333 6
      vertex -1.68715 -3.43333 5
    endloop
  endfacet
  facet normal 0 1 -0
    outer loop
      vertex -0.704664 -3.43333 5
      vertex -1.68715 -3.43333 6
      vertex -0.704664 -3.43333 6
    endloop
  endfacet
  facet normal 0 1 0
    outer loop
      vertex -1.68715 -3.43333 6
      vertex -0.704664 -3.43333 5
      vertex -1.68715 -3.43333 5
    endloop
  endfacet
  facet normal -0.93316 0.359461 0
    outer loop
      vertex -0.704664 -3.43333 5
      vertex 1.81918 3.11856 6
      vertex 1.81918 3.11856 5
    endloop
  endfacet
  facet normal -0.93316 0.359461 0
    outer loop
      vertex 1.81918 3.11856 6
      vertex -0.704664 -3.43333 5
      vertex -0.704664 -3.43333 6
    endloop
  endfacet
  facet normal -1 0 0
    outer loop
      vertex 3.43333 -6.86667 5
      vertex 3.43333 -5.86667 6
      vertex 3.43333 -5.86667 5
    endloop
  endfacet
  facet normal -1 -0 0
    outer loop
      vertex 3.43333 -5.86667 6
      vertex 3.43333 -6.86667 5
      vertex 3.43333 -6.86667 6
    endloop
  endfacet
  facet normal -0 0 1
    outer loop
      vertex -3.43333 -5.86667 5
      vertex 3.43333 -6.86667 5
      vertex 3.43333 -5.86667 5
    endloop
  endfacet
  facet normal 0 0 1
    outer loop
      vertex 3.43333 -6.86667 5
      vertex -3.43333 -5.86667 5
      vertex -3.43333 -6.86667 5
    endloop
  endfacet
  facet normal 1 -0 0
    outer loop
      vertex -3.43333 -6.86667 6
      vertex -3.43333 -5.86667 5
      vertex -3.43333 -5.86667 6
    endloop
  endfacet
  facet normal 1 0 0
    outer loop
      vertex -3.43333 -5.86667 5
      vertex -3.43333 -6.86667 6
      vertex -3.43333 -6.86667 5
    endloop
  endfacet
  facet normal 0 -1 0
    outer loop
      vertex -3.43333 -5.86667 5
      vertex 3.43333 -5.86667 6
      vertex -3.43333 -5.86667 6
    endloop
  endfacet
  facet normal 0 -1 -0
    outer loop
      vertex 3.43333 -5.86667 6
      vertex -3.43333 -5.86667 5
      vertex 3.43333 -5.86667 5
    endloop
  endfacet
  facet normal 0 1 -0
    outer loop
      vertex 3.43333 -6.86667 5
      vertex -3.43333 -6.86667 6
      vertex 3.43333 -6.86667 6
    endloop
  endfacet
  facet normal 0 1 0
    outer loop
      vertex -3.43333 -6.86667 6
      vertex 3.43333 -6.86667 5
      vertex -3.43333 -6.86667 5
    endloop
  endfacet
  facet normal -0.866025 0.500001 0
    outer loop
      vertex -8.46667 0 0
      vertex -4.23333 7.33235 6
      vertex -4.23333 7.33235 0
    endloop
  endfacet
  facet normal -0.866025 0.500001 0
    outer loop
      vertex -4.23333 7.33235 6
      vertex -8.46667 0 0
      vertex -8.46667 0 6
    endloop
  endfacet
  facet normal 0 0 -1
    outer loop
      vertex 4.23333 -7.33235 0
      vertex 4.23333 7.33235 0
      vertex 8.46667 0 0
    endloop
  endfacet
  facet normal 0 0 -1
    outer loop
      vertex -4.23333 -7.33235 0
      vertex 4.23333 7.33235 0
      vertex 4.23333 -7.33235 0
    endloop
  endfacet
  facet normal 0 0 -1
    outer loop
      vertex -4.23333 -7.33235 0
      vertex -4.23333 7.33235 0
      vertex 4.23333 7.33235 0
    endloop
  endfacet
  facet normal 0 -0 -1
    outer loop
      vertex -4.23333 7.33235 0
      vertex -4.23333 -7.33235 0
      vertex -8.46667 0 0
    endloop
  endfacet
  facet normal 0.866025 -0.500001 0
    outer loop
      vertex 4.23333 -7.33235 6
      vertex 8.46667 0 0
      vertex 8.46667 0 6
    endloop
  endfacet
  facet normal 0.866025 -0.500001 0
    outer loop
      vertex 8.46667 0 0
      vertex 4.23333 -7.33235 6
      vertex 4.23333 -7.33235 0
    endloop
  endfacet
  facet normal 0 0 1
    outer loop
      vertex 0.687623 2.72798 6
      vertex -2.65101 2.72798 6
      vertex -1.68715 -3.43333 6
    endloop
  endfacet
  facet normal -0 0 1
    outer loop
      vertex 1.81918 3.51903 6
      vertex 8.46667 0 6
      vertex 4.23333 7.33235 6
    endloop
  endfacet
  facet normal 0 0 1
    outer loop
      vertex 8.46667 0 6
      vertex 3.43333 -5.86667 6
      vertex 4.23333 -7.33235 6
    endloop
  endfacet
  facet normal 0 0 1
    outer loop
      vertex 8.46667 0 6
      vertex 1.81918 3.51903 6
      vertex 1.81918 3.11856 6
    endloop
  endfacet
  facet normal -0 0 1
    outer loop
      vertex -4.23333 7.33235 6
      vertex 1.81918 3.51903 6
      vertex 4.23333 7.33235 6
    endloop
  endfacet
  facet normal 0 0 1
    outer loop
      vertex -8.46667 0 6
      vertex -2.65101 2.72798 6
      vertex -2.65101 3.51903 6
    endloop
  endfacet
  facet normal 0 0 1
    outer loop
      vertex -2.65101 2.72798 6
      vertex -8.46667 0 6
      vertex -3.43333 -5.86667 6
    endloop
  endfacet
  facet normal 0 0 1
    outer loop
      vertex -8.46667 0 6
      vertex -2.65101 3.51903 6
      vertex -4.23333 7.33235 6
    endloop
  endfacet
  facet normal 0 0 1
    outer loop
      vertex 1.81918 3.51903 6
      vertex -4.23333 7.33235 6
      vertex -2.65101 3.51903 6
    endloop
  endfacet
  facet normal -0 0 1
    outer loop
      vertex 3.43333 -6.86667 6
      vertex 4.23333 -7.33235 6
      vertex 3.43333 -5.86667 6
    endloop
  endfacet
  facet normal -0 0 1
    outer loop
      vertex -3.43333 -6.86667 6
      vertex 4.23333 -7.33235 6
      vertex 3.43333 -6.86667 6
    endloop
  endfacet
  facet normal 0 0 1
    outer loop
      vertex -3.43333 -6.86667 6
      vertex -4.23333 -7.33235 6
      vertex 4.23333 -7.33235 6
    endloop
  endfacet
  facet normal 0 -0 1
    outer loop
      vertex -4.23333 -7.33235 6
      vertex -3.43333 -5.86667 6
      vertex -8.46667 0 6
    endloop
  endfacet
  facet normal 0 0 1
    outer loop
      vertex -3.43333 -5.86667 6
      vertex -4.23333 -7.33235 6
      vertex -3.43333 -6.86667 6
    endloop
  endfacet
  facet normal 0 0 1
    outer loop
      vertex 8.46667 0 6
      vertex 1.81918 3.11856 6
      vertex 3.43333 -5.86667 6
    endloop
  endfacet
  facet normal -0 0 1
    outer loop
      vertex -0.704664 -3.43333 6
      vertex 3.43333 -5.86667 6
      vertex 1.81918 3.11856 6
    endloop
  endfacet
  facet normal 0 0 1
    outer loop
      vertex -3.43333 -5.86667 6
      vertex -0.704664 -3.43333 6
      vertex -1.68715 -3.43333 6
    endloop
  endfacet
  facet normal 0 0 1
    outer loop
      vertex -0.704664 -3.43333 6
      vertex -3.43333 -5.86667 6
      vertex 3.43333 -5.86667 6
    endloop
  endfacet
  facet normal 0 0 1
    outer loop
      vertex -3.43333 -5.86667 6
      vertex -1.68715 -3.43333 6
      vertex -2.65101 2.72798 6
    endloop
  endfacet
  facet normal 0 1 -0
    outer loop
      vertex 4.23333 7.33235 0
      vertex -4.23333 7.33235 6
      vertex 4.23333 7.33235 6
    endloop
  endfacet
  facet normal 0 1 0
    outer loop
      vertex -4.23333 7.33235 6
      vertex 4.23333 7.33235 0
      vertex -4.23333 7.33235 0
    endloop
  endfacet
  facet normal -0.866025 -0.500001 0
    outer loop
      vertex -4.23333 -7.33235 0
      vertex -8.46667 0 6
      vertex -8.46667 0 0
    endloop
  endfacet
  facet normal -0.866025 -0.500001 0
    outer loop
      vertex -8.46667 0 6
      vertex -4.23333 -7.33235 0
      vertex -4.23333 -7.33235 6
    endloop
  endfacet
  facet normal 0 -1 0
    outer loop
      vertex -4.23333 -7.33235 0
      vertex 4.23333 -7.33235 6
      vertex -4.23333 -7.33235 6
    endloop
  endfacet
  facet normal 0 -1 -0
    outer loop
      vertex 4.23333 -7.33235 6
      vertex -4.23333 -7.33235 0
      vertex 4.23333 -7.33235 0
    endloop
  endfacet
  facet normal 0.866025 0.500001 0
    outer loop
      vertex 8.46667 0 6
      vertex 4.23333 7.33235 0
      vertex 4.23333 7.33235 6
    endloop
  endfacet
  facet normal 0.866025 0.500001 0
    outer loop
      vertex 4.23333 7.33235 0
      vertex 8.46667 0 6
      vertex 8.46667 0 0
    endloop
  endfacet
endsolid OpenSCAD_Model
