solid OpenSCAD_Model
  facet normal 0 0 1
    outer loop
      vertex 1.2449 1.91326 0.7
      vertex 0.6297 1.48317 0.7
      vertex 1.2449 1.69553 0.7
    endloop
  endfacet
  facet normal -0 0 1
    outer loop
      vertex -1.18547 1.91326 0.7
      vertex 0.6297 1.48317 0.7
      vertex 1.2449 1.91326 0.7
    endloop
  endfacet
  facet normal 0 0 1
    outer loop
      vertex 0.6297 1.48317 0.7
      vertex -1.18547 1.91326 0.7
      vertex -1.18547 1.48317 0.7
    endloop
  endfacet
  facet normal -0 0 1
    outer loop
      vertex 0.6297 1.48317 0.7
      vertex -0.127258 -1.86667 0.7
      vertex 1.2449 1.69553 0.7
    endloop
  endfacet
  facet normal 0 -0 1
    outer loop
      vertex -0.127258 -1.86667 0.7
      vertex 0.6297 1.48317 0.7
      vertex -0.661423 -1.86667 0.7
    endloop
  endfacet
  facet normal -1 0 0
    outer loop
      vertex 1.2449 1.69553 0.7
      vertex 1.2449 1.91326 3.7
      vertex 1.2449 1.91326 0.7
    endloop
  endfacet
  facet normal -1 -0 0
    outer loop
      vertex 1.2449 1.91326 3.7
      vertex 1.2449 1.69553 0.7
      vertex 1.2449 1.69553 3.7
    endloop
  endfacet
  facet normal 0 -1 0
    outer loop
      vertex -1.18547 1.91326 0.7
      vertex 1.2449 1.91326 3.7
      vertex -1.18547 1.91326 3.7
    endloop
  endfacet
  facet normal 0 -1 -0
    outer loop
      vertex 1.2449 1.91326 3.7
      vertex -1.18547 1.91326 0.7
      vertex 1.2449 1.91326 0.7
    endloop
  endfacet
  facet normal 1 -0 0
    outer loop
      vertex -1.18547 1.48317 3.7
      vertex -1.18547 1.91326 0.7
      vertex -1.18547 1.91326 3.7
    endloop
  endfacet
  facet normal 1 0 0
    outer loop
      vertex -1.18547 1.91326 0.7
      vertex -1.18547 1.48317 3.7
      vertex -1.18547 1.48317 0.7
    endloop
  endfacet
  facet normal 0 1 -0
    outer loop
      vertex 0.6297 1.48317 0.7
      vertex -1.18547 1.48317 3.7
      vertex 0.6297 1.48317 3.7
    endloop
  endfacet
  facet normal 0 1 0
    outer loop
      vertex -1.18547 1.48317 3.7
      vertex 0.6297 1.48317 0.7
      vertex -1.18547 1.48317 0.7
    endloop
  endfacet
  facet normal 0.933091 -0.35964 0
    outer loop
      vertex -0.661423 -1.86667 3.7
      vertex 0.6297 1.48317 0.7
      vertex 0.6297 1.48317 3.7
    endloop
  endfacet
  facet normal 0.933091 -0.35964 0
    outer loop
      vertex 0.6297 1.48317 0.7
      vertex -0.661423 -1.86667 3.7
      vertex -0.661423 -1.86667 0.7
    endloop
  endfacet
  facet normal 0 1 -0
    outer loop
      vertex -0.127258 -1.86667 0.7
      vertex -0.661423 -1.86667 3.7
      vertex -0.127258 -1.86667 3.7
    endloop
  endfacet
  facet normal 0 1 0
    outer loop
      vertex -0.661423 -1.86667 3.7
      vertex -0.127258 -1.86667 0.7
      vertex -0.661423 -1.86667 0.7
    endloop
  endfacet
  facet normal -0.933163 0.359454 0
    outer loop
      vertex -0.127258 -1.86667 0.7
      vertex 1.2449 1.69553 3.7
      vertex 1.2449 1.69553 0.7
    endloop
  endfacet
  facet normal -0.933163 0.359454 0
    outer loop
      vertex 1.2449 1.69553 3.7
      vertex -0.127258 -1.86667 0.7
      vertex -0.127258 -1.86667 3.7
    endloop
  endfacet
  facet normal -1 0 0
    outer loop
      vertex 1.86667 -3.36 0.7
      vertex 1.86667 -2.36 3.7
      vertex 1.86667 -2.36 0.7
    endloop
  endfacet
  facet normal -1 -0 0
    outer loop
      vertex 1.86667 -2.36 3.7
      vertex 1.86667 -3.36 0.7
      vertex 1.86667 -3.36 3.7
    endloop
  endfacet
  facet normal -0 0 1
    outer loop
      vertex -1.86667 -2.36 0.7
      vertex 1.86667 -3.36 0.7
      vertex 1.86667 -2.36 0.7
    endloop
  endfacet
  facet normal 0 0 1
    outer loop
      vertex 1.86667 -3.36 0.7
      vertex -1.86667 -2.36 0.7
      vertex -1.86667 -3.36 0.7
    endloop
  endfacet
  facet normal 1 -0 0
    outer loop
      vertex -1.86667 -3.36 3.7
      vertex -1.86667 -2.36 0.7
      vertex -1.86667 -2.36 3.7
    endloop
  endfacet
  facet normal 1 0 0
    outer loop
      vertex -1.86667 -2.36 0.7
      vertex -1.86667 -3.36 3.7
      vertex -1.86667 -3.36 0.7
    endloop
  endfacet
  facet normal 0 -1 0
    outer loop
      vertex -1.86667 -2.36 0.7
      vertex 1.86667 -2.36 3.7
      vertex -1.86667 -2.36 3.7
    endloop
  endfacet
  facet normal 0 -1 -0
    outer loop
      vertex 1.86667 -2.36 3.7
      vertex -1.86667 -2.36 0.7
      vertex 1.86667 -2.36 0.7
    endloop
  endfacet
  facet normal 0 1 -0
    outer loop
      vertex 1.86667 -3.36 0.7
      vertex -1.86667 -3.36 3.7
      vertex 1.86667 -3.36 3.7
    endloop
  endfacet
  facet normal 0 1 0
    outer loop
      vertex -1.86667 -3.36 3.7
      vertex 1.86667 -3.36 0.7
      vertex -1.86667 -3.36 0.7
    endloop
  endfacet
  facet normal 0 1 -0
    outer loop
      vertex 2.66667 4.6188 0
      vertex -2.66667 4.6188 3.7
      vertex 2.66667 4.6188 3.7
    endloop
  endfacet
  facet normal 0 1 0
    outer loop
      vertex -2.66667 4.6188 3.7
      vertex 2.66667 4.6188 0
      vertex -2.66667 4.6188 0
    endloop
  endfacet
  facet normal 0.866026 0.499999 0
    outer loop
      vertex 5.33333 0 3.7
      vertex 2.66667 4.6188 0
      vertex 2.66667 4.6188 3.7
    endloop
  endfacet
  facet normal 0.866026 0.499999 0
    outer loop
      vertex 2.66667 4.6188 0
      vertex 5.33333 0 3.7
      vertex 5.33333 0 0
    endloop
  endfacet
  facet normal -0.866026 0.499999 0
    outer loop
      vertex -5.33333 0 0
      vertex -2.66667 4.6188 3.7
      vertex -2.66667 4.6188 0
    endloop
  endfacet
  facet normal -0.866026 0.499999 0
    outer loop
      vertex -2.66667 4.6188 3.7
      vertex -5.33333 0 0
      vertex -5.33333 0 3.7
    endloop
  endfacet
  facet normal 0.866026 -0.499999 0
    outer loop
      vertex 2.66667 -4.6188 3.7
      vertex 5.33333 0 0
      vertex 5.33333 0 3.7
    endloop
  endfacet
  facet normal 0.866026 -0.499999 0
    outer loop
      vertex 5.33333 0 0
      vertex 2.66667 -4.6188 3.7
      vertex 2.66667 -4.6188 0
    endloop
  endfacet
  facet normal -0.866026 -0.499999 0
    outer loop
      vertex -2.66667 -4.6188 0
      vertex -5.33333 0 3.7
      vertex -5.33333 0 0
    endloop
  endfacet
  facet normal -0.866026 -0.499999 0
    outer loop
      vertex -5.33333 0 3.7
      vertex -2.66667 -4.6188 0
      vertex -2.66667 -4.6188 3.7
    endloop
  endfacet
  facet normal 0 -1 0
    outer loop
      vertex -2.66667 -4.6188 0
      vertex 2.66667 -4.6188 3.7
      vertex -2.66667 -4.6188 3.7
    endloop
  endfacet
  facet normal 0 -1 -0
    outer loop
      vertex 2.66667 -4.6188 3.7
      vertex -2.66667 -4.6188 0
      vertex 2.66667 -4.6188 0
    endloop
  endfacet
  facet normal 0 0 -1
    outer loop
      vertex 2.66667 -4.6188 0
      vertex 2.66667 4.6188 0
      vertex 5.33333 0 0
    endloop
  endfacet
  facet normal 0 0 -1
    outer loop
      vertex -2.66667 -4.6188 0
      vertex 2.66667 4.6188 0
      vertex 2.66667 -4.6188 0
    endloop
  endfacet
  facet normal 0 0 -1
    outer loop
      vertex -2.66667 -4.6188 0
      vertex -2.66667 4.6188 0
      vertex 2.66667 4.6188 0
    endloop
  endfacet
  facet normal 0 -0 -1
    outer loop
      vertex -2.66667 4.6188 0
      vertex -2.66667 -4.6188 0
      vertex -5.33333 0 0
    endloop
  endfacet
  facet normal 0 0 1
    outer loop
      vertex 0.6297 1.48317 3.7
      vertex -1.18547 1.48317 3.7
      vertex -0.661423 -1.86667 3.7
    endloop
  endfacet
  facet normal -0 0 1
    outer loop
      vertex 1.2449 1.91326 3.7
      vertex 5.33333 0 3.7
      vertex 2.66667 4.6188 3.7
    endloop
  endfacet
  facet normal 0 0 1
    outer loop
      vertex 5.33333 0 3.7
      vertex 1.86667 -2.36 3.7
      vertex 2.66667 -4.6188 3.7
    endloop
  endfacet
  facet normal 0 0 1
    outer loop
      vertex 5.33333 0 3.7
      vertex 1.2449 1.91326 3.7
      vertex 1.2449 1.69553 3.7
    endloop
  endfacet
  facet normal 0 0 1
    outer loop
      vertex 2.66667 4.6188 3.7
      vertex -1.18547 1.91326 3.7
      vertex 1.2449 1.91326 3.7
    endloop
  endfacet
  facet normal 0 0 1
    outer loop
      vertex -5.33333 0 3.7
      vertex -1.18547 1.48317 3.7
      vertex -1.18547 1.91326 3.7
    endloop
  endfacet
  facet normal 0 0 1
    outer loop
      vertex -1.18547 1.48317 3.7
      vertex -5.33333 0 3.7
      vertex -1.86667 -2.36 3.7
    endloop
  endfacet
  facet normal 0 0 1
    outer loop
      vertex -5.33333 0 3.7
      vertex -1.18547 1.91326 3.7
      vertex -2.66667 4.6188 3.7
    endloop
  endfacet
  facet normal -0 0 1
    outer loop
      vertex -2.66667 4.6188 3.7
      vertex -1.18547 1.91326 3.7
      vertex 2.66667 4.6188 3.7
    endloop
  endfacet
  facet normal -0 0 1
    outer loop
      vertex 1.86667 -3.36 3.7
      vertex 2.66667 -4.6188 3.7
      vertex 1.86667 -2.36 3.7
    endloop
  endfacet
  facet normal -0 0 1
    outer loop
      vertex -1.86667 -3.36 3.7
      vertex 2.66667 -4.6188 3.7
      vertex 1.86667 -3.36 3.7
    endloop
  endfacet
  facet normal 0 0 1
    outer loop
      vertex -1.86667 -3.36 3.7
      vertex -2.66667 -4.6188 3.7
      vertex 2.66667 -4.6188 3.7
    endloop
  endfacet
  facet normal 0 -0 1
    outer loop
      vertex -2.66667 -4.6188 3.7
      vertex -1.86667 -2.36 3.7
      vertex -5.33333 0 3.7
    endloop
  endfacet
  facet normal 0 0 1
    outer loop
      vertex -1.86667 -2.36 3.7
      vertex -2.66667 -4.6188 3.7
      vertex -1.86667 -3.36 3.7
    endloop
  endfacet
  facet normal 0 0 1
    outer loop
      vertex 5.33333 0 3.7
      vertex 1.2449 1.69553 3.7
      vertex 1.86667 -2.36 3.7
    endloop
  endfacet
  facet normal -0 0 1
    outer loop
      vertex -0.127258 -1.86667 3.7
      vertex 1.86667 -2.36 3.7
      vertex 1.2449 1.69553 3.7
    endloop
  endfacet
  facet normal 0 0 1
    outer loop
      vertex -1.86667 -2.36 3.7
      vertex -0.127258 -1.86667 3.7
      vertex -0.661423 -1.86667 3.7
    endloop
  endfacet
  facet normal 0 0 1
    outer loop
      vertex -0.127258 -1.86667 3.7
      vertex -1.86667 -2.36 3.7
      vertex 1.86667 -2.36 3.7
    endloop
  endfacet
  facet normal 0 0 1
    outer loop
      vertex -1.86667 -2.36 3.7
      vertex -0.661423 -1.86667 3.7
      vertex -1.18547 1.48317 3.7
    endloop
  endfacet
endsolid OpenSCAD_Model
