solid OpenSCAD_Model
  facet normal -0 0 1
    outer loop
      vertex 4.51171 0.912156 5
      vertex 5.49292 0.0361185 5
      vertex 5.42436 1.11716 5
    endloop
  endfacet
  facet normal -0 0 1
    outer loop
      vertex 4.38986 1.62836 5
      vertex 5.42436 1.11716 5
      vertex 5.21871 2.01236 5
    endloop
  endfacet
  facet normal 0 0 1
    outer loop
      vertex 4.51171 -0.837355 5
      vertex 5.49292 0.0361185 5
      vertex 4.55232 0.0361185 5
    endloop
  endfacet
  facet normal -0 0 1
    outer loop
      vertex 4.18682 2.18469 5
      vertex 5.21871 2.01236 5
      vertex 4.87595 2.72173 5
    endloop
  endfacet
  facet normal 0 0 1
    outer loop
      vertex 5.49292 0.0361185 5
      vertex 4.51171 -0.837355 5
      vertex 5.42436 -1.04236 5
    endloop
  endfacet
  facet normal 0 0 1
    outer loop
      vertex 4.38986 -1.55202 5
      vertex 5.42436 -1.04236 5
      vertex 4.51171 -0.837355 5
    endloop
  endfacet
  facet normal 0 0 1
    outer loop
      vertex 5.49292 0.0361185 5
      vertex 4.51171 0.912156 5
      vertex 4.55232 0.0361185 5
    endloop
  endfacet
  facet normal 0 0 1
    outer loop
      vertex 3.90251 2.58174 5
      vertex 4.87595 2.72173 5
      vertex 4.40332 3.23547 5
    endloop
  endfacet
  facet normal 0 0 1
    outer loop
      vertex 5.42436 1.11716 5
      vertex 4.38986 1.62836 5
      vertex 4.51171 0.912156 5
    endloop
  endfacet
  facet normal 0 0 1
    outer loop
      vertex 5.21871 2.01236 5
      vertex 4.18682 2.18469 5
      vertex 4.38986 1.62836 5
    endloop
  endfacet
  facet normal 0 0 1
    outer loop
      vertex 4.87595 2.72173 5
      vertex 3.90251 2.58174 5
      vertex 4.18682 2.18469 5
    endloop
  endfacet
  facet normal 0 0 1
    outer loop
      vertex 3.53697 2.81996 5
      vertex 4.40332 3.23547 5
      vertex 3.80808 3.54372 5
    endloop
  endfacet
  facet normal 0 0 1
    outer loop
      vertex 4.40332 3.23547 5
      vertex 3.53697 2.81996 5
      vertex 3.90251 2.58174 5
    endloop
  endfacet
  facet normal 0 0 1
    outer loop
      vertex 3.0902 3.64647 5
      vertex 3.53697 2.81996 5
      vertex 3.80808 3.54372 5
    endloop
  endfacet
  facet normal 0 0 1
    outer loop
      vertex 3.0902 3.64647 5
      vertex 3.0902 2.89937 5
      vertex 3.53697 2.81996 5
    endloop
  endfacet
  facet normal 0 0 1
    outer loop
      vertex 3.0902 3.64647 5
      vertex 2.64601 2.81996 5
      vertex 3.0902 2.89937 5
    endloop
  endfacet
  facet normal -0 0 1
    outer loop
      vertex 2.37233 3.54372 5
      vertex 2.64601 2.81996 5
      vertex 3.0902 3.64647 5
    endloop
  endfacet
  facet normal -0 0 1
    outer loop
      vertex 1.77709 3.23547 5
      vertex 2.64601 2.81996 5
      vertex 2.37233 3.54372 5
    endloop
  endfacet
  facet normal 0 0 1
    outer loop
      vertex 2.64601 2.81996 5
      vertex 1.77709 3.23547 5
      vertex 2.28205 2.58174 5
    endloop
  endfacet
  facet normal -0 0 1
    outer loop
      vertex 1.30446 2.72173 5
      vertex 2.28205 2.58174 5
      vertex 1.77709 3.23547 5
    endloop
  endfacet
  facet normal 0 0 1
    outer loop
      vertex 2.28205 2.58174 5
      vertex 1.30446 2.72173 5
      vertex 1.99826 2.18469 5
    endloop
  endfacet
  facet normal 0 0 1
    outer loop
      vertex 0.961702 2.01236 5
      vertex 1.99826 2.18469 5
      vertex 1.30446 2.72173 5
    endloop
  endfacet
  facet normal 0 0 1
    outer loop
      vertex 1.99826 2.18469 5
      vertex 0.961702 2.01236 5
      vertex 1.7952 1.62836 5
    endloop
  endfacet
  facet normal 0 0 1
    outer loop
      vertex 0.756044 1.11716 5
      vertex 1.7952 1.62836 5
      vertex 0.961702 2.01236 5
    endloop
  endfacet
  facet normal 0 0 1
    outer loop
      vertex 5.42436 -1.04236 5
      vertex 4.38986 -1.55202 5
      vertex 5.21871 -1.93602 5
    endloop
  endfacet
  facet normal 0 0 1
    outer loop
      vertex 4.18682 -2.10786 5
      vertex 5.21871 -1.93602 5
      vertex 4.38986 -1.55202 5
    endloop
  endfacet
  facet normal 0 0 1
    outer loop
      vertex 5.21871 -1.93602 5
      vertex 4.18682 -2.10786 5
      vertex 4.87595 -2.64491 5
    endloop
  endfacet
  facet normal -0 0 1
    outer loop
      vertex 3.90251 -2.50488 5
      vertex 4.87595 -2.64491 5
      vertex 4.18682 -2.10786 5
    endloop
  endfacet
  facet normal 0 0 1
    outer loop
      vertex 4.87595 -2.64491 5
      vertex 3.90251 -2.50488 5
      vertex 4.40332 -3.15861 5
    endloop
  endfacet
  facet normal -0 0 1
    outer loop
      vertex 3.53697 -2.74309 5
      vertex 4.40332 -3.15861 5
      vertex 3.90251 -2.50488 5
    endloop
  endfacet
  facet normal 0 0 1
    outer loop
      vertex 4.40332 -3.15861 5
      vertex 3.53697 -2.74309 5
      vertex 3.80808 -3.46683 5
    endloop
  endfacet
  facet normal 0 0 1
    outer loop
      vertex 3.0902 -3.56956 5
      vertex 3.53697 -2.74309 5
      vertex 3.0902 -2.82248 5
    endloop
  endfacet
  facet normal 0 0 1
    outer loop
      vertex 3.53697 -2.74309 5
      vertex 3.0902 -3.56956 5
      vertex 3.80808 -3.46683 5
    endloop
  endfacet
  facet normal 0 0 1
    outer loop
      vertex 2.64601 -2.74309 5
      vertex 3.0902 -3.56956 5
      vertex 3.0902 -2.82248 5
    endloop
  endfacet
  facet normal 0 0 1
    outer loop
      vertex 2.64601 -2.74309 5
      vertex 2.37233 -3.46683 5
      vertex 3.0902 -3.56956 5
    endloop
  endfacet
  facet normal 0 0 1
    outer loop
      vertex 1.77709 -3.15861 5
      vertex 2.64601 -2.74309 5
      vertex 2.28205 -2.50488 5
    endloop
  endfacet
  facet normal 0 0 1
    outer loop
      vertex 1.30446 -2.64491 5
      vertex 2.28205 -2.50488 5
      vertex 1.99826 -2.10786 5
    endloop
  endfacet
  facet normal -0 0 1
    outer loop
      vertex 0.961702 -1.93602 5
      vertex 1.99826 -2.10786 5
      vertex 1.7952 -1.55202 5
    endloop
  endfacet
  facet normal 0 0 1
    outer loop
      vertex 2.64601 -2.74309 5
      vertex 1.77709 -3.15861 5
      vertex 2.37233 -3.46683 5
    endloop
  endfacet
  facet normal -0 0 1
    outer loop
      vertex 0.756044 -1.04236 5
      vertex 1.7952 -1.55202 5
      vertex 1.67336 -0.837355 5
    endloop
  endfacet
  facet normal -0 0 1
    outer loop
      vertex 0.687487 0.0361185 5
      vertex 1.67336 -0.837355 5
      vertex 1.63275 0.0361185 5
    endloop
  endfacet
  facet normal 0 0 1
    outer loop
      vertex 1.7952 1.62836 5
      vertex 0.756044 1.11716 5
      vertex 1.67336 0.912156 5
    endloop
  endfacet
  facet normal 0 0 1
    outer loop
      vertex 1.67336 -0.837355 5
      vertex 0.687487 0.0361185 5
      vertex 0.756044 -1.04236 5
    endloop
  endfacet
  facet normal 0 0 1
    outer loop
      vertex 0.687487 0.0361185 5
      vertex 1.67336 0.912156 5
      vertex 0.756044 1.11716 5
    endloop
  endfacet
  facet normal 0 0 1
    outer loop
      vertex 1.7952 -1.55202 5
      vertex 0.756044 -1.04236 5
      vertex 0.961702 -1.93602 5
    endloop
  endfacet
  facet normal 0 0 1
    outer loop
      vertex 1.67336 0.912156 5
      vertex 0.687487 0.0361185 5
      vertex 1.63275 0.0361185 5
    endloop
  endfacet
  facet normal 0 0 1
    outer loop
      vertex 1.99826 -2.10786 5
      vertex 0.961702 -1.93602 5
      vertex 1.30446 -2.64491 5
    endloop
  endfacet
  facet normal 0 0 1
    outer loop
      vertex 2.28205 -2.50488 5
      vertex 1.30446 -2.64491 5
      vertex 1.77709 -3.15861 5
    endloop
  endfacet
  facet normal 0 0 1
    outer loop
      vertex -2.21602 3.51903 5
      vertex -3.14727 2.66206 5
      vertex -2.21602 -2.6423 5
    endloop
  endfacet
  facet normal -0 0 1
    outer loop
      vertex -3.15661 3.51903 5
      vertex -3.14727 2.66206 5
      vertex -2.21602 3.51903 5
    endloop
  endfacet
  facet normal -0 0 1
    outer loop
      vertex -4.81895 3.18503 5
      vertex -3.14727 2.66206 5
      vertex -3.15661 3.51903 5
    endloop
  endfacet
  facet normal 0 0 1
    outer loop
      vertex -3.14727 2.66206 5
      vertex -4.81895 3.18503 5
      vertex -4.81895 2.32806 5
    endloop
  endfacet
  facet normal -0 0 1
    outer loop
      vertex -2.21602 -2.6423 5
      vertex -0.679395 -3.43333 5
      vertex -0.679395 -2.6423 5
    endloop
  endfacet
  facet normal 0 0 1
    outer loop
      vertex -3.14727 -2.6423 5
      vertex -2.21602 -2.6423 5
      vertex -3.14727 2.66206 5
    endloop
  endfacet
  facet normal -0 0 1
    outer loop
      vertex -3.14727 -2.6423 5
      vertex -0.679395 -3.43333 5
      vertex -2.21602 -2.6423 5
    endloop
  endfacet
  facet normal 0 0 1
    outer loop
      vertex -4.68396 -3.43333 5
      vertex -3.14727 -2.6423 5
      vertex -4.68396 -2.6423 5
    endloop
  endfacet
  facet normal 0 0 1
    outer loop
      vertex -3.14727 -2.6423 5
      vertex -4.68396 -3.43333 5
      vertex -0.679395 -3.43333 5
    endloop
  endfacet
  facet normal -0.45982 0.888012 0
    outer loop
      vertex 4.40332 -3.15861 5
      vertex 3.80808 -3.46683 6
      vertex 4.40332 -3.15861 6
    endloop
  endfacet
  facet normal -0.45982 0.888012 0
    outer loop
      vertex 3.80808 -3.46683 6
      vertex 4.40332 -3.15861 5
      vertex 3.80808 -3.46683 5
    endloop
  endfacet
  facet normal -0.735912 0.677077 0
    outer loop
      vertex 4.40332 -3.15861 5
      vertex 4.87595 -2.64491 6
      vertex 4.87595 -2.64491 5
    endloop
  endfacet
  facet normal -0.735912 0.677077 0
    outer loop
      vertex 4.87595 -2.64491 6
      vertex 4.40332 -3.15861 5
      vertex 4.40332 -3.15861 6
    endloop
  endfacet
  facet normal -0.900284 0.435302 0
    outer loop
      vertex 4.87595 -2.64491 5
      vertex 5.21871 -1.93602 6
      vertex 5.21871 -1.93602 5
    endloop
  endfacet
  facet normal -0.900284 0.435302 0
    outer loop
      vertex 5.21871 -1.93602 6
      vertex 4.87595 -2.64491 5
      vertex 4.87595 -2.64491 6
    endloop
  endfacet
  facet normal -0.974529 0.22426 0
    outer loop
      vertex 5.21871 -1.93602 5
      vertex 5.42436 -1.04236 6
      vertex 5.42436 -1.04236 5
    endloop
  endfacet
  facet normal -0.974529 0.22426 0
    outer loop
      vertex 5.42436 -1.04236 6
      vertex 5.21871 -1.93602 5
      vertex 5.21871 -1.93602 6
    endloop
  endfacet
  facet normal -0.997985 0.063443 0
    outer loop
      vertex 5.42436 -1.04236 5
      vertex 5.49292 0.0361185 6
      vertex 5.49292 0.0361185 5
    endloop
  endfacet
  facet normal -0.997985 0.063443 0
    outer loop
      vertex 5.49292 0.0361185 6
      vertex 5.42436 -1.04236 5
      vertex 5.42436 -1.04236 6
    endloop
  endfacet
  facet normal -0.997995 -0.0632932 0
    outer loop
      vertex 5.49292 0.0361185 5
      vertex 5.42436 1.11716 6
      vertex 5.42436 1.11716 5
    endloop
  endfacet
  facet normal -0.997995 -0.0632932 0
    outer loop
      vertex 5.42436 1.11716 6
      vertex 5.49292 0.0361185 5
      vertex 5.49292 0.0361185 6
    endloop
  endfacet
  facet normal -0.974614 -0.223893 0
    outer loop
      vertex 5.42436 1.11716 5
      vertex 5.21871 2.01236 6
      vertex 5.21871 2.01236 5
    endloop
  endfacet
  facet normal -0.974614 -0.223893 0
    outer loop
      vertex 5.21871 2.01236 6
      vertex 5.42436 1.11716 5
      vertex 5.42436 1.11716 6
    endloop
  endfacet
  facet normal -0.9004 -0.435064 0
    outer loop
      vertex 5.21871 2.01236 5
      vertex 4.87595 2.72173 6
      vertex 4.87595 2.72173 5
    endloop
  endfacet
  facet normal -0.9004 -0.435064 0
    outer loop
      vertex 4.87595 2.72173 6
      vertex 5.21871 2.01236 5
      vertex 5.21871 2.01236 6
    endloop
  endfacet
  facet normal -0.735939 -0.677048 0
    outer loop
      vertex 4.87595 2.72173 5
      vertex 4.40332 3.23547 6
      vertex 4.40332 3.23547 5
    endloop
  endfacet
  facet normal -0.735939 -0.677048 0
    outer loop
      vertex 4.40332 3.23547 6
      vertex 4.87595 2.72173 5
      vertex 4.87595 2.72173 6
    endloop
  endfacet
  facet normal -0.459855 -0.887994 0
    outer loop
      vertex 3.80808 3.54372 5
      vertex 4.40332 3.23547 6
      vertex 3.80808 3.54372 6
    endloop
  endfacet
  facet normal -0.459855 -0.887994 -0
    outer loop
      vertex 4.40332 3.23547 6
      vertex 3.80808 3.54372 5
      vertex 4.40332 3.23547 5
    endloop
  endfacet
  facet normal -0.141686 -0.989912 0
    outer loop
      vertex 3.0902 3.64647 5
      vertex 3.80808 3.54372 6
      vertex 3.0902 3.64647 6
    endloop
  endfacet
  facet normal -0.141686 -0.989912 -0
    outer loop
      vertex 3.80808 3.54372 6
      vertex 3.0902 3.64647 5
      vertex 3.80808 3.54372 5
    endloop
  endfacet
  facet normal 0.141688 -0.989911 0
    outer loop
      vertex 2.37233 3.54372 5
      vertex 3.0902 3.64647 6
      vertex 2.37233 3.54372 6
    endloop
  endfacet
  facet normal 0.141688 -0.989911 0
    outer loop
      vertex 3.0902 3.64647 6
      vertex 2.37233 3.54372 5
      vertex 3.0902 3.64647 5
    endloop
  endfacet
  facet normal 0.459855 -0.887994 0
    outer loop
      vertex 1.77709 3.23547 5
      vertex 2.37233 3.54372 6
      vertex 1.77709 3.23547 6
    endloop
  endfacet
  facet normal 0.459855 -0.887994 0
    outer loop
      vertex 2.37233 3.54372 6
      vertex 1.77709 3.23547 5
      vertex 2.37233 3.54372 5
    endloop
  endfacet
  facet normal 0.735939 -0.677048 0
    outer loop
      vertex 1.30446 2.72173 6
      vertex 1.77709 3.23547 5
      vertex 1.77709 3.23547 6
    endloop
  endfacet
  facet normal 0.735939 -0.677048 0
    outer loop
      vertex 1.77709 3.23547 5
      vertex 1.30446 2.72173 6
      vertex 1.30446 2.72173 5
    endloop
  endfacet
  facet normal 0.900401 -0.435061 0
    outer loop
      vertex 0.961702 2.01236 6
      vertex 1.30446 2.72173 5
      vertex 1.30446 2.72173 6
    endloop
  endfacet
  facet normal 0.900401 -0.435061 0
    outer loop
      vertex 1.30446 2.72173 5
      vertex 0.961702 2.01236 6
      vertex 0.961702 2.01236 5
    endloop
  endfacet
  facet normal 0.974612 -0.223902 0
    outer loop
      vertex 0.756044 1.11716 6
      vertex 0.961702 2.01236 5
      vertex 0.961702 2.01236 6
    endloop
  endfacet
  facet normal 0.974612 -0.223902 0
    outer loop
      vertex 0.961702 2.01236 5
      vertex 0.756044 1.11716 6
      vertex 0.756044 1.11716 5
    endloop
  endfacet
  facet normal 0.997995 -0.0632904 0
    outer loop
      vertex 0.687487 0.0361185 6
      vertex 0.756044 1.11716 5
      vertex 0.756044 1.11716 6
    endloop
  endfacet
  facet normal 0.997995 -0.0632904 0
    outer loop
      vertex 0.756044 1.11716 5
      vertex 0.687487 0.0361185 6
      vertex 0.687487 0.0361185 5
    endloop
  endfacet
  facet normal 0.997986 0.0634402 0
    outer loop
      vertex 0.756044 -1.04236 6
      vertex 0.687487 0.0361185 5
      vertex 0.687487 0.0361185 6
    endloop
  endfacet
  facet normal 0.997986 0.0634402 0
    outer loop
      vertex 0.687487 0.0361185 5
      vertex 0.756044 -1.04236 6
      vertex 0.756044 -1.04236 5
    endloop
  endfacet
  facet normal 0.974527 0.224268 0
    outer loop
      vertex 0.961702 -1.93602 6
      vertex 0.756044 -1.04236 5
      vertex 0.756044 -1.04236 6
    endloop
  endfacet
  facet normal 0.974527 0.224268 0
    outer loop
      vertex 0.756044 -1.04236 5
      vertex 0.961702 -1.93602 6
      vertex 0.961702 -1.93602 5
    endloop
  endfacet
  facet normal 0.900285 0.4353 0
    outer loop
      vertex 1.30446 -2.64491 6
      vertex 0.961702 -1.93602 5
      vertex 0.961702 -1.93602 6
    endloop
  endfacet
  facet normal 0.900285 0.4353 0
    outer loop
      vertex 0.961702 -1.93602 5
      vertex 1.30446 -2.64491 6
      vertex 1.30446 -2.64491 5
    endloop
  endfacet
  facet normal 0.735912 0.677077 0
    outer loop
      vertex 1.77709 -3.15861 6
      vertex 1.30446 -2.64491 5
      vertex 1.30446 -2.64491 6
    endloop
  endfacet
  facet normal 0.735912 0.677077 0
    outer loop
      vertex 1.30446 -2.64491 5
      vertex 1.77709 -3.15861 6
      vertex 1.77709 -3.15861 5
    endloop
  endfacet
  facet normal 0.45982 0.888012 -0
    outer loop
      vertex 2.37233 -3.46683 5
      vertex 1.77709 -3.15861 6
      vertex 2.37233 -3.46683 6
    endloop
  endfacet
  facet normal 0.45982 0.888012 0
    outer loop
      vertex 1.77709 -3.15861 6
      vertex 2.37233 -3.46683 5
      vertex 1.77709 -3.15861 5
    endloop
  endfacet
  facet normal 0.141661 0.989915 -0
    outer loop
      vertex 3.0902 -3.56956 5
      vertex 2.37233 -3.46683 6
      vertex 3.0902 -3.56956 6
    endloop
  endfacet
  facet normal 0.141661 0.989915 0
    outer loop
      vertex 2.37233 -3.46683 6
      vertex 3.0902 -3.56956 5
      vertex 2.37233 -3.46683 5
    endloop
  endfacet
  facet normal -0.141659 0.989916 0
    outer loop
      vertex 3.80808 -3.46683 5
      vertex 3.0902 -3.56956 6
      vertex 3.80808 -3.46683 6
    endloop
  endfacet
  facet normal -0.141659 0.989916 0
    outer loop
      vertex 3.0902 -3.56956 6
      vertex 3.80808 -3.46683 5
      vertex 3.0902 -3.56956 5
    endloop
  endfacet
  facet normal -0.54763 -0.836721 0
    outer loop
      vertex 2.28205 -2.50488 5
      vertex 2.64601 -2.74309 6
      vertex 2.28205 -2.50488 6
    endloop
  endfacet
  facet normal -0.54763 -0.836721 -0
    outer loop
      vertex 2.64601 -2.74309 6
      vertex 2.28205 -2.50488 5
      vertex 2.64601 -2.74309 5
    endloop
  endfacet
  facet normal -0.813535 -0.581515 0
    outer loop
      vertex 2.28205 -2.50488 5
      vertex 1.99826 -2.10786 6
      vertex 1.99826 -2.10786 5
    endloop
  endfacet
  facet normal -0.813535 -0.581515 0
    outer loop
      vertex 1.99826 -2.10786 6
      vertex 2.28205 -2.50488 5
      vertex 2.28205 -2.50488 6
    endloop
  endfacet
  facet normal -0.939284 -0.34314 0
    outer loop
      vertex 1.99826 -2.10786 5
      vertex 1.7952 -1.55202 6
      vertex 1.7952 -1.55202 5
    endloop
  endfacet
  facet normal -0.939284 -0.34314 0
    outer loop
      vertex 1.7952 -1.55202 6
      vertex 1.99826 -2.10786 5
      vertex 1.99826 -2.10786 6
    endloop
  endfacet
  facet normal -0.985777 -0.168061 0
    outer loop
      vertex 1.7952 -1.55202 5
      vertex 1.67336 -0.837355 6
      vertex 1.67336 -0.837355 5
    endloop
  endfacet
  facet normal -0.985777 -0.168061 0
    outer loop
      vertex 1.67336 -0.837355 6
      vertex 1.7952 -1.55202 5
      vertex 1.7952 -1.55202 6
    endloop
  endfacet
  facet normal -0.998921 -0.0464424 0
    outer loop
      vertex 1.67336 -0.837355 5
      vertex 1.63275 0.0361185 6
      vertex 1.63275 0.0361185 5
    endloop
  endfacet
  facet normal -0.998921 -0.0464424 0
    outer loop
      vertex 1.63275 0.0361185 6
      vertex 1.67336 -0.837355 5
      vertex 1.67336 -0.837355 6
    endloop
  endfacet
  facet normal -0.998927 0.0463067 0
    outer loop
      vertex 1.63275 0.0361185 5
      vertex 1.67336 0.912156 6
      vertex 1.67336 0.912156 5
    endloop
  endfacet
  facet normal -0.998927 0.0463067 0
    outer loop
      vertex 1.67336 0.912156 6
      vertex 1.63275 0.0361185 5
      vertex 1.63275 0.0361185 6
    endloop
  endfacet
  facet normal -0.985836 0.16771 0
    outer loop
      vertex 1.67336 0.912156 5
      vertex 1.7952 1.62836 6
      vertex 1.7952 1.62836 5
    endloop
  endfacet
  facet normal -0.985836 0.16771 0
    outer loop
      vertex 1.7952 1.62836 6
      vertex 1.67336 0.912156 5
      vertex 1.67336 0.912156 6
    endloop
  endfacet
  facet normal -0.939382 0.342874 0
    outer loop
      vertex 1.7952 1.62836 5
      vertex 1.99826 2.18469 6
      vertex 1.99826 2.18469 5
    endloop
  endfacet
  facet normal -0.939382 0.342874 0
    outer loop
      vertex 1.99826 2.18469 6
      vertex 1.7952 1.62836 5
      vertex 1.7952 1.62836 6
    endloop
  endfacet
  facet normal -0.813556 0.581486 0
    outer loop
      vertex 1.99826 2.18469 5
      vertex 2.28205 2.58174 6
      vertex 2.28205 2.58174 5
    endloop
  endfacet
  facet normal -0.813556 0.581486 0
    outer loop
      vertex 2.28205 2.58174 6
      vertex 1.99826 2.18469 5
      vertex 1.99826 2.18469 6
    endloop
  endfacet
  facet normal -0.547646 0.83671 0
    outer loop
      vertex 2.64601 2.81996 5
      vertex 2.28205 2.58174 6
      vertex 2.64601 2.81996 6
    endloop
  endfacet
  facet normal -0.547646 0.83671 0
    outer loop
      vertex 2.28205 2.58174 6
      vertex 2.64601 2.81996 5
      vertex 2.28205 2.58174 5
    endloop
  endfacet
  facet normal -0.175985 0.984393 0
    outer loop
      vertex 3.0902 2.89937 5
      vertex 2.64601 2.81996 6
      vertex 3.0902 2.89937 6
    endloop
  endfacet
  facet normal -0.175985 0.984393 0
    outer loop
      vertex 2.64601 2.81996 6
      vertex 3.0902 2.89937 5
      vertex 2.64601 2.81996 5
    endloop
  endfacet
  facet normal 0.175 0.984568 -0
    outer loop
      vertex 3.53697 2.81996 5
      vertex 3.0902 2.89937 6
      vertex 3.53697 2.81996 6
    endloop
  endfacet
  facet normal 0.175 0.984568 0
    outer loop
      vertex 3.0902 2.89937 6
      vertex 3.53697 2.81996 5
      vertex 3.0902 2.89937 5
    endloop
  endfacet
  facet normal 0.545985 0.837795 -0
    outer loop
      vertex 3.90251 2.58174 5
      vertex 3.53697 2.81996 6
      vertex 3.90251 2.58174 6
    endloop
  endfacet
  facet normal 0.545985 0.837795 0
    outer loop
      vertex 3.53697 2.81996 6
      vertex 3.90251 2.58174 5
      vertex 3.53697 2.81996 5
    endloop
  endfacet
  facet normal 0.813052 0.582191 0
    outer loop
      vertex 4.18682 2.18469 6
      vertex 3.90251 2.58174 5
      vertex 3.90251 2.58174 6
    endloop
  endfacet
  facet normal 0.813052 0.582191 0
    outer loop
      vertex 3.90251 2.58174 5
      vertex 4.18682 2.18469 6
      vertex 4.18682 2.18469 5
    endloop
  endfacet
  facet normal 0.939392 0.342844 0
    outer loop
      vertex 4.38986 1.62836 6
      vertex 4.18682 2.18469 5
      vertex 4.18682 2.18469 6
    endloop
  endfacet
  facet normal 0.939392 0.342844 0
    outer loop
      vertex 4.18682 2.18469 5
      vertex 4.38986 1.62836 6
      vertex 4.38986 1.62836 5
    endloop
  endfacet
  facet normal 0.985834 0.167723 0
    outer loop
      vertex 4.51171 0.912156 6
      vertex 4.38986 1.62836 5
      vertex 4.38986 1.62836 6
    endloop
  endfacet
  facet normal 0.985834 0.167723 0
    outer loop
      vertex 4.38986 1.62836 5
      vertex 4.51171 0.912156 6
      vertex 4.51171 0.912156 5
    endloop
  endfacet
  facet normal 0.998927 0.0463067 0
    outer loop
      vertex 4.55232 0.0361185 6
      vertex 4.51171 0.912156 5
      vertex 4.51171 0.912156 6
    endloop
  endfacet
  facet normal 0.998927 0.0463067 0
    outer loop
      vertex 4.51171 0.912156 5
      vertex 4.55232 0.0361185 6
      vertex 4.55232 0.0361185 5
    endloop
  endfacet
  facet normal 0.998921 -0.0464424 0
    outer loop
      vertex 4.51171 -0.837355 6
      vertex 4.55232 0.0361185 5
      vertex 4.55232 0.0361185 6
    endloop
  endfacet
  facet normal 0.998921 -0.0464424 0
    outer loop
      vertex 4.55232 0.0361185 5
      vertex 4.51171 -0.837355 6
      vertex 4.51171 -0.837355 5
    endloop
  endfacet
  facet normal 0.985774 -0.168074 0
    outer loop
      vertex 4.38986 -1.55202 6
      vertex 4.51171 -0.837355 5
      vertex 4.51171 -0.837355 6
    endloop
  endfacet
  facet normal 0.985774 -0.168074 0
    outer loop
      vertex 4.51171 -0.837355 5
      vertex 4.38986 -1.55202 6
      vertex 4.38986 -1.55202 5
    endloop
  endfacet
  facet normal 0.939295 -0.34311 0
    outer loop
      vertex 4.18682 -2.10786 6
      vertex 4.38986 -1.55202 5
      vertex 4.38986 -1.55202 6
    endloop
  endfacet
  facet normal 0.939295 -0.34311 0
    outer loop
      vertex 4.38986 -1.55202 5
      vertex 4.18682 -2.10786 6
      vertex 4.18682 -2.10786 5
    endloop
  endfacet
  facet normal 0.813031 -0.58222 0
    outer loop
      vertex 3.90251 -2.50488 6
      vertex 4.18682 -2.10786 5
      vertex 4.18682 -2.10786 6
    endloop
  endfacet
  facet normal 0.813031 -0.58222 0
    outer loop
      vertex 4.18682 -2.10786 5
      vertex 3.90251 -2.50488 6
      vertex 3.90251 -2.50488 5
    endloop
  endfacet
  facet normal 0.545969 -0.837805 0
    outer loop
      vertex 3.53697 -2.74309 5
      vertex 3.90251 -2.50488 6
      vertex 3.53697 -2.74309 6
    endloop
  endfacet
  facet normal 0.545969 -0.837805 0
    outer loop
      vertex 3.90251 -2.50488 6
      vertex 3.53697 -2.74309 5
      vertex 3.90251 -2.50488 5
    endloop
  endfacet
  facet normal 0.174957 -0.984576 0
    outer loop
      vertex 3.0902 -2.82248 5
      vertex 3.53697 -2.74309 6
      vertex 3.0902 -2.82248 6
    endloop
  endfacet
  facet normal 0.174957 -0.984576 0
    outer loop
      vertex 3.53697 -2.74309 6
      vertex 3.0902 -2.82248 5
      vertex 3.53697 -2.74309 5
    endloop
  endfacet
  facet normal -0.175942 -0.984401 0
    outer loop
      vertex 2.64601 -2.74309 5
      vertex 3.0902 -2.82248 6
      vertex 2.64601 -2.74309 6
    endloop
  endfacet
  facet normal -0.175942 -0.984401 -0
    outer loop
      vertex 3.0902 -2.82248 6
      vertex 2.64601 -2.74309 5
      vertex 3.0902 -2.82248 5
    endloop
  endfacet
  facet normal 0 -1 0
    outer loop
      vertex -2.21602 -2.6423 5
      vertex -0.679395 -2.6423 6
      vertex -2.21602 -2.6423 6
    endloop
  endfacet
  facet normal 0 -1 -0
    outer loop
      vertex -0.679395 -2.6423 6
      vertex -2.21602 -2.6423 5
      vertex -0.679395 -2.6423 5
    endloop
  endfacet
  facet normal -1 0 0
    outer loop
      vertex -2.21602 -2.6423 5
      vertex -2.21602 3.51903 6
      vertex -2.21602 3.51903 5
    endloop
  endfacet
  facet normal -1 -0 0
    outer loop
      vertex -2.21602 3.51903 6
      vertex -2.21602 -2.6423 5
      vertex -2.21602 -2.6423 6
    endloop
  endfacet
  facet normal 0 -1 0
    outer loop
      vertex -3.15661 3.51903 5
      vertex -2.21602 3.51903 6
      vertex -3.15661 3.51903 6
    endloop
  endfacet
  facet normal 0 -1 -0
    outer loop
      vertex -2.21602 3.51903 6
      vertex -3.15661 3.51903 5
      vertex -2.21602 3.51903 5
    endloop
  endfacet
  facet normal 0.196985 -0.980407 0
    outer loop
      vertex -4.81895 3.18503 5
      vertex -3.15661 3.51903 6
      vertex -4.81895 3.18503 6
    endloop
  endfacet
  facet normal 0.196985 -0.980407 0
    outer loop
      vertex -3.15661 3.51903 6
      vertex -4.81895 3.18503 5
      vertex -3.15661 3.51903 5
    endloop
  endfacet
  facet normal 1 -0 0
    outer loop
      vertex -4.81895 2.32806 6
      vertex -4.81895 3.18503 5
      vertex -4.81895 3.18503 6
    endloop
  endfacet
  facet normal 1 0 0
    outer loop
      vertex -4.81895 3.18503 5
      vertex -4.81895 2.32806 6
      vertex -4.81895 2.32806 5
    endloop
  endfacet
  facet normal -0.195927 0.980619 0
    outer loop
      vertex -3.14727 2.66206 5
      vertex -4.81895 2.32806 6
      vertex -3.14727 2.66206 6
    endloop
  endfacet
  facet normal -0.195927 0.980619 0
    outer loop
      vertex -4.81895 2.32806 6
      vertex -3.14727 2.66206 5
      vertex -4.81895 2.32806 5
    endloop
  endfacet
  facet normal 1 -0 0
    outer loop
      vertex -3.14727 -2.6423 6
      vertex -3.14727 2.66206 5
      vertex -3.14727 2.66206 6
    endloop
  endfacet
  facet normal 1 0 0
    outer loop
      vertex -3.14727 2.66206 5
      vertex -3.14727 -2.6423 6
      vertex -3.14727 -2.6423 5
    endloop
  endfacet
  facet normal 0 -1 0
    outer loop
      vertex -4.68396 -2.6423 5
      vertex -3.14727 -2.6423 6
      vertex -4.68396 -2.6423 6
    endloop
  endfacet
  facet normal 0 -1 -0
    outer loop
      vertex -3.14727 -2.6423 6
      vertex -4.68396 -2.6423 5
      vertex -3.14727 -2.6423 5
    endloop
  endfacet
  facet normal 1 -0 0
    outer loop
      vertex -4.68396 -3.43333 6
      vertex -4.68396 -2.6423 5
      vertex -4.68396 -2.6423 6
    endloop
  endfacet
  facet normal 1 0 0
    outer loop
      vertex -4.68396 -2.6423 5
      vertex -4.68396 -3.43333 6
      vertex -4.68396 -3.43333 5
    endloop
  endfacet
  facet normal 0 1 -0
    outer loop
      vertex -0.679395 -3.43333 5
      vertex -4.68396 -3.43333 6
      vertex -0.679395 -3.43333 6
    endloop
  endfacet
  facet normal 0 1 0
    outer loop
      vertex -4.68396 -3.43333 6
      vertex -0.679395 -3.43333 5
      vertex -4.68396 -3.43333 5
    endloop
  endfacet
  facet normal -1 0 0
    outer loop
      vertex -0.679395 -3.43333 5
      vertex -0.679395 -2.6423 6
      vertex -0.679395 -2.6423 5
    endloop
  endfacet
  facet normal -1 -0 0
    outer loop
      vertex -0.679395 -2.6423 6
      vertex -0.679395 -3.43333 5
      vertex -0.679395 -3.43333 6
    endloop
  endfacet
  facet normal -1 0 0
    outer loop
      vertex 3.43333 -6.86667 5
      vertex 3.43333 -5.86667 6
      vertex 3.43333 -5.86667 5
    endloop
  endfacet
  facet normal -1 -0 0
    outer loop
      vertex 3.43333 -5.86667 6
      vertex 3.43333 -6.86667 5
      vertex 3.43333 -6.86667 6
    endloop
  endfacet
  facet normal -0 0 1
    outer loop
      vertex -3.43333 -5.86667 5
      vertex 3.43333 -6.86667 5
      vertex 3.43333 -5.86667 5
    endloop
  endfacet
  facet normal 0 0 1
    outer loop
      vertex 3.43333 -6.86667 5
      vertex -3.43333 -5.86667 5
      vertex -3.43333 -6.86667 5
    endloop
  endfacet
  facet normal 1 -0 0
    outer loop
      vertex -3.43333 -6.86667 6
      vertex -3.43333 -5.86667 5
      vertex -3.43333 -5.86667 6
    endloop
  endfacet
  facet normal 1 0 0
    outer loop
      vertex -3.43333 -5.86667 5
      vertex -3.43333 -6.86667 6
      vertex -3.43333 -6.86667 5
    endloop
  endfacet
  facet normal 0 -1 0
    outer loop
      vertex -3.43333 -5.86667 5
      vertex 3.43333 -5.86667 6
      vertex -3.43333 -5.86667 6
    endloop
  endfacet
  facet normal 0 -1 -0
    outer loop
      vertex 3.43333 -5.86667 6
      vertex -3.43333 -5.86667 5
      vertex 3.43333 -5.86667 5
    endloop
  endfacet
  facet normal 0 1 -0
    outer loop
      vertex 3.43333 -6.86667 5
      vertex -3.43333 -6.86667 6
      vertex 3.43333 -6.86667 6
    endloop
  endfacet
  facet normal 0 1 0
    outer loop
      vertex -3.43333 -6.86667 6
      vertex 3.43333 -6.86667 5
      vertex -3.43333 -6.86667 5
    endloop
  endfacet
  facet normal -0.866025 0.500001 0
    outer loop
      vertex -8.46667 0 0
      vertex -4.23333 7.33235 6
      vertex -4.23333 7.33235 0
    endloop
  endfacet
  facet normal -0.866025 0.500001 0
    outer loop
      vertex -4.23333 7.33235 6
      vertex -8.46667 0 0
      vertex -8.46667 0 6
    endloop
  endfacet
  facet normal 0 0 -1
    outer loop
      vertex 4.23333 -7.33235 0
      vertex 4.23333 7.33235 0
      vertex 8.46667 0 0
    endloop
  endfacet
  facet normal 0 0 -1
    outer loop
      vertex -4.23333 -7.33235 0
      vertex 4.23333 7.33235 0
      vertex 4.23333 -7.33235 0
    endloop
  endfacet
  facet normal 0 0 -1
    outer loop
      vertex -4.23333 -7.33235 0
      vertex -4.23333 7.33235 0
      vertex 4.23333 7.33235 0
    endloop
  endfacet
  facet normal 0 -0 -1
    outer loop
      vertex -4.23333 7.33235 0
      vertex -4.23333 -7.33235 0
      vertex -8.46667 0 0
    endloop
  endfacet
  facet normal 0.866025 -0.500001 0
    outer loop
      vertex 4.23333 -7.33235 6
      vertex 8.46667 0 0
      vertex 8.46667 0 6
    endloop
  endfacet
  facet normal 0.866025 -0.500001 0
    outer loop
      vertex 8.46667 0 0
      vertex 4.23333 -7.33235 6
      vertex 4.23333 -7.33235 0
    endloop
  endfacet
  facet normal -0 0 1
    outer loop
      vertex -4.81895 2.32806 6
      vertex -3.14727 -2.6423 6
      vertex -3.14727 2.66206 6
    endloop
  endfacet
  facet normal -0 0 1
    outer loop
      vertex -8.46667 0 6
      vertex -4.68396 -2.6423 6
      vertex -4.81895 2.32806 6
    endloop
  endfacet
  facet normal 0 0 1
    outer loop
      vertex -3.14727 -2.6423 6
      vertex -4.81895 2.32806 6
      vertex -4.68396 -2.6423 6
    endloop
  endfacet
  facet normal -0 0 1
    outer loop
      vertex 3.0902 -3.56956 6
      vertex 3.43333 -5.86667 6
      vertex 3.80808 -3.46683 6
    endloop
  endfacet
  facet normal 0 0 1
    outer loop
      vertex 2.37233 -3.46683 6
      vertex 3.43333 -5.86667 6
      vertex 3.0902 -3.56956 6
    endloop
  endfacet
  facet normal 0 0 1
    outer loop
      vertex 1.77709 -3.15861 6
      vertex 3.43333 -5.86667 6
      vertex 2.37233 -3.46683 6
    endloop
  endfacet
  facet normal 0 0 1
    outer loop
      vertex -0.679395 -3.43333 6
      vertex 1.77709 -3.15861 6
      vertex 1.30446 -2.64491 6
    endloop
  endfacet
  facet normal 0 0 1
    outer loop
      vertex -0.679395 -2.6423 6
      vertex 0.756044 -1.04236 6
      vertex 0.687487 0.0361185 6
    endloop
  endfacet
  facet normal 0 0 1
    outer loop
      vertex -0.679395 -2.6423 6
      vertex 0.961702 -1.93602 6
      vertex 0.756044 -1.04236 6
    endloop
  endfacet
  facet normal -0 0 1
    outer loop
      vertex -0.679395 -2.6423 6
      vertex 1.30446 -2.64491 6
      vertex 0.961702 -1.93602 6
    endloop
  endfacet
  facet normal 0 0 1
    outer loop
      vertex -0.679395 -3.43333 6
      vertex 1.30446 -2.64491 6
      vertex -0.679395 -2.6423 6
    endloop
  endfacet
  facet normal 0 0 1
    outer loop
      vertex 1.77709 -3.15861 6
      vertex -0.679395 -3.43333 6
      vertex 3.43333 -5.86667 6
    endloop
  endfacet
  facet normal 0 0 1
    outer loop
      vertex -0.679395 -3.43333 6
      vertex -3.43333 -5.86667 6
      vertex 3.43333 -5.86667 6
    endloop
  endfacet
  facet normal 0 0 1
    outer loop
      vertex -3.43333 -5.86667 6
      vertex -4.23333 -7.33235 6
      vertex -3.43333 -6.86667 6
    endloop
  endfacet
  facet normal -0 0 1
    outer loop
      vertex -4.68396 -3.43333 6
      vertex -3.43333 -5.86667 6
      vertex -0.679395 -3.43333 6
    endloop
  endfacet
  facet normal 0 0 1
    outer loop
      vertex -4.68396 -3.43333 6
      vertex -4.23333 -7.33235 6
      vertex -3.43333 -5.86667 6
    endloop
  endfacet
  facet normal 0 0 1
    outer loop
      vertex -4.68396 -3.43333 6
      vertex -8.46667 0 6
      vertex -4.23333 -7.33235 6
    endloop
  endfacet
  facet normal 0 0 1
    outer loop
      vertex -4.68396 -2.6423 6
      vertex -8.46667 0 6
      vertex -4.68396 -3.43333 6
    endloop
  endfacet
  facet normal 0 0 1
    outer loop
      vertex 8.46667 0 6
      vertex 5.42436 1.11716 6
      vertex 5.49292 0.0361185 6
    endloop
  endfacet
  facet normal 0 0 1
    outer loop
      vertex 8.46667 0 6
      vertex 5.21871 2.01236 6
      vertex 5.42436 1.11716 6
    endloop
  endfacet
  facet normal 0 0 1
    outer loop
      vertex 8.46667 0 6
      vertex 4.87595 2.72173 6
      vertex 5.21871 2.01236 6
    endloop
  endfacet
  facet normal 0 0 1
    outer loop
      vertex 4.23333 7.33235 6
      vertex 4.87595 2.72173 6
      vertex 8.46667 0 6
    endloop
  endfacet
  facet normal 0 0 1
    outer loop
      vertex 4.87595 2.72173 6
      vertex 4.23333 7.33235 6
      vertex 4.40332 3.23547 6
    endloop
  endfacet
  facet normal 0 0 1
    outer loop
      vertex 4.23333 7.33235 6
      vertex 3.80808 3.54372 6
      vertex 4.40332 3.23547 6
    endloop
  endfacet
  facet normal 0 0 1
    outer loop
      vertex 4.23333 7.33235 6
      vertex 3.0902 3.64647 6
      vertex 3.80808 3.54372 6
    endloop
  endfacet
  facet normal 0 0 1
    outer loop
      vertex 4.23333 7.33235 6
      vertex 2.37233 3.54372 6
      vertex 3.0902 3.64647 6
    endloop
  endfacet
  facet normal 0 0 1
    outer loop
      vertex 4.23333 7.33235 6
      vertex 1.77709 3.23547 6
      vertex 2.37233 3.54372 6
    endloop
  endfacet
  facet normal -0 0 1
    outer loop
      vertex -2.21602 3.51903 6
      vertex 1.77709 3.23547 6
      vertex 4.23333 7.33235 6
    endloop
  endfacet
  facet normal 0 0 1
    outer loop
      vertex -2.21602 3.51903 6
      vertex 0.687487 0.0361185 6
      vertex 0.756044 1.11716 6
    endloop
  endfacet
  facet normal 0 0 1
    outer loop
      vertex -2.21602 3.51903 6
      vertex 0.756044 1.11716 6
      vertex 0.961702 2.01236 6
    endloop
  endfacet
  facet normal 0 0 1
    outer loop
      vertex 0.687487 0.0361185 6
      vertex -2.21602 3.51903 6
      vertex -2.21602 -2.6423 6
    endloop
  endfacet
  facet normal 0 0 1
    outer loop
      vertex 1.30446 2.72173 6
      vertex -2.21602 3.51903 6
      vertex 0.961702 2.01236 6
    endloop
  endfacet
  facet normal 0 0 1
    outer loop
      vertex 1.77709 3.23547 6
      vertex -2.21602 3.51903 6
      vertex 1.30446 2.72173 6
    endloop
  endfacet
  facet normal -0 0 1
    outer loop
      vertex -4.23333 7.33235 6
      vertex -2.21602 3.51903 6
      vertex 4.23333 7.33235 6
    endloop
  endfacet
  facet normal 0 0 1
    outer loop
      vertex -2.21602 3.51903 6
      vertex -4.23333 7.33235 6
      vertex -3.15661 3.51903 6
    endloop
  endfacet
  facet normal 0 0 1
    outer loop
      vertex -4.23333 7.33235 6
      vertex -4.81895 3.18503 6
      vertex -3.15661 3.51903 6
    endloop
  endfacet
  facet normal 0 0 1
    outer loop
      vertex -4.81895 3.18503 6
      vertex -8.46667 0 6
      vertex -4.81895 2.32806 6
    endloop
  endfacet
  facet normal 0 0 1
    outer loop
      vertex -8.46667 0 6
      vertex -4.81895 3.18503 6
      vertex -4.23333 7.33235 6
    endloop
  endfacet
  facet normal 0 0 1
    outer loop
      vertex 5.42436 -1.04236 6
      vertex 8.46667 0 6
      vertex 5.49292 0.0361185 6
    endloop
  endfacet
  facet normal 0 0 1
    outer loop
      vertex 5.21871 -1.93602 6
      vertex 8.46667 0 6
      vertex 5.42436 -1.04236 6
    endloop
  endfacet
  facet normal 0 0 1
    outer loop
      vertex 4.87595 -2.64491 6
      vertex 8.46667 0 6
      vertex 5.21871 -1.93602 6
    endloop
  endfacet
  facet normal 0 0 1
    outer loop
      vertex 4.23333 -7.33235 6
      vertex 4.87595 -2.64491 6
      vertex 4.40332 -3.15861 6
    endloop
  endfacet
  facet normal -0 0 1
    outer loop
      vertex 4.87595 -2.64491 6
      vertex 4.23333 -7.33235 6
      vertex 8.46667 0 6
    endloop
  endfacet
  facet normal 0 0 1
    outer loop
      vertex 3.43333 -5.86667 6
      vertex 4.40332 -3.15861 6
      vertex 3.80808 -3.46683 6
    endloop
  endfacet
  facet normal 0 0 1
    outer loop
      vertex 4.40332 -3.15861 6
      vertex 3.43333 -5.86667 6
      vertex 4.23333 -7.33235 6
    endloop
  endfacet
  facet normal -0 0 1
    outer loop
      vertex 3.43333 -6.86667 6
      vertex 4.23333 -7.33235 6
      vertex 3.43333 -5.86667 6
    endloop
  endfacet
  facet normal -0 0 1
    outer loop
      vertex -3.43333 -6.86667 6
      vertex 4.23333 -7.33235 6
      vertex 3.43333 -6.86667 6
    endloop
  endfacet
  facet normal 0 0 1
    outer loop
      vertex 4.23333 -7.33235 6
      vertex -3.43333 -6.86667 6
      vertex -4.23333 -7.33235 6
    endloop
  endfacet
  facet normal 0 0 1
    outer loop
      vertex 0.687487 0.0361185 6
      vertex -2.21602 -2.6423 6
      vertex -0.679395 -2.6423 6
    endloop
  endfacet
  facet normal 0 0 1
    outer loop
      vertex 1.63275 0.0361185 6
      vertex 4.55232 0.0361185 6
      vertex 4.51171 0.912156 6
    endloop
  endfacet
  facet normal 0 0 1
    outer loop
      vertex 1.67336 0.912156 6
      vertex 4.51171 0.912156 6
      vertex 4.38986 1.62836 6
    endloop
  endfacet
  facet normal 0 0 1
    outer loop
      vertex 4.55232 0.0361185 6
      vertex 1.63275 0.0361185 6
      vertex 4.51171 -0.837355 6
    endloop
  endfacet
  facet normal 0 0 1
    outer loop
      vertex 1.7952 1.62836 6
      vertex 4.38986 1.62836 6
      vertex 4.18682 2.18469 6
    endloop
  endfacet
  facet normal 0 -0 1
    outer loop
      vertex 1.67336 -0.837355 6
      vertex 4.51171 -0.837355 6
      vertex 1.63275 0.0361185 6
    endloop
  endfacet
  facet normal 0 0 1
    outer loop
      vertex 1.99826 2.18469 6
      vertex 4.18682 2.18469 6
      vertex 3.90251 2.58174 6
    endloop
  endfacet
  facet normal 0 0 1
    outer loop
      vertex 4.51171 -0.837355 6
      vertex 1.67336 -0.837355 6
      vertex 4.38986 -1.55202 6
    endloop
  endfacet
  facet normal 0 0 1
    outer loop
      vertex 3.0902 2.89937 6
      vertex 3.90251 2.58174 6
      vertex 3.53697 2.81996 6
    endloop
  endfacet
  facet normal 0 -0 1
    outer loop
      vertex 1.7952 -1.55202 6
      vertex 4.38986 -1.55202 6
      vertex 1.67336 -0.837355 6
    endloop
  endfacet
  facet normal 0 0 1
    outer loop
      vertex 3.90251 2.58174 6
      vertex 3.0902 2.89937 6
      vertex 1.99826 2.18469 6
    endloop
  endfacet
  facet normal 0 0 1
    outer loop
      vertex 4.38986 -1.55202 6
      vertex 1.7952 -1.55202 6
      vertex 4.18682 -2.10786 6
    endloop
  endfacet
  facet normal 0 0 1
    outer loop
      vertex 2.28205 2.58174 6
      vertex 3.0902 2.89937 6
      vertex 2.64601 2.81996 6
    endloop
  endfacet
  facet normal 0 -0 1
    outer loop
      vertex 1.99826 -2.10786 6
      vertex 4.18682 -2.10786 6
      vertex 1.7952 -1.55202 6
    endloop
  endfacet
  facet normal 0 0 1
    outer loop
      vertex 3.0902 2.89937 6
      vertex 2.28205 2.58174 6
      vertex 1.99826 2.18469 6
    endloop
  endfacet
  facet normal 0 0 1
    outer loop
      vertex 4.18682 -2.10786 6
      vertex 1.99826 -2.10786 6
      vertex 3.90251 -2.50488 6
    endloop
  endfacet
  facet normal 0 0 1
    outer loop
      vertex 4.18682 2.18469 6
      vertex 1.99826 2.18469 6
      vertex 1.7952 1.62836 6
    endloop
  endfacet
  facet normal 0 -0 1
    outer loop
      vertex 3.0902 -2.82248 6
      vertex 3.90251 -2.50488 6
      vertex 1.99826 -2.10786 6
    endloop
  endfacet
  facet normal 0 0 1
    outer loop
      vertex 4.38986 1.62836 6
      vertex 1.7952 1.62836 6
      vertex 1.67336 0.912156 6
    endloop
  endfacet
  facet normal 0 0 1
    outer loop
      vertex 3.90251 -2.50488 6
      vertex 3.0902 -2.82248 6
      vertex 3.53697 -2.74309 6
    endloop
  endfacet
  facet normal 0 0 1
    outer loop
      vertex 4.51171 0.912156 6
      vertex 1.67336 0.912156 6
      vertex 1.63275 0.0361185 6
    endloop
  endfacet
  facet normal -0 -0 1
    outer loop
      vertex 2.28205 -2.50488 6
      vertex 3.0902 -2.82248 6
      vertex 1.99826 -2.10786 6
    endloop
  endfacet
  facet normal 0 0 1
    outer loop
      vertex 3.0902 -2.82248 6
      vertex 2.28205 -2.50488 6
      vertex 2.64601 -2.74309 6
    endloop
  endfacet
  facet normal 0 1 -0
    outer loop
      vertex 4.23333 7.33235 0
      vertex -4.23333 7.33235 6
      vertex 4.23333 7.33235 6
    endloop
  endfacet
  facet normal 0 1 0
    outer loop
      vertex -4.23333 7.33235 6
      vertex 4.23333 7.33235 0
      vertex -4.23333 7.33235 0
    endloop
  endfacet
  facet normal -0.866025 -0.500001 0
    outer loop
      vertex -4.23333 -7.33235 0
      vertex -8.46667 0 6
      vertex -8.46667 0 0
    endloop
  endfacet
  facet normal -0.866025 -0.500001 0
    outer loop
      vertex -8.46667 0 6
      vertex -4.23333 -7.33235 0
      vertex -4.23333 -7.33235 6
    endloop
  endfacet
  facet normal 0 -1 0
    outer loop
      vertex -4.23333 -7.33235 0
      vertex 4.23333 -7.33235 6
      vertex -4.23333 -7.33235 6
    endloop
  endfacet
  facet normal 0 -1 -0
    outer loop
      vertex 4.23333 -7.33235 6
      vertex -4.23333 -7.33235 0
      vertex 4.23333 -7.33235 0
    endloop
  endfacet
  facet normal 0.866025 0.500001 0
    outer loop
      vertex 8.46667 0 6
      vertex 4.23333 7.33235 0
      vertex 4.23333 7.33235 6
    endloop
  endfacet
  facet normal 0.866025 0.500001 0
    outer loop
      vertex 4.23333 7.33235 0
      vertex 8.46667 0 6
      vertex 8.46667 0 0
    endloop
  endfacet
endsolid OpenSCAD_Model
