solid OpenSCAD_Model
  facet normal -0 0 1
    outer loop
      vertex 0.67305 0.327959 0.7
      vertex 1.32338 0.0196247 0.7
      vertex 1.23698 0.863375 0.7
    endloop
  endfacet
  facet normal -0 0 1
    outer loop
      vertex 0.67305 1.05983 0.7
      vertex 1.23698 0.863375 0.7
      vertex 0.977783 1.47977 0.7
    endloop
  endfacet
  facet normal 0 0 1
    outer loop
      vertex 0.67305 0.327959 0.7
      vertex 1.23698 0.863375 0.7
      vertex 0.723358 0.694689 0.7
    endloop
  endfacet
  facet normal -0 0 1
    outer loop
      vertex 0.719254 -0.741544 0.7
      vertex 1.21736 -0.784207 0.7
      vertex 0.814499 -0.136304 0.7
    endloop
  endfacet
  facet normal 0 0 1
    outer loop
      vertex 1.32338 0.0196247 0.7
      vertex 0.814499 -0.136304 0.7
      vertex 1.21736 -0.784207 0.7
    endloop
  endfacet
  facet normal 0 0 1
    outer loop
      vertex 1.23698 0.863375 0.7
      vertex 0.67305 1.05983 0.7
      vertex 0.723358 0.694689 0.7
    endloop
  endfacet
  facet normal 0 0 1
    outer loop
      vertex 0.522095 1.33948 0.7
      vertex 0.977783 1.47977 0.7
      vertex 0.554703 1.85684 0.7
    endloop
  endfacet
  facet normal 0 0 1
    outer loop
      vertex 0.977783 1.47977 0.7
      vertex 0.522095 1.33948 0.7
      vertex 0.67305 1.05983 0.7
    endloop
  endfacet
  facet normal 0 0 1
    outer loop
      vertex 0.554703 1.85684 0.7
      vertex 0.285065 1.51714 0.7
      vertex 0.522095 1.33948 0.7
    endloop
  endfacet
  facet normal 0 0 1
    outer loop
      vertex -0.0234375 1.98255 0.7
      vertex 0.285065 1.51714 0.7
      vertex 0.554703 1.85684 0.7
    endloop
  endfacet
  facet normal 0 0 1
    outer loop
      vertex -0.0234375 1.98255 0.7
      vertex -0.023468 1.57636 0.7
      vertex 0.285065 1.51714 0.7
    endloop
  endfacet
  facet normal 0 0 1
    outer loop
      vertex -0.0234375 1.98255 0.7
      vertex -0.332001 1.51714 0.7
      vertex -0.023468 1.57636 0.7
    endloop
  endfacet
  facet normal -0 0 1
    outer loop
      vertex -0.538651 1.89452 0.7
      vertex -0.332001 1.51714 0.7
      vertex -0.0234375 1.98255 0.7
    endloop
  endfacet
  facet normal 0 0 1
    outer loop
      vertex -0.538651 1.89452 0.7
      vertex -0.569031 1.33948 0.7
      vertex -0.332001 1.51714 0.7
    endloop
  endfacet
  facet normal -0 0 1
    outer loop
      vertex -0.939926 1.63045 0.7
      vertex -0.569031 1.33948 0.7
      vertex -0.538651 1.89452 0.7
    endloop
  endfacet
  facet normal -0 0 1
    outer loop
      vertex -1.19815 1.22072 0.7
      vertex -0.719971 1.05983 0.7
      vertex -0.939926 1.63045 0.7
    endloop
  endfacet
  facet normal 0 0 1
    outer loop
      vertex -0.569031 1.33948 0.7
      vertex -0.939926 1.63045 0.7
      vertex -0.719971 1.05983 0.7
    endloop
  endfacet
  facet normal 0 0 1
    outer loop
      vertex 1.21736 -0.784207 0.7
      vertex 0.719254 -0.741544 0.7
      vertex 0.899323 -1.40759 0.7
    endloop
  endfacet
  facet normal -0 0 1
    outer loop
      vertex 0.509445 -1.17025 0.7
      vertex 0.899323 -1.40759 0.7
      vertex 0.719254 -0.741544 0.7
    endloop
  endfacet
  facet normal 0 0 1
    outer loop
      vertex 0.509445 -1.17025 0.7
      vertex 0.402176 -1.80745 0.7
      vertex 0.899323 -1.40759 0.7
    endloop
  endfacet
  facet normal -0 0 1
    outer loop
      vertex 0.182541 -1.42556 0.7
      vertex 0.402176 -1.80745 0.7
      vertex 0.509445 -1.17025 0.7
    endloop
  endfacet
  facet normal 0 0 1
    outer loop
      vertex 0.182541 -1.42556 0.7
      vertex -0.241165 -1.94073 0.7
      vertex 0.402176 -1.80745 0.7
    endloop
  endfacet
  facet normal -0 0 1
    outer loop
      vertex -0.263977 -1.51066 0.7
      vertex -0.241165 -1.94073 0.7
      vertex 0.182541 -1.42556 0.7
    endloop
  endfacet
  facet normal 0 0 1
    outer loop
      vertex -0.263977 -1.51066 0.7
      vertex -0.434845 -1.93116 0.7
      vertex -0.241165 -1.94073 0.7
    endloop
  endfacet
  facet normal 0 0 1
    outer loop
      vertex -0.45575 -1.49855 0.7
      vertex -0.434845 -1.93116 0.7
      vertex -0.263977 -1.51066 0.7
    endloop
  endfacet
  facet normal 0 0 1
    outer loop
      vertex -0.45575 -1.49855 0.7
      vertex -0.631073 -1.90249 0.7
      vertex -0.434845 -1.93116 0.7
    endloop
  endfacet
  facet normal 0 0 1
    outer loop
      vertex -0.651306 -1.4622 0.7
      vertex -0.631073 -1.90249 0.7
      vertex -0.45575 -1.49855 0.7
    endloop
  endfacet
  facet normal 0 0 1
    outer loop
      vertex -0.651306 -1.4622 0.7
      vertex -0.832321 -1.85473 0.7
      vertex -0.631073 -1.90249 0.7
    endloop
  endfacet
  facet normal 0 0 1
    outer loop
      vertex -0.847504 -1.40291 0.7
      vertex -0.832321 -1.85473 0.7
      vertex -0.651306 -1.4622 0.7
    endloop
  endfacet
  facet normal 0 0 1
    outer loop
      vertex -1.04118 -1.78782 0.7
      vertex -0.847504 -1.40291 0.7
      vertex -1.04118 -1.32191 0.7
    endloop
  endfacet
  facet normal 0 0 1
    outer loop
      vertex -0.847504 -1.40291 0.7
      vertex -1.04118 -1.78782 0.7
      vertex -0.832321 -1.85473 0.7
    endloop
  endfacet
  facet normal 0 0 1
    outer loop
      vertex 1.32338 0.0196247 0.7
      vertex 0.67305 0.327959 0.7
      vertex 0.814499 -0.136304 0.7
    endloop
  endfacet
  facet normal -0 0 1
    outer loop
      vertex 0.522095 0.0486317 0.7
      vertex 0.814499 -0.136304 0.7
      vertex 0.67305 0.327959 0.7
    endloop
  endfacet
  facet normal 0 0 1
    outer loop
      vertex 0.814499 -0.136304 0.7
      vertex 0.522095 0.0486317 0.7
      vertex 0.648041 -0.32829 0.7
    endloop
  endfacet
  facet normal -0 0 1
    outer loop
      vertex 0.285065 -0.128064 0.7
      vertex 0.648041 -0.32829 0.7
      vertex 0.522095 0.0486317 0.7
    endloop
  endfacet
  facet normal 0 0 1
    outer loop
      vertex 0.648041 -0.32829 0.7
      vertex 0.285065 -0.128064 0.7
      vertex 0.442322 -0.469769 0.7
    endloop
  endfacet
  facet normal 0 0 1
    outer loop
      vertex 0.285065 -0.128064 0.7
      vertex 0.204987 -0.556943 0.7
      vertex 0.442322 -0.469769 0.7
    endloop
  endfacet
  facet normal -0 0 1
    outer loop
      vertex -0.023468 -0.186978 0.7
      vertex 0.204987 -0.556943 0.7
      vertex 0.285065 -0.128064 0.7
    endloop
  endfacet
  facet normal 0 0 1
    outer loop
      vertex -0.023468 -0.186978 0.7
      vertex -0.056366 -0.585996 0.7
      vertex 0.204987 -0.556943 0.7
    endloop
  endfacet
  facet normal 0 0 1
    outer loop
      vertex -0.332001 -0.128064 0.7
      vertex -0.056366 -0.585996 0.7
      vertex -0.023468 -0.186978 0.7
    endloop
  endfacet
  facet normal 0 0 1
    outer loop
      vertex -0.332001 -0.128064 0.7
      vertex -0.564285 -0.500196 0.7
      vertex -0.056366 -0.585996 0.7
    endloop
  endfacet
  facet normal 0 0 1
    outer loop
      vertex -0.569031 0.0486317 0.7
      vertex -0.564285 -0.500196 0.7
      vertex -0.332001 -0.128064 0.7
    endloop
  endfacet
  facet normal 0 0 1
    outer loop
      vertex -0.953857 -0.24278 0.7
      vertex -0.569031 0.0486317 0.7
      vertex -0.719971 0.327959 0.7
    endloop
  endfacet
  facet normal 0 0 1
    outer loop
      vertex -1.28423 0.695742 0.7
      vertex -0.719971 1.05983 0.7
      vertex -1.19815 1.22072 0.7
    endloop
  endfacet
  facet normal 0 0 1
    outer loop
      vertex -0.569031 0.0486317 0.7
      vertex -0.953857 -0.24278 0.7
      vertex -0.564285 -0.500196 0.7
    endloop
  endfacet
  facet normal 0 0 1
    outer loop
      vertex -0.719971 1.05983 0.7
      vertex -1.28423 0.695742 0.7
      vertex -0.770294 0.694689 0.7
    endloop
  endfacet
  facet normal 0 0 1
    outer loop
      vertex -0.770294 0.694689 0.7
      vertex -1.28423 0.695742 0.7
      vertex -0.719971 0.327959 0.7
    endloop
  endfacet
  facet normal 0 -0 1
    outer loop
      vertex -1.20163 0.163469 0.7
      vertex -0.719971 0.327959 0.7
      vertex -1.28423 0.695742 0.7
    endloop
  endfacet
  facet normal 0 0 1
    outer loop
      vertex -0.719971 0.327959 0.7
      vertex -1.20163 0.163469 0.7
      vertex -0.953857 -0.24278 0.7
    endloop
  endfacet
  facet normal -0.62674 0.779228 0
    outer loop
      vertex 0.899323 -1.40759 0.7
      vertex 0.402176 -1.80745 3.7
      vertex 0.899323 -1.40759 3.7
    endloop
  endfacet
  facet normal -0.62674 0.779228 0
    outer loop
      vertex 0.402176 -1.80745 3.7
      vertex 0.899323 -1.40759 0.7
      vertex 0.402176 -1.80745 0.7
    endloop
  endfacet
  facet normal -0.890771 0.454453 0
    outer loop
      vertex 0.899323 -1.40759 0.7
      vertex 1.21736 -0.784207 3.7
      vertex 1.21736 -0.784207 0.7
    endloop
  endfacet
  facet normal -0.890771 0.454453 0
    outer loop
      vertex 1.21736 -0.784207 3.7
      vertex 0.899323 -1.40759 0.7
      vertex 0.899323 -1.40759 3.7
    endloop
  endfacet
  facet normal -0.991414 0.130761 0
    outer loop
      vertex 1.21736 -0.784207 0.7
      vertex 1.32338 0.0196247 3.7
      vertex 1.32338 0.0196247 0.7
    endloop
  endfacet
  facet normal -0.991414 0.130761 0
    outer loop
      vertex 1.32338 0.0196247 3.7
      vertex 1.21736 -0.784207 0.7
      vertex 1.21736 -0.784207 3.7
    endloop
  endfacet
  facet normal -0.994798 -0.101867 0
    outer loop
      vertex 1.32338 0.0196247 0.7
      vertex 1.23698 0.863375 3.7
      vertex 1.23698 0.863375 0.7
    endloop
  endfacet
  facet normal -0.994798 -0.101867 0
    outer loop
      vertex 1.23698 0.863375 3.7
      vertex 1.32338 0.0196247 0.7
      vertex 1.32338 0.0196247 3.7
    endloop
  endfacet
  facet normal -0.921816 -0.387628 0
    outer loop
      vertex 1.23698 0.863375 0.7
      vertex 0.977783 1.47977 3.7
      vertex 0.977783 1.47977 0.7
    endloop
  endfacet
  facet normal -0.921816 -0.387628 0
    outer loop
      vertex 0.977783 1.47977 3.7
      vertex 1.23698 0.863375 0.7
      vertex 1.23698 0.863375 3.7
    endloop
  endfacet
  facet normal -0.665348 -0.746533 0
    outer loop
      vertex 0.554703 1.85684 0.7
      vertex 0.977783 1.47977 3.7
      vertex 0.554703 1.85684 3.7
    endloop
  endfacet
  facet normal -0.665348 -0.746533 -0
    outer loop
      vertex 0.977783 1.47977 3.7
      vertex 0.554703 1.85684 0.7
      vertex 0.977783 1.47977 0.7
    endloop
  endfacet
  facet normal -0.212474 -0.977167 0
    outer loop
      vertex -0.0234375 1.98255 0.7
      vertex 0.554703 1.85684 3.7
      vertex -0.0234375 1.98255 3.7
    endloop
  endfacet
  facet normal -0.212474 -0.977167 -0
    outer loop
      vertex 0.554703 1.85684 3.7
      vertex -0.0234375 1.98255 0.7
      vertex 0.554703 1.85684 0.7
    endloop
  endfacet
  facet normal 0.16842 -0.985715 0
    outer loop
      vertex -0.538651 1.89452 0.7
      vertex -0.0234375 1.98255 3.7
      vertex -0.538651 1.89452 3.7
    endloop
  endfacet
  facet normal 0.16842 -0.985715 0
    outer loop
      vertex -0.0234375 1.98255 3.7
      vertex -0.538651 1.89452 0.7
      vertex -0.0234375 1.98255 0.7
    endloop
  endfacet
  facet normal 0.549723 -0.835347 0
    outer loop
      vertex -0.939926 1.63045 0.7
      vertex -0.538651 1.89452 3.7
      vertex -0.939926 1.63045 3.7
    endloop
  endfacet
  facet normal 0.549723 -0.835347 0
    outer loop
      vertex -0.538651 1.89452 3.7
      vertex -0.939926 1.63045 0.7
      vertex -0.538651 1.89452 0.7
    endloop
  endfacet
  facet normal 0.846004 -0.533177 0
    outer loop
      vertex -1.19815 1.22072 3.7
      vertex -0.939926 1.63045 0.7
      vertex -0.939926 1.63045 3.7
    endloop
  endfacet
  facet normal 0.846004 -0.533177 0
    outer loop
      vertex -0.939926 1.63045 0.7
      vertex -1.19815 1.22072 3.7
      vertex -1.19815 1.22072 0.7
    endloop
  endfacet
  facet normal 0.986822 -0.161808 0
    outer loop
      vertex -1.28423 0.695742 3.7
      vertex -1.19815 1.22072 0.7
      vertex -1.19815 1.22072 3.7
    endloop
  endfacet
  facet normal 0.986822 -0.161808 0
    outer loop
      vertex -1.19815 1.22072 0.7
      vertex -1.28423 0.695742 3.7
      vertex -1.28423 0.695742 0.7
    endloop
  endfacet
  facet normal 0.988172 0.153348 0
    outer loop
      vertex -1.20163 0.163469 3.7
      vertex -1.28423 0.695742 0.7
      vertex -1.28423 0.695742 3.7
    endloop
  endfacet
  facet normal 0.988172 0.153348 0
    outer loop
      vertex -1.28423 0.695742 0.7
      vertex -1.20163 0.163469 3.7
      vertex -1.20163 0.163469 0.7
    endloop
  endfacet
  facet normal 0.85374 0.5207 0
    outer loop
      vertex -0.953857 -0.24278 3.7
      vertex -1.20163 0.163469 0.7
      vertex -1.20163 0.163469 3.7
    endloop
  endfacet
  facet normal 0.85374 0.5207 0
    outer loop
      vertex -1.20163 0.163469 0.7
      vertex -0.953857 -0.24278 3.7
      vertex -0.953857 -0.24278 0.7
    endloop
  endfacet
  facet normal 0.551287 0.834315 -0
    outer loop
      vertex -0.564285 -0.500196 0.7
      vertex -0.953857 -0.24278 3.7
      vertex -0.564285 -0.500196 3.7
    endloop
  endfacet
  facet normal 0.551287 0.834315 0
    outer loop
      vertex -0.953857 -0.24278 3.7
      vertex -0.564285 -0.500196 0.7
      vertex -0.953857 -0.24278 0.7
    endloop
  endfacet
  facet normal 0.166565 0.986031 -0
    outer loop
      vertex -0.056366 -0.585996 0.7
      vertex -0.564285 -0.500196 3.7
      vertex -0.056366 -0.585996 3.7
    endloop
  endfacet
  facet normal 0.166565 0.986031 0
    outer loop
      vertex -0.564285 -0.500196 3.7
      vertex -0.056366 -0.585996 0.7
      vertex -0.564285 -0.500196 0.7
    endloop
  endfacet
  facet normal -0.110483 0.993878 0
    outer loop
      vertex 0.204987 -0.556943 0.7
      vertex -0.056366 -0.585996 3.7
      vertex 0.204987 -0.556943 3.7
    endloop
  endfacet
  facet normal -0.110483 0.993878 0
    outer loop
      vertex -0.056366 -0.585996 3.7
      vertex 0.204987 -0.556943 0.7
      vertex -0.056366 -0.585996 0.7
    endloop
  endfacet
  facet normal -0.344782 0.938683 0
    outer loop
      vertex 0.442322 -0.469769 0.7
      vertex 0.204987 -0.556943 3.7
      vertex 0.442322 -0.469769 3.7
    endloop
  endfacet
  facet normal -0.344782 0.938683 0
    outer loop
      vertex 0.204987 -0.556943 3.7
      vertex 0.442322 -0.469769 0.7
      vertex 0.204987 -0.556943 0.7
    endloop
  endfacet
  facet normal -0.566657 0.823954 0
    outer loop
      vertex 0.648041 -0.32829 0.7
      vertex 0.442322 -0.469769 3.7
      vertex 0.648041 -0.32829 3.7
    endloop
  endfacet
  facet normal -0.566657 0.823954 0
    outer loop
      vertex 0.442322 -0.469769 3.7
      vertex 0.648041 -0.32829 0.7
      vertex 0.442322 -0.469769 0.7
    endloop
  endfacet
  facet normal -0.755552 0.655088 0
    outer loop
      vertex 0.648041 -0.32829 0.7
      vertex 0.814499 -0.136304 3.7
      vertex 0.814499 -0.136304 0.7
    endloop
  endfacet
  facet normal -0.755552 0.655088 0
    outer loop
      vertex 0.814499 -0.136304 3.7
      vertex 0.648041 -0.32829 0.7
      vertex 0.648041 -0.32829 3.7
    endloop
  endfacet
  facet normal 0.987843 -0.155454 0
    outer loop
      vertex 0.719254 -0.741544 3.7
      vertex 0.814499 -0.136304 0.7
      vertex 0.814499 -0.136304 3.7
    endloop
  endfacet
  facet normal 0.987843 -0.155454 0
    outer loop
      vertex 0.814499 -0.136304 0.7
      vertex 0.719254 -0.741544 3.7
      vertex 0.719254 -0.741544 0.7
    endloop
  endfacet
  facet normal 0.898203 -0.439581 0
    outer loop
      vertex 0.509445 -1.17025 3.7
      vertex 0.719254 -0.741544 0.7
      vertex 0.719254 -0.741544 3.7
    endloop
  endfacet
  facet normal 0.898203 -0.439581 0
    outer loop
      vertex 0.719254 -0.741544 0.7
      vertex 0.509445 -1.17025 3.7
      vertex 0.509445 -1.17025 0.7
    endloop
  endfacet
  facet normal 0.615519 -0.788122 0
    outer loop
      vertex 0.182541 -1.42556 0.7
      vertex 0.509445 -1.17025 3.7
      vertex 0.182541 -1.42556 3.7
    endloop
  endfacet
  facet normal 0.615519 -0.788122 0
    outer loop
      vertex 0.509445 -1.17025 3.7
      vertex 0.182541 -1.42556 0.7
      vertex 0.509445 -1.17025 0.7
    endloop
  endfacet
  facet normal 0.187216 -0.982319 0
    outer loop
      vertex -0.263977 -1.51066 0.7
      vertex 0.182541 -1.42556 3.7
      vertex -0.263977 -1.51066 3.7
    endloop
  endfacet
  facet normal 0.187216 -0.982319 0
    outer loop
      vertex 0.182541 -1.42556 3.7
      vertex -0.263977 -1.51066 0.7
      vertex 0.182541 -1.42556 0.7
    endloop
  endfacet
  facet normal -0.063022 -0.998012 0
    outer loop
      vertex -0.45575 -1.49855 0.7
      vertex -0.263977 -1.51066 3.7
      vertex -0.45575 -1.49855 3.7
    endloop
  endfacet
  facet normal -0.063022 -0.998012 -0
    outer loop
      vertex -0.263977 -1.51066 3.7
      vertex -0.45575 -1.49855 0.7
      vertex -0.263977 -1.51066 0.7
    endloop
  endfacet
  facet normal -0.18275 -0.983159 0
    outer loop
      vertex -0.651306 -1.4622 0.7
      vertex -0.45575 -1.49855 3.7
      vertex -0.651306 -1.4622 3.7
    endloop
  endfacet
  facet normal -0.18275 -0.983159 -0
    outer loop
      vertex -0.45575 -1.49855 3.7
      vertex -0.651306 -1.4622 0.7
      vertex -0.45575 -1.49855 0.7
    endloop
  endfacet
  facet normal -0.289275 -0.957246 0
    outer loop
      vertex -0.847504 -1.40291 0.7
      vertex -0.651306 -1.4622 3.7
      vertex -0.847504 -1.40291 3.7
    endloop
  endfacet
  facet normal -0.289275 -0.957246 -0
    outer loop
      vertex -0.651306 -1.4622 3.7
      vertex -0.847504 -1.40291 0.7
      vertex -0.651306 -1.4622 0.7
    endloop
  endfacet
  facet normal -0.385839 -0.922566 0
    outer loop
      vertex -1.04118 -1.32191 0.7
      vertex -0.847504 -1.40291 3.7
      vertex -1.04118 -1.32191 3.7
    endloop
  endfacet
  facet normal -0.385839 -0.922566 -0
    outer loop
      vertex -0.847504 -1.40291 3.7
      vertex -1.04118 -1.32191 0.7
      vertex -0.847504 -1.40291 0.7
    endloop
  endfacet
  facet normal 1 -0 0
    outer loop
      vertex -1.04118 -1.78782 3.7
      vertex -1.04118 -1.32191 0.7
      vertex -1.04118 -1.32191 3.7
    endloop
  endfacet
  facet normal 1 0 0
    outer loop
      vertex -1.04118 -1.32191 0.7
      vertex -1.04118 -1.78782 3.7
      vertex -1.04118 -1.78782 0.7
    endloop
  endfacet
  facet normal 0.305086 0.952325 -0
    outer loop
      vertex -0.832321 -1.85473 0.7
      vertex -1.04118 -1.78782 3.7
      vertex -0.832321 -1.85473 3.7
    endloop
  endfacet
  facet normal 0.305086 0.952325 0
    outer loop
      vertex -1.04118 -1.78782 3.7
      vertex -0.832321 -1.85473 0.7
      vertex -1.04118 -1.78782 0.7
    endloop
  endfacet
  facet normal 0.230906 0.972976 -0
    outer loop
      vertex -0.631073 -1.90249 0.7
      vertex -0.832321 -1.85473 3.7
      vertex -0.631073 -1.90249 3.7
    endloop
  endfacet
  facet normal 0.230906 0.972976 0
    outer loop
      vertex -0.832321 -1.85473 3.7
      vertex -0.631073 -1.90249 0.7
      vertex -0.832321 -1.85473 0.7
    endloop
  endfacet
  facet normal 0.144571 0.989494 -0
    outer loop
      vertex -0.434845 -1.93116 0.7
      vertex -0.631073 -1.90249 3.7
      vertex -0.434845 -1.93116 3.7
    endloop
  endfacet
  facet normal 0.144571 0.989494 0
    outer loop
      vertex -0.631073 -1.90249 3.7
      vertex -0.434845 -1.93116 0.7
      vertex -0.631073 -1.90249 0.7
    endloop
  endfacet
  facet normal 0.0493512 0.998781 -0
    outer loop
      vertex -0.241165 -1.94073 0.7
      vertex -0.434845 -1.93116 3.7
      vertex -0.241165 -1.94073 3.7
    endloop
  endfacet
  facet normal 0.0493512 0.998781 0
    outer loop
      vertex -0.434845 -1.93116 3.7
      vertex -0.241165 -1.94073 0.7
      vertex -0.434845 -1.93116 0.7
    endloop
  endfacet
  facet normal -0.202861 0.979208 0
    outer loop
      vertex 0.402176 -1.80745 0.7
      vertex -0.241165 -1.94073 3.7
      vertex 0.402176 -1.80745 3.7
    endloop
  endfacet
  facet normal -0.202861 0.979208 0
    outer loop
      vertex -0.241165 -1.94073 3.7
      vertex 0.402176 -1.80745 0.7
      vertex -0.241165 -1.94073 0.7
    endloop
  endfacet
  facet normal -0.597666 -0.801745 0
    outer loop
      vertex -0.569031 0.0486317 0.7
      vertex -0.332001 -0.128064 3.7
      vertex -0.569031 0.0486317 3.7
    endloop
  endfacet
  facet normal -0.597666 -0.801745 -0
    outer loop
      vertex -0.332001 -0.128064 3.7
      vertex -0.569031 0.0486317 0.7
      vertex -0.332001 -0.128064 0.7
    endloop
  endfacet
  facet normal -0.879769 -0.475401 0
    outer loop
      vertex -0.569031 0.0486317 0.7
      vertex -0.719971 0.327959 3.7
      vertex -0.719971 0.327959 0.7
    endloop
  endfacet
  facet normal -0.879769 -0.475401 0
    outer loop
      vertex -0.719971 0.327959 3.7
      vertex -0.569031 0.0486317 0.7
      vertex -0.569031 0.0486317 3.7
    endloop
  endfacet
  facet normal -0.990716 -0.135947 0
    outer loop
      vertex -0.719971 0.327959 0.7
      vertex -0.770294 0.694689 3.7
      vertex -0.770294 0.694689 0.7
    endloop
  endfacet
  facet normal -0.990716 -0.135947 0
    outer loop
      vertex -0.770294 0.694689 3.7
      vertex -0.719971 0.327959 0.7
      vertex -0.719971 0.327959 3.7
    endloop
  endfacet
  facet normal -0.990636 0.136528 0
    outer loop
      vertex -0.770294 0.694689 0.7
      vertex -0.719971 1.05983 3.7
      vertex -0.719971 1.05983 0.7
    endloop
  endfacet
  facet normal -0.990636 0.136528 0
    outer loop
      vertex -0.719971 1.05983 3.7
      vertex -0.770294 0.694689 0.7
      vertex -0.770294 0.694689 3.7
    endloop
  endfacet
  facet normal -0.879999 0.474976 0
    outer loop
      vertex -0.719971 1.05983 0.7
      vertex -0.569031 1.33948 3.7
      vertex -0.569031 1.33948 0.7
    endloop
  endfacet
  facet normal -0.879999 0.474976 0
    outer loop
      vertex -0.569031 1.33948 3.7
      vertex -0.719971 1.05983 0.7
      vertex -0.719971 1.05983 3.7
    endloop
  endfacet
  facet normal -0.599757 0.800182 0
    outer loop
      vertex -0.332001 1.51714 0.7
      vertex -0.569031 1.33948 3.7
      vertex -0.332001 1.51714 3.7
    endloop
  endfacet
  facet normal -0.599757 0.800182 0
    outer loop
      vertex -0.569031 1.33948 3.7
      vertex -0.332001 1.51714 0.7
      vertex -0.569031 1.33948 0.7
    endloop
  endfacet
  facet normal -0.1885 0.982073 0
    outer loop
      vertex -0.023468 1.57636 0.7
      vertex -0.332001 1.51714 3.7
      vertex -0.023468 1.57636 3.7
    endloop
  endfacet
  facet normal -0.1885 0.982073 0
    outer loop
      vertex -0.332001 1.51714 3.7
      vertex -0.023468 1.57636 0.7
      vertex -0.332001 1.51714 0.7
    endloop
  endfacet
  facet normal 0.1885 0.982073 -0
    outer loop
      vertex 0.285065 1.51714 0.7
      vertex -0.023468 1.57636 3.7
      vertex 0.285065 1.51714 3.7
    endloop
  endfacet
  facet normal 0.1885 0.982073 0
    outer loop
      vertex -0.023468 1.57636 3.7
      vertex 0.285065 1.51714 0.7
      vertex -0.023468 1.57636 0.7
    endloop
  endfacet
  facet normal 0.599757 0.800182 -0
    outer loop
      vertex 0.522095 1.33948 0.7
      vertex 0.285065 1.51714 3.7
      vertex 0.522095 1.33948 3.7
    endloop
  endfacet
  facet normal 0.599757 0.800182 0
    outer loop
      vertex 0.285065 1.51714 3.7
      vertex 0.522095 1.33948 0.7
      vertex 0.285065 1.51714 0.7
    endloop
  endfacet
  facet normal 0.879979 0.475012 0
    outer loop
      vertex 0.67305 1.05983 3.7
      vertex 0.522095 1.33948 0.7
      vertex 0.522095 1.33948 3.7
    endloop
  endfacet
  facet normal 0.879979 0.475012 0
    outer loop
      vertex 0.522095 1.33948 0.7
      vertex 0.67305 1.05983 3.7
      vertex 0.67305 1.05983 0.7
    endloop
  endfacet
  facet normal 0.990642 0.136488 0
    outer loop
      vertex 0.723358 0.694689 3.7
      vertex 0.67305 1.05983 0.7
      vertex 0.67305 1.05983 3.7
    endloop
  endfacet
  facet normal 0.990642 0.136488 0
    outer loop
      vertex 0.67305 1.05983 0.7
      vertex 0.723358 0.694689 3.7
      vertex 0.723358 0.694689 0.7
    endloop
  endfacet
  facet normal 0.990722 -0.135907 0
    outer loop
      vertex 0.67305 0.327959 3.7
      vertex 0.723358 0.694689 0.7
      vertex 0.723358 0.694689 3.7
    endloop
  endfacet
  facet normal 0.990722 -0.135907 0
    outer loop
      vertex 0.723358 0.694689 0.7
      vertex 0.67305 0.327959 3.7
      vertex 0.67305 0.327959 0.7
    endloop
  endfacet
  facet normal 0.87975 -0.475437 0
    outer loop
      vertex 0.522095 0.0486317 3.7
      vertex 0.67305 0.327959 0.7
      vertex 0.67305 0.327959 3.7
    endloop
  endfacet
  facet normal 0.87975 -0.475437 0
    outer loop
      vertex 0.67305 0.327959 0.7
      vertex 0.522095 0.0486317 3.7
      vertex 0.522095 0.0486317 0.7
    endloop
  endfacet
  facet normal 0.597666 -0.801745 0
    outer loop
      vertex 0.285065 -0.128064 0.7
      vertex 0.522095 0.0486317 3.7
      vertex 0.285065 -0.128064 3.7
    endloop
  endfacet
  facet normal 0.597666 -0.801745 0
    outer loop
      vertex 0.522095 0.0486317 3.7
      vertex 0.285065 -0.128064 0.7
      vertex 0.522095 0.0486317 0.7
    endloop
  endfacet
  facet normal 0.18756 -0.982253 0
    outer loop
      vertex -0.023468 -0.186978 0.7
      vertex 0.285065 -0.128064 3.7
      vertex -0.023468 -0.186978 3.7
    endloop
  endfacet
  facet normal 0.18756 -0.982253 0
    outer loop
      vertex 0.285065 -0.128064 3.7
      vertex -0.023468 -0.186978 0.7
      vertex 0.285065 -0.128064 0.7
    endloop
  endfacet
  facet normal -0.18756 -0.982253 0
    outer loop
      vertex -0.332001 -0.128064 0.7
      vertex -0.023468 -0.186978 3.7
      vertex -0.332001 -0.128064 3.7
    endloop
  endfacet
  facet normal -0.18756 -0.982253 -0
    outer loop
      vertex -0.023468 -0.186978 3.7
      vertex -0.332001 -0.128064 0.7
      vertex -0.023468 -0.186978 0.7
    endloop
  endfacet
  facet normal -1 0 0
    outer loop
      vertex 1.86667 -3.36 0.7
      vertex 1.86667 -2.36 3.7
      vertex 1.86667 -2.36 0.7
    endloop
  endfacet
  facet normal -1 -0 0
    outer loop
      vertex 1.86667 -2.36 3.7
      vertex 1.86667 -3.36 0.7
      vertex 1.86667 -3.36 3.7
    endloop
  endfacet
  facet normal -0 0 1
    outer loop
      vertex -1.86667 -2.36 0.7
      vertex 1.86667 -3.36 0.7
      vertex 1.86667 -2.36 0.7
    endloop
  endfacet
  facet normal 0 0 1
    outer loop
      vertex 1.86667 -3.36 0.7
      vertex -1.86667 -2.36 0.7
      vertex -1.86667 -3.36 0.7
    endloop
  endfacet
  facet normal 1 -0 0
    outer loop
      vertex -1.86667 -3.36 3.7
      vertex -1.86667 -2.36 0.7
      vertex -1.86667 -2.36 3.7
    endloop
  endfacet
  facet normal 1 0 0
    outer loop
      vertex -1.86667 -2.36 0.7
      vertex -1.86667 -3.36 3.7
      vertex -1.86667 -3.36 0.7
    endloop
  endfacet
  facet normal 0 -1 0
    outer loop
      vertex -1.86667 -2.36 0.7
      vertex 1.86667 -2.36 3.7
      vertex -1.86667 -2.36 3.7
    endloop
  endfacet
  facet normal 0 -1 -0
    outer loop
      vertex 1.86667 -2.36 3.7
      vertex -1.86667 -2.36 0.7
      vertex 1.86667 -2.36 0.7
    endloop
  endfacet
  facet normal 0 1 -0
    outer loop
      vertex 1.86667 -3.36 0.7
      vertex -1.86667 -3.36 3.7
      vertex 1.86667 -3.36 3.7
    endloop
  endfacet
  facet normal 0 1 0
    outer loop
      vertex -1.86667 -3.36 3.7
      vertex 1.86667 -3.36 0.7
      vertex -1.86667 -3.36 0.7
    endloop
  endfacet
  facet normal 0 1 -0
    outer loop
      vertex 2.66667 4.6188 0
      vertex -2.66667 4.6188 3.7
      vertex 2.66667 4.6188 3.7
    endloop
  endfacet
  facet normal 0 1 0
    outer loop
      vertex -2.66667 4.6188 3.7
      vertex 2.66667 4.6188 0
      vertex -2.66667 4.6188 0
    endloop
  endfacet
  facet normal 0.866026 0.499999 0
    outer loop
      vertex 5.33333 0 3.7
      vertex 2.66667 4.6188 0
      vertex 2.66667 4.6188 3.7
    endloop
  endfacet
  facet normal 0.866026 0.499999 0
    outer loop
      vertex 2.66667 4.6188 0
      vertex 5.33333 0 3.7
      vertex 5.33333 0 0
    endloop
  endfacet
  facet normal -0.866026 0.499999 0
    outer loop
      vertex -5.33333 0 0
      vertex -2.66667 4.6188 3.7
      vertex -2.66667 4.6188 0
    endloop
  endfacet
  facet normal -0.866026 0.499999 0
    outer loop
      vertex -2.66667 4.6188 3.7
      vertex -5.33333 0 0
      vertex -5.33333 0 3.7
    endloop
  endfacet
  facet normal 0.866026 -0.499999 0
    outer loop
      vertex 2.66667 -4.6188 3.7
      vertex 5.33333 0 0
      vertex 5.33333 0 3.7
    endloop
  endfacet
  facet normal 0.866026 -0.499999 0
    outer loop
      vertex 5.33333 0 0
      vertex 2.66667 -4.6188 3.7
      vertex 2.66667 -4.6188 0
    endloop
  endfacet
  facet normal -0.866026 -0.499999 0
    outer loop
      vertex -2.66667 -4.6188 0
      vertex -5.33333 0 3.7
      vertex -5.33333 0 0
    endloop
  endfacet
  facet normal -0.866026 -0.499999 0
    outer loop
      vertex -5.33333 0 3.7
      vertex -2.66667 -4.6188 0
      vertex -2.66667 -4.6188 3.7
    endloop
  endfacet
  facet normal 0 -1 0
    outer loop
      vertex -2.66667 -4.6188 0
      vertex 2.66667 -4.6188 3.7
      vertex -2.66667 -4.6188 3.7
    endloop
  endfacet
  facet normal 0 -1 -0
    outer loop
      vertex 2.66667 -4.6188 3.7
      vertex -2.66667 -4.6188 0
      vertex 2.66667 -4.6188 0
    endloop
  endfacet
  facet normal 0 0 -1
    outer loop
      vertex 2.66667 -4.6188 0
      vertex 2.66667 4.6188 0
      vertex 5.33333 0 0
    endloop
  endfacet
  facet normal 0 0 -1
    outer loop
      vertex -2.66667 -4.6188 0
      vertex 2.66667 4.6188 0
      vertex 2.66667 -4.6188 0
    endloop
  endfacet
  facet normal 0 0 -1
    outer loop
      vertex -2.66667 -4.6188 0
      vertex -2.66667 4.6188 0
      vertex 2.66667 4.6188 0
    endloop
  endfacet
  facet normal 0 -0 -1
    outer loop
      vertex -2.66667 4.6188 0
      vertex -2.66667 -4.6188 0
      vertex -5.33333 0 0
    endloop
  endfacet
  facet normal -0 0 1
    outer loop
      vertex 0.648041 -0.32829 3.7
      vertex 0.719254 -0.741544 3.7
      vertex 0.814499 -0.136304 3.7
    endloop
  endfacet
  facet normal -0 0 1
    outer loop
      vertex 0.442322 -0.469769 3.7
      vertex 0.719254 -0.741544 3.7
      vertex 0.648041 -0.32829 3.7
    endloop
  endfacet
  facet normal -0 0 1
    outer loop
      vertex 0.204987 -0.556943 3.7
      vertex 0.719254 -0.741544 3.7
      vertex 0.442322 -0.469769 3.7
    endloop
  endfacet
  facet normal 0 0 1
    outer loop
      vertex 0.719254 -0.741544 3.7
      vertex 0.204987 -0.556943 3.7
      vertex 0.509445 -1.17025 3.7
    endloop
  endfacet
  facet normal -0 0 1
    outer loop
      vertex -0.056366 -0.585996 3.7
      vertex 0.509445 -1.17025 3.7
      vertex 0.204987 -0.556943 3.7
    endloop
  endfacet
  facet normal 0 0 1
    outer loop
      vertex 0.509445 -1.17025 3.7
      vertex -0.056366 -0.585996 3.7
      vertex 0.182541 -1.42556 3.7
    endloop
  endfacet
  facet normal 0 0 1
    outer loop
      vertex -0.056366 -0.585996 3.7
      vertex -0.263977 -1.51066 3.7
      vertex 0.182541 -1.42556 3.7
    endloop
  endfacet
  facet normal 0 0 1
    outer loop
      vertex -0.056366 -0.585996 3.7
      vertex -0.45575 -1.49855 3.7
      vertex -0.263977 -1.51066 3.7
    endloop
  endfacet
  facet normal 0 0 1
    outer loop
      vertex -0.564285 -0.500196 3.7
      vertex -0.45575 -1.49855 3.7
      vertex -0.056366 -0.585996 3.7
    endloop
  endfacet
  facet normal 0 0 1
    outer loop
      vertex -0.564285 -0.500196 3.7
      vertex -0.651306 -1.4622 3.7
      vertex -0.45575 -1.49855 3.7
    endloop
  endfacet
  facet normal 0 0 1
    outer loop
      vertex -0.564285 -0.500196 3.7
      vertex -0.847504 -1.40291 3.7
      vertex -0.651306 -1.4622 3.7
    endloop
  endfacet
  facet normal 0 0 1
    outer loop
      vertex -1.04118 -1.32191 3.7
      vertex -0.564285 -0.500196 3.7
      vertex -0.953857 -0.24278 3.7
    endloop
  endfacet
  facet normal 0 0 1
    outer loop
      vertex -0.564285 -0.500196 3.7
      vertex -1.04118 -1.32191 3.7
      vertex -0.847504 -1.40291 3.7
    endloop
  endfacet
  facet normal 0 0 1
    outer loop
      vertex -1.86667 -2.36 3.7
      vertex -1.04118 -1.32191 3.7
      vertex -1.20163 0.163469 3.7
    endloop
  endfacet
  facet normal 0 0 1
    outer loop
      vertex -1.20163 0.163469 3.7
      vertex -1.04118 -1.32191 3.7
      vertex -0.953857 -0.24278 3.7
    endloop
  endfacet
  facet normal -0 0 1
    outer loop
      vertex 1.23698 0.863375 3.7
      vertex 5.33333 0 3.7
      vertex 2.66667 4.6188 3.7
    endloop
  endfacet
  facet normal 0 0 1
    outer loop
      vertex 5.33333 0 3.7
      vertex 1.86667 -2.36 3.7
      vertex 2.66667 -4.6188 3.7
    endloop
  endfacet
  facet normal 0 0 1
    outer loop
      vertex 1.21736 -0.784207 3.7
      vertex 5.33333 0 3.7
      vertex 1.32338 0.0196247 3.7
    endloop
  endfacet
  facet normal 0 0 1
    outer loop
      vertex 5.33333 0 3.7
      vertex 1.23698 0.863375 3.7
      vertex 1.32338 0.0196247 3.7
    endloop
  endfacet
  facet normal 0 0 1
    outer loop
      vertex 2.66667 4.6188 3.7
      vertex 0.977783 1.47977 3.7
      vertex 1.23698 0.863375 3.7
    endloop
  endfacet
  facet normal 0 0 1
    outer loop
      vertex 2.66667 4.6188 3.7
      vertex 0.554703 1.85684 3.7
      vertex 0.977783 1.47977 3.7
    endloop
  endfacet
  facet normal 0 0 1
    outer loop
      vertex 2.66667 4.6188 3.7
      vertex -0.0234375 1.98255 3.7
      vertex 0.554703 1.85684 3.7
    endloop
  endfacet
  facet normal -0 0 1
    outer loop
      vertex -2.66667 4.6188 3.7
      vertex -0.0234375 1.98255 3.7
      vertex 2.66667 4.6188 3.7
    endloop
  endfacet
  facet normal 0 0 1
    outer loop
      vertex -0.0234375 1.98255 3.7
      vertex -2.66667 4.6188 3.7
      vertex -0.538651 1.89452 3.7
    endloop
  endfacet
  facet normal 0 0 1
    outer loop
      vertex -5.33333 0 3.7
      vertex -1.28423 0.695742 3.7
      vertex -1.19815 1.22072 3.7
    endloop
  endfacet
  facet normal 0 0 1
    outer loop
      vertex -1.28423 0.695742 3.7
      vertex -5.33333 0 3.7
      vertex -1.86667 -2.36 3.7
    endloop
  endfacet
  facet normal 0 0 1
    outer loop
      vertex -5.33333 0 3.7
      vertex -1.19815 1.22072 3.7
      vertex -2.66667 4.6188 3.7
    endloop
  endfacet
  facet normal 0 0 1
    outer loop
      vertex -0.939926 1.63045 3.7
      vertex -2.66667 4.6188 3.7
      vertex -1.19815 1.22072 3.7
    endloop
  endfacet
  facet normal 0 0 1
    outer loop
      vertex -0.538651 1.89452 3.7
      vertex -2.66667 4.6188 3.7
      vertex -0.939926 1.63045 3.7
    endloop
  endfacet
  facet normal -0 0 1
    outer loop
      vertex 1.86667 -3.36 3.7
      vertex 2.66667 -4.6188 3.7
      vertex 1.86667 -2.36 3.7
    endloop
  endfacet
  facet normal -0 0 1
    outer loop
      vertex -1.86667 -3.36 3.7
      vertex 2.66667 -4.6188 3.7
      vertex 1.86667 -3.36 3.7
    endloop
  endfacet
  facet normal 0 0 1
    outer loop
      vertex -1.86667 -3.36 3.7
      vertex -2.66667 -4.6188 3.7
      vertex 2.66667 -4.6188 3.7
    endloop
  endfacet
  facet normal 0 -0 1
    outer loop
      vertex -2.66667 -4.6188 3.7
      vertex -1.86667 -2.36 3.7
      vertex -5.33333 0 3.7
    endloop
  endfacet
  facet normal 0 0 1
    outer loop
      vertex -1.86667 -2.36 3.7
      vertex -2.66667 -4.6188 3.7
      vertex -1.86667 -3.36 3.7
    endloop
  endfacet
  facet normal 0 0 1
    outer loop
      vertex 5.33333 0 3.7
      vertex 1.21736 -0.784207 3.7
      vertex 1.86667 -2.36 3.7
    endloop
  endfacet
  facet normal -0 0 1
    outer loop
      vertex 0.899323 -1.40759 3.7
      vertex 1.86667 -2.36 3.7
      vertex 1.21736 -0.784207 3.7
    endloop
  endfacet
  facet normal -0 0 1
    outer loop
      vertex 0.402176 -1.80745 3.7
      vertex 1.86667 -2.36 3.7
      vertex 0.899323 -1.40759 3.7
    endloop
  endfacet
  facet normal -0 0 1
    outer loop
      vertex -0.241165 -1.94073 3.7
      vertex 1.86667 -2.36 3.7
      vertex 0.402176 -1.80745 3.7
    endloop
  endfacet
  facet normal 0 0 1
    outer loop
      vertex -1.86667 -2.36 3.7
      vertex -0.241165 -1.94073 3.7
      vertex -0.434845 -1.93116 3.7
    endloop
  endfacet
  facet normal 0 0 1
    outer loop
      vertex -1.86667 -2.36 3.7
      vertex -0.434845 -1.93116 3.7
      vertex -0.631073 -1.90249 3.7
    endloop
  endfacet
  facet normal 0 0 1
    outer loop
      vertex -1.86667 -2.36 3.7
      vertex -1.20163 0.163469 3.7
      vertex -1.28423 0.695742 3.7
    endloop
  endfacet
  facet normal 0 0 1
    outer loop
      vertex -0.241165 -1.94073 3.7
      vertex -1.86667 -2.36 3.7
      vertex 1.86667 -2.36 3.7
    endloop
  endfacet
  facet normal 0 0 1
    outer loop
      vertex -0.832321 -1.85473 3.7
      vertex -1.86667 -2.36 3.7
      vertex -0.631073 -1.90249 3.7
    endloop
  endfacet
  facet normal 0 0 1
    outer loop
      vertex -1.04118 -1.78782 3.7
      vertex -1.86667 -2.36 3.7
      vertex -0.832321 -1.85473 3.7
    endloop
  endfacet
  facet normal 0 0 1
    outer loop
      vertex -1.04118 -1.32191 3.7
      vertex -1.86667 -2.36 3.7
      vertex -1.04118 -1.78782 3.7
    endloop
  endfacet
  facet normal 0 0 1
    outer loop
      vertex -0.770294 0.694689 3.7
      vertex 0.723358 0.694689 3.7
      vertex 0.67305 1.05983 3.7
    endloop
  endfacet
  facet normal 0 0 1
    outer loop
      vertex -0.023468 1.57636 3.7
      vertex 0.67305 1.05983 3.7
      vertex 0.522095 1.33948 3.7
    endloop
  endfacet
  facet normal 0 0 1
    outer loop
      vertex 0.723358 0.694689 3.7
      vertex -0.770294 0.694689 3.7
      vertex 0.67305 0.327959 3.7
    endloop
  endfacet
  facet normal 0 0 1
    outer loop
      vertex -0.023468 1.57636 3.7
      vertex 0.522095 1.33948 3.7
      vertex 0.285065 1.51714 3.7
    endloop
  endfacet
  facet normal 0 -0 1
    outer loop
      vertex -0.719971 0.327959 3.7
      vertex 0.67305 0.327959 3.7
      vertex -0.770294 0.694689 3.7
    endloop
  endfacet
  facet normal 0 0 1
    outer loop
      vertex 0.67305 1.05983 3.7
      vertex -0.023468 1.57636 3.7
      vertex -0.719971 1.05983 3.7
    endloop
  endfacet
  facet normal 0 -0 1
    outer loop
      vertex -0.023468 -0.186978 3.7
      vertex 0.67305 0.327959 3.7
      vertex -0.719971 0.327959 3.7
    endloop
  endfacet
  facet normal 0 0 1
    outer loop
      vertex -0.569031 1.33948 3.7
      vertex -0.023468 1.57636 3.7
      vertex -0.332001 1.51714 3.7
    endloop
  endfacet
  facet normal 0 0 1
    outer loop
      vertex 0.67305 0.327959 3.7
      vertex -0.023468 -0.186978 3.7
      vertex 0.522095 0.0486317 3.7
    endloop
  endfacet
  facet normal 0 0 1
    outer loop
      vertex -0.023468 1.57636 3.7
      vertex -0.569031 1.33948 3.7
      vertex -0.719971 1.05983 3.7
    endloop
  endfacet
  facet normal 0 0 1
    outer loop
      vertex 0.522095 0.0486317 3.7
      vertex -0.023468 -0.186978 3.7
      vertex 0.285065 -0.128064 3.7
    endloop
  endfacet
  facet normal 0 0 1
    outer loop
      vertex 0.67305 1.05983 3.7
      vertex -0.719971 1.05983 3.7
      vertex -0.770294 0.694689 3.7
    endloop
  endfacet
  facet normal -0 -0 1
    outer loop
      vertex -0.569031 0.0486317 3.7
      vertex -0.023468 -0.186978 3.7
      vertex -0.719971 0.327959 3.7
    endloop
  endfacet
  facet normal 0 0 1
    outer loop
      vertex -0.023468 -0.186978 3.7
      vertex -0.569031 0.0486317 3.7
      vertex -0.332001 -0.128064 3.7
    endloop
  endfacet
endsolid OpenSCAD_Model
