solid OpenSCAD_Model
  facet normal -0.866025 0.500001 0
    outer loop
      vertex -8.46667 0 0
      vertex -4.23333 7.33235 6
      vertex -4.23333 7.33235 0
    endloop
  endfacet
  facet normal -0.866025 0.500001 0
    outer loop
      vertex -4.23333 7.33235 6
      vertex -8.46667 0 0
      vertex -8.46667 0 6
    endloop
  endfacet
  facet normal 0 0 -1
    outer loop
      vertex 4.23333 -7.33235 0
      vertex 4.23333 7.33235 0
      vertex 8.46667 0 0
    endloop
  endfacet
  facet normal 0 0 -1
    outer loop
      vertex -4.23333 -7.33235 0
      vertex 4.23333 7.33235 0
      vertex 4.23333 -7.33235 0
    endloop
  endfacet
  facet normal 0 0 -1
    outer loop
      vertex -4.23333 -7.33235 0
      vertex -4.23333 7.33235 0
      vertex 4.23333 7.33235 0
    endloop
  endfacet
  facet normal 0 -0 -1
    outer loop
      vertex -4.23333 7.33235 0
      vertex -4.23333 -7.33235 0
      vertex -8.46667 0 0
    endloop
  endfacet
  facet normal 0.866025 -0.500001 0
    outer loop
      vertex 4.23333 -7.33235 6
      vertex 8.46667 0 0
      vertex 8.46667 0 6
    endloop
  endfacet
  facet normal 0.866025 -0.500001 0
    outer loop
      vertex 8.46667 0 0
      vertex 4.23333 -7.33235 6
      vertex 4.23333 -7.33235 0
    endloop
  endfacet
  facet normal 0 0 1
    outer loop
      vertex 4.23333 7.33235 6
      vertex 5.26634 1.41111 6
      vertex 8.46667 0 6
    endloop
  endfacet
  facet normal 0 0 1
    outer loop
      vertex 4.23333 7.33235 6
      vertex 2.82222 5.64444 6
      vertex 5.26634 1.41111 6
    endloop
  endfacet
  facet normal 0 0 1
    outer loop
      vertex 0.378105 1.41111 6
      vertex -0.378105 1.41111 6
      vertex 0 0 6
    endloop
  endfacet
  facet normal 0 0 1
    outer loop
      vertex 2.82222 5.64444 6
      vertex -0.378105 1.41111 6
      vertex 0.378105 1.41111 6
    endloop
  endfacet
  facet normal 0 0 1
    outer loop
      vertex 2.82222 5.64444 6
      vertex -2.82222 5.64444 6
      vertex -0.378105 1.41111 6
    endloop
  endfacet
  facet normal 0 0 1
    outer loop
      vertex 4.23333 7.33235 6
      vertex -2.82222 5.64444 6
      vertex 2.82222 5.64444 6
    endloop
  endfacet
  facet normal -0 0 1
    outer loop
      vertex -4.23333 7.33235 6
      vertex -2.82222 5.64444 6
      vertex 4.23333 7.33235 6
    endloop
  endfacet
  facet normal 0 0 1
    outer loop
      vertex -4.23333 7.33235 6
      vertex -5.26634 1.41111 6
      vertex -2.82222 5.64444 6
    endloop
  endfacet
  facet normal 0 -0 1
    outer loop
      vertex -5.26634 1.41111 6
      vertex -4.23333 7.33235 6
      vertex -8.46667 0 6
    endloop
  endfacet
  facet normal 0 0 1
    outer loop
      vertex 2.44412 -4.23333 6
      vertex 8.46667 0 6
      vertex 5.26634 1.41111 6
    endloop
  endfacet
  facet normal 0 0 1
    outer loop
      vertex 8.46667 0 6
      vertex 2.44412 -4.23333 6
      vertex 4.23333 -7.33235 6
    endloop
  endfacet
  facet normal 0 0 1
    outer loop
      vertex 0 0 6
      vertex 5.26634 1.41111 6
      vertex 0.378105 1.41111 6
    endloop
  endfacet
  facet normal 0 0 1
    outer loop
      vertex 5.26634 1.41111 6
      vertex 0 0 6
      vertex 2.44412 -4.23333 6
    endloop
  endfacet
  facet normal -0 0 1
    outer loop
      vertex -2.44412 -4.23333 6
      vertex 4.23333 -7.33235 6
      vertex 2.44412 -4.23333 6
    endloop
  endfacet
  facet normal 0 0 1
    outer loop
      vertex 4.23333 -7.33235 6
      vertex -2.44412 -4.23333 6
      vertex -4.23333 -7.33235 6
    endloop
  endfacet
  facet normal -0 0 1
    outer loop
      vertex -5.26634 1.41111 6
      vertex 0 0 6
      vertex -0.378105 1.41111 6
    endloop
  endfacet
  facet normal 0 0 1
    outer loop
      vertex 0 0 6
      vertex -5.26634 1.41111 6
      vertex -2.44412 -4.23333 6
    endloop
  endfacet
  facet normal -0 0 1
    outer loop
      vertex -8.46667 0 6
      vertex -2.44412 -4.23333 6
      vertex -5.26634 1.41111 6
    endloop
  endfacet
  facet normal 0 0 1
    outer loop
      vertex -2.44412 -4.23333 6
      vertex -8.46667 0 6
      vertex -4.23333 -7.33235 6
    endloop
  endfacet
  facet normal 0 1 -0
    outer loop
      vertex 4.23333 7.33235 0
      vertex -4.23333 7.33235 6
      vertex 4.23333 7.33235 6
    endloop
  endfacet
  facet normal 0 1 0
    outer loop
      vertex -4.23333 7.33235 6
      vertex 4.23333 7.33235 0
      vertex -4.23333 7.33235 0
    endloop
  endfacet
  facet normal -0.866025 -0.500001 0
    outer loop
      vertex -4.23333 -7.33235 0
      vertex -8.46667 0 6
      vertex -8.46667 0 0
    endloop
  endfacet
  facet normal -0.866025 -0.500001 0
    outer loop
      vertex -8.46667 0 6
      vertex -4.23333 -7.33235 0
      vertex -4.23333 -7.33235 6
    endloop
  endfacet
  facet normal 0 -1 0
    outer loop
      vertex -4.23333 -7.33235 0
      vertex 4.23333 -7.33235 6
      vertex -4.23333 -7.33235 6
    endloop
  endfacet
  facet normal 0 -1 -0
    outer loop
      vertex 4.23333 -7.33235 6
      vertex -4.23333 -7.33235 0
      vertex 4.23333 -7.33235 0
    endloop
  endfacet
  facet normal 0.866025 0.500001 0
    outer loop
      vertex 8.46667 0 6
      vertex 4.23333 7.33235 0
      vertex 4.23333 7.33235 6
    endloop
  endfacet
  facet normal 0.866025 0.500001 0
    outer loop
      vertex 4.23333 7.33235 0
      vertex 8.46667 0 6
      vertex 8.46667 0 0
    endloop
  endfacet
  facet normal 0 -1 0
    outer loop
      vertex -2.44412 -4.23333 6
      vertex 2.44412 -4.23333 7.6
      vertex -2.44412 -4.23333 7.6
    endloop
  endfacet
  facet normal 0 -1 -0
    outer loop
      vertex 2.44412 -4.23333 7.6
      vertex -2.44412 -4.23333 6
      vertex 2.44412 -4.23333 6
    endloop
  endfacet
  facet normal 0 0 1
    outer loop
      vertex 0 0 7.6
      vertex -2.44412 -4.23333 7.6
      vertex 2.44412 -4.23333 7.6
    endloop
  endfacet
  facet normal 0.866025 0.500001 0
    outer loop
      vertex 2.44412 -4.23333 7.6
      vertex 0 0 6
      vertex 0 0 7.6
    endloop
  endfacet
  facet normal 0.866025 0.500001 0
    outer loop
      vertex 0 0 6
      vertex 2.44412 -4.23333 7.6
      vertex 2.44412 -4.23333 6
    endloop
  endfacet
  facet normal -0.866025 0.500001 0
    outer loop
      vertex -2.44412 -4.23333 6
      vertex 0 0 7.6
      vertex 0 0 6
    endloop
  endfacet
  facet normal -0.866025 0.500001 0
    outer loop
      vertex 0 0 7.6
      vertex -2.44412 -4.23333 6
      vertex -2.44412 -4.23333 7.6
    endloop
  endfacet
  facet normal 0 -1 0
    outer loop
      vertex 0.378105 1.41111 6
      vertex 5.26634 1.41111 7.6
      vertex 0.378105 1.41111 7.6
    endloop
  endfacet
  facet normal 0 -1 -0
    outer loop
      vertex 5.26634 1.41111 7.6
      vertex 0.378105 1.41111 6
      vertex 5.26634 1.41111 6
    endloop
  endfacet
  facet normal 0 0 1
    outer loop
      vertex 2.82222 5.64444 7.6
      vertex 0.378105 1.41111 7.6
      vertex 5.26634 1.41111 7.6
    endloop
  endfacet
  facet normal 0.866025 0.500001 0
    outer loop
      vertex 5.26634 1.41111 7.6
      vertex 2.82222 5.64444 6
      vertex 2.82222 5.64444 7.6
    endloop
  endfacet
  facet normal 0.866025 0.500001 0
    outer loop
      vertex 2.82222 5.64444 6
      vertex 5.26634 1.41111 7.6
      vertex 5.26634 1.41111 6
    endloop
  endfacet
  facet normal -0.866025 0.5 0
    outer loop
      vertex 0.378105 1.41111 6
      vertex 2.82222 5.64444 7.6
      vertex 2.82222 5.64444 6
    endloop
  endfacet
  facet normal -0.866025 0.5 0
    outer loop
      vertex 2.82222 5.64444 7.6
      vertex 0.378105 1.41111 6
      vertex 0.378105 1.41111 7.6
    endloop
  endfacet
  facet normal 0 -1 0
    outer loop
      vertex -5.26634 1.41111 6
      vertex -0.378105 1.41111 7.6
      vertex -5.26634 1.41111 7.6
    endloop
  endfacet
  facet normal 0 -1 -0
    outer loop
      vertex -0.378105 1.41111 7.6
      vertex -5.26634 1.41111 6
      vertex -0.378105 1.41111 6
    endloop
  endfacet
  facet normal 0 0 1
    outer loop
      vertex -2.82222 5.64444 7.6
      vertex -5.26634 1.41111 7.6
      vertex -0.378105 1.41111 7.6
    endloop
  endfacet
  facet normal 0.866025 0.5 0
    outer loop
      vertex -0.378105 1.41111 7.6
      vertex -2.82222 5.64444 6
      vertex -2.82222 5.64444 7.6
    endloop
  endfacet
  facet normal 0.866025 0.5 0
    outer loop
      vertex -2.82222 5.64444 6
      vertex -0.378105 1.41111 7.6
      vertex -0.378105 1.41111 6
    endloop
  endfacet
  facet normal -0.866025 0.500001 0
    outer loop
      vertex -5.26634 1.41111 6
      vertex -2.82222 5.64444 7.6
      vertex -2.82222 5.64444 6
    endloop
  endfacet
  facet normal -0.866025 0.500001 0
    outer loop
      vertex -2.82222 5.64444 7.6
      vertex -5.26634 1.41111 6
      vertex -5.26634 1.41111 7.6
    endloop
  endfacet
endsolid OpenSCAD_Model
