solid OpenSCAD_Model
  facet normal 0 0 1
    outer loop
      vertex 0.373993 1.91326 0.7
      vertex -0.132294 1.44733 0.7
      vertex 0.373993 -1.4366 0.7
    endloop
  endfacet
  facet normal -0 0 1
    outer loop
      vertex -0.137375 1.91326 0.7
      vertex -0.132294 1.44733 0.7
      vertex 0.373993 1.91326 0.7
    endloop
  endfacet
  facet normal -0 0 1
    outer loop
      vertex -1.04118 1.73166 0.7
      vertex -0.132294 1.44733 0.7
      vertex -0.137375 1.91326 0.7
    endloop
  endfacet
  facet normal 0 0 1
    outer loop
      vertex -0.132294 1.44733 0.7
      vertex -1.04118 1.73166 0.7
      vertex -1.04118 1.26575 0.7
    endloop
  endfacet
  facet normal -0 0 1
    outer loop
      vertex 0.373993 -1.4366 0.7
      vertex 1.20944 -1.86667 0.7
      vertex 1.20944 -1.4366 0.7
    endloop
  endfacet
  facet normal 0 0 1
    outer loop
      vertex -0.132294 -1.4366 0.7
      vertex 0.373993 -1.4366 0.7
      vertex -0.132294 1.44733 0.7
    endloop
  endfacet
  facet normal -0 0 1
    outer loop
      vertex -0.132294 -1.4366 0.7
      vertex 1.20944 -1.86667 0.7
      vertex 0.373993 -1.4366 0.7
    endloop
  endfacet
  facet normal 0 0 1
    outer loop
      vertex -0.967789 -1.86667 0.7
      vertex -0.132294 -1.4366 0.7
      vertex -0.967789 -1.4366 0.7
    endloop
  endfacet
  facet normal 0 0 1
    outer loop
      vertex -0.132294 -1.4366 0.7
      vertex -0.967789 -1.86667 0.7
      vertex 1.20944 -1.86667 0.7
    endloop
  endfacet
  facet normal 0 -1 0
    outer loop
      vertex 0.373993 -1.4366 0.7
      vertex 1.20944 -1.4366 3.7
      vertex 0.373993 -1.4366 3.7
    endloop
  endfacet
  facet normal 0 -1 -0
    outer loop
      vertex 1.20944 -1.4366 3.7
      vertex 0.373993 -1.4366 0.7
      vertex 1.20944 -1.4366 0.7
    endloop
  endfacet
  facet normal -1 0 0
    outer loop
      vertex 0.373993 -1.4366 0.7
      vertex 0.373993 1.91326 3.7
      vertex 0.373993 1.91326 0.7
    endloop
  endfacet
  facet normal -1 -0 0
    outer loop
      vertex 0.373993 1.91326 3.7
      vertex 0.373993 -1.4366 0.7
      vertex 0.373993 -1.4366 3.7
    endloop
  endfacet
  facet normal 0 -1 0
    outer loop
      vertex -0.137375 1.91326 0.7
      vertex 0.373993 1.91326 3.7
      vertex -0.137375 1.91326 3.7
    endloop
  endfacet
  facet normal 0 -1 -0
    outer loop
      vertex 0.373993 1.91326 3.7
      vertex -0.137375 1.91326 0.7
      vertex 0.373993 1.91326 0.7
    endloop
  endfacet
  facet normal 0.196991 -0.980405 0
    outer loop
      vertex -1.04118 1.73166 0.7
      vertex -0.137375 1.91326 3.7
      vertex -1.04118 1.73166 3.7
    endloop
  endfacet
  facet normal 0.196991 -0.980405 0
    outer loop
      vertex -0.137375 1.91326 3.7
      vertex -1.04118 1.73166 0.7
      vertex -0.137375 1.91326 0.7
    endloop
  endfacet
  facet normal 1 -0 0
    outer loop
      vertex -1.04118 1.26575 3.7
      vertex -1.04118 1.73166 0.7
      vertex -1.04118 1.73166 3.7
    endloop
  endfacet
  facet normal 1 0 0
    outer loop
      vertex -1.04118 1.73166 0.7
      vertex -1.04118 1.26575 3.7
      vertex -1.04118 1.26575 0.7
    endloop
  endfacet
  facet normal -0.195912 0.980622 0
    outer loop
      vertex -0.132294 1.44733 0.7
      vertex -1.04118 1.26575 3.7
      vertex -0.132294 1.44733 3.7
    endloop
  endfacet
  facet normal -0.195912 0.980622 0
    outer loop
      vertex -1.04118 1.26575 3.7
      vertex -0.132294 1.44733 0.7
      vertex -1.04118 1.26575 0.7
    endloop
  endfacet
  facet normal 1 -0 0
    outer loop
      vertex -0.132294 -1.4366 3.7
      vertex -0.132294 1.44733 0.7
      vertex -0.132294 1.44733 3.7
    endloop
  endfacet
  facet normal 1 0 0
    outer loop
      vertex -0.132294 1.44733 0.7
      vertex -0.132294 -1.4366 3.7
      vertex -0.132294 -1.4366 0.7
    endloop
  endfacet
  facet normal 0 -1 0
    outer loop
      vertex -0.967789 -1.4366 0.7
      vertex -0.132294 -1.4366 3.7
      vertex -0.967789 -1.4366 3.7
    endloop
  endfacet
  facet normal 0 -1 -0
    outer loop
      vertex -0.132294 -1.4366 3.7
      vertex -0.967789 -1.4366 0.7
      vertex -0.132294 -1.4366 0.7
    endloop
  endfacet
  facet normal 1 -0 0
    outer loop
      vertex -0.967789 -1.86667 3.7
      vertex -0.967789 -1.4366 0.7
      vertex -0.967789 -1.4366 3.7
    endloop
  endfacet
  facet normal 1 0 0
    outer loop
      vertex -0.967789 -1.4366 0.7
      vertex -0.967789 -1.86667 3.7
      vertex -0.967789 -1.86667 0.7
    endloop
  endfacet
  facet normal 0 1 -0
    outer loop
      vertex 1.20944 -1.86667 0.7
      vertex -0.967789 -1.86667 3.7
      vertex 1.20944 -1.86667 3.7
    endloop
  endfacet
  facet normal 0 1 0
    outer loop
      vertex -0.967789 -1.86667 3.7
      vertex 1.20944 -1.86667 0.7
      vertex -0.967789 -1.86667 0.7
    endloop
  endfacet
  facet normal -1 0 0
    outer loop
      vertex 1.20944 -1.86667 0.7
      vertex 1.20944 -1.4366 3.7
      vertex 1.20944 -1.4366 0.7
    endloop
  endfacet
  facet normal -1 -0 0
    outer loop
      vertex 1.20944 -1.4366 3.7
      vertex 1.20944 -1.86667 0.7
      vertex 1.20944 -1.86667 3.7
    endloop
  endfacet
  facet normal -1 0 0
    outer loop
      vertex 1.86667 -3.36 0.7
      vertex 1.86667 -2.36 3.7
      vertex 1.86667 -2.36 0.7
    endloop
  endfacet
  facet normal -1 -0 0
    outer loop
      vertex 1.86667 -2.36 3.7
      vertex 1.86667 -3.36 0.7
      vertex 1.86667 -3.36 3.7
    endloop
  endfacet
  facet normal -0 0 1
    outer loop
      vertex -1.86667 -2.36 0.7
      vertex 1.86667 -3.36 0.7
      vertex 1.86667 -2.36 0.7
    endloop
  endfacet
  facet normal 0 0 1
    outer loop
      vertex 1.86667 -3.36 0.7
      vertex -1.86667 -2.36 0.7
      vertex -1.86667 -3.36 0.7
    endloop
  endfacet
  facet normal 1 -0 0
    outer loop
      vertex -1.86667 -3.36 3.7
      vertex -1.86667 -2.36 0.7
      vertex -1.86667 -2.36 3.7
    endloop
  endfacet
  facet normal 1 0 0
    outer loop
      vertex -1.86667 -2.36 0.7
      vertex -1.86667 -3.36 3.7
      vertex -1.86667 -3.36 0.7
    endloop
  endfacet
  facet normal 0 -1 0
    outer loop
      vertex -1.86667 -2.36 0.7
      vertex 1.86667 -2.36 3.7
      vertex -1.86667 -2.36 3.7
    endloop
  endfacet
  facet normal 0 -1 -0
    outer loop
      vertex 1.86667 -2.36 3.7
      vertex -1.86667 -2.36 0.7
      vertex 1.86667 -2.36 0.7
    endloop
  endfacet
  facet normal 0 1 -0
    outer loop
      vertex 1.86667 -3.36 0.7
      vertex -1.86667 -3.36 3.7
      vertex 1.86667 -3.36 3.7
    endloop
  endfacet
  facet normal 0 1 0
    outer loop
      vertex -1.86667 -3.36 3.7
      vertex 1.86667 -3.36 0.7
      vertex -1.86667 -3.36 0.7
    endloop
  endfacet
  facet normal 0 1 -0
    outer loop
      vertex 2.66667 4.6188 0
      vertex -2.66667 4.6188 3.7
      vertex 2.66667 4.6188 3.7
    endloop
  endfacet
  facet normal 0 1 0
    outer loop
      vertex -2.66667 4.6188 3.7
      vertex 2.66667 4.6188 0
      vertex -2.66667 4.6188 0
    endloop
  endfacet
  facet normal 0.866026 0.499999 0
    outer loop
      vertex 5.33333 0 3.7
      vertex 2.66667 4.6188 0
      vertex 2.66667 4.6188 3.7
    endloop
  endfacet
  facet normal 0.866026 0.499999 0
    outer loop
      vertex 2.66667 4.6188 0
      vertex 5.33333 0 3.7
      vertex 5.33333 0 0
    endloop
  endfacet
  facet normal -0.866026 0.499999 0
    outer loop
      vertex -5.33333 0 0
      vertex -2.66667 4.6188 3.7
      vertex -2.66667 4.6188 0
    endloop
  endfacet
  facet normal -0.866026 0.499999 0
    outer loop
      vertex -2.66667 4.6188 3.7
      vertex -5.33333 0 0
      vertex -5.33333 0 3.7
    endloop
  endfacet
  facet normal 0.866026 -0.499999 0
    outer loop
      vertex 2.66667 -4.6188 3.7
      vertex 5.33333 0 0
      vertex 5.33333 0 3.7
    endloop
  endfacet
  facet normal 0.866026 -0.499999 0
    outer loop
      vertex 5.33333 0 0
      vertex 2.66667 -4.6188 3.7
      vertex 2.66667 -4.6188 0
    endloop
  endfacet
  facet normal -0.866026 -0.499999 0
    outer loop
      vertex -2.66667 -4.6188 0
      vertex -5.33333 0 3.7
      vertex -5.33333 0 0
    endloop
  endfacet
  facet normal -0.866026 -0.499999 0
    outer loop
      vertex -5.33333 0 3.7
      vertex -2.66667 -4.6188 0
      vertex -2.66667 -4.6188 3.7
    endloop
  endfacet
  facet normal 0 -1 0
    outer loop
      vertex -2.66667 -4.6188 0
      vertex 2.66667 -4.6188 3.7
      vertex -2.66667 -4.6188 3.7
    endloop
  endfacet
  facet normal 0 -1 -0
    outer loop
      vertex 2.66667 -4.6188 3.7
      vertex -2.66667 -4.6188 0
      vertex 2.66667 -4.6188 0
    endloop
  endfacet
  facet normal 0 0 -1
    outer loop
      vertex 2.66667 -4.6188 0
      vertex 2.66667 4.6188 0
      vertex 5.33333 0 0
    endloop
  endfacet
  facet normal 0 0 -1
    outer loop
      vertex -2.66667 -4.6188 0
      vertex 2.66667 4.6188 0
      vertex 2.66667 -4.6188 0
    endloop
  endfacet
  facet normal 0 0 -1
    outer loop
      vertex -2.66667 -4.6188 0
      vertex -2.66667 4.6188 0
      vertex 2.66667 4.6188 0
    endloop
  endfacet
  facet normal 0 -0 -1
    outer loop
      vertex -2.66667 4.6188 0
      vertex -2.66667 -4.6188 0
      vertex -5.33333 0 0
    endloop
  endfacet
  facet normal -0 0 1
    outer loop
      vertex -1.04118 1.26575 3.7
      vertex -0.132294 -1.4366 3.7
      vertex -0.132294 1.44733 3.7
    endloop
  endfacet
  facet normal -0 0 1
    outer loop
      vertex -5.33333 0 3.7
      vertex -0.967789 -1.4366 3.7
      vertex -1.04118 1.26575 3.7
    endloop
  endfacet
  facet normal 0 0 1
    outer loop
      vertex -0.132294 -1.4366 3.7
      vertex -1.04118 1.26575 3.7
      vertex -0.967789 -1.4366 3.7
    endloop
  endfacet
  facet normal -0 0 1
    outer loop
      vertex 0.373993 1.91326 3.7
      vertex 5.33333 0 3.7
      vertex 2.66667 4.6188 3.7
    endloop
  endfacet
  facet normal 0 0 1
    outer loop
      vertex 5.33333 0 3.7
      vertex 1.86667 -2.36 3.7
      vertex 2.66667 -4.6188 3.7
    endloop
  endfacet
  facet normal 0 0 1
    outer loop
      vertex 5.33333 0 3.7
      vertex 1.20944 -1.4366 3.7
      vertex 1.86667 -2.36 3.7
    endloop
  endfacet
  facet normal 0 0 1
    outer loop
      vertex 5.33333 0 3.7
      vertex 0.373993 1.91326 3.7
      vertex 1.20944 -1.4366 3.7
    endloop
  endfacet
  facet normal 0 0 1
    outer loop
      vertex 2.66667 4.6188 3.7
      vertex -0.137375 1.91326 3.7
      vertex 0.373993 1.91326 3.7
    endloop
  endfacet
  facet normal -0 0 1
    outer loop
      vertex -2.66667 4.6188 3.7
      vertex -0.137375 1.91326 3.7
      vertex 2.66667 4.6188 3.7
    endloop
  endfacet
  facet normal 0 0 1
    outer loop
      vertex -5.33333 0 3.7
      vertex -1.04118 1.26575 3.7
      vertex -1.04118 1.73166 3.7
    endloop
  endfacet
  facet normal 0 0 1
    outer loop
      vertex -0.967789 -1.4366 3.7
      vertex -5.33333 0 3.7
      vertex -1.86667 -2.36 3.7
    endloop
  endfacet
  facet normal 0 0 1
    outer loop
      vertex -5.33333 0 3.7
      vertex -1.04118 1.73166 3.7
      vertex -2.66667 4.6188 3.7
    endloop
  endfacet
  facet normal 0 0 1
    outer loop
      vertex -0.137375 1.91326 3.7
      vertex -2.66667 4.6188 3.7
      vertex -1.04118 1.73166 3.7
    endloop
  endfacet
  facet normal -0 0 1
    outer loop
      vertex 1.86667 -3.36 3.7
      vertex 2.66667 -4.6188 3.7
      vertex 1.86667 -2.36 3.7
    endloop
  endfacet
  facet normal -0 0 1
    outer loop
      vertex -1.86667 -3.36 3.7
      vertex 2.66667 -4.6188 3.7
      vertex 1.86667 -3.36 3.7
    endloop
  endfacet
  facet normal 0 0 1
    outer loop
      vertex -1.86667 -3.36 3.7
      vertex -2.66667 -4.6188 3.7
      vertex 2.66667 -4.6188 3.7
    endloop
  endfacet
  facet normal 0 -0 1
    outer loop
      vertex -2.66667 -4.6188 3.7
      vertex -1.86667 -2.36 3.7
      vertex -5.33333 0 3.7
    endloop
  endfacet
  facet normal 0 0 1
    outer loop
      vertex -1.86667 -2.36 3.7
      vertex -2.66667 -4.6188 3.7
      vertex -1.86667 -3.36 3.7
    endloop
  endfacet
  facet normal -0 0 1
    outer loop
      vertex 1.20944 -1.86667 3.7
      vertex 1.86667 -2.36 3.7
      vertex 1.20944 -1.4366 3.7
    endloop
  endfacet
  facet normal -0 0 1
    outer loop
      vertex -0.967789 -1.86667 3.7
      vertex 1.86667 -2.36 3.7
      vertex 1.20944 -1.86667 3.7
    endloop
  endfacet
  facet normal 0 0 1
    outer loop
      vertex -0.967789 -1.86667 3.7
      vertex -1.86667 -2.36 3.7
      vertex 1.86667 -2.36 3.7
    endloop
  endfacet
  facet normal 0 0 1
    outer loop
      vertex -0.967789 -1.4366 3.7
      vertex -1.86667 -2.36 3.7
      vertex -0.967789 -1.86667 3.7
    endloop
  endfacet
  facet normal 0 0 1
    outer loop
      vertex 1.20944 -1.4366 3.7
      vertex 0.373993 1.91326 3.7
      vertex 0.373993 -1.4366 3.7
    endloop
  endfacet
endsolid OpenSCAD_Model
