solid OpenSCAD_Model
  facet normal -0 0 1
    outer loop
      vertex 0.623688 1.20645 0.7
      vertex 1.18413 1.0015 0.7
      vertex 1.09932 1.40615 0.7
    endloop
  endfacet
  facet normal 0 0 1
    outer loop
      vertex 1.18413 1.0015 0.7
      vertex 0.675278 0.948626 0.7
      vertex 1.13919 0.71158 0.7
    endloop
  endfacet
  facet normal 0 0 1
    outer loop
      vertex 0.623688 1.20645 0.7
      vertex 1.09932 1.40615 0.7
      vertex 0.844879 1.71762 0.7
    endloop
  endfacet
  facet normal 0 0 1
    outer loop
      vertex 0.625275 0.697786 0.7
      vertex 1.13919 0.71158 0.7
      vertex 0.675278 0.948626 0.7
    endloop
  endfacet
  facet normal 0 0 1
    outer loop
      vertex 1.13919 0.71158 0.7
      vertex 0.625275 0.697786 0.7
      vertex 1.00438 0.47043 0.7
    endloop
  endfacet
  facet normal 0 0 1
    outer loop
      vertex 1.18413 1.0015 0.7
      vertex 0.623688 1.20645 0.7
      vertex 0.675278 0.948626 0.7
    endloop
  endfacet
  facet normal 0 0 1
    outer loop
      vertex 0.844879 1.71762 0.7
      vertex 0.468933 1.39641 0.7
      vertex 0.623688 1.20645 0.7
    endloop
  endfacet
  facet normal 0 0 1
    outer loop
      vertex 0.44487 1.91631 0.7
      vertex 0.468933 1.39641 0.7
      vertex 0.844879 1.71762 0.7
    endloop
  endfacet
  facet normal 0 0 1
    outer loop
      vertex 0.44487 1.91631 0.7
      vertex 0.218002 1.51344 0.7
      vertex 0.468933 1.39641 0.7
    endloop
  endfacet
  facet normal 0 0 1
    outer loop
      vertex -0.0766296 1.98255 0.7
      vertex 0.218002 1.51344 0.7
      vertex 0.44487 1.91631 0.7
    endloop
  endfacet
  facet normal 0 0 1
    outer loop
      vertex -0.0766296 1.98255 0.7
      vertex -0.122177 1.55246 0.7
      vertex 0.218002 1.51344 0.7
    endloop
  endfacet
  facet normal -0 0 1
    outer loop
      vertex -0.309235 1.97238 0.7
      vertex -0.122177 1.55246 0.7
      vertex -0.0766296 1.98255 0.7
    endloop
  endfacet
  facet normal 0 0 1
    outer loop
      vertex -0.309235 1.97238 0.7
      vertex -0.33992 1.54099 0.7
      vertex -0.122177 1.55246 0.7
    endloop
  endfacet
  facet normal -0 0 1
    outer loop
      vertex -0.556412 1.94193 0.7
      vertex -0.33992 1.54099 0.7
      vertex -0.309235 1.97238 0.7
    endloop
  endfacet
  facet normal 0 0 1
    outer loop
      vertex -0.556412 1.94193 0.7
      vertex -0.57283 1.50655 0.7
      vertex -0.33992 1.54099 0.7
    endloop
  endfacet
  facet normal -0 0 1
    outer loop
      vertex -0.820007 1.89115 0.7
      vertex -0.57283 1.50655 0.7
      vertex -0.556412 1.94193 0.7
    endloop
  endfacet
  facet normal 0 0 1
    outer loop
      vertex -0.820007 1.89115 0.7
      vertex -0.825363 1.44788 0.7
      vertex -0.57283 1.50655 0.7
    endloop
  endfacet
  facet normal -0 0 1
    outer loop
      vertex -1.10196 1.82007 0.7
      vertex -0.825363 1.44788 0.7
      vertex -0.820007 1.89115 0.7
    endloop
  endfacet
  facet normal 0 0 1
    outer loop
      vertex -0.825363 1.44788 0.7
      vertex -1.10196 1.82007 0.7
      vertex -1.10196 1.36371 0.7
    endloop
  endfacet
  facet normal 0 0 1
    outer loop
      vertex 1.00438 0.47043 0.7
      vertex 0.625275 0.697786 0.7
      vertex 0.786667 0.286974 0.7
    endloop
  endfacet
  facet normal -0 0 1
    outer loop
      vertex 0.47525 0.513506 0.7
      vertex 0.786667 0.286974 0.7
      vertex 0.625275 0.697786 0.7
    endloop
  endfacet
  facet normal 0 0 1
    outer loop
      vertex 0.786667 0.286974 0.7
      vertex 0.47525 0.513506 0.7
      vertex 0.492981 0.170046 0.7
    endloop
  endfacet
  facet normal 0 0 1
    outer loop
      vertex 1.22115 -0.433591 0.7
      vertex 0.705322 -0.471433 0.7
      vertex 0.76387 -0.769116 0.7
    endloop
  endfacet
  facet normal 0 0 1
    outer loop
      vertex 0.819885 0.049181 0.7
      vertex 0.529678 -0.246518 0.7
      vertex 0.705322 -0.471433 0.7
    endloop
  endfacet
  facet normal 0 0 1
    outer loop
      vertex 0.492981 0.170046 0.7
      vertex 0.529678 -0.246518 0.7
      vertex 0.819885 0.049181 0.7
    endloop
  endfacet
  facet normal 0 0 1
    outer loop
      vertex 0.492981 0.170046 0.7
      vertex 0.249634 -0.105084 0.7
      vertex 0.529678 -0.246518 0.7
    endloop
  endfacet
  facet normal -0 0 1
    outer loop
      vertex 0.230942 0.400301 0.7
      vertex 0.492981 0.170046 0.7
      vertex 0.47525 0.513506 0.7
    endloop
  endfacet
  facet normal 0 0 1
    outer loop
      vertex 0.492981 0.170046 0.7
      vertex 0.230942 0.400301 0.7
      vertex 0.249634 -0.105084 0.7
    endloop
  endfacet
  facet normal -0 0 1
    outer loop
      vertex -0.101944 0.362566 0.7
      vertex 0.249634 -0.105084 0.7
      vertex 0.230942 0.400301 0.7
    endloop
  endfacet
  facet normal 0 0 1
    outer loop
      vertex -0.101944 0.362566 0.7
      vertex -0.122177 -0.05795 0.7
      vertex 0.249634 -0.105084 0.7
    endloop
  endfacet
  facet normal -0 0 1
    outer loop
      vertex -0.562714 0.362566 0.7
      vertex -0.122177 -0.05795 0.7
      vertex -0.101944 0.362566 0.7
    endloop
  endfacet
  facet normal 0 0 1
    outer loop
      vertex -0.122177 -0.05795 0.7
      vertex -0.562714 0.362566 0.7
      vertex -0.562714 -0.05795 0.7
    endloop
  endfacet
  facet normal 0 0 1
    outer loop
      vertex 0.76387 -0.769116 0.7
      vertex 1.27272 -0.768918 0.7
      vertex 1.22115 -0.433591 0.7
    endloop
  endfacet
  facet normal 0 0 1
    outer loop
      vertex 0.705322 -0.471433 0.7
      vertex 1.22115 -0.433591 0.7
      vertex 1.06638 -0.156476 0.7
    endloop
  endfacet
  facet normal 0 0 1
    outer loop
      vertex 1.27272 -0.768918 0.7
      vertex 0.76387 -0.769116 0.7
      vertex 1.17651 -1.26498 0.7
    endloop
  endfacet
  facet normal 0 0 1
    outer loop
      vertex 0.705322 -0.471433 0.7
      vertex 1.06638 -0.156476 0.7
      vertex 0.819885 0.049181 0.7
    endloop
  endfacet
  facet normal -0 0 1
    outer loop
      vertex 0.700882 -1.08801 0.7
      vertex 1.17651 -1.26498 0.7
      vertex 0.76387 -0.769116 0.7
    endloop
  endfacet
  facet normal 0 0 1
    outer loop
      vertex 1.17651 -1.26498 0.7
      vertex 0.700882 -1.08801 0.7
      vertex 0.887894 -1.6345 0.7
    endloop
  endfacet
  facet normal -0 0 1
    outer loop
      vertex 0.511948 -1.32086 0.7
      vertex 0.887894 -1.6345 0.7
      vertex 0.700882 -1.08801 0.7
    endloop
  endfacet
  facet normal 0 0 1
    outer loop
      vertex 0.511948 -1.32086 0.7
      vertex 0.422089 -1.86418 0.7
      vertex 0.887894 -1.6345 0.7
    endloop
  endfacet
  facet normal -0 0 1
    outer loop
      vertex 0.202774 -1.46321 0.7
      vertex 0.422089 -1.86418 0.7
      vertex 0.511948 -1.32086 0.7
    endloop
  endfacet
  facet normal 0 0 1
    outer loop
      vertex 0.202774 -1.46321 0.7
      vertex -0.205734 -1.94073 0.7
      vertex 0.422089 -1.86418 0.7
    endloop
  endfacet
  facet normal -0 0 1
    outer loop
      vertex -0.220932 -1.51066 0.7
      vertex -0.205734 -1.94073 0.7
      vertex 0.202774 -1.46321 0.7
    endloop
  endfacet
  facet normal 0 0 1
    outer loop
      vertex -0.220932 -1.51066 0.7
      vertex -0.447189 -1.92907 0.7
      vertex -0.205734 -1.94073 0.7
    endloop
  endfacet
  facet normal 0 0 1
    outer loop
      vertex -0.49118 -1.49482 0.7
      vertex -0.447189 -1.92907 0.7
      vertex -0.220932 -1.51066 0.7
    endloop
  endfacet
  facet normal 0 0 1
    outer loop
      vertex -0.49118 -1.49482 0.7
      vertex -0.695618 -1.89413 0.7
      vertex -0.447189 -1.92907 0.7
    endloop
  endfacet
  facet normal 0 0 1
    outer loop
      vertex -0.750061 -1.44731 0.7
      vertex -0.695618 -1.89413 0.7
      vertex -0.49118 -1.49482 0.7
    endloop
  endfacet
  facet normal 0 0 1
    outer loop
      vertex -0.750061 -1.44731 0.7
      vertex -0.95163 -1.8359 0.7
      vertex -0.695618 -1.89413 0.7
    endloop
  endfacet
  facet normal 0 0 1
    outer loop
      vertex -0.993088 -1.36876 0.7
      vertex -0.95163 -1.8359 0.7
      vertex -0.750061 -1.44731 0.7
    endloop
  endfacet
  facet normal 0 0 1
    outer loop
      vertex -1.21587 -1.75438 0.7
      vertex -0.993088 -1.36876 0.7
      vertex -1.21587 -1.25978 0.7
    endloop
  endfacet
  facet normal 0 0 1
    outer loop
      vertex -0.993088 -1.36876 0.7
      vertex -1.21587 -1.75438 0.7
      vertex -0.95163 -1.8359 0.7
    endloop
  endfacet
  facet normal -0.442243 0.896895 0
    outer loop
      vertex 0.887894 -1.6345 0.7
      vertex 0.422089 -1.86418 3.7
      vertex 0.887894 -1.6345 3.7
    endloop
  endfacet
  facet normal -0.442243 0.896895 0
    outer loop
      vertex 0.422089 -1.86418 3.7
      vertex 0.887894 -1.6345 0.7
      vertex 0.422089 -1.86418 0.7
    endloop
  endfacet
  facet normal -0.788098 0.615549 0
    outer loop
      vertex 0.887894 -1.6345 0.7
      vertex 1.17651 -1.26498 3.7
      vertex 1.17651 -1.26498 0.7
    endloop
  endfacet
  facet normal -0.788098 0.615549 0
    outer loop
      vertex 1.17651 -1.26498 3.7
      vertex 0.887894 -1.6345 0.7
      vertex 0.887894 -1.6345 3.7
    endloop
  endfacet
  facet normal -0.981707 0.1904 0
    outer loop
      vertex 1.17651 -1.26498 0.7
      vertex 1.27272 -0.768918 3.7
      vertex 1.27272 -0.768918 0.7
    endloop
  endfacet
  facet normal -0.981707 0.1904 0
    outer loop
      vertex 1.27272 -0.768918 3.7
      vertex 1.17651 -1.26498 0.7
      vertex 1.17651 -1.26498 3.7
    endloop
  endfacet
  facet normal -0.98838 -0.152003 0
    outer loop
      vertex 1.27272 -0.768918 0.7
      vertex 1.22115 -0.433591 3.7
      vertex 1.22115 -0.433591 0.7
    endloop
  endfacet
  facet normal -0.98838 -0.152003 0
    outer loop
      vertex 1.22115 -0.433591 3.7
      vertex 1.27272 -0.768918 0.7
      vertex 1.27272 -0.768918 3.7
    endloop
  endfacet
  facet normal -0.873062 -0.487609 0
    outer loop
      vertex 1.22115 -0.433591 0.7
      vertex 1.06638 -0.156476 3.7
      vertex 1.06638 -0.156476 0.7
    endloop
  endfacet
  facet normal -0.873062 -0.487609 0
    outer loop
      vertex 1.06638 -0.156476 3.7
      vertex 1.22115 -0.433591 0.7
      vertex 1.22115 -0.433591 3.7
    endloop
  endfacet
  facet normal -0.640634 -0.767847 0
    outer loop
      vertex 0.819885 0.049181 0.7
      vertex 1.06638 -0.156476 3.7
      vertex 0.819885 0.049181 3.7
    endloop
  endfacet
  facet normal -0.640634 -0.767847 -0
    outer loop
      vertex 1.06638 -0.156476 3.7
      vertex 0.819885 0.049181 0.7
      vertex 1.06638 -0.156476 0.7
    endloop
  endfacet
  facet normal -0.346783 -0.937945 0
    outer loop
      vertex 0.492981 0.170046 0.7
      vertex 0.819885 0.049181 3.7
      vertex 0.492981 0.170046 3.7
    endloop
  endfacet
  facet normal -0.346783 -0.937945 -0
    outer loop
      vertex 0.819885 0.049181 3.7
      vertex 0.492981 0.170046 0.7
      vertex 0.819885 0.049181 0.7
    endloop
  endfacet
  facet normal -0.3699 0.929072 0
    outer loop
      vertex 0.786667 0.286974 0.7
      vertex 0.492981 0.170046 3.7
      vertex 0.786667 0.286974 3.7
    endloop
  endfacet
  facet normal -0.3699 0.929072 0
    outer loop
      vertex 0.492981 0.170046 3.7
      vertex 0.786667 0.286974 0.7
      vertex 0.492981 0.170046 0.7
    endloop
  endfacet
  facet normal -0.64438 0.764706 0
    outer loop
      vertex 1.00438 0.47043 0.7
      vertex 0.786667 0.286974 3.7
      vertex 1.00438 0.47043 3.7
    endloop
  endfacet
  facet normal -0.64438 0.764706 0
    outer loop
      vertex 0.786667 0.286974 3.7
      vertex 1.00438 0.47043 0.7
      vertex 0.786667 0.286974 0.7
    endloop
  endfacet
  facet normal -0.872867 0.487958 0
    outer loop
      vertex 1.00438 0.47043 0.7
      vertex 1.13919 0.71158 3.7
      vertex 1.13919 0.71158 0.7
    endloop
  endfacet
  facet normal -0.872867 0.487958 0
    outer loop
      vertex 1.13919 0.71158 3.7
      vertex 1.00438 0.47043 0.7
      vertex 1.00438 0.47043 3.7
    endloop
  endfacet
  facet normal -0.988198 0.153179 0
    outer loop
      vertex 1.13919 0.71158 0.7
      vertex 1.18413 1.0015 3.7
      vertex 1.18413 1.0015 0.7
    endloop
  endfacet
  facet normal -0.988198 0.153179 0
    outer loop
      vertex 1.18413 1.0015 3.7
      vertex 1.13919 0.71158 0.7
      vertex 1.13919 0.71158 3.7
    endloop
  endfacet
  facet normal -0.978734 -0.205132 0
    outer loop
      vertex 1.18413 1.0015 0.7
      vertex 1.09932 1.40615 3.7
      vertex 1.09932 1.40615 0.7
    endloop
  endfacet
  facet normal -0.978734 -0.205132 0
    outer loop
      vertex 1.09932 1.40615 3.7
      vertex 1.18413 1.0015 0.7
      vertex 1.18413 1.0015 3.7
    endloop
  endfacet
  facet normal -0.774442 -0.632645 0
    outer loop
      vertex 1.09932 1.40615 0.7
      vertex 0.844879 1.71762 3.7
      vertex 0.844879 1.71762 0.7
    endloop
  endfacet
  facet normal -0.774442 -0.632645 0
    outer loop
      vertex 0.844879 1.71762 3.7
      vertex 1.09932 1.40615 0.7
      vertex 1.09932 1.40615 3.7
    endloop
  endfacet
  facet normal -0.444858 -0.895601 0
    outer loop
      vertex 0.44487 1.91631 0.7
      vertex 0.844879 1.71762 3.7
      vertex 0.44487 1.91631 3.7
    endloop
  endfacet
  facet normal -0.444858 -0.895601 -0
    outer loop
      vertex 0.844879 1.71762 3.7
      vertex 0.44487 1.91631 0.7
      vertex 0.844879 1.71762 0.7
    endloop
  endfacet
  facet normal -0.126006 -0.992029 0
    outer loop
      vertex -0.0766296 1.98255 0.7
      vertex 0.44487 1.91631 3.7
      vertex -0.0766296 1.98255 3.7
    endloop
  endfacet
  facet normal -0.126006 -0.992029 -0
    outer loop
      vertex 0.44487 1.91631 3.7
      vertex -0.0766296 1.98255 0.7
      vertex 0.44487 1.91631 0.7
    endloop
  endfacet
  facet normal 0.0436804 -0.999046 0
    outer loop
      vertex -0.309235 1.97238 0.7
      vertex -0.0766296 1.98255 3.7
      vertex -0.309235 1.97238 3.7
    endloop
  endfacet
  facet normal 0.0436804 -0.999046 0
    outer loop
      vertex -0.0766296 1.98255 3.7
      vertex -0.309235 1.97238 0.7
      vertex -0.0766296 1.98255 0.7
    endloop
  endfacet
  facet normal 0.122267 -0.992497 0
    outer loop
      vertex -0.556412 1.94193 0.7
      vertex -0.309235 1.97238 3.7
      vertex -0.556412 1.94193 3.7
    endloop
  endfacet
  facet normal 0.122267 -0.992497 0
    outer loop
      vertex -0.309235 1.97238 3.7
      vertex -0.556412 1.94193 0.7
      vertex -0.309235 1.97238 0.7
    endloop
  endfacet
  facet normal 0.189166 -0.981945 0
    outer loop
      vertex -0.820007 1.89115 0.7
      vertex -0.556412 1.94193 3.7
      vertex -0.820007 1.89115 3.7
    endloop
  endfacet
  facet normal 0.189166 -0.981945 0
    outer loop
      vertex -0.556412 1.94193 3.7
      vertex -0.820007 1.89115 0.7
      vertex -0.556412 1.94193 0.7
    endloop
  endfacet
  facet normal 0.244451 -0.969662 0
    outer loop
      vertex -1.10196 1.82007 0.7
      vertex -0.820007 1.89115 3.7
      vertex -1.10196 1.82007 3.7
    endloop
  endfacet
  facet normal 0.244451 -0.969662 0
    outer loop
      vertex -0.820007 1.89115 3.7
      vertex -1.10196 1.82007 0.7
      vertex -0.820007 1.89115 0.7
    endloop
  endfacet
  facet normal 1 -0 0
    outer loop
      vertex -1.10196 1.36371 3.7
      vertex -1.10196 1.82007 0.7
      vertex -1.10196 1.82007 3.7
    endloop
  endfacet
  facet normal 1 0 0
    outer loop
      vertex -1.10196 1.82007 0.7
      vertex -1.10196 1.36371 3.7
      vertex -1.10196 1.36371 0.7
    endloop
  endfacet
  facet normal -0.291125 0.956685 0
    outer loop
      vertex -0.825363 1.44788 0.7
      vertex -1.10196 1.36371 3.7
      vertex -0.825363 1.44788 3.7
    endloop
  endfacet
  facet normal -0.291125 0.956685 0
    outer loop
      vertex -1.10196 1.36371 3.7
      vertex -0.825363 1.44788 0.7
      vertex -1.10196 1.36371 0.7
    endloop
  endfacet
  facet normal -0.226299 0.974058 0
    outer loop
      vertex -0.57283 1.50655 0.7
      vertex -0.825363 1.44788 3.7
      vertex -0.57283 1.50655 3.7
    endloop
  endfacet
  facet normal -0.226299 0.974058 0
    outer loop
      vertex -0.825363 1.44788 3.7
      vertex -0.57283 1.50655 0.7
      vertex -0.825363 1.44788 0.7
    endloop
  endfacet
  facet normal -0.146278 0.989244 0
    outer loop
      vertex -0.33992 1.54099 0.7
      vertex -0.57283 1.50655 3.7
      vertex -0.33992 1.54099 3.7
    endloop
  endfacet
  facet normal -0.146278 0.989244 0
    outer loop
      vertex -0.57283 1.50655 3.7
      vertex -0.33992 1.54099 0.7
      vertex -0.57283 1.50655 0.7
    endloop
  endfacet
  facet normal -0.0526038 0.998615 0
    outer loop
      vertex -0.122177 1.55246 0.7
      vertex -0.33992 1.54099 3.7
      vertex -0.122177 1.55246 3.7
    endloop
  endfacet
  facet normal -0.0526038 0.998615 0
    outer loop
      vertex -0.33992 1.54099 3.7
      vertex -0.122177 1.55246 0.7
      vertex -0.33992 1.54099 0.7
    endloop
  endfacet
  facet normal 0.113957 0.993486 -0
    outer loop
      vertex 0.218002 1.51344 0.7
      vertex -0.122177 1.55246 3.7
      vertex 0.218002 1.51344 3.7
    endloop
  endfacet
  facet normal 0.113957 0.993486 0
    outer loop
      vertex -0.122177 1.55246 3.7
      vertex 0.218002 1.51344 0.7
      vertex -0.122177 1.55246 0.7
    endloop
  endfacet
  facet normal 0.422674 0.906282 -0
    outer loop
      vertex 0.468933 1.39641 0.7
      vertex 0.218002 1.51344 3.7
      vertex 0.468933 1.39641 3.7
    endloop
  endfacet
  facet normal 0.422674 0.906282 0
    outer loop
      vertex 0.218002 1.51344 3.7
      vertex 0.468933 1.39641 0.7
      vertex 0.218002 1.51344 0.7
    endloop
  endfacet
  facet normal 0.775289 0.631606 0
    outer loop
      vertex 0.623688 1.20645 3.7
      vertex 0.468933 1.39641 0.7
      vertex 0.468933 1.39641 3.7
    endloop
  endfacet
  facet normal 0.775289 0.631606 0
    outer loop
      vertex 0.468933 1.39641 0.7
      vertex 0.623688 1.20645 3.7
      vertex 0.623688 1.20645 0.7
    endloop
  endfacet
  facet normal 0.980562 0.196208 0
    outer loop
      vertex 0.675278 0.948626 3.7
      vertex 0.623688 1.20645 0.7
      vertex 0.623688 1.20645 3.7
    endloop
  endfacet
  facet normal 0.980562 0.196208 0
    outer loop
      vertex 0.623688 1.20645 0.7
      vertex 0.675278 0.948626 3.7
      vertex 0.675278 0.948626 0.7
    endloop
  endfacet
  facet normal 0.980705 -0.195496 0
    outer loop
      vertex 0.625275 0.697786 3.7
      vertex 0.675278 0.948626 0.7
      vertex 0.675278 0.948626 3.7
    endloop
  endfacet
  facet normal 0.980705 -0.195496 0
    outer loop
      vertex 0.675278 0.948626 0.7
      vertex 0.625275 0.697786 3.7
      vertex 0.625275 0.697786 0.7
    endloop
  endfacet
  facet normal 0.775501 -0.631346 0
    outer loop
      vertex 0.47525 0.513506 3.7
      vertex 0.625275 0.697786 0.7
      vertex 0.625275 0.697786 3.7
    endloop
  endfacet
  facet normal 0.775501 -0.631346 0
    outer loop
      vertex 0.625275 0.697786 0.7
      vertex 0.47525 0.513506 3.7
      vertex 0.47525 0.513506 0.7
    endloop
  endfacet
  facet normal 0.420428 -0.907326 0
    outer loop
      vertex 0.230942 0.400301 0.7
      vertex 0.47525 0.513506 3.7
      vertex 0.230942 0.400301 3.7
    endloop
  endfacet
  facet normal 0.420428 -0.907326 0
    outer loop
      vertex 0.47525 0.513506 3.7
      vertex 0.230942 0.400301 0.7
      vertex 0.47525 0.513506 0.7
    endloop
  endfacet
  facet normal 0.112636 -0.993636 0
    outer loop
      vertex -0.101944 0.362566 0.7
      vertex 0.230942 0.400301 3.7
      vertex -0.101944 0.362566 3.7
    endloop
  endfacet
  facet normal 0.112636 -0.993636 0
    outer loop
      vertex 0.230942 0.400301 3.7
      vertex -0.101944 0.362566 0.7
      vertex 0.230942 0.400301 0.7
    endloop
  endfacet
  facet normal 0 -1 0
    outer loop
      vertex -0.562714 0.362566 0.7
      vertex -0.101944 0.362566 3.7
      vertex -0.562714 0.362566 3.7
    endloop
  endfacet
  facet normal 0 -1 -0
    outer loop
      vertex -0.101944 0.362566 3.7
      vertex -0.562714 0.362566 0.7
      vertex -0.101944 0.362566 0.7
    endloop
  endfacet
  facet normal 1 -0 0
    outer loop
      vertex -0.562714 -0.05795 3.7
      vertex -0.562714 0.362566 0.7
      vertex -0.562714 0.362566 3.7
    endloop
  endfacet
  facet normal 1 0 0
    outer loop
      vertex -0.562714 0.362566 0.7
      vertex -0.562714 -0.05795 3.7
      vertex -0.562714 -0.05795 0.7
    endloop
  endfacet
  facet normal 0 1 -0
    outer loop
      vertex -0.122177 -0.05795 0.7
      vertex -0.562714 -0.05795 3.7
      vertex -0.122177 -0.05795 3.7
    endloop
  endfacet
  facet normal 0 1 0
    outer loop
      vertex -0.562714 -0.05795 3.7
      vertex -0.122177 -0.05795 0.7
      vertex -0.562714 -0.05795 0.7
    endloop
  endfacet
  facet normal 0.125762 0.99206 -0
    outer loop
      vertex 0.249634 -0.105084 0.7
      vertex -0.122177 -0.05795 3.7
      vertex 0.249634 -0.105084 3.7
    endloop
  endfacet
  facet normal 0.125762 0.99206 0
    outer loop
      vertex -0.122177 -0.05795 3.7
      vertex 0.249634 -0.105084 0.7
      vertex -0.122177 -0.05795 0.7
    endloop
  endfacet
  facet normal 0.45081 0.89262 -0
    outer loop
      vertex 0.529678 -0.246518 0.7
      vertex 0.249634 -0.105084 3.7
      vertex 0.529678 -0.246518 3.7
    endloop
  endfacet
  facet normal 0.45081 0.89262 0
    outer loop
      vertex 0.249634 -0.105084 3.7
      vertex 0.529678 -0.246518 0.7
      vertex 0.249634 -0.105084 0.7
    endloop
  endfacet
  facet normal 0.788145 0.61549 0
    outer loop
      vertex 0.705322 -0.471433 3.7
      vertex 0.529678 -0.246518 0.7
      vertex 0.529678 -0.246518 3.7
    endloop
  endfacet
  facet normal 0.788145 0.61549 0
    outer loop
      vertex 0.529678 -0.246518 0.7
      vertex 0.705322 -0.471433 3.7
      vertex 0.705322 -0.471433 0.7
    endloop
  endfacet
  facet normal 0.981202 0.192982 0
    outer loop
      vertex 0.76387 -0.769116 3.7
      vertex 0.705322 -0.471433 0.7
      vertex 0.705322 -0.471433 3.7
    endloop
  endfacet
  facet normal 0.981202 0.192982 0
    outer loop
      vertex 0.705322 -0.471433 0.7
      vertex 0.76387 -0.769116 3.7
      vertex 0.76387 -0.769116 0.7
    endloop
  endfacet
  facet normal 0.981046 -0.193776 0
    outer loop
      vertex 0.700882 -1.08801 3.7
      vertex 0.76387 -0.769116 0.7
      vertex 0.76387 -0.769116 3.7
    endloop
  endfacet
  facet normal 0.981046 -0.193776 0
    outer loop
      vertex 0.76387 -0.769116 0.7
      vertex 0.700882 -1.08801 3.7
      vertex 0.700882 -1.08801 0.7
    endloop
  endfacet
  facet normal 0.776533 -0.630077 0
    outer loop
      vertex 0.511948 -1.32086 3.7
      vertex 0.700882 -1.08801 0.7
      vertex 0.700882 -1.08801 3.7
    endloop
  endfacet
  facet normal 0.776533 -0.630077 0
    outer loop
      vertex 0.700882 -1.08801 0.7
      vertex 0.511948 -1.32086 3.7
      vertex 0.511948 -1.32086 0.7
    endloop
  endfacet
  facet normal 0.418221 -0.908345 0
    outer loop
      vertex 0.202774 -1.46321 0.7
      vertex 0.511948 -1.32086 3.7
      vertex 0.202774 -1.46321 3.7
    endloop
  endfacet
  facet normal 0.418221 -0.908345 0
    outer loop
      vertex 0.511948 -1.32086 3.7
      vertex 0.202774 -1.46321 0.7
      vertex 0.511948 -1.32086 0.7
    endloop
  endfacet
  facet normal 0.111292 -0.993788 0
    outer loop
      vertex -0.220932 -1.51066 0.7
      vertex 0.202774 -1.46321 3.7
      vertex -0.220932 -1.51066 3.7
    endloop
  endfacet
  facet normal 0.111292 -0.993788 0
    outer loop
      vertex 0.202774 -1.46321 3.7
      vertex -0.220932 -1.51066 0.7
      vertex 0.202774 -1.46321 0.7
    endloop
  endfacet
  facet normal -0.0585124 -0.998287 0
    outer loop
      vertex -0.49118 -1.49482 0.7
      vertex -0.220932 -1.51066 3.7
      vertex -0.49118 -1.49482 3.7
    endloop
  endfacet
  facet normal -0.0585124 -0.998287 -0
    outer loop
      vertex -0.220932 -1.51066 3.7
      vertex -0.49118 -1.49482 0.7
      vertex -0.220932 -1.51066 0.7
    endloop
  endfacet
  facet normal -0.180506 -0.983574 0
    outer loop
      vertex -0.750061 -1.44731 0.7
      vertex -0.49118 -1.49482 3.7
      vertex -0.750061 -1.44731 3.7
    endloop
  endfacet
  facet normal -0.180506 -0.983574 -0
    outer loop
      vertex -0.49118 -1.49482 3.7
      vertex -0.750061 -1.44731 0.7
      vertex -0.49118 -1.49482 0.7
    endloop
  endfacet
  facet normal -0.30755 -0.951532 0
    outer loop
      vertex -0.993088 -1.36876 0.7
      vertex -0.750061 -1.44731 3.7
      vertex -0.993088 -1.36876 3.7
    endloop
  endfacet
  facet normal -0.30755 -0.951532 -0
    outer loop
      vertex -0.750061 -1.44731 3.7
      vertex -0.993088 -1.36876 0.7
      vertex -0.750061 -1.44731 0.7
    endloop
  endfacet
  facet normal -0.43942 -0.898282 0
    outer loop
      vertex -1.21587 -1.25978 0.7
      vertex -0.993088 -1.36876 3.7
      vertex -1.21587 -1.25978 3.7
    endloop
  endfacet
  facet normal -0.43942 -0.898282 -0
    outer loop
      vertex -0.993088 -1.36876 3.7
      vertex -1.21587 -1.25978 0.7
      vertex -0.993088 -1.36876 0.7
    endloop
  endfacet
  facet normal 1 -0 0
    outer loop
      vertex -1.21587 -1.75438 3.7
      vertex -1.21587 -1.25978 0.7
      vertex -1.21587 -1.25978 3.7
    endloop
  endfacet
  facet normal 1 0 0
    outer loop
      vertex -1.21587 -1.25978 0.7
      vertex -1.21587 -1.75438 3.7
      vertex -1.21587 -1.75438 0.7
    endloop
  endfacet
  facet normal 0.294797 0.95556 -0
    outer loop
      vertex -0.95163 -1.8359 0.7
      vertex -1.21587 -1.75438 3.7
      vertex -0.95163 -1.8359 3.7
    endloop
  endfacet
  facet normal 0.294797 0.95556 0
    outer loop
      vertex -1.21587 -1.75438 3.7
      vertex -0.95163 -1.8359 0.7
      vertex -1.21587 -1.75438 0.7
    endloop
  endfacet
  facet normal 0.221786 0.975095 -0
    outer loop
      vertex -0.695618 -1.89413 0.7
      vertex -0.95163 -1.8359 3.7
      vertex -0.695618 -1.89413 3.7
    endloop
  endfacet
  facet normal 0.221786 0.975095 0
    outer loop
      vertex -0.95163 -1.8359 3.7
      vertex -0.695618 -1.89413 0.7
      vertex -0.95163 -1.8359 0.7
    endloop
  endfacet
  facet normal 0.139273 0.990254 -0
    outer loop
      vertex -0.447189 -1.92907 0.7
      vertex -0.695618 -1.89413 3.7
      vertex -0.447189 -1.92907 3.7
    endloop
  endfacet
  facet normal 0.139273 0.990254 0
    outer loop
      vertex -0.695618 -1.89413 3.7
      vertex -0.447189 -1.92907 0.7
      vertex -0.695618 -1.89413 0.7
    endloop
  endfacet
  facet normal 0.0482344 0.998836 -0
    outer loop
      vertex -0.205734 -1.94073 0.7
      vertex -0.447189 -1.92907 3.7
      vertex -0.205734 -1.94073 3.7
    endloop
  endfacet
  facet normal 0.0482344 0.998836 0
    outer loop
      vertex -0.447189 -1.92907 3.7
      vertex -0.205734 -1.94073 0.7
      vertex -0.447189 -1.92907 0.7
    endloop
  endfacet
  facet normal -0.121033 0.992648 0
    outer loop
      vertex 0.422089 -1.86418 0.7
      vertex -0.205734 -1.94073 3.7
      vertex 0.422089 -1.86418 3.7
    endloop
  endfacet
  facet normal -0.121033 0.992648 0
    outer loop
      vertex -0.205734 -1.94073 3.7
      vertex 0.422089 -1.86418 0.7
      vertex -0.205734 -1.94073 0.7
    endloop
  endfacet
  facet normal -1 0 0
    outer loop
      vertex 1.86667 -3.36 0.7
      vertex 1.86667 -2.36 3.7
      vertex 1.86667 -2.36 0.7
    endloop
  endfacet
  facet normal -1 -0 0
    outer loop
      vertex 1.86667 -2.36 3.7
      vertex 1.86667 -3.36 0.7
      vertex 1.86667 -3.36 3.7
    endloop
  endfacet
  facet normal -0 0 1
    outer loop
      vertex -1.86667 -2.36 0.7
      vertex 1.86667 -3.36 0.7
      vertex 1.86667 -2.36 0.7
    endloop
  endfacet
  facet normal 0 0 1
    outer loop
      vertex 1.86667 -3.36 0.7
      vertex -1.86667 -2.36 0.7
      vertex -1.86667 -3.36 0.7
    endloop
  endfacet
  facet normal 1 -0 0
    outer loop
      vertex -1.86667 -3.36 3.7
      vertex -1.86667 -2.36 0.7
      vertex -1.86667 -2.36 3.7
    endloop
  endfacet
  facet normal 1 0 0
    outer loop
      vertex -1.86667 -2.36 0.7
      vertex -1.86667 -3.36 3.7
      vertex -1.86667 -3.36 0.7
    endloop
  endfacet
  facet normal 0 -1 0
    outer loop
      vertex -1.86667 -2.36 0.7
      vertex 1.86667 -2.36 3.7
      vertex -1.86667 -2.36 3.7
    endloop
  endfacet
  facet normal 0 -1 -0
    outer loop
      vertex 1.86667 -2.36 3.7
      vertex -1.86667 -2.36 0.7
      vertex 1.86667 -2.36 0.7
    endloop
  endfacet
  facet normal 0 1 -0
    outer loop
      vertex 1.86667 -3.36 0.7
      vertex -1.86667 -3.36 3.7
      vertex 1.86667 -3.36 3.7
    endloop
  endfacet
  facet normal 0 1 0
    outer loop
      vertex -1.86667 -3.36 3.7
      vertex 1.86667 -3.36 0.7
      vertex -1.86667 -3.36 0.7
    endloop
  endfacet
  facet normal 0 1 -0
    outer loop
      vertex 2.66667 4.6188 0
      vertex -2.66667 4.6188 3.7
      vertex 2.66667 4.6188 3.7
    endloop
  endfacet
  facet normal 0 1 0
    outer loop
      vertex -2.66667 4.6188 3.7
      vertex 2.66667 4.6188 0
      vertex -2.66667 4.6188 0
    endloop
  endfacet
  facet normal 0.866026 0.499999 0
    outer loop
      vertex 5.33333 0 3.7
      vertex 2.66667 4.6188 0
      vertex 2.66667 4.6188 3.7
    endloop
  endfacet
  facet normal 0.866026 0.499999 0
    outer loop
      vertex 2.66667 4.6188 0
      vertex 5.33333 0 3.7
      vertex 5.33333 0 0
    endloop
  endfacet
  facet normal -0.866026 0.499999 0
    outer loop
      vertex -5.33333 0 0
      vertex -2.66667 4.6188 3.7
      vertex -2.66667 4.6188 0
    endloop
  endfacet
  facet normal -0.866026 0.499999 0
    outer loop
      vertex -2.66667 4.6188 3.7
      vertex -5.33333 0 0
      vertex -5.33333 0 3.7
    endloop
  endfacet
  facet normal 0.866026 -0.499999 0
    outer loop
      vertex 2.66667 -4.6188 3.7
      vertex 5.33333 0 0
      vertex 5.33333 0 3.7
    endloop
  endfacet
  facet normal 0.866026 -0.499999 0
    outer loop
      vertex 5.33333 0 0
      vertex 2.66667 -4.6188 3.7
      vertex 2.66667 -4.6188 0
    endloop
  endfacet
  facet normal -0.866026 -0.499999 0
    outer loop
      vertex -2.66667 -4.6188 0
      vertex -5.33333 0 3.7
      vertex -5.33333 0 0
    endloop
  endfacet
  facet normal -0.866026 -0.499999 0
    outer loop
      vertex -5.33333 0 3.7
      vertex -2.66667 -4.6188 0
      vertex -2.66667 -4.6188 3.7
    endloop
  endfacet
  facet normal 0 -1 0
    outer loop
      vertex -2.66667 -4.6188 0
      vertex 2.66667 -4.6188 3.7
      vertex -2.66667 -4.6188 3.7
    endloop
  endfacet
  facet normal 0 -1 -0
    outer loop
      vertex 2.66667 -4.6188 3.7
      vertex -2.66667 -4.6188 0
      vertex 2.66667 -4.6188 0
    endloop
  endfacet
  facet normal 0 0 -1
    outer loop
      vertex 2.66667 -4.6188 0
      vertex 2.66667 4.6188 0
      vertex 5.33333 0 0
    endloop
  endfacet
  facet normal 0 0 -1
    outer loop
      vertex -2.66667 -4.6188 0
      vertex 2.66667 4.6188 0
      vertex 2.66667 -4.6188 0
    endloop
  endfacet
  facet normal 0 0 -1
    outer loop
      vertex -2.66667 -4.6188 0
      vertex -2.66667 4.6188 0
      vertex 2.66667 4.6188 0
    endloop
  endfacet
  facet normal 0 -0 -1
    outer loop
      vertex -2.66667 4.6188 0
      vertex -2.66667 -4.6188 0
      vertex -5.33333 0 0
    endloop
  endfacet
  facet normal -0 0 1
    outer loop
      vertex 1.09932 1.40615 3.7
      vertex 5.33333 0 3.7
      vertex 2.66667 4.6188 3.7
    endloop
  endfacet
  facet normal 0 0 1
    outer loop
      vertex 5.33333 0 3.7
      vertex 1.86667 -2.36 3.7
      vertex 2.66667 -4.6188 3.7
    endloop
  endfacet
  facet normal -0 0 1
    outer loop
      vertex 1.13919 0.71158 3.7
      vertex 5.33333 0 3.7
      vertex 1.18413 1.0015 3.7
    endloop
  endfacet
  facet normal 0 0 1
    outer loop
      vertex 5.33333 0 3.7
      vertex 1.27272 -0.768918 3.7
      vertex 1.86667 -2.36 3.7
    endloop
  endfacet
  facet normal 0 -0 1
    outer loop
      vertex 1.27272 -0.768918 3.7
      vertex 5.33333 0 3.7
      vertex 1.22115 -0.433591 3.7
    endloop
  endfacet
  facet normal 0 0 1
    outer loop
      vertex 5.33333 0 3.7
      vertex 1.09932 1.40615 3.7
      vertex 1.18413 1.0015 3.7
    endloop
  endfacet
  facet normal 0 0 1
    outer loop
      vertex 2.66667 4.6188 3.7
      vertex 0.844879 1.71762 3.7
      vertex 1.09932 1.40615 3.7
    endloop
  endfacet
  facet normal 0 0 1
    outer loop
      vertex 2.66667 4.6188 3.7
      vertex 0.44487 1.91631 3.7
      vertex 0.844879 1.71762 3.7
    endloop
  endfacet
  facet normal 0 0 1
    outer loop
      vertex 2.66667 4.6188 3.7
      vertex -0.0766296 1.98255 3.7
      vertex 0.44487 1.91631 3.7
    endloop
  endfacet
  facet normal -0 0 1
    outer loop
      vertex -2.66667 4.6188 3.7
      vertex -0.0766296 1.98255 3.7
      vertex 2.66667 4.6188 3.7
    endloop
  endfacet
  facet normal 0 0 1
    outer loop
      vertex -0.0766296 1.98255 3.7
      vertex -2.66667 4.6188 3.7
      vertex -0.309235 1.97238 3.7
    endloop
  endfacet
  facet normal 0 0 1
    outer loop
      vertex -0.309235 1.97238 3.7
      vertex -2.66667 4.6188 3.7
      vertex -0.556412 1.94193 3.7
    endloop
  endfacet
  facet normal 0 0 1
    outer loop
      vertex -0.556412 1.94193 3.7
      vertex -2.66667 4.6188 3.7
      vertex -0.820007 1.89115 3.7
    endloop
  endfacet
  facet normal 0 0 1
    outer loop
      vertex -5.33333 0 3.7
      vertex -1.10196 1.36371 3.7
      vertex -1.10196 1.82007 3.7
    endloop
  endfacet
  facet normal 0 0 1
    outer loop
      vertex -1.21587 -1.25978 3.7
      vertex -1.86667 -2.36 3.7
      vertex -1.21587 -1.75438 3.7
    endloop
  endfacet
  facet normal 0 0 1
    outer loop
      vertex -1.10196 1.36371 3.7
      vertex -5.33333 0 3.7
      vertex -1.21587 -1.25978 3.7
    endloop
  endfacet
  facet normal 0 0 1
    outer loop
      vertex -1.21587 -1.25978 3.7
      vertex -5.33333 0 3.7
      vertex -1.86667 -2.36 3.7
    endloop
  endfacet
  facet normal 0 0 1
    outer loop
      vertex -5.33333 0 3.7
      vertex -1.10196 1.82007 3.7
      vertex -2.66667 4.6188 3.7
    endloop
  endfacet
  facet normal 0 0 1
    outer loop
      vertex -0.820007 1.89115 3.7
      vertex -2.66667 4.6188 3.7
      vertex -1.10196 1.82007 3.7
    endloop
  endfacet
  facet normal -0 0 1
    outer loop
      vertex 1.86667 -3.36 3.7
      vertex 2.66667 -4.6188 3.7
      vertex 1.86667 -2.36 3.7
    endloop
  endfacet
  facet normal -0 0 1
    outer loop
      vertex -1.86667 -3.36 3.7
      vertex 2.66667 -4.6188 3.7
      vertex 1.86667 -3.36 3.7
    endloop
  endfacet
  facet normal 0 0 1
    outer loop
      vertex -1.86667 -3.36 3.7
      vertex -2.66667 -4.6188 3.7
      vertex 2.66667 -4.6188 3.7
    endloop
  endfacet
  facet normal 0 -0 1
    outer loop
      vertex -2.66667 -4.6188 3.7
      vertex -1.86667 -2.36 3.7
      vertex -5.33333 0 3.7
    endloop
  endfacet
  facet normal 0 0 1
    outer loop
      vertex -1.86667 -2.36 3.7
      vertex -2.66667 -4.6188 3.7
      vertex -1.86667 -3.36 3.7
    endloop
  endfacet
  facet normal -0 0 1
    outer loop
      vertex 1.17651 -1.26498 3.7
      vertex 1.86667 -2.36 3.7
      vertex 1.27272 -0.768918 3.7
    endloop
  endfacet
  facet normal -0 0 1
    outer loop
      vertex 0.887894 -1.6345 3.7
      vertex 1.86667 -2.36 3.7
      vertex 1.17651 -1.26498 3.7
    endloop
  endfacet
  facet normal -0 0 1
    outer loop
      vertex 0.422089 -1.86418 3.7
      vertex 1.86667 -2.36 3.7
      vertex 0.887894 -1.6345 3.7
    endloop
  endfacet
  facet normal -0 0 1
    outer loop
      vertex -0.205734 -1.94073 3.7
      vertex 1.86667 -2.36 3.7
      vertex 0.422089 -1.86418 3.7
    endloop
  endfacet
  facet normal 0 0 1
    outer loop
      vertex -1.86667 -2.36 3.7
      vertex -0.205734 -1.94073 3.7
      vertex -0.447189 -1.92907 3.7
    endloop
  endfacet
  facet normal 0 0 1
    outer loop
      vertex -1.86667 -2.36 3.7
      vertex -0.447189 -1.92907 3.7
      vertex -0.695618 -1.89413 3.7
    endloop
  endfacet
  facet normal 0 0 1
    outer loop
      vertex -0.205734 -1.94073 3.7
      vertex -1.86667 -2.36 3.7
      vertex 1.86667 -2.36 3.7
    endloop
  endfacet
  facet normal 0 0 1
    outer loop
      vertex -0.95163 -1.8359 3.7
      vertex -1.86667 -2.36 3.7
      vertex -0.695618 -1.89413 3.7
    endloop
  endfacet
  facet normal 0 0 1
    outer loop
      vertex -1.86667 -2.36 3.7
      vertex -0.95163 -1.8359 3.7
      vertex -1.21587 -1.75438 3.7
    endloop
  endfacet
  facet normal 0 0 1
    outer loop
      vertex 5.33333 0 3.7
      vertex 1.13919 0.71158 3.7
      vertex 1.22115 -0.433591 3.7
    endloop
  endfacet
  facet normal 0 0 1
    outer loop
      vertex 1.13919 0.71158 3.7
      vertex 1.06638 -0.156476 3.7
      vertex 1.22115 -0.433591 3.7
    endloop
  endfacet
  facet normal -0 0 1
    outer loop
      vertex 1.00438 0.47043 3.7
      vertex 1.06638 -0.156476 3.7
      vertex 1.13919 0.71158 3.7
    endloop
  endfacet
  facet normal 0 0 1
    outer loop
      vertex 1.00438 0.47043 3.7
      vertex 0.819885 0.049181 3.7
      vertex 1.06638 -0.156476 3.7
    endloop
  endfacet
  facet normal -0 0 1
    outer loop
      vertex 0.786667 0.286974 3.7
      vertex 0.819885 0.049181 3.7
      vertex 1.00438 0.47043 3.7
    endloop
  endfacet
  facet normal 0 0 1
    outer loop
      vertex 0.819885 0.049181 3.7
      vertex 0.786667 0.286974 3.7
      vertex 0.492981 0.170046 3.7
    endloop
  endfacet
  facet normal 0 0 1
    outer loop
      vertex 0.468933 1.39641 3.7
      vertex 0.675278 0.948626 3.7
      vertex 0.623688 1.20645 3.7
    endloop
  endfacet
  facet normal 0 0 1
    outer loop
      vertex 0.675278 0.948626 3.7
      vertex 0.47525 0.513506 3.7
      vertex 0.625275 0.697786 3.7
    endloop
  endfacet
  facet normal 0 0 1
    outer loop
      vertex 0.230942 0.400301 3.7
      vertex 0.675278 0.948626 3.7
      vertex 0.468933 1.39641 3.7
    endloop
  endfacet
  facet normal 0 0 1
    outer loop
      vertex 0.675278 0.948626 3.7
      vertex 0.230942 0.400301 3.7
      vertex 0.47525 0.513506 3.7
    endloop
  endfacet
  facet normal 0 0 1
    outer loop
      vertex 0.218002 1.51344 3.7
      vertex 0.230942 0.400301 3.7
      vertex 0.468933 1.39641 3.7
    endloop
  endfacet
  facet normal 0 0 1
    outer loop
      vertex 0.218002 1.51344 3.7
      vertex -0.101944 0.362566 3.7
      vertex 0.230942 0.400301 3.7
    endloop
  endfacet
  facet normal 0 0 1
    outer loop
      vertex -0.122177 1.55246 3.7
      vertex -0.101944 0.362566 3.7
      vertex 0.218002 1.51344 3.7
    endloop
  endfacet
  facet normal -0 0 1
    outer loop
      vertex -0.33992 1.54099 3.7
      vertex -0.101944 0.362566 3.7
      vertex -0.122177 1.55246 3.7
    endloop
  endfacet
  facet normal 0 0 1
    outer loop
      vertex -0.33992 1.54099 3.7
      vertex -0.562714 0.362566 3.7
      vertex -0.101944 0.362566 3.7
    endloop
  endfacet
  facet normal -0 0 1
    outer loop
      vertex -0.825363 1.44788 3.7
      vertex -0.562714 0.362566 3.7
      vertex -0.57283 1.50655 3.7
    endloop
  endfacet
  facet normal -0 0 1
    outer loop
      vertex -0.57283 1.50655 3.7
      vertex -0.562714 0.362566 3.7
      vertex -0.33992 1.54099 3.7
    endloop
  endfacet
  facet normal 0 0 1
    outer loop
      vertex 0.529678 -0.246518 3.7
      vertex 0.76387 -0.769116 3.7
      vertex 0.705322 -0.471433 3.7
    endloop
  endfacet
  facet normal 0 0 1
    outer loop
      vertex 0.249634 -0.105084 3.7
      vertex 0.76387 -0.769116 3.7
      vertex 0.529678 -0.246518 3.7
    endloop
  endfacet
  facet normal 0 0 1
    outer loop
      vertex 0.76387 -0.769116 3.7
      vertex 0.511948 -1.32086 3.7
      vertex 0.700882 -1.08801 3.7
    endloop
  endfacet
  facet normal 0 0 1
    outer loop
      vertex 0.202774 -1.46321 3.7
      vertex 0.76387 -0.769116 3.7
      vertex 0.249634 -0.105084 3.7
    endloop
  endfacet
  facet normal 0 0 1
    outer loop
      vertex 0.76387 -0.769116 3.7
      vertex 0.202774 -1.46321 3.7
      vertex 0.511948 -1.32086 3.7
    endloop
  endfacet
  facet normal 0 0 1
    outer loop
      vertex -0.122177 -0.05795 3.7
      vertex 0.202774 -1.46321 3.7
      vertex 0.249634 -0.105084 3.7
    endloop
  endfacet
  facet normal 0 0 1
    outer loop
      vertex -0.122177 -0.05795 3.7
      vertex -0.220932 -1.51066 3.7
      vertex 0.202774 -1.46321 3.7
    endloop
  endfacet
  facet normal 0 0 1
    outer loop
      vertex -0.122177 -0.05795 3.7
      vertex -0.49118 -1.49482 3.7
      vertex -0.220932 -1.51066 3.7
    endloop
  endfacet
  facet normal -0 0 1
    outer loop
      vertex -0.562714 -0.05795 3.7
      vertex -0.49118 -1.49482 3.7
      vertex -0.122177 -0.05795 3.7
    endloop
  endfacet
  facet normal 0 0 1
    outer loop
      vertex -0.562714 -0.05795 3.7
      vertex -0.750061 -1.44731 3.7
      vertex -0.49118 -1.49482 3.7
    endloop
  endfacet
  facet normal -0 0 1
    outer loop
      vertex -1.10196 1.36371 3.7
      vertex -0.562714 0.362566 3.7
      vertex -0.825363 1.44788 3.7
    endloop
  endfacet
  facet normal 0 0 1
    outer loop
      vertex -0.562714 0.362566 3.7
      vertex -1.10196 1.36371 3.7
      vertex -0.562714 -0.05795 3.7
    endloop
  endfacet
  facet normal 0 0 1
    outer loop
      vertex -0.562714 -0.05795 3.7
      vertex -0.993088 -1.36876 3.7
      vertex -0.750061 -1.44731 3.7
    endloop
  endfacet
  facet normal 0 0 1
    outer loop
      vertex -0.562714 -0.05795 3.7
      vertex -1.10196 1.36371 3.7
      vertex -1.21587 -1.25978 3.7
    endloop
  endfacet
  facet normal 0 0 1
    outer loop
      vertex -0.562714 -0.05795 3.7
      vertex -1.21587 -1.25978 3.7
      vertex -0.993088 -1.36876 3.7
    endloop
  endfacet
endsolid OpenSCAD_Model
