solid OpenSCAD_Model
  facet normal 0 0 1
    outer loop
      vertex 2.35645 3.62151 3.2
      vertex 1.19193 2.80744 3.2
      vertex 2.35645 3.20939 3.2
    endloop
  endfacet
  facet normal -0 0 1
    outer loop
      vertex -2.24394 3.62151 3.2
      vertex 1.19193 2.80744 3.2
      vertex 2.35645 3.62151 3.2
    endloop
  endfacet
  facet normal 0 0 1
    outer loop
      vertex 1.19193 2.80744 3.2
      vertex -2.24394 3.62151 3.2
      vertex -2.24394 2.80744 3.2
    endloop
  endfacet
  facet normal -0 0 1
    outer loop
      vertex 1.19193 2.80744 3.2
      vertex -0.240891 -3.53333 3.2
      vertex 2.35645 3.20939 3.2
    endloop
  endfacet
  facet normal 0 -0 1
    outer loop
      vertex -0.240891 -3.53333 3.2
      vertex 1.19193 2.80744 3.2
      vertex -1.252 -3.53333 3.2
    endloop
  endfacet
  facet normal -1 0 0
    outer loop
      vertex 2.35645 3.20939 3.2
      vertex 2.35645 3.62151 6.2
      vertex 2.35645 3.62151 3.2
    endloop
  endfacet
  facet normal -1 -0 0
    outer loop
      vertex 2.35645 3.62151 6.2
      vertex 2.35645 3.20939 3.2
      vertex 2.35645 3.20939 6.2
    endloop
  endfacet
  facet normal 0 -1 0
    outer loop
      vertex -2.24394 3.62151 3.2
      vertex 2.35645 3.62151 6.2
      vertex -2.24394 3.62151 6.2
    endloop
  endfacet
  facet normal 0 -1 -0
    outer loop
      vertex 2.35645 3.62151 6.2
      vertex -2.24394 3.62151 3.2
      vertex 2.35645 3.62151 3.2
    endloop
  endfacet
  facet normal 1 -0 0
    outer loop
      vertex -2.24394 2.80744 6.2
      vertex -2.24394 3.62151 3.2
      vertex -2.24394 3.62151 6.2
    endloop
  endfacet
  facet normal 1 0 0
    outer loop
      vertex -2.24394 3.62151 3.2
      vertex -2.24394 2.80744 6.2
      vertex -2.24394 2.80744 3.2
    endloop
  endfacet
  facet normal 0 1 -0
    outer loop
      vertex 1.19193 2.80744 3.2
      vertex -2.24394 2.80744 6.2
      vertex 1.19193 2.80744 6.2
    endloop
  endfacet
  facet normal 0 1 0
    outer loop
      vertex -2.24394 2.80744 6.2
      vertex 1.19193 2.80744 3.2
      vertex -2.24394 2.80744 3.2
    endloop
  endfacet
  facet normal 0.93309 -0.359642 0
    outer loop
      vertex -1.252 -3.53333 6.2
      vertex 1.19193 2.80744 3.2
      vertex 1.19193 2.80744 6.2
    endloop
  endfacet
  facet normal 0.93309 -0.359642 0
    outer loop
      vertex 1.19193 2.80744 3.2
      vertex -1.252 -3.53333 6.2
      vertex -1.252 -3.53333 3.2
    endloop
  endfacet
  facet normal 0 1 -0
    outer loop
      vertex -0.240891 -3.53333 3.2
      vertex -1.252 -3.53333 6.2
      vertex -0.240891 -3.53333 6.2
    endloop
  endfacet
  facet normal 0 1 0
    outer loop
      vertex -1.252 -3.53333 6.2
      vertex -0.240891 -3.53333 3.2
      vertex -1.252 -3.53333 3.2
    endloop
  endfacet
  facet normal -0.933161 0.35946 0
    outer loop
      vertex -0.240891 -3.53333 3.2
      vertex 2.35645 3.20939 6.2
      vertex 2.35645 3.20939 3.2
    endloop
  endfacet
  facet normal -0.933161 0.35946 0
    outer loop
      vertex 2.35645 3.20939 6.2
      vertex -0.240891 -3.53333 3.2
      vertex -0.240891 -3.53333 6.2
    endloop
  endfacet
  facet normal -1 0 0
    outer loop
      vertex 3.53333 -6.36 3.2
      vertex 3.53333 -5.36 6.2
      vertex 3.53333 -5.36 3.2
    endloop
  endfacet
  facet normal -1 -0 0
    outer loop
      vertex 3.53333 -5.36 6.2
      vertex 3.53333 -6.36 3.2
      vertex 3.53333 -6.36 6.2
    endloop
  endfacet
  facet normal -0 0 1
    outer loop
      vertex -3.53333 -5.36 3.2
      vertex 3.53333 -6.36 3.2
      vertex 3.53333 -5.36 3.2
    endloop
  endfacet
  facet normal 0 0 1
    outer loop
      vertex 3.53333 -6.36 3.2
      vertex -3.53333 -5.36 3.2
      vertex -3.53333 -6.36 3.2
    endloop
  endfacet
  facet normal 1 -0 0
    outer loop
      vertex -3.53333 -6.36 6.2
      vertex -3.53333 -5.36 3.2
      vertex -3.53333 -5.36 6.2
    endloop
  endfacet
  facet normal 1 0 0
    outer loop
      vertex -3.53333 -5.36 3.2
      vertex -3.53333 -6.36 6.2
      vertex -3.53333 -6.36 3.2
    endloop
  endfacet
  facet normal 0 -1 0
    outer loop
      vertex -3.53333 -5.36 3.2
      vertex 3.53333 -5.36 6.2
      vertex -3.53333 -5.36 6.2
    endloop
  endfacet
  facet normal 0 -1 -0
    outer loop
      vertex 3.53333 -5.36 6.2
      vertex -3.53333 -5.36 3.2
      vertex 3.53333 -5.36 3.2
    endloop
  endfacet
  facet normal 0 1 -0
    outer loop
      vertex 3.53333 -6.36 3.2
      vertex -3.53333 -6.36 6.2
      vertex 3.53333 -6.36 6.2
    endloop
  endfacet
  facet normal 0 1 0
    outer loop
      vertex -3.53333 -6.36 6.2
      vertex 3.53333 -6.36 3.2
      vertex -3.53333 -6.36 3.2
    endloop
  endfacet
  facet normal -0.866025 0.500001 0
    outer loop
      vertex -8.66667 0 0
      vertex -4.33333 7.50555 6.2
      vertex -4.33333 7.50555 0
    endloop
  endfacet
  facet normal -0.866025 0.500001 0
    outer loop
      vertex -4.33333 7.50555 6.2
      vertex -8.66667 0 0
      vertex -8.66667 0 6.2
    endloop
  endfacet
  facet normal 0 0 -1
    outer loop
      vertex 4.33333 -7.50555 0
      vertex 4.33333 7.50555 0
      vertex 8.66667 0 0
    endloop
  endfacet
  facet normal 0 0 -1
    outer loop
      vertex -4.33333 -7.50555 0
      vertex 4.33333 7.50555 0
      vertex 4.33333 -7.50555 0
    endloop
  endfacet
  facet normal 0 0 -1
    outer loop
      vertex -4.33333 -7.50555 0
      vertex -4.33333 7.50555 0
      vertex 4.33333 7.50555 0
    endloop
  endfacet
  facet normal 0 -0 -1
    outer loop
      vertex -4.33333 7.50555 0
      vertex -4.33333 -7.50555 0
      vertex -8.66667 0 0
    endloop
  endfacet
  facet normal 0.866025 -0.500001 0
    outer loop
      vertex 4.33333 -7.50555 6.2
      vertex 8.66667 0 0
      vertex 8.66667 0 6.2
    endloop
  endfacet
  facet normal 0.866025 -0.500001 0
    outer loop
      vertex 8.66667 0 0
      vertex 4.33333 -7.50555 6.2
      vertex 4.33333 -7.50555 0
    endloop
  endfacet
  facet normal 0 0 1
    outer loop
      vertex 1.19193 2.80744 6.2
      vertex -2.24394 2.80744 6.2
      vertex -1.252 -3.53333 6.2
    endloop
  endfacet
  facet normal -0 0 1
    outer loop
      vertex 2.35645 3.62151 6.2
      vertex 8.66667 0 6.2
      vertex 4.33333 7.50555 6.2
    endloop
  endfacet
  facet normal 0 0 1
    outer loop
      vertex 8.66667 0 6.2
      vertex 3.53333 -5.36 6.2
      vertex 4.33333 -7.50555 6.2
    endloop
  endfacet
  facet normal 0 0 1
    outer loop
      vertex 8.66667 0 6.2
      vertex 2.35645 3.62151 6.2
      vertex 2.35645 3.20939 6.2
    endloop
  endfacet
  facet normal 0 0 1
    outer loop
      vertex 4.33333 7.50555 6.2
      vertex -2.24394 3.62151 6.2
      vertex 2.35645 3.62151 6.2
    endloop
  endfacet
  facet normal 0 0 1
    outer loop
      vertex -8.66667 0 6.2
      vertex -2.24394 2.80744 6.2
      vertex -2.24394 3.62151 6.2
    endloop
  endfacet
  facet normal 0 0 1
    outer loop
      vertex -2.24394 2.80744 6.2
      vertex -8.66667 0 6.2
      vertex -3.53333 -5.36 6.2
    endloop
  endfacet
  facet normal 0 0 1
    outer loop
      vertex -8.66667 0 6.2
      vertex -2.24394 3.62151 6.2
      vertex -4.33333 7.50555 6.2
    endloop
  endfacet
  facet normal -0 0 1
    outer loop
      vertex -4.33333 7.50555 6.2
      vertex -2.24394 3.62151 6.2
      vertex 4.33333 7.50555 6.2
    endloop
  endfacet
  facet normal -0 0 1
    outer loop
      vertex 3.53333 -6.36 6.2
      vertex 4.33333 -7.50555 6.2
      vertex 3.53333 -5.36 6.2
    endloop
  endfacet
  facet normal -0 0 1
    outer loop
      vertex -3.53333 -6.36 6.2
      vertex 4.33333 -7.50555 6.2
      vertex 3.53333 -6.36 6.2
    endloop
  endfacet
  facet normal 0 0 1
    outer loop
      vertex -3.53333 -6.36 6.2
      vertex -4.33333 -7.50555 6.2
      vertex 4.33333 -7.50555 6.2
    endloop
  endfacet
  facet normal 0 -0 1
    outer loop
      vertex -4.33333 -7.50555 6.2
      vertex -3.53333 -5.36 6.2
      vertex -8.66667 0 6.2
    endloop
  endfacet
  facet normal 0 0 1
    outer loop
      vertex -3.53333 -5.36 6.2
      vertex -4.33333 -7.50555 6.2
      vertex -3.53333 -6.36 6.2
    endloop
  endfacet
  facet normal 0 0 1
    outer loop
      vertex 8.66667 0 6.2
      vertex 2.35645 3.20939 6.2
      vertex 3.53333 -5.36 6.2
    endloop
  endfacet
  facet normal -0 0 1
    outer loop
      vertex -0.240891 -3.53333 6.2
      vertex 3.53333 -5.36 6.2
      vertex 2.35645 3.20939 6.2
    endloop
  endfacet
  facet normal 0 0 1
    outer loop
      vertex -3.53333 -5.36 6.2
      vertex -0.240891 -3.53333 6.2
      vertex -1.252 -3.53333 6.2
    endloop
  endfacet
  facet normal 0 0 1
    outer loop
      vertex -0.240891 -3.53333 6.2
      vertex -3.53333 -5.36 6.2
      vertex 3.53333 -5.36 6.2
    endloop
  endfacet
  facet normal 0 0 1
    outer loop
      vertex -3.53333 -5.36 6.2
      vertex -1.252 -3.53333 6.2
      vertex -2.24394 2.80744 6.2
    endloop
  endfacet
  facet normal 0 1 -0
    outer loop
      vertex 4.33333 7.50555 0
      vertex -4.33333 7.50555 6.2
      vertex 4.33333 7.50555 6.2
    endloop
  endfacet
  facet normal 0 1 0
    outer loop
      vertex -4.33333 7.50555 6.2
      vertex 4.33333 7.50555 0
      vertex -4.33333 7.50555 0
    endloop
  endfacet
  facet normal -0.866025 -0.500001 0
    outer loop
      vertex -4.33333 -7.50555 0
      vertex -8.66667 0 6.2
      vertex -8.66667 0 0
    endloop
  endfacet
  facet normal -0.866025 -0.500001 0
    outer loop
      vertex -8.66667 0 6.2
      vertex -4.33333 -7.50555 0
      vertex -4.33333 -7.50555 6.2
    endloop
  endfacet
  facet normal 0 -1 0
    outer loop
      vertex -4.33333 -7.50555 0
      vertex 4.33333 -7.50555 6.2
      vertex -4.33333 -7.50555 6.2
    endloop
  endfacet
  facet normal 0 -1 -0
    outer loop
      vertex 4.33333 -7.50555 6.2
      vertex -4.33333 -7.50555 0
      vertex 4.33333 -7.50555 0
    endloop
  endfacet
  facet normal 0.866025 0.500001 0
    outer loop
      vertex 8.66667 0 6.2
      vertex 4.33333 7.50555 0
      vertex 4.33333 7.50555 6.2
    endloop
  endfacet
  facet normal 0.866025 0.500001 0
    outer loop
      vertex 4.33333 7.50555 0
      vertex 8.66667 0 6.2
      vertex 8.66667 0 0
    endloop
  endfacet
endsolid OpenSCAD_Model
