solid OpenSCAD_Model
  facet normal 0 0 1
    outer loop
      vertex 0.956284 1.91326 0.7
      vertex -0.582947 1.48317 0.7
      vertex 0.956284 1.48317 0.7
    endloop
  endfacet
  facet normal 0 0 1
    outer loop
      vertex -1.0513 1.91326 0.7
      vertex -0.582947 0.556673 0.7
      vertex -0.582947 1.48317 0.7
    endloop
  endfacet
  facet normal 0 0 1
    outer loop
      vertex -0.582947 0.556673 0.7
      vertex -0.840866 0.0992146 0.7
      vertex -0.634842 0.157122 0.7
    endloop
  endfacet
  facet normal -0 0 1
    outer loop
      vertex -1.0513 1.91326 0.7
      vertex -0.582947 1.48317 0.7
      vertex 0.956284 1.91326 0.7
    endloop
  endfacet
  facet normal 0 0 1
    outer loop
      vertex -0.582947 0.556673 0.7
      vertex -1.0513 1.91326 0.7
      vertex -1.0513 0.0161152 0.7
    endloop
  endfacet
  facet normal 0 0 1
    outer loop
      vertex -0.582947 0.556673 0.7
      vertex -1.0513 0.0161152 0.7
      vertex -0.840866 0.0992146 0.7
    endloop
  endfacet
  facet normal 0 0 1
    outer loop
      vertex 0.723358 -0.65408 0.7
      vertex 1.23476 -0.65408 0.7
      vertex 1.14235 -0.122846 0.7
    endloop
  endfacet
  facet normal 0 0 1
    outer loop
      vertex 0.659439 -0.299909 0.7
      vertex 1.14235 -0.122846 0.7
      vertex 0.865112 0.285555 0.7
    endloop
  endfacet
  facet normal 0 0 1
    outer loop
      vertex 0.659439 -1.00825 0.7
      vertex 1.23476 -0.65408 0.7
      vertex 0.723358 -0.65408 0.7
    endloop
  endfacet
  facet normal 0 0 1
    outer loop
      vertex 1.23476 -0.65408 0.7
      vertex 0.659439 -1.00825 0.7
      vertex 1.13982 -1.19642 0.7
    endloop
  endfacet
  facet normal 0 0 1
    outer loop
      vertex 1.14235 -0.122846 0.7
      vertex 0.659439 -0.299909 0.7
      vertex 0.723358 -0.65408 0.7
    endloop
  endfacet
  facet normal 0 0 1
    outer loop
      vertex 0.865112 0.285555 0.7
      vertex 0.467667 -0.0281191 0.7
      vertex 0.659439 -0.299909 0.7
    endloop
  endfacet
  facet normal 0 0 1
    outer loop
      vertex 0.429688 0.545809 0.7
      vertex 0.467667 -0.0281191 0.7
      vertex 0.865112 0.285555 0.7
    endloop
  endfacet
  facet normal 0 0 1
    outer loop
      vertex 0.429688 0.545809 0.7
      vertex 0.166412 0.144838 0.7
      vertex 0.467667 -0.0281191 0.7
    endloop
  endfacet
  facet normal 0 0 1
    outer loop
      vertex -0.137375 0.63257 0.7
      vertex 0.166412 0.144838 0.7
      vertex 0.429688 0.545809 0.7
    endloop
  endfacet
  facet normal 0 0 1
    outer loop
      vertex -0.137375 0.63257 0.7
      vertex -0.225967 0.202486 0.7
      vertex 0.166412 0.144838 0.7
    endloop
  endfacet
  facet normal -0 0 1
    outer loop
      vertex -0.248779 0.627825 0.7
      vertex -0.225967 0.202486 0.7
      vertex -0.137375 0.63257 0.7
    endloop
  endfacet
  facet normal -0 0 1
    outer loop
      vertex -0.360184 0.613573 0.7
      vertex -0.225967 0.202486 0.7
      vertex -0.248779 0.627825 0.7
    endloop
  endfacet
  facet normal 0 0 1
    outer loop
      vertex -0.360184 0.613573 0.7
      vertex -0.430725 0.191149 0.7
      vertex -0.225967 0.202486 0.7
    endloop
  endfacet
  facet normal -0 0 1
    outer loop
      vertex -0.471558 0.589861 0.7
      vertex -0.430725 0.191149 0.7
      vertex -0.360184 0.613573 0.7
    endloop
  endfacet
  facet normal -0 0 1
    outer loop
      vertex -0.582947 0.556673 0.7
      vertex -0.430725 0.191149 0.7
      vertex -0.471558 0.589861 0.7
    endloop
  endfacet
  facet normal 0 0 1
    outer loop
      vertex -0.430725 0.191149 0.7
      vertex -0.582947 0.556673 0.7
      vertex -0.634842 0.157122 0.7
    endloop
  endfacet
  facet normal 0 0 1
    outer loop
      vertex 1.13982 -1.19642 0.7
      vertex 0.659439 -1.00825 0.7
      vertex 0.854996 -1.60261 0.7
    endloop
  endfacet
  facet normal -0 0 1
    outer loop
      vertex 0.467667 -1.28006 0.7
      vertex 0.854996 -1.60261 0.7
      vertex 0.659439 -1.00825 0.7
    endloop
  endfacet
  facet normal 0 0 1
    outer loop
      vertex 0.467667 -1.28006 0.7
      vertex 0.3974 -1.85621 0.7
      vertex 0.854996 -1.60261 0.7
    endloop
  endfacet
  facet normal -0 0 1
    outer loop
      vertex 0.166397 -1.45302 0.7
      vertex 0.3974 -1.85621 0.7
      vertex 0.467667 -1.28006 0.7
    endloop
  endfacet
  facet normal 0 0 1
    outer loop
      vertex 0.166397 -1.45302 0.7
      vertex -0.215897 -1.94073 0.7
      vertex 0.3974 -1.85621 0.7
    endloop
  endfacet
  facet normal -0 0 1
    outer loop
      vertex -0.226013 -1.51066 0.7
      vertex -0.215897 -1.94073 0.7
      vertex 0.166397 -1.45302 0.7
    endloop
  endfacet
  facet normal 0 0 1
    outer loop
      vertex -0.226013 -1.51066 0.7
      vertex -0.45607 -1.93057 0.7
      vertex -0.215897 -1.94073 0.7
    endloop
  endfacet
  facet normal 0 0 1
    outer loop
      vertex -0.489929 -1.49543 0.7
      vertex -0.45607 -1.93057 0.7
      vertex -0.226013 -1.51066 0.7
    endloop
  endfacet
  facet normal 0 0 1
    outer loop
      vertex -0.489929 -1.49543 0.7
      vertex -0.700699 -1.90011 0.7
      vertex -0.45607 -1.93057 0.7
    endloop
  endfacet
  facet normal 0 0 1
    outer loop
      vertex -0.739944 -1.44977 0.7
      vertex -0.700699 -1.90011 0.7
      vertex -0.489929 -1.49543 0.7
    endloop
  endfacet
  facet normal 0 0 1
    outer loop
      vertex -0.739944 -1.44977 0.7
      vertex -0.95163 -1.84935 0.7
      vertex -0.700699 -1.90011 0.7
    endloop
  endfacet
  facet normal 0 0 1
    outer loop
      vertex -0.979172 -1.37303 0.7
      vertex -0.95163 -1.84935 0.7
      vertex -0.739944 -1.44977 0.7
    endloop
  endfacet
  facet normal 0 0 1
    outer loop
      vertex -1.21083 -1.77827 0.7
      vertex -0.979172 -1.37303 0.7
      vertex -1.21083 -1.26455 0.7
    endloop
  endfacet
  facet normal 0 0 1
    outer loop
      vertex -0.979172 -1.37303 0.7
      vertex -1.21083 -1.77827 0.7
      vertex -0.95163 -1.84935 0.7
    endloop
  endfacet
  facet normal -0.484737 0.87466 0
    outer loop
      vertex 0.854996 -1.60261 0.7
      vertex 0.3974 -1.85621 3.7
      vertex 0.854996 -1.60261 3.7
    endloop
  endfacet
  facet normal -0.484737 0.87466 0
    outer loop
      vertex 0.3974 -1.85621 3.7
      vertex 0.854996 -1.60261 0.7
      vertex 0.3974 -1.85621 0.7
    endloop
  endfacet
  facet normal -0.818767 0.574126 0
    outer loop
      vertex 0.854996 -1.60261 0.7
      vertex 1.13982 -1.19642 3.7
      vertex 1.13982 -1.19642 0.7
    endloop
  endfacet
  facet normal -0.818767 0.574126 0
    outer loop
      vertex 1.13982 -1.19642 3.7
      vertex 0.854996 -1.60261 0.7
      vertex 0.854996 -1.60261 3.7
    endloop
  endfacet
  facet normal -0.985021 0.172434 0
    outer loop
      vertex 1.13982 -1.19642 0.7
      vertex 1.23476 -0.65408 3.7
      vertex 1.23476 -0.65408 0.7
    endloop
  endfacet
  facet normal -0.985021 0.172434 0
    outer loop
      vertex 1.23476 -0.65408 3.7
      vertex 1.13982 -1.19642 0.7
      vertex 1.13982 -1.19642 3.7
    endloop
  endfacet
  facet normal -0.985205 -0.17138 0
    outer loop
      vertex 1.23476 -0.65408 0.7
      vertex 1.14235 -0.122846 3.7
      vertex 1.14235 -0.122846 0.7
    endloop
  endfacet
  facet normal -0.985205 -0.17138 0
    outer loop
      vertex 1.14235 -0.122846 3.7
      vertex 1.23476 -0.65408 0.7
      vertex 1.23476 -0.65408 3.7
    endloop
  endfacet
  facet normal -0.827373 -0.561652 0
    outer loop
      vertex 1.14235 -0.122846 0.7
      vertex 0.865112 0.285555 3.7
      vertex 0.865112 0.285555 0.7
    endloop
  endfacet
  facet normal -0.827373 -0.561652 0
    outer loop
      vertex 0.865112 0.285555 3.7
      vertex 1.14235 -0.122846 0.7
      vertex 1.14235 -0.122846 3.7
    endloop
  endfacet
  facet normal -0.513045 -0.858362 0
    outer loop
      vertex 0.429688 0.545809 0.7
      vertex 0.865112 0.285555 3.7
      vertex 0.429688 0.545809 3.7
    endloop
  endfacet
  facet normal -0.513045 -0.858362 -0
    outer loop
      vertex 0.865112 0.285555 3.7
      vertex 0.429688 0.545809 0.7
      vertex 0.865112 0.285555 0.7
    endloop
  endfacet
  facet normal -0.151241 -0.988497 0
    outer loop
      vertex -0.137375 0.63257 0.7
      vertex 0.429688 0.545809 3.7
      vertex -0.137375 0.63257 3.7
    endloop
  endfacet
  facet normal -0.151241 -0.988497 -0
    outer loop
      vertex 0.429688 0.545809 3.7
      vertex -0.137375 0.63257 0.7
      vertex 0.429688 0.545809 0.7
    endloop
  endfacet
  facet normal 0.0425541 -0.999094 0
    outer loop
      vertex -0.248779 0.627825 0.7
      vertex -0.137375 0.63257 3.7
      vertex -0.248779 0.627825 3.7
    endloop
  endfacet
  facet normal 0.0425541 -0.999094 0
    outer loop
      vertex -0.137375 0.63257 3.7
      vertex -0.248779 0.627825 0.7
      vertex -0.137375 0.63257 0.7
    endloop
  endfacet
  facet normal 0.126895 -0.991916 0
    outer loop
      vertex -0.360184 0.613573 0.7
      vertex -0.248779 0.627825 3.7
      vertex -0.360184 0.613573 3.7
    endloop
  endfacet
  facet normal 0.126895 -0.991916 0
    outer loop
      vertex -0.248779 0.627825 3.7
      vertex -0.360184 0.613573 0.7
      vertex -0.248779 0.627825 0.7
    endloop
  endfacet
  facet normal 0.208237 -0.978078 0
    outer loop
      vertex -0.471558 0.589861 0.7
      vertex -0.360184 0.613573 3.7
      vertex -0.471558 0.589861 3.7
    endloop
  endfacet
  facet normal 0.208237 -0.978078 0
    outer loop
      vertex -0.360184 0.613573 3.7
      vertex -0.471558 0.589861 0.7
      vertex -0.360184 0.613573 0.7
    endloop
  endfacet
  facet normal 0.285542 -0.958366 0
    outer loop
      vertex -0.582947 0.556673 0.7
      vertex -0.471558 0.589861 3.7
      vertex -0.582947 0.556673 3.7
    endloop
  endfacet
  facet normal 0.285542 -0.958366 0
    outer loop
      vertex -0.471558 0.589861 3.7
      vertex -0.582947 0.556673 0.7
      vertex -0.471558 0.589861 0.7
    endloop
  endfacet
  facet normal -1 0 0
    outer loop
      vertex -0.582947 0.556673 0.7
      vertex -0.582947 1.48317 3.7
      vertex -0.582947 1.48317 0.7
    endloop
  endfacet
  facet normal -1 -0 0
    outer loop
      vertex -0.582947 1.48317 3.7
      vertex -0.582947 0.556673 0.7
      vertex -0.582947 0.556673 3.7
    endloop
  endfacet
  facet normal 0 1 -0
    outer loop
      vertex 0.956284 1.48317 0.7
      vertex -0.582947 1.48317 3.7
      vertex 0.956284 1.48317 3.7
    endloop
  endfacet
  facet normal 0 1 0
    outer loop
      vertex -0.582947 1.48317 3.7
      vertex 0.956284 1.48317 0.7
      vertex -0.582947 1.48317 0.7
    endloop
  endfacet
  facet normal -1 0 0
    outer loop
      vertex 0.956284 1.48317 0.7
      vertex 0.956284 1.91326 3.7
      vertex 0.956284 1.91326 0.7
    endloop
  endfacet
  facet normal -1 -0 0
    outer loop
      vertex 0.956284 1.91326 3.7
      vertex 0.956284 1.48317 0.7
      vertex 0.956284 1.48317 3.7
    endloop
  endfacet
  facet normal 0 -1 0
    outer loop
      vertex -1.0513 1.91326 0.7
      vertex 0.956284 1.91326 3.7
      vertex -1.0513 1.91326 3.7
    endloop
  endfacet
  facet normal 0 -1 -0
    outer loop
      vertex 0.956284 1.91326 3.7
      vertex -1.0513 1.91326 0.7
      vertex 0.956284 1.91326 0.7
    endloop
  endfacet
  facet normal 1 -0 0
    outer loop
      vertex -1.0513 0.0161152 3.7
      vertex -1.0513 1.91326 0.7
      vertex -1.0513 1.91326 3.7
    endloop
  endfacet
  facet normal 1 0 0
    outer loop
      vertex -1.0513 1.91326 0.7
      vertex -1.0513 0.0161152 3.7
      vertex -1.0513 0.0161152 0.7
    endloop
  endfacet
  facet normal -0.367294 0.930105 0
    outer loop
      vertex -0.840866 0.0992146 0.7
      vertex -1.0513 0.0161152 3.7
      vertex -0.840866 0.0992146 3.7
    endloop
  endfacet
  facet normal -0.367294 0.930105 0
    outer loop
      vertex -1.0513 0.0161152 3.7
      vertex -0.840866 0.0992146 0.7
      vertex -1.0513 0.0161152 0.7
    endloop
  endfacet
  facet normal -0.270586 0.962696 0
    outer loop
      vertex -0.634842 0.157122 0.7
      vertex -0.840866 0.0992146 3.7
      vertex -0.634842 0.157122 3.7
    endloop
  endfacet
  facet normal -0.270586 0.962696 0
    outer loop
      vertex -0.840866 0.0992146 3.7
      vertex -0.634842 0.157122 0.7
      vertex -0.840866 0.0992146 0.7
    endloop
  endfacet
  facet normal -0.164434 0.986388 0
    outer loop
      vertex -0.430725 0.191149 0.7
      vertex -0.634842 0.157122 3.7
      vertex -0.430725 0.191149 3.7
    endloop
  endfacet
  facet normal -0.164434 0.986388 0
    outer loop
      vertex -0.634842 0.157122 3.7
      vertex -0.430725 0.191149 0.7
      vertex -0.634842 0.157122 0.7
    endloop
  endfacet
  facet normal -0.0552831 0.998471 0
    outer loop
      vertex -0.225967 0.202486 0.7
      vertex -0.430725 0.191149 3.7
      vertex -0.225967 0.202486 3.7
    endloop
  endfacet
  facet normal -0.0552831 0.998471 0
    outer loop
      vertex -0.430725 0.191149 3.7
      vertex -0.225967 0.202486 0.7
      vertex -0.430725 0.191149 0.7
    endloop
  endfacet
  facet normal 0.145359 0.989379 -0
    outer loop
      vertex 0.166412 0.144838 0.7
      vertex -0.225967 0.202486 3.7
      vertex 0.166412 0.144838 3.7
    endloop
  endfacet
  facet normal 0.145359 0.989379 0
    outer loop
      vertex -0.225967 0.202486 3.7
      vertex 0.166412 0.144838 0.7
      vertex -0.225967 0.202486 0.7
    endloop
  endfacet
  facet normal 0.497899 0.867235 -0
    outer loop
      vertex 0.467667 -0.0281191 0.7
      vertex 0.166412 0.144838 3.7
      vertex 0.467667 -0.0281191 3.7
    endloop
  endfacet
  facet normal 0.497899 0.867235 0
    outer loop
      vertex 0.166412 0.144838 3.7
      vertex 0.467667 -0.0281191 0.7
      vertex 0.166412 0.144838 0.7
    endloop
  endfacet
  facet normal 0.817081 0.576523 0
    outer loop
      vertex 0.659439 -0.299909 3.7
      vertex 0.467667 -0.0281191 0.7
      vertex 0.467667 -0.0281191 3.7
    endloop
  endfacet
  facet normal 0.817081 0.576523 0
    outer loop
      vertex 0.467667 -0.0281191 0.7
      vertex 0.659439 -0.299909 3.7
      vertex 0.659439 -0.299909 0.7
    endloop
  endfacet
  facet normal 0.984102 0.177606 0
    outer loop
      vertex 0.723358 -0.65408 3.7
      vertex 0.659439 -0.299909 0.7
      vertex 0.659439 -0.299909 3.7
    endloop
  endfacet
  facet normal 0.984102 0.177606 0
    outer loop
      vertex 0.659439 -0.299909 0.7
      vertex 0.723358 -0.65408 3.7
      vertex 0.723358 -0.65408 0.7
    endloop
  endfacet
  facet normal 0.984102 -0.177606 0
    outer loop
      vertex 0.659439 -1.00825 3.7
      vertex 0.723358 -0.65408 0.7
      vertex 0.723358 -0.65408 3.7
    endloop
  endfacet
  facet normal 0.984102 -0.177606 0
    outer loop
      vertex 0.723358 -0.65408 0.7
      vertex 0.659439 -1.00825 3.7
      vertex 0.659439 -1.00825 0.7
    endloop
  endfacet
  facet normal 0.817101 -0.576495 0
    outer loop
      vertex 0.467667 -1.28006 3.7
      vertex 0.659439 -1.00825 0.7
      vertex 0.659439 -1.00825 3.7
    endloop
  endfacet
  facet normal 0.817101 -0.576495 0
    outer loop
      vertex 0.659439 -1.00825 0.7
      vertex 0.467667 -1.28006 3.7
      vertex 0.467667 -1.28006 0.7
    endloop
  endfacet
  facet normal 0.497886 -0.867242 0
    outer loop
      vertex 0.166397 -1.45302 0.7
      vertex 0.467667 -1.28006 3.7
      vertex 0.166397 -1.45302 3.7
    endloop
  endfacet
  facet normal 0.497886 -0.867242 0
    outer loop
      vertex 0.467667 -1.28006 3.7
      vertex 0.166397 -1.45302 0.7
      vertex 0.467667 -1.28006 0.7
    endloop
  endfacet
  facet normal 0.145328 -0.989384 0
    outer loop
      vertex -0.226013 -1.51066 0.7
      vertex 0.166397 -1.45302 3.7
      vertex -0.226013 -1.51066 3.7
    endloop
  endfacet
  facet normal 0.145328 -0.989384 0
    outer loop
      vertex 0.166397 -1.45302 3.7
      vertex -0.226013 -1.51066 0.7
      vertex 0.166397 -1.45302 0.7
    endloop
  endfacet
  facet normal -0.0576119 -0.998339 0
    outer loop
      vertex -0.489929 -1.49543 0.7
      vertex -0.226013 -1.51066 3.7
      vertex -0.489929 -1.49543 3.7
    endloop
  endfacet
  facet normal -0.0576119 -0.998339 -0
    outer loop
      vertex -0.226013 -1.51066 3.7
      vertex -0.489929 -1.49543 0.7
      vertex -0.226013 -1.51066 0.7
    endloop
  endfacet
  facet normal -0.179658 -0.983729 0
    outer loop
      vertex -0.739944 -1.44977 0.7
      vertex -0.489929 -1.49543 3.7
      vertex -0.739944 -1.44977 3.7
    endloop
  endfacet
  facet normal -0.179658 -0.983729 -0
    outer loop
      vertex -0.489929 -1.49543 3.7
      vertex -0.739944 -1.44977 0.7
      vertex -0.489929 -1.49543 0.7
    endloop
  endfacet
  facet normal -0.305451 -0.952208 0
    outer loop
      vertex -0.979172 -1.37303 0.7
      vertex -0.739944 -1.44977 3.7
      vertex -0.979172 -1.37303 3.7
    endloop
  endfacet
  facet normal -0.305451 -0.952208 -0
    outer loop
      vertex -0.739944 -1.44977 3.7
      vertex -0.979172 -1.37303 0.7
      vertex -0.739944 -1.44977 0.7
    endloop
  endfacet
  facet normal -0.424082 -0.905624 0
    outer loop
      vertex -1.21083 -1.26455 0.7
      vertex -0.979172 -1.37303 3.7
      vertex -1.21083 -1.26455 3.7
    endloop
  endfacet
  facet normal -0.424082 -0.905624 -0
    outer loop
      vertex -0.979172 -1.37303 3.7
      vertex -1.21083 -1.26455 0.7
      vertex -0.979172 -1.37303 0.7
    endloop
  endfacet
  facet normal 1 -0 0
    outer loop
      vertex -1.21083 -1.77827 3.7
      vertex -1.21083 -1.26455 0.7
      vertex -1.21083 -1.26455 3.7
    endloop
  endfacet
  facet normal 1 0 0
    outer loop
      vertex -1.21083 -1.26455 0.7
      vertex -1.21083 -1.77827 3.7
      vertex -1.21083 -1.77827 0.7
    endloop
  endfacet
  facet normal 0.264465 0.964395 -0
    outer loop
      vertex -0.95163 -1.84935 0.7
      vertex -1.21083 -1.77827 3.7
      vertex -0.95163 -1.84935 3.7
    endloop
  endfacet
  facet normal 0.264465 0.964395 0
    outer loop
      vertex -1.21083 -1.77827 3.7
      vertex -0.95163 -1.84935 0.7
      vertex -1.21083 -1.77827 0.7
    endloop
  endfacet
  facet normal 0.198271 0.980147 -0
    outer loop
      vertex -0.700699 -1.90011 0.7
      vertex -0.95163 -1.84935 3.7
      vertex -0.700699 -1.90011 3.7
    endloop
  endfacet
  facet normal 0.198271 0.980147 0
    outer loop
      vertex -0.95163 -1.84935 3.7
      vertex -0.700699 -1.90011 0.7
      vertex -0.95163 -1.84935 0.7
    endloop
  endfacet
  facet normal 0.123561 0.992337 -0
    outer loop
      vertex -0.45607 -1.93057 0.7
      vertex -0.700699 -1.90011 3.7
      vertex -0.45607 -1.93057 3.7
    endloop
  endfacet
  facet normal 0.123561 0.992337 0
    outer loop
      vertex -0.700699 -1.90011 3.7
      vertex -0.45607 -1.93057 0.7
      vertex -0.700699 -1.90011 0.7
    endloop
  endfacet
  facet normal 0.042265 0.999106 -0
    outer loop
      vertex -0.215897 -1.94073 0.7
      vertex -0.45607 -1.93057 3.7
      vertex -0.215897 -1.94073 3.7
    endloop
  endfacet
  facet normal 0.042265 0.999106 0
    outer loop
      vertex -0.45607 -1.93057 3.7
      vertex -0.215897 -1.94073 0.7
      vertex -0.45607 -1.93057 0.7
    endloop
  endfacet
  facet normal -0.136522 0.990637 0
    outer loop
      vertex 0.3974 -1.85621 0.7
      vertex -0.215897 -1.94073 3.7
      vertex 0.3974 -1.85621 3.7
    endloop
  endfacet
  facet normal -0.136522 0.990637 0
    outer loop
      vertex -0.215897 -1.94073 3.7
      vertex 0.3974 -1.85621 0.7
      vertex -0.215897 -1.94073 0.7
    endloop
  endfacet
  facet normal -1 0 0
    outer loop
      vertex 1.86667 -3.36 0.7
      vertex 1.86667 -2.36 3.7
      vertex 1.86667 -2.36 0.7
    endloop
  endfacet
  facet normal -1 -0 0
    outer loop
      vertex 1.86667 -2.36 3.7
      vertex 1.86667 -3.36 0.7
      vertex 1.86667 -3.36 3.7
    endloop
  endfacet
  facet normal -0 0 1
    outer loop
      vertex -1.86667 -2.36 0.7
      vertex 1.86667 -3.36 0.7
      vertex 1.86667 -2.36 0.7
    endloop
  endfacet
  facet normal 0 0 1
    outer loop
      vertex 1.86667 -3.36 0.7
      vertex -1.86667 -2.36 0.7
      vertex -1.86667 -3.36 0.7
    endloop
  endfacet
  facet normal 1 -0 0
    outer loop
      vertex -1.86667 -3.36 3.7
      vertex -1.86667 -2.36 0.7
      vertex -1.86667 -2.36 3.7
    endloop
  endfacet
  facet normal 1 0 0
    outer loop
      vertex -1.86667 -2.36 0.7
      vertex -1.86667 -3.36 3.7
      vertex -1.86667 -3.36 0.7
    endloop
  endfacet
  facet normal 0 -1 0
    outer loop
      vertex -1.86667 -2.36 0.7
      vertex 1.86667 -2.36 3.7
      vertex -1.86667 -2.36 3.7
    endloop
  endfacet
  facet normal 0 -1 -0
    outer loop
      vertex 1.86667 -2.36 3.7
      vertex -1.86667 -2.36 0.7
      vertex 1.86667 -2.36 0.7
    endloop
  endfacet
  facet normal 0 1 -0
    outer loop
      vertex 1.86667 -3.36 0.7
      vertex -1.86667 -3.36 3.7
      vertex 1.86667 -3.36 3.7
    endloop
  endfacet
  facet normal 0 1 0
    outer loop
      vertex -1.86667 -3.36 3.7
      vertex 1.86667 -3.36 0.7
      vertex -1.86667 -3.36 0.7
    endloop
  endfacet
  facet normal 0 1 -0
    outer loop
      vertex 2.66667 4.6188 0
      vertex -2.66667 4.6188 3.7
      vertex 2.66667 4.6188 3.7
    endloop
  endfacet
  facet normal 0 1 0
    outer loop
      vertex -2.66667 4.6188 3.7
      vertex 2.66667 4.6188 0
      vertex -2.66667 4.6188 0
    endloop
  endfacet
  facet normal 0.866026 0.499999 0
    outer loop
      vertex 5.33333 0 3.7
      vertex 2.66667 4.6188 0
      vertex 2.66667 4.6188 3.7
    endloop
  endfacet
  facet normal 0.866026 0.499999 0
    outer loop
      vertex 2.66667 4.6188 0
      vertex 5.33333 0 3.7
      vertex 5.33333 0 0
    endloop
  endfacet
  facet normal -0.866026 0.499999 0
    outer loop
      vertex -5.33333 0 0
      vertex -2.66667 4.6188 3.7
      vertex -2.66667 4.6188 0
    endloop
  endfacet
  facet normal -0.866026 0.499999 0
    outer loop
      vertex -2.66667 4.6188 3.7
      vertex -5.33333 0 0
      vertex -5.33333 0 3.7
    endloop
  endfacet
  facet normal 0.866026 -0.499999 0
    outer loop
      vertex 2.66667 -4.6188 3.7
      vertex 5.33333 0 0
      vertex 5.33333 0 3.7
    endloop
  endfacet
  facet normal 0.866026 -0.499999 0
    outer loop
      vertex 5.33333 0 0
      vertex 2.66667 -4.6188 3.7
      vertex 2.66667 -4.6188 0
    endloop
  endfacet
  facet normal -0.866026 -0.499999 0
    outer loop
      vertex -2.66667 -4.6188 0
      vertex -5.33333 0 3.7
      vertex -5.33333 0 0
    endloop
  endfacet
  facet normal -0.866026 -0.499999 0
    outer loop
      vertex -5.33333 0 3.7
      vertex -2.66667 -4.6188 0
      vertex -2.66667 -4.6188 3.7
    endloop
  endfacet
  facet normal 0 -1 0
    outer loop
      vertex -2.66667 -4.6188 0
      vertex 2.66667 -4.6188 3.7
      vertex -2.66667 -4.6188 3.7
    endloop
  endfacet
  facet normal 0 -1 -0
    outer loop
      vertex 2.66667 -4.6188 3.7
      vertex -2.66667 -4.6188 0
      vertex 2.66667 -4.6188 0
    endloop
  endfacet
  facet normal 0 0 -1
    outer loop
      vertex 2.66667 -4.6188 0
      vertex 2.66667 4.6188 0
      vertex 5.33333 0 0
    endloop
  endfacet
  facet normal 0 0 -1
    outer loop
      vertex -2.66667 -4.6188 0
      vertex 2.66667 4.6188 0
      vertex 2.66667 -4.6188 0
    endloop
  endfacet
  facet normal 0 0 -1
    outer loop
      vertex -2.66667 -4.6188 0
      vertex -2.66667 4.6188 0
      vertex 2.66667 4.6188 0
    endloop
  endfacet
  facet normal 0 -0 -1
    outer loop
      vertex -2.66667 4.6188 0
      vertex -2.66667 -4.6188 0
      vertex -5.33333 0 0
    endloop
  endfacet
  facet normal -0 0 1
    outer loop
      vertex 0.956284 1.91326 3.7
      vertex 5.33333 0 3.7
      vertex 2.66667 4.6188 3.7
    endloop
  endfacet
  facet normal 0 0 1
    outer loop
      vertex 5.33333 0 3.7
      vertex 1.86667 -2.36 3.7
      vertex 2.66667 -4.6188 3.7
    endloop
  endfacet
  facet normal 0 0 1
    outer loop
      vertex 5.33333 0 3.7
      vertex 1.23476 -0.65408 3.7
      vertex 1.86667 -2.36 3.7
    endloop
  endfacet
  facet normal 0 0 1
    outer loop
      vertex 5.33333 0 3.7
      vertex 1.14235 -0.122846 3.7
      vertex 1.23476 -0.65408 3.7
    endloop
  endfacet
  facet normal 0 0 1
    outer loop
      vertex 5.33333 0 3.7
      vertex 0.956284 1.91326 3.7
      vertex 0.956284 1.48317 3.7
    endloop
  endfacet
  facet normal -0 0 1
    outer loop
      vertex -2.66667 4.6188 3.7
      vertex 0.956284 1.91326 3.7
      vertex 2.66667 4.6188 3.7
    endloop
  endfacet
  facet normal 0 0 1
    outer loop
      vertex -5.33333 0 3.7
      vertex -1.0513 0.0161152 3.7
      vertex -1.0513 1.91326 3.7
    endloop
  endfacet
  facet normal 0 0 1
    outer loop
      vertex -1.21083 -1.26455 3.7
      vertex -1.86667 -2.36 3.7
      vertex -1.21083 -1.77827 3.7
    endloop
  endfacet
  facet normal 0 0 1
    outer loop
      vertex -1.0513 0.0161152 3.7
      vertex -5.33333 0 3.7
      vertex -1.21083 -1.26455 3.7
    endloop
  endfacet
  facet normal 0 0 1
    outer loop
      vertex -1.21083 -1.26455 3.7
      vertex -5.33333 0 3.7
      vertex -1.86667 -2.36 3.7
    endloop
  endfacet
  facet normal 0 0 1
    outer loop
      vertex -5.33333 0 3.7
      vertex -1.0513 1.91326 3.7
      vertex -2.66667 4.6188 3.7
    endloop
  endfacet
  facet normal 0 0 1
    outer loop
      vertex 0.956284 1.91326 3.7
      vertex -2.66667 4.6188 3.7
      vertex -1.0513 1.91326 3.7
    endloop
  endfacet
  facet normal -0 0 1
    outer loop
      vertex 1.86667 -3.36 3.7
      vertex 2.66667 -4.6188 3.7
      vertex 1.86667 -2.36 3.7
    endloop
  endfacet
  facet normal -0 0 1
    outer loop
      vertex -1.86667 -3.36 3.7
      vertex 2.66667 -4.6188 3.7
      vertex 1.86667 -3.36 3.7
    endloop
  endfacet
  facet normal 0 0 1
    outer loop
      vertex -1.86667 -3.36 3.7
      vertex -2.66667 -4.6188 3.7
      vertex 2.66667 -4.6188 3.7
    endloop
  endfacet
  facet normal 0 -0 1
    outer loop
      vertex -2.66667 -4.6188 3.7
      vertex -1.86667 -2.36 3.7
      vertex -5.33333 0 3.7
    endloop
  endfacet
  facet normal 0 0 1
    outer loop
      vertex -1.86667 -2.36 3.7
      vertex -2.66667 -4.6188 3.7
      vertex -1.86667 -3.36 3.7
    endloop
  endfacet
  facet normal -0 0 1
    outer loop
      vertex 1.13982 -1.19642 3.7
      vertex 1.86667 -2.36 3.7
      vertex 1.23476 -0.65408 3.7
    endloop
  endfacet
  facet normal -0 0 1
    outer loop
      vertex 0.854996 -1.60261 3.7
      vertex 1.86667 -2.36 3.7
      vertex 1.13982 -1.19642 3.7
    endloop
  endfacet
  facet normal -0 0 1
    outer loop
      vertex 0.3974 -1.85621 3.7
      vertex 1.86667 -2.36 3.7
      vertex 0.854996 -1.60261 3.7
    endloop
  endfacet
  facet normal -0 0 1
    outer loop
      vertex -0.215897 -1.94073 3.7
      vertex 1.86667 -2.36 3.7
      vertex 0.3974 -1.85621 3.7
    endloop
  endfacet
  facet normal 0 0 1
    outer loop
      vertex -1.86667 -2.36 3.7
      vertex -0.215897 -1.94073 3.7
      vertex -0.45607 -1.93057 3.7
    endloop
  endfacet
  facet normal 0 0 1
    outer loop
      vertex -1.86667 -2.36 3.7
      vertex -0.45607 -1.93057 3.7
      vertex -0.700699 -1.90011 3.7
    endloop
  endfacet
  facet normal 0 0 1
    outer loop
      vertex -0.215897 -1.94073 3.7
      vertex -1.86667 -2.36 3.7
      vertex 1.86667 -2.36 3.7
    endloop
  endfacet
  facet normal 0 0 1
    outer loop
      vertex -0.95163 -1.84935 3.7
      vertex -1.86667 -2.36 3.7
      vertex -0.700699 -1.90011 3.7
    endloop
  endfacet
  facet normal 0 0 1
    outer loop
      vertex -1.86667 -2.36 3.7
      vertex -0.95163 -1.84935 3.7
      vertex -1.21083 -1.77827 3.7
    endloop
  endfacet
  facet normal 0 0 1
    outer loop
      vertex 5.33333 0 3.7
      vertex 0.956284 1.48317 3.7
      vertex 1.14235 -0.122846 3.7
    endloop
  endfacet
  facet normal 0 0 1
    outer loop
      vertex 0.956284 1.48317 3.7
      vertex 0.865112 0.285555 3.7
      vertex 1.14235 -0.122846 3.7
    endloop
  endfacet
  facet normal 0 0 1
    outer loop
      vertex 0.956284 1.48317 3.7
      vertex 0.429688 0.545809 3.7
      vertex 0.865112 0.285555 3.7
    endloop
  endfacet
  facet normal 0 0 1
    outer loop
      vertex 0.956284 1.48317 3.7
      vertex -0.137375 0.63257 3.7
      vertex 0.429688 0.545809 3.7
    endloop
  endfacet
  facet normal -0 0 1
    outer loop
      vertex -0.582947 1.48317 3.7
      vertex -0.137375 0.63257 3.7
      vertex 0.956284 1.48317 3.7
    endloop
  endfacet
  facet normal 0 0 1
    outer loop
      vertex -0.137375 0.63257 3.7
      vertex -0.582947 1.48317 3.7
      vertex -0.248779 0.627825 3.7
    endloop
  endfacet
  facet normal 0 0 1
    outer loop
      vertex -0.248779 0.627825 3.7
      vertex -0.582947 1.48317 3.7
      vertex -0.360184 0.613573 3.7
    endloop
  endfacet
  facet normal 0 0 1
    outer loop
      vertex -0.360184 0.613573 3.7
      vertex -0.582947 1.48317 3.7
      vertex -0.471558 0.589861 3.7
    endloop
  endfacet
  facet normal 0 0 1
    outer loop
      vertex -0.471558 0.589861 3.7
      vertex -0.582947 1.48317 3.7
      vertex -0.582947 0.556673 3.7
    endloop
  endfacet
  facet normal 0 0 1
    outer loop
      vertex 0.166412 0.144838 3.7
      vertex 0.723358 -0.65408 3.7
      vertex 0.659439 -0.299909 3.7
    endloop
  endfacet
  facet normal 0 0 1
    outer loop
      vertex 0.166412 0.144838 3.7
      vertex 0.659439 -0.299909 3.7
      vertex 0.467667 -0.0281191 3.7
    endloop
  endfacet
  facet normal 0 0 1
    outer loop
      vertex 0.166397 -1.45302 3.7
      vertex 0.723358 -0.65408 3.7
      vertex 0.166412 0.144838 3.7
    endloop
  endfacet
  facet normal 0 0 1
    outer loop
      vertex 0.723358 -0.65408 3.7
      vertex 0.166397 -1.45302 3.7
      vertex 0.659439 -1.00825 3.7
    endloop
  endfacet
  facet normal 0 0 1
    outer loop
      vertex 0.659439 -1.00825 3.7
      vertex 0.166397 -1.45302 3.7
      vertex 0.467667 -1.28006 3.7
    endloop
  endfacet
  facet normal 0 0 1
    outer loop
      vertex -0.225967 0.202486 3.7
      vertex 0.166397 -1.45302 3.7
      vertex 0.166412 0.144838 3.7
    endloop
  endfacet
  facet normal 0 0 1
    outer loop
      vertex -0.225967 0.202486 3.7
      vertex -0.226013 -1.51066 3.7
      vertex 0.166397 -1.45302 3.7
    endloop
  endfacet
  facet normal -0 0 1
    outer loop
      vertex -0.430725 0.191149 3.7
      vertex -0.226013 -1.51066 3.7
      vertex -0.225967 0.202486 3.7
    endloop
  endfacet
  facet normal 0 0 1
    outer loop
      vertex -0.430725 0.191149 3.7
      vertex -0.489929 -1.49543 3.7
      vertex -0.226013 -1.51066 3.7
    endloop
  endfacet
  facet normal -0 0 1
    outer loop
      vertex -0.634842 0.157122 3.7
      vertex -0.489929 -1.49543 3.7
      vertex -0.430725 0.191149 3.7
    endloop
  endfacet
  facet normal 0 0 1
    outer loop
      vertex -0.634842 0.157122 3.7
      vertex -0.739944 -1.44977 3.7
      vertex -0.489929 -1.49543 3.7
    endloop
  endfacet
  facet normal -0 0 1
    outer loop
      vertex -0.840866 0.0992146 3.7
      vertex -0.739944 -1.44977 3.7
      vertex -0.634842 0.157122 3.7
    endloop
  endfacet
  facet normal 0 0 1
    outer loop
      vertex -0.840866 0.0992146 3.7
      vertex -0.979172 -1.37303 3.7
      vertex -0.739944 -1.44977 3.7
    endloop
  endfacet
  facet normal -0 0 1
    outer loop
      vertex -1.0513 0.0161152 3.7
      vertex -0.979172 -1.37303 3.7
      vertex -0.840866 0.0992146 3.7
    endloop
  endfacet
  facet normal 0 0 1
    outer loop
      vertex -0.979172 -1.37303 3.7
      vertex -1.0513 0.0161152 3.7
      vertex -1.21083 -1.26455 3.7
    endloop
  endfacet
endsolid OpenSCAD_Model
