solid OpenSCAD_Model
  facet normal 0 0 1
    outer loop
      vertex 2.11201 3.46322 3.2
      vertex 1.86839 2.68807 3.2
      vertex 2.11201 2.58131 3.2
    endloop
  endfacet
  facet normal 0 0 1
    outer loop
      vertex 1.62318 2.7766 3.2
      vertex 2.11201 3.46322 3.2
      vertex 1.84712 3.55167 3.2
    endloop
  endfacet
  facet normal 0 0 1
    outer loop
      vertex 2.11201 3.46322 3.2
      vertex 1.62318 2.7766 3.2
      vertex 1.86839 2.68807 3.2
    endloop
  endfacet
  facet normal 0 0 1
    outer loop
      vertex 1.58914 3.62403 3.2
      vertex 1.62318 2.7766 3.2
      vertex 1.84712 3.55167 3.2
    endloop
  endfacet
  facet normal 0 0 1
    outer loop
      vertex 1.58914 3.62403 3.2
      vertex 1.37637 2.84687 3.2
      vertex 1.62318 2.7766 3.2
    endloop
  endfacet
  facet normal 0 0 1
    outer loop
      vertex 1.33807 3.6803 3.2
      vertex 1.37637 2.84687 3.2
      vertex 1.58914 3.62403 3.2
    endloop
  endfacet
  facet normal 0 0 1
    outer loop
      vertex 1.33807 3.6803 3.2
      vertex 1.12961 2.89783 3.2
      vertex 1.37637 2.84687 3.2
    endloop
  endfacet
  facet normal 0 0 1
    outer loop
      vertex 1.09129 3.72051 3.2
      vertex 1.12961 2.89783 3.2
      vertex 1.33807 3.6803 3.2
    endloop
  endfacet
  facet normal 0 0 1
    outer loop
      vertex 1.09129 3.72051 3.2
      vertex 0.88443 2.9284 3.2
      vertex 1.12961 2.89783 3.2
    endloop
  endfacet
  facet normal 0 0 1
    outer loop
      vertex 0.8461 3.74464 3.2
      vertex 0.88443 2.9284 3.2
      vertex 1.09129 3.72051 3.2
    endloop
  endfacet
  facet normal 0 0 1
    outer loop
      vertex 0.8461 3.74464 3.2
      vertex 0.640869 2.93859 3.2
      vertex 0.88443 2.9284 3.2
    endloop
  endfacet
  facet normal 0 0 1
    outer loop
      vertex 0.602493 3.75268 3.2
      vertex 0.640869 2.93859 3.2
      vertex 0.8461 3.74464 3.2
    endloop
  endfacet
  facet normal 0 0 1
    outer loop
      vertex 0.602493 3.75268 3.2
      vertex 0.0522308 2.86661 3.2
      vertex 0.640869 2.93859 3.2
    endloop
  endfacet
  facet normal -0 0 1
    outer loop
      vertex -0.240372 3.64054 3.2
      vertex 0.0522308 2.86661 3.2
      vertex 0.602493 3.75268 3.2
    endloop
  endfacet
  facet normal 0 0 1
    outer loop
      vertex -0.240372 3.64054 3.2
      vertex -0.43576 2.65066 3.2
      vertex 0.0522308 2.86661 3.2
    endloop
  endfacet
  facet normal -0 0 1
    outer loop
      vertex -0.960785 3.30414 3.2
      vertex -0.43576 2.65066 3.2
      vertex -0.240372 3.64054 3.2
    endloop
  endfacet
  facet normal 0 0 1
    outer loop
      vertex -0.43576 2.65066 3.2
      vertex -0.960785 3.30414 3.2
      vertex -0.82312 2.29072 3.2
    endloop
  endfacet
  facet normal -0 0 1
    outer loop
      vertex -1.55876 2.74349 3.2
      vertex -0.82312 2.29072 3.2
      vertex -0.960785 3.30414 3.2
    endloop
  endfacet
  facet normal 0 0 1
    outer loop
      vertex -0.82312 2.29072 3.2
      vertex -1.55876 2.74349 3.2
      vertex -1.11197 1.78522 3.2
    endloop
  endfacet
  facet normal 0 0 1
    outer loop
      vertex -1.11197 1.78522 3.2
      vertex -2.006 1.99425 3.2
      vertex -1.30443 1.13258 3.2
    endloop
  endfacet
  facet normal -0 0 1
    outer loop
      vertex -2.006 1.99425 3.2
      vertex -1.11197 1.78522 3.2
      vertex -1.55876 2.74349 3.2
    endloop
  endfacet
  facet normal -0 0 1
    outer loop
      vertex 1.56172 -0.757576 3.2
      vertex 2.57686 -1.23809 3.2
      vertex 2.50737 -0.539467 3.2
    endloop
  endfacet
  facet normal -0 0 1
    outer loop
      vertex 1.43474 -0.350517 3.2
      vertex 2.50737 -0.539467 3.2
      vertex 2.2989 0.0542059 3.2
    endloop
  endfacet
  facet normal 0 0 1
    outer loop
      vertex 1.56172 -1.71621 3.2
      vertex 2.57686 -1.23809 3.2
      vertex 1.60405 -1.23809 3.2
    endloop
  endfacet
  facet normal 0 0 1
    outer loop
      vertex 1.43474 -0.350517 3.2
      vertex 2.2989 0.0542059 3.2
      vertex 1.95146 0.54293 3.2
    endloop
  endfacet
  facet normal 0 0 1
    outer loop
      vertex 2.57686 -1.23809 3.2
      vertex 1.56172 -1.71621 3.2
      vertex 2.50444 -1.92474 3.2
    endloop
  endfacet
  facet normal 0 0 1
    outer loop
      vertex 2.50444 -1.92474 3.2
      vertex 1.56172 -1.71621 3.2
      vertex 2.28719 -2.51443 3.2
    endloop
  endfacet
  facet normal 0 0 1
    outer loop
      vertex 2.57686 -1.23809 3.2
      vertex 1.56172 -0.757576 3.2
      vertex 1.60405 -1.23809 3.2
    endloop
  endfacet
  facet normal 0 0 1
    outer loop
      vertex 1.2231 -0.0168991 3.2
      vertex 1.95146 0.54293 3.2
      vertex 1.48425 0.906501 3.2
    endloop
  endfacet
  facet normal 0 0 1
    outer loop
      vertex 2.50737 -0.539467 3.2
      vertex 1.43474 -0.350517 3.2
      vertex 1.56172 -0.757576 3.2
    endloop
  endfacet
  facet normal 0 0 1
    outer loop
      vertex 1.95146 0.54293 3.2
      vertex 1.2231 -0.0168991 3.2
      vertex 1.43474 -0.350517 3.2
    endloop
  endfacet
  facet normal 0 0 1
    outer loop
      vertex 1.48425 0.906501 3.2
      vertex 0.939026 0.230552 3.2
      vertex 1.2231 -0.0168991 3.2
    endloop
  endfacet
  facet normal 0 0 1
    outer loop
      vertex 0.916397 1.12466 3.2
      vertex 0.939026 0.230552 3.2
      vertex 1.48425 0.906501 3.2
    endloop
  endfacet
  facet normal 0 0 1
    outer loop
      vertex 0.916397 1.12466 3.2
      vertex 0.594788 0.37902 3.2
      vertex 0.939026 0.230552 3.2
    endloop
  endfacet
  facet normal 0 0 1
    outer loop
      vertex 0.247894 1.19736 3.2
      vertex 0.594788 0.37902 3.2
      vertex 0.916397 1.12466 3.2
    endloop
  endfacet
  facet normal 0 0 1
    outer loop
      vertex 0.247894 1.19736 3.2
      vertex 0.190369 0.428519 3.2
      vertex 0.594788 0.37902 3.2
    endloop
  endfacet
  facet normal -0 0 1
    outer loop
      vertex -0.0843353 1.17255 3.2
      vertex 0.190369 0.428519 3.2
      vertex 0.247894 1.19736 3.2
    endloop
  endfacet
  facet normal 0 0 1
    outer loop
      vertex -0.0843353 1.17255 3.2
      vertex -0.213989 0.37902 3.2
      vertex 0.190369 0.428519 3.2
    endloop
  endfacet
  facet normal -0 0 1
    outer loop
      vertex -0.397415 1.09809 3.2
      vertex -0.213989 0.37902 3.2
      vertex -0.0843353 1.17255 3.2
    endloop
  endfacet
  facet normal -0 0 1
    outer loop
      vertex -0.69133 0.97399 3.2
      vertex -0.213989 0.37902 3.2
      vertex -0.397415 1.09809 3.2
    endloop
  endfacet
  facet normal 0 0 1
    outer loop
      vertex -0.213989 0.37902 3.2
      vertex -0.69133 0.97399 3.2
      vertex -0.558212 0.230552 3.2
    endloop
  endfacet
  facet normal -0 0 1
    outer loop
      vertex -0.959671 0.803489 3.2
      vertex -0.558212 0.230552 3.2
      vertex -0.69133 0.97399 3.2
    endloop
  endfacet
  facet normal -0 0 1
    outer loop
      vertex -1.19608 0.589759 3.2
      vertex -0.558212 0.230552 3.2
      vertex -0.959671 0.803489 3.2
    endloop
  endfacet
  facet normal 0 0 1
    outer loop
      vertex -0.558212 0.230552 3.2
      vertex -1.19608 0.589759 3.2
      vertex -0.84227 -0.0168991 3.2
    endloop
  endfacet
  facet normal -0 0 1
    outer loop
      vertex -1.40053 0.332755 3.2
      vertex -0.84227 -0.0168991 3.2
      vertex -1.19608 0.589759 3.2
    endloop
  endfacet
  facet normal 0 0 1
    outer loop
      vertex -0.84227 -0.0168991 3.2
      vertex -1.40053 0.332755 3.2
      vertex -1.05391 -0.350517 3.2
    endloop
  endfacet
  facet normal -0 0 1
    outer loop
      vertex -2.36378 0.0371618 3.2
      vertex -1.05391 -0.350517 3.2
      vertex -1.40053 0.332755 3.2
    endloop
  endfacet
  facet normal 0 0 1
    outer loop
      vertex -1.05391 -0.350517 3.2
      vertex -2.36378 0.0371618 3.2
      vertex -1.18091 -0.757576 3.2
    endloop
  endfacet
  facet normal -0 0 1
    outer loop
      vertex 1.43474 -2.12249 3.2
      vertex 2.28719 -2.51443 3.2
      vertex 1.56172 -1.71621 3.2
    endloop
  endfacet
  facet normal 0 0 1
    outer loop
      vertex 2.28719 -2.51443 3.2
      vertex 1.43474 -2.12249 3.2
      vertex 1.92509 -3.00716 3.2
    endloop
  endfacet
  facet normal -0 0 1
    outer loop
      vertex 1.2231 -2.45695 3.2
      vertex 1.92509 -3.00716 3.2
      vertex 1.43474 -2.12249 3.2
    endloop
  endfacet
  facet normal 0 0 1
    outer loop
      vertex 1.92509 -3.00716 3.2
      vertex 1.2231 -2.45695 3.2
      vertex 1.4427 -3.37737 3.2
    endloop
  endfacet
  facet normal -0 0 1
    outer loop
      vertex 0.939026 -2.7057 3.2
      vertex 1.4427 -3.37737 3.2
      vertex 1.2231 -2.45695 3.2
    endloop
  endfacet
  facet normal 0 0 1
    outer loop
      vertex 0.939026 -2.7057 3.2
      vertex 0.864471 -3.59948 3.2
      vertex 1.4427 -3.37737 3.2
    endloop
  endfacet
  facet normal -0 0 1
    outer loop
      vertex 0.594788 -2.85494 3.2
      vertex 0.864471 -3.59948 3.2
      vertex 0.939026 -2.7057 3.2
    endloop
  endfacet
  facet normal 0 0 1
    outer loop
      vertex 0.190369 -3.67353 3.2
      vertex 0.594788 -2.85494 3.2
      vertex 0.190369 -2.90469 3.2
    endloop
  endfacet
  facet normal 0 0 1
    outer loop
      vertex 0.594788 -2.85494 3.2
      vertex 0.190369 -3.67353 3.2
      vertex 0.864471 -3.59948 3.2
    endloop
  endfacet
  facet normal 0 0 1
    outer loop
      vertex -0.213989 -2.85494 3.2
      vertex 0.190369 -3.67353 3.2
      vertex 0.190369 -2.90469 3.2
    endloop
  endfacet
  facet normal 0 0 1
    outer loop
      vertex -0.572083 -3.5678 3.2
      vertex -0.213989 -2.85494 3.2
      vertex -0.558212 -2.7057 3.2
    endloop
  endfacet
  facet normal 0 0 1
    outer loop
      vertex -0.213989 -2.85494 3.2
      vertex -0.572083 -3.5678 3.2
      vertex 0.190369 -3.67353 3.2
    endloop
  endfacet
  facet normal 0 0 1
    outer loop
      vertex -1.20464 -3.25062 3.2
      vertex -0.558212 -2.7057 3.2
      vertex -0.84227 -2.45695 3.2
    endloop
  endfacet
  facet normal 0 0 1
    outer loop
      vertex -1.70729 -2.72195 3.2
      vertex -0.84227 -2.45695 3.2
      vertex -1.05391 -2.12249 3.2
    endloop
  endfacet
  facet normal 0 0 1
    outer loop
      vertex -0.558212 -2.7057 3.2
      vertex -1.20464 -3.25062 3.2
      vertex -0.572083 -3.5678 3.2
    endloop
  endfacet
  facet normal -0 0 1
    outer loop
      vertex -2.07202 -1.99241 3.2
      vertex -1.05391 -2.12249 3.2
      vertex -1.18091 -1.71621 3.2
    endloop
  endfacet
  facet normal 0 0 1
    outer loop
      vertex -2.07202 -1.99241 3.2
      vertex -1.18091 -1.71621 3.2
      vertex -1.22324 -1.23809 3.2
    endloop
  endfacet
  facet normal 0 0 1
    outer loop
      vertex -1.18091 -0.757576 3.2
      vertex -2.29085 -1.07272 3.2
      vertex -1.22324 -1.23809 3.2
    endloop
  endfacet
  facet normal 0 0 1
    outer loop
      vertex -2.27434 1.09214 3.2
      vertex -1.30443 1.13258 3.2
      vertex -2.006 1.99425 3.2
    endloop
  endfacet
  facet normal 0 0 1
    outer loop
      vertex -1.18091 -0.757576 3.2
      vertex -2.36378 0.0371618 3.2
      vertex -2.29085 -1.07272 3.2
    endloop
  endfacet
  facet normal 0 0 1
    outer loop
      vertex -1.30443 1.13258 3.2
      vertex -2.27434 1.09214 3.2
      vertex -1.40053 0.332755 3.2
    endloop
  endfacet
  facet normal 0 0 1
    outer loop
      vertex -1.22324 -1.23809 3.2
      vertex -2.29085 -1.07272 3.2
      vertex -2.07202 -1.99241 3.2
    endloop
  endfacet
  facet normal 0 0 1
    outer loop
      vertex -1.40053 0.332755 3.2
      vertex -2.27434 1.09214 3.2
      vertex -2.36378 0.0371618 3.2
    endloop
  endfacet
  facet normal 0 0 1
    outer loop
      vertex -1.05391 -2.12249 3.2
      vertex -2.07202 -1.99241 3.2
      vertex -1.70729 -2.72195 3.2
    endloop
  endfacet
  facet normal 0 0 1
    outer loop
      vertex -0.84227 -2.45695 3.2
      vertex -1.70729 -2.72195 3.2
      vertex -1.20464 -3.25062 3.2
    endloop
  endfacet
  facet normal -0.358577 0.9335 0
    outer loop
      vertex 1.4427 -3.37737 3.2
      vertex 0.864471 -3.59948 6.2
      vertex 1.4427 -3.37737 6.2
    endloop
  endfacet
  facet normal -0.358577 0.9335 0
    outer loop
      vertex 0.864471 -3.59948 6.2
      vertex 1.4427 -3.37737 3.2
      vertex 0.864471 -3.59948 3.2
    endloop
  endfacet
  facet normal -0.608823 0.793306 0
    outer loop
      vertex 1.92509 -3.00716 3.2
      vertex 1.4427 -3.37737 6.2
      vertex 1.92509 -3.00716 6.2
    endloop
  endfacet
  facet normal -0.608823 0.793306 0
    outer loop
      vertex 1.4427 -3.37737 6.2
      vertex 1.92509 -3.00716 3.2
      vertex 1.4427 -3.37737 3.2
    endloop
  endfacet
  facet normal -0.805808 0.592177 0
    outer loop
      vertex 1.92509 -3.00716 3.2
      vertex 2.28719 -2.51443 6.2
      vertex 2.28719 -2.51443 3.2
    endloop
  endfacet
  facet normal -0.805808 0.592177 0
    outer loop
      vertex 2.28719 -2.51443 6.2
      vertex 1.92509 -3.00716 3.2
      vertex 1.92509 -3.00716 6.2
    endloop
  endfacet
  facet normal -0.938345 0.345699 0
    outer loop
      vertex 2.28719 -2.51443 3.2
      vertex 2.50444 -1.92474 6.2
      vertex 2.50444 -1.92474 3.2
    endloop
  endfacet
  facet normal -0.938345 0.345699 0
    outer loop
      vertex 2.50444 -1.92474 6.2
      vertex 2.28719 -2.51443 3.2
      vertex 2.28719 -2.51443 6.2
    endloop
  endfacet
  facet normal -0.994484 0.104887 0
    outer loop
      vertex 2.50444 -1.92474 3.2
      vertex 2.57686 -1.23809 6.2
      vertex 2.57686 -1.23809 3.2
    endloop
  endfacet
  facet normal -0.994484 0.104887 0
    outer loop
      vertex 2.57686 -1.23809 6.2
      vertex 2.50444 -1.92474 3.2
      vertex 2.50444 -1.92474 6.2
    endloop
  endfacet
  facet normal -0.99509 -0.0989787 0
    outer loop
      vertex 2.57686 -1.23809 3.2
      vertex 2.50737 -0.539467 6.2
      vertex 2.50737 -0.539467 3.2
    endloop
  endfacet
  facet normal -0.99509 -0.0989787 0
    outer loop
      vertex 2.50737 -0.539467 6.2
      vertex 2.57686 -1.23809 3.2
      vertex 2.57686 -1.23809 6.2
    endloop
  endfacet
  facet normal -0.943519 -0.331319 0
    outer loop
      vertex 2.50737 -0.539467 3.2
      vertex 2.2989 0.0542059 6.2
      vertex 2.2989 0.0542059 3.2
    endloop
  endfacet
  facet normal -0.943519 -0.331319 0
    outer loop
      vertex 2.2989 0.0542059 6.2
      vertex 2.50737 -0.539467 3.2
      vertex 2.50737 -0.539467 6.2
    endloop
  endfacet
  facet normal -0.815032 -0.579416 0
    outer loop
      vertex 2.2989 0.0542059 3.2
      vertex 1.95146 0.54293 6.2
      vertex 1.95146 0.54293 3.2
    endloop
  endfacet
  facet normal -0.815032 -0.579416 0
    outer loop
      vertex 1.95146 0.54293 6.2
      vertex 2.2989 0.0542059 3.2
      vertex 2.2989 0.0542059 6.2
    endloop
  endfacet
  facet normal -0.614136 -0.7892 0
    outer loop
      vertex 1.48425 0.906501 3.2
      vertex 1.95146 0.54293 6.2
      vertex 1.48425 0.906501 6.2
    endloop
  endfacet
  facet normal -0.614136 -0.7892 -0
    outer loop
      vertex 1.95146 0.54293 6.2
      vertex 1.48425 0.906501 3.2
      vertex 1.95146 0.54293 3.2
    endloop
  endfacet
  facet normal -0.358627 -0.933481 0
    outer loop
      vertex 0.916397 1.12466 3.2
      vertex 1.48425 0.906501 6.2
      vertex 0.916397 1.12466 6.2
    endloop
  endfacet
  facet normal -0.358627 -0.933481 -0
    outer loop
      vertex 1.48425 0.906501 6.2
      vertex 0.916397 1.12466 3.2
      vertex 1.48425 0.906501 3.2
    endloop
  endfacet
  facet normal -0.108113 -0.994139 0
    outer loop
      vertex 0.247894 1.19736 3.2
      vertex 0.916397 1.12466 6.2
      vertex 0.247894 1.19736 6.2
    endloop
  endfacet
  facet normal -0.108113 -0.994139 -0
    outer loop
      vertex 0.916397 1.12466 6.2
      vertex 0.247894 1.19736 3.2
      vertex 0.916397 1.12466 3.2
    endloop
  endfacet
  facet normal 0.07447 -0.997223 0
    outer loop
      vertex -0.0843353 1.17255 3.2
      vertex 0.247894 1.19736 6.2
      vertex -0.0843353 1.17255 6.2
    endloop
  endfacet
  facet normal 0.07447 -0.997223 0
    outer loop
      vertex 0.247894 1.19736 6.2
      vertex -0.0843353 1.17255 3.2
      vertex 0.247894 1.19736 3.2
    endloop
  endfacet
  facet normal 0.231377 -0.972864 0
    outer loop
      vertex -0.397415 1.09809 3.2
      vertex -0.0843353 1.17255 6.2
      vertex -0.397415 1.09809 6.2
    endloop
  endfacet
  facet normal 0.231377 -0.972864 0
    outer loop
      vertex -0.0843353 1.17255 6.2
      vertex -0.397415 1.09809 3.2
      vertex -0.0843353 1.17255 3.2
    endloop
  endfacet
  facet normal 0.388979 -0.921247 0
    outer loop
      vertex -0.69133 0.97399 3.2
      vertex -0.397415 1.09809 6.2
      vertex -0.69133 0.97399 6.2
    endloop
  endfacet
  facet normal 0.388979 -0.921247 0
    outer loop
      vertex -0.397415 1.09809 6.2
      vertex -0.69133 0.97399 3.2
      vertex -0.397415 1.09809 3.2
    endloop
  endfacet
  facet normal 0.53629 -0.844034 0
    outer loop
      vertex -0.959671 0.803489 3.2
      vertex -0.69133 0.97399 6.2
      vertex -0.959671 0.803489 6.2
    endloop
  endfacet
  facet normal 0.53629 -0.844034 0
    outer loop
      vertex -0.69133 0.97399 6.2
      vertex -0.959671 0.803489 3.2
      vertex -0.69133 0.97399 3.2
    endloop
  endfacet
  facet normal 0.670631 -0.741792 0
    outer loop
      vertex -1.19608 0.589759 3.2
      vertex -0.959671 0.803489 6.2
      vertex -1.19608 0.589759 6.2
    endloop
  endfacet
  facet normal 0.670631 -0.741792 0
    outer loop
      vertex -0.959671 0.803489 6.2
      vertex -1.19608 0.589759 3.2
      vertex -0.959671 0.803489 3.2
    endloop
  endfacet
  facet normal 0.782579 -0.622552 0
    outer loop
      vertex -1.40053 0.332755 6.2
      vertex -1.19608 0.589759 3.2
      vertex -1.19608 0.589759 6.2
    endloop
  endfacet
  facet normal 0.782579 -0.622552 0
    outer loop
      vertex -1.19608 0.589759 3.2
      vertex -1.40053 0.332755 6.2
      vertex -1.40053 0.332755 3.2
    endloop
  endfacet
  facet normal -0.992859 0.119293 0
    outer loop
      vertex -1.40053 0.332755 3.2
      vertex -1.30443 1.13258 6.2
      vertex -1.30443 1.13258 3.2
    endloop
  endfacet
  facet normal -0.992859 0.119293 0
    outer loop
      vertex -1.30443 1.13258 6.2
      vertex -1.40053 0.332755 3.2
      vertex -1.40053 0.332755 6.2
    endloop
  endfacet
  facet normal -0.959164 0.282852 0
    outer loop
      vertex -1.30443 1.13258 3.2
      vertex -1.11197 1.78522 6.2
      vertex -1.11197 1.78522 3.2
    endloop
  endfacet
  facet normal -0.959164 0.282852 0
    outer loop
      vertex -1.11197 1.78522 6.2
      vertex -1.30443 1.13258 3.2
      vertex -1.30443 1.13258 6.2
    endloop
  endfacet
  facet normal -0.868248 0.49613 0
    outer loop
      vertex -1.11197 1.78522 3.2
      vertex -0.82312 2.29072 6.2
      vertex -0.82312 2.29072 3.2
    endloop
  endfacet
  facet normal -0.868248 0.49613 0
    outer loop
      vertex -0.82312 2.29072 6.2
      vertex -1.11197 1.78522 3.2
      vertex -1.11197 1.78522 6.2
    endloop
  endfacet
  facet normal -0.680703 0.732559 0
    outer loop
      vertex -0.43576 2.65066 3.2
      vertex -0.82312 2.29072 6.2
      vertex -0.43576 2.65066 6.2
    endloop
  endfacet
  facet normal -0.680703 0.732559 0
    outer loop
      vertex -0.82312 2.29072 6.2
      vertex -0.43576 2.65066 3.2
      vertex -0.82312 2.29072 3.2
    endloop
  endfacet
  facet normal -0.404675 0.914461 0
    outer loop
      vertex 0.0522308 2.86661 3.2
      vertex -0.43576 2.65066 6.2
      vertex 0.0522308 2.86661 6.2
    endloop
  endfacet
  facet normal -0.404675 0.914461 0
    outer loop
      vertex -0.43576 2.65066 6.2
      vertex 0.0522308 2.86661 3.2
      vertex -0.43576 2.65066 3.2
    endloop
  endfacet
  facet normal -0.121378 0.992606 0
    outer loop
      vertex 0.640869 2.93859 3.2
      vertex 0.0522308 2.86661 6.2
      vertex 0.640869 2.93859 6.2
    endloop
  endfacet
  facet normal -0.121378 0.992606 0
    outer loop
      vertex 0.0522308 2.86661 6.2
      vertex 0.640869 2.93859 3.2
      vertex 0.0522308 2.86661 3.2
    endloop
  endfacet
  facet normal 0.041801 0.999126 -0
    outer loop
      vertex 0.88443 2.9284 3.2
      vertex 0.640869 2.93859 6.2
      vertex 0.88443 2.9284 6.2
    endloop
  endfacet
  facet normal 0.041801 0.999126 0
    outer loop
      vertex 0.640869 2.93859 6.2
      vertex 0.88443 2.9284 3.2
      vertex 0.640869 2.93859 3.2
    endloop
  endfacet
  facet normal 0.123726 0.992316 -0
    outer loop
      vertex 1.12961 2.89783 3.2
      vertex 0.88443 2.9284 6.2
      vertex 1.12961 2.89783 6.2
    endloop
  endfacet
  facet normal 0.123726 0.992316 0
    outer loop
      vertex 0.88443 2.9284 6.2
      vertex 1.12961 2.89783 3.2
      vertex 0.88443 2.9284 3.2
    endloop
  endfacet
  facet normal 0.202249 0.979334 -0
    outer loop
      vertex 1.37637 2.84687 3.2
      vertex 1.12961 2.89783 6.2
      vertex 1.37637 2.84687 6.2
    endloop
  endfacet
  facet normal 0.202249 0.979334 0
    outer loop
      vertex 1.12961 2.89783 6.2
      vertex 1.37637 2.84687 3.2
      vertex 1.12961 2.89783 3.2
    endloop
  endfacet
  facet normal 0.273831 0.961778 -0
    outer loop
      vertex 1.62318 2.7766 3.2
      vertex 1.37637 2.84687 6.2
      vertex 1.62318 2.7766 6.2
    endloop
  endfacet
  facet normal 0.273831 0.961778 0
    outer loop
      vertex 1.37637 2.84687 6.2
      vertex 1.62318 2.7766 3.2
      vertex 1.37637 2.84687 3.2
    endloop
  endfacet
  facet normal 0.339583 0.940576 -0
    outer loop
      vertex 1.86839 2.68807 3.2
      vertex 1.62318 2.7766 6.2
      vertex 1.86839 2.68807 6.2
    endloop
  endfacet
  facet normal 0.339583 0.940576 0
    outer loop
      vertex 1.62318 2.7766 6.2
      vertex 1.86839 2.68807 3.2
      vertex 1.62318 2.7766 3.2
    endloop
  endfacet
  facet normal 0.401375 0.915914 -0
    outer loop
      vertex 2.11201 2.58131 3.2
      vertex 1.86839 2.68807 6.2
      vertex 2.11201 2.58131 6.2
    endloop
  endfacet
  facet normal 0.401375 0.915914 0
    outer loop
      vertex 1.86839 2.68807 6.2
      vertex 2.11201 2.58131 3.2
      vertex 1.86839 2.68807 3.2
    endloop
  endfacet
  facet normal -1 0 0
    outer loop
      vertex 2.11201 2.58131 3.2
      vertex 2.11201 3.46322 6.2
      vertex 2.11201 3.46322 3.2
    endloop
  endfacet
  facet normal -1 -0 0
    outer loop
      vertex 2.11201 3.46322 6.2
      vertex 2.11201 2.58131 3.2
      vertex 2.11201 2.58131 6.2
    endloop
  endfacet
  facet normal -0.316722 -0.948518 0
    outer loop
      vertex 1.84712 3.55167 3.2
      vertex 2.11201 3.46322 6.2
      vertex 1.84712 3.55167 6.2
    endloop
  endfacet
  facet normal -0.316722 -0.948518 -0
    outer loop
      vertex 2.11201 3.46322 6.2
      vertex 1.84712 3.55167 3.2
      vertex 2.11201 3.46322 3.2
    endloop
  endfacet
  facet normal -0.270065 -0.962842 0
    outer loop
      vertex 1.58914 3.62403 3.2
      vertex 1.84712 3.55167 6.2
      vertex 1.58914 3.62403 6.2
    endloop
  endfacet
  facet normal -0.270065 -0.962842 -0
    outer loop
      vertex 1.84712 3.55167 6.2
      vertex 1.58914 3.62403 3.2
      vertex 1.84712 3.55167 3.2
    endloop
  endfacet
  facet normal -0.218696 -0.975793 0
    outer loop
      vertex 1.33807 3.6803 3.2
      vertex 1.58914 3.62403 6.2
      vertex 1.33807 3.6803 6.2
    endloop
  endfacet
  facet normal -0.218696 -0.975793 -0
    outer loop
      vertex 1.58914 3.62403 6.2
      vertex 1.33807 3.6803 3.2
      vertex 1.58914 3.62403 3.2
    endloop
  endfacet
  facet normal -0.160818 -0.986984 0
    outer loop
      vertex 1.09129 3.72051 3.2
      vertex 1.33807 3.6803 6.2
      vertex 1.09129 3.72051 6.2
    endloop
  endfacet
  facet normal -0.160818 -0.986984 -0
    outer loop
      vertex 1.33807 3.6803 6.2
      vertex 1.09129 3.72051 3.2
      vertex 1.33807 3.6803 3.2
    endloop
  endfacet
  facet normal -0.0979403 -0.995192 0
    outer loop
      vertex 0.8461 3.74464 3.2
      vertex 1.09129 3.72051 6.2
      vertex 0.8461 3.74464 6.2
    endloop
  endfacet
  facet normal -0.0979403 -0.995192 -0
    outer loop
      vertex 1.09129 3.72051 6.2
      vertex 0.8461 3.74464 3.2
      vertex 1.09129 3.72051 3.2
    endloop
  endfacet
  facet normal -0.032986 -0.999456 0
    outer loop
      vertex 0.602493 3.75268 3.2
      vertex 0.8461 3.74464 6.2
      vertex 0.602493 3.75268 6.2
    endloop
  endfacet
  facet normal -0.032986 -0.999456 -0
    outer loop
      vertex 0.8461 3.74464 6.2
      vertex 0.602493 3.75268 3.2
      vertex 0.8461 3.74464 3.2
    endloop
  endfacet
  facet normal 0.131884 -0.991265 0
    outer loop
      vertex -0.240372 3.64054 3.2
      vertex 0.602493 3.75268 6.2
      vertex -0.240372 3.64054 6.2
    endloop
  endfacet
  facet normal 0.131884 -0.991265 0
    outer loop
      vertex 0.602493 3.75268 6.2
      vertex -0.240372 3.64054 3.2
      vertex 0.602493 3.75268 3.2
    endloop
  endfacet
  facet normal 0.4231 -0.906083 0
    outer loop
      vertex -0.960785 3.30414 3.2
      vertex -0.240372 3.64054 6.2
      vertex -0.960785 3.30414 6.2
    endloop
  endfacet
  facet normal 0.4231 -0.906083 0
    outer loop
      vertex -0.240372 3.64054 6.2
      vertex -0.960785 3.30414 3.2
      vertex -0.240372 3.64054 3.2
    endloop
  endfacet
  facet normal 0.683973 -0.729508 0
    outer loop
      vertex -1.55876 2.74349 3.2
      vertex -0.960785 3.30414 6.2
      vertex -1.55876 2.74349 6.2
    endloop
  endfacet
  facet normal 0.683973 -0.729508 0
    outer loop
      vertex -0.960785 3.30414 6.2
      vertex -1.55876 2.74349 3.2
      vertex -0.960785 3.30414 3.2
    endloop
  endfacet
  facet normal 0.858656 -0.512553 0
    outer loop
      vertex -2.006 1.99425 6.2
      vertex -1.55876 2.74349 3.2
      vertex -1.55876 2.74349 6.2
    endloop
  endfacet
  facet normal 0.858656 -0.512553 0
    outer loop
      vertex -1.55876 2.74349 3.2
      vertex -2.006 1.99425 6.2
      vertex -2.006 1.99425 3.2
    endloop
  endfacet
  facet normal 0.958494 -0.285112 0
    outer loop
      vertex -2.27434 1.09214 6.2
      vertex -2.006 1.99425 3.2
      vertex -2.006 1.99425 6.2
    endloop
  endfacet
  facet normal 0.958494 -0.285112 0
    outer loop
      vertex -2.006 1.99425 3.2
      vertex -2.27434 1.09214 6.2
      vertex -2.27434 1.09214 3.2
    endloop
  endfacet
  facet normal 0.996426 -0.084476 0
    outer loop
      vertex -2.36378 0.0371618 6.2
      vertex -2.27434 1.09214 3.2
      vertex -2.27434 1.09214 6.2
    endloop
  endfacet
  facet normal 0.996426 -0.084476 0
    outer loop
      vertex -2.27434 1.09214 3.2
      vertex -2.36378 0.0371618 6.2
      vertex -2.36378 0.0371618 3.2
    endloop
  endfacet
  facet normal 0.997848 0.0655683 0
    outer loop
      vertex -2.29085 -1.07272 6.2
      vertex -2.36378 0.0371618 3.2
      vertex -2.36378 0.0371618 6.2
    endloop
  endfacet
  facet normal 0.997848 0.0655683 0
    outer loop
      vertex -2.36378 0.0371618 3.2
      vertex -2.29085 -1.07272 6.2
      vertex -2.29085 -1.07272 3.2
    endloop
  endfacet
  facet normal 0.97284 0.231477 0
    outer loop
      vertex -2.07202 -1.99241 6.2
      vertex -2.29085 -1.07272 3.2
      vertex -2.29085 -1.07272 6.2
    endloop
  endfacet
  facet normal 0.97284 0.231477 0
    outer loop
      vertex -2.29085 -1.07272 3.2
      vertex -2.07202 -1.99241 6.2
      vertex -2.07202 -1.99241 3.2
    endloop
  endfacet
  facet normal 0.894447 0.447174 0
    outer loop
      vertex -1.70729 -2.72195 6.2
      vertex -2.07202 -1.99241 3.2
      vertex -2.07202 -1.99241 6.2
    endloop
  endfacet
  facet normal 0.894447 0.447174 0
    outer loop
      vertex -2.07202 -1.99241 3.2
      vertex -1.70729 -2.72195 6.2
      vertex -1.70729 -2.72195 3.2
    endloop
  endfacet
  facet normal 0.724716 0.689047 0
    outer loop
      vertex -1.20464 -3.25062 6.2
      vertex -1.70729 -2.72195 3.2
      vertex -1.70729 -2.72195 6.2
    endloop
  endfacet
  facet normal 0.724716 0.689047 0
    outer loop
      vertex -1.70729 -2.72195 3.2
      vertex -1.20464 -3.25062 6.2
      vertex -1.20464 -3.25062 3.2
    endloop
  endfacet
  facet normal 0.448232 0.893917 -0
    outer loop
      vertex -0.572083 -3.5678 3.2
      vertex -1.20464 -3.25062 6.2
      vertex -0.572083 -3.5678 6.2
    endloop
  endfacet
  facet normal 0.448232 0.893917 0
    outer loop
      vertex -1.20464 -3.25062 6.2
      vertex -0.572083 -3.5678 3.2
      vertex -1.20464 -3.25062 3.2
    endloop
  endfacet
  facet normal 0.137357 0.990522 -0
    outer loop
      vertex 0.190369 -3.67353 3.2
      vertex -0.572083 -3.5678 6.2
      vertex 0.190369 -3.67353 6.2
    endloop
  endfacet
  facet normal 0.137357 0.990522 0
    outer loop
      vertex -0.572083 -3.5678 6.2
      vertex 0.190369 -3.67353 3.2
      vertex -0.572083 -3.5678 3.2
    endloop
  endfacet
  facet normal -0.109193 0.994021 0
    outer loop
      vertex 0.864471 -3.59948 3.2
      vertex 0.190369 -3.67353 6.2
      vertex 0.864471 -3.59948 6.2
    endloop
  endfacet
  facet normal -0.109193 0.994021 0
    outer loop
      vertex 0.190369 -3.67353 6.2
      vertex 0.864471 -3.59948 3.2
      vertex 0.190369 -3.67353 3.2
    endloop
  endfacet
  facet normal -0.39778 -0.917481 0
    outer loop
      vertex -0.558212 -2.7057 3.2
      vertex -0.213989 -2.85494 6.2
      vertex -0.558212 -2.7057 6.2
    endloop
  endfacet
  facet normal -0.39778 -0.917481 -0
    outer loop
      vertex -0.213989 -2.85494 6.2
      vertex -0.558212 -2.7057 3.2
      vertex -0.213989 -2.85494 3.2
    endloop
  endfacet
  facet normal -0.658803 -0.752315 0
    outer loop
      vertex -0.84227 -2.45695 3.2
      vertex -0.558212 -2.7057 6.2
      vertex -0.84227 -2.45695 6.2
    endloop
  endfacet
  facet normal -0.658803 -0.752315 -0
    outer loop
      vertex -0.558212 -2.7057 6.2
      vertex -0.84227 -2.45695 3.2
      vertex -0.558212 -2.7057 3.2
    endloop
  endfacet
  facet normal -0.84503 -0.534719 0
    outer loop
      vertex -0.84227 -2.45695 3.2
      vertex -1.05391 -2.12249 6.2
      vertex -1.05391 -2.12249 3.2
    endloop
  endfacet
  facet normal -0.84503 -0.534719 0
    outer loop
      vertex -1.05391 -2.12249 6.2
      vertex -0.84227 -2.45695 3.2
      vertex -0.84227 -2.45695 6.2
    endloop
  endfacet
  facet normal -0.954455 -0.298355 0
    outer loop
      vertex -1.05391 -2.12249 3.2
      vertex -1.18091 -1.71621 6.2
      vertex -1.18091 -1.71621 3.2
    endloop
  endfacet
  facet normal -0.954455 -0.298355 0
    outer loop
      vertex -1.18091 -1.71621 6.2
      vertex -1.05391 -2.12249 3.2
      vertex -1.05391 -2.12249 6.2
    endloop
  endfacet
  facet normal -0.996104 -0.0881893 0
    outer loop
      vertex -1.18091 -1.71621 3.2
      vertex -1.22324 -1.23809 6.2
      vertex -1.22324 -1.23809 3.2
    endloop
  endfacet
  facet normal -0.996104 -0.0881893 0
    outer loop
      vertex -1.22324 -1.23809 6.2
      vertex -1.18091 -1.71621 3.2
      vertex -1.18091 -1.71621 6.2
    endloop
  endfacet
  facet normal -0.996142 0.0877533 0
    outer loop
      vertex -1.22324 -1.23809 3.2
      vertex -1.18091 -0.757576 6.2
      vertex -1.18091 -0.757576 3.2
    endloop
  endfacet
  facet normal -0.996142 0.0877533 0
    outer loop
      vertex -1.18091 -0.757576 6.2
      vertex -1.22324 -1.23809 3.2
      vertex -1.22324 -1.23809 6.2
    endloop
  endfacet
  facet normal -0.954617 0.297835 0
    outer loop
      vertex -1.18091 -0.757576 3.2
      vertex -1.05391 -0.350517 6.2
      vertex -1.05391 -0.350517 3.2
    endloop
  endfacet
  facet normal -0.954617 0.297835 0
    outer loop
      vertex -1.05391 -0.350517 6.2
      vertex -1.18091 -0.757576 3.2
      vertex -1.18091 -0.757576 6.2
    endloop
  endfacet
  facet normal -0.84442 0.535682 0
    outer loop
      vertex -1.05391 -0.350517 3.2
      vertex -0.84227 -0.0168991 6.2
      vertex -0.84227 -0.0168991 3.2
    endloop
  endfacet
  facet normal -0.84442 0.535682 0
    outer loop
      vertex -0.84227 -0.0168991 6.2
      vertex -1.05391 -0.350517 3.2
      vertex -1.05391 -0.350517 6.2
    endloop
  endfacet
  facet normal -0.65685 0.754021 0
    outer loop
      vertex -0.558212 0.230552 3.2
      vertex -0.84227 -0.0168991 6.2
      vertex -0.558212 0.230552 6.2
    endloop
  endfacet
  facet normal -0.65685 0.754021 0
    outer loop
      vertex -0.84227 -0.0168991 6.2
      vertex -0.558212 0.230552 3.2
      vertex -0.84227 -0.0168991 3.2
    endloop
  endfacet
  facet normal -0.396045 0.918231 0
    outer loop
      vertex -0.213989 0.37902 3.2
      vertex -0.558212 0.230552 6.2
      vertex -0.213989 0.37902 6.2
    endloop
  endfacet
  facet normal -0.396045 0.918231 0
    outer loop
      vertex -0.558212 0.230552 6.2
      vertex -0.213989 0.37902 3.2
      vertex -0.558212 0.230552 3.2
    endloop
  endfacet
  facet normal -0.121507 0.992591 0
    outer loop
      vertex 0.190369 0.428519 3.2
      vertex -0.213989 0.37902 6.2
      vertex 0.190369 0.428519 6.2
    endloop
  endfacet
  facet normal -0.121507 0.992591 0
    outer loop
      vertex -0.213989 0.37902 6.2
      vertex 0.190369 0.428519 3.2
      vertex -0.213989 0.37902 3.2
    endloop
  endfacet
  facet normal 0.121489 0.992593 -0
    outer loop
      vertex 0.594788 0.37902 3.2
      vertex 0.190369 0.428519 6.2
      vertex 0.594788 0.37902 6.2
    endloop
  endfacet
  facet normal 0.121489 0.992593 0
    outer loop
      vertex 0.190369 0.428519 6.2
      vertex 0.594788 0.37902 3.2
      vertex 0.190369 0.428519 3.2
    endloop
  endfacet
  facet normal 0.396031 0.918237 -0
    outer loop
      vertex 0.939026 0.230552 3.2
      vertex 0.594788 0.37902 6.2
      vertex 0.939026 0.230552 6.2
    endloop
  endfacet
  facet normal 0.396031 0.918237 0
    outer loop
      vertex 0.594788 0.37902 6.2
      vertex 0.939026 0.230552 3.2
      vertex 0.594788 0.37902 3.2
    endloop
  endfacet
  facet normal 0.656829 0.75404 -0
    outer loop
      vertex 1.2231 -0.0168991 3.2
      vertex 0.939026 0.230552 6.2
      vertex 1.2231 -0.0168991 6.2
    endloop
  endfacet
  facet normal 0.656829 0.75404 0
    outer loop
      vertex 0.939026 0.230552 6.2
      vertex 1.2231 -0.0168991 3.2
      vertex 0.939026 0.230552 3.2
    endloop
  endfacet
  facet normal 0.84442 0.535682 0
    outer loop
      vertex 1.43474 -0.350517 6.2
      vertex 1.2231 -0.0168991 3.2
      vertex 1.2231 -0.0168991 6.2
    endloop
  endfacet
  facet normal 0.84442 0.535682 0
    outer loop
      vertex 1.2231 -0.0168991 3.2
      vertex 1.43474 -0.350517 6.2
      vertex 1.43474 -0.350517 3.2
    endloop
  endfacet
  facet normal 0.954631 0.297792 0
    outer loop
      vertex 1.56172 -0.757576 6.2
      vertex 1.43474 -0.350517 3.2
      vertex 1.43474 -0.350517 6.2
    endloop
  endfacet
  facet normal 0.954631 0.297792 0
    outer loop
      vertex 1.43474 -0.350517 3.2
      vertex 1.56172 -0.757576 6.2
      vertex 1.56172 -0.757576 3.2
    endloop
  endfacet
  facet normal 0.996142 0.0877533 0
    outer loop
      vertex 1.60405 -1.23809 6.2
      vertex 1.56172 -0.757576 3.2
      vertex 1.56172 -0.757576 6.2
    endloop
  endfacet
  facet normal 0.996142 0.0877533 0
    outer loop
      vertex 1.56172 -0.757576 3.2
      vertex 1.60405 -1.23809 6.2
      vertex 1.60405 -1.23809 3.2
    endloop
  endfacet
  facet normal 0.996104 -0.0881893 0
    outer loop
      vertex 1.56172 -1.71621 6.2
      vertex 1.60405 -1.23809 3.2
      vertex 1.60405 -1.23809 6.2
    endloop
  endfacet
  facet normal 0.996104 -0.0881893 0
    outer loop
      vertex 1.60405 -1.23809 3.2
      vertex 1.56172 -1.71621 6.2
      vertex 1.56172 -1.71621 3.2
    endloop
  endfacet
  facet normal 0.954468 -0.298312 0
    outer loop
      vertex 1.43474 -2.12249 6.2
      vertex 1.56172 -1.71621 3.2
      vertex 1.56172 -1.71621 6.2
    endloop
  endfacet
  facet normal 0.954468 -0.298312 0
    outer loop
      vertex 1.56172 -1.71621 3.2
      vertex 1.43474 -2.12249 6.2
      vertex 1.43474 -2.12249 3.2
    endloop
  endfacet
  facet normal 0.84503 -0.534719 0
    outer loop
      vertex 1.2231 -2.45695 6.2
      vertex 1.43474 -2.12249 3.2
      vertex 1.43474 -2.12249 6.2
    endloop
  endfacet
  facet normal 0.84503 -0.534719 0
    outer loop
      vertex 1.43474 -2.12249 3.2
      vertex 1.2231 -2.45695 6.2
      vertex 1.2231 -2.45695 3.2
    endloop
  endfacet
  facet normal 0.658782 -0.752334 0
    outer loop
      vertex 0.939026 -2.7057 3.2
      vertex 1.2231 -2.45695 6.2
      vertex 0.939026 -2.7057 6.2
    endloop
  endfacet
  facet normal 0.658782 -0.752334 0
    outer loop
      vertex 1.2231 -2.45695 6.2
      vertex 0.939026 -2.7057 3.2
      vertex 1.2231 -2.45695 3.2
    endloop
  endfacet
  facet normal 0.397765 -0.917487 0
    outer loop
      vertex 0.594788 -2.85494 3.2
      vertex 0.939026 -2.7057 6.2
      vertex 0.594788 -2.85494 6.2
    endloop
  endfacet
  facet normal 0.397765 -0.917487 0
    outer loop
      vertex 0.939026 -2.7057 6.2
      vertex 0.594788 -2.85494 3.2
      vertex 0.939026 -2.7057 3.2
    endloop
  endfacet
  facet normal 0.122096 -0.992518 0
    outer loop
      vertex 0.190369 -2.90469 3.2
      vertex 0.594788 -2.85494 6.2
      vertex 0.190369 -2.90469 6.2
    endloop
  endfacet
  facet normal 0.122096 -0.992518 0
    outer loop
      vertex 0.594788 -2.85494 6.2
      vertex 0.190369 -2.90469 3.2
      vertex 0.594788 -2.85494 3.2
    endloop
  endfacet
  facet normal -0.122114 -0.992516 0
    outer loop
      vertex -0.213989 -2.85494 3.2
      vertex 0.190369 -2.90469 6.2
      vertex -0.213989 -2.85494 6.2
    endloop
  endfacet
  facet normal -0.122114 -0.992516 -0
    outer loop
      vertex 0.190369 -2.90469 6.2
      vertex -0.213989 -2.85494 3.2
      vertex 0.190369 -2.90469 3.2
    endloop
  endfacet
  facet normal -1 0 0
    outer loop
      vertex 3.53333 -6.36 3.2
      vertex 3.53333 -5.36 6.2
      vertex 3.53333 -5.36 3.2
    endloop
  endfacet
  facet normal -1 -0 0
    outer loop
      vertex 3.53333 -5.36 6.2
      vertex 3.53333 -6.36 3.2
      vertex 3.53333 -6.36 6.2
    endloop
  endfacet
  facet normal -0 0 1
    outer loop
      vertex -3.53333 -5.36 3.2
      vertex 3.53333 -6.36 3.2
      vertex 3.53333 -5.36 3.2
    endloop
  endfacet
  facet normal 0 0 1
    outer loop
      vertex 3.53333 -6.36 3.2
      vertex -3.53333 -5.36 3.2
      vertex -3.53333 -6.36 3.2
    endloop
  endfacet
  facet normal 1 -0 0
    outer loop
      vertex -3.53333 -6.36 6.2
      vertex -3.53333 -5.36 3.2
      vertex -3.53333 -5.36 6.2
    endloop
  endfacet
  facet normal 1 0 0
    outer loop
      vertex -3.53333 -5.36 3.2
      vertex -3.53333 -6.36 6.2
      vertex -3.53333 -6.36 3.2
    endloop
  endfacet
  facet normal 0 -1 0
    outer loop
      vertex -3.53333 -5.36 3.2
      vertex 3.53333 -5.36 6.2
      vertex -3.53333 -5.36 6.2
    endloop
  endfacet
  facet normal 0 -1 -0
    outer loop
      vertex 3.53333 -5.36 6.2
      vertex -3.53333 -5.36 3.2
      vertex 3.53333 -5.36 3.2
    endloop
  endfacet
  facet normal 0 1 -0
    outer loop
      vertex 3.53333 -6.36 3.2
      vertex -3.53333 -6.36 6.2
      vertex 3.53333 -6.36 6.2
    endloop
  endfacet
  facet normal 0 1 0
    outer loop
      vertex -3.53333 -6.36 6.2
      vertex 3.53333 -6.36 3.2
      vertex -3.53333 -6.36 3.2
    endloop
  endfacet
  facet normal -0.866025 0.500001 0
    outer loop
      vertex -8.66667 0 0
      vertex -4.33333 7.50555 6.2
      vertex -4.33333 7.50555 0
    endloop
  endfacet
  facet normal -0.866025 0.500001 0
    outer loop
      vertex -4.33333 7.50555 6.2
      vertex -8.66667 0 0
      vertex -8.66667 0 6.2
    endloop
  endfacet
  facet normal 0 0 -1
    outer loop
      vertex 4.33333 -7.50555 0
      vertex 4.33333 7.50555 0
      vertex 8.66667 0 0
    endloop
  endfacet
  facet normal 0 0 -1
    outer loop
      vertex -4.33333 -7.50555 0
      vertex 4.33333 7.50555 0
      vertex 4.33333 -7.50555 0
    endloop
  endfacet
  facet normal 0 0 -1
    outer loop
      vertex -4.33333 -7.50555 0
      vertex -4.33333 7.50555 0
      vertex 4.33333 7.50555 0
    endloop
  endfacet
  facet normal 0 -0 -1
    outer loop
      vertex -4.33333 7.50555 0
      vertex -4.33333 -7.50555 0
      vertex -8.66667 0 0
    endloop
  endfacet
  facet normal 0.866025 -0.500001 0
    outer loop
      vertex 4.33333 -7.50555 6.2
      vertex 8.66667 0 0
      vertex 8.66667 0 6.2
    endloop
  endfacet
  facet normal 0.866025 -0.500001 0
    outer loop
      vertex 8.66667 0 0
      vertex 4.33333 -7.50555 6.2
      vertex 4.33333 -7.50555 0
    endloop
  endfacet
  facet normal -0 0 1
    outer loop
      vertex 2.11201 3.46322 6.2
      vertex 8.66667 0 6.2
      vertex 4.33333 7.50555 6.2
    endloop
  endfacet
  facet normal 0 0 1
    outer loop
      vertex 8.66667 0 6.2
      vertex 3.53333 -5.36 6.2
      vertex 4.33333 -7.50555 6.2
    endloop
  endfacet
  facet normal 0 0 1
    outer loop
      vertex 2.50444 -1.92474 6.2
      vertex 8.66667 0 6.2
      vertex 2.57686 -1.23809 6.2
    endloop
  endfacet
  facet normal 0 0 1
    outer loop
      vertex 8.66667 0 6.2
      vertex 2.50737 -0.539467 6.2
      vertex 2.57686 -1.23809 6.2
    endloop
  endfacet
  facet normal -0 -0 1
    outer loop
      vertex 2.2989 0.0542059 6.2
      vertex 8.66667 0 6.2
      vertex 2.11201 2.58131 6.2
    endloop
  endfacet
  facet normal 0 0 1
    outer loop
      vertex 8.66667 0 6.2
      vertex 2.11201 3.46322 6.2
      vertex 2.11201 2.58131 6.2
    endloop
  endfacet
  facet normal 0 0 1
    outer loop
      vertex 4.33333 7.50555 6.2
      vertex 1.84712 3.55167 6.2
      vertex 2.11201 3.46322 6.2
    endloop
  endfacet
  facet normal 0 0 1
    outer loop
      vertex 4.33333 7.50555 6.2
      vertex 1.58914 3.62403 6.2
      vertex 1.84712 3.55167 6.2
    endloop
  endfacet
  facet normal 0 0 1
    outer loop
      vertex 4.33333 7.50555 6.2
      vertex 1.33807 3.6803 6.2
      vertex 1.58914 3.62403 6.2
    endloop
  endfacet
  facet normal 0 0 1
    outer loop
      vertex 4.33333 7.50555 6.2
      vertex 1.09129 3.72051 6.2
      vertex 1.33807 3.6803 6.2
    endloop
  endfacet
  facet normal 0 0 1
    outer loop
      vertex 4.33333 7.50555 6.2
      vertex 0.8461 3.74464 6.2
      vertex 1.09129 3.72051 6.2
    endloop
  endfacet
  facet normal 0 0 1
    outer loop
      vertex 4.33333 7.50555 6.2
      vertex 0.602493 3.75268 6.2
      vertex 0.8461 3.74464 6.2
    endloop
  endfacet
  facet normal -0 0 1
    outer loop
      vertex -4.33333 7.50555 6.2
      vertex 0.602493 3.75268 6.2
      vertex 4.33333 7.50555 6.2
    endloop
  endfacet
  facet normal 0 0 1
    outer loop
      vertex 0.602493 3.75268 6.2
      vertex -4.33333 7.50555 6.2
      vertex -0.240372 3.64054 6.2
    endloop
  endfacet
  facet normal 0 0 1
    outer loop
      vertex -8.66667 0 6.2
      vertex -2.36378 0.0371618 6.2
      vertex -2.27434 1.09214 6.2
    endloop
  endfacet
  facet normal 0 0 1
    outer loop
      vertex -2.36378 0.0371618 6.2
      vertex -8.66667 0 6.2
      vertex -3.53333 -5.36 6.2
    endloop
  endfacet
  facet normal 0 0 1
    outer loop
      vertex -2.006 1.99425 6.2
      vertex -8.66667 0 6.2
      vertex -2.27434 1.09214 6.2
    endloop
  endfacet
  facet normal 0 0 1
    outer loop
      vertex -8.66667 0 6.2
      vertex -2.006 1.99425 6.2
      vertex -4.33333 7.50555 6.2
    endloop
  endfacet
  facet normal 0 0 1
    outer loop
      vertex -1.55876 2.74349 6.2
      vertex -4.33333 7.50555 6.2
      vertex -2.006 1.99425 6.2
    endloop
  endfacet
  facet normal 0 0 1
    outer loop
      vertex -0.960785 3.30414 6.2
      vertex -4.33333 7.50555 6.2
      vertex -1.55876 2.74349 6.2
    endloop
  endfacet
  facet normal 0 0 1
    outer loop
      vertex -0.240372 3.64054 6.2
      vertex -4.33333 7.50555 6.2
      vertex -0.960785 3.30414 6.2
    endloop
  endfacet
  facet normal -0 0 1
    outer loop
      vertex 3.53333 -6.36 6.2
      vertex 4.33333 -7.50555 6.2
      vertex 3.53333 -5.36 6.2
    endloop
  endfacet
  facet normal -0 0 1
    outer loop
      vertex -3.53333 -6.36 6.2
      vertex 4.33333 -7.50555 6.2
      vertex 3.53333 -6.36 6.2
    endloop
  endfacet
  facet normal 0 0 1
    outer loop
      vertex -3.53333 -6.36 6.2
      vertex -4.33333 -7.50555 6.2
      vertex 4.33333 -7.50555 6.2
    endloop
  endfacet
  facet normal 0 -0 1
    outer loop
      vertex -4.33333 -7.50555 6.2
      vertex -3.53333 -5.36 6.2
      vertex -8.66667 0 6.2
    endloop
  endfacet
  facet normal 0 0 1
    outer loop
      vertex -3.53333 -5.36 6.2
      vertex -4.33333 -7.50555 6.2
      vertex -3.53333 -6.36 6.2
    endloop
  endfacet
  facet normal 0 0 1
    outer loop
      vertex 8.66667 0 6.2
      vertex 2.50444 -1.92474 6.2
      vertex 3.53333 -5.36 6.2
    endloop
  endfacet
  facet normal -0 0 1
    outer loop
      vertex 2.28719 -2.51443 6.2
      vertex 3.53333 -5.36 6.2
      vertex 2.50444 -1.92474 6.2
    endloop
  endfacet
  facet normal -0 0 1
    outer loop
      vertex 1.92509 -3.00716 6.2
      vertex 3.53333 -5.36 6.2
      vertex 2.28719 -2.51443 6.2
    endloop
  endfacet
  facet normal -0 0 1
    outer loop
      vertex 1.4427 -3.37737 6.2
      vertex 3.53333 -5.36 6.2
      vertex 1.92509 -3.00716 6.2
    endloop
  endfacet
  facet normal -0 0 1
    outer loop
      vertex 0.864471 -3.59948 6.2
      vertex 3.53333 -5.36 6.2
      vertex 1.4427 -3.37737 6.2
    endloop
  endfacet
  facet normal -0 0 1
    outer loop
      vertex 0.190369 -3.67353 6.2
      vertex 3.53333 -5.36 6.2
      vertex 0.864471 -3.59948 6.2
    endloop
  endfacet
  facet normal 0 0 1
    outer loop
      vertex -3.53333 -5.36 6.2
      vertex 0.190369 -3.67353 6.2
      vertex -0.572083 -3.5678 6.2
    endloop
  endfacet
  facet normal 0 0 1
    outer loop
      vertex 0.190369 -3.67353 6.2
      vertex -3.53333 -5.36 6.2
      vertex 3.53333 -5.36 6.2
    endloop
  endfacet
  facet normal 0 0 1
    outer loop
      vertex -1.20464 -3.25062 6.2
      vertex -3.53333 -5.36 6.2
      vertex -0.572083 -3.5678 6.2
    endloop
  endfacet
  facet normal 0 0 1
    outer loop
      vertex -1.70729 -2.72195 6.2
      vertex -3.53333 -5.36 6.2
      vertex -1.20464 -3.25062 6.2
    endloop
  endfacet
  facet normal 0 0 1
    outer loop
      vertex -2.07202 -1.99241 6.2
      vertex -3.53333 -5.36 6.2
      vertex -1.70729 -2.72195 6.2
    endloop
  endfacet
  facet normal 0 0 1
    outer loop
      vertex -2.29085 -1.07272 6.2
      vertex -3.53333 -5.36 6.2
      vertex -2.07202 -1.99241 6.2
    endloop
  endfacet
  facet normal 0 0 1
    outer loop
      vertex -3.53333 -5.36 6.2
      vertex -2.29085 -1.07272 6.2
      vertex -2.36378 0.0371618 6.2
    endloop
  endfacet
  facet normal 0 0 1
    outer loop
      vertex 8.66667 0 6.2
      vertex 2.2989 0.0542059 6.2
      vertex 2.50737 -0.539467 6.2
    endloop
  endfacet
  facet normal 0 0 1
    outer loop
      vertex 2.11201 2.58131 6.2
      vertex 1.95146 0.54293 6.2
      vertex 2.2989 0.0542059 6.2
    endloop
  endfacet
  facet normal 0 0 1
    outer loop
      vertex 1.48425 0.906501 6.2
      vertex 2.11201 2.58131 6.2
      vertex 1.86839 2.68807 6.2
    endloop
  endfacet
  facet normal 0 0 1
    outer loop
      vertex 0.916397 1.12466 6.2
      vertex 1.86839 2.68807 6.2
      vertex 1.62318 2.7766 6.2
    endloop
  endfacet
  facet normal 0 0 1
    outer loop
      vertex 2.11201 2.58131 6.2
      vertex 1.48425 0.906501 6.2
      vertex 1.95146 0.54293 6.2
    endloop
  endfacet
  facet normal 0 0 1
    outer loop
      vertex 0.916397 1.12466 6.2
      vertex 1.62318 2.7766 6.2
      vertex 1.37637 2.84687 6.2
    endloop
  endfacet
  facet normal 0 0 1
    outer loop
      vertex 0.916397 1.12466 6.2
      vertex 1.37637 2.84687 6.2
      vertex 1.12961 2.89783 6.2
    endloop
  endfacet
  facet normal 0 0 1
    outer loop
      vertex 1.86839 2.68807 6.2
      vertex 0.916397 1.12466 6.2
      vertex 1.48425 0.906501 6.2
    endloop
  endfacet
  facet normal 0 0 1
    outer loop
      vertex 0.88443 2.9284 6.2
      vertex 0.916397 1.12466 6.2
      vertex 1.12961 2.89783 6.2
    endloop
  endfacet
  facet normal 0 0 1
    outer loop
      vertex 0.640869 2.93859 6.2
      vertex 0.916397 1.12466 6.2
      vertex 0.88443 2.9284 6.2
    endloop
  endfacet
  facet normal 0 0 1
    outer loop
      vertex 0.640869 2.93859 6.2
      vertex 0.247894 1.19736 6.2
      vertex 0.916397 1.12466 6.2
    endloop
  endfacet
  facet normal -0 0 1
    outer loop
      vertex 0.0522308 2.86661 6.2
      vertex 0.247894 1.19736 6.2
      vertex 0.640869 2.93859 6.2
    endloop
  endfacet
  facet normal -0 0 1
    outer loop
      vertex -0.43576 2.65066 6.2
      vertex 0.247894 1.19736 6.2
      vertex 0.0522308 2.86661 6.2
    endloop
  endfacet
  facet normal 0 0 1
    outer loop
      vertex 0.247894 1.19736 6.2
      vertex -0.43576 2.65066 6.2
      vertex -0.0843353 1.17255 6.2
    endloop
  endfacet
  facet normal -0 0 1
    outer loop
      vertex -0.82312 2.29072 6.2
      vertex -0.0843353 1.17255 6.2
      vertex -0.43576 2.65066 6.2
    endloop
  endfacet
  facet normal 0 0 1
    outer loop
      vertex -0.0843353 1.17255 6.2
      vertex -0.82312 2.29072 6.2
      vertex -0.397415 1.09809 6.2
    endloop
  endfacet
  facet normal -0 0 1
    outer loop
      vertex -1.11197 1.78522 6.2
      vertex -0.397415 1.09809 6.2
      vertex -0.82312 2.29072 6.2
    endloop
  endfacet
  facet normal 0 0 1
    outer loop
      vertex -0.397415 1.09809 6.2
      vertex -1.11197 1.78522 6.2
      vertex -0.69133 0.97399 6.2
    endloop
  endfacet
  facet normal -0 0 1
    outer loop
      vertex -1.30443 1.13258 6.2
      vertex -0.69133 0.97399 6.2
      vertex -1.11197 1.78522 6.2
    endloop
  endfacet
  facet normal 0 0 1
    outer loop
      vertex -0.69133 0.97399 6.2
      vertex -1.30443 1.13258 6.2
      vertex -0.959671 0.803489 6.2
    endloop
  endfacet
  facet normal 0 0 1
    outer loop
      vertex -0.959671 0.803489 6.2
      vertex -1.30443 1.13258 6.2
      vertex -1.19608 0.589759 6.2
    endloop
  endfacet
  facet normal 0 0 1
    outer loop
      vertex -1.19608 0.589759 6.2
      vertex -1.30443 1.13258 6.2
      vertex -1.40053 0.332755 6.2
    endloop
  endfacet
  facet normal 0 0 1
    outer loop
      vertex -1.22324 -1.23809 6.2
      vertex 1.60405 -1.23809 6.2
      vertex 1.56172 -0.757576 6.2
    endloop
  endfacet
  facet normal 0 0 1
    outer loop
      vertex -1.18091 -0.757576 6.2
      vertex 1.56172 -0.757576 6.2
      vertex 1.43474 -0.350517 6.2
    endloop
  endfacet
  facet normal 0 0 1
    outer loop
      vertex 1.60405 -1.23809 6.2
      vertex -1.22324 -1.23809 6.2
      vertex 1.56172 -1.71621 6.2
    endloop
  endfacet
  facet normal 0 0 1
    outer loop
      vertex 0.190369 0.428519 6.2
      vertex 1.43474 -0.350517 6.2
      vertex 1.2231 -0.0168991 6.2
    endloop
  endfacet
  facet normal 0 -0 1
    outer loop
      vertex -1.18091 -1.71621 6.2
      vertex 1.56172 -1.71621 6.2
      vertex -1.22324 -1.23809 6.2
    endloop
  endfacet
  facet normal 0 0 1
    outer loop
      vertex 0.594788 0.37902 6.2
      vertex 1.2231 -0.0168991 6.2
      vertex 0.939026 0.230552 6.2
    endloop
  endfacet
  facet normal 0 0 1
    outer loop
      vertex 1.56172 -1.71621 6.2
      vertex -1.18091 -1.71621 6.2
      vertex 1.43474 -2.12249 6.2
    endloop
  endfacet
  facet normal 0 0 1
    outer loop
      vertex 0.190369 0.428519 6.2
      vertex 1.2231 -0.0168991 6.2
      vertex 0.594788 0.37902 6.2
    endloop
  endfacet
  facet normal 0 -0 1
    outer loop
      vertex 0.190369 -2.90469 6.2
      vertex 1.43474 -2.12249 6.2
      vertex -1.18091 -1.71621 6.2
    endloop
  endfacet
  facet normal 0 0 1
    outer loop
      vertex 1.43474 -0.350517 6.2
      vertex 0.190369 0.428519 6.2
      vertex -1.18091 -0.757576 6.2
    endloop
  endfacet
  facet normal 0 0 1
    outer loop
      vertex 1.43474 -2.12249 6.2
      vertex 0.190369 -2.90469 6.2
      vertex 1.2231 -2.45695 6.2
    endloop
  endfacet
  facet normal 0 0 1
    outer loop
      vertex -1.05391 -0.350517 6.2
      vertex 0.190369 0.428519 6.2
      vertex -0.213989 0.37902 6.2
    endloop
  endfacet
  facet normal 0 0 1
    outer loop
      vertex 1.2231 -2.45695 6.2
      vertex 0.594788 -2.85494 6.2
      vertex 0.939026 -2.7057 6.2
    endloop
  endfacet
  facet normal 0 0 1
    outer loop
      vertex -0.84227 -0.0168991 6.2
      vertex -0.213989 0.37902 6.2
      vertex -0.558212 0.230552 6.2
    endloop
  endfacet
  facet normal 0 0 1
    outer loop
      vertex 1.2231 -2.45695 6.2
      vertex 0.190369 -2.90469 6.2
      vertex 0.594788 -2.85494 6.2
    endloop
  endfacet
  facet normal 0 0 1
    outer loop
      vertex -0.213989 0.37902 6.2
      vertex -0.84227 -0.0168991 6.2
      vertex -1.05391 -0.350517 6.2
    endloop
  endfacet
  facet normal -0 -0 1
    outer loop
      vertex -1.05391 -2.12249 6.2
      vertex 0.190369 -2.90469 6.2
      vertex -1.18091 -1.71621 6.2
    endloop
  endfacet
  facet normal 0 0 1
    outer loop
      vertex 0.190369 0.428519 6.2
      vertex -1.05391 -0.350517 6.2
      vertex -1.18091 -0.757576 6.2
    endloop
  endfacet
  facet normal 0 0 1
    outer loop
      vertex 0.190369 -2.90469 6.2
      vertex -1.05391 -2.12249 6.2
      vertex -0.213989 -2.85494 6.2
    endloop
  endfacet
  facet normal 0 0 1
    outer loop
      vertex 1.56172 -0.757576 6.2
      vertex -1.18091 -0.757576 6.2
      vertex -1.22324 -1.23809 6.2
    endloop
  endfacet
  facet normal -0 -0 1
    outer loop
      vertex -0.84227 -2.45695 6.2
      vertex -0.213989 -2.85494 6.2
      vertex -1.05391 -2.12249 6.2
    endloop
  endfacet
  facet normal 0 0 1
    outer loop
      vertex -0.213989 -2.85494 6.2
      vertex -0.84227 -2.45695 6.2
      vertex -0.558212 -2.7057 6.2
    endloop
  endfacet
  facet normal 0 1 -0
    outer loop
      vertex 4.33333 7.50555 0
      vertex -4.33333 7.50555 6.2
      vertex 4.33333 7.50555 6.2
    endloop
  endfacet
  facet normal 0 1 0
    outer loop
      vertex -4.33333 7.50555 6.2
      vertex 4.33333 7.50555 0
      vertex -4.33333 7.50555 0
    endloop
  endfacet
  facet normal -0.866025 -0.500001 0
    outer loop
      vertex -4.33333 -7.50555 0
      vertex -8.66667 0 6.2
      vertex -8.66667 0 0
    endloop
  endfacet
  facet normal -0.866025 -0.500001 0
    outer loop
      vertex -8.66667 0 6.2
      vertex -4.33333 -7.50555 0
      vertex -4.33333 -7.50555 6.2
    endloop
  endfacet
  facet normal 0 -1 0
    outer loop
      vertex -4.33333 -7.50555 0
      vertex 4.33333 -7.50555 6.2
      vertex -4.33333 -7.50555 6.2
    endloop
  endfacet
  facet normal 0 -1 -0
    outer loop
      vertex 4.33333 -7.50555 6.2
      vertex -4.33333 -7.50555 0
      vertex 4.33333 -7.50555 0
    endloop
  endfacet
  facet normal 0.866025 0.500001 0
    outer loop
      vertex 8.66667 0 6.2
      vertex 4.33333 7.50555 0
      vertex 4.33333 7.50555 6.2
    endloop
  endfacet
  facet normal 0.866025 0.500001 0
    outer loop
      vertex 4.33333 7.50555 0
      vertex 8.66667 0 6.2
      vertex 8.66667 0 0
    endloop
  endfacet
endsolid OpenSCAD_Model
